<svg width="85" height="225" viewBox="0 0 85 225" fill="none" xmlns="http://www.w3.org/2000/svg">
<g clip-path="url(#clip0_4_34)">
<path opacity="0.73" d="M77.9384 51.0341C72.9051 71.9853 45.8121 79.5915 45.8121 79.5915C45.8121 79.5915 25.1309 60.5082 30.1642 39.557C30.2603 39.1566 30.3886 38.6228 30.4848 38.2225C31.4838 34.6515 32.7177 31.278 34.2878 28.2676C36.3864 24.8196 39.0562 21.9323 42.1315 19.7069C47.588 15.7953 54.496 14.0672 61.0349 15.6381C67.7073 17.2411 72.9751 21.753 76.0271 27.8499C77.7559 31.2294 78.8227 35.0144 79.1261 39.0394C79.1574 42.4345 78.8576 46.0324 77.9921 49.6355C78.1628 50.0999 78.0345 50.6337 77.9384 51.0341Z" fill="#C92C2C"/>
<path d="M44.0424 88.912C45.11 89.1685 46.7434 89.4197 47.8378 88.9769C48.9322 88.5341 49.2528 87.1996 48.9755 86.0038C48.5864 83.5108 46.1903 79.971 46.1903 79.971C46.1903 79.971 42.5812 82.0681 41.2356 84.1444C40.5787 85.1158 40.1568 86.2847 40.8986 87.3098C41.5389 88.1694 42.9748 88.6555 44.0424 88.912Z" fill="#A42825"/>
<path opacity="0.64" d="M57.5408 73.6584C57.0928 71.9981 53.1743 73.0328 50.4785 73.0909C43.7577 73.4524 39.5583 65.6684 38.0062 59.7907C36.2513 53.582 36.557 47.0215 38.3307 40.8135C40.334 34.2373 43.8589 26.6152 49.9826 22.8638C52.8283 21.0068 55.9565 20.9114 59.1116 20.1167C60.4729 19.738 61.8983 19.0924 62.251 17.6245C62.4113 16.9572 62.374 16.5248 62.0698 16.0283C61.8029 15.9642 61.4026 15.868 61.1357 15.8039C54.4633 14.201 47.7208 15.8276 42.2323 19.8727C39.157 22.098 36.4872 24.9854 34.3886 28.4334C32.8185 31.4438 31.4511 34.7852 30.5856 38.3883C30.4894 38.7886 30.3611 39.3224 30.265 39.7227C25.2638 60.5405 45.9129 79.7573 45.9129 79.7573C45.9129 79.7573 51.0592 78.3118 57.1882 75.1263C57.4499 74.6245 57.7116 74.1228 57.5408 73.6584Z" fill="#6A1818"/>
<path opacity="0.64" d="M42.8499 86.6432C42.0925 83.9205 44.0361 81.7056 46.3212 80.4196C46.017 79.9231 45.7128 79.4266 45.7128 79.4266C45.7128 79.4266 42.1037 81.5237 40.7581 83.5999C40.1012 84.5713 39.6793 85.7403 40.421 86.7654C41.0614 87.625 42.4973 88.1111 43.5649 88.3676C43.6983 88.3996 43.8318 88.4317 43.9652 88.4637C43.4955 88.0686 43.09 87.4066 42.8499 86.6432Z" fill="#8F1614"/>
<path d="M77.9384 51.0341C72.9051 71.9853 45.8121 79.5915 45.8121 79.5915C45.8121 79.5915 25.1309 60.5082 30.1642 39.557C30.2603 39.1566 30.3886 38.6228 30.4848 38.2225C31.4838 34.6515 32.7177 31.278 34.2878 28.2676C36.3864 24.8196 39.0562 21.9323 42.1315 19.7069C47.588 15.7953 54.496 14.0672 61.0349 15.6381C67.7073 17.2411 72.9751 21.753 76.0271 27.8499C77.7559 31.2294 78.8227 35.0144 79.1261 39.0394C79.1574 42.4345 78.8576 46.0324 77.9921 49.6355C78.1628 50.0999 78.0345 50.6337 77.9384 51.0341Z" stroke="#292929" stroke-width="1.64693" stroke-miterlimit="10" stroke-linecap="round" stroke-linejoin="round"/>
<path d="M68.4801 43.3986C67.2791 43.1101 66.4039 42.0529 66.2921 40.7557C65.9402 38.6951 65.3908 36.8693 64.5424 35.1128C63.454 32.593 61.837 30.5107 59.8569 28.7647C59.051 28.0065 58.5761 27.0455 58.6991 25.9459C58.8542 24.7128 59.6765 23.64 61.5717 23.3895C63.6323 23.0377 66.2744 24.3781 67.6513 25.697C69.9356 27.9395 72.1661 31.5807 73.0674 35.4671C73.4834 37.2608 73.4081 39.9245 72.4896 41.3977C71.4749 43.2711 69.9481 43.7512 68.4801 43.3986Z" fill="white"/>
<path d="M43.6657 88.5316C44.7333 88.7881 46.3667 89.0393 47.4611 88.5965C48.5555 88.1537 48.8761 86.8192 48.5988 85.6234C48.2097 83.1304 45.8136 79.5906 45.8136 79.5906C45.8136 79.5906 42.2045 81.6877 40.8589 83.764C40.202 84.7354 39.7801 85.9044 40.5218 86.9295C41.1622 87.7891 42.5981 88.2752 43.6657 88.5316Z" stroke="#292929" stroke-width="1.64693" stroke-miterlimit="10" stroke-linecap="round" stroke-linejoin="round"/>
<path d="M43.6638 88.5327C43.3484 90.433 43.332 92.264 43.3797 93.8281C43.4595 95.2588 43.9283 99.1824 44.392 102.54C44.5359 103.704 44.6797 104.868 44.7543 105.733C45.7554 116.842 42.4862 126.925 37.8183 136.954C33.4443 146.348 28.104 155.652 23.7404 166.177C17.8811 180.579 14.3703 196.955 19.2927 218.181" stroke="#292929" stroke-width="1.64693" stroke-miterlimit="10" stroke-linecap="round" stroke-linejoin="round"/>
<path d="M68.4801 43.3986C67.2791 43.1101 66.4039 42.0529 66.2921 40.7557C65.9402 38.6951 65.3908 36.8693 64.5424 35.1128C63.454 32.593 61.837 30.5107 59.8569 28.7647C59.051 28.0065 58.5761 27.0455 58.6991 25.9459C58.8542 24.7128 59.6765 23.64 61.5717 23.3895C63.6323 23.0377 66.2744 24.3781 67.6513 25.697C69.9356 27.9395 72.1661 31.5807 73.0674 35.4671C73.4834 37.2608 73.4081 39.9245 72.4896 41.3977C71.4749 43.2711 69.9481 43.7512 68.4801 43.3986Z" stroke="#292929" stroke-width="1.64693" stroke-miterlimit="10" stroke-linecap="round" stroke-linejoin="round"/>
<path opacity="0.72" d="M51.4048 33.3054C50.1374 54.8155 24.806 67.0712 24.806 67.0712C24.806 67.0712 1.089 51.9255 2.35636 30.4155C2.38058 30.0045 2.41287 29.4564 2.43709 29.0454C2.79205 25.3543 3.41295 21.8164 4.42873 18.5766C5.88782 14.8131 8.00772 11.5009 10.6434 8.7691C15.3263 3.95817 21.8223 1.04134 28.5356 1.43689C35.386 1.84051 41.3656 5.35492 45.4431 10.8195C47.7397 13.8419 49.456 17.3801 50.463 21.289C51.0913 24.6255 51.4294 28.22 51.2115 31.9192C51.4613 32.3464 51.429 32.8944 51.4048 33.3054Z" fill="#FF9900"/>
<path opacity="0.72" d="M24.2625 76.2504C25.3586 76.315 27.0107 76.2748 28.0101 75.6463C29.0095 75.0178 29.0903 73.6477 28.6068 72.5193C27.785 70.1337 24.8034 67.0709 24.8034 67.0709C24.8034 67.0709 21.6197 69.7705 20.6604 72.0511C20.1848 73.123 19.9752 74.348 20.8858 75.2265C21.6674 75.96 23.1664 76.1858 24.2625 76.2504Z" fill="#D17906"/>
<path d="M35.3091 59.1665C34.5758 57.611 30.9006 59.3192 28.2571 59.8508C21.7048 61.3895 16.201 54.4661 13.6387 48.9533C10.8185 43.1504 9.96484 36.6384 10.6183 30.2152C11.4329 23.3891 13.5613 15.2656 18.9293 10.495C21.4037 8.16612 24.4662 7.52167 27.4322 6.18412C28.7056 5.57174 29.9952 4.68534 30.084 3.17827C30.1243 2.49323 30.0115 2.07414 29.6247 1.6389C29.3507 1.62276 28.9397 1.59854 28.6657 1.58239C21.8154 1.17877 15.4644 3.96667 10.7734 8.91461C8.13779 11.6464 6.01788 14.9586 4.5588 18.7221C3.54302 21.9619 2.78511 25.4917 2.56715 29.1909C2.54294 29.6019 2.51065 30.15 2.48643 30.561C1.22714 51.934 24.936 67.2167 24.936 67.2167C24.936 67.2167 29.7476 64.888 35.2203 60.6735C35.3896 60.1336 35.5589 59.5936 35.3091 59.1665Z" fill="#814004"/>
<path d="M23.265 74.5415C22.0402 71.9947 23.5637 69.4723 25.5867 67.8042C25.1999 67.3689 24.8131 66.9337 24.8131 66.9337C24.8131 66.9337 21.6295 69.6333 20.6702 71.9139C20.1946 72.9858 19.9849 74.2108 20.8955 75.0893C21.6772 75.8228 23.1762 76.0486 24.2723 76.1132C24.4093 76.1212 24.5463 76.1293 24.6833 76.1374C24.1514 75.8311 23.6357 75.2508 23.265 74.5415Z" fill="#814004"/>
<path d="M51.4048 33.3054C50.1374 54.8155 24.806 67.0712 24.806 67.0712C24.806 67.0712 1.089 51.9255 2.35636 30.4155C2.38058 30.0045 2.41287 29.4564 2.43709 29.0454C2.79205 25.3543 3.41295 21.8164 4.42873 18.5766C5.88782 14.8131 8.00772 11.5009 10.6434 8.7691C15.3263 3.95817 21.8223 1.04134 28.5356 1.43689C35.386 1.84051 41.3656 5.35492 45.4431 10.8195C47.7397 13.8419 49.456 17.3801 50.463 21.289C51.0913 24.6255 51.4294 28.22 51.2115 31.9192C51.4613 32.3464 51.429 32.8944 51.4048 33.3054Z" stroke="#292929" stroke-width="1.64693" stroke-miterlimit="10" stroke-linecap="round" stroke-linejoin="round"/>
<path d="M40.8889 27.4614C39.6559 27.3887 38.6083 26.5021 38.2699 25.2448C37.5609 23.2783 36.6987 21.5777 35.5544 19.998C34.0395 17.709 32.0813 15.9439 29.8248 14.5736C28.8981 13.969 28.2615 13.1066 28.189 12.0025C28.1247 10.7614 28.7453 9.5606 30.5668 8.9805C32.5333 8.27148 35.3701 9.12603 36.9577 10.1819C39.6009 11.9875 42.4375 15.1792 44.0087 18.8463C44.7339 20.5388 45.1285 23.1743 44.4836 24.7861C43.6775 26.8008 42.259 27.5421 40.8889 27.4614Z" fill="white"/>
<path d="M24.2625 76.2504C25.3586 76.315 27.0107 76.2748 28.0101 75.6463C29.0095 75.0178 29.0903 73.6477 28.6068 72.5193C27.785 70.1337 24.8034 67.0709 24.8034 67.0709C24.8034 67.0709 21.6197 69.7705 20.6604 72.0511C20.1848 73.123 19.9752 74.348 20.8858 75.2265C21.6674 75.96 23.1664 76.1858 24.2625 76.2504Z" stroke="#292929" stroke-width="1.64693" stroke-miterlimit="10" stroke-linecap="round" stroke-linejoin="round"/>
<path d="M40.8889 27.4614C39.6559 27.3887 38.6083 26.5021 38.2699 25.2448C37.5609 23.2783 36.6987 21.5777 35.5544 19.998C34.0395 17.709 32.0813 15.9439 29.8248 14.5736C28.8981 13.969 28.2615 13.1066 28.189 12.0025C28.1247 10.7614 28.7453 9.5606 30.5668 8.9805C32.5333 8.27148 35.3701 9.12603 36.9577 10.1819C39.6009 11.9875 42.4375 15.1792 44.0087 18.8463C44.7339 20.5388 45.1285 23.1743 44.4836 24.7861C43.6775 26.8008 42.259 27.5421 40.8889 27.4614Z" stroke="#292929" stroke-width="1.64693" stroke-miterlimit="10" stroke-linecap="round" stroke-linejoin="round"/>
<path d="M24.2662 76.2505C23.6446 86.8 24.8044 95.1173 26.3991 105.385C29.0327 123.688 27.2579 142.143 23.0332 160.18C15.8655 190.828 22.6901 208.003 22.6901 208.003" stroke="#292929" stroke-width="1.64693" stroke-miterlimit="10" stroke-linecap="round" stroke-linejoin="round"/>
</g>
<defs>
<clipPath id="clip0_4_34">
<rect width="85" height="225" fill="white"/>
</clipPath>
</defs>
</svg>
