<svg width="91" height="111" viewBox="0 0 91 111" fill="none" xmlns="http://www.w3.org/2000/svg">
<g clip-path="url(#clip0_5_57)">
<g opacity="0.5">
<path d="M39.8232 34.1808C42.3964 33.0522 43.7292 29.9324 42.8003 27.2126C41.8714 24.4928 39.0325 23.2029 36.4593 24.3315C33.8862 25.4601 32.5533 28.5798 33.4822 31.2996C34.4111 34.0195 37.2501 35.3094 39.8232 34.1808Z" stroke="white" stroke-width="2.39418" stroke-miterlimit="10" stroke-linecap="round" stroke-linejoin="round"/>
<path d="M42.8529 26.9936C39.6693 15.9316 28.4431 19.3702 28.4431 19.3702C38.476 12.4428 36.9253 6.15485 36.9253 6.15485" stroke="white" stroke-width="2.39418" stroke-miterlimit="10" stroke-linecap="round" stroke-linejoin="round"/>
</g>
<g opacity="0.5">
<path d="M30.3082 106.082C32.2142 105.246 33.2015 102.935 32.5135 100.92C31.8254 98.9054 29.7224 97.9498 27.8164 98.7858C25.9104 99.6218 24.923 101.933 25.6111 103.947C26.2992 105.962 28.4021 106.918 30.3082 106.082Z" stroke="white" stroke-width="2.39418" stroke-miterlimit="10" stroke-linecap="round" stroke-linejoin="round"/>
<path d="M46.9779 104.768C48.8839 103.932 49.8712 101.621 49.1832 99.6065C48.4951 97.5919 46.3921 96.6364 44.4861 97.4724C42.5801 98.3084 41.5927 100.619 42.2808 102.634C42.9689 104.649 45.0719 105.604 46.9779 104.768Z" stroke="white" stroke-width="2.39418" stroke-miterlimit="10" stroke-linecap="round" stroke-linejoin="round"/>
<path d="M32.332 103.209C33.5718 94.0861 33.6825 86.2949 33.6825 86.2949C47.3205 86.8014 51.4251 83.7459 51.4251 83.7459C51.4251 83.7459 52.9687 100.438 48.3953 103.28" stroke="white" stroke-width="2.39418" stroke-miterlimit="10" stroke-linecap="round" stroke-linejoin="round"/>
<path d="M33.5506 92.1729C45.5028 92.7273 51.6402 90.0576 51.6402 90.0576" stroke="white" stroke-width="2.39418" stroke-miterlimit="10" stroke-linecap="round" stroke-linejoin="round"/>
</g>
<g opacity="0.5">
<path d="M75.9131 62.0475C78.4862 60.9189 79.8191 57.7991 78.8902 55.0793C77.9613 52.3595 75.1223 51.0696 72.5492 52.1982C69.976 53.3268 68.6431 56.4465 69.572 59.1663C70.5009 61.8862 73.3399 63.1761 75.9131 62.0475Z" stroke="white" stroke-width="2.39418" stroke-miterlimit="10" stroke-linecap="round" stroke-linejoin="round"/>
<path d="M78.6493 55.0822C75.0117 43.2719 69.7643 44.7354 69.7643 44.7354C78.8467 43.4751 76.1324 39.01 83.2229 39.4612" stroke="white" stroke-width="2.39418" stroke-miterlimit="10" stroke-linecap="round" stroke-linejoin="round"/>
</g>
</g>
<defs>
<clipPath id="clip0_5_57">
<rect width="91" height="111" fill="white"/>
</clipPath>
</defs>
</svg>
