<svg width="58" height="57" viewBox="0 0 58 57" fill="none" xmlns="http://www.w3.org/2000/svg">
<path fill-rule="evenodd" clip-rule="evenodd" d="M51.2796 21.2452C45.2568 4.67517 25.4751 2.20166 15.6216 8.53549C5.47155 15.0604 0.691048 31.3298 8.64459 41.7747C13.2428 47.8132 22.2958 52.8183 30.0691 52.3685C44.5598 51.5302 55.67 36.2799 51.2796 21.2452Z" fill="#FF854D" stroke="#292929" stroke-width="1.57606" stroke-miterlimit="1.5" stroke-linecap="round" stroke-linejoin="round"/>
<path d="M37.6568 26.8127C40.2793 28.4335 41.5906 29.244 41.527 30.1359C41.4633 31.0279 40.1047 31.6201 37.3876 32.8045L23.2642 38.9609C21.2321 39.8468 20.216 40.2897 19.5336 39.7991C18.8512 39.3086 18.9473 38.2043 19.1394 35.9959L20.491 20.4609C20.6984 18.0763 20.8022 16.8841 21.5907 16.5277C22.3792 16.1714 23.3495 16.8865 25.29 18.3167C28.6312 20.7793 33.3888 24.1749 37.6568 26.8127Z" fill="white"/>
<path d="M42.8327 47.3615C32.3676 51.9049 18.0688 49.1533 14.6866 35.2652C9.47007 13.8444 38.4549 4.04289 50.0636 17.9225C45.2285 8.62715 34.2268 3.57638 23.3032 6.23661C10.4375 9.36978 2.4643 22.0337 5.50252 34.5095C8.54074 46.9853 21.4438 54.5652 34.3095 51.4321C37.4079 50.4281 40.449 49.1888 42.8327 47.3615Z" fill="#A05E1E" fill-opacity="0.3"/>
</svg>
