<svg width="46" height="47" viewBox="0 0 46 47" fill="none" xmlns="http://www.w3.org/2000/svg">
<path d="M15.7564 31.7864C8.7715 28.2012 6.01547 19.6325 9.60064 12.6476C13.1858 5.66274 21.7546 2.90669 28.7395 6.49186C35.7243 10.077 38.4803 18.6458 34.8952 25.6307C31.31 32.6156 22.7413 35.3716 15.7564 31.7864Z" fill="#BCCF00"/>
<path d="M14.3597 26.076C27.6656 32.9056 38.2715 13.2154 26.5639 5.54173C27.2903 5.74808 27.949 6.08614 28.7395 6.49186C35.7218 10.0757 38.479 18.6484 34.8952 25.6307C31.3113 32.613 22.7387 35.3702 15.7564 31.7864C10.355 29.014 7.56622 23.4214 8.15615 17.732C8.58402 21.1141 10.5392 24.115 14.3597 26.076Z" fill="#846F00"/>
<path d="M15.7564 31.7864C8.7715 28.2012 6.01547 19.6325 9.60064 12.6476C13.1858 5.66274 21.7546 2.90669 28.7395 6.49186C35.7243 10.077 38.4803 18.6458 34.8952 25.6307C31.31 32.6156 22.7413 35.3716 15.7564 31.7864Z" stroke="#010202" stroke-width="1.92508" stroke-miterlimit="10"/>
</svg>
