<svg width="49" height="49" viewBox="0 0 49 49" fill="none" xmlns="http://www.w3.org/2000/svg">
<path d="M15.8633 30.9553C9.82249 25.996 8.96386 17.0565 13.9456 10.9882C18.9274 4.91987 27.863 4.02079 33.9039 8.98002C39.9447 13.9392 40.8033 22.8788 35.8215 28.9471C30.8397 35.0154 21.9042 35.9145 15.8633 30.9553Z" fill="#9F1074"/>
<path d="M16.5914 25.422C27.7572 34.5885 41.9712 18.6683 33.5621 8.69942C33.676 8.79296 33.79 8.88648 33.9039 8.98002C39.9425 13.9374 40.8014 22.8811 35.8215 28.9471C30.8416 35.0132 21.902 35.9127 15.8633 30.9553C9.93863 26.0914 9.00567 17.4702 13.5698 11.4459C11.4745 15.8568 11.6921 21.3999 16.5914 25.422Z" fill="#86004F"/>
<path d="M15.8633 30.9553C9.82249 25.996 8.96386 17.0565 13.9456 10.9882C18.9274 4.91987 27.863 4.02079 33.9039 8.98002C39.9447 13.9392 40.8033 22.8788 35.8215 28.9471C30.8397 35.0154 21.9042 35.9145 15.8633 30.9553Z" stroke="#010202" stroke-width="1.92508" stroke-miterlimit="10"/>
</svg>
