<svg width="43" height="41" viewBox="0 0 43 41" fill="none" xmlns="http://www.w3.org/2000/svg">
<path d="M31.4292 25.4236C29.6278 32.8207 21.9835 37.3113 14.3552 35.4536C6.72691 33.5959 2.00324 26.0933 3.80465 18.6962C5.60607 11.2991 13.2504 6.80848 20.8787 8.66619C28.507 10.5239 33.2306 18.0264 31.4292 25.4236Z" fill="#FEC82F"/>
<path d="M9.26841 33.1791C15.4711 35.8719 23.946 34.2411 25.9506 26.0095C29.0425 13.3134 11.8631 7.50401 4.98259 15.7305C7.84839 10.2211 14.3691 7.22751 20.8436 8.80424C28.4691 10.6613 33.1948 18.1672 31.3941 25.5616C29.5933 32.9561 21.9456 37.4487 14.3201 35.5917C12.4836 34.9967 10.6812 34.2621 9.26841 33.1791Z" fill="#A05E1E"/>
<path d="M31.4292 25.4236C29.6278 32.8207 21.9835 37.3113 14.3552 35.4536C6.72691 33.5959 2.00324 26.0933 3.80465 18.6962C5.60607 11.2991 13.2504 6.80848 20.8787 8.66619C28.507 10.5239 33.2306 18.0264 31.4292 25.4236Z" stroke="#010202" stroke-width="1.92508" stroke-miterlimit="10"/>
</svg>
