<svg width="45" height="46" viewBox="0 0 45 46" fill="none" xmlns="http://www.w3.org/2000/svg">
<path d="M15.7257 31.7252C8.57571 28.5688 5.34983 20.1875 8.52057 13.005C11.6913 5.82246 20.058 2.5586 27.208 5.715C34.358 8.8714 37.5839 17.2528 34.4131 24.4353C31.2424 31.6178 22.8758 34.8816 15.7257 31.7252Z" fill="#D31A2B"/>
<path opacity="0.64" d="M9.49321 11.168C7.62525 16.4944 8.97858 22.9192 15.5866 25.8363C27.8586 31.2538 36.638 15.3813 29.5163 7.0576C34.9118 10.8963 37.2244 18.0683 34.4136 24.4354C31.244 31.6152 22.8736 34.8805 15.7262 31.7252C8.57879 28.57 5.35146 20.1849 8.52104 13.005C8.82006 12.3277 9.19419 11.8453 9.49321 11.168Z" fill="#790E17"/>
<path d="M15.7257 31.7252C8.57571 28.5688 5.34983 20.1875 8.52057 13.005C11.6913 5.82246 20.058 2.5586 27.208 5.715C34.358 8.8714 37.5839 17.2528 34.4131 24.4353C31.2424 31.6178 22.8758 34.8816 15.7257 31.7252Z" stroke="#010202" stroke-width="1.92508" stroke-miterlimit="10"/>
</svg>
