<svg width="44" height="45" viewBox="0 0 44 45" fill="none" xmlns="http://www.w3.org/2000/svg">
<path d="M23.4003 33.1925C16.0465 35.8396 7.92939 31.997 5.27024 24.6098C2.61109 17.2226 6.41683 9.08812 13.7707 6.441C21.1245 3.79387 29.2416 7.63653 31.9008 15.0237C34.5599 22.411 30.7541 30.5454 23.4003 33.1925Z" fill="#00A5BA"/>
<path d="M18.542 29.2753C31.3025 24.682 26.5589 6.71643 15.3452 6.03144C22.2536 4.33157 29.4419 8.19681 31.8994 15.024C34.5576 22.4085 30.7501 30.5466 23.3989 33.1928C16.3252 35.7391 8.68247 32.3522 5.61995 25.5853C8.46143 29.1267 13.1327 31.2225 18.542 29.2753Z" fill="#00698C"/>
<path d="M23.4003 33.1925C16.0465 35.8396 7.92939 31.997 5.27024 24.6098C2.61109 17.2226 6.41683 9.08812 13.7707 6.441C21.1245 3.79387 29.2416 7.63653 31.9008 15.0237C34.5599 22.411 30.7541 30.5454 23.4003 33.1925Z" stroke="#010202" stroke-width="1.92508" stroke-miterlimit="10"/>
</svg>
