<svg width="121" height="128" viewBox="0 0 121 128" fill="none" xmlns="http://www.w3.org/2000/svg">
<path d="M65.5362 92.5318L60.9793 109.538C60.6006 110.952 59.506 112.022 58.1263 112.46L42.7804 116.78C40.9262 117.293 38.9476 116.763 37.6455 115.404L26.5157 103.99C25.4802 102.955 25.127 101.447 25.5056 100.033L30.0625 83.0267C30.4791 81.472 31.7655 80.2515 33.39 80.0304L48.1965 77.5348C49.7865 77.2539 51.4353 77.6957 52.6719 78.7339C55.6472 81.1974 61.2244 85.8223 64.2469 88.2984C65.3892 89.3114 65.9527 90.9772 65.5362 92.5318Z" fill="#F1F0EE"/>
<path d="M36.4173 110.38C37.406 110.645 38.5183 109.699 38.9017 108.268C39.2851 106.837 38.7945 105.463 37.8058 105.198C36.8171 104.933 35.7048 105.878 35.3214 107.309C34.9379 108.74 35.4286 110.115 36.4173 110.38Z" fill="#414047"/>
<path d="M38.3124 84.0767C39.6653 84.4392 40.9316 84.1004 41.1408 83.3198C41.3499 82.5393 40.4227 81.6127 39.0697 81.2501C37.7168 80.8876 36.4505 81.2265 36.2413 82.007C36.0322 82.7876 36.9594 83.7142 38.3124 84.0767Z" fill="#414047"/>
<path d="M46.704 91.7778C48.161 92.1682 49.5342 91.7675 49.7713 90.8829C50.0083 89.9983 49.0193 88.9647 47.5623 88.5743C46.1053 88.1839 44.732 88.5845 44.495 89.4691C44.258 90.3538 45.247 91.3874 46.704 91.7778Z" fill="#414047"/>
<path d="M49.2891 82.1202C50.564 82.4618 51.7613 82.127 51.9635 81.3725C52.1657 80.618 51.2961 79.7294 50.0212 79.3878C48.7463 79.0462 47.5489 79.3809 47.3468 80.1355C47.1446 80.89 48.0142 81.7786 49.2891 82.1202Z" fill="#414047"/>
<path d="M58.0543 89.366C59.3292 89.7076 60.5322 89.3518 60.7414 88.5712C60.9505 87.7907 60.0865 86.881 58.8117 86.5394C57.5368 86.1978 56.3338 86.5537 56.1246 87.3342C55.9155 88.1147 56.7794 89.0244 58.0543 89.366Z" fill="#414047"/>
<path d="M31.7536 92.1649C32.7423 92.4298 33.8546 91.4845 34.238 90.0536C34.6214 88.6226 34.1308 87.2478 33.1421 86.9828C32.1534 86.7179 31.0411 87.6632 30.6577 89.0942C30.2742 90.5252 30.7649 91.9 31.7536 92.1649Z" fill="#414047"/>
<path d="M45.7896 112.891C46.7783 113.155 47.8906 112.21 48.274 110.779C48.6574 109.348 48.1668 107.973 47.1781 107.708C46.1894 107.444 45.0771 108.389 44.6937 109.82C44.3102 111.251 44.8009 112.626 45.7896 112.891Z" fill="#414047"/>
<path d="M52.9524 106.327C53.9411 106.592 55.0534 105.646 55.4368 104.215C55.8202 102.784 55.3296 101.41 54.3409 101.145C53.3522 100.88 52.2399 101.825 51.8565 103.256C51.4731 104.687 51.9637 106.062 52.9524 106.327Z" fill="#414047"/>
<path d="M60.1124 99.7628C61.101 100.028 62.2134 99.0824 62.5968 97.6515C62.9802 96.2205 62.4896 94.8457 61.5009 94.5807C60.5122 94.3158 59.3999 95.2611 59.0165 96.6921C58.633 98.1231 59.1237 99.4979 60.1124 99.7628Z" fill="#414047"/>
<path d="M41.4732 114.31C41.7922 112.931 42.5133 111.559 42.9264 110.205C43.4027 108.616 43.8445 106.967 44.2392 105.306C44.8898 102.501 45.5529 99.6493 46.2506 96.8572C46.5157 95.8679 46.8278 94.8912 47.4319 94.1442C44.2941 93.6064 37.806 86.1623 36.7453 85.2217C33.2366 82.1104 35.4021 81.3779 36.7692 80.9868C38.5763 80.4611 40.4397 80.1021 42.2905 79.7901C44.4021 79.4471 46.5264 79.0569 48.6724 78.7736C49.8696 78.6399 51.1012 78.566 52.3202 78.5392C51.0929 77.6549 49.6198 77.3107 48.1367 77.5697L33.3302 80.0653C31.7402 80.3462 30.4193 81.507 30.0027 83.0616L25.4458 100.068C25.0671 101.481 25.4801 102.955 26.4558 104.025L37.5856 115.439C38.8533 116.738 40.7251 117.29 42.5069 116.859C41.6876 116.336 41.1795 115.594 41.4732 114.31Z" fill="#816359"/>
<path d="M39.9495 116.981C39.0073 116.728 38.1753 116.253 37.4662 115.508L26.3364 104.093C25.2664 102.999 24.8787 101.43 25.27 99.97L29.8269 82.9634C30.2687 81.3146 31.6148 80.0595 33.2991 79.8039L48.1055 77.3083C49.7427 77.0401 51.4386 77.4945 52.7223 78.5453L64.2973 88.1099C65.6281 89.1733 66.1663 90.9333 65.7245 92.5821L61.1676 109.589C60.7763 111.049 59.6094 112.201 58.1825 112.626L42.8367 116.947C41.8498 117.238 40.8445 117.221 39.9495 116.981ZM50.4392 77.8326C49.6854 77.6307 48.9409 77.5826 48.1459 77.7231L33.3394 80.2187C31.8091 80.465 30.5951 81.604 30.1912 83.1115L25.6342 100.118C25.2808 101.437 25.6466 102.898 26.6005 103.861L37.7303 115.275C38.998 116.574 40.9295 117.092 42.6768 116.601L58.0227 112.281C59.3301 111.924 60.3775 110.841 60.731 109.522L65.2879 92.5156C65.6918 91.0081 65.1502 89.4492 64.0079 88.4362L52.4329 78.8718C51.8617 78.3653 51.1458 78.022 50.4392 77.8326Z" fill="#010202"/>
<path d="M35.8357 85.7865L32.5626 82.7383C32.4465 82.6062 32.6039 82.3959 32.7671 82.5406L36.1125 85.5072C36.3228 85.6645 36.046 85.9438 35.8357 85.7865Z" fill="#010202"/>
<path d="M46.094 94.0388C45.0105 93.7485 43.99 93.2226 43.1396 92.4393L35.8683 85.8457C35.7867 85.7734 35.7774 85.6194 35.8498 85.5378C35.9221 85.4562 36.0761 85.447 36.1577 85.5193L43.429 92.113C45.0483 93.6072 47.2625 94.2005 49.4119 93.7161L58.7451 91.6726C58.8519 91.6507 58.9806 91.7357 59.0025 91.8425C59.0244 91.9494 58.9394 92.0781 58.8325 92.1L49.4994 94.1434C48.3368 94.3368 47.1775 94.3292 46.094 94.0388Z" fill="#010202"/>
<path d="M63.4222 91.006L58.8027 92.0404C58.5419 92.0715 58.4418 91.6912 58.7026 91.6601L63.3566 90.6855C63.5703 90.6418 63.6359 90.9623 63.4222 91.006Z" fill="#010202"/>
<path d="M43.8903 101.324L45.1366 96.8613C45.1745 96.72 45.41 96.7831 45.3721 96.9244L44.22 101.412C44.2512 101.673 43.8146 101.607 43.8903 101.324Z" fill="#010202"/>
<path d="M42.2079 108.549C42.1136 108.524 42.0446 108.404 42.0699 108.31L43.9381 101.338C43.9633 101.244 44.0828 101.175 44.177 101.2C44.2713 101.225 44.3402 101.345 44.315 101.439L42.4468 108.411C42.4215 108.505 42.3021 108.574 42.2079 108.549Z" fill="#010202"/>
<path d="M40.6782 113.693L42.0701 108.31C42.0954 108.216 42.2148 108.147 42.3091 108.172C42.4033 108.197 42.4722 108.317 42.447 108.411C42.447 108.411 40.9138 113.756 40.9609 113.769C40.8759 113.897 40.6403 113.834 40.6782 113.693Z" fill="#010202"/>
<path d="M36.3506 110.615C35.2671 110.325 34.7002 108.86 35.1167 107.305C35.5333 105.751 36.7566 104.766 37.8401 105.056C38.9236 105.346 39.4905 106.811 39.0739 108.366C38.6574 109.92 37.4341 110.905 36.3506 110.615ZM37.7391 105.433C36.844 105.193 35.847 106.087 35.4936 107.406C35.1401 108.725 35.5565 109.998 36.4516 110.238C37.3466 110.478 38.3436 109.584 38.697 108.265C39.0631 106.899 38.6342 105.673 37.7391 105.433Z" fill="#010202"/>
<path d="M38.2627 84.2653C36.7552 83.8614 35.8139 82.8518 36.0537 81.9567C36.2936 81.0616 37.6607 80.6706 39.1211 81.0619C40.6286 81.4658 41.5699 82.4754 41.33 83.3705C41.0902 84.2656 39.7702 84.6693 38.2627 84.2653ZM39.0201 81.4387C37.7952 81.1105 36.6073 81.3982 36.4306 82.0577C36.2539 82.7172 37.1388 83.5603 38.3637 83.8885C39.5885 84.2167 40.7764 83.9291 40.9531 83.2695C41.1299 82.61 40.2921 81.7796 39.0201 81.4387Z" fill="#010202"/>
<path d="M46.6501 91.9659C45.0483 91.5367 44.0381 90.4076 44.3032 89.4183C44.5682 88.429 46.0077 87.9564 47.6094 88.3856C49.2112 88.8147 50.2214 89.9438 49.9563 90.9331C49.6786 91.9695 48.2047 92.3825 46.6501 91.9659ZM47.4958 88.8096C46.1767 88.4561 44.8694 88.8127 44.6674 89.5664C44.4654 90.3202 45.4194 91.2827 46.7384 91.6361C48.0575 91.9896 49.3648 91.633 49.5668 90.8792C49.7343 90.0657 48.8149 89.163 47.4958 88.8096Z" fill="#010202"/>
<path d="M49.2385 82.309C47.8252 81.9304 46.9184 80.9805 47.1582 80.0854C47.3854 79.2374 48.6583 78.8211 50.0716 79.1998C51.4849 79.5785 52.3917 80.5283 52.1519 81.4234C51.9246 82.2714 50.6047 82.6751 49.2385 82.309ZM49.9706 79.5767C48.84 79.2737 47.7118 79.5268 47.5351 80.1864C47.371 80.7988 48.2088 81.6292 49.3395 81.9321C50.4701 82.2351 51.5983 81.982 51.775 81.3224C51.9391 80.71 51.1013 79.8796 49.9706 79.5767Z" fill="#010202"/>
<path d="M58.0031 89.5548C56.5898 89.1762 55.6957 88.1792 55.9355 87.2841C56.1753 86.389 57.4482 85.9727 58.8615 86.3514C60.2748 86.7301 61.169 87.7271 60.9291 88.6222C60.6893 89.5172 59.4164 89.9335 58.0031 89.5548ZM58.7605 86.7283C57.6299 86.4253 56.4891 86.7256 56.3124 87.3851C56.1356 88.0446 56.9735 88.875 58.1041 89.178C59.2347 89.4809 60.3755 89.1807 60.5522 88.5212C60.729 87.8616 59.9383 87.0438 58.7605 86.7283Z" fill="#010202"/>
<path d="M31.7033 92.3538C30.6198 92.0634 30.0655 90.5516 30.4694 89.0441C30.8734 87.5366 32.1093 86.5045 33.1928 86.7948C34.2763 87.0851 34.8306 88.597 34.4267 90.1045C34.0227 91.612 32.8339 92.6567 31.7033 92.3538ZM33.0918 87.1717C32.1967 86.9319 31.1997 87.826 30.8463 89.1451C30.4929 90.4642 30.9092 91.737 31.8043 91.9769C32.6994 92.2167 33.6963 91.3226 34.0498 90.0035C34.4032 88.6844 33.9869 87.4115 33.0918 87.1717Z" fill="#010202"/>
<path d="M45.7311 113.127C44.6476 112.836 44.0807 111.372 44.4972 109.817C44.9138 108.262 46.1371 107.277 47.2206 107.568C48.3041 107.858 48.871 109.323 48.4544 110.877C48.0379 112.432 46.8146 113.417 45.7311 113.127ZM47.1196 107.945C46.2245 107.705 45.2276 108.599 44.8741 109.918C44.5207 111.237 44.937 112.51 45.8321 112.75C46.7271 112.99 47.7241 112.096 48.0776 110.776C48.4436 109.41 48.0147 108.184 47.1196 107.945Z" fill="#010202"/>
<path d="M52.9017 106.516C51.8182 106.226 51.2513 104.761 51.6678 103.206C52.0844 101.652 53.3077 100.667 54.3912 100.957C55.4747 101.247 56.0416 102.712 55.6251 104.267C55.2085 105.821 54.0323 106.819 52.9017 106.516ZM54.2902 101.334C53.3951 101.094 52.3982 101.988 52.0447 103.307C51.6913 104.627 52.1076 105.899 53.0027 106.139C53.8978 106.379 54.8947 105.485 55.2482 104.166C55.6016 102.847 55.1853 101.574 54.2902 101.334Z" fill="#010202"/>
<path d="M60.0652 99.9514C58.9817 99.6611 58.4274 98.1493 58.8314 96.6418C59.2353 95.1343 60.4712 94.1021 61.5547 94.3925C62.6382 94.6828 63.1925 96.1946 62.7886 97.7021C62.3846 99.2096 61.1958 100.254 60.0652 99.9514ZM61.4537 94.7693C60.5587 94.5295 59.5617 95.4237 59.2082 96.7428C58.8548 98.0618 59.2711 99.3347 60.1662 99.5745C61.0613 99.8144 62.0582 98.9202 62.4117 97.6011C62.7651 96.2821 62.3488 95.0092 61.4537 94.7693Z" fill="#010202"/>
<path d="M69.4755 30.5203L81.9251 18.0706C82.9597 17.036 84.4427 16.6566 85.8566 16.967L101.307 20.8985C103.169 21.3813 104.617 22.8297 105.066 24.6575L108.997 40.1076C109.377 41.5215 108.928 43.0045 107.894 44.0391L95.4439 56.4888C94.3059 57.6268 92.5815 58.0407 91.0641 57.4199L76.9936 52.1779C75.4761 51.6261 74.2691 50.4191 73.7173 48.9017C72.3723 45.2806 69.8548 38.4867 68.4753 34.8311C67.9925 33.3827 68.3374 31.6583 69.4755 30.5203Z" fill="#F1F0EE"/>
<path d="M103.615 29.623C102.891 28.8992 101.455 29.1617 100.407 30.2093C99.3599 31.2568 99.0974 32.6928 99.8212 33.4165C100.545 34.1403 101.981 33.8778 103.028 32.8303C104.076 31.7827 104.338 30.3468 103.615 29.623Z" fill="#414047"/>
<path d="M88.8221 51.4534C87.8316 50.463 86.5655 50.1233 85.9941 50.6947C85.4228 51.2661 85.7624 52.5322 86.7529 53.5226C87.7433 54.513 89.0094 54.8527 89.5808 54.2813C90.1522 53.7099 89.8125 52.4438 88.8221 51.4534Z" fill="#414047"/>
<path d="M85.4067 40.5899C84.3401 39.5232 82.9505 39.1836 82.3029 39.8312C81.6553 40.4787 81.995 41.8683 83.0616 42.9349C84.1282 44.0015 85.5178 44.3413 86.1654 43.6937C86.813 43.0461 86.4733 41.6565 85.4067 40.5899Z" fill="#414047"/>
<path d="M78.3372 47.6598C77.4039 46.7265 76.1996 46.4177 75.6473 46.9701C75.0949 47.5224 75.4037 48.7267 76.337 49.66C77.2703 50.5933 78.4746 50.9021 79.027 50.3498C79.5793 49.7974 79.2705 48.593 78.3372 47.6598Z" fill="#414047"/>
<path d="M74.3722 37.0029C73.4389 36.0696 72.2192 35.7763 71.6478 36.3477C71.0764 36.9191 71.3697 38.1388 72.303 39.0721C73.2363 40.0054 74.4561 40.2988 75.0275 39.7274C75.5989 39.156 75.3055 37.9362 74.3722 37.0029Z" fill="#414047"/>
<path d="M98.5462 47.729C97.8225 47.0052 96.3865 47.2677 95.339 48.3153C94.2914 49.3628 94.0289 50.7988 94.7527 51.5225C95.4764 52.2463 96.9124 51.9838 97.9599 50.9362C99.0075 49.8887 99.27 48.4527 98.5462 47.729Z" fill="#414047"/>
<path d="M96.7534 22.7605C96.0297 22.0367 94.5937 22.2992 93.5462 23.3468C92.4986 24.3943 92.2361 25.8302 92.9599 26.554C93.6837 27.2778 95.1196 27.0153 96.1672 25.9677C97.2147 24.9202 97.4772 23.4842 96.7534 22.7605Z" fill="#414047"/>
<path d="M87.2686 24.8642C86.5448 24.1405 85.1089 24.403 84.0613 25.4505C83.0138 26.4981 82.7513 27.934 83.4751 28.6578C84.1988 29.3815 85.6348 29.119 86.6823 28.0715C87.7299 27.0239 87.9924 25.588 87.2686 24.8642Z" fill="#414047"/>
<path d="M77.7866 26.968C77.0628 26.2442 75.6269 26.5067 74.5793 27.5543C73.5318 28.6018 73.2693 30.0378 73.9931 30.7615C74.7168 31.4853 76.1528 31.2228 77.2003 30.1753C78.2479 29.1277 78.5104 27.6918 77.7866 26.968Z" fill="#414047"/>
<path d="M101.204 23.6917C100.238 24.7263 98.9278 25.554 97.8932 26.5196C96.6861 27.6577 95.4791 28.8647 94.3065 30.1062C92.3408 32.2099 90.3406 34.3481 88.3403 36.4173C87.6161 37.1415 86.8574 37.8313 85.9608 38.1761C88.4093 40.2109 90.3061 49.9016 90.7544 51.2466C92.2373 55.6954 89.9957 55.247 88.6162 54.9022C86.7885 54.4538 84.9951 53.8331 83.2363 53.1779C81.2361 52.4191 79.2014 51.6949 77.2011 50.8672C76.0976 50.3844 74.994 49.8326 73.9249 49.2464C74.5457 50.6258 75.6492 51.6604 77.0632 52.1777L91.1338 57.4197C92.6512 57.9715 94.3755 57.6266 95.5136 56.4886L107.963 44.0389C108.998 43.0043 109.377 41.5213 109.067 40.1074L105.135 24.6573C104.687 22.8985 103.342 21.4845 101.583 20.9672C102.032 21.8294 102.101 22.7261 101.204 23.6917Z" fill="#816359"/>
<path d="M103.857 22.1394C104.547 22.8292 105.03 23.6568 105.271 24.6569L109.203 40.107C109.582 41.5899 109.134 43.1418 108.064 44.2109L95.6148 56.6606C94.4077 57.8677 92.6144 58.2815 91.028 57.6607L76.9574 52.4188C75.4055 51.8325 74.164 50.591 73.5777 49.0391L68.3358 34.9685C67.715 33.3821 68.1289 31.5888 69.3359 30.3818L81.7856 17.9321C82.8547 16.863 84.4411 16.4491 85.8895 16.794L101.34 20.7255C102.34 20.9669 103.202 21.4842 103.857 22.1394ZM75.1986 50.7979C75.7504 51.3497 76.3712 51.7635 77.1299 52.0394L91.2005 57.2814C92.6489 57.8332 94.2698 57.4538 95.3734 56.3503L107.823 43.9005C108.789 42.9349 109.203 41.4865 108.858 40.176L104.926 24.7259C104.478 22.9671 103.064 21.5532 101.305 21.1048L85.855 17.1733C84.5445 16.8285 83.0961 17.2423 82.1305 18.2079L69.6808 30.6577C68.5772 31.7612 68.2668 33.3821 68.7496 34.8305L73.9916 48.9011C74.233 49.6253 74.6813 50.2806 75.1986 50.7979Z" fill="#010202"/>
<path d="M91.821 51.212L93.1315 55.4883C93.166 55.6608 92.9246 55.7642 92.8556 55.5573L91.4417 51.3154C91.3382 51.074 91.7175 50.9706 91.821 51.212Z" fill="#010202"/>
<path d="M87.0646 38.9342C87.8578 39.7274 88.4786 40.693 88.8234 41.7966L91.8238 51.1425C91.8583 51.2459 91.7893 51.3839 91.6859 51.4184C91.5824 51.4529 91.4444 51.3839 91.4099 51.2804L88.4096 41.9345C87.7544 39.8308 86.1335 38.21 84.0298 37.5547L74.9253 34.6578C74.8218 34.6233 74.7529 34.4854 74.7874 34.3819C74.8218 34.2785 74.9598 34.2095 75.0633 34.244L84.1677 37.1409C85.2713 37.5547 86.2714 38.141 87.0646 38.9342Z" fill="#010202"/>
<path d="M70.5452 32.8994L75.0629 34.3133C75.3043 34.4168 75.2009 34.7961 74.9595 34.6927L70.4417 33.2098C70.2348 33.1408 70.3382 32.8304 70.5452 32.8994Z" fill="#010202"/>
<path d="M92.6164 33.7277L89.3057 36.9695C89.2022 37.0729 89.0298 36.9005 89.1333 36.797L92.375 33.4863C92.4785 33.2449 92.8233 33.5208 92.6164 33.7277Z" fill="#010202"/>
<path d="M97.6837 28.3124C97.7526 28.3814 97.7527 28.5194 97.6837 28.5883L92.5797 33.6924C92.5107 33.7613 92.3727 33.7613 92.3038 33.6924C92.2348 33.6234 92.2348 33.4855 92.3038 33.4165L97.4078 28.3124C97.4768 28.2435 97.6147 28.2435 97.6837 28.3124Z" fill="#010202"/>
<path d="M101.583 24.6229L97.6863 28.5889C97.6173 28.6578 97.4793 28.6578 97.4104 28.5889C97.3414 28.5199 97.3414 28.3819 97.4104 28.313C97.4104 28.313 101.411 24.4505 101.376 24.416C101.514 24.347 101.687 24.5194 101.583 24.6229Z" fill="#010202"/>
<path d="M103.79 29.4506C104.583 30.2438 104.342 31.7957 103.203 32.9338C102.065 34.0718 100.513 34.3133 99.7203 33.5201C98.9271 32.7269 99.1685 31.175 100.307 30.0369C101.445 28.8988 102.997 28.6574 103.79 29.4506ZM99.9962 33.2442C100.651 33.8994 101.962 33.6235 102.928 32.6579C103.893 31.6923 104.169 30.3818 103.514 29.7265C102.859 29.0713 101.548 29.3472 100.582 30.3128C99.5824 31.3129 99.3409 32.5889 99.9962 33.2442Z" fill="#010202"/>
<path d="M88.9578 51.3149C90.0614 52.4185 90.3718 53.7635 89.7165 54.4188C89.0613 55.074 87.6818 54.7291 86.6127 53.66C85.5091 52.5565 85.1988 51.2115 85.854 50.5562C86.5093 49.901 87.8542 50.2114 88.9578 51.3149ZM86.8886 53.3842C87.7853 54.2808 88.9578 54.6257 89.4406 54.1428C89.9234 53.66 89.5786 52.4875 88.6819 51.5908C87.7853 50.6942 86.6127 50.3493 86.1299 50.8321C85.6471 51.3149 85.9575 52.453 86.8886 53.3842Z" fill="#010202"/>
<path d="M85.5456 40.4519C86.7182 41.6244 87.0285 43.1074 86.3043 43.8316C85.5801 44.5558 84.0972 44.2454 82.9246 43.0729C81.7521 41.9003 81.4417 40.4174 82.1659 39.6932C82.9246 38.9345 84.4075 39.3138 85.5456 40.4519ZM83.235 42.7625C84.2006 43.7281 85.5111 44.073 86.0629 43.5212C86.6147 42.9694 86.2698 41.6589 85.3042 40.6933C84.3386 39.7277 83.0281 39.3828 82.4763 39.9346C81.9245 40.5554 82.2694 41.7969 83.235 42.7625Z" fill="#010202"/>
<path d="M78.4749 47.5208C79.5095 48.5554 79.8199 49.8315 79.1646 50.4867C78.5439 51.1075 77.2334 50.8315 76.1988 49.7969C75.1642 48.7623 74.8538 47.4863 75.509 46.8311C76.1298 46.2103 77.4748 46.5207 78.4749 47.5208ZM76.4747 49.5211C77.3023 50.3487 78.4059 50.6936 78.8887 50.2108C79.3371 49.7625 79.0267 48.6244 78.199 47.7967C77.3713 46.969 76.2677 46.6242 75.7849 47.107C75.3366 47.5553 75.647 48.6934 76.4747 49.5211Z" fill="#010202"/>
<path d="M74.511 36.8647C75.5456 37.8993 75.8215 39.2098 75.1663 39.865C74.5111 40.5203 73.2006 40.2444 72.166 39.2098C71.1314 38.1752 70.8554 36.8647 71.5107 36.2094C72.1659 35.5542 73.4764 35.8301 74.511 36.8647ZM72.4418 38.9339C73.2695 39.7616 74.4076 40.072 74.8904 39.5892C75.3732 39.1063 75.0628 37.9683 74.2352 37.1406C73.4075 36.3129 72.2694 36.0025 71.7866 36.4853C71.3038 36.9682 71.5797 38.0717 72.4418 38.9339Z" fill="#010202"/>
<path d="M98.6851 47.59C99.4783 48.3832 99.2024 49.9696 98.0988 51.0732C96.9952 52.1768 95.4088 52.4527 94.6156 51.6595C93.8224 50.8663 94.0983 49.2799 95.2019 48.1763C96.3055 47.0727 97.8574 46.7624 98.6851 47.59ZM94.8915 51.3836C95.5468 52.0388 96.8573 51.7629 97.8229 50.7973C98.7885 49.8317 99.0644 48.5212 98.4092 47.8659C97.7539 47.2107 96.4434 47.4866 95.4778 48.4522C94.5122 49.4178 94.2363 50.7283 94.8915 51.3836Z" fill="#010202"/>
<path d="M96.926 22.5886C97.7192 23.3818 97.4778 24.9337 96.3397 26.0717C95.2017 27.2098 93.6497 27.4512 92.8565 26.658C92.0634 25.8648 92.3048 24.3129 93.4428 23.1748C94.5809 22.0368 96.1328 21.7954 96.926 22.5886ZM93.1324 26.3821C93.7877 27.0374 95.0982 26.7614 96.0638 25.7958C97.0294 24.8302 97.3053 23.5197 96.6501 22.8645C95.9948 22.2092 94.6843 22.4851 93.7187 23.4507C92.7186 24.4508 92.4772 25.7269 93.1324 26.3821Z" fill="#010202"/>
<path d="M87.4101 24.7262C88.2033 25.5194 87.9619 27.0714 86.8238 28.2094C85.6858 29.3475 84.1339 29.5889 83.3407 28.7957C82.5475 28.0025 82.7889 26.4506 83.927 25.3125C85.065 24.1745 86.5824 23.8986 87.4101 24.7262ZM83.6166 28.5198C84.2718 29.175 85.5823 28.8992 86.548 27.9335C87.5136 26.9679 87.7895 25.6574 87.1342 25.0022C86.479 24.3469 85.1685 24.6228 84.2028 25.5884C83.2372 26.554 82.9613 27.8645 83.6166 28.5198Z" fill="#010202"/>
<path d="M77.9245 26.8303C78.7177 27.6235 78.4418 29.2098 77.3383 30.3134C76.2347 31.417 74.6483 31.6929 73.8551 30.8997C73.0619 30.1065 73.3378 28.5201 74.4414 27.4165C75.5449 26.313 77.0968 26.0026 77.9245 26.8303ZM74.131 30.6238C74.7862 31.2791 76.0967 31.0032 77.0624 30.0375C78.028 29.0719 78.3039 27.7614 77.6486 27.1062C76.9934 26.4509 75.6829 26.7268 74.7173 27.6924C73.7516 28.6581 73.4757 29.9686 74.131 30.6238Z" fill="#010202"/>
</svg>
