<svg width="36" height="54" viewBox="0 0 36 54" fill="none" xmlns="http://www.w3.org/2000/svg">
<path opacity="0.73" d="M28.6782 15.8034C30.9366 26.9797 19.6325 36.6732 19.6325 36.6732C19.6325 36.6732 5.45163 32.1293 3.1933 20.9529C3.15015 20.7394 3.09261 20.4546 3.04946 20.2411C2.73227 18.3046 2.57184 16.4106 2.65374 14.6158C2.89167 12.4931 3.52868 10.5121 4.50798 8.75822C6.25374 5.66401 9.18312 3.29385 12.6713 2.58902C16.2306 1.86981 19.7649 2.85981 22.5895 5.10462C24.1729 6.34063 25.5291 7.91893 26.5726 9.78271C27.3449 11.4049 28.0036 13.1982 28.392 15.1203C28.5775 15.3051 28.6351 15.5898 28.6782 15.8034Z" fill="#9F1074"/>
<path d="M20.5984 41.4423C21.1679 41.3272 22.0077 41.0834 22.4341 40.6268C22.8605 40.1701 22.7167 39.4583 22.3169 38.9463C21.574 37.8368 19.6346 36.6727 19.6346 36.6727C19.6346 36.6727 18.3706 38.4841 18.188 39.7806C18.0895 40.3932 18.1478 41.0483 18.7324 41.3747C19.2315 41.6444 20.0289 41.5573 20.5984 41.4423Z" fill="#9F1074"/>
<path opacity="0.64" d="M23.9377 31.2099C23.3524 30.5131 21.7029 31.8837 20.4222 32.513C17.2778 34.1856 13.5264 31.3872 11.4704 28.913C9.24339 26.3251 7.92665 23.1088 7.39296 19.7343C6.88731 16.1318 6.8785 11.6879 8.9802 8.52179C9.93147 6.9959 11.4113 6.25232 12.748 5.16719C13.3167 4.6818 13.8567 4.05403 13.6985 3.27098C13.6266 2.91504 13.5122 2.71587 13.2555 2.54546C13.1132 2.57423 12.8996 2.61738 12.7572 2.64615C9.19787 3.36536 6.32529 5.64995 4.59391 8.81535C3.61461 10.5692 2.9776 12.5502 2.73968 14.6729C2.65778 16.4677 2.74702 18.3761 3.1354 20.2982C3.17855 20.5117 3.23609 20.7965 3.27924 21.0101C5.52318 32.1152 19.7185 36.7303 19.7185 36.7303C19.7185 36.7303 21.8655 34.8887 24.0959 31.9929C24.1096 31.6938 24.1232 31.3947 23.9377 31.2099Z" fill="#65186A"/>
<path opacity="0.64" d="M19.7847 40.7171C18.8139 39.5796 19.2525 38.0832 20.0621 36.9564C19.8054 36.786 19.5487 36.6156 19.5487 36.6156C19.5487 36.6156 18.2847 38.427 18.1021 39.7235C18.0036 40.3361 18.0619 40.9912 18.6465 41.3176C19.1455 41.5872 19.943 41.5002 20.5125 41.3851C20.5836 41.3707 20.6548 41.3564 20.726 41.342C20.4125 41.2571 20.0702 41.0299 19.7847 40.7171Z" fill="#532058"/>
<path d="M28.6782 15.8034C30.9366 26.9797 19.6325 36.6732 19.6325 36.6732C19.6325 36.6732 5.45163 32.1293 3.1933 20.9529C3.15015 20.7394 3.09261 20.4546 3.04946 20.2411C2.73227 18.3046 2.57184 16.4106 2.65374 14.6158C2.89167 12.4931 3.52868 10.5121 4.50798 8.75822C6.25374 5.66401 9.18312 3.29385 12.6713 2.58902C16.2306 1.86981 19.7649 2.85981 22.5895 5.10462C24.1729 6.34063 25.5291 7.91893 26.5726 9.78271C27.3449 11.4049 28.0036 13.1982 28.392 15.1203C28.5775 15.3051 28.6351 15.5898 28.6782 15.8034Z" stroke="#010202" stroke-width="0.871508" stroke-miterlimit="10" stroke-linecap="round" stroke-linejoin="round"/>
<path d="M22.4351 14.2497C21.7944 14.3791 21.1386 14.0671 20.7956 13.4696C20.1671 12.5593 19.4962 11.8057 18.6973 11.1521C17.6129 10.1857 16.3725 9.54724 15.0329 9.15109C14.477 8.96703 14.0348 8.61183 13.8485 8.05672C13.6479 7.43042 13.8031 6.7322 14.6567 6.18927C15.567 5.56077 17.1338 5.61464 18.0888 5.94034C19.6851 6.50689 21.5677 7.75655 22.8671 9.42042C23.4668 10.1884 24.0249 11.4834 23.9127 12.3952C23.8438 13.5205 23.2182 14.0915 22.4351 14.2497Z" fill="white"/>
<path d="M20.5984 41.4423C21.1679 41.3272 22.0077 41.0834 22.4341 40.6268C22.8605 40.1701 22.7167 39.4583 22.3169 38.9463C21.574 37.8368 19.6346 36.6727 19.6346 36.6727C19.6346 36.6727 18.3706 38.4841 18.188 39.7806C18.0895 40.3932 18.1478 41.0483 18.7324 41.3747C19.2315 41.6444 20.0289 41.5573 20.5984 41.4423Z" stroke="#010202" stroke-width="0.871508" stroke-miterlimit="10" stroke-linecap="round" stroke-linejoin="round"/>
<path d="M20.8925 41.3775C20.9757 41.5031 21.168 41.5964 21.3564 41.6702C21.5428 41.7343 22.1516 41.8859 22.697 42.0096C22.8794 42.0541 23.0618 42.0986 23.1848 42.1348C24.7811 42.5953 24.5998 43.4151 23.867 44.3666C23.1799 45.2581 22.1059 46.2379 21.5457 47.1851C20.8225 48.4703 21.23 49.6288 25.4544 50.2194" stroke="#010202" stroke-miterlimit="10" stroke-linecap="round" stroke-linejoin="round"/>
<path d="M22.4351 14.2497C21.7944 14.3791 21.1386 14.0671 20.7956 13.4696C20.1671 12.5593 19.4962 11.8057 18.6973 11.1521C17.6129 10.1857 16.3725 9.54724 15.0329 9.15109C14.477 8.96703 14.0348 8.61183 13.8485 8.05672C13.6479 7.43042 13.8031 6.7322 14.6567 6.18927C15.567 5.56077 17.1338 5.61464 18.0888 5.94034C19.6851 6.50689 21.5677 7.75655 22.8671 9.42042C23.4668 10.1884 24.0249 11.4834 23.9127 12.3952C23.8437 13.5205 23.2182 14.0915 22.4351 14.2497Z" stroke="#010202" stroke-width="0.871508" stroke-miterlimit="10" stroke-linecap="round" stroke-linejoin="round"/>
</svg>
