<svg width="30" height="37" viewBox="0 0 30 37" fill="none" xmlns="http://www.w3.org/2000/svg">
<path d="M27.8826 26.3933L26.4678 22.2232L23.8614 4.05337C23.787 3.68103 23.7125 3.38317 23.4891 3.0853C22.8189 2.19171 20.8828 1.07471 17.0105 1.07471C13.1383 1.07471 11.2766 2.19171 10.5319 3.0853C10.3085 3.38317 10.1596 3.68103 10.1596 4.05337L7.55326 22.2232L6.80859 24.3827L11.7979 32.4996C13.3617 32.7974 15.1489 32.9464 17.0105 32.9464C23.638 32.9464 28.9996 30.8613 28.9996 28.3294C28.9252 27.5848 28.5528 26.9146 27.8826 26.3933Z" fill="#D31A2B"/>
<path d="M6.65946 24.3076C3.53187 24.3076 1 26.8395 1 29.9671C1 33.0947 3.53187 35.6265 6.65946 35.6265C9.78705 35.6265 12.3189 33.0947 12.3189 29.9671C12.3189 26.8395 9.78705 24.3076 6.65946 24.3076Z" fill="#00A5BA"/>
<path d="M8.22175 29.8185C9.04429 29.8185 9.71108 29.1517 9.71108 28.3292C9.71108 27.5066 9.04429 26.8398 8.22175 26.8398C7.39922 26.8398 6.73242 27.5066 6.73242 28.3292C6.73242 29.1517 7.39922 29.8185 8.22175 29.8185Z" fill="white"/>
<path d="M12.2444 29.0737C12.17 31.3822 10.6806 33.6162 7.77646 33.6162C2.04254 33.6162 1.81914 25.0525 7.03179 24.3823C6.88286 24.3823 6.80839 24.3823 6.65946 24.3823C3.53187 24.3823 1 26.9142 1 30.0418C1 33.1694 3.53187 35.7012 6.65946 35.7012C9.78705 35.7012 12.3189 33.1694 12.3189 30.0418C12.3189 29.6694 12.2444 29.3716 12.2444 29.0737Z" fill="#00698C"/>
<path opacity="0.64" d="M19.245 30.4142C17.011 28.0313 17.1599 23.7122 16.9365 20.6591C16.7131 17.0847 16.7876 13.4358 16.7131 9.86143C16.6387 8.14871 16.6387 6.43597 16.4897 4.72325C14.9259 4.57431 13.3621 4.05305 11.7239 3.23392C11.3515 3.08498 11.0537 2.86158 10.8303 2.63818C10.6814 2.78712 10.5324 2.93605 10.3835 3.08498C10.1601 3.38285 10.0111 3.68071 10.0111 4.05305L7.40482 22.2229L6.66016 24.3824C10.309 25.276 13.1387 26.9143 11.6494 32.4993C13.2132 32.7971 15.0004 32.9461 16.8621 32.9461C18.8726 32.9461 20.7343 32.7971 22.3726 32.4248C21.3301 31.978 20.2131 31.3823 19.245 30.4142Z" fill="#790E17"/>
<path d="M6.65946 24.3076C3.53187 24.3076 1 26.8395 1 29.9671C1 33.0947 3.53187 35.6265 6.65946 35.6265C9.78705 35.6265 12.3189 33.0947 12.3189 29.9671C12.3189 26.8395 9.78705 24.3076 6.65946 24.3076Z" stroke="#010202" stroke-width="0.893598" stroke-miterlimit="10" stroke-linecap="round" stroke-linejoin="round"/>
<path d="M8.22175 29.8185C9.04429 29.8185 9.71108 29.1517 9.71108 28.3292C9.71108 27.5066 9.04429 26.8398 8.22175 26.8398C7.39922 26.8398 6.73242 27.5066 6.73242 28.3292C6.73242 29.1517 7.39922 29.8185 8.22175 29.8185Z" stroke="#010202" stroke-width="0.893598" stroke-miterlimit="10" stroke-linecap="round" stroke-linejoin="round"/>
<path d="M13.6593 23.3399C12.3934 23.1909 11.3509 22.8931 10.3828 22.5952" stroke="#010202" stroke-width="0.893598" stroke-miterlimit="10" stroke-linecap="round" stroke-linejoin="round"/>
<path d="M19.3196 23.4888C18.6494 23.5632 17.9048 23.5632 17.1601 23.5632C15.8942 23.5632 14.7027 23.4888 13.6602 23.3398" stroke="#010202" stroke-width="0.893598" stroke-miterlimit="10" stroke-linecap="round" stroke-linejoin="round"/>
<path d="M24.4565 22.4463C23.1161 22.9676 21.329 23.3399 19.3184 23.4888" stroke="#010202" stroke-width="0.893598" stroke-miterlimit="10" stroke-linecap="round" stroke-linejoin="round"/>
<path d="M21.1056 3.9043C19.9886 4.3511 18.5738 4.64896 17.01 4.64896C15.4462 4.64896 13.9568 4.3511 12.8398 3.9043" stroke="#010202" stroke-width="0.893598" stroke-miterlimit="10" stroke-linecap="round" stroke-linejoin="round"/>
<path d="M11.7246 32.4251C13.2884 32.723 15.0756 32.8719 16.9373 32.8719C23.5648 32.8719 28.9264 30.7868 28.9264 28.255C28.9264 27.5848 28.554 26.9146 27.8094 26.3188" stroke="#010202" stroke-width="0.893598" stroke-miterlimit="10" stroke-linecap="round" stroke-linejoin="round"/>
<path d="M12.3184 30.7867C13.7332 31.0846 15.297 31.2335 16.9353 31.2335C21.7011 31.2335 25.7968 29.8931 26.8393 28.2549" stroke="#010202" stroke-width="0.893598" stroke-miterlimit="10" stroke-linecap="round" stroke-linejoin="round"/>
<path d="M6.73242 24.308L7.47709 22.1485L10.0834 3.97866C10.1579 3.60633 10.2323 3.30846 10.4557 3.0106C11.1259 2.117 13.0621 1 16.9343 1C20.8066 1 22.6682 2.117 23.4129 3.0106C23.6363 3.30846 23.7852 3.60633 23.7852 3.97866L26.3916 22.1485L27.8809 26.3186" stroke="#010202" stroke-width="0.893598" stroke-miterlimit="10" stroke-linecap="round" stroke-linejoin="round"/>
</svg>
