<svg width="38" height="41" viewBox="0 0 38 41" fill="none" xmlns="http://www.w3.org/2000/svg">
<path d="M33.1016 8.958L35.7813 23.9677C36.0019 25.2031 35.532 26.498 34.5922 27.3032L24.1641 36.3672C22.8978 37.4856 21.1683 37.7944 19.5932 37.1833L6.67286 32.2877C5.51252 31.8575 4.62354 30.8052 4.40298 29.5698L1.72323 14.5601C1.48062 13.2012 2.05202 11.7607 3.2499 10.9732L13.9758 3.57688C15.1119 2.80041 16.5943 2.53574 17.9289 2.8711C21.1364 3.70067 27.2823 5.28039 30.5516 6.09893C31.8354 6.50709 32.859 7.5991 33.1016 8.958Z" fill="#F1F0EE"/>
<path d="M16.8712 33.7177C17.7582 33.5594 18.2946 32.4078 18.0692 31.1456C17.8439 29.8834 16.9421 28.9885 16.0552 29.1469C15.1682 29.3052 14.6319 30.4568 14.8572 31.719C15.0826 32.9812 15.9843 33.8761 16.8712 33.7177Z" fill="#414047"/>
<path d="M8.64988 12.3035C9.84386 12.0903 10.713 11.3644 10.5912 10.6822C10.4694 9.9999 9.40275 9.61961 8.20877 9.83278C7.01479 10.0459 6.14562 10.7718 6.26743 11.4541C6.38924 12.1364 7.4559 12.5167 8.64988 12.3035Z" fill="#414047"/>
<path d="M18.0517 15.3412C19.3481 15.1098 20.2854 14.2861 20.1453 13.5015C20.0052 12.7169 18.8408 12.2685 17.5445 12.4999C16.2481 12.7313 15.3108 13.555 15.4509 14.3396C15.591 15.1242 16.7554 15.5727 18.0517 15.3412Z" fill="#414047"/>
<path d="M16.5199 6.75574C17.6457 6.55476 18.4645 5.86639 18.3487 5.21823C18.233 4.57007 17.2266 4.20756 16.1009 4.40855C14.9751 4.60953 14.1563 5.2979 14.272 5.94606C14.3877 6.59422 15.3942 6.95673 16.5199 6.75574Z" fill="#414047"/>
<path d="M26.0674 9.19373C27.1931 8.99275 28.007 8.27672 27.8852 7.59445C27.7634 6.91217 26.752 6.52201 25.6263 6.723C24.5005 6.92398 23.6866 7.64001 23.8084 8.32228C23.9303 9.00456 24.9416 9.39472 26.0674 9.19373Z" fill="#414047"/>
<path d="M6.4611 21.1079C7.34806 20.9495 7.8844 19.7979 7.65905 18.5357C7.4337 17.2735 6.532 16.3787 5.64505 16.537C4.75809 16.6954 4.22174 17.847 4.44709 19.1092C4.67244 20.3714 5.57414 21.2662 6.4611 21.1079Z" fill="#414047"/>
<path d="M25.1486 32.2397C26.0356 32.0813 26.5719 30.9298 26.3465 29.6676C26.1212 28.4053 25.2195 27.5105 24.3325 27.6688C23.4456 27.8272 22.9092 28.9788 23.1346 30.241C23.3599 31.5032 24.2616 32.3981 25.1486 32.2397Z" fill="#414047"/>
<path d="M28.3478 24.4658C29.2348 24.3074 29.7711 23.1558 29.5458 21.8936C29.3204 20.6314 28.4187 19.7366 27.5318 19.8949C26.6448 20.0533 26.1085 21.2049 26.3338 22.4671C26.5592 23.7293 27.4609 24.6241 28.3478 24.4658Z" fill="#414047"/>
<path d="M31.5392 16.6298C32.4262 16.4715 32.9625 15.3199 32.7372 14.0577C32.5118 12.7955 31.6101 11.9006 30.7232 12.059C29.8362 12.2173 29.2999 13.3689 29.5252 14.6311C29.7506 15.8933 30.6523 16.7882 31.5392 16.6298Z" fill="#414047"/>
<path d="M22.2489 34.9242C21.9666 33.6998 22.0549 32.4093 21.8961 31.1629C21.7042 29.7312 21.3778 28.2598 21.1242 26.8391C20.6213 24.3794 20.0566 21.9307 19.6155 19.46C19.4611 18.5953 19.3575 17.6577 19.534 16.8613C16.8603 17.5936 9.04235 14.1454 7.83127 13.788C3.9289 12.6363 5.40917 11.2885 6.27616 10.4326C7.48068 9.32521 8.84181 8.38109 10.1412 7.44799C11.6766 6.40902 13.201 5.30828 14.7474 4.33108C15.6695 3.78403 16.5917 3.23697 17.5359 2.81345C16.2851 2.5906 14.9262 2.83321 13.8518 3.59865L3.12597 10.995C1.98985 11.7715 1.35668 13.223 1.59929 14.5819L4.27904 29.5916C4.4996 30.827 5.38858 31.8793 6.54892 32.3095L19.4693 37.2051C20.9716 37.7655 22.6393 37.4677 23.8769 36.5456C23.1533 36.4199 22.5092 36.025 22.2489 34.9242Z" fill="#53B4BA"/>
<path d="M33.1016 8.958L35.7813 23.9677C36.0019 25.2031 35.532 26.498 34.5922 27.3032L24.1641 36.3672C22.8978 37.4856 21.1683 37.7944 19.5932 37.1833L6.67286 32.2877C5.51252 31.8575 4.62354 30.8052 4.40298 29.5698L1.72323 14.5601C1.48062 13.2012 2.05202 11.7607 3.2499 10.9732L13.9758 3.57688C15.1119 2.80041 16.5943 2.53574 17.9289 2.8711C21.1364 3.70067 27.2823 5.28039 30.5516 6.09893C31.8354 6.50709 32.859 7.5991 33.1016 8.958Z" stroke="#010202" stroke-width="0.752941" stroke-miterlimit="10" stroke-linecap="round" stroke-linejoin="round"/>
<path d="M30.8351 8.40636L27.5834 10.899L21.0291 15.9571C19.454 17.1307 17.4157 17.4946 15.5935 16.9276L7.43582 14.4323L3.72978 13.3093" stroke="#010202" stroke-width="0.752941" stroke-miterlimit="10" stroke-linecap="round" stroke-linejoin="round"/>
<path d="M21.5041 34.675L18.8574 19.8506" stroke="#010202" stroke-width="0.752941" stroke-miterlimit="10" stroke-linecap="round" stroke-linejoin="round"/>
<path d="M16.8712 33.7177C17.7582 33.5594 18.2946 32.4078 18.0692 31.1456C17.8439 29.8834 16.9421 28.9885 16.0552 29.1469C15.1682 29.3052 14.6319 30.4568 14.8572 31.719C15.0826 32.9812 15.9843 33.8761 16.8712 33.7177Z" stroke="#010202" stroke-width="0.752941" stroke-miterlimit="10" stroke-linecap="round" stroke-linejoin="round"/>
<path d="M8.64988 12.3035C9.84386 12.0903 10.713 11.3644 10.5912 10.6822C10.4694 9.9999 9.40275 9.61961 8.20877 9.83278C7.01479 10.0459 6.14562 10.7718 6.26743 11.4541C6.38924 12.1364 7.4559 12.5167 8.64988 12.3035Z" stroke="#010202" stroke-width="0.752941" stroke-miterlimit="10" stroke-linecap="round" stroke-linejoin="round"/>
<path d="M18.0517 15.3412C19.3481 15.1098 20.2854 14.2861 20.1453 13.5015C20.0052 12.7169 18.8408 12.2685 17.5445 12.4999C16.2481 12.7313 15.3108 13.555 15.4509 14.3396C15.591 15.1242 16.7554 15.5727 18.0517 15.3412Z" stroke="#010202" stroke-width="0.752941" stroke-miterlimit="10" stroke-linecap="round" stroke-linejoin="round"/>
<path d="M16.5199 6.75574C17.6457 6.55476 18.4645 5.86639 18.3487 5.21823C18.233 4.57007 17.2266 4.20756 16.1009 4.40855C14.9751 4.60953 14.1563 5.2979 14.272 5.94606C14.3877 6.59422 15.3942 6.95673 16.5199 6.75574Z" stroke="#010202" stroke-width="0.752941" stroke-miterlimit="10" stroke-linecap="round" stroke-linejoin="round"/>
<path d="M26.0674 9.19373C27.1931 8.99275 28.007 8.27672 27.8852 7.59445C27.7634 6.91217 26.752 6.52201 25.6263 6.723C24.5005 6.92398 23.6866 7.64001 23.8084 8.32228C23.9303 9.00456 24.9416 9.39472 26.0674 9.19373Z" stroke="#010202" stroke-width="0.752941" stroke-miterlimit="10" stroke-linecap="round" stroke-linejoin="round"/>
<path d="M6.4611 21.1079C7.34806 20.9495 7.8844 19.7979 7.65905 18.5357C7.4337 17.2735 6.532 16.3787 5.64505 16.537C4.75809 16.6954 4.22174 17.847 4.44709 19.1092C4.67244 20.3714 5.57414 21.2662 6.4611 21.1079Z" stroke="#010202" stroke-width="0.752941" stroke-miterlimit="10" stroke-linecap="round" stroke-linejoin="round"/>
<path d="M25.1486 32.2397C26.0356 32.0813 26.5719 30.9298 26.3465 29.6676C26.1212 28.4053 25.2195 27.5105 24.3325 27.6688C23.4456 27.8272 22.9092 28.9788 23.1346 30.241C23.3599 31.5032 24.2616 32.3981 25.1486 32.2397Z" stroke="#010202" stroke-width="0.752941" stroke-miterlimit="10" stroke-linecap="round" stroke-linejoin="round"/>
<path d="M28.3478 24.4658C29.2348 24.3074 29.7711 23.1558 29.5458 21.8936C29.3204 20.6314 28.4187 19.7366 27.5318 19.8949C26.6448 20.0533 26.1085 21.2049 26.3338 22.4671C26.5592 23.7293 27.4609 24.6241 28.3478 24.4658Z" stroke="#010202" stroke-width="0.752941" stroke-miterlimit="10" stroke-linecap="round" stroke-linejoin="round"/>
<path d="M31.5392 16.6298C32.4262 16.4715 32.9625 15.3199 32.7372 14.0577C32.5118 12.7955 31.6101 11.9006 30.7232 12.059C29.8362 12.2173 29.2999 13.3689 29.5252 14.6311C29.7506 15.8933 30.6523 16.7882 31.5392 16.6298Z" stroke="#010202" stroke-width="0.752941" stroke-miterlimit="10" stroke-linecap="round" stroke-linejoin="round"/>
</svg>
