<svg width="19" height="50" viewBox="0 0 19 50" fill="none" xmlns="http://www.w3.org/2000/svg">
<path d="M10.13 42.4528C8.08252 43.1999 4.56452 42.5199 2.94791 41.2959C4.49965 39.0519 6.01246 38.1053 6.97651 37.7505C7.64651 37.4616 8.45742 37.7056 8.88345 38.2277C9.87455 39.4643 10.1886 41.3853 10.13 42.4528Z" fill="white"/>
<path opacity="0.46" d="M14.9603 8.5995C12.4868 8.82455 9.14156 7.77558 7.92243 6.89904L5.75808 19.9836C5.53411 22.7816 7.68318 22.1075 7.61604 24.9874C6.9501 27.7141 5.1214 26.3993 4.28081 29.1546L3.96934 31.0882L2.40308 40.8117C2.54213 41.0041 2.74531 41.1502 2.9396 41.3515C3.09459 41.0931 3.30483 40.8436 3.50616 40.6493C3.57921 40.5477 5.43389 38.1825 7.02345 37.815C7.73091 37.6456 8.50436 37.7702 8.93039 38.2922C9.92149 39.5288 10.2355 41.4499 10.1769 42.5173C10.4157 42.4424 10.5993 42.3586 10.7917 42.2196L12.3135 32.7724L12.6694 30.5625C12.8934 27.7646 10.7443 28.4387 10.8115 25.5588C11.4774 22.832 13.3061 24.1468 14.1378 21.4468L15.8731 10.6737L16.238 8.40855C15.8887 8.46565 15.4753 8.5691 14.9603 8.5995Z" fill="white"/>
<path d="M11.4882 47.0358C11.4704 47.1463 11.4062 47.1926 11.3884 47.3031C11.3154 47.4047 11.2423 47.5063 11.1604 47.6631C10.4103 48.4492 8.67463 49.0198 5.58081 48.5215L5.47031 48.5037C2.10026 47.9608 0.649393 46.7635 0.367604 45.6979C0.420999 45.3664 0.419144 45.026 0.46364 44.7498C0.627529 44.4361 0.90191 44.1402 1.26899 43.9727L1.61606 41.818C1.67835 41.4313 1.96163 41.0802 2.31981 40.9678L2.38396 40.9215C2.523 41.1139 2.72619 41.26 2.92048 41.4613C4.59233 42.6942 8.06398 43.3101 10.1026 42.6182C10.3413 42.5433 10.5249 42.4595 10.7173 42.3205L10.8278 42.3383L10.8742 42.4024C11.1789 42.6216 11.3376 43.0439 11.2753 43.4306L10.9283 45.5853C11.4363 45.9505 11.6324 46.4922 11.4882 47.0358Z" fill="#414047"/>
<path d="M11.4882 47.0358C11.4704 47.1463 11.4062 47.1926 11.3884 47.3031C11.3154 47.4047 11.2423 47.5063 11.1604 47.6631C10.4103 48.4492 8.67463 49.0198 5.58081 48.5215L5.47031 48.5037C2.10026 47.9608 0.649393 46.7635 0.367604 45.6979C0.420999 45.3664 0.419144 45.026 0.46364 44.7498C0.627529 44.4361 0.90191 44.1402 1.26899 43.9727L1.61606 41.818C1.67835 41.4313 1.96163 41.0802 2.31981 40.9678L2.38396 40.9215C2.523 41.1139 2.72619 41.26 2.92048 41.4613C4.59233 42.6942 8.06398 43.3101 10.1026 42.6182C10.3413 42.5433 10.5249 42.4595 10.7173 42.3205L10.8278 42.3383L10.8742 42.4024C11.1789 42.6216 11.3376 43.0439 11.2753 43.4306L10.9283 45.5853C11.4363 45.9505 11.6324 46.4922 11.4882 47.0358Z" stroke="#010202" stroke-width="0.671508" stroke-miterlimit="10"/>
<path d="M17.5984 5.22641L17.2514 7.38104C17.198 7.71252 17.043 7.97096 16.7864 8.15635C16.7223 8.2027 16.6029 8.24014 16.5387 8.28649L16.4746 8.33284L16.3641 8.31504C15.9418 8.47373 15.5283 8.57718 15.0133 8.60758C12.5398 8.83263 9.1946 7.78366 7.97546 6.90712L7.92911 6.84297C7.62433 6.62383 7.46564 6.20151 7.52793 5.81478L7.875 3.66016C7.875 3.66016 9.61286 5.18706 12.5409 5.65872L12.6514 5.67651C15.469 6.13037 17.5984 5.22641 17.5984 5.22641Z" fill="#414047"/>
<path d="M18.3949 4.50433C18.2311 4.81802 17.9656 5.05865 17.6537 5.23514C17.6537 5.23514 15.5243 6.1391 12.5962 5.66745L12.4858 5.64965C9.55767 5.17799 7.81981 3.65109 7.81981 3.65109C6.45978 2.24173 7.56066 -0.0181971 13.1958 0.889521L13.3063 0.907319C16.5659 1.43237 18.0898 2.52805 18.4446 3.49209C18.557 3.85027 18.5036 4.18175 18.3949 4.50433Z" fill="#414047"/>
<path d="M3.73272 40.2888C3.45834 40.5847 3.17505 40.9358 2.93812 41.3511C4.60998 42.584 8.08163 43.1999 10.1202 42.508C10.1558 42.287 10.0898 41.993 10.088 41.6526C7.91924 42.0968 5.64336 41.4468 3.73272 40.2888Z" fill="#AECCDE"/>
<path d="M14.9603 8.5995C12.4868 8.82455 9.14156 7.77558 7.92243 6.89904L5.75808 19.9836C5.53411 22.7816 7.68318 22.1075 7.61604 24.9874C6.9501 27.7141 5.1214 26.3993 4.28081 29.1546L2.40308 40.8117C2.54213 41.0041 2.74531 41.1502 2.9396 41.3515C3.09459 41.0931 3.30483 40.8436 3.50616 40.6493C3.57921 40.5477 5.43389 38.1825 7.02345 37.815C7.73091 37.6456 8.50436 37.7702 8.93039 38.2922C9.92149 39.5288 10.2355 41.4498 10.1769 42.5173C10.4157 42.4424 10.5993 42.3586 10.7917 42.2196L12.7336 30.5162C12.9575 27.7182 10.8085 28.3923 10.8756 25.5124C11.5416 22.7857 13.3703 24.1005 14.2019 21.4005L15.9373 10.6273L16.3022 8.36221C15.8887 8.46565 15.4753 8.5691 14.9603 8.5995Z" stroke="#010202" stroke-width="0.671508" stroke-miterlimit="10"/>
<path d="M12.677 30.5064L14.1543 21.3354" stroke="#010202" stroke-width="0.671508" stroke-miterlimit="10"/>
<path d="M4.27859 29.1539L5.8111 19.9918" stroke="#010202" stroke-width="0.671508" stroke-miterlimit="10"/>
<path d="M17.5984 5.22641L17.2514 7.38104C17.198 7.71252 17.043 7.97096 16.7864 8.15635C16.7223 8.2027 16.6029 8.24014 16.5387 8.28649L16.4746 8.33284L16.3641 8.31504C15.9418 8.47373 15.5283 8.57718 15.0133 8.60758C12.5398 8.83263 9.1946 7.78366 7.97546 6.90712L7.92911 6.84297C7.62433 6.62383 7.46564 6.20151 7.52793 5.81478L7.875 3.66016C7.875 3.66016 9.61286 5.18706 12.5409 5.65872L12.6514 5.67651C15.469 6.13037 17.5984 5.22641 17.5984 5.22641Z" stroke="#010202" stroke-width="0.671508" stroke-miterlimit="10"/>
<path d="M18.3949 4.50433C18.2311 4.81802 17.9656 5.05865 17.6537 5.23514C17.6537 5.23514 15.5243 6.1391 12.5962 5.66745L12.4858 5.64965C9.55767 5.17799 7.81981 3.65109 7.81981 3.65109C6.45978 2.24173 7.56066 -0.0181971 13.1958 0.889521L13.3063 0.907319C16.5659 1.43237 18.0898 2.52805 18.4446 3.49209C18.557 3.85027 18.5036 4.18175 18.3949 4.50433Z" stroke="#010202" stroke-width="0.671508" stroke-miterlimit="10"/>
<path d="M2.39435 44.7212C1.97907 44.4842 1.62795 44.2009 1.23047 43.8535" stroke="#010202" stroke-width="0.671508" stroke-miterlimit="10" stroke-linecap="round" stroke-linejoin="round"/>
<path d="M11.0004 45.4833C11.0004 45.4833 8.79793 46.4889 5.91619 46.0814" stroke="#010202" stroke-width="0.671508" stroke-miterlimit="10" stroke-linecap="round" stroke-linejoin="round"/>
<path d="M10.13 42.4528C8.08252 43.1999 4.56452 42.5199 2.94791 41.2959C4.49965 39.0519 6.01246 38.1053 6.97651 37.7505C7.64651 37.4616 8.45742 37.7056 8.88345 38.2277C9.87455 39.4643 10.1886 41.3853 10.13 42.4528Z" stroke="#010202" stroke-width="0.671508" stroke-miterlimit="10" stroke-linecap="round" stroke-linejoin="round"/>
</svg>
