<svg width="92" height="99" viewBox="0 0 92 99" fill="none" xmlns="http://www.w3.org/2000/svg">
<g filter="url(#filter0_d_205_8596)">
<path d="M43.8916 31.5851L47.9896 39.9675C48.5485 40.8988 49.2936 41.6439 50.4112 41.8302L59.725 43.1341C61.5878 43.3204 62.3329 45.742 61.0289 47.0459L54.323 53.5656C53.5779 54.3107 53.2054 55.4283 53.3916 56.3597L55.0681 65.6735C55.4407 67.5362 53.3916 69.0264 51.7152 68.0951L43.3327 63.8107C42.4014 63.2519 41.2837 63.2519 40.3523 63.8107L31.9699 68.0951C30.2935 69.0264 28.4307 67.5362 28.617 65.6735L30.2935 56.3597C30.4797 55.2421 30.1072 54.3107 29.3621 53.5656L22.6562 47.0459C21.3522 45.742 22.0973 43.5067 23.9601 43.1341L33.2739 41.8302C34.3915 41.6439 35.3229 41.0851 35.6954 39.9675L39.7935 31.5851C40.5386 29.7223 42.9602 29.7223 43.8916 31.5851Z" fill="url(#paint0_linear_205_8596)"/>
</g>
<path d="M44.0779 61.3893L35.6954 65.6736C34.019 66.605 32.1562 65.1148 32.3425 63.252L34.019 53.9383C34.2052 52.8206 33.8327 51.8892 33.0876 51.1441L26.3817 44.6245C25.8228 44.2519 25.6366 43.5068 25.8228 42.7617L23.9601 42.948C22.0973 43.1343 21.3522 45.5559 22.6562 46.8598L29.3621 53.3794C30.1072 54.1245 30.4797 55.2422 30.2935 56.1736L28.617 65.4873C28.2444 67.3501 30.2935 68.8403 31.9699 67.9089L40.3523 63.6246C41.2837 63.0658 42.4014 63.0658 43.3328 63.6246L51.7152 67.9089C53.3916 68.8403 55.2544 67.3501 55.0681 65.4873L47.2445 61.3893C46.1269 61.0167 45.0092 61.0167 44.0779 61.3893Z" fill="#A06C33"/>
<path d="M39.4208 37.7327L42.9601 30.4679C41.8424 29.9091 40.3522 30.0954 39.7934 31.3993L35.6953 39.5954L36.9992 39.4092C37.9306 39.4092 38.862 38.6641 39.4208 37.7327Z" fill="#A06C33"/>
<path d="M43.8916 31.5851L47.9896 39.9675C48.5485 40.8988 49.2936 41.6439 50.4112 41.8302L59.725 43.1341C61.5878 43.3204 62.3329 45.742 61.0289 47.0459L54.323 53.5656C53.5779 54.3107 53.2054 55.4283 53.3916 56.3597L55.0681 65.6735C55.4407 67.5362 53.3916 69.0264 51.7152 68.0951L43.3327 63.8107C42.4014 63.2519 41.2837 63.2519 40.3523 63.8107L31.9699 68.0951C30.2935 69.0264 28.4307 67.5362 28.617 65.6735L30.2935 56.3597C30.4797 55.2421 30.1072 54.3107 29.3621 53.5656L22.6562 47.0459C21.3522 45.742 22.0973 43.5067 23.9601 43.1341L33.2739 41.8302C34.3915 41.6439 35.3229 41.0851 35.6954 39.9675L39.7935 31.5851C40.5386 29.7223 42.9602 29.7223 43.8916 31.5851Z" stroke="#292929" stroke-width="1.5" stroke-miterlimit="10" stroke-linecap="round" stroke-linejoin="round"/>
<defs>
<filter id="filter0_d_205_8596" x="-8" y="0.187988" width="99.6855" height="98.1924" filterUnits="userSpaceOnUse" color-interpolation-filters="sRGB">
<feFlood flood-opacity="0" result="BackgroundImageFix"/>
<feColorMatrix in="SourceAlpha" type="matrix" values="0 0 0 0 0 0 0 0 0 0 0 0 0 0 0 0 0 0 127 0" result="hardAlpha"/>
<feOffset/>
<feGaussianBlur stdDeviation="15"/>
<feComposite in2="hardAlpha" operator="out"/>
<feColorMatrix type="matrix" values="0 0 0 0 1 0 0 0 0 1 0 0 0 0 1 0 0 0 0.25 0"/>
<feBlend mode="normal" in2="BackgroundImageFix" result="effect1_dropShadow_205_8596"/>
<feBlend mode="normal" in="SourceGraphic" in2="effect1_dropShadow_205_8596" result="shape"/>
</filter>
<linearGradient id="paint0_linear_205_8596" x1="61.6851" y1="68.3804" x2="22" y2="68.3804" gradientUnits="userSpaceOnUse">
<stop stop-color="white"/>
<stop offset="1" stop-color="#F8DC6C"/>
</linearGradient>
</defs>
</svg>
