<svg width="109" height="5" viewBox="0 0 109 5" fill="none" xmlns="http://www.w3.org/2000/svg">
<path d="M1.48047 4.27102C2.41206 3.33621 3.40153 2.1918 4.66034 1.48798" stroke="#FFFEF9" stroke-miterlimit="1.5" stroke-linecap="round" stroke-linejoin="round"/>
<path d="M6.16992 3.7002C6.97247 2.88808 7.95517 2.03575 8.99963 1.39026" stroke="#FFFEF9" stroke-miterlimit="1.5" stroke-linecap="round" stroke-linejoin="round"/>
<path d="M10.1406 3.72092C11.0258 2.84549 12.0975 2.09204 13.2109 1.39026" stroke="#FFFEF9" stroke-miterlimit="1.5" stroke-linecap="round" stroke-linejoin="round"/>
<path d="M14.0488 3.94196C14.7653 3.2501 15.8404 2.28215 16.9239 1.87891" stroke="#FFFEF9" stroke-miterlimit="1.5" stroke-linecap="round" stroke-linejoin="round"/>
<path d="M17.9609 3.75867C18.9923 2.90108 20.1664 1.96728 21.4166 1.29248" stroke="#FFFEF9" stroke-miterlimit="1.5" stroke-linecap="round" stroke-linejoin="round"/>
<path d="M22.709 3.37147C23.7138 2.61152 24.7256 1.87943 25.8176 1.19476" stroke="#FFFEF9" stroke-miterlimit="1.5" stroke-linecap="round" stroke-linejoin="round"/>
<path d="M26.6191 3.52893C27.7048 2.64215 28.8871 1.65065 30.2466 0.999268" stroke="#FFFEF9" stroke-miterlimit="1.5" stroke-linecap="round" stroke-linejoin="round"/>
<path d="M30.5859 3.54169C31.4976 2.77268 32.511 1.91351 33.6095 1.29248" stroke="#FFFEF9" stroke-miterlimit="1.5" stroke-linecap="round" stroke-linejoin="round"/>
<path d="M35.2793 3.29602C36.2251 2.4184 37.3268 1.36057 38.656 0.803894" stroke="#FFFEF9" stroke-miterlimit="1.5" stroke-linecap="round" stroke-linejoin="round"/>
<path d="M38.4082 3.50468C39.1302 2.78796 39.9705 1.91063 40.9684 1.39026" stroke="#FFFEF9" stroke-miterlimit="1.5" stroke-linecap="round" stroke-linejoin="round"/>
<path d="M42.377 3.62151C43.2731 2.86088 44.1851 2.06689 45.1942 1.39026" stroke="#FFFEF9" stroke-miterlimit="1.5" stroke-linecap="round" stroke-linejoin="round"/>
<path d="M46.2871 3.65417C47.1846 2.8956 48.0371 2.07134 49.0398 1.39026" stroke="#FFFEF9" stroke-miterlimit="1.5" stroke-linecap="round" stroke-linejoin="round"/>
<path d="M49.4121 3.85215C50.4015 2.98083 51.4393 2.17399 52.544 1.39026" stroke="#FFFEF9" stroke-miterlimit="1.5" stroke-linecap="round" stroke-linejoin="round"/>
<path d="M52.5977 3.66044C53.5583 2.8697 54.4881 2.00025 55.5598 1.29248" stroke="#FFFEF9" stroke-miterlimit="1.5" stroke-linecap="round" stroke-linejoin="round"/>
<path d="M56.5098 3.73014C57.2401 3.05916 58.1929 2.10881 59.229 1.69086" stroke="#FFFEF9" stroke-miterlimit="1.5" stroke-linecap="round" stroke-linejoin="round"/>
<path d="M59.5938 3.84556C60.4205 2.95691 61.561 1.92127 62.8306 1.37817" stroke="#FFFEF9" stroke-miterlimit="1.5" stroke-linecap="round" stroke-linejoin="round"/>
<path d="M62.7637 3.7279C63.792 2.98335 64.8273 2.25222 65.951 1.5932" stroke="#FFFEF9" stroke-miterlimit="1.5" stroke-linecap="round" stroke-linejoin="round"/>
<path d="M66.7324 3.70521C67.6611 2.94954 68.789 2.34476 69.7276 1.5932" stroke="#FFFEF9" stroke-miterlimit="1.5" stroke-linecap="round" stroke-linejoin="round"/>
<path d="M71.4219 3.48004C72.3206 2.75619 73.3019 2.01813 74.3219 1.39026" stroke="#FFFEF9" stroke-miterlimit="1.5" stroke-linecap="round" stroke-linejoin="round"/>
<path d="M75.3945 3.44088C76.1219 2.6241 76.9895 1.83356 77.9801 1.19476" stroke="#FFFEF9" stroke-miterlimit="1.5" stroke-linecap="round" stroke-linejoin="round"/>
<path d="M78.5195 3.50703C79.4126 2.81329 80.3231 2.07199 81.3465 1.48792" stroke="#FFFEF9" stroke-miterlimit="1.5" stroke-linecap="round" stroke-linejoin="round"/>
<path d="M82.4277 3.36547C83.3004 2.61459 84.3141 1.69384 85.5613 1.29248" stroke="#FFFEF9" stroke-miterlimit="1.5" stroke-linecap="round" stroke-linejoin="round"/>
<path d="M86.3379 3.16342C87.2985 2.50373 88.2605 1.72991 89.353 1.19476" stroke="#FFFEF9" stroke-miterlimit="1.5" stroke-linecap="round" stroke-linejoin="round"/>
<path d="M90.3047 3.19665C91.3324 2.49487 92.2802 1.59549 93.411 0.999268" stroke="#FFFEF9" stroke-miterlimit="1.5" stroke-linecap="round" stroke-linejoin="round"/>
<path d="M93.4336 3.36146C94.4035 2.7004 95.3156 1.86245 96.4711 1.39026" stroke="#FFFEF9" stroke-miterlimit="1.5" stroke-linecap="round" stroke-linejoin="round"/>
<path d="M98.1836 3.37068C98.9806 2.67284 99.9201 2.10698 100.69 1.39026" stroke="#FFFEF9" stroke-miterlimit="1.5" stroke-linecap="round" stroke-linejoin="round"/>
<path d="M101.311 3.62426C102.166 2.94369 103.035 2.23271 103.944 1.5932" stroke="#FFFEF9" stroke-miterlimit="1.5" stroke-linecap="round" stroke-linejoin="round"/>
<path d="M105.223 3.40699C106.118 2.61214 107.045 1.77453 108.097 1.09705" stroke="#FFFEF9" stroke-miterlimit="1.5" stroke-linecap="round" stroke-linejoin="round"/>
</svg>
