<svg width="556" height="4" viewBox="0 0 556 4" fill="none" xmlns="http://www.w3.org/2000/svg">
<path d="M1.32033 1.99723C2.62651 1.79094 4.15654 1.51001 5.85352 1.66897" stroke="#988C89" stroke-miterlimit="1.5" stroke-linecap="round" stroke-linejoin="round"/>
<path d="M285.342 1.99723C286.648 1.79094 288.178 1.51001 289.875 1.66897" stroke="#988C89" stroke-miterlimit="1.5" stroke-linecap="round" stroke-linejoin="round"/>
<path d="M20.0078 1.99723C21.4609 1.84726 22.9441 1.67686 24.541 1.66897" stroke="#988C89" stroke-miterlimit="1.5" stroke-linecap="round" stroke-linejoin="round"/>
<path d="M304.027 1.99723C305.48 1.84726 306.964 1.67686 308.561 1.66897" stroke="#988C89" stroke-miterlimit="1.5" stroke-linecap="round" stroke-linejoin="round"/>
<path d="M38.6934 1.99723C40.1758 1.87216 41.6061 1.66188 43.2266 1.66897" stroke="#988C89" stroke-miterlimit="1.5" stroke-linecap="round" stroke-linejoin="round"/>
<path d="M322.713 1.99723C324.195 1.87216 325.626 1.66188 327.246 1.66897" stroke="#988C89" stroke-miterlimit="1.5" stroke-linecap="round" stroke-linejoin="round"/>
<path d="M57.3809 1.99723C59.0871 1.92305 60.8557 1.93215 62.7235 2.00277" stroke="#988C89" stroke-miterlimit="1.5" stroke-linecap="round" stroke-linejoin="round"/>
<path d="M341.4 1.99723C343.107 1.92305 344.875 1.93215 346.743 2.00277" stroke="#988C89" stroke-miterlimit="1.5" stroke-linecap="round" stroke-linejoin="round"/>
<path d="M76.877 1.99723C78.3518 1.87155 79.8007 1.66212 81.4102 1.66897" stroke="#988C89" stroke-miterlimit="1.5" stroke-linecap="round" stroke-linejoin="round"/>
<path d="M360.897 1.99723C362.371 1.87155 363.82 1.66212 365.43 1.66897" stroke="#988C89" stroke-miterlimit="1.5" stroke-linecap="round" stroke-linejoin="round"/>
<path d="M95.5625 1.33149C96.7561 1.34166 98.3252 1.30594 99.9336 1.66897" stroke="#988C89" stroke-miterlimit="1.5" stroke-linecap="round" stroke-linejoin="round"/>
<path d="M379.582 1.33149C380.776 1.34166 382.345 1.30594 383.953 1.66897" stroke="#988C89" stroke-miterlimit="1.5" stroke-linecap="round" stroke-linejoin="round"/>
<path d="M114.088 1.99723C115.503 1.78942 117.419 1.6568 119.43 2.00277" stroke="#988C89" stroke-miterlimit="1.5" stroke-linecap="round" stroke-linejoin="round"/>
<path d="M398.107 1.99723C399.523 1.78942 401.438 1.6568 403.45 2.00277" stroke="#988C89" stroke-miterlimit="1.5" stroke-linecap="round" stroke-linejoin="round"/>
<path d="M133.584 1.33149C134.955 1.37254 136.572 1.6198 137.955 1.66897" stroke="#988C89" stroke-miterlimit="1.5" stroke-linecap="round" stroke-linejoin="round"/>
<path d="M417.604 1.33149C418.974 1.37254 420.591 1.6198 421.975 1.66897" stroke="#988C89" stroke-miterlimit="1.5" stroke-linecap="round" stroke-linejoin="round"/>
<path d="M152.107 1.99723C153.53 1.82265 155.071 1.68202 156.641 1.66897" stroke="#988C89" stroke-miterlimit="1.5" stroke-linecap="round" stroke-linejoin="round"/>
<path d="M436.127 1.99723C437.55 1.82265 439.091 1.68202 440.66 1.66897" stroke="#988C89" stroke-miterlimit="1.5" stroke-linecap="round" stroke-linejoin="round"/>
<path d="M170.795 1.99723C172.11 1.74047 173.639 1.59753 175.328 1.66897" stroke="#988C89" stroke-miterlimit="1.5" stroke-linecap="round" stroke-linejoin="round"/>
<path d="M454.814 1.99723C456.13 1.74047 457.659 1.59753 459.348 1.66897" stroke="#988C89" stroke-miterlimit="1.5" stroke-linecap="round" stroke-linejoin="round"/>
<path d="M189.48 1.99723C190.926 1.83825 192.408 1.64252 194.014 1.66897" stroke="#988C89" stroke-miterlimit="1.5" stroke-linecap="round" stroke-linejoin="round"/>
<path d="M473.5 1.99723C474.946 1.83825 476.427 1.64252 478.033 1.66897" stroke="#988C89" stroke-miterlimit="1.5" stroke-linecap="round" stroke-linejoin="round"/>
<path d="M208.166 1.99723C209.695 1.83157 211.482 1.59233 213.509 2.00277" stroke="#988C89" stroke-miterlimit="1.5" stroke-linecap="round" stroke-linejoin="round"/>
<path d="M492.186 1.99723C493.714 1.83157 495.501 1.59233 497.528 2.00277" stroke="#988C89" stroke-miterlimit="1.5" stroke-linecap="round" stroke-linejoin="round"/>
<path d="M227.662 1.99723C229.372 1.96604 231.113 1.81998 233.005 2.00277" stroke="#988C89" stroke-miterlimit="1.5" stroke-linecap="round" stroke-linejoin="round"/>
<path d="M511.682 1.99723C513.392 1.96604 515.132 1.81998 517.024 2.00277" stroke="#988C89" stroke-miterlimit="1.5" stroke-linecap="round" stroke-linejoin="round"/>
<path d="M247.158 1.99723C248.92 2.02196 250.601 1.81558 252.501 2.00277" stroke="#988C89" stroke-miterlimit="1.5" stroke-linecap="round" stroke-linejoin="round"/>
<path d="M531.178 1.99723C532.94 2.02196 534.62 1.81558 536.52 2.00277" stroke="#988C89" stroke-miterlimit="1.5" stroke-linecap="round" stroke-linejoin="round"/>
<path d="M266.654 1.99723C268.11 1.86033 269.532 1.51251 271.188 1.66897" stroke="#988C89" stroke-miterlimit="1.5" stroke-linecap="round" stroke-linejoin="round"/>
<path d="M550.674 1.99723C552.129 1.86033 553.551 1.51251 555.207 1.66897" stroke="#988C89" stroke-miterlimit="1.5" stroke-linecap="round" stroke-linejoin="round"/>
</svg>
