<svg width="507" height="4" viewBox="0 0 507 4" fill="none" xmlns="http://www.w3.org/2000/svg">
<path d="M1.35013 1.99723C2.62874 1.79094 4.12648 1.51001 5.78766 1.66897" stroke="#988C89" stroke-miterlimit="1.5" stroke-linecap="round" stroke-linejoin="round"/>
<path d="M279.377 1.99723C280.656 1.79094 282.154 1.51001 283.815 1.66897" stroke="#988C89" stroke-miterlimit="1.5" stroke-linecap="round" stroke-linejoin="round"/>
<path d="M19.6431 1.99723C21.0655 1.84726 22.5174 1.67686 24.0806 1.66897" stroke="#988C89" stroke-miterlimit="1.5" stroke-linecap="round" stroke-linejoin="round"/>
<path d="M297.67 1.99723C299.093 1.84726 300.545 1.67686 302.108 1.66897" stroke="#988C89" stroke-miterlimit="1.5" stroke-linecap="round" stroke-linejoin="round"/>
<path d="M37.9341 1.99723C39.3852 1.87216 40.7854 1.66188 42.3716 1.66897" stroke="#988C89" stroke-miterlimit="1.5" stroke-linecap="round" stroke-linejoin="round"/>
<path d="M315.961 1.99723C317.413 1.87216 318.813 1.66188 320.399 1.66897" stroke="#988C89" stroke-miterlimit="1.5" stroke-linecap="round" stroke-linejoin="round"/>
<path d="M56.2271 1.99723C57.8973 1.92305 59.6286 1.93215 61.4569 2.00277" stroke="#988C89" stroke-miterlimit="1.5" stroke-linecap="round" stroke-linejoin="round"/>
<path d="M334.254 1.99723C335.925 1.92305 337.656 1.93215 339.484 2.00277" stroke="#988C89" stroke-miterlimit="1.5" stroke-linecap="round" stroke-linejoin="round"/>
<path d="M75.3111 1.99723C76.7548 1.87155 78.1731 1.66212 79.7486 1.66897" stroke="#988C89" stroke-miterlimit="1.5" stroke-linecap="round" stroke-linejoin="round"/>
<path d="M353.338 1.99723C354.782 1.87155 356.2 1.66212 357.776 1.66897" stroke="#988C89" stroke-miterlimit="1.5" stroke-linecap="round" stroke-linejoin="round"/>
<path d="M93.6045 1.33149C94.773 1.34166 96.3089 1.30594 97.8834 1.66897" stroke="#988C89" stroke-miterlimit="1.5" stroke-linecap="round" stroke-linejoin="round"/>
<path d="M371.63 1.33149C372.798 1.34166 374.334 1.30594 375.909 1.66897" stroke="#988C89" stroke-miterlimit="1.5" stroke-linecap="round" stroke-linejoin="round"/>
<path d="M111.739 1.99723C113.124 1.78942 114.999 1.6568 116.969 2.00277" stroke="#988C89" stroke-miterlimit="1.5" stroke-linecap="round" stroke-linejoin="round"/>
<path d="M389.764 1.99723C391.15 1.78942 393.025 1.6568 394.994 2.00277" stroke="#988C89" stroke-miterlimit="1.5" stroke-linecap="round" stroke-linejoin="round"/>
<path d="M130.823 1.33149C132.165 1.37254 133.748 1.6198 135.102 1.66897" stroke="#988C89" stroke-miterlimit="1.5" stroke-linecap="round" stroke-linejoin="round"/>
<path d="M408.849 1.33149C410.19 1.37254 411.773 1.6198 413.127 1.66897" stroke="#988C89" stroke-miterlimit="1.5" stroke-linecap="round" stroke-linejoin="round"/>
<path d="M148.956 1.99723C150.348 1.82265 151.857 1.68202 153.393 1.66897" stroke="#988C89" stroke-miterlimit="1.5" stroke-linecap="round" stroke-linejoin="round"/>
<path d="M426.981 1.99723C428.374 1.82265 429.882 1.68202 431.419 1.66897" stroke="#988C89" stroke-miterlimit="1.5" stroke-linecap="round" stroke-linejoin="round"/>
<path d="M167.249 1.99723C168.536 1.74047 170.033 1.59753 171.686 1.66897" stroke="#988C89" stroke-miterlimit="1.5" stroke-linecap="round" stroke-linejoin="round"/>
<path d="M445.274 1.99723C446.561 1.74047 448.058 1.59753 449.711 1.66897" stroke="#988C89" stroke-miterlimit="1.5" stroke-linecap="round" stroke-linejoin="round"/>
<path d="M185.54 1.99723C186.955 1.83825 188.405 1.64252 189.977 1.66897" stroke="#988C89" stroke-miterlimit="1.5" stroke-linecap="round" stroke-linejoin="round"/>
<path d="M463.565 1.99723C464.98 1.83825 466.431 1.64252 468.003 1.66897" stroke="#988C89" stroke-miterlimit="1.5" stroke-linecap="round" stroke-linejoin="round"/>
<path d="M203.833 1.99723C205.329 1.83157 207.078 1.59233 209.062 2.00277" stroke="#988C89" stroke-miterlimit="1.5" stroke-linecap="round" stroke-linejoin="round"/>
<path d="M481.858 1.99723C483.354 1.83157 485.104 1.59233 487.088 2.00277" stroke="#988C89" stroke-miterlimit="1.5" stroke-linecap="round" stroke-linejoin="round"/>
<path d="M222.917 1.99723C224.591 1.96604 226.294 1.81998 228.146 2.00277" stroke="#988C89" stroke-miterlimit="1.5" stroke-linecap="round" stroke-linejoin="round"/>
<path d="M500.944 1.99723C502.618 1.96604 504.322 1.81998 506.174 2.00277" stroke="#988C89" stroke-miterlimit="1.5" stroke-linecap="round" stroke-linejoin="round"/>
<path d="M242.001 1.99723C243.725 2.02196 245.371 1.81558 247.23 2.00277" stroke="#988C89" stroke-miterlimit="1.5" stroke-linecap="round" stroke-linejoin="round"/>
<path d="M261.086 1.99723C262.511 1.86033 263.903 1.51251 265.524 1.66897" stroke="#988C89" stroke-miterlimit="1.5" stroke-linecap="round" stroke-linejoin="round"/>
</svg>
