<svg width="134" height="135" viewBox="0 0 134 135" fill="none" xmlns="http://www.w3.org/2000/svg">
<path opacity="0.78" d="M103.104 34.3393C86.3464 20.8742 61.8458 23.5433 48.3807 40.3011C34.9156 57.059 37.5851 81.5595 54.3429 95.0246C71.1007 108.49 95.6011 105.82 109.066 89.0626C122.531 72.3048 119.862 47.8044 103.104 34.3393Z" fill="black" fill-opacity="0.36"/>
<path d="M79.6551 40.1974C62.8972 26.7323 38.3968 29.4015 24.9317 46.1594C11.4666 62.9172 14.1358 87.4178 30.8936 100.883C47.6514 114.348 72.152 111.679 85.6171 94.9208C99.0822 78.163 96.4129 53.6625 79.6551 40.1974Z" fill="#D31A2B"/>
<path opacity="0.64" d="M21.6921 50.8388C32.291 39.5901 49.6516 34.8145 65.1391 47.2589C93.9014 70.3698 66.3943 111.724 37.0907 104.823C53.2835 113.152 73.6806 109.776 85.617 94.9212C99.0772 78.1695 96.4066 53.658 79.6549 40.1978C62.9032 26.7376 38.3917 29.408 24.9315 46.1597C23.6617 47.74 22.9619 49.2585 21.6921 50.8388Z" fill="#790E17"/>
<path d="M79.6551 40.1974C62.8972 26.7323 38.3968 29.4015 24.9317 46.1594C11.4666 62.9172 14.1358 87.4178 30.8936 100.883C47.6514 114.348 72.152 111.679 85.6171 94.9208C99.0822 78.163 96.4129 53.6625 79.6551 40.1974Z" stroke="#010202" stroke-width="5.271" stroke-miterlimit="10"/>
<path d="M44.8437 62.159C39.6069 57.9512 31.9504 58.7852 27.7426 64.0221C23.5347 69.2589 24.369 76.9154 29.6058 81.1232C34.8426 85.3311 42.499 84.4969 46.7069 79.2601C50.9147 74.0233 50.0806 66.3669 44.8437 62.159Z" fill="white" stroke="#010202" stroke-width="5.271" stroke-miterlimit="10"/>
</svg>
