<svg width="137" height="137" viewBox="0 0 137 137" fill="none" xmlns="http://www.w3.org/2000/svg">
<path opacity="0.78" d="M115.416 50.8803C103.989 32.672 79.964 27.1753 61.7557 38.603C43.5474 50.0306 38.0507 74.0552 49.4784 92.2635C60.906 110.472 84.9306 115.969 103.139 104.541C121.347 93.1132 126.844 69.0886 115.416 50.8803Z" fill="black" fill-opacity="0.36"/>
<path d="M86.9204 45.097C75.4927 26.8887 51.468 21.3917 33.2597 32.8194C15.0514 44.2471 9.55459 68.272 20.9823 86.4803C32.4099 104.689 56.4347 110.185 74.643 98.7575C92.8513 87.3298 98.348 63.3053 86.9204 45.097Z" fill="#9F1074"/>
<path d="M71.6199 45.1257C92.7426 78.7816 44.5823 111.88 20.3357 85.45C20.5512 85.7935 20.7667 86.1368 20.9823 86.4803C32.4058 104.682 56.4413 110.181 74.643 98.7575C92.8446 87.334 98.3439 63.2987 86.9204 45.097C75.7124 27.2388 52.5792 21.6518 34.6333 31.9573C47.3473 27.8075 62.3518 30.3583 71.6199 45.1257Z" fill="#86004F"/>
<path d="M86.9204 45.097C75.4927 26.8887 51.468 21.3917 33.2597 32.8194C15.0514 44.2471 9.55459 68.272 20.9823 86.4803C32.4099 104.689 56.4347 110.185 74.643 98.7575C92.8513 87.3298 98.348 63.3053 86.9204 45.097Z" stroke="#010202" stroke-width="5.271" stroke-miterlimit="10"/>
<path d="M46.8387 54.4553C43.2676 48.7653 35.7599 47.0475 30.0698 50.6187C24.3797 54.1898 22.6619 61.6975 26.2331 67.3876C29.8042 73.0777 37.3119 74.7954 43.002 71.2243C48.6921 67.6532 50.4099 60.1454 46.8387 54.4553Z" fill="white" stroke="#010202" stroke-width="5.271" stroke-miterlimit="10"/>
</svg>
