<svg width="138" height="143" viewBox="0 0 138 143" fill="none" xmlns="http://www.w3.org/2000/svg">
<path d="M35.8883 117.566C55.5872 126.174 78.5339 117.183 87.1413 97.4837C95.7488 77.7848 86.7575 54.8382 67.0586 46.2307C47.3597 37.6232 24.4129 46.6145 15.8055 66.3134C7.19803 86.0122 16.1895 108.959 35.8883 117.566Z" fill="black" fill-opacity="0.36"/>
<path d="M70.7281 97.0891C90.4269 105.697 113.374 96.7053 121.981 77.0064C130.589 57.3076 121.597 34.3606 101.898 25.7532C82.1996 17.1457 59.2527 26.1372 50.6452 45.8361C42.0378 65.5349 51.0292 88.4817 70.7281 97.0891Z" fill="#BCCF00"/>
<path d="M85.2585 90.1639C47.7329 73.767 71.1324 17.1773 107.681 28.7224C105.985 27.5391 104.128 26.7272 101.898 25.7532C82.2068 17.1488 59.2495 26.1444 50.6452 45.8361C42.0409 65.5277 51.0364 88.4848 70.7281 97.0891C85.9613 103.745 102.652 99.9766 113.698 88.8739C105.784 93.8227 96.0332 94.8719 85.2585 90.1639Z" fill="#846F00"/>
<path d="M70.7281 97.0891C90.4269 105.697 113.374 96.7053 121.981 77.0064C130.589 57.3076 121.597 34.3606 101.898 25.7532C82.1996 17.1457 59.2527 26.1372 50.6452 45.8361C42.0378 65.5349 51.0292 88.4817 70.7281 97.0891Z" stroke="#010202" stroke-width="5.271" stroke-miterlimit="10"/>
<path d="M98.5735 66.779C104.729 69.4689 111.9 66.6591 114.59 60.5032C117.28 54.3473 114.47 47.1764 108.314 44.4866C102.158 41.7967 94.9874 44.6066 92.2976 50.7624C89.6078 56.9183 92.4176 64.0892 98.5735 66.779Z" fill="white" stroke="#010202" stroke-width="5.271" stroke-miterlimit="10"/>
</svg>
