<svg width="130" height="134" viewBox="0 0 130 134" fill="none" xmlns="http://www.w3.org/2000/svg">
<path d="M63.435 124.567C84.3816 119.732 97.4429 98.8325 92.6083 77.886C87.7736 56.9394 66.8738 43.8782 45.9272 48.7128C24.9806 53.5475 11.9193 74.4473 16.7539 95.3939C21.5886 116.34 42.4884 129.402 63.435 124.567Z" fill="black" fill-opacity="0.36"/>
<path d="M83.4038 84.7381C104.35 79.9034 117.412 59.0037 112.577 38.0571C107.742 17.1105 86.8425 4.04908 65.8959 8.88375C44.9493 13.7184 31.8881 34.6184 36.7227 55.565C41.5574 76.5116 62.4572 89.5728 83.4038 84.7381Z" fill="#00A5BA"/>
<path d="M88.8133 68.5097C52.4664 76.8989 36.7223 28.5176 61.6419 10.2823C43.1342 16.6347 32.2551 36.2066 36.7233 55.5653C41.5562 76.5042 62.4655 89.5713 83.4044 84.7384C103.553 80.0879 116.195 60.9412 113.216 40.8227C111.909 53.1918 104.221 64.9534 88.8133 68.5097Z" fill="#00698C"/>
<path d="M83.4038 84.7381C104.35 79.9034 117.412 59.0037 112.577 38.0571C107.742 17.1105 86.8425 4.04908 65.8959 8.88375C44.9493 13.7184 31.8881 34.6184 36.7227 55.565C41.5574 76.5116 62.4572 89.5728 83.4038 84.7381Z" stroke="#010202" stroke-width="5.271" stroke-miterlimit="10"/>
<path d="M87.6867 43.8019C94.2325 42.291 98.3142 35.7598 96.8034 29.214C95.2925 22.6682 88.7613 18.5866 82.2155 20.0974C75.6697 21.6082 71.5881 28.1394 73.0989 34.6852C74.6097 41.2311 81.1409 45.3127 87.6867 43.8019Z" fill="white" stroke="#010202" stroke-width="5.271" stroke-miterlimit="10"/>
</svg>
