<svg width="124" height="127" viewBox="0 0 124 127" fill="none" xmlns="http://www.w3.org/2000/svg">
<path opacity="0.78" d="M90.2289 25.1074C71.7168 14.1787 47.8504 20.3262 36.9217 38.8383C25.993 57.3504 32.1407 81.2168 50.6527 92.1455C69.1648 103.074 93.0313 96.9267 103.96 78.4146C114.889 59.9025 108.741 36.0361 90.2289 25.1074Z" fill="black" fill-opacity="0.36"/>
<path d="M73.645 35.034C55.1329 24.1053 31.2665 30.2528 20.3378 48.7649C9.40915 67.277 15.5567 91.1435 34.0688 102.072C52.5809 113.001 76.4474 106.853 87.3761 88.3411C98.3048 69.829 92.1571 45.9626 73.645 35.034Z" fill="#FEC82F"/>
<path d="M15.1556 63.1253C21.638 45.7642 41.2916 32.412 61.8918 44.5735C93.6652 63.331 72.3585 108.196 42.3689 105.558C59.0947 110.724 77.7516 103.846 87.0273 88.1337C97.9519 69.6283 91.8015 45.7512 73.2962 34.8265C54.7909 23.9018 30.9137 30.0521 19.989 48.5574C17.6585 53.3026 15.6772 58.254 15.1556 63.1253Z" fill="#A05E1E"/>
<path d="M73.645 35.034C55.1329 24.1053 31.2665 30.2528 20.3378 48.7649C9.40915 67.277 15.5567 91.1435 34.0688 102.072C52.5809 113.001 76.4474 106.853 87.3761 88.3411C98.3048 69.829 92.1571 45.9626 73.645 35.034Z" stroke="#010202" stroke-width="5.271" stroke-miterlimit="10"/>
<path d="M41.9866 61.5445C36.2016 58.1293 28.7433 60.0504 25.3281 65.8354C21.9129 71.6205 23.834 79.0787 29.619 82.4939C35.4041 85.9092 42.8623 83.988 46.2775 78.203C49.6927 72.418 47.7716 64.9597 41.9866 61.5445Z" fill="white" stroke="#010202" stroke-width="5.271" stroke-miterlimit="10"/>
</svg>
