<svg width="550" height="4" viewBox="0 0 550 4" fill="none" xmlns="http://www.w3.org/2000/svg">
<path d="M1.31778 1.99723C2.60983 1.79094 4.12332 1.51001 5.80196 1.66897" stroke="#988C89" stroke-miterlimit="1.5" stroke-linecap="round" stroke-linejoin="round"/>
<path d="M282.267 1.99723C283.559 1.79094 285.073 1.51001 286.751 1.66897" stroke="#988C89" stroke-miterlimit="1.5" stroke-linecap="round" stroke-linejoin="round"/>
<path d="M19.8022 1.99723C21.2395 1.84726 22.7067 1.67686 24.2863 1.66897" stroke="#988C89" stroke-miterlimit="1.5" stroke-linecap="round" stroke-linejoin="round"/>
<path d="M300.751 1.99723C302.189 1.84726 303.656 1.67686 305.236 1.66897" stroke="#988C89" stroke-miterlimit="1.5" stroke-linecap="round" stroke-linejoin="round"/>
<path d="M38.2865 1.99723C39.7529 1.87216 41.1678 1.66188 42.7707 1.66897" stroke="#988C89" stroke-miterlimit="1.5" stroke-linecap="round" stroke-linejoin="round"/>
<path d="M319.236 1.99723C320.702 1.87216 322.117 1.66188 323.72 1.66897" stroke="#988C89" stroke-miterlimit="1.5" stroke-linecap="round" stroke-linejoin="round"/>
<path d="M56.7709 1.99723C58.4587 1.92305 60.2082 1.93215 62.0557 2.00277" stroke="#988C89" stroke-miterlimit="1.5" stroke-linecap="round" stroke-linejoin="round"/>
<path d="M337.72 1.99723C339.408 1.92305 341.157 1.93215 343.005 2.00277" stroke="#988C89" stroke-miterlimit="1.5" stroke-linecap="round" stroke-linejoin="round"/>
<path d="M76.0561 1.99723C77.5149 1.87155 78.9482 1.66212 80.5402 1.66897" stroke="#988C89" stroke-miterlimit="1.5" stroke-linecap="round" stroke-linejoin="round"/>
<path d="M357.005 1.99723C358.464 1.87155 359.897 1.66212 361.489 1.66897" stroke="#988C89" stroke-miterlimit="1.5" stroke-linecap="round" stroke-linejoin="round"/>
<path d="M94.5406 1.33149C95.7214 1.34166 97.2734 1.30594 98.8645 1.66897" stroke="#988C89" stroke-miterlimit="1.5" stroke-linecap="round" stroke-linejoin="round"/>
<path d="M375.49 1.33149C376.671 1.34166 378.223 1.30594 379.814 1.66897" stroke="#988C89" stroke-miterlimit="1.5" stroke-linecap="round" stroke-linejoin="round"/>
<path d="M112.865 1.99723C114.265 1.78942 116.159 1.6568 118.149 2.00277" stroke="#988C89" stroke-miterlimit="1.5" stroke-linecap="round" stroke-linejoin="round"/>
<path d="M393.814 1.99723C395.214 1.78942 397.109 1.6568 399.099 2.00277" stroke="#988C89" stroke-miterlimit="1.5" stroke-linecap="round" stroke-linejoin="round"/>
<path d="M132.15 1.33149C133.506 1.37254 135.105 1.6198 136.474 1.66897" stroke="#988C89" stroke-miterlimit="1.5" stroke-linecap="round" stroke-linejoin="round"/>
<path d="M413.099 1.33149C414.455 1.37254 416.055 1.6198 417.423 1.66897" stroke="#988C89" stroke-miterlimit="1.5" stroke-linecap="round" stroke-linejoin="round"/>
<path d="M150.474 1.99723C151.881 1.82265 153.406 1.68202 154.958 1.66897" stroke="#988C89" stroke-miterlimit="1.5" stroke-linecap="round" stroke-linejoin="round"/>
<path d="M431.423 1.99723C432.83 1.82265 434.355 1.68202 435.907 1.66897" stroke="#988C89" stroke-miterlimit="1.5" stroke-linecap="round" stroke-linejoin="round"/>
<path d="M168.958 1.99723C170.259 1.74047 171.772 1.59753 173.443 1.66897" stroke="#988C89" stroke-miterlimit="1.5" stroke-linecap="round" stroke-linejoin="round"/>
<path d="M449.908 1.99723C451.209 1.74047 452.721 1.59753 454.392 1.66897" stroke="#988C89" stroke-miterlimit="1.5" stroke-linecap="round" stroke-linejoin="round"/>
<path d="M187.443 1.99723C188.873 1.83825 190.339 1.64252 191.927 1.66897" stroke="#988C89" stroke-miterlimit="1.5" stroke-linecap="round" stroke-linejoin="round"/>
<path d="M468.392 1.99723C469.822 1.83825 471.288 1.64252 472.876 1.66897" stroke="#988C89" stroke-miterlimit="1.5" stroke-linecap="round" stroke-linejoin="round"/>
<path d="M205.927 1.99723C207.439 1.83157 209.207 1.59233 211.212 2.00277" stroke="#988C89" stroke-miterlimit="1.5" stroke-linecap="round" stroke-linejoin="round"/>
<path d="M486.876 1.99723C488.388 1.83157 490.156 1.59233 492.161 2.00277" stroke="#988C89" stroke-miterlimit="1.5" stroke-linecap="round" stroke-linejoin="round"/>
<path d="M225.212 1.99723C226.904 1.96604 228.626 1.81998 230.497 2.00277" stroke="#988C89" stroke-miterlimit="1.5" stroke-linecap="round" stroke-linejoin="round"/>
<path d="M506.162 1.99723C507.853 1.96604 509.575 1.81998 511.446 2.00277" stroke="#988C89" stroke-miterlimit="1.5" stroke-linecap="round" stroke-linejoin="round"/>
<path d="M244.497 1.99723C246.24 2.02196 247.903 1.81558 249.782 2.00277" stroke="#988C89" stroke-miterlimit="1.5" stroke-linecap="round" stroke-linejoin="round"/>
<path d="M525.447 1.99723C527.19 2.02196 528.852 1.81558 530.731 2.00277" stroke="#988C89" stroke-miterlimit="1.5" stroke-linecap="round" stroke-linejoin="round"/>
<path d="M263.783 1.99723C265.222 1.86033 266.629 1.51251 268.267 1.66897" stroke="#988C89" stroke-miterlimit="1.5" stroke-linecap="round" stroke-linejoin="round"/>
<path d="M544.732 1.99723C546.171 1.86033 547.578 1.51251 549.216 1.66897" stroke="#988C89" stroke-miterlimit="1.5" stroke-linecap="round" stroke-linejoin="round"/>
</svg>
