<svg width="127" height="67" viewBox="0 0 127 67" fill="none" xmlns="http://www.w3.org/2000/svg">
<path d="M48.3968 53.6256C65.1991 41.5563 86.4977 41.3197 86.4977 41.3197L83.6579 16.2346L73.7185 26.174L56.6796 13.868L50.9999 33.2735L36.8008 31.8536L48.3968 53.6256Z" fill="#FEC82F"/>
<path d="M48.3958 54.8089H48.1592C47.9225 54.8089 47.4492 54.5722 47.4492 54.0989L35.8533 32.3269C35.6166 31.8536 35.6166 31.3803 35.8533 31.1437C36.0899 30.6704 36.5632 30.6704 37.0365 30.6704L50.2891 31.8536L55.732 13.3948C55.732 12.9215 56.2053 12.6848 56.442 12.6848C56.9153 12.4482 57.152 12.6848 57.6253 12.9215L73.7176 24.7541L82.947 15.5246C83.1837 15.288 83.657 15.0513 84.1303 15.288C84.6036 15.5246 84.8403 15.7613 84.8403 16.2346L87.6801 41.3197C87.6801 41.5564 87.6801 42.0297 87.4434 42.2663C87.2068 42.503 86.9701 42.7396 86.4968 42.7396C86.2602 42.7396 65.1981 42.9763 49.1058 54.8089C49.1058 54.5722 48.8691 54.8089 48.3958 54.8089ZM39.1664 33.0369L49.1058 51.7324C63.5416 41.793 80.5805 40.3731 85.5502 40.1365L83.1837 18.8378L74.9009 27.1206C74.4276 27.5939 73.9543 27.5939 73.4809 27.3573L57.8619 15.9979L52.6556 33.7469C52.4189 34.2202 51.9456 34.6935 51.4723 34.6935L39.1664 33.0369Z" fill="#292929"/>
<path d="M93.3566 8.34667L93.3678 8.38038L93.3837 8.41216C93.7168 9.07831 94.3792 9.39851 95.0142 9.39851C95.0865 9.39851 95.1547 9.38933 95.2186 9.37271C95.2282 9.37021 95.2376 9.36758 95.2467 9.36484L95.3763 9.49442L95.6897 9.35577L107.996 3.91278L108.035 3.89539L108.071 3.87154C108.46 3.61229 108.786 3.31061 108.96 2.91904C109.142 2.50926 109.124 2.07942 108.978 1.64083L108.957 1.57731L108.919 1.52159C108.66 1.13272 108.358 0.806112 107.967 0.632083C107.557 0.449956 107.127 0.468452 106.689 0.614647L106.666 0.622139L106.645 0.631721L94.3386 6.07472L94.2993 6.09211L94.2635 6.11596C93.8747 6.37521 93.5481 6.67689 93.374 7.06845C93.1919 7.47824 93.2104 7.90808 93.3566 8.34667Z" fill="#FEC82F" stroke="#292929"/>
<path d="M108.601 17.412L108.559 17.4245L108.52 17.4442C108.232 17.588 107.911 17.8191 107.698 18.1588C107.474 18.5182 107.392 18.9688 107.559 19.4694C107.705 19.9056 107.938 20.2376 108.246 20.4577C108.553 20.6769 108.896 20.7579 109.217 20.7579C109.221 20.7579 109.225 20.7579 109.229 20.7579C109.276 20.758 109.347 20.758 109.409 20.7511C109.473 20.744 109.639 20.7206 109.778 20.5819C109.833 20.5268 109.869 20.4675 109.894 20.4119L124.742 16.0042L124.784 15.9917L124.823 15.9721C125.111 15.8282 125.432 15.5971 125.645 15.2574C125.869 14.898 125.95 14.4474 125.784 13.9468L125.772 13.9131L125.756 13.8813C125.613 13.5936 125.382 13.2721 125.042 13.0597C124.684 12.8364 124.237 12.7547 123.74 12.9178L108.601 17.412Z" fill="#FEC82F" stroke="#292929"/>
<path d="M105.191 36.6136H105.223L105.255 36.6095L119.927 34.7163L120.011 34.7055L120.087 34.6676C120.394 34.5143 120.747 34.2285 120.998 33.9061C121.124 33.7433 121.244 33.5473 121.308 33.3312C121.373 33.1107 121.389 32.8398 121.257 32.5769C120.97 32.0017 120.355 31.3539 119.39 31.3539H119.358L119.325 31.3581L104.889 33.2513L104.806 33.2623L104.731 33.2999C104.156 33.5875 103.508 34.2024 103.508 35.167C103.508 35.642 103.843 36.0083 104.122 36.2178C104.416 36.438 104.814 36.6136 105.191 36.6136Z" fill="#FEC82F" stroke="#292929"/>
<path d="M17.8644 65.1429L17.8756 65.1766L17.8915 65.2084C18.2246 65.8746 18.8871 66.1948 19.522 66.1948H19.5234H19.5248H19.5261H19.5275H19.5289H19.5302H19.5316H19.5329H19.5343H19.5356H19.5369H19.5383H19.5396H19.5409H19.5422H19.5435H19.5448H19.5461H19.5474H19.5487H19.55H19.5512H19.5525H19.5538H19.555H19.5563H19.5575H19.5588H19.56H19.5613H19.5625H19.5637H19.5649H19.5662H19.5674H19.5686H19.5698H19.571H19.5722H19.5734H19.5746H19.5757H19.5769H19.5781H19.5792H19.5804H19.5816H19.5827H19.5839H19.585H19.5862H19.5873H19.5884H19.5895H19.5907H19.5918H19.5929H19.594H19.5951H19.5962H19.5973H19.5984H19.5995H19.6006H19.6017H19.6027H19.6038H19.6049H19.606H19.607H19.6081H19.6091H19.6102H19.6112H19.6123H19.6133H19.6143H19.6154H19.6164H19.6174H19.6184H19.6194H19.6205H19.6215H19.6225H19.6235H19.6245H19.6255H19.6265H19.6274H19.6284H19.6294H19.6304H19.6314H19.6323H19.6333H19.6342H19.6352H19.6362H19.6371H19.6381H19.639H19.64H19.6409H19.6418H19.6428H19.6437H19.6446H19.6455H19.6465H19.6474H19.6483H19.6492H19.6501H19.651H19.6519H19.6528H19.6537H19.6546H19.6555H19.6564H19.6573H19.6582H19.659H19.6599H19.6608H19.6617H19.6625H19.6634H19.6642H19.6651H19.666H19.6668H19.6677H19.6685H19.6694H19.6702H19.6711H19.6719H19.6727H19.6736H19.6744H19.6752H19.6761H19.6769H19.6777H19.6785H19.6793H19.6802H19.681H19.6818H19.6826H19.6834H19.6842H19.685H19.6858H19.6866H19.6874H19.6882H19.689H19.6898H19.6906H19.6913H19.6921H19.6929H19.6937H19.6945H19.6952H19.696H19.6968H19.6976H19.6983H19.6991H19.6999H19.7006H19.7014H19.7021H19.7029H19.7037H19.7044H19.7052H19.7059H19.7067H19.7074H19.7082H19.7089H19.7097H19.7104H19.7111H19.7119H19.7126H19.7134H19.7141H19.7148H19.7156H19.7163H19.717H19.7178H19.7185H19.7192H19.7199H19.7207H19.7214H19.7221H19.7228H19.7236H19.7243H19.725H19.7257H19.7264H19.7271H19.7279H19.7286H19.7293H19.73H19.7307H19.7314H19.7321H19.7328H19.7335H19.7342H19.7349H19.7357H19.7364H19.7371H19.7378H19.7385H19.7392H19.7399H19.7406H19.7413H19.742H19.7427H19.7434H19.7441H19.7448H19.7455H19.7462H19.7469H19.7476H19.7482H19.7489H19.7496H19.7503H19.751H19.7517H19.7524H19.7531H19.7538H19.7545H19.7552H19.7559H19.7566H19.7573H19.758H19.7587H19.7594H19.76H19.7607H19.7614H19.7621H19.7628H19.7635H19.7642H19.7649H19.7656H19.7663H19.767H19.7677H19.7684H19.7691H19.7698H19.7705H19.7712H19.7719H19.7726H19.7733H19.7739H19.7746H19.7753H19.776H19.7767H19.7774H19.7781H19.7788H19.7796H19.7803H19.781H19.7817H19.7824H19.7831H19.7838H19.7845H19.7852H19.7859H19.7866H19.7873H19.788H19.7888H19.7895H19.7902H19.7909H19.7916H19.7923H19.793H19.7938H19.7945H19.7952H19.7959H19.7967H19.7974H19.7981H19.7988H19.7996H19.8003H19.801H19.8017H19.8025H19.8032H19.804H19.8047H19.8054H19.8062H19.8069H19.8077H19.8084H19.8091H19.8099H19.8106H19.8114H19.8121H19.8129H19.8137H19.8144H19.8152H19.8159H19.8167H19.8175H19.8182H19.819H19.8198H19.8205H19.8213H19.8221H19.8228H19.8236H19.8244H19.8252H19.826H19.8268H19.8275H19.8283H19.8291H19.8299H19.8307H19.8315H19.8323H19.8331H19.8339H19.8347H19.8355H19.8363H19.8372H19.838H19.8388H19.8396H19.8404H19.8413H19.8421H19.8429H19.8438H19.8446H19.8454H19.8463H19.8471H19.8479H19.8488H19.8496H19.8505H19.8514H19.8522H19.8531H19.8539H19.8548H19.8557H19.8565H19.8574H19.8583H19.8592H19.86H19.8609H19.8618H19.8627H19.8636H19.8645H19.8654H19.8663H19.8672H19.8681H19.869H19.8699H19.8709H19.8718H19.8727H19.8736H19.8746H19.8755H19.8764H19.8774H19.8783H19.8793H19.8802H19.8812H19.8821H19.8831H19.884H19.885H19.886H19.8869H19.8879H19.8889H19.8899H19.8909H19.8919H19.8928H19.8938H19.8948H19.8958H19.8969H19.8979H19.8989H19.8999H19.9009H19.902H19.903H19.904H19.9051H19.9061H19.9071H19.9082H19.9092H19.9103H19.9114H19.9124H19.9135H19.9146H19.9157H19.9167H19.9178H19.9189H19.92H19.9211H19.9222H19.9233H19.9244H19.9255H19.9266H19.9278H19.9289H19.93H19.9312H19.9323H19.9334H19.9346H19.9358H19.9369H19.9381H19.9392H19.9404H19.9416H19.9428H19.9439H19.9451H19.9463H19.9475H19.9487H19.9499H19.9512H19.9524H19.9536H19.9548H19.9561H19.9573H19.9585H19.9598H19.961H19.9623H19.9635H19.9648H19.9661H19.9673H19.9686H19.9699H19.9712H19.9725H19.9738H19.9751H19.9764H19.9777H19.9791H19.9804H19.9817H19.983H19.9844H19.9857H19.9871H19.9884H19.9898H19.9912H19.9925H19.9939H19.9953H20.1009L20.1976 66.152L32.5035 60.709L32.5428 60.6917L32.5786 60.6678C32.9674 60.4086 33.294 60.1069 33.4681 59.7153C33.6502 59.3055 33.6317 58.8757 33.4855 58.4371L33.4643 58.3736L33.4272 58.3179C33.1679 57.929 32.8663 57.6024 32.4747 57.4283C32.0649 57.2462 31.6351 57.2647 31.1965 57.4109L31.174 57.4184L31.1524 57.428L18.8464 62.871L18.8071 62.8884L18.7713 62.9122C18.3824 63.1715 18.0558 63.4732 17.8818 63.8647C17.6997 64.2745 17.7182 64.7044 17.8644 65.1429Z" fill="#FEC82F" stroke="#292929"/>
<path d="M1.63061 50.543L1.58855 50.5555L1.5493 50.5751C1.2616 50.719 0.940045 50.9501 0.727696 51.2898C0.503072 51.6492 0.421741 52.0998 0.588604 52.6004C0.734003 53.0366 0.967152 53.3686 1.27521 53.5887C1.58211 53.8079 1.92547 53.8889 2.24621 53.8889C2.24991 53.8889 2.25381 53.8889 2.25788 53.8889C2.30535 53.8889 2.37608 53.889 2.43823 53.8821C2.50202 53.875 2.66814 53.8516 2.80685 53.7128C2.86186 53.6578 2.89874 53.5985 2.92367 53.5429L17.7709 49.1352L17.813 49.1227L17.8522 49.103C18.1399 48.9592 18.4615 48.7281 18.6738 48.3884C18.8984 48.029 18.9798 47.5784 18.8129 47.0778L18.8017 47.0441L18.7858 47.0123C18.6419 46.7246 18.4108 46.4031 18.0711 46.1907C17.7137 45.9674 17.2662 45.8857 16.769 46.0488L1.63061 50.543Z" fill="#FEC82F" stroke="#292929"/>
<path d="M6.92068 31.8312L6.8373 31.8421L6.76209 31.8797C6.18694 32.1673 5.53906 32.7822 5.53906 33.7468C5.53906 34.2218 5.87382 34.5881 6.1532 34.7976C6.44675 35.0178 6.84551 35.1935 7.22232 35.1935H7.22233H7.22235H7.22237H7.22239H7.22242H7.22245H7.22249H7.22254H7.22259H7.22264H7.2227H7.22277H7.22284H7.22291H7.22299H7.22308H7.22317H7.22326H7.22336H7.22347H7.22358H7.22369H7.2237H7.22381H7.22393H7.22406H7.22419H7.22433H7.22447H7.22462H7.22477H7.22492H7.22507H7.22508H7.22525H7.22541H7.22559H7.22576H7.22594H7.22613H7.22632H7.22643H7.22651H7.22671H7.22691H7.22712H7.22733H7.22754H7.22776H7.22778H7.22798H7.2282H7.22843H7.22867H7.2289H7.22912H7.22914H7.22939H7.22964H7.22989H7.23014H7.2304H7.23045H7.23066H7.23093H7.2312H7.23147H7.23175H7.23177H7.23203H7.23231H7.2326H7.23289H7.23307H7.23318H7.23348H7.23378H7.23408H7.23437H7.23439H7.2347H7.23501H7.23533H7.23564H7.23565H7.23597H7.23629H7.23662H7.23693H7.23695H7.23728H7.23762H7.23796H7.23819H7.2383H7.23864H7.23899H7.23934H7.23945H7.23969H7.24005H7.2404H7.24069H7.24076H7.24113H7.24149H7.24186H7.24192H7.24223H7.2426H7.24298H7.24314H7.24336H7.24373H7.24412H7.24436H7.2445H7.24489H7.24528H7.24556H7.24567H7.24606H7.24645H7.24675H7.24685H7.24725H7.24765H7.24793H7.24805H7.24846H7.24886H7.2491H7.24927H7.24968H7.2501H7.25026H7.25051H7.25092H7.25134H7.25141H7.25176H7.25218H7.25256H7.2526H7.25303H7.25345H7.25369H7.25388H7.25431H7.25474H7.25481H7.25517H7.2556H7.25592H7.25604H7.25647H7.25691H7.25702H7.25735H7.25779H7.25811H7.25823H7.25867H7.25911H7.25919H7.25955H7.26H7.26026H7.26044H7.26089H7.26132H7.26134H7.26179H7.26224H7.26237H7.26269H7.26314H7.26342H7.26359H7.26404H7.26445H7.2645H7.26495H7.26541H7.26547H7.26586H7.26632H7.26648H7.26678H7.26723H7.26748H7.26769H7.26815H7.26848H7.26861H7.26907H7.26946H7.26953H7.26999H7.27043H7.27045H7.27091H7.27137H7.2714H7.27183H7.27229H7.27235H7.27276H7.27322H7.2733H7.27368H7.27414H7.27424H7.2746H7.27507H7.27516H7.27553H7.27599H7.27608H7.27645H7.27692H7.27699H7.27738H7.27784H7.27789H7.2783H7.27876H7.27877H7.27922H7.27965H7.27968H7.28014H7.28053H7.2806H7.28106H7.28139H7.28152H7.28198H7.28224H7.28244H7.2829H7.28308H7.28335H7.28381H7.28392H7.28427H7.28472H7.28474H7.28518H7.28556H7.28563H7.28608H7.28637H7.28654H7.28699H7.28716H7.28744H7.28789H7.28795H7.28834H7.28873H7.28879H7.28923H7.28951H7.28968H7.29012H7.29027H7.29057H7.29101H7.29102H7.29145H7.29177H7.29189H7.29233H7.2925H7.29277H7.29321H7.29323H7.29364H7.29395H7.29408H7.29451H7.29466H7.29494H7.29536H7.29537H7.2958H7.29606H7.29623H7.29666H7.29674H7.29708H7.29742H7.2975H7.29792H7.29808H7.29834H7.29874H7.29876H7.29918H7.29939H7.29959H7.3H7.30004H7.30042H7.30067H7.30082H7.30123H7.3013H7.30164H7.30191H7.30204H7.30244H7.30252H7.30284H7.30312H7.30324H7.30364H7.30372H7.30403H7.3043H7.30442H7.30481H7.30488H7.3052H7.30545H7.30558H7.30596H7.30601H7.30634H7.30656H7.30672H7.3071H7.3071H7.30747H7.30764H7.30784H7.30817H7.30821H7.30858H7.30869H7.30894H7.3092H7.3093H7.30966H7.3097H7.31002H7.3102H7.31037H7.31069H7.31072H7.31107H7.31117H7.31141H7.31165H7.31176H7.3121H7.31211H7.31243H7.31257H7.31277H7.31302H7.3131H7.31343H7.31346H7.31375H7.3139H7.31407H7.31433H7.31439H7.31471H7.31475H7.31502H7.31516H7.31533H7.31556H7.31564H7.31595H7.31596H7.31625H7.31635H7.31654H7.31674H7.31684H7.31711H7.31713H7.31742H7.31748H7.3177H7.31784H7.31798H7.3182H7.31826H7.31853H7.31854H7.31881H7.31888H7.31907H7.31922H7.31934H7.31954H7.3196H7.31985H7.31986H7.32011H7.32017H7.32036H7.32048H7.3206H7.32078H7.32084H7.32107H7.32108H7.32132H7.32135H7.32155H7.32163H7.32177H7.3219H7.322H7.32216H7.32221H7.32242H7.32243H7.32264H7.32267H7.32285H7.32291H7.32305H7.32315H7.32325H7.32338H7.32344H7.3236H7.32363H7.32382H7.324H7.32403H7.32418H7.32423H7.32435H7.32443H7.32452H7.32462H7.32469H7.3248H7.32485H7.32498H7.32501H7.32515H7.32516H7.32531H7.32532H7.32545H7.32548H7.32559H7.32563H7.32572H7.32577H7.32585H7.32591H7.32597H7.32605H7.32609H7.32618H7.32621H7.3263H7.32632H7.32641H7.32643H7.32652H7.32653H7.32662H7.32672H7.32673H7.3268H7.32682H7.32688H7.3269H7.32696H7.32698H7.32703H7.32706H7.3271H7.32712H7.32716H7.32719H7.32722H7.32724H7.32727H7.3273H7.32732H7.32734H7.32736H7.32738H7.32739H7.32741H7.32743H7.32744H7.32745H7.32747H7.32747H7.32748H7.32749H7.3275L7.3275 35.184L21.9588 33.2961L22.0427 33.2853L22.1184 33.2475C22.6936 32.9599 23.3414 32.3449 23.3414 31.3803V31.2623L23.2886 31.1567C23.001 30.5816 22.386 29.9337 21.4215 29.9337H21.3888L21.3564 29.938L6.92068 31.8312Z" fill="#FEC82F" stroke="#292929"/>
</svg>
