<svg width="59" height="70" viewBox="0 0 59 70" fill="none" xmlns="http://www.w3.org/2000/svg">
<path d="M7.69441 52.3667L9.35012 44.4348L10.0648 10.667C10.1179 9.97037 10.1876 9.40973 10.5293 8.81593C11.5544 7.03453 14.8421 4.56319 21.9149 3.70096C28.9876 2.83874 32.6367 4.46442 34.1958 5.93077C34.6702 6.42509 35.0085 6.93598 35.0914 7.61605L43.8978 40.2232L45.7388 44.0018L38.4332 59.9383C35.6432 60.8306 32.412 61.5005 29.0117 61.9151C16.9064 63.3908 6.64908 60.7763 6.08531 56.1518C6.05551 54.7751 6.58635 53.468 7.69441 52.3667Z" fill="#D31A2B"/>
<path d="M45.9949 43.8327C51.7075 43.1363 56.8958 47.197 57.5922 52.9096C58.2886 58.6222 54.2279 63.8104 48.5153 64.5069C42.8027 65.2033 37.6144 61.1426 36.918 55.43C36.2216 49.7174 40.2823 44.5291 45.9949 43.8327Z" fill="#00A5BA"/>
<path d="M44.3668 54.2455C42.8644 54.4286 41.498 53.3592 41.3149 51.8568C41.1317 50.3544 42.2012 48.988 43.7035 48.8049C45.2059 48.6217 46.5723 49.6912 46.7555 51.1936C46.9386 52.6959 45.8692 54.0623 44.3668 54.2455Z" fill="white"/>
<path d="M36.8541 53.7808C37.5042 57.9807 40.7219 61.7295 46.0264 61.0828C56.4995 59.806 55.0007 44.1147 45.3305 44.0512C45.6025 44.0181 45.7385 44.0015 46.0106 43.9683C51.7232 43.2719 56.9114 47.3326 57.6078 53.0452C58.3043 58.7578 54.2435 63.9461 48.5309 64.6425C42.8183 65.3389 37.6301 61.2782 36.9337 55.5656C36.8507 54.8855 36.9204 54.3249 36.8541 53.7808Z" fill="#00698C"/>
<path opacity="0.64" d="M24.3703 57.7876C27.9201 52.9377 26.6864 45.0821 26.4146 39.4558C26.0267 32.8773 25.0782 26.2292 24.4183 19.6839C24.173 16.539 23.7916 13.4107 23.6823 10.2492C26.5054 9.62897 29.2457 8.32866 32.0556 6.46772C32.7025 6.11278 33.1968 5.63842 33.5551 5.18063C33.8603 5.4195 34.1655 5.65836 34.4706 5.89722C34.945 6.39154 35.2834 6.90243 35.3663 7.5825L44.1726 40.1896L46.0136 43.9682C39.5479 46.4129 34.7442 50.0353 38.7081 59.9047C35.9181 60.797 32.6869 61.467 29.2865 61.8815C25.6142 62.3292 22.1806 62.4717 19.1054 62.1564C20.9101 61.1082 22.8177 59.7714 24.3703 57.7876Z" fill="#790E17"/>
<path d="M45.9949 43.8327C51.7075 43.1363 56.8958 47.197 57.5922 52.9096C58.2886 58.6222 54.2279 63.8104 48.5153 64.5069C42.8027 65.2033 37.6144 61.1426 36.918 55.43C36.2216 49.7174 40.2823 44.5291 45.9949 43.8327Z" stroke="#010202" stroke-width="1.64426" stroke-miterlimit="10" stroke-linecap="round" stroke-linejoin="round"/>
<path d="M44.3668 54.2455C42.8644 54.4286 41.498 53.3592 41.3149 51.8568C41.1317 50.3544 42.2012 48.988 43.7035 48.8049C45.2059 48.6217 46.5723 49.6912 46.7555 51.1936C46.9386 52.6959 45.8692 54.0623 44.3668 54.2455Z" stroke="#010202" stroke-width="1.64426" stroke-miterlimit="10" stroke-linecap="round" stroke-linejoin="round"/>
<path d="M32.9956 43.6227C35.2747 43.0688 37.1126 42.2926 38.8145 41.533" stroke="#010202" stroke-width="1.64426" stroke-miterlimit="10" stroke-linecap="round" stroke-linejoin="round"/>
<path d="M22.6902 45.1549C23.9309 45.1417 25.2911 44.9759 26.6512 44.8101C28.9634 44.5282 31.1231 44.1268 32.9941 43.6227" stroke="#010202" stroke-width="1.64426" stroke-miterlimit="10" stroke-linecap="round" stroke-linejoin="round"/>
<path d="M13.074 44.3953C15.6383 45.049 18.9856 45.3311 22.6911 45.1554" stroke="#010202" stroke-width="1.64426" stroke-miterlimit="10" stroke-linecap="round" stroke-linejoin="round"/>
<path d="M15.0665 9.78145C17.2062 10.3488 19.8568 10.5778 22.7131 10.2296C25.5694 9.88141 28.2233 9.00572 30.1641 7.94092" stroke="#010202" stroke-width="1.64426" stroke-miterlimit="10" stroke-linecap="round" stroke-linejoin="round"/>
<path d="M38.553 59.7854C35.7631 60.6776 32.5319 61.3476 29.1315 61.7622C17.0262 63.2379 6.76893 60.6233 6.20517 55.9989C6.05594 54.7747 6.58678 53.4677 7.81427 52.2138" stroke="#010202" stroke-width="1.64426" stroke-miterlimit="10" stroke-linecap="round" stroke-linejoin="round"/>
<path d="M37.1009 56.9256C34.5829 57.7847 31.7598 58.405 28.7675 58.7698C20.0626 59.831 12.2833 58.2947 10.0143 55.5345" stroke="#010202" stroke-width="1.64426" stroke-miterlimit="10" stroke-linecap="round" stroke-linejoin="round"/>
<path d="M45.8599 43.8493L44.0189 40.0707L35.2125 7.46359C34.9936 6.8001 34.7913 6.27262 34.3169 5.77831C32.8938 4.29537 29.1087 2.68627 22.036 3.54849C14.9632 4.41072 11.8116 6.86547 10.6504 8.66346C10.3087 9.25726 10.103 9.83448 10.1859 10.5145L9.47126 44.2824L7.67953 52.2308" stroke="#010202" stroke-width="1.64426" stroke-miterlimit="10" stroke-linecap="round" stroke-linejoin="round"/>
</svg>
