<svg width="51" height="54" viewBox="0 0 51 54" fill="none" xmlns="http://www.w3.org/2000/svg">
<path d="M44.1213 11.9481L47.6474 31.9674C47.9376 33.615 47.3071 35.3399 46.0516 36.4105L32.1208 48.4623C30.4291 49.9494 28.1224 50.3557 26.0244 49.5361L8.81416 42.9692C7.26853 42.3921 6.08661 40.9864 5.7964 39.3387L2.27033 19.3195C1.9511 17.507 2.71736 15.5883 4.31682 14.5421L18.6395 4.71464C20.1565 3.68298 22.1337 3.33472 23.912 3.78597C28.1857 4.9019 36.3744 7.02705 40.7305 8.12847C42.4409 8.67661 43.8021 10.1357 44.1213 11.9481Z" fill="#F1F0EE"/>
<path d="M22.4033 44.9071C23.5862 44.6987 24.3049 43.1651 24.0083 41.4816C23.7118 39.7982 22.5125 38.6024 21.3295 38.8107C20.1465 39.0191 19.4279 40.5527 19.7244 42.2362C20.0209 43.9197 21.2203 45.1155 22.4033 44.9071Z" fill="#414047"/>
<path d="M11.5127 16.3324C13.1052 16.0519 14.2662 15.0868 14.1059 14.1769C13.9456 13.2669 12.5247 12.7566 10.9323 13.0371C9.33978 13.3175 8.17876 14.2826 8.33904 15.1926C8.49932 16.1026 9.92021 16.6129 11.5127 16.3324Z" fill="#414047"/>
<path d="M24.0383 20.4117C25.7673 20.1072 27.0195 19.012 26.8351 17.9655C26.6508 16.919 25.0998 16.3175 23.3708 16.6221C21.6418 16.9266 20.3897 18.0218 20.574 19.0683C20.7583 20.1148 22.3093 20.7162 24.0383 20.4117Z" fill="#414047"/>
<path d="M22.0181 8.96033C23.5196 8.69587 24.6133 7.78068 24.4611 6.91619C24.3088 6.0517 22.9682 5.56529 21.4667 5.82975C19.9652 6.09421 18.8715 7.0094 19.0237 7.87389C19.176 8.73837 20.5166 9.22479 22.0181 8.96033Z" fill="#414047"/>
<path d="M34.7405 12.2407C36.242 11.9762 37.3292 11.0242 37.169 10.1142C37.0087 9.20418 35.6616 8.68088 34.1601 8.94534C32.6586 9.20981 31.5713 10.1619 31.7316 11.0719C31.8919 11.9819 33.239 12.5052 34.7405 12.2407Z" fill="#414047"/>
<path d="M8.56733 28.0632C9.75031 27.8549 10.4689 26.3212 10.1724 24.6378C9.87589 22.9543 8.67653 21.7585 7.49355 21.9668C6.31056 22.1752 5.59194 23.7088 5.88845 25.3923C6.18497 27.0758 7.38435 28.2716 8.56733 28.0632Z" fill="#414047"/>
<path d="M33.4462 42.9622C34.6292 42.7538 35.3478 41.2202 35.0513 39.5367C34.7548 37.8532 33.5554 36.6574 32.3725 36.8658C31.1895 37.0741 30.4708 38.6078 30.7674 40.2912C31.0639 41.9747 32.2633 43.1705 33.4462 42.9622Z" fill="#414047"/>
<path d="M37.7412 32.608C38.9241 32.3997 39.6428 30.866 39.3462 29.1826C39.0497 27.4991 37.8504 26.3033 36.6674 26.5116C35.4844 26.72 34.7658 28.2536 35.0623 29.9371C35.3588 31.6206 36.5582 32.8164 37.7412 32.608Z" fill="#414047"/>
<path d="M42.0185 22.1716C43.2015 21.9633 43.9201 20.4296 43.6236 18.7462C43.3271 17.0627 42.1277 15.8669 40.9447 16.0752C39.7617 16.2836 39.0431 17.8172 39.3396 19.5007C39.6361 21.1842 40.8355 22.38 42.0185 22.1716Z" fill="#414047"/>
<path d="M29.5713 46.5326C29.1987 44.8994 29.3204 43.1792 29.1126 41.517C28.8613 39.6077 28.4306 37.645 28.0969 35.7501C27.4341 32.4693 26.6889 29.203 26.1085 25.9076C25.9053 24.7542 25.77 23.504 26.0078 22.4428C22.441 23.4108 12.0288 18.7893 10.4153 18.3091C5.21624 16.7616 7.19392 14.9693 8.35245 13.8309C9.96174 12.3583 11.7793 11.1038 13.5145 9.86382C15.5648 8.48343 17.6005 7.02065 19.6653 5.72264C20.8963 4.99617 22.1274 4.2697 23.3875 3.708C21.7206 3.40701 19.9082 3.72624 18.4735 4.7434L4.15087 14.5709C2.63379 15.6026 1.78514 17.5358 2.10437 19.3482L5.63044 39.3675C5.92065 41.0152 7.10258 42.4208 8.64821 42.998L25.8584 49.5649C27.8595 50.3166 30.0839 49.9248 31.7367 48.6994C30.7724 48.5295 29.9149 48.001 29.5713 46.5326Z" fill="#816359"/>
<path d="M44.1213 11.9481L47.6474 31.9674C47.9376 33.615 47.3071 35.3399 46.0516 36.4105L32.1208 48.4623C30.4291 49.9494 28.1224 50.3557 26.0244 49.5361L8.81416 42.9692C7.26853 42.3921 6.08661 40.9864 5.7964 39.3387L2.27033 19.3195C1.9511 17.507 2.71736 15.5883 4.31682 14.5421L18.6395 4.71464C20.1565 3.68298 22.1337 3.33472 23.912 3.78596C28.1857 4.9019 36.3744 7.02705 40.7305 8.12847C42.4409 8.67661 43.8021 10.1357 44.1213 11.9481Z" stroke="#010202" stroke-width="1.00382" stroke-miterlimit="10" stroke-linecap="round" stroke-linejoin="round"/>
<path d="M41.1001 11.2058L36.7571 14.5189L28.0034 21.2421C25.8998 22.8017 23.1811 23.2806 20.7536 22.519L9.88551 19.167L4.9481 17.6583" stroke="#010202" stroke-width="1.00382" stroke-miterlimit="10" stroke-linecap="round" stroke-linejoin="round"/>
<path d="M28.5782 46.1981L25.0957 26.426" stroke="#010202" stroke-width="1.00382" stroke-miterlimit="10" stroke-linecap="round" stroke-linejoin="round"/>
<path d="M22.4033 44.9071C23.5862 44.6987 24.3049 43.1651 24.0083 41.4816C23.7118 39.7982 22.5125 38.6024 21.3295 38.8107C20.1465 39.0191 19.4279 40.5527 19.7244 42.2362C20.0209 43.9197 21.2203 45.1155 22.4033 44.9071Z" stroke="#010202" stroke-width="1.00382" stroke-miterlimit="10" stroke-linecap="round" stroke-linejoin="round"/>
<path d="M11.5127 16.3324C13.1052 16.0519 14.2662 15.0868 14.1059 14.1769C13.9456 13.2669 12.5247 12.7566 10.9323 13.0371C9.33978 13.3175 8.17876 14.2826 8.33904 15.1926C8.49932 16.1026 9.92021 16.6129 11.5127 16.3324Z" stroke="#010202" stroke-width="1.00382" stroke-miterlimit="10" stroke-linecap="round" stroke-linejoin="round"/>
<path d="M24.0383 20.4117C25.7673 20.1072 27.0195 19.012 26.8351 17.9655C26.6508 16.919 25.0998 16.3175 23.3708 16.6221C21.6418 16.9266 20.3897 18.0218 20.574 19.0683C20.7583 20.1148 22.3093 20.7162 24.0383 20.4117Z" stroke="#010202" stroke-width="1.00382" stroke-miterlimit="10" stroke-linecap="round" stroke-linejoin="round"/>
<path d="M22.0181 8.96033C23.5196 8.69587 24.6133 7.78068 24.4611 6.91619C24.3088 6.0517 22.9682 5.56529 21.4667 5.82975C19.9652 6.09421 18.8715 7.0094 19.0237 7.87389C19.176 8.73837 20.5166 9.22479 22.0181 8.96033Z" stroke="#010202" stroke-width="1.00382" stroke-miterlimit="10" stroke-linecap="round" stroke-linejoin="round"/>
<path d="M34.7405 12.2407C36.242 11.9762 37.3292 11.0242 37.169 10.1142C37.0087 9.20418 35.6616 8.68088 34.1601 8.94534C32.6586 9.20981 31.5713 10.1619 31.7316 11.0719C31.8919 11.9819 33.239 12.5052 34.7405 12.2407Z" stroke="#010202" stroke-width="1.00382" stroke-miterlimit="10" stroke-linecap="round" stroke-linejoin="round"/>
<path d="M8.56733 28.0632C9.75031 27.8549 10.4689 26.3212 10.1724 24.6378C9.87589 22.9543 8.67653 21.7585 7.49355 21.9668C6.31056 22.1752 5.59194 23.7088 5.88845 25.3923C6.18497 27.0758 7.38435 28.2716 8.56733 28.0632Z" stroke="#010202" stroke-width="1.00382" stroke-miterlimit="10" stroke-linecap="round" stroke-linejoin="round"/>
<path d="M33.4462 42.9622C34.6292 42.7538 35.3478 41.2202 35.0513 39.5367C34.7548 37.8532 33.5554 36.6574 32.3725 36.8658C31.1895 37.0741 30.4708 38.6078 30.7674 40.2912C31.0639 41.9747 32.2633 43.1705 33.4462 42.9622Z" stroke="#010202" stroke-width="1.00382" stroke-miterlimit="10" stroke-linecap="round" stroke-linejoin="round"/>
<path d="M37.7412 32.608C38.9241 32.3997 39.6428 30.866 39.3462 29.1826C39.0497 27.4991 37.8504 26.3033 36.6674 26.5116C35.4844 26.72 34.7658 28.2536 35.0623 29.9371C35.3588 31.6206 36.5582 32.8164 37.7412 32.608Z" stroke="#010202" stroke-width="1.00382" stroke-miterlimit="10" stroke-linecap="round" stroke-linejoin="round"/>
<path d="M42.0185 22.1716C43.2015 21.9633 43.9201 20.4296 43.6236 18.7462C43.3271 17.0627 42.1277 15.8669 40.9447 16.0752C39.7617 16.2836 39.0431 17.8172 39.3396 19.5007C39.6361 21.1842 40.8355 22.38 42.0185 22.1716Z" stroke="#010202" stroke-width="1.00382" stroke-miterlimit="10" stroke-linecap="round" stroke-linejoin="round"/>
</svg>
