<svg width="68" height="56" viewBox="0 0 68 56" fill="none" xmlns="http://www.w3.org/2000/svg">
<path d="M15.9802 47.0307C13.0593 45.6875 10.0795 41.3222 9.65666 38.3613C13.6124 37.6215 16.1803 38.2005 17.5588 38.8297C18.5606 39.2228 19.1569 40.3204 19.0612 41.3097C18.8156 43.6344 17.15 45.9731 15.9802 47.0307Z" fill="white"/>
<path opacity="0.46" d="M56.1918 16.5776C53.3666 14.2451 50.951 9.67265 50.5838 7.48843L34.7301 18.95C31.5903 21.6489 34.5418 23.1741 31.4813 26.1217C27.9523 28.287 27.4015 25.0107 23.66 27.0247L21.3259 28.7272L9.58885 37.2882C9.53471 37.6342 9.5959 37.9983 9.59041 38.4109C10.0211 38.3011 10.5005 38.258 10.9132 38.2635C11.0952 38.2329 15.4942 37.6805 17.5411 38.9461C18.4583 39.5031 19.1393 40.4367 19.0436 41.4261C18.798 43.7507 17.1324 46.0895 15.9626 47.1471C16.2905 47.3165 16.5698 47.4193 16.9158 47.4734L28.3194 39.1556L30.9869 37.2099C34.1268 34.511 31.1753 32.9858 34.2358 30.0382C37.7648 27.8728 38.3155 31.1492 41.9904 29.1839L54.9946 19.6986L57.7288 17.7042C57.3035 17.4014 56.763 17.0805 56.1918 16.5776Z" fill="url(#paint0_linear_205_7996)"/>
<path d="M12.6447 53.2425C12.5113 53.3398 12.396 53.3218 12.2626 53.4191C12.0806 53.4497 11.8986 53.4803 11.6499 53.5595C10.0478 53.6042 7.63684 52.3999 4.91286 48.6654L4.81557 48.532C1.84837 44.4641 1.57144 41.7032 2.38268 40.2941C2.78281 40.0023 3.13429 39.6437 3.46773 39.4005C3.96514 39.242 4.55984 39.2169 5.11844 39.4225L7.71927 37.5254C8.18608 37.1849 8.84747 37.1112 9.33938 37.3654L9.45472 37.3834C9.40058 37.7294 9.46177 38.0934 9.45628 38.5061C9.92779 41.5337 12.9256 45.7837 15.7798 47.1755C16.1077 47.345 16.3871 47.4478 16.733 47.5019L16.8303 47.6353L16.8123 47.7506C16.9041 48.2967 16.6318 48.9039 16.165 49.2444L13.5642 51.1415C13.7172 52.0516 13.3602 52.8228 12.6447 53.2425Z" fill="#414047"/>
<path d="M12.6447 53.2425C12.5113 53.3398 12.396 53.3218 12.2626 53.4191C12.0806 53.4497 11.8986 53.4803 11.6499 53.5595C10.0478 53.6042 7.63684 52.3999 4.91286 48.6654L4.81557 48.532C1.84837 44.4641 1.57144 41.7032 2.38268 40.2941C2.78281 40.0023 3.13429 39.6437 3.46773 39.4005C3.96514 39.242 4.55984 39.2169 5.11844 39.4225L7.71927 37.5254C8.18608 37.1849 8.84747 37.1112 9.33938 37.3654L9.45472 37.3834C9.40058 37.7294 9.46177 38.0934 9.45628 38.5061C9.92779 41.5337 12.9256 45.7837 15.7798 47.1755C16.1077 47.345 16.3871 47.4478 16.733 47.5019L16.8303 47.6353L16.8123 47.7506C16.9041 48.2967 16.6318 48.9039 16.165 49.2444L13.5642 51.1415C13.7172 52.0516 13.3602 52.8228 12.6447 53.2425Z" stroke="#010202" stroke-width="0.990517" stroke-miterlimit="10"/>
<path d="M62.4595 15.7849L59.8587 17.682C59.4586 17.9738 59.0278 18.0837 58.5665 18.0115C58.4512 17.9934 58.2872 17.9087 58.1719 17.8907L58.0566 17.8726L57.9593 17.7392C57.352 17.467 56.8115 17.1461 56.2403 16.6432C53.4151 14.3107 50.9995 9.73826 50.6323 7.55404L50.6503 7.43871C50.5586 6.89265 50.8308 6.28541 51.2976 5.94491L53.8984 4.04785C53.8984 4.04785 54.1338 7.45206 56.7118 10.9865L56.8091 11.1199C59.2899 14.521 62.4595 15.7849 62.4595 15.7849Z" fill="#414047"/>
<path d="M64.0428 15.856C63.5453 16.0144 63.0173 15.9909 62.5074 15.852C62.5074 15.852 59.3377 14.5881 56.7597 11.0536L56.6624 10.9203C54.0844 7.38581 53.849 3.9816 53.849 3.9816C53.8875 1.09285 57.3874 -0.131841 62.3489 6.67032L62.4462 6.80369C65.3161 10.7383 65.7751 13.4685 65.1458 14.847C64.8916 15.3389 64.4915 15.6308 64.0428 15.856Z" fill="#414047"/>
<path d="M11.5273 38.1225C10.9326 38.1476 10.2712 38.2213 9.59174 38.4104C10.0633 41.438 13.061 45.688 15.9153 47.0798C16.182 46.8853 16.4182 46.5087 16.7697 46.1501C14.0363 44.3637 12.3267 41.3196 11.5273 38.1225Z" fill="#AECCDE"/>
<path d="M56.1918 16.5776C53.3666 14.2451 50.951 9.67265 50.5838 7.48843L34.7301 18.95C31.5903 21.6489 34.5418 23.1741 31.4813 26.1217C27.9523 28.287 27.4015 25.0107 23.66 27.0247L9.58885 37.2882C9.53471 37.6342 9.5959 37.9983 9.59041 38.4109C10.0211 38.3011 10.5005 38.258 10.9132 38.2635C11.0952 38.2329 15.4942 37.6805 17.5411 38.9461C18.4583 39.5031 19.1393 40.4367 19.0436 41.4261C18.798 43.7507 17.1324 46.0895 15.9626 47.1471C16.2905 47.3165 16.5698 47.4193 16.9158 47.4734L31.1023 37.2279C34.2421 34.529 31.2906 33.0038 34.3512 30.0563C37.8801 27.8909 38.4309 31.1672 42.1058 29.2019L55.1099 19.7166L57.8441 17.7223C57.3035 17.4014 56.763 17.0805 56.1918 16.5776Z" stroke="#010202" stroke-width="0.990517" stroke-miterlimit="10"/>
<path d="M31.0548 37.1616L42.125 29.0869" stroke="#010202" stroke-width="0.990517" stroke-miterlimit="10"/>
<path d="M23.6603 27.0248L34.7791 19.0169" stroke="#010202" stroke-width="0.990517" stroke-miterlimit="10"/>
<path d="M62.4595 15.7849L59.8587 17.682C59.4586 17.9738 59.0278 18.0837 58.5665 18.0115C58.4512 17.9934 58.2872 17.9087 58.1719 17.8907L58.0566 17.8726L57.9593 17.7392C57.352 17.467 56.8115 17.1461 56.2403 16.6432C53.4151 14.3107 50.9995 9.73826 50.6323 7.55404L50.6503 7.43871C50.5586 6.89265 50.8308 6.28541 51.2976 5.94491L53.8984 4.04785C53.8984 4.04785 54.1338 7.45206 56.7118 10.9865L56.8091 11.1199C59.2899 14.521 62.4595 15.7849 62.4595 15.7849Z" stroke="#010202" stroke-width="0.990517" stroke-miterlimit="10"/>
<path d="M64.0428 15.856C63.5453 16.0144 63.0173 15.9909 62.5074 15.852C62.5074 15.852 59.3377 14.5881 56.7597 11.0536L56.6624 10.9203C54.0844 7.38581 53.849 3.9816 53.849 3.9816C53.8875 1.09285 57.3874 -0.131841 62.3489 6.67032L62.4462 6.80369C65.3161 10.7383 65.7751 13.4685 65.1458 14.847C64.8916 15.3389 64.4915 15.6308 64.0428 15.856Z" stroke="#010202" stroke-width="0.990517" stroke-miterlimit="10"/>
<path d="M5.5236 41.3772C5.33452 40.6977 5.26078 40.0364 5.20508 39.2596" stroke="#010202" stroke-width="0.990517" stroke-miterlimit="10" stroke-linecap="round" stroke-linejoin="round"/>
<path d="M13.7473 51.1121C13.7473 51.1121 10.3957 49.8787 7.7996 46.4596" stroke="#010202" stroke-width="0.990517" stroke-miterlimit="10" stroke-linecap="round" stroke-linejoin="round"/>
<path d="M15.9802 47.0307C13.0593 45.6875 10.0795 41.3222 9.65666 38.3613C13.6124 37.6215 16.1803 38.2005 17.5588 38.8297C18.5606 39.2228 19.1569 40.3204 19.0612 41.3097C18.8156 43.6344 17.15 45.9731 15.9802 47.0307Z" stroke="#010202" stroke-width="0.990517" stroke-miterlimit="10" stroke-linecap="round" stroke-linejoin="round"/>
<defs>
<linearGradient id="paint0_linear_205_7996" x1="20.6611" y1="29.9449" x2="33.9891" y2="45.7323" gradientUnits="userSpaceOnUse">
<stop stop-color="white"/>
<stop offset="1" stop-color="white" stop-opacity="0"/>
</linearGradient>
</defs>
</svg>
