<svg width="181" height="65" viewBox="0 0 181 65" fill="none" xmlns="http://www.w3.org/2000/svg">
<g filter="url(#filter0_d_287_10953)">
<path d="M76.905 15.8229C76.7865 14.8351 76.6284 14.0054 76.5099 13.3336C75.206 5.82619 73.3489 1.47977 67.6985 1.20318C63.036 1.00561 60.9813 4.08762 60.5467 7.76232C60.4677 8.27599 60.4282 8.86868 60.3887 9.50089C59.7565 20.446 60.9813 26.4519 58.7291 31.7071C56.9115 33.2481 53.5134 32.6554 53.3949 27.5583C53.2368 19.3396 53.9481 12.4644 53.1973 8.07843C51.6958 -0.970026 42.7659 -0.653927 39.0122 5.35203C38.8146 5.66814 38.6171 6.06327 38.459 6.49791C38.1429 3.92957 36.2068 1.63782 33.4409 1.00561C27.7905 -0.258798 18.1889 -0.337824 12.7361 0.80805C8.03407 1.79587 3.2135 4.99642 2.22568 10.6468C0.171007 22.145 2.54178 33.1691 3.09496 41.3088C3.49009 47.1172 7.00674 51.345 12.341 53.4392C17.2406 55.3754 23.6022 55.1383 23.6022 55.1383C31.8999 55.1383 38.8936 49.646 40.9088 42.178C42.2522 57.1534 56.0027 58.0227 64.2609 41.941C63.3521 51.0289 65.8809 53.9529 68.6073 53.8344C73.1908 53.6763 74.9689 50.2387 75.8382 47.9865C79.1968 39.1751 78.0114 24.0021 76.905 15.8229ZM23.286 41.6644C20.4411 41.6644 18.1494 39.3726 18.1494 36.5277C18.1494 35.8165 18.3074 35.1052 18.584 34.5126C18.6235 34.473 18.6235 34.394 18.663 34.3545C18.663 34.315 18.7026 34.315 18.7026 34.2755C19.5323 32.5764 21.2709 31.4305 23.286 31.4305C26.131 31.4305 28.4227 33.7223 28.4227 36.5672C28.3832 39.3726 26.0915 41.6644 23.286 41.6644ZM36.7204 26.0568C33.4409 22.6587 28.7783 20.525 23.6022 20.525C21.2709 20.525 19.0187 20.9596 16.964 21.7499C16.4503 19.7742 16.4898 17.9566 16.6479 16.5737C16.8454 14.9142 18.1099 13.5707 19.7694 13.2941C23.2465 12.7409 26.9212 13.2546 28.9759 13.6497C30.912 14.0449 33.0852 14.0054 34.8633 13.1361C35.9302 12.6224 36.6414 11.8717 37.1946 11.0814C35.6536 17.6801 36.7204 26.0568 36.7204 26.0568Z" fill="#DF2E1A"/>
<path d="M111.362 5.23303C107.727 2.82275 102.748 2.42762 93.6205 2.38811C84.493 2.38811 79.4749 2.82275 75.8792 5.23303C75.405 5.54914 75.0099 5.90476 74.6543 6.29989L76.9065 15.8225C80.2256 17.0474 84.493 16.0201 85.5994 17.4425C87.1009 19.2996 86.034 26.5305 86.3896 38.3448C86.7057 50.1592 90.4595 50.4753 93.581 50.4753L93.1859 53.6363C97.6113 53.5573 100.535 50.1592 100.891 38.3448C101.207 26.5305 100.18 19.2996 101.681 17.4425C102.748 16.0991 106.778 16.9684 110.018 15.9805C114.878 13.4122 115.313 9.93507 112.033 5.7467C111.796 5.54914 111.599 5.39109 111.362 5.23303Z" fill="#DF2E1A"/>
<path d="M175.173 43.1663C173.83 20.7624 166.283 2.8236 155.496 2.8236C147.475 2.8236 139.019 14.717 138.15 26.9265C136.767 25.3855 135.068 24.1606 133.131 23.2913C132.42 22.9752 132.578 22.7776 133.131 22.1849C137.715 17.5619 138.742 11.0028 135.779 6.8144C133.408 3.4558 130.603 1.9148 125.545 1.67772C122.621 1.51967 119.776 1.9148 117.642 2.38896C115.153 2.90262 113.217 4.08801 111.953 5.74755C110.53 7.76271 112.466 11.2398 113.059 13.8082C113.217 14.4404 112.269 14.7565 111.834 15.0726C111.241 15.4677 110.609 15.7443 109.937 15.9814C108.91 24.6347 109.068 33.5251 109.463 39.4916C109.819 44.3912 112.782 47.9473 117.247 49.7649C121.357 51.4245 126.77 51.2269 126.77 51.2269C130.682 51.2269 134.238 49.7649 136.925 47.4337C137.794 56.4821 146.013 53.8347 148.383 50.16C149.648 48.2239 151.742 43.0872 152.611 40.3213C153.006 39.0174 153.836 38.3852 155.18 38.2667C155.851 38.2271 156.523 38.2271 157.195 38.3062C158.42 38.4247 159.487 39.2545 159.961 40.3608C160 40.4399 160.04 40.5189 160.04 40.5979C160.119 40.7955 160.158 40.993 160.237 41.1906C160.237 41.1906 160.237 41.1906 160.237 41.2301C161.028 43.6799 161.897 45.6161 163.161 47.3151C164.268 48.8166 165.255 53.4791 167.073 53.4396C174.581 53.3211 175.45 47.7893 175.173 43.1663ZM124.439 11.635C126.217 11.635 127.639 13.0574 127.639 14.8355C127.639 16.6136 126.217 18.0361 124.439 18.0361C122.661 18.0361 121.238 16.6136 121.238 14.8355C121.238 13.0574 122.661 11.635 124.439 11.635ZM125.585 40.5584C123.411 40.5584 121.633 38.7803 121.633 36.6071C121.633 36.0539 121.752 35.5008 121.949 35.0266C121.989 34.9871 121.989 34.9476 122.028 34.8685C122.661 33.5251 124.004 32.6163 125.585 32.6163C127.758 32.6163 129.536 34.3944 129.536 36.5676C129.536 38.7408 127.758 40.5584 125.585 40.5584ZM155.812 27.6377C153.955 27.6377 153.52 25.3855 153.52 22.58C153.52 19.7746 154.231 17.5224 155.812 17.5224C157.669 17.5224 158.104 19.7746 158.104 22.58C158.104 25.3855 157.669 27.6377 155.812 27.6377Z" fill="#DF2E1A"/>
<path d="M39.2046 46.287C39.1255 46.4055 39.2441 46.4845 39.2836 46.5635C39.9158 47.7094 40.6665 48.8158 41.5358 49.8036C44.2622 52.9646 47.8184 54.8217 51.8092 52.8461C52.3228 52.5695 52.797 52.2929 53.2712 51.9768L54.0614 51.3841C54.8122 50.7914 55.6814 50.0012 56.3136 49.3294C57.7756 47.828 59.0796 46.1289 60.3045 44.4299C61.1342 43.205 61.964 41.9405 63.0704 40.9132L64.0977 41.8615C63.426 42.6123 62.8333 43.5211 62.3196 44.3903C61.3713 45.9709 60.3835 47.5119 59.2376 48.9738C56.3136 52.7276 51.8092 56.7974 46.633 55.5725C42.5236 54.5847 39.7182 50.8705 38.0982 47.1958L38.0587 47.0772C38.0192 47.0377 38.0587 46.9587 38.4933 46.6821L39.2046 46.287Z" fill="#00698C"/>
<path d="M76.9443 19.1416C78.1297 19.1416 79.2755 19.1416 80.5004 19.3391C81.8834 19.5367 83.1083 20.0108 83.859 21.3148C84.6888 22.3421 84.8073 23.7646 84.8864 24.9895C85.1234 30.3632 84.8468 36.8038 85.0839 42.1776C85.1629 44.3903 85.321 46.6425 85.7952 48.7762C86.0322 49.8431 86.3483 50.8309 86.8225 51.7002C87.8893 53.6758 89.4698 53.8734 91.6826 53.8339C92.7494 53.8339 93.6977 53.7153 94.409 53.2807C95.6734 52.4904 96.3056 51.0285 96.8192 49.6455C96.9773 49.1318 97.1354 48.5787 97.2934 48.065L97.9651 48.1835C97.8071 51.147 96.7402 54.6636 93.5002 55.3749C92.5914 55.6119 91.7221 55.6119 90.8133 55.6119C89.2328 55.6515 87.5337 55.2959 86.3483 54.15C83.5034 51.3841 83.2663 45.9313 83.1083 42.2171C82.9897 38.898 83.0688 35.2233 83.1083 31.9042C83.1478 29.9286 83.2663 27.0441 83.1873 25.108C83.1478 24.5548 83.1083 24.0016 83.0292 23.488C82.9502 23.0138 82.8317 22.5792 82.5156 22.2236C82.318 21.9075 82.239 21.7494 82.0809 21.5914C81.6068 21.0777 80.8955 20.8801 80.1843 20.643C79.1175 20.3269 78.0111 20.1294 76.8652 19.8528V19.1416H76.9443Z" fill="#00698C"/>
<path d="M134.989 51.0291C132.341 54.1506 127.639 55.7311 123.649 55.6126C119.5 55.5336 115.074 54.9014 111.676 52.333C109.108 50.4364 107.448 47.4334 107.172 44.2724C107.093 43.2055 107.014 42.1782 106.974 41.1114C106.777 36.923 106.737 32.6951 106.935 28.5067L107.685 28.5462C107.764 32.7346 107.962 36.923 108.278 41.0718C108.357 41.9806 108.436 43.2846 108.555 44.1538C109.147 49.172 113.02 52.3725 117.761 53.3999C119.658 53.8345 121.712 54.0321 123.688 54.1111C125.624 54.2296 127.56 53.953 129.417 53.3604C131.275 52.7677 133.053 51.8984 134.475 50.5549C134.475 50.5944 134.989 51.0291 134.989 51.0291Z" fill="#00698C"/>
<path d="M155.81 41.9021C154.308 42.0206 152.254 42.2182 151.424 43.6407C151.187 44.0753 151.108 44.4309 150.989 44.9446C150.831 45.5768 150.634 46.13 150.436 46.7622C149.804 48.5798 149.053 50.3579 147.907 51.9384C145.458 55.6526 140.518 55.9687 136.883 54.0325C135.698 53.4399 134.631 52.6101 133.762 51.7013L134.75 50.7135C136.409 52.294 138.543 53.4399 140.835 53.6374C143.087 53.835 145.379 52.9657 146.603 51.0691C147.789 49.37 148.579 47.3944 149.211 45.4187C149.527 44.4309 149.725 43.4036 150.357 42.5343C151.424 41.1513 153.242 40.7167 154.901 40.5982L155.849 40.5587V41.9021H155.81Z" fill="#00698C"/>
<path d="M173.158 42.6126C173.237 43.4819 173.553 46.6034 173.593 47.3937C173.593 47.5517 173.593 47.9864 173.632 48.1444C173.672 52.3328 170.432 55.6519 166.204 55.4148C160.672 55.0197 158.776 50.1596 158.42 45.2995L159.092 45.1414L159.171 45.5761C159.605 47.8678 160.593 50.9893 162.648 52.2933C163.873 53.0045 165.295 53.1625 166.678 53.2021C166.876 53.2416 167.192 53.1626 167.389 53.1626C167.547 53.1626 167.745 53.0835 167.903 53.044C167.943 53.044 168.022 53.0045 168.061 53.0045C168.97 52.7279 169.8 52.2142 170.392 51.503L170.629 51.2264L170.827 50.9103C170.946 50.7523 171.064 50.4757 171.183 50.2781C171.617 49.3693 171.775 48.263 171.736 47.2356C171.696 45.7341 171.696 44.2326 171.736 42.6916L173.158 42.6126Z" fill="#00698C"/>
<path d="M0.721931 28.5066C0.800957 34.5125 0.998522 40.5185 1.67024 46.4454C2.1444 49.5275 3.72491 52.4514 6.17471 54.3875C10.2841 57.7461 15.9344 58.3783 21.1106 58.3783C22.0194 58.3783 23.0467 58.3388 23.9555 58.1808C29.0922 57.43 33.8337 54.3085 36.5601 49.7645L37.1923 50.0806C36.0465 52.4909 34.2684 54.6641 32.1347 56.2842C29.4083 58.3388 26.0892 59.6427 22.6911 59.9193C16.6851 60.2749 9.96795 59.5637 5.18689 55.5729C2.18391 53.0836 0.484854 49.4484 0.28729 45.5762C-0.0683264 39.8863 -0.107839 34.1569 0.247777 28.4671C0.247777 28.5066 0.721931 28.5066 0.721931 28.5066Z" fill="#00698C"/>
<path d="M13.6004 20.9201C13.5609 18.984 15.0229 17.1269 16.9195 16.6527C17.5517 16.4947 17.9863 16.4157 18.579 16.3366C21.503 15.9415 24.4269 16.2971 27.3114 16.9293C29.2475 17.2849 31.4207 17.2454 33.0802 16.0996C33.831 15.5859 34.3842 14.8351 34.8978 14.0844L35.53 14.4005C34.3447 17.8381 31.3022 19.1025 27.825 18.8655C26.7977 18.7864 25.7704 18.5889 24.743 18.4703C23.7552 18.3518 22.7279 18.2728 21.74 18.2333C20.6337 18.1937 19.4878 18.1937 18.3814 18.2728C16.9985 18.3123 15.9317 18.6284 15.1019 19.7743C14.8253 20.1694 14.6277 20.604 14.5092 21.0782L13.6004 20.9201Z" fill="#00698C"/>
<path d="M57.8956 17.6795C57.9351 20.801 58.0931 23.883 58.1721 27.0045C58.2512 30.1656 58.1721 33.4056 57.0263 36.4086L54.3789 35.2627C55.5248 34.3144 56.1175 32.9315 56.4731 31.509C56.9472 29.7309 57.1843 27.7158 57.3424 25.8587C57.5795 23.1323 57.7375 20.3664 57.8956 17.6795Z" fill="#00698C"/>
<path d="M62.4814 43.8764C62.5209 46.9584 62.3628 52.3322 65.8004 53.478C66.7883 53.7941 67.8946 53.9522 68.922 53.6756C71.6088 53.1224 72.7547 50.8702 73.703 48.5389L74.3747 48.7365C74.2167 49.7638 73.9401 50.7912 73.5055 51.7395C72.6362 53.7941 70.7 55.3351 68.4873 55.6117C66.7883 55.8093 64.9707 55.4932 63.5877 54.5054C61.2565 52.7668 60.8613 49.5663 60.8613 46.8794C60.9008 45.8125 60.9404 44.7852 61.0984 43.7184L62.4814 43.8764Z" fill="#00698C"/>
<path d="M74.731 18.9841C74.6125 17.9963 74.4545 17.1665 74.3359 16.4948C73.032 8.98738 71.1749 4.64096 65.5245 4.36437C60.862 4.16681 58.8074 7.24882 58.3727 10.9235C58.2937 11.4372 58.2542 12.0299 58.2147 12.6621C57.5825 23.6072 58.8074 29.6131 56.5551 34.8683C54.7375 36.4093 51.3394 35.8166 51.2209 30.7195C51.0628 22.5008 51.7741 15.6256 51.0233 11.2396C49.5218 2.19117 40.5919 2.50727 36.8382 8.51323C36.6406 8.82933 36.4431 9.22446 36.285 9.6591C35.9689 7.09077 34.0328 4.79901 31.2669 4.16681C25.6165 2.9024 16.0149 2.82337 10.5621 3.96924C5.86008 4.95707 2.81758 7.84151 2.06684 12.1484C0.130708 23.6862 0.328273 36.3303 0.881453 44.47C1.27658 50.2784 4.79323 54.5062 10.1275 56.6004C15.0271 58.5365 21.3886 58.2995 21.3886 58.2995C29.6863 58.2995 36.6801 52.8072 38.6953 45.3392C43.6739 55.336 52.3272 58.4575 61.9289 42.5338C61.0201 51.6218 64.1021 53.2418 66.8285 53.6765C69.3178 54.1111 71.7281 53.0047 73.032 50.9896C77.1018 44.7466 75.8374 27.1633 74.731 18.9841ZM21.1121 44.8256C18.2671 44.8256 15.9754 42.5338 15.9754 39.6889C15.9754 38.9777 16.1334 38.2664 16.41 37.6737C16.4495 37.6342 16.4495 37.5552 16.489 37.5157C16.489 37.4762 16.5286 37.4762 16.5286 37.4367C17.3583 35.7376 19.0969 34.5917 21.1121 34.5917C23.957 34.5917 26.2487 36.8835 26.2487 39.7284C26.2092 42.5338 23.9175 44.8256 21.1121 44.8256ZM34.5464 29.218C31.2669 25.8199 26.6043 23.6862 21.4282 23.6862C19.0969 23.6862 16.8447 24.1208 14.79 24.9111C14.2763 22.9354 14.3158 21.1178 14.4739 19.7349C14.6715 18.0754 15.9359 16.7319 17.5954 16.4553C21.0725 15.9021 24.7472 16.4158 26.8019 16.8109C28.738 17.2061 30.9113 17.1665 32.6893 16.2973C33.7562 15.7836 34.4674 15.0329 35.0206 14.2426C33.4796 20.8412 34.5464 29.218 34.5464 29.218Z" fill="#F8DC6C"/>
<path d="M109.184 8.3948C105.549 5.98451 100.57 5.58939 91.4428 5.54987C82.3153 5.54987 77.2971 5.98451 73.7015 8.3948C73.2273 8.7109 72.8322 9.06652 72.4766 9.46165L74.7288 18.9843C78.0479 20.2092 82.3153 19.1818 83.4216 20.6043C84.9231 22.4614 83.8563 29.6923 84.2119 41.5066C84.528 53.321 88.2817 53.6371 91.4032 53.6371H91.5218C94.6433 53.6371 98.3575 53.321 98.7131 41.5066C99.0292 29.6923 98.0019 22.4614 99.5034 20.6043C100.57 19.2608 104.601 20.1301 107.841 19.1423C112.701 16.574 113.135 13.0968 109.856 8.90847C109.658 8.7109 109.421 8.55285 109.184 8.3948Z" fill="#F8DC6C"/>
<path d="M173.036 46.3267C171.693 23.9229 164.146 5.98408 153.359 5.98408C145.338 5.98408 139.253 15.8623 136.013 30.0869C134.63 28.5459 132.931 27.321 130.995 26.4518C130.284 26.1357 130.165 25.1478 130.797 24.6737C135.894 20.7224 136.606 14.1632 133.642 9.97487C131.271 6.61628 128.466 5.07528 123.408 4.8382C120.484 4.68015 117.639 5.07528 115.506 5.54943C113.016 6.0631 111.08 7.24849 109.816 8.90803C112.108 10.9232 112.661 14.3608 110.922 16.9687C110.567 17.4823 110.132 17.917 109.697 18.2331C109.105 18.6282 108.472 18.9048 107.801 19.1419C106.773 27.7952 106.931 36.6856 107.327 42.652C107.682 47.5516 110.646 51.1078 115.111 52.9254C119.22 54.5849 124.633 54.3874 124.633 54.3874C128.545 54.3874 132.101 52.9254 134.788 50.5941C138.937 54.6245 144.39 54.1503 146.997 50.5546C148.341 48.6975 149.289 46.5638 150.119 43.7979C150.514 42.494 151.7 41.5457 153.043 41.4667C153.715 41.4271 154.386 41.4271 155.058 41.5062C156.283 41.6247 157.35 42.4545 157.824 43.5608C157.864 43.6399 157.903 43.7189 157.903 43.7979C157.982 43.9955 158.022 44.193 158.101 44.3906C158.101 44.3906 158.101 44.3906 158.101 44.4301C158.891 46.8799 159.76 48.8161 161.025 50.5151C162.131 52.0166 163.711 52.9649 165.49 53.281C169.717 53.9922 173.313 50.9497 173.036 46.3267ZM122.262 14.7955C124.04 14.7955 125.463 16.2179 125.463 17.996C125.463 19.7741 124.04 21.1965 122.262 21.1965C120.484 21.1965 119.062 19.7741 119.062 17.996C119.062 16.2179 120.484 14.7955 122.262 14.7955ZM123.408 43.7189C121.235 43.7189 119.457 41.9408 119.457 39.7676C119.457 39.2144 119.576 38.6612 119.773 38.1871C119.813 38.1476 119.813 38.1081 119.852 38.029C120.484 36.6856 121.828 35.7768 123.408 35.7768C125.582 35.7768 127.36 37.5549 127.36 39.7281C127.36 41.9013 125.582 43.7189 123.408 43.7189ZM153.675 30.7982C151.818 30.7982 151.383 28.5459 151.383 25.7405C151.383 22.9351 152.095 20.6829 153.675 20.6829C155.532 20.6829 155.967 22.9351 155.967 25.7405C155.967 28.5459 155.493 30.7982 153.675 30.7982Z" fill="#F8DC6C"/>
<path d="M45.7691 43.9557C44.1886 42.4542 43.3588 41.4664 42.6871 39.3722C42.0154 37.2781 41.7388 35.0653 41.6203 32.8921C41.5017 30.6794 41.5808 28.4272 41.6993 26.2144C41.7783 24.3573 41.8178 22.4607 42.1339 20.6036C42.4501 18.707 42.8452 16.7709 43.0427 14.8742C43.1613 13.9259 43.2008 12.9381 43.1218 11.9898C43.0823 11.1995 42.9637 10.3303 42.6081 9.61903C42.2525 8.86829 41.6993 8.15705 40.9486 7.80143C40.1583 7.44582 39.2495 7.52484 38.4592 7.80143C37.7875 8.03851 37.1948 8.39413 36.6417 8.82877C36.5231 9.06585 36.4046 9.34244 36.286 9.65855C36.286 9.57952 36.2465 9.54001 36.2465 9.46098V9.50049C36.1675 11.3181 35.6933 13.0567 34.9031 14.6767C33.7967 19.8134 34.1919 25.8983 34.3894 28.2691C34.4684 28.3481 34.587 28.4272 34.666 28.5457C35.2192 29.1384 35.5748 29.8496 35.9699 30.5609C36.7207 31.8648 37.5109 33.1292 38.1036 34.5122C38.6963 35.8951 39.0519 37.3571 39.21 38.8586C39.4076 40.3996 39.368 41.9801 39.131 43.5211C39.0124 44.1928 38.8544 44.825 38.6963 45.4572C42.2525 52.6091 48.5745 56.6789 54.462 50.4359C55.1732 49.6851 54.699 48.4602 53.6717 48.3812C50.9058 48.1836 48.0609 46.1289 45.7691 43.9557Z" fill="#F7AD5C"/>
<path d="M62.1272 42.3362C61.2184 51.4241 64.3004 53.0442 67.0268 53.4788C67.1848 53.5183 67.9751 53.6368 68.9629 53.2812C69.6346 53.0442 69.6346 52.0958 68.9629 51.8983C67.5404 51.4241 67.3824 50.1597 67.3429 48.9743C67.3033 47.9865 67.3034 46.406 67.3034 45.4182C67.3429 43.7981 67.3033 42.2176 67.3429 40.5976C67.5404 35.5794 64.577 35.1448 63.7472 40.1234C62.7199 41.5459 61.9296 42.6523 62.1272 42.3362Z" fill="#F7AD5C"/>
<path d="M0.763518 41.6643C0.684492 51.1079 6.05824 54.2294 6.05824 54.2294C13.6052 59.05 20.4014 58.3388 24.3922 57.1534C25.3801 56.8768 25.2615 55.4148 24.2342 55.2963C19.0975 54.7036 14.9487 53.0045 11.5505 50.9894C8.74512 49.2903 6.92753 46.3268 6.69045 43.0473C5.82117 31.2329 4.71481 14.7165 7.67828 7.80176C7.99438 7.05102 7.16461 6.30027 6.45337 6.73491C2.89721 8.94764 1.98842 11.595 1.43524 17.1268C0.565952 25.1479 0.803031 36.6067 0.763518 41.6643Z" fill="#F7AD5C"/>
<path d="M93.4998 45.1412C92.433 44.2324 92.1169 42.8495 91.7613 41.4666C91.5242 40.5973 91.4452 39.649 91.3266 38.7402C91.2081 37.7128 91.1291 36.646 91.05 35.6186C90.892 33.4849 90.7734 31.3513 90.6944 29.2176C90.6154 27.0839 90.5364 24.9106 90.4573 22.777C90.3783 21.1964 90.4178 19.6159 90.1808 18.0354C89.5881 14.2422 86.3085 12.0294 73.4668 12.4246L74.9683 18.7466C78.2874 19.9715 82.5548 18.9442 83.6611 20.3667C85.1626 22.2238 84.0958 29.4546 84.4514 41.269C84.7675 53.0833 88.5212 53.3994 91.6427 53.3994H91.7613C93.0257 53.3994 94.9618 52.2931 95.7521 51.1077C96.2262 50.3965 96.6214 49.4086 96.7794 48.5394C96.9375 47.512 96.3843 46.5242 95.436 46.1291C94.5667 45.8525 93.895 45.4969 93.4998 45.1412Z" fill="#F7AD5C"/>
<path d="M126.417 49.9221C125.588 48.3416 123.928 47.7489 119.819 46.8796C118.752 46.6425 117.922 45.9313 117.171 45.141C116.658 44.6274 116.223 44.0347 115.867 43.363C114.959 41.7824 114.484 39.9649 114.287 38.1473C113.694 31.7067 116.46 15.5854 112.904 11.6341C112.667 11.3575 112.114 11.1995 111.758 11.239C112.39 13.0171 112.232 15.0717 111.086 16.7313C110.731 17.2449 110.296 17.6796 109.861 17.9957C109.269 18.3908 108.636 18.6674 107.965 18.9045C106.937 27.5578 107.095 36.4482 107.491 42.4147C107.846 47.3143 110.81 50.8704 115.275 52.688C118.594 53.9919 122.229 54.229 124.521 53.4388C126.694 52.7275 127.01 51.0285 126.417 49.9221Z" fill="#F7AD5C"/>
<path d="M145.619 10.7655C141.036 14.7958 138.23 20.9203 136.176 29.8897C138.23 32.5766 139.495 35.4611 139.613 38.5826C140.364 38.1479 140.878 37.3577 141.312 36.6069C141.866 35.5796 142.261 34.4732 142.616 33.3669C143.012 32.1025 143.288 30.7985 143.565 29.4946C144.039 27.1634 144.394 24.8321 144.869 22.5008C145.106 21.355 145.422 20.2091 145.659 19.0237C146.054 17.1666 146.449 15.3095 146.686 13.4129C146.726 13.0177 146.805 12.188 146.884 11.3977C146.963 10.726 146.133 10.2913 145.619 10.7655Z" fill="#F7AD5C"/>
<path d="M165.531 43.008C165.215 41.8622 165.017 40.6768 164.622 39.5704C164.266 38.5826 163.753 37.6343 163.002 36.8835C162.212 36.1328 161.224 35.7377 160.157 35.6586C158.814 35.5401 155.85 37.0811 158.102 43.2846C158.142 43.3637 158.181 43.4427 158.181 43.5217C158.26 43.7193 158.3 43.9168 158.379 44.1144C158.379 44.1144 158.379 44.1144 158.379 44.1539C159.169 46.6037 160.038 48.5398 161.303 50.2389C162.409 51.7404 164.029 52.2541 165.689 52.4911C166.677 52.6097 167.664 52.5306 168.376 52.2541C169.008 52.017 169.087 51.1872 168.573 50.7921C167.704 50.2784 167.072 48.9745 165.531 43.008Z" fill="#F7AD5C"/>
<path d="M138.428 45.6944C137.638 47.7096 136.531 49.2901 134.99 50.3174C136.65 51.9375 138.507 52.8067 140.324 53.0833C141.945 53.3204 144.276 52.4906 145.224 51.6213C145.856 51.0287 145.461 50.3965 145.224 50.3965C140.996 50.2779 139.06 47.8676 138.428 45.6944Z" fill="#F7AD5C"/>
<path d="M91.2046 36.8051C91.2837 38.5041 91.4022 40.2427 91.7973 41.9023C92.1134 43.0876 92.5086 44.273 93.4569 45.0238C93.7335 45.2609 94.0891 45.4189 94.4842 45.5374C94.7213 45.577 94.8398 45.8535 94.8003 46.0511C94.7608 46.2487 94.5237 46.4067 94.3262 46.3672C93.852 46.2882 93.3383 46.0906 92.9432 45.814C92.5086 45.5374 92.153 45.1818 91.8764 44.7867C90.7305 43.2457 90.2563 41.4281 89.9007 39.6105C89.7032 38.7017 89.5846 37.8324 89.4661 36.9236C89.387 36.41 89.7427 35.9753 90.2563 35.8963C90.691 35.8963 91.1651 36.2914 91.2046 36.8051Z" fill="#FEC82F"/>
<path d="M90.2958 37.7916C89.8612 37.7916 89.466 37.436 89.387 37.0013C89.0709 34.2354 88.6758 30.6003 88.6758 26.649C88.6758 26.1353 89.0709 25.7402 89.5846 25.7402C90.0983 25.7402 90.4934 26.1353 90.4934 26.649C90.4934 29.6915 90.6909 32.6944 91.2046 36.7643C91.2836 37.2779 90.928 37.7126 90.4144 37.7916C90.3748 37.7916 90.3353 37.7916 90.2958 37.7916Z" fill="#FEC82F"/>
<path d="M87.5724 14.163C88.0465 14.4396 88.5602 14.7557 88.9948 15.2299C90.1407 16.6128 90.1012 18.5094 90.2592 20.2085C90.3778 22.1051 90.4173 24.7525 90.4568 26.6491C90.4568 27.1628 90.0617 27.5579 89.5875 27.5974C89.0739 27.5974 88.6392 27.1628 88.6392 26.6491L88.7578 23.4485C88.7973 21.868 88.8763 20.248 88.7973 18.6675C88.7578 17.7192 88.6787 16.6918 88.1255 15.9411C87.849 15.5855 87.4933 15.2694 87.0587 14.9928C86.5845 14.6372 87.0587 13.8864 87.5724 14.163Z" fill="#FEC82F"/>
<path d="M42.6838 38.3057C43.1184 40.6369 44.1062 42.8892 46.1609 44.1536C46.7536 44.5487 46.2399 45.418 45.6077 45.1414C44.3828 44.5092 43.316 43.5609 42.5652 42.415C41.775 41.2691 41.2613 40.0047 40.9057 38.7403C40.7476 38.2662 41.0242 37.713 41.5379 37.5944C42.0121 37.4364 42.6048 37.7525 42.6838 38.3057Z" fill="#FEC82F"/>
<path d="M41.7754 39.4519C41.3408 39.4519 40.9851 39.1753 40.8666 38.7407C40.3924 36.8441 40.0763 34.4733 39.9578 31.3518C39.9183 30.8381 40.3134 30.4035 40.8271 30.4035C41.3408 30.364 41.7754 30.7591 41.7754 31.2727C41.8939 34.2757 42.1705 36.528 42.6447 38.306C42.7632 38.8197 42.4866 39.2939 41.973 39.4124C41.9334 39.4519 41.8544 39.4519 41.7754 39.4519Z" fill="#FEC82F"/>
<path d="M42.2913 21.2367C42.0937 24.5558 41.5801 27.9934 41.8567 31.273C41.8962 31.7867 41.5406 32.2213 41.0269 32.3003C40.5132 32.3398 40.0786 31.9842 40.0391 31.4706C40.0391 27.9144 40.8688 24.5953 41.343 21.1577C41.422 20.5255 42.3308 20.6045 42.2913 21.2367Z" fill="#FEC82F"/>
<path d="M4.51562 28.229C4.63416 23.7641 4.47611 19.2991 4.7527 14.8341C4.79221 14.2019 4.87124 13.5302 4.98978 12.898C5.02929 12.5424 5.38491 12.3053 5.70101 12.3843C6.05663 12.4239 6.2937 12.74 6.25419 13.0956C6.17516 13.6883 6.13565 14.3205 6.09614 14.9527C6.01711 16.8493 6.09614 18.7064 6.13565 20.603C6.21468 23.1319 6.2937 25.7002 6.33322 28.229C6.33322 28.7427 5.93809 29.1773 5.42442 29.1773C4.91075 29.1773 4.51562 28.7427 4.51562 28.229Z" fill="#FEC82F"/>
<path d="M5.38536 39.0565C4.87169 39.0565 4.47656 38.6218 4.47656 38.1477C4.47656 37.634 4.47656 37.0808 4.47656 36.4881C4.47656 33.9198 4.51608 31.1539 4.51608 28.2299C4.51608 27.7163 4.95072 27.3212 5.42487 27.3212C5.93854 27.3212 6.33367 27.7558 6.33367 28.2299C6.33367 31.1539 6.33367 33.9198 6.29416 36.4881C6.29416 37.0413 6.29416 37.5945 6.29416 38.1082C6.33367 38.6218 5.89903 39.0565 5.38536 39.0565Z" fill="#FEC82F"/>
<path d="M11.7895 52.1349C5.54642 49.4481 5.11178 44.1928 4.44006 38.1869C4.36103 36.962 6.13911 36.8039 6.29716 37.9893C6.4157 40.5972 6.49473 43.3236 7.28499 45.8129C7.99622 48.3417 9.89284 50.1593 12.1846 51.3052C12.6983 51.5818 12.3426 52.372 11.7895 52.1349Z" fill="#FEC82F"/>
<path d="M116.769 43.1665C117.875 45.2607 120.009 46.367 122.222 47.1178C122.815 47.3154 122.577 48.1846 121.945 48.0661C120.088 47.671 118.073 46.9992 116.571 45.6953C116.058 45.2607 115.584 44.7075 115.189 44.1543C114.477 43.0084 116.097 42.0206 116.769 43.1665Z" fill="#FEC82F"/>
<path d="M115.982 44.548C115.666 44.548 115.35 44.39 115.192 44.1134C113.335 41.1499 112.979 36.6455 112.939 29.3751C112.939 28.8614 113.335 28.4268 113.848 28.4268C114.362 28.4268 114.757 28.8219 114.757 29.3356C114.797 36.0923 115.113 40.5177 116.733 43.1256C117.009 43.5602 116.851 44.1134 116.417 44.39C116.338 44.5085 116.14 44.548 115.982 44.548Z" fill="#FEC82F"/>
<path d="M114.72 21.1963C114.838 23.9227 114.68 26.6886 114.799 29.3755C114.838 29.8892 114.443 30.3238 113.93 30.3633C113.376 30.4028 112.902 29.9287 112.942 29.3755C113.1 26.6096 113.574 23.9622 113.732 21.1963C113.772 20.6036 114.68 20.6036 114.72 21.1963Z" fill="#FEC82F"/>
<path d="M143.954 29.0198C143.322 31.4696 142.61 33.9194 141.583 36.2507C141.267 36.9224 140.24 36.5273 140.477 35.7765C140.556 35.4999 140.674 35.1838 140.753 34.9072C141.385 32.8526 141.781 30.7189 142.136 28.6247C142.373 27.3603 144.191 27.7554 143.954 29.0198Z" fill="#FEC82F"/>
<path d="M143.047 29.771C142.968 29.771 142.928 29.771 142.849 29.7315C142.336 29.6129 142.02 29.1388 142.138 28.6251C142.375 27.4792 142.691 26.0568 143.047 24.5158C143.165 24.0021 143.64 23.686 144.153 23.8045C144.667 23.9231 144.983 24.3972 144.865 24.9109C144.509 26.4914 144.232 27.8744 143.956 29.0598C143.837 29.4549 143.442 29.771 143.047 29.771Z" fill="#FEC82F"/>
<path d="M145.936 17.7597L144.83 24.872C144.593 26.1364 142.736 25.7808 143.012 24.5164L144.79 17.5226C144.988 16.8114 146.055 17.009 145.936 17.7597Z" fill="#FEC82F"/>
<path d="M165.214 41.4271C165.569 43.2052 166.083 44.9043 166.715 46.5638C166.913 47.117 167.15 47.7097 167.308 48.3419C167.466 48.9741 166.518 49.2902 166.281 48.658C166.083 48.1443 165.806 47.5911 165.53 47.038C164.977 45.9316 164.463 44.7857 164.028 43.6399C163.791 43.0472 163.594 42.4545 163.396 41.8618C163.08 40.6369 164.898 40.1232 165.214 41.4271Z" fill="#FEC82F"/>
<path d="M164.348 42.5734C163.953 42.5734 163.558 42.2969 163.439 41.8622L163.4 41.6251C162.965 39.9656 162.768 39.1753 162.056 38.3061C161.74 37.9109 161.819 37.3182 162.214 37.0021C162.61 36.686 163.202 36.7651 163.518 37.1602C164.467 38.3456 164.704 39.3334 165.178 41.151L165.217 41.3881C165.336 41.9017 165.059 42.3759 164.546 42.5339C164.467 42.5734 164.388 42.5734 164.348 42.5734Z" fill="#FEC82F"/>
<path d="M159.525 35.659C160.236 35.58 160.987 35.58 161.698 35.8565C162.409 36.1331 163.002 36.6468 163.515 37.1605C163.911 37.5161 163.911 38.1088 163.555 38.5039C163.16 38.9386 162.409 38.8595 162.093 38.3459C161.658 37.6741 161.184 37.0419 160.394 36.8444C160.117 36.7653 159.841 36.7258 159.525 36.6863C158.932 36.5678 158.932 35.738 159.525 35.659Z" fill="#FEC82F"/>
<path d="M163.99 18.1151C164.78 20.2093 165.373 22.343 165.886 24.4766C165.965 24.7532 165.807 25.0298 165.531 25.0693C165.294 25.1484 165.056 24.9903 164.938 24.7532C164.148 22.7381 163.278 20.7229 162.291 18.8658C162.053 18.4312 162.212 17.8385 162.686 17.6014C163.199 17.3643 163.792 17.6014 163.99 18.1151Z" fill="white"/>
<path d="M163.158 19.4191C162.802 19.4191 162.446 19.2215 162.328 18.8659C160.945 15.8234 159.483 13.6502 157.823 12.3068C157.428 11.9907 157.389 11.398 157.705 11.0028C158.021 10.6077 158.614 10.5682 159.009 10.8843C160.905 12.4253 162.525 14.7961 164.027 18.1152C164.225 18.5893 164.027 19.1425 163.553 19.3401C163.395 19.3796 163.276 19.4191 163.158 19.4191Z" fill="white"/>
<path d="M151.27 9.18421C153.957 8.55201 156.802 9.18421 158.975 10.8833C159.37 11.1994 159.449 11.7921 159.173 12.1872C158.856 12.6218 158.185 12.6614 157.79 12.3057C156.96 11.5155 155.972 10.9228 154.905 10.6067C153.838 10.2511 152.653 10.2116 151.468 10.3301C150.717 10.4091 150.559 9.34226 151.27 9.18421Z" fill="white"/>
<path d="M132.259 32.8524C131.548 31.3904 130.205 30.4026 128.664 29.968C128.308 29.8494 127.873 29.7704 127.518 29.7309C126.846 29.6519 126.885 28.664 127.557 28.6245C129.098 28.6245 130.6 29.0592 131.904 29.8889C132.694 30.4421 133.366 31.1138 133.879 31.9041C134.551 33.05 132.852 34.0378 132.259 32.8524Z" fill="white"/>
<path d="M122.619 6.93301C126.254 6.77496 129.929 8.07888 131.549 11.556C132.023 12.7019 130.403 13.4131 129.85 12.3463C129.257 10.6077 127.716 9.26427 126.017 8.63206C124.95 8.23693 123.765 8.03937 122.619 7.96035C121.947 7.96035 121.947 6.97252 122.619 6.93301Z" fill="white"/>
<path d="M97.1341 7.36751C98.6751 7.48605 100.216 7.68361 101.757 8.03923C102.271 8.15777 102.784 8.27631 103.298 8.43436C104.088 8.71095 103.812 9.89634 102.982 9.73829C102.508 9.65926 101.994 9.58023 101.52 9.50121C100.058 9.30364 98.5566 9.26413 97.0946 9.26413C95.7512 9.18511 95.8302 7.328 97.1341 7.36751Z" fill="white"/>
<path d="M97.0973 9.22414C97.0578 9.22414 97.0578 9.22414 97.0183 9.22414C93.9363 8.98706 90.9728 8.94755 88.2464 9.14512C87.7327 9.18463 87.2981 8.7895 87.2586 8.27583C87.2191 7.76217 87.6142 7.32752 88.1279 7.28801C90.9333 7.09045 94.0153 7.12996 97.1763 7.36704C97.69 7.40655 98.0851 7.84119 98.0456 8.35486C97.9666 8.86853 97.5714 9.22414 97.0973 9.22414Z" fill="white"/>
<path d="M82.04 8.63186C83.9761 7.99965 86.0703 7.60452 88.0855 7.28842C88.5991 7.2094 89.0733 7.56501 89.1523 8.07868C89.2313 8.63186 88.7967 9.14553 88.2435 9.14553C86.2284 9.14553 84.2527 9.22455 82.2376 9.54066C81.6844 9.61968 81.4868 8.82942 82.04 8.63186Z" fill="white"/>
<path d="M65.9574 6.4578C69.9877 6.97146 71.7263 11.3969 72.2005 14.9531C72.2795 16.178 70.5409 16.3755 70.3433 15.1506C70.2643 13.5306 69.9087 11.8315 69.1975 10.3696C68.6838 9.30272 67.9331 8.35441 66.8662 7.80123C66.5106 7.64318 66.155 7.52464 65.7598 7.4061C65.2067 7.28756 65.3252 6.41828 65.9574 6.4578Z" fill="white"/>
<path d="M44.5033 6.53727C48.4151 7.16948 49.1263 11.9505 48.9683 15.2301C48.8497 16.455 47.0716 16.3365 47.1112 15.1116C47.3087 13.6101 47.2692 12.0296 46.9136 10.5676C46.558 9.18463 45.7282 7.95973 44.2662 7.64363C43.5945 7.44607 43.7921 6.41873 44.5033 6.53727Z" fill="white"/>
<path d="M19.1753 4.83857C19.8471 4.83857 21.309 4.79906 21.9412 4.79906C23.4427 4.83857 25.0233 4.9176 26.5247 5.11516C28.6584 5.43126 32.1751 6.18201 33.2815 8.23668C33.321 8.27619 33.321 8.35522 33.3605 8.43424C33.5185 9.06645 32.6097 9.34304 32.3727 8.71083L32.3331 8.67132C32.2541 8.51327 32.0961 8.35522 31.938 8.23668C30.397 6.97227 28.3028 6.73519 26.3667 6.53762C25.2208 6.4586 23.9959 6.41908 22.85 6.4586C22.5735 6.4586 21.7832 6.49811 21.5066 6.49811C21.151 6.53763 19.6495 6.61665 19.2544 6.65616C17.99 6.73519 17.9109 4.91759 19.1753 4.83857Z" fill="white"/>
<path d="M35.0205 37.4763C34.6254 37.4763 34.2302 37.1997 34.1117 36.8046C34.0327 36.528 32.2151 30.443 26.0906 29.8108C25.5769 29.7713 25.2213 29.2972 25.2608 28.7835C25.3003 28.2698 25.7745 27.9142 26.2881 27.9537C33.6375 28.744 35.7712 35.9748 35.8898 36.2909C36.0478 36.7651 35.7317 37.2788 35.2576 37.4368C35.1785 37.4763 35.0995 37.4763 35.0205 37.4763Z" fill="white"/>
<path d="M16.4065 47.7492C16.3274 47.7492 16.2089 47.7492 16.1299 47.7097C16.0113 47.6702 12.8503 46.6824 12.06 43.1657C11.9415 42.6521 12.2576 42.1779 12.7713 42.0594C13.2849 41.9408 13.7591 42.2569 13.8776 42.7706C14.4308 45.1809 16.5645 45.8921 16.6831 45.9316C17.1572 46.0897 17.4338 46.6034 17.2757 47.0775C17.1572 47.5122 16.8016 47.7492 16.4065 47.7492Z" fill="white"/>
<path d="M67.8974 41.4273C67.8183 42.5732 67.6998 43.7191 67.5417 44.8254C67.4232 45.8923 67.2652 46.9986 67.4232 48.0655C67.5022 48.5792 66.791 48.7767 66.5934 48.2631C66.2378 47.1172 66.2773 45.9318 66.3169 44.7464C66.3564 43.6005 66.3564 42.4942 66.2773 41.4273C66.3169 40.321 67.8974 40.321 67.8974 41.4273Z" fill="#FEC82F"/>
<path d="M66.3578 36.5677C67.7407 37.516 67.7407 39.9263 67.8988 41.4278C67.9383 42.5341 66.3182 42.5736 66.3182 41.4278C66.3578 40.2819 66.6739 38.0296 65.8441 37.1999C65.4885 36.8443 65.9626 36.2911 66.3578 36.5677Z" fill="#FEC82F"/>
<path d="M21.1143 45.2202C18.0323 45.2202 15.543 42.7309 15.543 39.6489C15.543 36.5669 18.0323 34.0776 21.1143 34.0776C24.1963 34.0776 26.6856 36.5669 26.6856 39.6489C26.6856 42.7309 24.1963 45.2202 21.1143 45.2202ZM21.1143 34.9864C18.546 34.9864 16.4518 37.0806 16.4518 39.6489C16.4518 42.2173 18.546 44.3114 21.1143 44.3114C23.6826 44.3114 25.7768 42.2173 25.7768 39.6489C25.7768 37.0806 23.6826 34.9864 21.1143 34.9864Z" fill="black"/>
<path d="M16.4096 37.8312C16.3701 37.8312 16.3306 37.8312 16.3306 37.8312C16.2121 37.7917 16.1726 37.6336 16.2121 37.5151C17.7531 34.0379 19.9263 33.3267 22.8898 33.3267C23.0083 33.3267 23.1268 33.4452 23.1268 33.5638C23.1268 33.6823 23.0083 33.8009 22.8898 33.8009C20.0053 33.8009 18.0692 34.4331 16.6072 37.7126C16.5677 37.7917 16.4887 37.8312 16.4096 37.8312Z" fill="#010202"/>
<path d="M54.5362 36.0143C54.4177 36.0143 54.2597 36.0143 54.1411 35.9748C53.3509 35.8957 50.822 35.224 50.743 30.6405C50.7035 27.44 50.743 24.3975 50.822 21.7501C50.9011 17.5223 51.0196 13.8871 50.585 11.2397C49.9923 7.64403 48.0956 5.23374 45.3297 4.68056C42.3663 4.08787 39.1262 5.66839 37.2296 8.67137C37.0715 8.94796 36.874 9.30357 36.7159 9.73821C36.6369 9.97529 36.3603 10.0938 36.1232 10.0148C35.8862 9.93578 35.7676 9.65919 35.8466 9.42211C36.0442 8.94795 36.2418 8.55282 36.4393 8.19721C38.5335 4.87812 42.1687 3.13956 45.4878 3.81128C48.6488 4.44349 50.822 7.09085 51.4542 11.1212C51.8889 13.8476 51.8099 17.5618 51.7308 21.8292C51.6518 24.516 51.6123 27.519 51.6518 30.68C51.6913 33.2484 52.6396 34.9079 54.2201 35.1055C55.4846 35.2635 56.749 34.3943 57.1046 33.1298C57.1836 32.8928 57.4207 32.7347 57.6578 32.8137C57.8948 32.8928 58.0529 33.1298 57.9739 33.3669C57.5787 34.8684 56.1168 36.0143 54.5362 36.0143Z" fill="black"/>
<path d="M48.6959 54.0716C48.5774 54.0716 48.4588 54.0716 48.3798 54.0716C44.5075 53.9135 41.0304 50.95 38.3435 45.4973C38.225 45.2602 38.304 44.9836 38.5411 44.8651C38.7782 44.7465 39.0548 44.8256 39.1733 45.0626C41.7021 50.1203 44.9817 52.9652 48.4193 53.1233C52.6472 53.2813 57.1912 49.5276 61.5771 42.2177C62.2093 41.1509 62.802 40.3606 63.4342 39.6889C63.5923 39.4913 63.9084 39.4913 64.1059 39.6494C64.3035 39.8074 64.3035 40.1235 64.1455 40.3211C63.5923 40.9138 63.0391 41.704 62.4069 42.6919C57.8234 50.2783 53.2004 54.0716 48.6959 54.0716Z" fill="black"/>
<path d="M34.5453 29.6129C34.3082 29.6129 34.1106 29.4548 34.0711 29.2177C34.0316 28.8621 33.0043 20.683 34.5453 14.0843C34.5848 13.8472 34.8614 13.6892 35.0984 13.7287C35.3355 13.7682 35.4936 14.0448 35.4541 14.2819C33.9526 20.7225 34.9799 29.0202 34.9799 29.0992C35.0194 29.3363 34.8219 29.5734 34.5848 29.6129H34.5453Z" fill="black"/>
<path d="M91.4483 5.98419H89.9468C89.7097 5.98419 89.4727 5.78662 89.4727 5.51003C89.4727 5.23344 89.6702 5.03587 89.9468 5.03587H92.9498C93.1869 5.03587 93.4239 5.23344 93.4239 5.51003C93.4239 5.78662 93.2264 5.98419 92.9498 5.98419H91.4483Z" fill="black"/>
<path d="M91.548 53.9712H91.4295C87.7548 53.9712 84.1196 52.9834 83.8035 41.4061C83.685 36.9807 83.764 33.1479 83.8035 30.0659C83.8825 25.2849 83.9616 21.8077 83.1318 20.7804C82.6577 20.2272 81.1957 20.1482 79.6547 20.0692C78.0741 19.9901 76.2566 19.9111 74.6365 19.3184C74.3995 19.2394 74.2809 18.9628 74.3599 18.7257C74.439 18.4886 74.7156 18.3701 74.9526 18.4491C76.4541 19.0023 78.1927 19.0813 79.6942 19.1604C81.5908 19.2394 83.1318 19.3184 83.843 20.2272C84.8704 21.5311 84.8309 24.7712 84.7123 30.1054C84.6728 33.1479 84.5938 36.9807 84.7123 41.4061C85.0284 53.0624 88.7426 53.0624 91.4295 53.0624H91.548C94.2349 53.0624 97.9491 53.0624 98.2652 41.4061C98.3838 36.9807 98.3048 33.1874 98.2652 30.1054C98.1467 24.7317 98.1072 21.4916 99.1345 20.2272C99.8458 19.3184 101.387 19.2789 103.283 19.1604C105.378 19.0813 107.709 18.9628 109.447 17.7379C109.843 17.4613 110.238 17.0662 110.554 16.592C111.384 15.3671 111.7 13.9051 111.423 12.4036C111.146 10.9022 110.238 9.55872 108.973 8.68944C105.496 6.35818 100.557 5.96305 91.469 5.92353C82.4206 5.92353 77.4815 6.35818 73.9648 8.68944C73.5302 8.96603 73.1746 9.28213 72.8585 9.67726C72.7004 9.87482 72.3843 9.87482 72.1867 9.71677C71.9892 9.55872 71.9892 9.24261 72.1472 9.04505C72.5423 8.61041 72.977 8.21528 73.4511 7.89918C77.1258 5.44938 82.1835 5.01473 91.469 4.97522C100.715 4.97522 105.773 5.40987 109.487 7.89918C110.949 8.887 112.016 10.4675 112.332 12.2061C112.648 13.9447 112.292 15.6437 111.344 17.1057C110.949 17.6589 110.514 18.133 110.001 18.4886C108.064 19.8716 105.457 19.9901 103.323 20.0692C101.782 20.1482 100.32 20.1877 99.8458 20.7804C99.016 21.8077 99.095 25.2849 99.174 30.0659C99.2135 33.1479 99.2926 36.9412 99.174 41.4061C98.8579 52.9834 95.2227 53.9712 91.548 53.9712Z" fill="black"/>
<path d="M124.047 54.7443C122.506 54.7443 118.357 54.5863 114.999 53.2428C110.139 51.3067 107.254 47.5135 106.899 42.5743C106.583 37.8723 106.187 28.5868 107.373 18.9456C107.412 18.7086 107.649 18.511 107.886 18.5505C108.124 18.59 108.321 18.8271 108.282 19.0642C107.136 28.6263 107.491 37.8328 107.847 42.4953C108.163 47.0393 110.85 50.556 115.354 52.3736C119.345 53.9541 124.64 53.796 124.679 53.796C132.78 53.796 139.339 47.4344 139.339 39.6504C139.339 34.1581 136.02 29.1005 130.843 26.8087C130.369 26.5716 130.014 26.137 129.974 25.6233C129.895 25.1097 130.132 24.596 130.567 24.2404C135.704 20.2496 135.98 13.967 133.293 10.1738C130.962 6.8547 128.196 5.47174 123.415 5.23467C120.412 5.07662 117.528 5.51126 115.671 5.90639C113.3 6.42006 111.443 7.52642 110.257 9.06742C110.099 9.26499 109.823 9.3045 109.625 9.14645C109.427 8.9884 109.388 8.7118 109.546 8.51424C110.85 6.77567 112.905 5.55077 115.512 4.99759C117.449 4.60246 120.412 4.12831 123.534 4.28636C128.591 4.56295 131.555 6.06444 134.123 9.6206C137.047 13.7299 136.77 20.6052 131.199 24.9516C131.041 25.0701 130.962 25.2677 130.962 25.4653C131.002 25.6628 131.12 25.8209 131.318 25.9394C136.81 28.3892 140.366 33.763 140.366 39.6504C140.366 47.9481 133.372 54.7443 124.798 54.7443C124.64 54.7443 124.442 54.7443 124.047 54.7443Z" fill="black"/>
<path d="M123.412 44.1138C120.962 44.1138 118.986 42.1382 118.986 39.6884C118.986 37.2386 120.962 35.263 123.412 35.263C125.862 35.263 127.837 37.2386 127.837 39.6884C127.837 42.1382 125.862 44.1138 123.412 44.1138ZM123.412 36.1718C121.476 36.1718 119.935 37.7523 119.935 39.6489C119.935 41.5455 121.515 43.126 123.412 43.126C125.308 43.126 126.889 41.5455 126.889 39.6489C126.889 37.7523 125.348 36.1718 123.412 36.1718Z" fill="black"/>
<path d="M122.265 21.5921C120.249 21.5921 118.59 19.9325 118.59 17.9174C118.59 15.9022 120.249 14.2427 122.265 14.2427C124.28 14.2427 125.939 15.9022 125.939 17.9174C125.939 19.9325 124.319 21.5921 122.265 21.5921ZM122.265 15.191C120.763 15.191 119.499 16.4159 119.499 17.9569C119.499 19.4979 120.724 20.7228 122.265 20.7228C123.806 20.7228 125.03 19.4979 125.03 17.9569C125.03 16.4159 123.806 15.191 122.265 15.191Z" fill="black"/>
<path d="M153.682 31.1934C150.916 31.1934 150.916 27.2026 150.916 25.7011C150.916 22.1845 151.904 20.2088 153.682 20.2088C156.132 20.2088 156.448 23.1723 156.448 25.7011C156.408 28.0324 156.132 31.1934 153.682 31.1934ZM153.682 21.0781C152.338 21.0781 151.864 23.4489 151.864 25.6616C151.864 29.7709 152.892 30.2451 153.682 30.2451C154.472 30.2451 155.5 29.7709 155.5 25.6616C155.5 21.6313 154.512 21.0781 153.682 21.0781Z" fill="black"/>
<path d="M119.773 38.3449C119.733 38.3449 119.694 38.3449 119.694 38.3449C119.575 38.3054 119.536 38.1474 119.575 38.0288C120.761 35.3025 122.46 34.7888 124.791 34.7888C124.91 34.7888 125.028 34.9073 125.028 35.0259C125.028 35.1444 124.91 35.2629 124.791 35.2629C122.578 35.2629 121.077 35.7371 120.01 38.2264C119.931 38.3054 119.852 38.3449 119.773 38.3449Z" fill="#010202"/>
<path d="M119.063 18.1536C118.945 18.1536 118.826 18.035 118.826 17.9165C118.826 14.3998 121.434 13.4515 122.975 13.4515C123.094 13.4515 123.212 13.5701 123.212 13.6886C123.212 13.8072 123.094 13.9257 122.975 13.9257C121.276 13.9257 119.3 14.9925 119.3 17.9165C119.3 18.035 119.182 18.1536 119.063 18.1536Z" fill="#010202"/>
<path d="M141.276 53.7552C138.866 53.7552 136.495 52.7278 134.519 50.7917C134.322 50.5942 134.322 50.3176 134.519 50.12C134.717 49.9224 134.993 49.9224 135.191 50.12C137.167 52.0561 139.537 53.0044 141.908 52.8069C143.884 52.6488 145.583 51.7005 146.729 50.1595C147.954 48.5 148.862 46.5243 149.771 43.5608C150.245 42.0594 151.589 40.9925 153.13 40.9135C153.802 40.874 154.513 40.874 155.224 40.953C156.726 41.111 158.029 42.1384 158.464 43.6004C159.373 46.5243 160.282 48.5 161.507 50.1595C162.494 51.5425 163.996 52.4513 165.655 52.7278C167.513 53.0439 169.291 52.5698 170.595 51.4239C171.977 50.199 172.649 48.3814 172.531 46.2872C171.108 22.7771 163.206 6.37921 153.327 6.37921C146.018 6.37921 139.854 15.0325 136.455 30.1265C136.416 30.3635 136.139 30.5216 135.902 30.4821C135.665 30.4426 135.507 30.166 135.547 29.9289C139.063 14.4003 145.543 5.47041 153.327 5.47041C158.662 5.47041 163.443 9.61927 167.117 17.4823C170.516 24.7922 172.768 34.9866 173.439 46.2082C173.598 48.579 172.768 50.6732 171.187 52.0956C169.686 53.4391 167.592 53.9923 165.458 53.6366C163.522 53.281 161.862 52.2537 160.716 50.6732C159.412 48.9346 158.464 46.8799 157.516 43.8374C157.16 42.7311 156.212 41.9408 155.066 41.8223C154.394 41.7433 153.723 41.7433 153.13 41.7828C151.984 41.8618 150.957 42.6521 150.601 43.7979C149.653 46.8799 148.704 48.9346 147.4 50.6732C146.097 52.4512 144.16 53.5181 141.908 53.7157C141.75 53.7552 141.513 53.7552 141.276 53.7552Z" fill="black"/>
<path d="M158.226 44.5884C158.147 44.5884 158.028 44.5093 157.989 44.4303C157.317 42.5337 156.961 40.6371 156.961 40.6371C156.922 40.5185 157.001 40.4 157.159 40.3605C157.277 40.321 157.396 40.4 157.435 40.558C157.435 40.558 157.791 42.4546 158.463 44.3118C158.502 44.4303 158.423 44.5488 158.305 44.5884C158.265 44.5488 158.226 44.5884 158.226 44.5884Z" fill="#010202"/>
<path d="M33.4777 1.04557C32.6085 0.84801 31.6601 0.689958 30.6328 0.531906L32.3714 4.44368C35.809 5.86614 36.6783 8.7901 35.9275 12.5438C36.8363 11.7931 37.429 10.8843 37.8637 10.015C39.7208 6.3403 37.4685 1.91486 33.4777 1.04557Z" fill="#DF2E1A"/>
<path d="M23.5996 20.6036L25.2987 24.0413C37.5872 27.2023 43.7907 40.5972 35.3349 51.8188C39.0492 48.2231 41.4594 41.9801 41.4594 37.9103C41.4594 28.3482 33.4778 20.6036 23.5996 20.6036Z" fill="#DF2E1A"/>
<path d="M20.6762 58.7334C18.8191 58.7334 13.959 58.5753 9.9682 56.9948C4.23883 54.703 0.840718 50.2381 0.445589 44.4297C0.0504598 39.0559 -0.581746 25.1474 1.63098 11.9896C2.38172 7.52465 5.50324 4.48215 10.4819 3.45482C16.0532 2.26943 25.6548 2.34845 31.3842 3.65238C33.4784 4.12654 35.2169 5.50949 36.1652 7.44562C37.0345 9.34224 37.0345 11.4364 36.0862 13.2935C35.4935 14.4394 34.6242 15.8619 32.8857 16.6916C31.2261 17.5214 29.0529 17.719 26.7217 17.2448C24.825 16.8892 21.1503 16.336 17.6732 16.8892C16.2112 17.1263 15.1049 18.3117 14.9073 19.7736C14.7888 20.88 14.7097 22.5 15.1049 24.2781C17.12 23.5669 19.2537 23.2113 21.4269 23.2113C31.5422 23.2113 39.7609 31.1929 39.7609 40.9921C39.7609 50.7913 31.5422 58.7729 21.4269 58.7729C21.3874 58.6938 21.1108 58.7334 20.6762 58.7334ZM20.2811 3.53385C16.7249 3.53385 13.2478 3.81043 10.6794 4.36361C6.13544 5.35144 3.251 8.11734 2.57929 12.1477C0.406076 25.1869 1.03828 39.0164 1.3939 44.3507C1.78903 49.7639 4.95006 53.9523 10.3633 56.086C15.1049 57.9826 21.3874 57.7851 21.4269 57.7851C31.0286 57.7851 38.8521 50.2381 38.8521 40.9526C38.8521 31.667 31.0286 24.1201 21.4664 24.1201C19.3723 24.1201 17.3176 24.4757 15.3815 25.1869C15.421 25.2659 15.421 25.345 15.4605 25.424C15.5395 25.6611 15.421 25.9377 15.1444 26.0167C14.9073 26.0957 14.6307 25.9772 14.5517 25.7006C13.959 23.804 13.7614 21.7493 13.9985 19.6551C14.1961 17.798 15.6581 16.257 17.5152 15.9804C21.1108 15.3877 24.9436 15.9409 26.8797 16.336C29.0134 16.7707 30.9891 16.5731 32.451 15.8619C33.9525 15.1506 34.7033 13.9257 35.2169 12.8589C36.0072 11.2784 36.0467 9.46078 35.2565 7.84075C34.4662 6.1417 32.9647 4.95631 31.1471 4.52167C28.2627 3.84995 24.2323 3.53385 20.2811 3.53385Z" fill="black"/>
<path d="M76.8645 15.9416C76.746 14.9537 76.5879 14.124 76.4694 13.4522C75.1655 5.94479 73.3084 1.59837 67.658 1.32178C66.6307 1.28227 65.7219 1.40081 64.9316 1.63788L66.3541 4.40379C71.8464 4.40379 73.9801 11.6346 74.9679 21.1968L77.5363 22.8563C77.3782 20.2089 77.1411 17.7987 76.8645 15.9416Z" fill="#DF2E1A"/>
<path d="M67.9366 54.1898C67.5414 54.1898 67.1463 54.1503 66.7907 54.1107C63.8272 53.6366 60.5872 51.8585 61.496 42.4544C61.5355 42.2174 61.733 42.0198 62.0096 42.0198C62.2467 42.0593 62.4443 42.2569 62.4443 42.5335C61.6145 51.1078 64.2619 52.7278 66.9488 53.1624C69.2405 53.5576 71.4532 52.6093 72.6781 50.6731C77.0245 43.9559 75.0884 23.2907 73.903 16.4945C72.5991 9.06604 70.8605 4.99622 65.5263 4.75914C60.4291 4.52206 59.1252 8.51286 58.8486 10.8836C58.8091 11.3183 58.7301 11.911 58.6906 12.5827C58.4535 16.4154 58.4535 19.616 58.493 22.4609C58.493 27.6766 58.493 31.4699 56.9915 34.9865C56.873 35.2236 56.6359 35.3421 56.3988 35.2236C56.1617 35.105 56.0432 34.868 56.1617 34.6309C57.5842 31.3118 57.5842 27.5976 57.5842 22.5004C57.5842 19.6555 57.5842 16.455 57.7818 12.5827C57.8213 11.911 57.9003 11.2788 57.9398 10.8441C58.5325 6.22112 61.2984 3.69229 65.6053 3.88986C71.5322 4.16645 73.5079 8.67092 74.8513 16.4154C75.7601 21.5126 78.3285 43.7584 73.4684 51.2658C72.204 53.0834 70.1888 54.1898 67.9366 54.1898Z" fill="black"/>
</g>
<defs>
<filter id="filter0_d_287_10953" x="0" y="0" width="180.082" height="64.8649" filterUnits="userSpaceOnUse" color-interpolation-filters="sRGB">
<feFlood flood-opacity="0" result="BackgroundImageFix"/>
<feColorMatrix in="SourceAlpha" type="matrix" values="0 0 0 0 0 0 0 0 0 0 0 0 0 0 0 0 0 0 127 0" result="hardAlpha"/>
<feOffset dx="4.86487" dy="4.86487"/>
<feComposite in2="hardAlpha" operator="out"/>
<feColorMatrix type="matrix" values="0 0 0 0 0 0 0 0 0 0 0 0 0 0 0 0 0 0 0.05 0"/>
<feBlend mode="normal" in2="BackgroundImageFix" result="effect1_dropShadow_287_10953"/>
<feBlend mode="normal" in="SourceGraphic" in2="effect1_dropShadow_287_10953" result="shape"/>
</filter>
</defs>
</svg>
