<svg width="1786" height="1017" viewBox="0 0 1786 1017" fill="none" xmlns="http://www.w3.org/2000/svg">
<path d="M1730.41 256.711L1730.37 256.69L1730.32 256.671C1730.26 256.648 1730.25 256.63 1730.24 256.614L1730.24 256.614C1730.22 256.582 1730.19 256.503 1730.2 256.38C1730.21 256.116 1730.35 255.949 1730.5 255.884C1739.88 252.432 1750.8 256.719 1763.99 270.299C1772.02 278.719 1775.12 285.638 1776.01 290.072L1776.02 290.108L1776.02 290.143C1776.79 293.354 1775.26 296.732 1772.18 298.276C1765.75 301.491 1761.25 300.868 1759.18 300.251C1759.86 296.57 1759.08 292.391 1757.52 288.251C1755.92 283.977 1753.41 279.544 1750.47 275.394C1744.64 267.161 1736.83 259.664 1730.41 256.711ZM1759.13 300.534C1759.13 300.534 1759.13 300.532 1759.13 300.528C1759.13 300.532 1759.13 300.534 1759.13 300.534Z" fill="#53B4BA" stroke="#1E0E09" stroke-width="4"/>
<path d="M357.321 609.864L357.367 609.885L357.414 609.904C357.471 609.927 357.481 609.945 357.49 609.96L357.49 609.961C357.509 609.993 357.538 610.072 357.531 610.195C357.517 610.459 357.378 610.626 357.232 610.69C347.856 614.143 336.937 609.856 323.743 596.276C315.708 587.856 312.611 580.937 311.724 576.502L311.717 576.467L311.708 576.431C310.944 573.22 312.468 569.843 315.555 568.299C321.987 565.083 326.486 565.707 328.552 566.323C327.87 570.005 328.652 574.183 330.208 578.323C331.814 582.598 334.323 587.031 337.263 591.181C343.096 599.414 350.905 606.91 357.321 609.864ZM328.606 566.041C328.606 566.041 328.606 566.043 328.606 566.046C328.606 566.043 328.606 566.041 328.606 566.041Z" fill="#53B4BA" stroke="#1E0E09" stroke-width="4"/>
<path d="M1331.96 425.477L1331.97 425.459L1331.97 425.441C1332.51 422.182 1333.66 417.858 1335.81 412.39C1335.82 412.393 1335.83 412.397 1335.84 412.401C1335.87 412.412 1335.89 412.424 1335.9 412.433C1338.37 422.478 1344.82 430.563 1352.09 435.246C1359.28 439.875 1367.82 441.472 1374.14 437.387C1374.17 437.367 1374.21 437.347 1374.28 437.338C1373.75 440.815 1372.46 445.304 1369.47 448.989C1368.24 449.59 1363.61 451.584 1357.51 451.299C1351.29 451.008 1343.33 448.345 1335.66 438.935L1335.66 438.932C1332.47 435.035 1331.1 430.136 1331.96 425.477ZM1374.52 437.368C1374.52 437.368 1374.52 437.368 1374.52 437.367C1374.52 437.367 1374.52 437.368 1374.52 437.368Z" fill="#C92F74" stroke="#1E0E09" stroke-width="4"/>
<path d="M744.144 451.881L744.141 451.899L744.138 451.916C743.594 455.175 742.445 459.499 740.293 464.967C740.284 464.964 740.274 464.961 740.265 464.957C740.238 464.945 740.219 464.933 740.207 464.925C737.734 454.879 731.287 446.794 724.016 442.111C716.829 437.482 708.283 435.885 701.971 439.971C701.941 439.99 701.893 440.011 701.825 440.019C702.361 436.543 703.648 432.054 706.634 428.368C707.872 427.767 712.492 425.773 718.596 426.059C724.814 426.349 732.778 429.012 740.446 438.422L740.448 438.425C743.637 442.322 745.007 447.221 744.144 451.881ZM701.585 439.989C701.585 439.989 701.586 439.99 701.588 439.991C701.586 439.99 701.585 439.99 701.585 439.989Z" fill="#C92F74" stroke="#1E0E09" stroke-width="4"/>
<path d="M55.6801 222.172L55.7263 222.193L55.7736 222.212C55.8302 222.235 55.8404 222.253 55.8494 222.269L55.8497 222.269C55.868 222.301 55.8971 222.38 55.8906 222.503C55.8767 222.767 55.7371 222.934 55.5918 222.999C46.2156 226.451 35.2966 222.164 22.1022 208.584C14.0669 200.164 10.9701 193.245 10.0832 188.81L10.0761 188.775L10.0677 188.739C9.30312 185.528 10.8272 182.151 13.9146 180.607C20.3462 177.391 24.8457 178.015 26.9116 178.631C26.2298 182.313 27.0109 186.491 28.567 190.631C30.1738 194.906 32.6822 199.339 35.6224 203.489C41.4556 211.722 49.264 219.219 55.6801 222.172ZM26.9655 178.349C26.9656 178.349 26.9657 178.351 26.9654 178.354C26.9652 178.351 26.9654 178.349 26.9655 178.349Z" fill="#53B4BA" stroke="#1E0E09" stroke-width="4"/>
<path d="M707.504 53.4092L707.508 53.4268L707.511 53.4446C708.054 56.7038 709.203 61.0274 711.355 66.4955C711.365 66.4924 711.374 66.4889 711.383 66.4851C711.41 66.4736 711.429 66.4618 711.441 66.4529C713.914 56.4078 720.361 48.3228 727.633 43.6394C734.82 39.0106 743.365 37.4135 749.677 41.4989C749.707 41.5183 749.756 41.5389 749.823 41.5477C749.287 38.0712 748 33.582 745.014 29.8964C743.776 29.2958 739.156 27.3013 733.053 27.5868C726.834 27.8778 718.87 30.5403 711.203 39.9503L711.2 39.9534C708.012 43.8505 706.641 48.7492 707.504 53.4092ZM750.063 41.5178C750.063 41.5177 750.062 41.5181 750.061 41.5191C750.062 41.5183 750.063 41.5178 750.063 41.5178Z" fill="#C92F74" stroke="#1E0E09" stroke-width="4"/>
<path d="M1331.96 26.9668L1331.97 26.9491L1331.97 26.9314C1332.51 23.6722 1333.66 19.3486 1335.81 13.8804C1335.82 13.8836 1335.83 13.8871 1335.84 13.8909C1335.87 13.9023 1335.89 13.9142 1335.9 13.9231C1338.37 23.9682 1344.82 32.0532 1352.09 36.7365C1359.28 41.3654 1367.82 42.9625 1374.14 38.8771C1374.17 38.8577 1374.21 38.837 1374.28 38.8283C1373.75 42.3047 1372.46 46.7939 1369.47 50.4796C1368.24 51.0802 1363.61 53.0746 1357.51 52.7891C1351.29 52.4982 1343.33 49.8356 1335.66 40.4257L1335.66 40.4225C1332.47 36.5255 1331.1 31.6267 1331.96 26.9668ZM1374.52 38.8582C1374.52 38.8583 1374.52 38.8579 1374.52 38.8569C1374.52 38.8577 1374.52 38.8582 1374.52 38.8582Z" fill="#C92F74" stroke="#1E0E09" stroke-width="4"/>
<path d="M188.991 1002.95L189.037 1002.97L189.084 1002.99C189.141 1003.01 189.151 1003.03 189.16 1003.04L189.16 1003.04C189.179 1003.08 189.208 1003.15 189.201 1003.28C189.187 1003.54 189.048 1003.71 188.902 1003.77C179.526 1007.23 168.607 1002.94 155.413 989.359C147.377 980.939 144.281 974.02 143.394 969.585L143.387 969.55L143.378 969.514C142.614 966.303 144.138 962.926 147.225 961.382C153.657 958.166 158.156 958.79 160.222 959.406C159.54 963.088 160.321 967.266 161.878 971.406C163.484 975.681 165.993 980.114 168.933 984.264C174.766 992.497 182.575 999.993 188.991 1002.95ZM160.276 959.124C160.276 959.124 160.276 959.126 160.276 959.129C160.276 959.126 160.276 959.124 160.276 959.124Z" fill="#53B4BA" stroke="#1E0E09" stroke-width="4"/>
<path d="M1562.08 649.794L1562.04 649.772L1561.99 649.754C1561.93 649.731 1561.92 649.713 1561.91 649.697L1561.91 649.697C1561.9 649.664 1561.87 649.586 1561.87 649.462C1561.89 649.199 1562.03 649.032 1562.17 648.967C1571.55 645.515 1582.47 649.802 1595.66 663.382C1603.7 671.802 1606.79 678.721 1607.68 683.155L1607.69 683.191L1607.7 683.226C1608.46 686.437 1606.94 689.815 1603.85 691.359C1597.42 694.574 1592.92 693.951 1590.85 693.334C1591.53 689.653 1590.75 685.474 1589.2 681.334C1587.59 677.06 1585.08 672.627 1582.14 668.477C1576.31 660.243 1568.5 652.747 1562.08 649.794ZM1590.8 693.617C1590.8 693.617 1590.8 693.615 1590.8 693.611C1590.8 693.615 1590.8 693.617 1590.8 693.617Z" fill="#53B4BA" stroke="#1E0E09" stroke-width="4"/>
<path d="M587.441 834.181L587.438 834.199L587.435 834.216C586.892 837.476 585.742 841.799 583.59 847.267C583.581 847.264 583.572 847.261 583.562 847.257C583.536 847.245 583.516 847.234 583.504 847.225C581.031 837.18 574.584 829.095 567.313 824.411C560.126 819.782 551.581 818.185 545.268 822.271C545.238 822.29 545.19 822.311 545.122 822.32C545.658 818.843 546.945 814.354 549.931 810.668C551.169 810.068 555.79 808.073 561.893 808.359C568.111 808.65 576.075 811.312 583.743 820.722L583.745 820.725C586.934 824.622 588.304 829.521 587.441 834.181ZM544.882 822.29C544.882 822.29 544.883 822.29 544.885 822.291C544.883 822.29 544.882 822.29 544.882 822.29Z" fill="#C92F74" stroke="#1E0E09" stroke-width="4"/>
<path d="M1175.26 807.776L1175.26 807.759L1175.27 807.741C1175.81 804.482 1176.96 800.158 1179.11 794.69C1179.12 794.693 1179.13 794.697 1179.14 794.7C1179.17 794.712 1179.19 794.724 1179.2 794.733C1181.67 804.778 1188.12 812.863 1195.39 817.546C1202.58 822.175 1211.12 823.772 1217.43 819.687C1217.46 819.667 1217.51 819.646 1217.58 819.638C1217.04 823.114 1215.76 827.603 1212.77 831.289C1211.53 831.89 1206.91 833.884 1200.81 833.599C1194.59 833.308 1186.63 830.645 1178.96 821.235L1178.96 821.232C1175.77 817.335 1174.4 812.436 1175.26 807.776ZM1217.82 819.668C1217.82 819.668 1217.82 819.667 1217.82 819.666C1217.82 819.667 1217.82 819.668 1217.82 819.668Z" fill="#C92F74" stroke="#1E0E09" stroke-width="4"/>
</svg>
