<svg width="1656" height="1100" viewBox="0 0 1656 1100" fill="none" xmlns="http://www.w3.org/2000/svg">
<path d="M1636.47 449.94L1636.42 449.931L1636.36 449.925C1621.6 448.285 1612.43 434.876 1608.36 426.544L1608.34 426.515L1608.33 426.486C1606.94 423.876 1607.25 420.851 1609.25 418.543L1609.27 418.51L1609.3 418.475C1612.05 415.003 1614.15 411.611 1615.72 408.686C1615.72 408.683 1615.74 408.679 1615.75 408.675C1615.9 408.624 1616.16 408.592 1616.48 408.634C1616.8 408.676 1617.04 408.775 1617.18 408.864C1617.19 408.872 1617.2 408.879 1617.21 408.885C1622.5 431.51 1638.45 437.701 1643.94 439.169C1643.34 443.004 1641.81 445.986 1640.55 447.864L1640.54 447.882L1640.53 447.9C1639.53 449.475 1637.93 450.182 1636.47 449.94ZM1615.67 408.709C1615.67 408.709 1615.67 408.708 1615.67 408.706C1615.67 408.708 1615.67 408.709 1615.67 408.709ZM1617.25 408.919C1617.25 408.919 1617.25 408.918 1617.25 408.915C1617.25 408.918 1617.25 408.919 1617.25 408.919Z" fill="#9F1074" stroke="#1E0E09" stroke-width="4"/>
<path d="M175.633 267.421L175.687 267.43L175.741 267.436C190.504 269.076 199.68 282.484 203.75 290.817L203.764 290.846L203.779 290.875C205.161 293.484 204.86 296.509 202.86 298.817L202.831 298.851L202.803 298.886C200.055 302.357 197.955 305.749 196.39 308.674C196.381 308.678 196.37 308.682 196.357 308.686C196.203 308.737 195.941 308.769 195.625 308.727C195.309 308.685 195.063 308.586 194.927 308.496C194.915 308.489 194.905 308.482 194.897 308.476C189.606 285.85 173.652 279.66 168.164 278.191C168.769 274.357 170.3 271.374 171.552 269.496L171.564 269.478L171.575 269.46C172.577 267.886 174.18 267.178 175.633 267.421ZM196.44 308.652C196.44 308.652 196.438 308.653 196.435 308.655C196.438 308.653 196.44 308.652 196.44 308.652ZM194.856 308.441C194.856 308.441 194.857 308.443 194.859 308.445C194.857 308.443 194.855 308.441 194.856 308.441Z" fill="#9F1074" stroke="#1E0E09" stroke-width="4"/>
<path d="M665.757 498.496L665.755 498.484L665.752 498.472C664.402 491.719 669.15 485.09 675.889 484.597L675.896 484.596C678.789 484.373 681.232 485.354 683.096 486.809C683.08 486.834 683.061 486.859 683.04 486.886C682.952 486.998 682.851 487.088 682.759 487.147C680.253 488.761 678.803 491.652 678.098 494.816C677.384 498.024 677.362 501.803 677.967 505.641C679.141 513.1 682.766 521.267 689.029 526.216C684.814 526.12 681.623 524.735 680.69 524.282C670.312 513.072 666.843 504.287 665.757 498.496ZM683.202 486.59C683.202 486.59 683.202 486.591 683.201 486.593C683.202 486.591 683.202 486.59 683.202 486.59Z" fill="#00A5BA" stroke="#1E0E09" stroke-width="4"/>
<path d="M714.689 287.674C717.662 286.733 728.417 283.953 743.556 287.226C743.637 287.183 743.757 287.108 743.914 286.987C744.369 286.634 744.911 286.057 745.42 285.357C745.925 284.661 746.33 283.936 746.562 283.338C746.678 283.038 746.731 282.82 746.749 282.685C746.75 282.676 746.751 282.667 746.752 282.66C746.606 282.269 746.469 281.87 746.343 281.464C744.615 280.348 739.163 277.063 731.873 274.96C724.455 272.821 715.295 271.948 706.225 275.639C705.651 277.521 706.023 279.618 707.407 281.736C708.846 283.938 711.336 286.066 714.689 287.674ZM746.756 282.601C746.756 282.601 746.756 282.603 746.756 282.608C746.756 282.603 746.756 282.601 746.756 282.601ZM743.449 287.274C743.449 287.275 743.451 287.274 743.456 287.272C743.451 287.274 743.449 287.274 743.449 287.274Z" fill="#FEC82F" stroke="#1E0E09" stroke-width="4"/>
<path d="M1636.47 51.4303L1636.42 51.4213L1636.36 51.4153C1621.6 49.7749 1612.43 36.3667 1608.36 28.0343L1608.34 28.005L1608.33 27.9762C1606.94 25.3667 1607.25 22.3415 1609.25 20.0336L1609.27 20L1609.3 19.9651C1612.05 16.4935 1614.15 13.1016 1615.72 10.1763C1615.72 10.1728 1615.74 10.1689 1615.75 10.1648C1615.9 10.1143 1616.16 10.0822 1616.48 10.124C1616.8 10.1658 1617.04 10.2651 1617.18 10.3544C1617.19 10.3621 1617.2 10.369 1617.21 10.3752C1622.5 33.0004 1638.45 39.1911 1643.94 40.6595C1643.34 44.4941 1641.81 47.4765 1640.55 49.3547L1640.54 49.3724L1640.53 49.3904C1639.53 50.965 1637.93 51.6724 1636.47 51.4303ZM1615.67 10.1991C1615.67 10.199 1615.67 10.198 1615.67 10.1961C1615.67 10.1982 1615.67 10.1991 1615.67 10.1991ZM1617.25 10.4097C1617.25 10.4097 1617.25 10.4083 1617.25 10.4055C1617.25 10.4082 1617.25 10.4096 1617.25 10.4097Z" fill="#9F1074" stroke="#1E0E09" stroke-width="4"/>
<path d="M186.095 148.027C187.263 145.136 191.972 135.074 204.139 125.49C204.157 125.4 204.176 125.259 204.182 125.062C204.2 124.485 204.101 123.701 203.885 122.863C203.671 122.029 203.37 121.256 203.056 120.695C202.899 120.415 202.765 120.235 202.672 120.135C202.666 120.128 202.66 120.122 202.655 120.117C202.261 119.98 201.866 119.832 201.472 119.671C199.511 120.292 193.507 122.402 187.241 126.682C180.867 131.037 174.358 137.542 171.426 146.885C172.511 148.526 174.364 149.575 176.879 149.857C179.493 150.15 182.72 149.587 186.095 148.027ZM202.612 120.076C202.612 120.077 202.614 120.078 202.617 120.081C202.614 120.078 202.612 120.076 202.612 120.076ZM204.108 125.603C204.108 125.603 204.109 125.601 204.111 125.597C204.109 125.601 204.108 125.603 204.108 125.603Z" fill="#FEC82F" stroke="#1E0E09" stroke-width="4"/>
<path d="M18.9276 649.718L18.9813 649.727L19.0355 649.733C33.799 651.373 42.9751 664.781 47.0444 673.113L47.0587 673.143L47.074 673.172C48.4555 675.781 48.1548 678.806 46.1546 681.114L46.1255 681.148L46.0979 681.183C43.3495 684.654 41.2495 688.046 39.685 690.971C39.6756 690.975 39.6648 690.979 39.6523 690.983C39.4981 691.034 39.2355 691.066 38.9197 691.024C38.6039 690.982 38.3582 690.883 38.2217 690.793C38.2101 690.786 38.2001 690.779 38.1916 690.773C32.9005 668.147 16.9468 661.957 11.4587 660.488C12.0639 656.654 13.5946 653.671 14.8467 651.793L14.8585 651.775L14.8699 651.757C15.872 650.183 17.475 649.475 18.9276 649.718ZM39.7345 690.949C39.7345 690.949 39.733 690.95 39.7297 690.952C39.7327 690.95 39.7344 690.949 39.7345 690.949ZM38.1503 690.738C38.1504 690.738 38.1518 690.74 38.1542 690.742C38.1514 690.74 38.1502 690.738 38.1503 690.738Z" fill="#9F1074" stroke="#1E0E09" stroke-width="4"/>
<path d="M1479.77 832.237L1479.72 832.228L1479.66 832.222C1464.9 830.582 1455.72 817.174 1451.65 808.841L1451.64 808.812L1451.63 808.783C1450.24 806.174 1450.54 803.148 1452.54 800.841L1452.57 800.807L1452.6 800.772C1455.35 797.301 1457.45 793.909 1459.01 790.983C1459.02 790.98 1459.03 790.976 1459.05 790.972C1459.2 790.921 1459.46 790.889 1459.78 790.931C1460.1 790.973 1460.34 791.072 1460.48 791.161C1460.49 791.169 1460.5 791.176 1460.51 791.182C1465.8 813.807 1481.75 819.998 1487.24 821.467C1486.64 825.301 1485.1 828.283 1483.85 830.162L1483.84 830.179L1483.83 830.197C1482.83 831.772 1481.22 832.479 1479.77 832.237ZM1458.96 791.006C1458.96 791.006 1458.97 791.005 1458.97 791.003C1458.97 791.005 1458.96 791.006 1458.96 791.006ZM1460.55 791.217C1460.55 791.217 1460.55 791.215 1460.54 791.212C1460.55 791.215 1460.55 791.217 1460.55 791.217Z" fill="#9F1074" stroke="#1E0E09" stroke-width="4"/>
<path d="M989.649 601.162L989.651 601.174L989.654 601.185C991.004 607.938 986.256 614.568 979.517 615.061L979.51 615.061C976.617 615.284 974.174 614.303 972.31 612.848C972.326 612.824 972.345 612.798 972.366 612.771C972.454 612.66 972.555 612.569 972.647 612.51C975.153 610.896 976.603 608.006 977.308 604.841C978.023 601.634 978.044 597.854 977.439 594.016C976.265 586.557 972.64 578.391 966.377 573.442C970.592 573.538 973.783 574.922 974.716 575.375C985.094 586.585 988.563 595.37 989.649 601.162ZM972.204 613.067C972.204 613.067 972.204 613.066 972.205 613.064C972.204 613.066 972.204 613.067 972.204 613.067Z" fill="#00A5BA" stroke="#1E0E09" stroke-width="4"/>
<path d="M940.715 811.982C937.743 812.924 926.987 815.704 911.849 812.43C911.767 812.474 911.647 812.548 911.491 812.67C911.035 813.023 910.493 813.599 909.985 814.299C909.479 814.996 909.074 815.72 908.842 816.319C908.726 816.618 908.673 816.837 908.655 816.972C908.654 816.981 908.653 816.989 908.652 816.997C908.798 817.388 908.935 817.786 909.062 818.193C910.789 819.309 916.241 822.593 923.532 824.696C930.949 826.836 940.11 827.709 949.179 824.017C949.753 822.136 949.381 820.039 947.997 817.92C946.558 815.719 944.068 813.591 940.715 811.982ZM908.648 817.056C908.649 817.056 908.649 817.053 908.648 817.049C908.648 817.054 908.648 817.056 908.648 817.056ZM911.955 812.382C911.955 812.382 911.953 812.383 911.949 812.384C911.953 812.383 911.955 812.382 911.955 812.382Z" fill="#FEC82F" stroke="#1E0E09" stroke-width="4"/>
<path d="M18.9276 1048.23L18.9813 1048.24L19.0355 1048.24C33.799 1049.88 42.9751 1063.29 47.0444 1071.62L47.0587 1071.65L47.074 1071.68C48.4555 1074.29 48.1548 1077.32 46.1546 1079.62L46.1255 1079.66L46.0979 1079.69C43.3495 1083.16 41.2495 1086.56 39.685 1089.48C39.6756 1089.48 39.6648 1089.49 39.6523 1089.49C39.4981 1089.54 39.2355 1089.58 38.9197 1089.53C38.6039 1089.49 38.3582 1089.39 38.2217 1089.3C38.2101 1089.3 38.2001 1089.29 38.1916 1089.28C32.9005 1066.66 16.9468 1060.47 11.4587 1059C12.0639 1055.16 13.5946 1052.18 14.8467 1050.3L14.8585 1050.29L14.8699 1050.27C15.872 1048.69 17.475 1047.99 18.9276 1048.23ZM39.7345 1089.46C39.7345 1089.46 39.733 1089.46 39.7297 1089.46C39.7327 1089.46 39.7344 1089.46 39.7345 1089.46ZM38.1503 1089.25C38.1504 1089.25 38.1518 1089.25 38.1542 1089.25C38.1514 1089.25 38.1502 1089.25 38.1503 1089.25Z" fill="#9F1074" stroke="#1E0E09" stroke-width="4"/>
<path d="M1010.4 996.953L1010.41 996.965L1010.41 996.977C1011.76 1003.73 1007.01 1010.36 1000.27 1010.85L1000.27 1010.85C997.373 1011.07 994.93 1010.09 993.066 1008.64C993.082 1008.61 993.101 1008.59 993.122 1008.56C993.21 1008.45 993.311 1008.36 993.403 1008.3C995.909 1006.69 997.359 1003.8 998.064 1000.63C998.778 997.425 998.8 993.645 998.195 989.807C997.021 982.348 993.396 974.182 987.133 969.233C991.348 969.329 994.539 970.713 995.472 971.166C1005.85 982.376 1009.32 991.161 1010.4 996.953ZM992.96 1008.86C992.96 1008.86 992.96 1008.86 992.961 1008.86C992.96 1008.86 992.96 1008.86 992.96 1008.86Z" fill="#00A5BA" stroke="#1E0E09" stroke-width="4"/>
<path d="M1469.31 951.631C1468.14 954.522 1463.43 964.583 1451.27 974.168C1451.25 974.258 1451.23 974.398 1451.22 974.596C1451.2 975.172 1451.3 975.957 1451.52 976.795C1451.73 977.628 1452.03 978.402 1452.35 978.962C1452.5 979.242 1452.64 979.423 1452.73 979.523C1452.74 979.529 1452.74 979.535 1452.75 979.541C1453.14 979.677 1453.54 979.826 1453.93 979.987C1455.89 979.366 1461.9 977.256 1468.16 972.976C1474.54 968.621 1481.05 962.116 1483.98 952.773C1482.89 951.132 1481.04 950.083 1478.52 949.8C1475.91 949.507 1472.68 950.071 1469.31 951.631ZM1452.79 979.581C1452.79 979.581 1452.79 979.579 1452.79 979.577C1452.79 979.58 1452.79 979.581 1452.79 979.581ZM1451.3 974.055C1451.3 974.055 1451.3 974.057 1451.29 974.061C1451.3 974.057 1451.3 974.055 1451.3 974.055Z" fill="#FEC82F" stroke="#1E0E09" stroke-width="4"/>
</svg>
