<svg width="1819" height="965" viewBox="0 0 1819 965" fill="none" xmlns="http://www.w3.org/2000/svg">
<path d="M1618.05 302.261L1618.07 302.183L1618.09 302.104C1618.54 299.821 1618.48 297.664 1618.18 295.779C1631.67 302.729 1647.13 300.974 1653.82 299.73C1652.45 302.584 1650.1 305.543 1647.38 307.274L1647.37 307.282L1647.35 307.291C1643.79 309.639 1638.85 310.672 1633.85 310.441C1628.85 310.209 1624.06 308.724 1620.83 306.366L1620.72 306.285L1620.6 306.22C1619.52 305.637 1618.75 304.963 1618.33 304.297C1617.95 303.691 1617.82 303.05 1618.05 302.261Z" fill="#C92F74" stroke="#1E0E09" stroke-width="4"/>
<path d="M472.061 543.097L472.039 543.175L472.023 543.254C471.566 545.537 471.633 547.695 471.925 549.579C458.443 542.629 442.98 544.384 436.285 545.628C437.656 542.774 440.01 539.815 442.73 538.085L442.743 538.076L442.756 538.068C446.321 535.719 451.255 534.686 456.258 534.917C461.262 535.149 466.046 536.634 469.278 538.992L469.389 539.073L469.509 539.138C470.593 539.722 471.358 540.395 471.776 541.061C472.156 541.667 472.286 542.308 472.061 543.097Z" fill="#C92F74" stroke="#1E0E09" stroke-width="4"/>
<path d="M1460.87 317.952C1459.18 319.253 1455.55 321.604 1451.46 321.797C1451.08 321.213 1450.64 320.236 1450.32 318.855C1449.94 317.238 1449.75 315.19 1449.92 312.835C1450.25 308.14 1452.02 302.265 1456.63 296.239C1456.74 296.094 1457.65 294.987 1458.96 293.696C1459.8 292.876 1460.75 292.03 1461.72 291.315C1459.79 296.272 1458.06 304.928 1460.87 317.952ZM1462.48 289.559C1462.48 289.559 1462.48 289.562 1462.48 289.569C1462.48 289.562 1462.48 289.559 1462.48 289.559Z" fill="#FEC82F" stroke="#1E0E09" stroke-width="4"/>
<path d="M629.241 527.411C630.93 526.111 634.556 523.759 638.654 523.566C639.034 524.15 639.466 525.127 639.788 526.508C640.165 528.125 640.361 530.174 640.193 532.529C639.859 537.223 638.084 543.098 633.482 549.125C633.365 549.269 632.458 550.377 631.145 551.667C630.311 552.488 629.361 553.333 628.385 554.048C630.324 549.092 632.045 540.435 629.241 527.411ZM627.626 555.805C627.625 555.805 627.626 555.801 627.629 555.794C627.628 555.801 627.626 555.805 627.626 555.805Z" fill="#FEC82F" stroke="#1E0E09" stroke-width="4"/>
<path d="M1112.21 334.603C1109.39 333.996 1104.99 332.443 1100.65 329.914C1096.41 327.439 1092.38 324.127 1089.9 320.027C1092.4 319.264 1096.48 317.776 1100.54 315.235C1101.91 317.139 1104.47 320.392 1107.95 323.404C1111.4 326.392 1115.88 329.254 1121.1 330.209C1119.83 331.639 1118.04 333.417 1115.82 335.083C1115.07 334.992 1113.82 334.832 1112.21 334.603ZM1121.42 330.266C1121.42 330.266 1121.42 330.266 1121.42 330.265L1121.42 330.266Z" fill="#00A5BA" stroke="#1E0E09" stroke-width="4"/>
<path d="M977.907 510.755C980.728 511.363 985.128 512.916 989.467 515.445C993.714 517.919 997.735 521.231 1000.22 525.332C997.721 526.094 993.638 527.583 989.576 530.123C988.208 528.219 985.645 524.967 982.165 521.954C978.715 518.967 974.234 516.104 969.017 515.15C970.293 513.719 972.077 511.942 974.298 510.276C975.046 510.367 976.303 510.527 977.907 510.755ZM968.694 515.092C968.694 515.092 968.695 515.093 968.696 515.093L968.694 515.092Z" fill="#00A5BA" stroke="#1E0E09" stroke-width="4"/>
<path d="M119.396 279.943C120.857 277.532 123.173 274.333 126.095 272.244C128.793 272.046 141.818 271.852 149.386 285.601C148.551 286.767 145.629 289.59 136.606 289.499C136.605 289.498 136.604 289.496 136.603 289.495C136.588 289.476 136.574 289.453 136.563 289.429C135.881 287.911 134.445 285.522 131.632 283.513C128.886 281.551 124.951 280.04 119.396 279.943Z" fill="#53B4BA" stroke="#1E0E09" stroke-width="4"/>
<path d="M472.061 144.59L472.039 144.668L472.023 144.747C471.566 147.03 471.633 149.187 471.925 151.071C458.443 144.122 442.98 145.877 436.285 147.12C437.656 144.267 440.01 141.308 442.73 139.577L442.743 139.569L442.756 139.56C446.321 137.212 451.255 136.178 456.258 136.41C461.262 136.642 466.046 138.126 469.278 140.485L469.389 140.566L469.509 140.63C470.593 141.214 471.358 141.887 471.776 142.554C472.156 143.159 472.286 143.801 472.061 144.59Z" fill="#C92F74" stroke="#1E0E09" stroke-width="4"/>
<path d="M783.997 166.704L783.995 166.692L783.993 166.681C782.642 159.928 787.391 153.298 794.129 152.805L794.137 152.805C797.03 152.582 799.473 153.563 801.336 155.018C801.32 155.043 801.302 155.068 801.281 155.095C801.193 155.206 801.091 155.297 800.999 155.356C798.494 156.97 797.043 159.861 796.338 163.025C795.624 166.232 795.603 170.012 796.207 173.85C797.382 181.309 801.007 189.475 807.269 194.424C803.055 194.328 799.864 192.944 798.931 192.491C788.552 181.281 785.083 172.496 783.997 166.704ZM801.442 154.799C801.442 154.799 801.442 154.8 801.442 154.802C801.442 154.8 801.442 154.799 801.442 154.799Z" fill="#00A5BA" stroke="#1E0E09" stroke-width="4"/>
<path d="M629.241 128.899C630.93 127.599 634.556 125.247 638.654 125.054C639.034 125.639 639.466 126.615 639.788 127.996C640.165 129.613 640.361 131.662 640.193 134.017C639.859 138.711 638.084 144.586 633.482 150.613C633.365 150.757 632.458 151.865 631.145 153.155C630.311 153.976 629.361 154.822 628.385 155.536C630.324 150.58 632.045 141.924 629.241 128.899ZM627.626 157.293C627.625 157.293 627.626 157.289 627.629 157.282C627.628 157.289 627.626 157.293 627.626 157.293Z" fill="#FEC82F" stroke="#1E0E09" stroke-width="4"/>
<path d="M1586.17 6.76551C1586.17 6.76667 1586.17 6.76783 1586.17 6.769C1586.17 6.76766 1586.17 6.76671 1586.17 6.76607C1586.17 6.76584 1586.17 6.76566 1586.17 6.76551ZM1586.11 6.95638C1584.77 11.3863 1582.61 23.0732 1593.8 30.9519C1592.58 30.946 1591.36 30.8919 1590.23 30.7631C1589.46 30.5581 1585.15 29.297 1581.56 26.1889C1579.75 24.6171 1578.16 22.614 1577.28 20.0763C1576.4 17.5713 1576.16 14.4082 1577.22 10.4044C1577.52 9.94397 1578.37 8.75319 1579.81 7.84217C1581.22 6.94508 1583.26 6.26683 1586.11 6.95638ZM1590.19 30.7586C1590.19 30.7586 1590.19 30.7586 1590.19 30.7587L1590.19 30.7586ZM1593.99 31.1859C1593.99 31.1876 1593.99 31.1884 1593.99 31.1884C1593.99 31.1883 1593.99 31.1875 1593.99 31.1859Z" fill="#B7B82C" stroke="#1E0E09" stroke-width="4"/>
<path d="M1112.21 112.247C1109.39 112.855 1104.99 114.408 1100.65 116.937C1096.41 119.411 1092.38 122.723 1089.9 126.824C1092.4 127.586 1096.48 129.075 1100.54 131.616C1101.91 129.711 1104.47 126.459 1107.95 123.446C1111.4 120.459 1115.88 117.596 1121.1 116.642C1119.83 115.211 1118.04 113.434 1115.82 111.768C1115.07 111.859 1113.82 112.019 1112.21 112.247ZM1121.42 116.585C1121.42 116.585 1121.42 116.585 1121.42 116.585L1121.42 116.585Z" fill="#00A5BA" stroke="#1E0E09" stroke-width="4"/>
<path d="M72.641 539.239C71.1799 541.651 68.8636 544.849 65.9421 546.938C63.2445 547.136 50.2194 547.33 42.6512 533.581C43.4861 532.415 46.4077 529.592 55.4313 529.683C55.4323 529.685 55.4332 529.686 55.4341 529.687C55.4491 529.706 55.4633 529.729 55.4743 529.753C56.1565 531.271 57.5918 533.66 60.4048 535.669C63.1516 537.632 67.0865 539.142 72.641 539.239Z" fill="#53B4BA" stroke="#1E0E09" stroke-width="4"/>
<path d="M315.358 925.397L315.336 925.475L315.32 925.554C314.863 927.837 314.93 929.994 315.222 931.879C301.74 924.929 286.277 926.684 279.582 927.928C280.953 925.074 283.307 922.115 286.027 920.384L286.04 920.376L286.053 920.367C289.618 918.019 294.552 916.986 299.555 917.217C304.558 917.449 309.343 918.934 312.575 921.292L312.686 921.373L312.806 921.438C313.89 922.021 314.655 922.695 315.073 923.361C315.453 923.967 315.583 924.608 315.358 925.397Z" fill="#C92F74" stroke="#1E0E09" stroke-width="4"/>
<path d="M1461.35 684.561L1461.37 684.483L1461.38 684.403C1461.84 682.121 1461.77 679.963 1461.48 678.079C1474.96 685.028 1490.43 683.273 1497.12 682.03C1495.75 684.884 1493.4 687.843 1490.68 689.573L1490.66 689.582L1490.65 689.59C1487.08 691.938 1482.15 692.972 1477.15 692.74C1472.14 692.509 1467.36 691.024 1464.13 688.665L1464.02 688.585L1463.9 688.52C1462.81 687.936 1462.05 687.263 1461.63 686.597C1461.25 685.991 1461.12 685.349 1461.35 684.561Z" fill="#C92F74" stroke="#1E0E09" stroke-width="4"/>
<path d="M472.538 909.706C474.227 908.406 477.853 906.054 481.951 905.861C482.331 906.446 482.763 907.422 483.085 908.803C483.462 910.42 483.658 912.469 483.49 914.824C483.156 919.518 481.381 925.393 476.779 931.42C476.662 931.564 475.754 932.672 474.442 933.962C473.608 934.783 472.658 935.629 471.682 936.344C473.621 931.387 475.342 922.731 472.538 909.706ZM470.923 938.1C470.922 938.1 470.923 938.097 470.925 938.089C470.925 938.097 470.923 938.1 470.923 938.1Z" fill="#FEC82F" stroke="#1E0E09" stroke-width="4"/>
<path d="M1304.16 700.247C1302.47 701.547 1298.85 703.899 1294.75 704.092C1294.37 703.507 1293.94 702.531 1293.62 701.15C1293.24 699.533 1293.04 697.484 1293.21 695.129C1293.54 690.435 1295.32 684.56 1299.92 678.533C1300.04 678.389 1300.95 677.281 1302.26 675.991C1303.09 675.17 1304.04 674.324 1305.02 673.609C1303.08 678.566 1301.36 687.222 1304.16 700.247ZM1305.78 671.853C1305.78 671.853 1305.78 671.857 1305.78 671.864C1305.78 671.857 1305.78 671.853 1305.78 671.853Z" fill="#FEC82F" stroke="#1E0E09" stroke-width="4"/>
<path d="M821.194 893.054C824.015 893.662 828.415 895.215 832.755 897.744C837.001 900.218 841.022 903.53 843.503 907.631C841.008 908.393 836.925 909.882 832.863 912.423C831.496 910.518 828.932 907.266 825.452 904.253C822.002 901.266 817.522 898.404 812.304 897.449C813.58 896.018 815.364 894.241 817.585 892.575C818.333 892.666 819.591 892.826 821.194 893.054ZM811.981 897.392C811.981 897.392 811.982 897.392 811.983 897.393L811.981 897.392Z" fill="#00A5BA" stroke="#1E0E09" stroke-width="4"/>
<path d="M955.5 716.903C952.678 716.295 948.278 714.742 943.939 712.214C939.692 709.739 935.671 706.427 933.19 702.326C935.685 701.564 939.769 700.075 943.83 697.535C945.198 699.439 947.761 702.692 951.241 705.704C954.692 708.691 959.172 711.554 964.39 712.509C963.113 713.939 961.329 715.716 959.109 717.383C958.36 717.291 957.103 717.132 955.5 716.903ZM964.712 712.566C964.712 712.566 964.711 712.566 964.71 712.565L964.712 712.566Z" fill="#00A5BA" stroke="#1E0E09" stroke-width="4"/>
<path d="M5.27701 688.419C6.73811 686.008 9.05436 682.809 11.9759 680.72C14.6735 680.523 27.6986 680.329 35.2668 694.078C34.4319 695.244 31.5102 698.067 22.4866 697.975C22.4857 697.974 22.4848 697.973 22.4839 697.972C22.4688 697.953 22.4547 697.93 22.4436 697.905C21.7615 696.388 20.3262 693.999 17.5132 691.989C14.7664 690.027 10.8314 688.517 5.27701 688.419Z" fill="#53B4BA" stroke="#1E0E09" stroke-width="4"/>
<path d="M1814.01 947.715C1812.55 950.126 1810.23 953.325 1807.31 955.414C1804.61 955.611 1791.59 955.806 1784.02 942.056C1784.85 940.891 1787.77 938.068 1796.8 938.159C1796.8 938.16 1796.8 938.161 1796.8 938.162C1796.82 938.181 1796.83 938.204 1796.84 938.229C1797.52 939.747 1798.96 942.135 1801.77 944.145C1804.52 946.107 1808.45 947.617 1814.01 947.715Z" fill="#53B4BA" stroke="#1E0E09" stroke-width="4"/>
</svg>
