<svg width="1842" height="1054" viewBox="0 0 1842 1054" fill="none" xmlns="http://www.w3.org/2000/svg">
<path d="M1295.73 251.902C1306.1 263.103 1309.57 271.884 1310.66 277.676C1310.46 277.693 1310.16 277.699 1309.71 277.656C1307.76 277.467 1304.78 276.542 1301.22 275.284C1300.45 275.012 1299.66 274.724 1298.85 274.43C1298.79 273.155 1298.66 271.852 1298.45 270.543C1297.28 263.084 1293.65 254.917 1287.39 249.968C1291.6 250.064 1294.8 251.448 1295.73 251.902ZM1289.17 275.234C1291 275.831 1292.91 276.52 1294.85 277.227C1294.78 278.396 1294.64 279.495 1294.42 280.498C1293.83 283.123 1292.78 284.824 1291.54 285.645C1291.51 285.651 1291.46 285.663 1291.36 285.669C1291.16 285.681 1290.88 285.659 1290.58 285.589C1290.28 285.52 1290 285.415 1289.79 285.302C1289.59 285.199 1289.53 285.127 1289.52 285.128C1289.52 285.128 1289.53 285.131 1289.53 285.137C1287.83 282.873 1285.33 279.347 1283.71 276.393C1283.07 275.235 1282.64 274.286 1282.42 273.591C1283.01 273.639 1283.73 273.752 1284.57 273.935C1285.92 274.23 1287.48 274.682 1289.17 275.234ZM1282.24 272.769C1282.24 272.769 1282.24 272.771 1282.24 272.774C1282.24 272.77 1282.24 272.769 1282.24 272.769Z" fill="#00A5BA" stroke="#1E0E09" stroke-width="4"/>
<path d="M1122.33 541.37L1122.32 541.359L1122.32 541.348C1122.02 538.606 1123.21 536.169 1125.38 534.6C1127.05 533.52 1128.54 532.964 1129.68 532.679C1129.17 535.765 1129.23 539.298 1129.71 542.638C1130.21 546.185 1131.23 549.686 1132.69 552.322C1133.56 553.96 1134.6 555.284 1135.68 556.345C1135.68 556.342 1135.68 556.341 1135.68 556.341C1135.68 556.341 1135.73 556.413 1135.78 556.608C1135.83 556.821 1135.84 557.077 1135.8 557.308C1135.79 557.356 1135.78 557.398 1135.77 557.434C1130.73 557.311 1127.65 554.97 1125.65 551.915C1123.54 548.674 1122.65 544.579 1122.33 541.37Z" fill="#F07E2D" stroke="#1E0E09" stroke-width="4"/>
<path d="M991.792 289.986L991.793 289.997L991.794 290.008C992.099 292.75 990.909 295.187 988.734 296.757C987.069 297.837 985.581 298.393 984.434 298.678C984.947 295.591 984.891 292.058 984.412 288.718C983.903 285.171 982.892 281.67 981.432 279.035C980.556 277.396 979.513 276.073 978.437 275.012C978.439 275.014 978.441 275.016 978.441 275.015C978.441 275.015 978.383 274.943 978.338 274.748C978.289 274.535 978.282 274.28 978.322 274.048C978.33 274 978.34 273.959 978.35 273.922C983.386 274.045 986.471 276.386 988.463 279.441C990.576 282.682 991.471 286.778 991.792 289.986Z" fill="#F07E2D" stroke="#1E0E09" stroke-width="4"/>
<path d="M1802.83 386.41L1802.83 386.427L1802.82 386.445C1801.42 390.306 1798.39 393.684 1795.61 395.424L1795.56 395.452L1795.52 395.482C1793.8 396.682 1792.21 396.969 1790.83 396.807C1798.25 390.392 1797.39 381.252 1796.68 377.604C1796.97 377.575 1797.3 377.569 1797.73 377.568C1801.92 378.064 1804.35 382.452 1802.83 386.41Z" fill="#B45D84" stroke="#1E0E09" stroke-width="4"/>
<path d="M985.52 62.4375L985.526 62.4203L985.532 62.403C986.937 58.5419 989.962 55.1633 992.746 53.4232L992.79 53.3956L992.833 53.3657C994.547 52.1656 996.14 51.8791 997.518 52.0407C990.1 58.4554 990.965 67.5957 991.677 71.2441C991.385 71.2726 991.048 71.2785 990.62 71.2792C986.436 70.7837 983.997 66.396 985.52 62.4375Z" fill="#B45D84" stroke="#1E0E09" stroke-width="4"/>
<path d="M126.46 418.278L126.486 418.286L126.512 418.292C132.633 419.866 137.567 425.408 140.259 429.253C141.378 430.873 141.064 433.033 139.481 434.381C138.975 434.759 138.418 435.142 137.902 435.484C131.841 425.494 123.809 423.657 120.138 423.386C120.259 422.557 120.688 421.587 121.307 420.472C122.419 418.535 124.606 417.749 126.46 418.278ZM119.743 423.358C119.743 423.358 119.744 423.358 119.748 423.359C119.744 423.359 119.743 423.358 119.743 423.358Z" fill="#00A5BA" stroke="#1E0E09" stroke-width="4"/>
<path d="M1681.09 561.986C1681.2 561.914 1681.27 561.895 1681.28 561.891C1686.01 561.859 1690.88 560.336 1695.03 558.539C1698.85 556.886 1702.17 554.947 1704.38 553.541C1704.15 557.387 1702.06 561.022 1698.45 564.38C1694.62 567.939 1689.25 571.031 1683.16 573.515C1682.83 569.502 1681.55 565.9 1680.29 563.19C1680.29 563.172 1680.29 563.143 1680.3 563.102C1680.33 562.951 1680.42 562.735 1680.58 562.503C1680.74 562.273 1680.93 562.094 1681.09 561.986ZM1680.29 563.215C1680.29 563.215 1680.29 563.214 1680.29 563.211C1680.29 563.214 1680.29 563.215 1680.29 563.215Z" fill="#00A5BA" stroke="#1E0E09" stroke-width="4"/>
<path d="M455.676 238.936C455.568 239.007 455.505 239.027 455.488 239.031C450.758 239.063 445.885 240.586 441.739 242.383C437.924 244.036 434.602 245.975 432.388 247.381C432.619 243.534 434.71 239.9 438.321 236.542C442.147 232.983 447.523 229.891 453.605 227.407C453.94 231.42 455.215 235.022 456.479 237.732C456.478 237.75 456.475 237.779 456.466 237.82C456.435 237.97 456.348 238.187 456.187 238.419C456.027 238.648 455.84 238.827 455.676 238.936ZM456.479 237.707C456.479 237.707 456.479 237.708 456.479 237.711C456.479 237.708 456.479 237.707 456.479 237.707Z" fill="#00A5BA" stroke="#1E0E09" stroke-width="4"/>
<path d="M1492.36 500.111C1495.43 502.708 1497.82 506.667 1499.04 510.786C1500.27 514.935 1500.21 518.876 1498.89 521.561C1497.74 521.687 1495.78 521.948 1493.79 522.435C1493.78 522.434 1493.77 522.433 1493.75 522.427C1493.69 522.413 1493.62 522.379 1493.54 522.318C1493.47 522.258 1493.42 522.194 1493.39 522.147C1493.38 522.129 1493.38 522.118 1493.38 522.112C1493.41 518.251 1492.65 511.784 1488.09 505.694C1488.08 505.664 1488.06 505.584 1488.06 505.437C1488.05 505.156 1488.1 504.776 1488.22 504.35C1488.35 503.929 1488.52 503.534 1488.72 503.226C1488.81 503.073 1488.9 502.959 1488.97 502.878C1489.05 502.801 1489.09 502.774 1489.09 502.774C1489.09 502.774 1489.09 502.774 1489.09 502.774C1490.47 501.919 1491.58 500.908 1492.36 500.111ZM1493.37 522.107C1493.37 522.107 1493.37 522.107 1493.37 522.108L1493.37 522.107ZM1493.79 522.435C1493.79 522.435 1493.79 522.435 1493.79 522.435L1493.79 522.435ZM1492.45 500.012C1492.45 500.011 1492.46 500.01 1492.46 500.01C1492.46 500.01 1492.46 500.011 1492.45 500.012Z" fill="#9F1074" stroke="#1E0E09" stroke-width="4"/>
<path d="M621.762 331.245C618.693 328.649 616.301 324.689 615.079 320.571C613.847 316.422 613.904 312.48 615.231 309.795C616.377 309.67 618.335 309.408 620.33 308.922C620.337 308.922 620.351 308.924 620.373 308.93C620.426 308.944 620.501 308.978 620.577 309.038C620.653 309.098 620.703 309.163 620.728 309.21C620.737 309.227 620.742 309.239 620.744 309.245C620.705 313.105 621.468 319.573 626.03 325.662C626.039 325.693 626.057 325.772 626.061 325.92C626.07 326.2 626.02 326.581 625.895 327.006C625.772 327.427 625.594 327.823 625.402 328.131C625.307 328.283 625.218 328.398 625.144 328.478C625.073 328.556 625.033 328.583 625.033 328.583C625.033 328.583 625.033 328.583 625.034 328.582C623.654 329.438 622.537 330.449 621.762 331.245ZM620.745 309.25C620.745 309.25 620.745 309.249 620.745 309.248L620.745 309.25ZM620.326 308.922C620.326 308.922 620.326 308.922 620.327 308.922L620.326 308.922ZM621.666 331.345C621.665 331.346 621.664 331.346 621.664 331.346C621.663 331.346 621.664 331.345 621.666 331.345Z" fill="#9F1074" stroke="#1E0E09" stroke-width="4"/>
<path d="M1598.17 398.275C1598.17 398.276 1598.17 398.277 1598.17 398.278C1598.17 398.277 1598.17 398.276 1598.17 398.275C1598.17 398.275 1598.17 398.275 1598.17 398.275ZM1598.11 398.465C1596.77 402.895 1594.61 414.582 1605.8 422.461C1604.58 422.455 1603.36 422.401 1602.23 422.272C1601.46 422.067 1597.15 420.806 1593.56 417.698C1591.75 416.126 1590.16 414.123 1589.28 411.585C1588.4 409.08 1588.16 405.917 1589.22 401.913C1589.52 401.453 1590.37 400.262 1591.81 399.351C1593.22 398.454 1595.26 397.776 1598.11 398.465ZM1602.19 422.268C1602.19 422.268 1602.19 422.268 1602.19 422.268L1602.19 422.268ZM1605.99 422.695C1605.99 422.697 1605.99 422.697 1605.99 422.697C1605.99 422.697 1605.99 422.697 1605.99 422.695Z" fill="#B7B82C" stroke="#1E0E09" stroke-width="4"/>
<path d="M515.936 433.086C515.936 433.085 515.937 433.083 515.937 433.082C515.937 433.084 515.936 433.085 515.936 433.085C515.936 433.085 515.936 433.086 515.936 433.086ZM515.995 432.895C517.343 428.465 519.493 416.778 508.312 408.899C509.525 408.905 510.748 408.959 511.877 409.088C512.643 409.293 516.954 410.554 520.546 413.662C522.362 415.234 523.947 417.237 524.832 419.775C525.705 422.28 525.946 425.443 524.885 429.447C524.59 429.907 523.734 431.098 522.3 432.009C520.888 432.906 518.847 433.584 515.995 432.895ZM511.916 409.093C511.916 409.093 511.916 409.093 511.915 409.093L511.916 409.093ZM508.117 408.665C508.117 408.664 508.117 408.663 508.117 408.663C508.117 408.663 508.117 408.664 508.117 408.665Z" fill="#B7B82C" stroke="#1E0E09" stroke-width="4"/>
<path d="M1225.26 468.209C1223.86 468.689 1222.65 468.769 1221.76 468.721C1222.81 457.652 1217.83 450.017 1215.06 446.697C1219.14 444.768 1222.38 446.221 1223.19 446.658C1226.8 450.519 1227.91 454.208 1227.89 457.687C1227.86 461.246 1226.65 464.731 1225.26 468.209ZM1214.91 446.515C1214.91 446.516 1214.91 446.517 1214.91 446.518C1214.91 446.517 1214.91 446.515 1214.91 446.514C1214.91 446.514 1214.91 446.515 1214.91 446.515Z" fill="#9F1074" stroke="#1E0E09" stroke-width="4"/>
<path d="M24.1493 363.153C22.749 362.673 21.5357 362.594 20.6476 362.642C21.6925 373.71 16.7144 381.345 13.9442 384.665C18.0298 386.595 21.2605 385.141 22.074 384.705C25.6816 380.844 26.794 377.155 26.7708 373.675C26.7471 370.116 25.5392 366.632 24.1493 363.153ZM13.791 384.847C13.7918 384.846 13.7926 384.845 13.7934 384.844C13.7922 384.846 13.7911 384.847 13.7899 384.849C13.7902 384.848 13.7906 384.848 13.791 384.847Z" fill="#9F1074" stroke="#1E0E09" stroke-width="4"/>
<path d="M1383.26 552.57C1384.24 553.049 1393.35 557.831 1392.63 571.093C1391.98 570.562 1391.32 570.031 1390.69 569.518C1388.9 568.069 1387.28 566.76 1386.45 565.985C1385.66 564.33 1381.8 556.641 1374.95 552.493C1377.15 551.861 1380.07 551.536 1383.26 552.57ZM1374.3 552.112C1374.3 552.112 1374.3 552.113 1374.31 552.115C1374.3 552.113 1374.3 552.112 1374.3 552.112Z" fill="#ED6D3A" stroke="#1E0E09" stroke-width="4"/>
<path d="M742.097 264.268C741.115 263.789 732.01 259.007 732.732 245.745C733.382 246.276 734.038 246.807 734.671 247.32C736.459 248.769 738.075 250.078 738.914 250.853C739.695 252.507 743.561 260.196 750.407 264.345C748.208 264.977 745.285 265.302 742.097 264.268ZM751.057 264.726C751.057 264.726 751.056 264.725 751.054 264.722C751.056 264.724 751.057 264.726 751.057 264.726Z" fill="#ED6D3A" stroke="#1E0E09" stroke-width="4"/>
<path d="M213.414 524.584L213.395 524.613L213.378 524.642C211.943 527.034 208.256 530.885 200.75 533.322C200.019 532.937 198.805 532.206 197.688 531.129C196.577 530.058 195.646 528.729 195.282 527.127C199.126 527.203 206.397 525.994 214.095 517.927C215.021 520.039 214.759 522.505 213.414 524.584Z" fill="#BCCF00" stroke="#1E0E09" stroke-width="4"/>
<path d="M905.511 142.864L905.512 142.853L905.513 142.842C905.818 140.1 904.628 137.663 902.453 136.094C900.788 135.014 899.3 134.458 898.153 134.173C898.666 137.259 898.61 140.792 898.131 144.132C897.622 147.68 896.611 151.181 895.151 153.816C894.274 155.455 893.232 156.778 892.156 157.839C892.158 157.836 892.159 157.835 892.16 157.835C892.16 157.835 892.102 157.907 892.057 158.103C892.007 158.316 892 158.571 892.041 158.802C892.049 158.85 892.059 158.892 892.068 158.928C897.105 158.805 900.19 156.464 902.182 153.409C904.295 150.168 905.19 146.073 905.511 142.864Z" fill="#F07E2D" stroke="#1E0E09" stroke-width="4"/>
<path d="M311.277 46.4395L311.284 46.4223L311.29 46.405C312.694 42.5439 315.72 39.1652 318.504 37.4251L318.548 37.3975L318.591 37.3676C320.305 36.1675 321.898 35.881 323.276 36.0427C315.858 42.4574 316.723 51.5977 317.434 55.2461C317.143 55.2745 316.806 55.2805 316.377 55.2812C312.193 54.7857 309.755 50.398 311.277 46.4395Z" fill="#B45D84" stroke="#1E0E09" stroke-width="4"/>
<path d="M1802.83 21.1887L1802.83 21.2059L1802.82 21.2232C1801.42 25.0843 1798.39 28.463 1795.61 30.203L1795.56 30.2307L1795.52 30.2606C1793.8 31.4606 1792.21 31.7471 1790.83 31.5855C1798.25 25.1708 1797.39 16.0305 1796.68 12.3821C1796.97 12.3537 1797.3 12.3477 1797.73 12.347C1801.92 12.8425 1804.35 17.2302 1802.83 21.1887Z" fill="#B45D84" stroke="#1E0E09" stroke-width="4"/>
<path d="M126.46 19.7728L126.486 19.7801L126.512 19.7868C132.633 21.3607 137.567 26.9031 140.259 30.7477C141.378 32.3679 141.064 34.528 139.481 35.8755C138.975 36.2534 138.418 36.6366 137.902 36.9787C131.841 26.9886 123.809 25.1518 120.138 24.8805C120.259 24.0518 120.688 23.0816 121.307 21.967C122.419 20.0301 124.606 19.2431 126.46 19.7728ZM119.743 24.8525C119.743 24.8523 119.744 24.8528 119.748 24.8541C119.744 24.8533 119.743 24.8526 119.743 24.8525Z" fill="#00A5BA" stroke="#1E0E09" stroke-width="4"/>
<path d="M1658.43 193.914C1658.54 193.843 1658.6 193.823 1658.62 193.819C1663.35 193.787 1668.22 192.264 1672.37 190.467C1676.19 188.814 1679.51 186.875 1681.72 185.469C1681.49 189.316 1679.4 192.95 1675.79 196.309C1671.96 199.867 1666.59 202.959 1660.5 205.443C1660.17 201.43 1658.89 197.828 1657.63 195.118C1657.63 195.1 1657.63 195.071 1657.64 195.03C1657.67 194.88 1657.76 194.663 1657.92 194.431C1658.08 194.202 1658.27 194.023 1658.43 193.914ZM1657.63 195.143C1657.63 195.143 1657.63 195.142 1657.63 195.14C1657.63 195.142 1657.63 195.143 1657.63 195.143Z" fill="#00A5BA" stroke="#1E0E09" stroke-width="4"/>
<path d="M1492.36 101.606C1495.43 104.203 1497.82 108.162 1499.04 112.281C1500.27 116.43 1500.21 120.371 1498.89 123.056C1497.74 123.182 1495.78 123.443 1493.79 123.93C1493.78 123.929 1493.77 123.928 1493.75 123.922C1493.69 123.908 1493.62 123.874 1493.54 123.814C1493.47 123.753 1493.42 123.689 1493.39 123.642C1493.38 123.624 1493.38 123.613 1493.38 123.607C1493.41 119.746 1492.65 113.279 1488.09 107.19C1488.08 107.159 1488.06 107.079 1488.06 106.932C1488.05 106.651 1488.1 106.271 1488.22 105.845C1488.35 105.424 1488.52 105.029 1488.72 104.721C1488.81 104.569 1488.9 104.454 1488.97 104.373C1489.05 104.296 1489.09 104.269 1489.09 104.269C1489.09 104.269 1489.09 104.269 1489.09 104.269C1490.47 103.414 1491.58 102.403 1492.36 101.606ZM1493.37 123.602C1493.37 123.602 1493.37 123.602 1493.37 123.603L1493.37 123.602ZM1493.79 123.93C1493.79 123.93 1493.79 123.93 1493.79 123.93L1493.79 123.93ZM1492.45 101.507C1492.45 101.506 1492.46 101.505 1492.46 101.506C1492.46 101.506 1492.46 101.506 1492.45 101.507Z" fill="#9F1074" stroke="#1E0E09" stroke-width="4"/>
<path d="M515.936 34.5756C515.936 34.5744 515.937 34.5732 515.937 34.5721C515.937 34.5734 515.936 34.5744 515.936 34.575C515.936 34.5752 515.936 34.5754 515.936 34.5756ZM515.995 34.3847C517.343 29.9548 519.493 18.2678 508.312 10.3892C509.525 10.3951 510.748 10.4491 511.877 10.5779C512.643 10.783 516.954 12.044 520.546 15.1522C522.362 16.724 523.947 18.727 524.832 21.2648C525.705 23.7698 525.946 26.9329 524.885 30.9367C524.59 31.3971 523.734 32.5879 522.3 33.4989C520.888 34.396 518.847 35.0742 515.995 34.3847ZM511.916 10.5825C511.916 10.5825 511.916 10.5824 511.915 10.5824L511.916 10.5825ZM508.117 10.1552C508.117 10.1535 508.117 10.1527 508.117 10.1527C508.117 10.1527 508.117 10.1536 508.117 10.1552Z" fill="#B7B82C" stroke="#1E0E09" stroke-width="4"/>
<path d="M1225.26 69.6972C1223.86 70.177 1222.65 70.2566 1221.76 70.2087C1222.81 59.1403 1217.83 51.5051 1215.06 48.1851C1219.14 46.2557 1222.38 47.7091 1223.19 48.1457C1226.8 52.0068 1227.91 55.6958 1227.89 59.1752C1227.86 62.734 1226.65 66.2188 1225.26 69.6972ZM1214.91 48.0031C1214.91 48.004 1214.91 48.0049 1214.91 48.006C1214.91 48.0046 1214.91 48.0032 1214.91 48.0018C1214.91 48.0023 1214.91 48.0027 1214.91 48.0031Z" fill="#9F1074" stroke="#1E0E09" stroke-width="4"/>
<path d="M1372.02 168.58C1373 169.059 1382.1 173.841 1381.38 187.103C1380.73 186.572 1380.08 186.041 1379.44 185.528C1377.66 184.079 1376.04 182.77 1375.2 181.996C1374.42 180.341 1370.55 172.652 1363.71 168.503C1365.91 167.871 1368.83 167.547 1372.02 168.58ZM1363.06 168.122C1363.06 168.122 1363.06 168.123 1363.06 168.126C1363.06 168.124 1363.06 168.122 1363.06 168.122Z" fill="#ED6D3A" stroke="#1E0E09" stroke-width="4"/>
<path d="M213.414 126.077L213.395 126.105L213.378 126.134C211.943 128.527 208.256 132.377 200.75 134.815C200.019 134.43 198.805 133.699 197.688 132.621C196.577 131.55 195.646 130.221 195.282 128.62C199.126 128.695 206.397 127.487 214.095 119.42C215.021 121.532 214.759 123.997 213.414 126.077Z" fill="#BCCF00" stroke="#1E0E09" stroke-width="4"/>
<path d="M661.676 961.756C651.305 950.554 647.834 941.773 646.745 935.982C646.941 935.964 647.245 935.958 647.692 936.002C649.645 936.19 652.629 937.116 656.184 938.374C656.953 938.646 657.747 938.933 658.555 939.227C658.613 940.503 658.747 941.805 658.953 943.115C660.127 950.574 663.752 958.741 670.015 963.69C665.8 963.594 662.609 962.209 661.676 961.756ZM668.238 938.424C666.408 937.826 664.494 937.137 662.558 936.431C662.62 935.262 662.765 934.163 662.988 933.16C663.573 930.535 664.629 928.833 665.867 928.013C665.892 928.007 665.948 927.995 666.045 927.989C666.248 927.977 666.521 927.998 666.826 928.068C667.129 928.138 667.407 928.243 667.618 928.356C667.811 928.459 667.879 928.531 667.88 928.53C667.88 928.53 667.878 928.527 667.874 928.521C669.574 930.784 672.077 934.311 673.696 937.265C674.33 938.422 674.76 939.372 674.984 940.066C674.39 940.018 673.673 939.906 672.834 939.722C671.481 939.427 669.928 938.975 668.238 938.424ZM675.16 940.889C675.16 940.889 675.16 940.887 675.16 940.884C675.16 940.887 675.16 940.889 675.16 940.889Z" fill="#00A5BA" stroke="#1E0E09" stroke-width="4"/>
<path d="M835.081 672.288L835.082 672.299L835.084 672.309C835.388 675.051 834.199 677.488 832.024 679.058C830.359 680.138 828.87 680.694 827.723 680.979C828.236 677.892 828.18 674.359 827.701 671.02C827.193 667.472 826.182 663.971 824.721 661.336C823.845 659.697 822.802 658.374 821.726 657.313C821.729 657.315 821.73 657.317 821.73 657.317C821.731 657.316 821.673 657.244 821.627 657.049C821.578 656.836 821.571 656.581 821.611 656.349C821.62 656.302 821.629 656.26 821.639 656.224C826.676 656.346 829.761 658.688 831.752 661.742C833.866 664.983 834.76 669.079 835.081 672.288Z" fill="#F07E2D" stroke="#1E0E09" stroke-width="4"/>
<path d="M965.612 923.673L965.611 923.662L965.61 923.651C965.305 920.909 966.495 918.472 968.67 916.902C970.335 915.822 971.823 915.266 972.97 914.981C972.457 918.068 972.513 921.601 972.992 924.941C973.501 928.488 974.512 931.989 975.973 934.624C976.849 936.263 977.891 937.586 978.967 938.647C978.965 938.645 978.964 938.643 978.963 938.644C978.963 938.644 979.021 938.716 979.066 938.911C979.116 939.124 979.123 939.379 979.082 939.611C979.074 939.658 979.064 939.7 979.055 939.737C974.018 939.614 970.933 937.273 968.941 934.218C966.828 930.977 965.933 926.881 965.612 923.673Z" fill="#F07E2D" stroke="#1E0E09" stroke-width="4"/>
<path d="M12.2077 808.942L12.2356 808.948L12.2636 808.953C18.6935 810.14 23.5203 815.662 26.1021 819.578C27.0906 821.104 26.7392 823.656 24.5887 825.517C23.9415 826.021 23.2299 826.535 22.5916 826.982C16.876 816.799 8.44673 815.37 4.46789 815.336C4.70048 814.379 5.27142 813.265 6.01305 812.04C7.55596 809.562 10.2438 808.522 12.2077 808.942ZM3.95758 815.337C3.95754 815.336 3.96043 815.337 3.96625 815.338C3.96051 815.338 3.95762 815.337 3.95758 815.337Z" fill="#00A5BA" stroke="#1E0E09" stroke-width="4"/>
<path d="M1830.94 795.38L1830.92 795.372L1830.89 795.366C1824.77 793.792 1819.84 788.249 1817.15 784.405C1816.03 782.784 1816.34 780.624 1817.92 779.277C1818.43 778.899 1818.99 778.516 1819.5 778.174C1825.56 788.164 1833.6 790.001 1837.27 790.272C1837.15 791.101 1836.72 792.071 1836.1 793.185C1834.99 795.122 1832.8 795.909 1830.94 795.38ZM1837.66 790.3C1837.66 790.3 1837.66 790.3 1837.66 790.298C1837.66 790.299 1837.66 790.3 1837.66 790.3Z" fill="#00A5BA" stroke="#1E0E09" stroke-width="4"/>
<path d="M276.31 651.672C276.202 651.743 276.139 651.762 276.123 651.767C271.393 651.799 266.52 653.322 262.374 655.119C258.559 656.772 255.236 658.711 253.022 660.117C253.253 656.27 255.345 652.636 258.955 649.277C262.781 645.719 268.157 642.627 274.24 640.143C274.575 644.156 275.849 647.758 277.114 650.467C277.113 650.486 277.109 650.515 277.101 650.556C277.069 650.706 276.982 650.923 276.822 651.154C276.662 651.384 276.475 651.563 276.31 651.672ZM277.114 650.443C277.114 650.443 277.114 650.444 277.114 650.446C277.114 650.444 277.114 650.443 277.114 650.443Z" fill="#00A5BA" stroke="#1E0E09" stroke-width="4"/>
<path d="M1501.73 974.722C1501.84 974.65 1501.9 974.631 1501.92 974.627C1506.65 974.595 1511.52 973.072 1515.67 971.275C1519.48 969.622 1522.8 967.683 1525.02 966.277C1524.79 970.123 1522.69 973.757 1519.08 977.116C1515.26 980.675 1509.88 983.767 1503.8 986.25C1503.46 982.238 1502.19 978.636 1500.93 975.926C1500.93 975.908 1500.93 975.879 1500.94 975.838C1500.97 975.687 1501.06 975.471 1501.22 975.239C1501.38 975.009 1501.56 974.83 1501.73 974.722ZM1500.93 975.951C1500.93 975.951 1500.93 975.95 1500.93 975.947C1500.93 975.95 1500.93 975.951 1500.93 975.951Z" fill="#00A5BA" stroke="#1E0E09" stroke-width="4"/>
<path d="M465.049 713.547C461.98 710.95 459.588 706.991 458.366 702.873C457.135 698.724 457.192 694.782 458.518 692.097C459.664 691.972 461.622 691.71 463.617 691.224C463.624 691.224 463.638 691.225 463.66 691.231C463.713 691.246 463.788 691.279 463.864 691.34C463.94 691.4 463.99 691.465 464.015 691.511C464.024 691.529 464.029 691.541 464.031 691.547C463.992 695.407 464.755 701.875 469.317 707.964C469.326 707.995 469.344 708.074 469.349 708.222C469.357 708.502 469.307 708.883 469.182 709.308C469.059 709.729 468.881 710.124 468.689 710.433C468.594 710.585 468.505 710.7 468.432 710.78C468.36 710.858 468.32 710.884 468.32 710.885C468.32 710.885 468.32 710.884 468.321 710.884C466.941 711.74 465.824 712.75 465.049 713.547ZM464.032 691.551C464.032 691.551 464.032 691.551 464.032 691.55L464.032 691.551ZM463.613 691.224C463.613 691.224 463.614 691.224 463.614 691.224L463.613 691.224ZM464.953 713.646C464.952 713.647 464.951 713.648 464.951 713.648C464.95 713.648 464.951 713.647 464.953 713.646Z" fill="#9F1074" stroke="#1E0E09" stroke-width="4"/>
<path d="M1335.64 882.413C1338.71 885.01 1341.1 888.969 1342.33 893.088C1343.56 897.237 1343.5 901.178 1342.17 903.863C1341.03 903.989 1339.07 904.25 1337.08 904.737C1337.07 904.736 1337.06 904.735 1337.03 904.729C1336.98 904.715 1336.91 904.681 1336.83 904.62C1336.75 904.56 1336.7 904.496 1336.68 904.449C1336.67 904.431 1336.66 904.42 1336.66 904.414C1336.7 900.553 1335.94 894.086 1331.38 887.997C1331.37 887.966 1331.35 887.886 1331.34 887.739C1331.34 887.458 1331.39 887.078 1331.51 886.652C1331.63 886.231 1331.81 885.836 1332 885.528C1332.1 885.375 1332.19 885.261 1332.26 885.18C1332.33 885.103 1332.37 885.076 1332.37 885.076C1332.37 885.076 1332.37 885.076 1332.37 885.076C1333.75 884.221 1334.87 883.21 1335.64 882.413ZM1336.66 904.409C1336.66 904.409 1336.66 904.409 1336.66 904.41L1336.66 904.409ZM1337.08 904.737C1337.08 904.737 1337.08 904.737 1337.08 904.737L1337.08 904.737ZM1335.74 882.314C1335.74 882.313 1335.74 882.312 1335.74 882.312C1335.74 882.312 1335.74 882.313 1335.74 882.314Z" fill="#9F1074" stroke="#1E0E09" stroke-width="4"/>
<path d="M359.231 815.383C359.231 815.382 359.232 815.381 359.232 815.38C359.232 815.381 359.231 815.382 359.231 815.383C359.231 815.383 359.231 815.383 359.231 815.383ZM359.29 815.192C360.637 810.762 362.788 799.075 351.607 791.197C352.82 791.203 354.043 791.257 355.172 791.386C355.938 791.591 360.249 792.852 363.841 795.96C365.657 797.532 367.242 799.535 368.127 802.072C369 804.577 369.241 807.74 368.179 811.744C367.885 812.205 367.029 813.395 365.595 814.307C364.183 815.204 362.142 815.882 359.29 815.192ZM355.211 791.39C355.211 791.39 355.211 791.39 355.21 791.39L355.211 791.39ZM351.411 790.963C351.412 790.961 351.412 790.96 351.412 790.96C351.412 790.96 351.412 790.961 351.411 790.963Z" fill="#B7B82C" stroke="#1E0E09" stroke-width="4"/>
<path d="M1441.47 780.572C1441.47 780.573 1441.47 780.574 1441.47 780.575C1441.47 780.574 1441.47 780.573 1441.47 780.572C1441.47 780.572 1441.47 780.572 1441.47 780.572ZM1441.41 780.763C1440.06 785.193 1437.91 796.88 1449.09 804.758C1447.88 804.752 1446.66 804.698 1445.53 804.57C1444.76 804.365 1440.45 803.103 1436.86 799.995C1435.04 798.423 1433.46 796.42 1432.57 793.883C1431.7 791.378 1431.46 788.215 1432.52 784.211C1432.81 783.75 1433.67 782.56 1435.1 781.649C1436.52 780.751 1438.56 780.073 1441.41 780.763ZM1445.49 804.565C1445.49 804.565 1445.49 804.565 1445.49 804.565L1445.49 804.565ZM1449.29 804.992C1449.29 804.994 1449.29 804.995 1449.29 804.995C1449.29 804.995 1449.29 804.994 1449.29 804.992Z" fill="#B7B82C" stroke="#1E0E09" stroke-width="4"/>
<path d="M732.14 745.448C733.54 744.968 734.753 744.889 735.641 744.937C734.597 756.005 739.575 763.64 742.345 766.96C738.259 768.89 735.029 767.436 734.215 767C730.607 763.138 729.495 759.449 729.518 755.97C729.542 752.411 730.75 748.926 732.14 745.448ZM742.498 767.142C742.497 767.141 742.497 767.14 742.496 767.139C742.497 767.141 742.498 767.142 742.499 767.143C742.499 767.143 742.499 767.143 742.498 767.142Z" fill="#9F1074" stroke="#1E0E09" stroke-width="4"/>
<path d="M574.14 661.087C573.158 660.609 564.053 655.827 564.775 642.565C565.425 643.096 566.081 643.627 566.714 644.14C568.502 645.589 570.118 646.898 570.957 647.672C571.738 649.327 575.604 657.016 582.45 661.165C580.25 661.797 577.328 662.121 574.14 661.087ZM583.1 661.546C583.1 661.546 583.099 661.545 583.097 661.542C583.099 661.544 583.1 661.546 583.1 661.546Z" fill="#ED6D3A" stroke="#1E0E09" stroke-width="4"/>
<path d="M1215.3 949.388C1216.29 949.866 1225.39 954.649 1224.67 967.91C1224.02 967.379 1223.36 966.848 1222.73 966.335C1220.94 964.886 1219.32 963.577 1218.49 962.803C1217.71 961.148 1213.84 953.459 1206.99 949.31C1209.19 948.678 1212.12 948.354 1215.3 949.388ZM1206.34 948.929C1206.34 948.929 1206.34 948.93 1206.35 948.933C1206.34 948.931 1206.34 948.93 1206.34 948.929Z" fill="#ED6D3A" stroke="#1E0E09" stroke-width="4"/>
<path d="M56.7067 906.884L56.6883 906.912L56.6709 906.941C55.2355 909.334 51.5486 913.184 44.0434 915.622C43.3121 915.237 42.0984 914.506 40.9807 913.428C39.8697 912.357 38.9385 911.028 38.5754 909.427C42.4193 909.502 49.6904 908.294 57.388 900.227C58.3139 902.338 58.0524 904.804 56.7067 906.884Z" fill="#BCCF00" stroke="#1E0E09" stroke-width="4"/>
<path d="M1743.99 689.073L1744.01 689.045L1744.03 689.016C1745.47 686.624 1749.15 682.773 1756.66 680.335C1757.39 680.721 1758.6 681.451 1759.72 682.529C1760.83 683.6 1761.76 684.929 1762.13 686.531C1758.28 686.455 1751.01 687.664 1743.31 695.73C1742.39 693.619 1742.65 691.153 1743.99 689.073Z" fill="#BCCF00" stroke="#1E0E09" stroke-width="4"/>
<path d="M585.388 1045.08C584.406 1044.6 575.301 1039.82 576.023 1026.55C576.673 1027.09 577.329 1027.62 577.962 1028.13C579.751 1029.58 581.366 1030.89 582.205 1031.66C582.986 1033.32 586.852 1041.01 593.698 1045.15C591.499 1045.79 588.576 1046.11 585.388 1045.08ZM594.348 1045.53C594.348 1045.54 594.347 1045.53 594.345 1045.53C594.347 1045.53 594.348 1045.53 594.348 1045.53Z" fill="#ED6D3A" stroke="#1E0E09" stroke-width="4"/>
</svg>
