<svg width="349" height="596" viewBox="0 0 349 596" fill="none" xmlns="http://www.w3.org/2000/svg">
<g clip-path="url(#clip0_1105_6549)">
<path d="M113.285 570.509C113.285 570.509 107.355 570.509 103.402 571.744C99.6954 585.333 96.4833 592.499 96.4833 592.499H20.3826C10.2523 592.499 1.85156 584.098 1.85156 573.968V445.239C4.07529 444.498 6.05193 444.003 7.04025 443.756C12.476 442.274 22.1121 439.556 32.4895 436.591C32.4895 435.603 32.9837 434.614 33.972 434.367C42.3727 430.167 51.2676 429.92 55.468 430.167C56.9505 430.167 57.9388 431.402 57.9388 432.885V435.109C57.9388 445.486 59.4213 456.357 62.3862 467.476C55.9622 477.853 58.68 500.091 82.6468 518.869C85.3647 521.092 88.0826 522.822 90.5534 524.552C97.9658 533.941 106.119 542.341 115.509 549.507C117.732 556.178 115.261 562.355 113.285 570.509Z" fill="#BC5B86"/>
<path d="M89.0717 311.567C73.7527 297.236 65.8461 277.964 62.387 259.927C60.1633 260.421 57.9395 261.163 56.21 262.398C36.4435 274.999 47.068 328.121 91.5425 320.462C90.5541 317.497 89.8129 314.532 89.0717 311.567ZM78.9414 317.25C76.9647 317.25 75.4822 315.767 75.4822 313.791C75.4822 311.814 76.9647 310.332 78.9414 310.332C80.918 310.332 82.4005 311.814 82.4005 313.791C82.1534 315.767 80.6709 317.25 78.9414 317.25Z" fill="#F8B682"/>
<path d="M298.593 269.316C297.111 266.104 294.64 263.633 291.428 261.657C285.992 280.435 275.615 299.707 260.543 311.32C259.555 315.026 258.566 318.485 257.578 321.697C290.44 330.345 309.218 289.33 298.593 269.316ZM271.415 317.25C269.438 317.25 267.955 315.767 267.955 313.791C267.955 311.814 269.438 310.331 271.415 310.331C273.391 310.331 274.874 311.814 274.874 313.791C274.874 315.767 273.391 317.25 271.415 317.25Z" fill="#F8B682"/>
<path d="M252.143 308.85C269.686 285.871 272.404 265.117 270.18 237.444C259.309 233.984 238.801 212.488 233.118 168.508C218.046 210.759 185.432 223.607 164.677 218.913C161.959 218.171 161.218 214.465 163.442 212.736C172.831 205.817 186.667 189.757 187.903 173.203C161.465 207.794 123.662 223.607 84.1288 232.255C76.7164 261.41 82.6464 292.543 100.436 312.556C102.166 314.286 100.189 317.003 97.9654 316.262C95.2475 315.027 92.0354 313.544 89.0705 311.568C89.8117 314.533 90.5529 317.498 91.5413 320.463C94.0121 327.628 97.2241 334.299 100.683 340.476C107.354 351.595 115.755 360.737 124.65 368.149C131.815 374.079 139.228 378.774 146.64 382.233L147.876 373.585L153.558 333.064L161.712 275.247L161.465 275C159.983 274.011 159.241 272.282 159.488 270.305L160.971 260.669C154.794 254.739 159.488 244.609 184.443 248.068H184.938C199.515 250.045 206.187 254.739 207.916 258.94C215.823 255.728 225.953 255.233 237.072 257.951C257.826 262.893 256.838 291.554 222.494 295.507C215.081 296.249 209.399 296.002 204.951 294.766C201.986 294.025 199.515 292.543 197.539 290.566L190.868 338.252L185.185 378.526L183.702 388.41C196.303 385.939 211.869 378.774 225.706 367.161C233.612 360.49 241.025 352.336 247.202 342.947C251.402 336.523 254.861 329.357 257.579 321.698C258.815 318.486 259.803 314.78 260.544 311.321C259.062 312.309 257.085 313.05 255.108 313.544C250.908 314.78 249.673 312.556 252.143 308.85ZM107.849 239.667C108.343 235.961 111.555 229.537 127.862 225.09C141.451 223.607 144.416 228.549 147.628 241.397C147.628 241.397 137.992 236.208 110.566 241.891C109.084 242.385 107.601 241.15 107.849 239.667ZM145.405 294.766C140.957 296.002 135.274 296.249 127.862 295.507C93.5179 291.554 92.5296 262.893 113.284 257.951C132.31 253.504 148.864 257.951 155.535 270.305C160.724 279.941 155.782 291.801 145.405 294.766ZM239.789 241.891C212.364 236.208 202.727 241.397 202.727 241.397C205.939 228.302 208.904 223.607 222.494 225.09C238.801 229.29 242.013 235.714 242.507 239.667C242.754 241.15 241.272 242.385 239.789 241.891Z" fill="#F8B682"/>
<path d="M197.534 290.321L190.863 338.254C187.404 350.361 179.25 344.678 176.532 356.785C176.532 369.633 185.921 366.421 185.18 378.528L183.698 388.411C180.733 388.906 177.768 389.153 175.05 389.153C167.143 389.153 157.26 386.682 146.883 381.74L148.118 373.092C151.577 360.738 159.731 366.668 162.449 354.561C162.449 341.713 153.06 344.925 153.801 332.571L161.955 274.755C167.39 278.461 182.462 282.908 193.087 281.673C193.828 285.132 195.311 288.097 197.534 290.321Z" fill="white"/>
<path d="M106.614 535.67C102.908 531.963 97.2249 528.751 90.8008 524.304C98.2132 533.693 106.367 542.094 115.756 549.259C114.52 545.306 111.803 540.858 106.614 535.67Z" fill="#BCCF00"/>
<path d="M124.643 367.904C124.643 399.777 123.408 418.061 106.853 427.203C101.17 423.991 94.2522 424.98 88.8164 432.886C82.6394 433.875 75.227 434.616 66.8263 434.863C44.342 414.108 65.5909 389.647 75.4741 383.223C65.0967 385.2 59.1668 380.505 55.9548 376.305C54.4723 374.328 55.9548 371.363 58.4256 371.363C63.8613 371.363 67.0734 368.892 67.0734 368.892V371.116C67.0734 372.846 68.3088 374.081 70.0383 374.081H84.369C85.8515 374.081 87.334 373.34 88.3223 372.352L92.5227 367.904C93.7581 366.669 94.2522 364.939 94.2522 363.21V352.832C101.17 347.891 101.17 340.725 101.17 340.231C107.347 351.35 115.748 360.492 124.643 367.904Z" fill="#A05E1E"/>
<path d="M347.762 444.993V573.969C347.762 584.099 339.608 592.5 329.231 592.5H191.607L180.488 586.076L183.947 570.262C183.947 570.262 183.947 570.262 183.947 570.015C228.916 565.568 263.507 528.753 280.556 488.726C288.215 470.689 292.416 451.911 292.416 435.11V432.886C292.416 431.403 293.404 430.415 294.886 430.168C299.087 429.921 307.735 430.168 316.135 434.368C316.877 434.862 317.618 435.604 317.618 436.592C333.678 440.792 347.762 444.993 347.762 444.993Z" fill="#BC5B86"/>
<path d="M280.546 488.725C263.497 528.999 228.906 565.567 183.938 570.014C185.667 562.602 188.385 555.683 192.338 549.259C197.774 540.365 205.681 523.563 208.151 498.608C208.398 496.384 208.398 493.913 208.398 491.69C208.151 491.937 241.26 491.69 280.546 488.725Z" fill="#BCCF00"/>
<path d="M87.093 485.019C81.9043 481.313 79.9276 474.148 79.1864 468.959C78.4452 463.276 72.2682 459.817 67.0795 462.535C65.1028 463.523 63.6203 465.253 62.3849 467.23C59.42 456.111 57.9375 445.239 57.9375 434.862C60.9025 434.862 63.8674 434.862 66.5853 434.862C75.2331 434.615 82.3984 434.121 88.5755 432.885C82.1514 442.522 79.1864 465.006 87.093 485.019Z" fill="#F8B682"/>
<path d="M191.602 592.252H96.4766C96.4766 592.252 99.6886 585.087 103.395 571.498C107.101 570.262 113.278 570.262 113.278 570.262C147.128 568.039 180.484 585.828 180.484 585.828L191.602 592.252Z" fill="#BC5B86"/>
<path d="M208.159 498.856C205.688 523.564 197.781 540.366 192.346 549.508C188.392 555.932 185.674 562.85 183.945 570.262C183.945 570.262 183.945 570.262 183.945 570.509L180.486 586.323C180.486 586.323 146.883 568.78 113.28 570.757C115.504 562.603 117.727 556.426 115.751 549.755C114.515 545.554 111.797 541.354 106.609 536.165C102.903 532.459 97.2197 529.247 90.7956 524.8C88.3248 523.07 85.6069 521.34 82.889 519.117C58.9222 500.339 56.2043 478.101 62.6284 467.724C63.8638 465.747 65.3463 464.018 67.3229 463.029C72.2646 460.312 78.4416 463.771 79.4299 469.454C80.1711 474.642 82.1478 481.808 87.3364 485.514C79.4299 465.5 82.3948 443.016 89.066 433.627C94.5018 425.72 101.42 424.732 107.103 427.944C108.338 428.685 109.574 429.674 110.809 430.662C113.28 427.944 116.245 426.215 119.21 425.226C124.893 423.497 130.823 427.203 131.811 433.133C132.305 435.604 132.552 438.816 132.305 442.769C131.811 444.004 131.564 445.487 132.058 446.969C130.576 466.242 144.165 487.738 160.966 487.738C171.591 487.738 179.25 477.854 178.015 467.23C177.521 463.277 177.768 458.582 179.992 454.629C180.486 454.135 180.733 453.64 180.98 453.146C181.227 452.652 181.474 452.405 181.474 451.911C185.427 442.028 193.087 439.31 198.276 439.804C204.453 440.298 208.406 445.24 206.429 450.923C202.97 461.3 204.947 473.16 206.676 480.572C207.665 484.525 208.159 488.232 208.406 492.432C208.406 494.162 208.159 496.385 208.159 498.856Z" fill="#F8B682"/>
<path d="M177.517 466.983C178.752 477.608 171.093 487.491 160.468 487.491C143.667 487.244 130.078 465.748 131.56 446.723C132.795 451.417 139.467 456.606 154.291 458.83H154.786C168.375 460.806 176.035 458.336 179.247 454.629C177.27 458.336 177.023 463.03 177.517 466.983Z" fill="#F8B682"/>
<path d="M292.407 435.108C292.407 451.909 288.207 470.687 280.547 488.724C241.261 491.689 208.153 491.936 208.153 491.936C207.906 487.983 207.411 484.03 206.423 480.076C204.446 472.664 202.717 460.804 206.176 450.427C208.153 444.744 203.952 439.802 198.022 439.308C192.834 438.814 185.174 441.532 181.221 451.415C181.715 449.191 180.974 446.721 178.997 444.744L180.48 435.108C180.727 433.378 179.985 431.649 178.503 430.413L178.256 430.166H177.762L183.692 388.41C196.293 385.939 211.859 378.774 225.695 367.161C225.695 384.951 225.942 398.54 229.402 408.67C235.084 427.943 250.898 435.108 292.407 435.108Z" fill="#F8B682"/>
<path d="M181.228 451.664C180.98 452.158 180.981 452.405 180.733 452.899C180.239 453.393 179.992 453.887 179.745 454.382C176.533 458.088 168.874 460.559 155.284 458.582H154.79C139.965 456.358 133.294 451.17 132.059 446.475C132.306 444.993 132.306 443.51 132.306 442.275C133.047 440.792 134.035 439.557 135.765 438.816L137.247 429.179C137.494 427.45 138.73 425.967 140.459 425.226H140.706C141.448 425.967 142.189 426.709 143.177 427.45C150.59 432.886 166.156 435.356 175.051 431.897C176.039 431.65 177.027 431.156 177.768 430.662H178.263L178.51 430.909C179.992 431.897 180.733 433.874 180.486 435.604L179.004 445.24C180.98 446.969 181.722 449.44 181.228 451.664Z" fill="#414047"/>
<path d="M174.799 431.65C165.904 435.11 150.338 432.639 142.926 427.203C149.597 417.073 156.268 412.872 160.468 411.143C163.433 409.907 166.893 410.649 168.869 413.119C173.317 418.555 175.046 426.956 174.799 431.65Z" fill="white"/>
<path d="M146.631 381.987L140.454 424.979H140.207C138.478 425.473 137.242 427.203 136.995 428.932L135.513 438.568C134.03 439.557 132.795 440.545 132.054 442.027C132.301 438.074 131.807 434.862 131.56 432.391C130.571 426.461 124.641 422.755 118.959 424.485C115.994 425.473 113.029 427.202 110.558 429.92C109.322 428.685 108.087 427.944 106.852 427.202C123.653 418.061 124.641 399.777 124.641 367.903C131.807 373.833 139.219 378.528 146.631 381.987Z" fill="#F8B682"/>
<path d="M243.003 413.118C240.779 413.366 239.544 410.895 241.026 409.412C250.168 399.529 248.686 383.222 246.462 376.303C246.215 396.07 238.061 406.447 229.413 408.918C226.201 398.788 225.707 385.198 225.707 367.409C233.614 360.737 241.026 352.584 247.203 343.195C247.203 353.572 253.133 355.302 256.592 361.479V363.455C256.592 365.185 257.333 366.914 258.322 368.15L262.275 372.597C263.016 373.339 263.757 373.833 264.746 374.08C269.193 392.858 259.31 410.648 243.003 413.118Z" fill="#A05E1E"/>
<path d="M283.515 357.279V371.116C283.515 372.845 282.279 374.081 280.55 374.081H266.219C265.725 374.081 264.984 374.081 264.49 373.834C263.501 373.587 262.76 373.092 262.019 372.351L258.065 367.904C256.83 366.668 256.336 364.939 256.336 363.209V350.855C256.336 348.878 258.065 347.149 260.042 347.149H274.126C275.361 347.149 276.597 347.643 277.338 348.631L282.032 354.067C283.021 354.561 283.515 356.044 283.515 357.279Z" fill="#F1F0EE"/>
<path d="M93.7648 350.607V362.961C93.7648 364.691 93.0235 366.42 92.0352 367.656L87.8348 372.103C86.8465 373.338 85.364 373.833 83.8816 373.833H69.5509C67.8213 373.833 66.5859 372.597 66.5859 370.868V357.031C66.5859 355.796 67.0801 354.313 68.0684 353.325L72.7629 347.889C73.5042 346.901 74.7396 346.407 75.975 346.407H90.0586C92.0352 346.901 93.7648 348.63 93.7648 350.607Z" fill="#F1F0EE"/>
<path d="M82.1487 313.791C82.1487 315.767 80.6662 317.25 78.6896 317.25C76.7129 317.25 75.2305 315.767 75.2305 313.791C75.2305 311.814 76.7129 310.331 78.6896 310.331C80.6662 310.579 82.1487 312.061 82.1487 313.791Z" fill="#00A5BA"/>
<path d="M274.867 313.791C274.867 315.768 273.385 317.25 271.408 317.25C269.432 317.25 267.949 315.768 267.949 313.791C267.949 311.814 269.432 310.332 271.408 310.332C273.385 310.579 274.867 312.061 274.867 313.791Z" fill="#00A5BA"/>
<path d="M248.436 101.797C231.881 90.1839 210.138 82.7715 181.724 82.7715C160.228 82.7715 142.438 85.9836 127.613 91.6664C129.096 76.1004 138.485 55.5927 155.533 47.439C172.829 39.2854 196.302 37.5558 214.586 47.192C230.893 55.5927 244.235 74.6179 248.436 101.797Z" fill="#A05E1E"/>
<path d="M298.588 269.319C296.858 266.107 294.635 263.636 291.423 261.66C285.987 280.438 275.61 299.71 260.538 311.323C259.055 312.311 257.079 313.053 255.102 313.547C250.654 314.535 249.419 312.311 252.137 308.852C269.68 285.874 272.398 265.119 270.174 237.446C259.302 233.987 238.795 212.491 233.112 168.51C218.04 210.761 185.425 223.609 164.671 218.915C161.953 218.174 161.211 214.467 163.435 212.738C172.824 205.82 186.661 189.759 187.896 173.205C161.458 207.796 123.655 223.609 84.1223 232.257C76.7099 261.413 82.6399 292.545 100.43 312.558C102.159 314.288 100.183 317.006 97.9588 316.265C95.241 315.029 92.0289 313.547 89.0639 311.57C73.745 297.239 65.8384 277.967 62.3793 259.93C60.1556 260.424 57.9318 261.166 56.2023 262.401C53.7315 255.483 60.8968 250.047 58.426 211.75C56.4493 180.865 64.603 115.635 127.856 91.9156C142.68 86.4798 160.47 83.0207 181.966 83.0207C210.38 83.0207 232.123 90.4331 248.678 102.046C295.87 135.155 301.059 201.866 300.071 224.598C298.588 254.989 302.541 265.86 298.588 269.319Z" fill="#A05E1E"/>
<path d="M204.451 266.6L202.968 276.236C202.721 277.719 201.98 278.707 200.992 279.448C200.745 279.696 200.251 279.943 200.004 279.943H199.756H199.262C197.533 280.684 195.556 281.178 193.332 281.425C182.461 282.66 167.636 278.46 162.2 274.507L161.953 274.26C160.471 273.271 159.729 271.542 159.977 269.565L161.459 259.929C161.459 259.929 169.366 266.353 182.214 268.33H182.708C195.062 270.801 204.451 266.6 204.451 266.6Z" fill="#414047"/>
<path d="M199.02 280.19L197.537 290.321C195.314 287.85 193.584 284.885 193.09 281.673C195.314 281.426 197.29 280.932 199.02 280.19Z" fill="white"/>
<path d="M222.49 295.261C215.078 296.002 209.395 295.755 204.948 294.52C201.983 293.778 199.512 292.296 197.535 290.319L199.018 280.189H199.512H199.759C200.253 279.942 200.5 279.942 200.747 279.695L200.994 280.189C201.736 285.378 203.712 289.331 207.665 289.331C212.36 289.331 214.584 283.648 214.584 276.483C214.584 270.059 212.854 264.87 209.148 263.882C209.148 263.882 208.407 263.635 207.665 263.388C208.407 261.905 208.407 260.423 207.913 258.94C215.819 255.728 225.949 255.234 237.068 257.952C258.07 262.646 256.834 291.555 222.49 295.261Z" fill="white"/>
<path d="M214.833 276.485C214.833 283.65 212.609 289.333 207.914 289.333C204.208 289.333 201.984 285.38 201.243 280.191L200.996 279.697C202.231 278.956 202.973 277.72 202.973 276.485L204.455 266.849C205.938 266.107 207.173 264.872 207.667 263.637C208.409 263.884 208.903 264.131 209.15 264.131C213.103 264.872 214.833 270.061 214.833 276.485Z" fill="#414047"/>
<path d="M207.913 263.388C207.419 264.624 206.183 265.859 204.701 266.6C204.701 266.6 195.312 270.801 182.464 268.824H181.969C169.121 267.095 161.215 260.423 161.215 260.423C155.038 254.493 159.732 244.363 184.687 247.822H185.181C199.759 249.799 206.43 254.493 208.16 258.694C208.654 260.423 208.407 262.153 207.913 263.388Z" fill="#414047"/>
<path d="M162.206 354.808C159.488 366.915 151.334 361.232 147.875 373.339L153.558 332.818C152.817 345.172 162.206 341.96 162.206 354.808Z" fill="#F8B682"/>
<path d="M184.937 378.775C185.678 366.421 176.289 369.633 176.289 357.032C179.007 344.925 187.161 350.608 190.62 338.501L184.937 378.775Z" fill="#F8B682"/>
<path d="M155.533 270.307C148.861 257.953 132.307 253.505 113.282 257.953C92.5271 262.894 93.5154 291.556 127.86 295.509C135.272 296.25 141.202 296.003 145.402 294.768C155.78 291.803 160.721 279.943 155.533 270.307ZM142.437 289.332C137.743 289.332 135.519 283.649 135.519 276.484C135.519 269.319 137.743 263.636 142.437 263.636C146.885 263.636 149.356 269.319 149.356 276.484C149.356 283.649 147.132 289.332 142.437 289.332Z" fill="white"/>
<path d="M149.356 276.484C149.356 283.65 147.132 289.332 142.438 289.332C137.743 289.332 135.52 283.65 135.52 276.484C135.52 269.319 137.743 263.636 142.438 263.636C146.885 263.636 149.356 269.319 149.356 276.484Z" fill="#414047"/>
<path d="M147.623 241.397C147.623 241.397 137.987 236.209 110.561 241.892C109.079 242.139 107.596 240.903 107.844 239.421C108.338 235.715 111.55 229.29 127.857 224.843C141.446 223.608 144.411 228.549 147.623 241.397Z" fill="#A05E1E"/>
<path d="M242.51 239.666C242.757 241.149 241.275 242.384 239.793 242.137C212.367 236.454 202.73 241.643 202.73 241.643C205.943 228.548 208.907 223.853 222.497 225.336C238.804 229.289 242.016 235.713 242.51 239.666Z" fill="#A05E1E"/>
<path d="M183.453 388.657L177.523 430.414C176.782 430.908 175.793 431.402 174.805 431.649C174.805 426.955 173.323 418.554 168.875 413.118C166.899 410.647 163.439 409.906 160.474 411.142C156.274 412.871 149.603 417.319 142.932 427.202C141.943 426.461 141.202 425.719 140.461 424.978L146.638 381.986C157.015 386.928 166.899 389.398 174.805 389.398C177.523 389.398 180.488 389.151 183.453 388.657Z" fill="white"/>
<path opacity="0.53" d="M197.534 290.321L190.863 338.254C187.404 350.361 179.25 344.678 176.532 356.785C176.532 369.633 185.921 366.421 185.18 378.528L183.698 388.411C180.733 388.906 177.768 389.153 175.05 389.153C167.143 389.153 157.26 386.682 146.883 381.74L148.118 373.092C151.577 360.738 159.731 366.668 162.449 354.561C162.449 341.713 153.06 344.925 153.801 332.571L161.955 274.755C167.39 278.461 182.462 282.908 193.087 281.673C193.828 285.132 195.311 288.097 197.534 290.321Z" fill="#F8B682"/>
<path opacity="0.77" d="M183.453 388.657L177.523 430.414C176.782 430.908 175.793 431.402 174.805 431.649C174.805 426.955 173.323 418.554 168.875 413.118C166.899 410.647 163.439 409.906 160.474 411.142C156.274 412.871 149.603 417.319 142.932 427.202C141.943 426.461 141.202 425.719 140.461 424.978L146.638 381.986C157.015 386.928 166.899 389.398 174.805 389.398C177.523 389.398 180.488 389.151 183.453 388.657Z" fill="#F8B682"/>
<path d="M144.167 456.109C136.507 453.638 132.801 449.932 131.813 446.473C131.072 454.873 133.295 463.768 137.496 471.181C140.214 466.486 142.437 461.297 144.167 456.109Z" fill="#C46E4A"/>
<path d="M31.2541 572.237C29.0304 558.401 28.5362 544.564 28.5362 530.481C28.7833 515.409 29.5246 500.584 31.2541 485.512C32.7366 472.911 34.7132 460.063 37.9253 447.709C39.4078 442.026 41.1373 436.343 43.6081 431.154C40.3961 431.896 37.184 432.884 33.972 434.366C33.2308 434.861 32.4895 435.602 32.4895 436.59C22.1121 439.308 12.476 442.026 7.04025 443.756C6.05193 444.003 4.07529 444.744 1.85156 445.238L1.85156 573.967C1.85156 584.097 10.0052 592.498 20.3826 592.498H35.7016C33.972 585.58 32.4895 578.908 31.2541 572.237Z" fill="#83517B"/>
<path d="M89.0717 311.567C73.7527 297.236 65.8461 277.964 62.387 259.927C60.1633 260.421 57.9395 261.163 56.21 262.398C36.4435 274.999 47.068 328.121 91.5425 320.462C90.5541 317.497 89.8129 314.532 89.0717 311.567ZM78.9414 317.25C76.9647 317.25 75.4822 315.767 75.4822 313.791C75.4822 311.814 76.9647 310.332 78.9414 310.332C80.918 310.332 82.4005 311.814 82.4005 313.791C82.1534 315.767 80.6709 317.25 78.9414 317.25Z" fill="#F8B682"/>
<path d="M129.344 344.183C117.237 329.853 108.589 313.545 103.894 295.261C100.188 280.684 96.729 265.859 94.9994 250.787C94.2582 243.869 93.764 236.95 94.2582 230.032C91.0461 230.773 87.587 231.762 84.3749 232.256C76.9625 261.411 82.8925 292.544 100.682 312.557C102.412 314.287 100.435 317.005 98.2114 316.263C95.4936 315.028 92.2815 313.545 89.3166 311.569C90.0578 314.534 90.799 317.499 91.7874 320.464C94.2582 327.629 97.4702 334.3 100.929 340.477C107.6 351.596 116.001 360.738 124.896 368.15C132.061 374.08 139.474 378.775 146.886 382.234L148.122 373.586L149.604 363.95C142.192 357.773 135.521 351.349 129.344 344.183Z" fill="#C46E4A"/>
<path d="M73.4985 424.98C72.5101 417.568 73.7455 409.908 76.7105 402.99C80.1696 394.836 85.6054 388.412 90.7941 381.494C95.4886 375.564 99.9361 369.387 103.148 362.469C105.125 358.268 106.36 353.821 107.101 349.373C104.878 346.408 102.654 343.443 100.924 340.231C100.924 340.726 100.924 347.891 94.0061 352.833V363.21C94.0061 364.939 93.2649 366.669 92.2766 367.904L88.0762 372.352C87.0879 373.587 85.6054 374.081 84.1229 374.081H69.7922C68.0627 374.081 66.8273 372.846 66.8273 371.116V368.893C66.8273 368.893 63.6152 371.364 58.1795 371.364C55.7087 371.364 54.2262 374.329 55.7087 376.305C58.9207 380.506 65.0977 385.2 75.228 383.223C65.3448 389.648 44.0959 414.108 66.5802 434.863C69.7923 434.863 72.7572 434.616 75.4751 434.369C74.7339 431.404 73.9926 428.192 73.4985 424.98Z" fill="#8E4020"/>
<path d="M202.727 592.253C213.352 588.547 223.482 584.1 233.118 578.417C247.202 570.51 259.803 560.133 269.686 547.285C279.322 534.93 286.488 520.6 290.935 505.528C295.136 492.186 297.359 478.102 297.606 464.018C297.853 453.147 297.606 440.793 292.912 430.663C292.418 431.157 291.923 431.898 291.923 432.639V434.863C291.923 451.664 287.723 470.443 280.064 488.479C263.015 528.753 228.424 565.321 183.455 569.769C183.455 569.769 183.455 569.769 183.455 570.016L179.996 585.829L191.115 592.253H202.727Z" fill="#83517B"/>
<path d="M254.108 527.271C246.943 533.448 239.283 538.637 230.883 542.837C218.035 549.508 203.704 553.956 189.126 555.191C186.902 559.886 184.926 564.827 183.938 570.263C218.282 566.804 246.449 544.814 265.474 516.646C261.768 520.106 258.062 523.812 254.108 527.271Z" fill="#7D9E18"/>
<path d="M87.093 485.019C81.9043 481.313 79.9276 474.148 79.1864 468.959C78.4452 463.276 72.2682 459.817 67.0795 462.535C65.1028 463.523 63.6203 465.253 62.3849 467.23C59.42 456.111 57.9375 445.239 57.9375 434.862C60.9025 434.862 63.8674 434.862 66.5853 434.862C75.2331 434.615 82.3984 434.121 88.5755 432.885C82.1514 442.522 79.1864 465.006 87.093 485.019Z" fill="#C46E4A"/>
<path d="M137.987 571.992C130.08 570.756 121.68 570.015 113.032 570.509C113.032 570.509 107.102 570.509 103.149 571.745C99.4425 585.334 96.2305 592.499 96.2305 592.499H130.822C132.798 585.334 135.022 578.416 137.987 571.992Z" fill="#83517B"/>
<path d="M146.635 526.527C144.411 519.856 140.211 514.667 135.763 509.478C131.316 504.784 126.868 500.089 123.162 494.653C119.209 488.724 116.491 481.805 115.256 474.64C113.032 463.027 113.773 450.673 116.491 439.308C117.726 434.119 119.703 428.683 122.668 424.236C121.433 424.236 120.197 424.236 118.962 424.483C115.997 425.471 113.032 427.201 110.561 429.918C110.067 429.424 109.573 428.93 108.831 428.436C102.902 436.837 99.1953 447.461 99.6895 457.591C99.9366 461.792 94.2537 462.78 92.2771 459.568C88.0767 452.897 89.5592 443.508 92.03 436.343C93.2654 433.131 94.7479 429.424 96.7245 425.965C94.0066 426.953 91.2887 429.177 89.065 432.636C82.3939 442.025 79.4289 464.51 87.3355 484.523L87.0884 484.276C87.8296 486.253 88.5709 488.476 89.3121 490.453C90.5475 493.912 86.3471 496.63 83.3822 494.901C76.4639 491.194 71.2752 485.264 68.8044 477.852C67.0749 472.91 66.5807 467.722 67.0749 462.533C65.3453 463.521 64.1099 465.004 62.8745 466.98C56.4504 477.358 59.1683 499.595 83.1351 518.373C85.853 520.597 88.5709 522.327 91.0417 524.056C97.7128 528.504 103.396 531.716 106.855 535.422C112.043 540.61 114.761 545.058 115.997 549.011C117.973 555.929 115.75 561.859 113.526 570.013C122.421 569.519 131.563 570.26 139.964 571.743C142.681 563.589 146.388 555.929 148.611 547.776C149.847 540.858 149.106 533.445 146.635 526.527Z" fill="#C46E4A"/>
<path d="M164.672 486.995C167.39 488.725 170.602 489.466 174.308 488.972C180.979 487.984 185.921 484.772 187.403 478.101C188.886 471.676 187.897 465.005 187.897 458.334C187.897 453.145 188.886 446.474 191.109 440.791C187.403 442.274 183.45 445.733 181.226 451.663C181.226 452.157 180.979 452.404 180.732 452.898C180.485 453.393 180.238 453.887 179.744 454.381C177.273 458.334 177.273 462.782 177.767 466.982C178.755 476.124 173.073 485.019 164.672 486.995Z" fill="#C46E4A"/>
<path d="M184.191 397.06C193.085 394.589 202.474 391.624 210.628 386.929C216.064 383.717 222.488 379.517 225.7 373.587C225.7 371.61 225.7 369.387 225.7 367.163C211.863 378.776 196.297 385.941 183.696 388.412L182.461 397.307C182.955 397.554 183.696 397.307 184.191 397.06Z" fill="#C46E4A"/>
<path d="M174.799 431.65C165.904 435.11 150.338 432.639 142.926 427.203C149.597 417.073 156.268 412.872 160.468 411.143C163.433 409.907 166.893 410.649 168.869 413.119C173.317 418.555 175.046 426.956 174.799 431.65Z" fill="white"/>
<path d="M146.631 381.987L140.454 424.979H140.207C138.478 425.473 137.242 427.203 136.995 428.932L135.513 438.568C134.03 439.557 132.795 440.545 132.054 442.027C132.301 438.074 131.807 434.862 131.56 432.391C130.571 426.461 124.641 422.755 118.959 424.485C115.994 425.473 113.029 427.202 110.558 429.92C109.322 428.685 108.087 427.944 106.852 427.202C123.653 418.061 124.641 399.777 124.641 367.903C131.807 373.833 139.219 378.528 146.631 381.987Z" fill="#C46E4A"/>
<path d="M237.559 403.481C238.794 399.527 239.783 395.574 240.03 391.374C240.524 384.456 239.042 377.29 236.818 370.619C235.582 367.407 234.1 364.195 232.617 360.983C230.394 363.207 227.923 365.43 225.699 367.407C225.699 385.197 225.946 398.786 229.405 408.916C232.123 407.928 235.088 406.199 237.559 403.481Z" fill="#8E4020"/>
<path d="M157.257 68.9372C161.21 57.8185 168.376 48.1824 178.012 41.2642C170.105 42.2525 162.446 44.4762 156.022 47.4412C138.973 55.5948 129.584 76.1025 128.102 91.6685C135.761 88.7036 144.409 86.4799 154.045 84.9974C154.292 79.5616 155.28 74.1258 157.257 68.9372Z" fill="#8E4020"/>
<path d="M84.1223 232.254C87.8285 231.513 91.5348 230.525 95.241 229.536C95.7351 214.711 98.453 200.134 103.642 185.803C115.996 152.447 134.28 119.091 165.659 100.313C179.99 91.6654 196.297 87.218 213.345 85.9826C203.956 83.7588 193.579 82.5234 181.966 82.5234C160.47 82.5234 142.68 85.7355 127.856 91.4183C64.603 115.138 56.4493 180.367 58.426 211.252C60.8968 249.303 53.7315 254.986 56.2023 261.904C57.9318 260.668 60.1556 259.927 62.3793 259.433C65.8384 277.47 73.745 296.742 89.0639 311.073C92.0289 313.049 94.9939 314.779 97.9588 315.767C100.183 316.756 102.159 314.038 100.43 312.061C82.6399 292.542 76.7099 261.41 84.1223 232.254Z" fill="#8E4020"/>
<path d="M183.207 218.666C188.643 209.771 191.608 199.888 190.866 189.263C190.619 184.816 189.137 180.863 187.654 176.909C184.936 191.981 172.335 206.559 163.687 212.983C161.464 214.713 162.205 218.419 164.923 219.16C170.112 220.148 176.536 220.148 183.207 218.666Z" fill="#8E4020"/>
<path d="M199.02 280.19L197.537 290.321C195.314 287.85 193.584 284.885 193.09 281.673C195.314 281.426 197.29 280.932 199.02 280.19Z" fill="white"/>
<path d="M209.151 263.882C210.634 264.129 211.622 265.117 212.363 266.353C215.576 265.611 218.788 265.117 221.505 264.623C230.153 263.388 239.048 263.14 247.449 264.129C245.225 261.164 241.519 258.94 236.824 257.952C225.706 255.234 215.576 255.728 207.669 258.94C208.163 260.423 208.163 262.152 207.422 263.388C208.657 263.635 209.151 263.882 209.151 263.882Z" fill="#AECCDE"/>
<path d="M204.949 270.8C206.679 270.306 208.161 269.812 209.891 269.318C211.126 268.823 212.362 268.576 213.597 268.329C212.609 266.106 211.373 264.376 209.397 263.882C209.397 263.882 208.655 263.635 207.914 263.388C207.42 264.623 206.185 265.858 204.702 266.6L203.961 270.8C204.208 271.047 204.455 270.8 204.949 270.8Z" fill="black"/>
<path d="M149.11 364.195L147.875 373.337C148.863 369.878 150.346 367.655 151.828 366.419C150.84 365.678 150.099 364.937 149.11 364.195Z" fill="#C46E4A"/>
<path d="M134.775 265.858C135.763 265.858 136.999 265.858 137.987 265.858C138.975 264.375 140.458 263.634 142.187 263.634C144.164 263.634 145.646 264.869 146.882 266.599C149.353 266.846 151.576 267.34 153.8 268.081C146.388 257.457 130.822 253.751 113.032 257.951C104.137 259.928 99.1953 266.352 99.1953 273.27C110.808 269.07 122.668 266.105 134.775 265.858Z" fill="#AECCDE"/>
<path d="M137.243 268.081C137.984 268.081 138.726 268.081 139.467 268.328C140.949 268.328 142.432 268.575 143.667 268.575C145.15 268.575 146.632 268.822 148.115 268.822C146.879 265.857 145.15 263.88 142.432 263.88C139.961 263.88 137.984 265.61 136.996 268.328C136.996 268.081 137.243 268.081 137.243 268.081Z" fill="black"/>
<path opacity="0.45" d="M165.658 374.326C160.716 372.102 156.022 369.631 151.822 366.419C150.339 367.901 148.857 369.878 147.868 373.337L146.633 381.985C157.01 386.927 166.893 389.397 174.8 389.397C177.518 389.397 180.483 389.15 183.448 388.656L184.683 380.75C178.259 379.02 171.835 377.043 165.658 374.326Z" fill="#C46E4A"/>
<path opacity="0.45" d="M151.58 417.071C152.321 410.894 153.309 402.988 158.992 400.27C162.698 398.54 166.404 399.776 170.111 399.776C174.064 399.776 178.264 398.54 182.218 397.552L183.453 388.657C180.488 389.151 177.523 389.398 174.805 389.398C166.899 389.398 157.015 386.928 146.638 381.986L140.461 424.978C141.202 425.719 141.943 426.461 142.932 427.202C145.897 423.001 148.862 419.542 151.58 417.071Z" fill="#C46E4A"/>
<path d="M184.689 380.751L183.453 388.658C195.807 386.434 207.667 379.763 207.667 379.763C207.667 379.763 199.513 383.716 184.689 380.751Z" fill="#C46E4A"/>
<path d="M146.385 422.756C145.15 424.239 144.161 425.721 142.926 427.451C150.338 432.886 165.904 435.357 174.799 431.898C174.799 430.91 174.799 429.427 174.552 428.192C165.163 430.416 155.033 427.698 146.385 422.756Z" fill="#AECCDE"/>
<path d="M98.7043 317.745C98.2101 317.745 97.716 317.745 97.4689 317.498C94.5039 316.263 91.5389 314.78 88.3269 312.557C87.8327 312.062 87.5857 311.321 88.0798 310.827C88.574 310.333 89.3152 310.086 89.8094 310.58C92.7743 312.557 95.7393 314.039 98.4572 315.274C98.9514 315.522 99.4455 315.274 99.6926 314.78C99.6926 314.533 100.187 314.039 99.6926 313.545C81.9028 293.531 75.4787 262.399 83.1382 232.255C83.1382 231.761 83.6324 231.514 84.1265 231.267C131.566 220.89 164.428 202.112 186.912 172.709C187.159 172.215 187.9 172.215 188.394 172.215C188.889 172.462 189.136 172.956 189.136 173.45C187.9 190.499 173.57 206.806 164.181 213.724C163.439 214.466 163.192 215.207 163.439 215.948C163.686 216.689 164.181 217.431 165.169 217.678C183.453 221.878 216.315 211.995 232.375 168.262C232.622 167.768 233.116 167.52 233.61 167.52C234.104 167.52 234.598 168.015 234.598 168.509C240.281 213.23 261.53 233.491 270.672 236.456C271.166 236.703 271.413 236.95 271.661 237.444C273.637 264.376 271.413 285.872 253.377 309.839C252.141 311.568 252.141 312.31 252.388 312.557C252.388 312.804 253.13 313.051 255.106 312.557C257.33 312.062 259.059 311.321 260.295 310.58C260.789 310.086 261.53 310.333 262.024 310.827C262.519 311.321 262.271 312.062 261.777 312.557C260.295 313.545 258.318 314.286 255.847 315.027C252.388 315.769 250.906 314.78 250.412 313.792C249.917 313.051 249.423 311.321 251.647 308.356C269.19 285.378 271.413 264.623 269.684 238.432C258.318 234.232 239.54 213.477 233.363 173.45C215.573 214.96 182.959 224.102 164.428 220.149C162.698 219.654 161.216 218.419 160.969 216.689C160.474 214.96 161.216 212.983 162.698 211.995C170.852 206.065 182.959 192.476 185.924 177.898C163.192 205.818 131.072 223.608 85.1149 233.491C77.9495 262.646 84.1265 292.543 101.422 311.815C102.41 313.051 102.658 314.78 101.669 316.263C100.928 317.004 99.9397 317.745 98.7043 317.745Z" fill="black"/>
<path d="M174.799 390.634C148.856 390.634 106.111 366.173 90.5446 321.452C64.107 325.405 48.788 308.109 45.823 289.825C43.3522 275.989 48.2938 260.67 61.8833 258.199C62.6245 258.199 63.1187 258.446 63.3657 259.187C67.5661 280.683 76.461 297.732 89.8033 310.333C90.0504 310.58 90.0504 310.827 90.0504 310.827C90.7917 313.792 91.5329 316.51 92.5212 319.475V319.722C107.346 363.702 149.35 387.916 174.552 387.916C199.754 387.916 240.769 364.196 256.088 321.204V320.957C257.324 317.745 258.312 314.286 259.053 310.827C259.053 310.58 259.3 310.333 259.548 310.086C277.337 296.496 286.232 273.518 289.938 261.164C289.938 260.917 290.433 260.423 290.68 260.423C290.927 260.176 291.421 260.423 291.668 260.423C304.022 267.341 304.516 285.131 299.08 298.967C293.398 313.298 279.067 327.876 258.065 322.934C242.499 366.914 200.495 390.634 174.799 390.634ZM259.3 320.957C278.573 325.158 291.668 311.568 297.104 298.226C302.045 285.872 301.798 270.553 292.162 263.635C288.209 276.483 279.067 298.473 261.771 312.062C261.03 315.275 260.289 318.239 259.3 320.957ZM61.3891 261.164C50.0234 263.882 46.3172 277.471 48.2938 289.578C51.2588 306.874 65.3424 322.687 89.8033 319.228C89.0621 317.004 88.3209 314.533 87.8267 312.062C74.4844 299.708 65.5895 282.413 61.3891 261.164Z" fill="black"/>
<path d="M298.592 270.554C298.345 270.554 297.85 270.307 297.603 270.06C297.109 269.566 297.109 268.825 297.603 268.331C299.333 266.601 299.086 262.401 298.839 254.741C298.592 247.576 298.097 237.94 298.592 224.103C299.58 198.901 293.156 147.261 262.024 114.894C242.257 94.6333 215.326 84.0088 181.97 84.0088C141.943 84.0088 110.811 95.6216 89.5617 118.106C64.6066 144.791 57.6883 183.829 59.665 211.502C61.1474 235.222 59.1708 246.588 57.6883 253.259C56.9471 257.212 56.4529 259.436 57.4412 261.907C57.6883 262.648 57.4412 263.142 56.7 263.389C55.9588 263.636 55.4646 263.389 55.2175 262.648C54.2292 259.683 54.7234 257.212 55.4646 252.765C56.7 246.094 58.9237 234.975 57.4412 211.749C55.2175 183.582 62.3828 143.802 87.8321 116.376C109.575 93.3979 141.201 81.538 181.97 81.538C216.067 81.538 243.493 92.1625 264 113.411C295.627 146.52 302.298 198.654 301.31 224.35C300.815 238.187 301.31 247.823 301.557 254.741C302.051 263.389 302.051 267.837 299.58 270.06C299.333 270.555 298.839 270.554 298.592 270.554Z" fill="black"/>
<path d="M71.0268 311.816C70.7797 311.816 70.2856 311.569 70.0385 311.322C69.5443 310.828 69.5443 310.086 70.0385 309.592C70.0385 309.592 73.4976 306.38 72.7564 302.921C67.5677 302.921 62.6261 299.956 60.6494 295.015C58.6728 290.32 59.6611 285.378 63.6144 281.672C62.1319 278.954 59.9082 277.472 56.9432 276.978C56.202 276.978 55.7078 276.236 55.9549 275.742C55.9549 275.001 56.6961 274.507 57.1903 274.754C60.1553 275.001 64.1086 276.484 66.3323 281.672C66.5794 282.166 66.3323 282.661 66.0852 283.155C62.379 286.367 61.3907 290.32 63.1202 294.273C64.8498 298.474 69.2972 300.944 73.7447 300.45C74.2388 300.45 74.733 300.697 74.9801 301.192C76.9567 306.627 72.0151 311.322 71.768 311.569C71.521 311.569 71.2739 311.816 71.0268 311.816Z" fill="black"/>
<path d="M278.579 311.816C278.332 311.816 278.085 311.816 277.838 311.569C277.591 311.322 272.649 306.627 274.626 301.192C274.873 300.697 275.367 300.203 275.861 300.45C280.309 300.944 284.756 298.227 286.486 294.273C288.215 290.32 286.98 286.367 283.521 283.155C283.026 282.908 283.026 282.166 283.274 281.672C285.497 276.483 289.451 275.001 292.416 274.754C293.157 274.754 293.651 275.248 293.651 275.742C293.651 276.483 293.157 276.978 292.663 276.978C289.698 277.225 287.227 278.954 285.991 281.672C289.945 285.378 290.933 290.32 288.956 295.015C286.98 299.709 281.791 302.921 276.849 302.921C276.355 306.38 279.567 309.592 279.567 309.592C280.061 310.086 280.061 310.828 279.567 311.322C279.073 311.569 278.826 311.816 278.579 311.816Z" fill="black"/>
<path d="M140.458 426.214C139.717 426.214 139.223 425.473 139.223 424.731L160.719 274.507C160.719 273.765 161.46 273.271 162.201 273.518C162.942 273.518 163.437 274.259 163.189 275.001L141.693 425.226C141.693 425.967 140.952 426.214 140.458 426.214Z" fill="black"/>
<path d="M189.128 283.153C178.503 283.153 166.149 279.2 161.208 275.988C160.714 275.494 160.467 274.753 160.961 274.259C161.455 273.764 162.196 273.517 162.69 274.011C168.867 278.212 188.881 283.648 198.764 279.2C199.258 278.953 199.999 279.2 200.494 279.941C200.741 280.683 200.494 281.177 199.752 281.671C196.54 282.659 193.081 283.153 189.128 283.153Z" fill="black"/>
<path d="M177.517 431.649C176.775 431.649 176.281 430.907 176.281 430.166L197.777 279.941C197.777 279.2 198.518 278.706 199.26 278.953C200.001 278.953 200.495 279.694 200.248 280.436L178.752 430.66C178.752 431.155 178.258 431.649 177.517 431.649Z" fill="black"/>
<path d="M176.521 358.018H176.273C175.532 357.771 175.285 357.276 175.285 356.535C176.768 349.864 179.733 348.134 182.698 346.405C185.415 344.922 187.886 343.44 189.616 337.757C189.863 337.016 190.604 336.769 191.098 337.016C191.84 337.263 192.087 338.004 191.84 338.498C189.863 345.17 186.651 346.899 183.933 348.629C181.215 350.111 178.744 351.594 177.509 357.029C177.509 357.771 177.015 358.018 176.521 358.018Z" fill="black"/>
<path d="M162.201 356.042C161.459 356.042 160.965 355.548 160.965 354.807C160.965 348.877 158.989 346.9 156.765 344.677C154.294 342.206 151.823 339.735 152.318 332.817C152.318 332.075 153.059 331.581 153.553 331.581C154.294 331.581 154.788 332.323 154.788 332.817C154.541 338.5 156.271 340.476 158.495 342.7C160.718 345.171 163.436 347.889 163.436 354.56C163.436 355.548 162.942 356.042 162.201 356.042Z" fill="black"/>
<path d="M147.874 374.575H147.627C146.886 374.328 146.639 373.586 146.886 373.092C148.862 366.421 152.074 364.692 154.792 362.962C157.51 361.48 159.981 359.997 161.216 354.561C161.463 353.82 161.958 353.573 162.699 353.573C163.44 353.82 163.687 354.314 163.687 355.055C162.205 361.727 159.24 363.456 156.275 365.186C153.557 366.668 151.086 368.151 149.356 373.834C148.862 374.328 148.368 374.575 147.874 374.575Z" fill="black"/>
<path d="M184.93 380.009C184.189 380.009 183.695 379.268 183.695 378.774C183.942 373.091 182.212 371.114 179.988 368.89C177.765 366.42 175.047 363.702 175.047 357.031C175.047 356.289 175.541 355.795 176.282 355.795C177.024 355.795 177.518 356.289 177.518 357.031C177.518 362.96 179.494 364.937 181.718 367.161C184.189 369.632 186.66 372.102 186.165 379.021C186.165 379.515 185.671 380.009 184.93 380.009Z" fill="black"/>
<path d="M199.76 281.669C199.266 281.669 198.772 281.422 198.525 280.928C198.277 280.187 198.525 279.693 199.266 279.446H199.513C200.748 278.952 201.737 277.963 201.984 276.481L202.972 268.821C199.513 270.057 191.853 271.786 182.217 270.551H181.723C172.087 269.068 165.169 265.115 162.204 263.138L161.215 270.798C160.968 272.033 161.462 273.516 162.698 274.257L162.945 274.504C163.439 274.998 163.686 275.739 163.192 276.234C162.698 276.728 161.957 276.975 161.462 276.481L161.215 276.234C159.486 274.998 158.498 272.775 158.745 270.304L160.227 260.668C160.227 260.173 160.474 259.926 160.968 259.679C161.462 259.432 161.957 259.679 162.204 259.926C162.204 259.926 169.863 266.35 182.217 268.08H182.711C195.065 269.81 204.207 265.856 204.207 265.856C204.702 265.609 205.196 265.856 205.443 266.103C205.69 266.35 205.937 266.845 205.937 267.339L204.454 276.975C204.207 279.199 202.725 281.175 200.501 281.916H200.254C200.007 281.669 199.76 281.669 199.76 281.669Z" fill="black"/>
<path d="M204.446 267.834C203.952 267.834 203.705 267.587 203.458 267.093C203.21 266.599 203.458 265.858 203.952 265.364C206.423 264.128 207.411 262.152 207.164 260.175C206.423 256.222 200.246 251.28 184.927 249.056H184.432C169.36 246.833 162.195 249.797 160.466 253.504C159.477 255.48 160.219 257.704 162.195 259.681C162.689 260.175 162.689 260.916 162.195 261.41C161.701 261.904 160.96 261.904 160.466 261.41C157.748 258.692 157.006 255.233 158.489 252.268C159.724 249.55 165.16 243.62 184.927 246.585H185.421C199.504 248.562 208.646 253.504 209.635 259.681C210.129 262.893 208.646 265.858 205.187 267.587C204.94 267.834 204.693 267.834 204.446 267.834Z" fill="black"/>
<path d="M179.002 446.225C178.26 446.225 177.766 445.484 177.766 444.743L179.249 435.107C179.496 433.871 179.002 432.389 177.766 431.647C168.377 437.083 147.622 434.118 139.963 426.459C138.975 426.953 138.233 427.941 137.986 429.177L136.504 438.813C136.504 439.554 135.763 440.048 135.021 439.801C134.28 439.801 133.786 439.06 134.033 438.319L135.516 428.682C135.763 426.459 137.245 424.482 139.469 423.741H139.716C140.21 423.494 140.704 423.741 141.198 424.235C146.881 430.906 167.883 434.859 176.778 429.177C177.025 428.93 177.272 428.93 177.519 428.93H178.013C178.26 428.93 178.507 428.93 178.507 429.177L178.755 429.424C180.484 430.659 181.472 432.883 181.225 435.354L179.743 444.99C180.237 445.731 179.743 446.225 179.002 446.225Z" fill="black"/>
<path d="M163.929 460.558C161.211 460.558 158.246 460.311 155.034 459.817H154.54C140.703 457.84 131.809 452.651 130.573 446.227C130.079 442.768 131.561 439.556 135.021 437.827C135.515 437.58 136.009 437.58 136.503 438.074C137.738 439.309 139.468 440.544 141.445 441.533C141.939 441.78 142.186 442.521 141.939 443.262C141.692 443.757 140.951 444.004 140.209 443.757C138.233 442.768 136.75 441.533 135.268 440.544C133.291 441.78 132.303 443.757 132.797 445.98C133.538 450.181 139.715 455.369 154.54 457.593H155.034C170.106 459.817 177.271 456.358 179.248 452.651C180.236 450.675 179.742 448.698 178.26 446.722C169.612 450.675 156.764 449.439 156.022 449.439C155.281 449.439 154.787 448.698 155.034 447.957C155.034 447.216 155.775 446.721 156.517 446.969C156.764 446.969 170.106 448.451 178.013 444.251C178.507 444.004 179.001 444.004 179.495 444.498C182.213 447.216 182.954 450.922 181.472 453.887C179.495 458.087 173.071 460.558 163.929 460.558Z" fill="black"/>
<path d="M158 345.17H157.753C149.599 343.193 142.187 340.228 136.751 336.522C136.257 336.028 136.01 335.286 136.504 334.792C136.998 334.298 137.739 334.051 138.233 334.545C143.422 338.251 150.587 341.216 158.247 342.946C158.988 343.193 159.235 343.687 159.235 344.428C158.988 344.923 158.494 345.17 158 345.17Z" fill="black"/>
<g opacity="0.61">
<path opacity="0.61" d="M175.293 347.394C169.363 347.394 163.433 346.653 157.75 345.417C157.009 345.17 156.762 344.676 156.762 343.935C157.009 343.193 157.503 342.946 158.244 342.946C167.633 345.17 177.516 345.417 186.658 343.935C187.4 343.935 187.894 344.182 188.141 344.923C188.388 345.664 187.894 346.158 187.153 346.406C183.199 346.9 179.246 347.394 175.293 347.394Z" fill="black"/>
</g>
<path d="M186.907 346.405C186.413 346.405 185.672 345.911 185.672 345.417C185.672 344.676 185.919 344.182 186.66 343.935C195.555 342.452 203.462 339.24 210.133 334.546C210.627 334.051 211.368 334.299 211.862 334.793C212.357 335.287 212.109 336.028 211.615 336.522C204.45 341.464 196.296 344.676 186.907 346.405Z" fill="black"/>
<g opacity="0.61">
<path opacity="0.61" d="M176.043 321.451C169.372 321.451 164.43 317.251 164.183 317.251C163.689 316.757 163.689 316.016 163.936 315.521C164.43 315.027 165.171 315.027 165.665 315.274C166.159 315.521 175.054 322.687 184.196 316.016C184.69 315.522 185.432 315.769 185.926 316.263C186.42 316.757 186.173 317.498 185.679 317.992C182.467 320.71 179.008 321.451 176.043 321.451Z" fill="black"/>
</g>
<path d="M135.266 296.991C132.795 296.991 130.324 296.744 127.853 296.496C106.851 294.026 98.9447 282.907 98.4506 274.259C97.9564 265.858 103.886 258.693 113.275 256.469C133.289 251.775 150.09 256.717 157.009 269.565C159.726 274.506 159.974 280.436 157.75 285.625C155.526 290.567 151.326 294.273 146.137 295.508C142.678 296.744 138.972 296.991 135.266 296.991ZM127.112 257.458C122.912 257.458 118.217 257.952 113.522 259.187C105.369 261.164 100.18 267.094 100.674 274.259C101.168 282.166 108.581 292.049 128.1 294.273C134.771 295.014 140.454 294.767 145.149 293.531C149.596 292.296 153.302 289.331 155.032 284.884C157.009 280.436 156.762 275.248 154.291 271.047C149.596 262.152 139.713 257.458 127.112 257.458Z" fill="black"/>
<path d="M119.214 257.704C115.508 256.222 112.79 253.01 111.555 249.303C111.555 249.056 111.555 248.809 111.802 248.809C112.049 248.809 112.296 248.809 112.296 249.056C114.025 252.268 116.743 254.986 119.955 255.975C121.191 256.222 120.45 258.198 119.214 257.704Z" fill="black"/>
<path d="M104.381 263.386C99.4396 263.881 94.2509 262.151 90.5447 258.445C90.2976 258.198 90.2976 257.951 90.5447 257.704C90.7918 257.456 91.0388 257.456 91.2859 257.704C94.745 260.916 99.6867 262.151 104.134 261.41C105.37 261.41 105.617 263.386 104.381 263.386Z" fill="black"/>
<path d="M108.084 289.331C105.119 289.578 102.401 291.308 101.166 294.025C100.919 294.52 100.178 294.273 100.425 293.778C101.413 290.319 104.378 287.848 107.837 287.354C108.331 287.354 108.825 287.601 108.825 288.096C109.073 288.837 108.825 289.331 108.084 289.331Z" fill="black"/>
<path d="M142.439 290.568C137.25 290.568 134.285 285.379 134.285 276.484C134.285 267.589 137.25 262.401 142.439 262.401C147.38 262.401 150.592 267.836 150.592 276.484C150.592 285.132 147.38 290.568 142.439 290.568ZM142.439 264.871C138.238 264.871 136.756 270.801 136.756 276.484C136.756 282.167 138.238 288.097 142.439 288.097C146.639 288.097 148.122 281.92 148.122 276.484C148.122 270.801 146.392 264.871 142.439 264.871Z" fill="black"/>
<path d="M110.066 243.375C109.078 243.375 108.337 243.128 107.596 242.387C106.854 241.645 106.36 240.657 106.607 239.422C107.101 234.727 111.302 228.056 127.609 223.855C127.609 223.855 127.609 223.855 127.856 223.855C142.434 222.373 145.646 228.303 149.105 241.151C149.105 241.645 149.105 242.139 148.611 242.387C148.117 242.634 147.623 242.634 147.375 242.387C147.375 242.387 137.492 237.445 111.055 242.881C110.561 243.128 110.313 243.375 110.066 243.375ZM128.103 226.326C112.537 230.527 109.325 236.457 109.078 239.669C109.078 240.163 109.325 240.41 109.325 240.41C109.572 240.657 109.819 240.657 110.313 240.657C130.821 236.457 141.446 238.186 145.893 239.422C142.928 228.303 139.716 225.091 128.103 226.326Z" fill="black"/>
<path d="M149.851 240.903C150.098 235.467 148.862 229.784 146.391 225.089C146.144 224.842 146.391 224.348 146.638 224.348C146.886 224.101 147.133 224.348 147.38 224.595C148.862 227.066 150.098 229.784 150.839 232.502C151.827 235.22 152.074 238.185 152.321 241.15C152.321 241.891 151.827 242.385 151.086 242.385C150.592 242.385 149.851 241.644 149.851 240.903Z" fill="black"/>
<path d="M78.6906 318.485C76.2198 318.485 73.9961 316.508 73.9961 313.79C73.9961 311.073 75.9727 309.096 78.6906 309.096C81.1614 309.096 83.3851 311.073 83.3851 313.79C83.3851 316.508 81.4085 318.485 78.6906 318.485ZM78.6906 311.814C77.4552 311.814 76.4669 312.802 76.4669 314.037C76.4669 315.273 77.4552 316.261 78.6906 316.261C79.926 316.261 80.9143 315.273 80.9143 314.037C80.9143 312.802 79.926 311.814 78.6906 311.814Z" fill="black"/>
<path d="M78.6846 351.347C77.9434 351.347 77.4492 350.853 77.4492 350.111V317.497C77.4492 316.755 77.9434 316.261 78.6846 316.261C79.4259 316.261 79.92 316.755 79.92 317.497V350.111C79.92 350.605 79.4259 351.347 78.6846 351.347Z" fill="black"/>
<path d="M83.8787 375.314H69.548C67.3243 375.314 65.3477 373.338 65.3477 371.114V357.277C65.3477 355.548 65.8418 354.065 67.0772 352.83L71.7717 347.394C72.7601 346.159 74.2425 345.665 75.9721 345.665H90.0557C92.7736 345.665 94.9973 347.888 94.9973 350.606V363.207C94.9973 365.184 94.2561 367.161 93.0207 368.643L88.8203 373.091C87.5849 374.573 85.8553 375.314 83.8787 375.314ZM75.9721 348.135C74.9838 348.135 74.2425 348.383 73.7484 349.124L69.0539 354.56C68.3126 355.301 68.0655 356.289 68.0655 357.277V371.114C68.0655 372.102 68.8068 372.844 69.7951 372.844H84.1258C85.3612 372.844 86.3495 372.349 87.3378 371.361L91.5382 366.914C92.5265 365.925 93.0207 364.443 93.0207 363.207V350.606C93.0207 349.124 91.7853 348.135 90.5499 348.135H75.9721V348.135Z" fill="black"/>
<path d="M86.3483 368.644C85.6071 368.644 85.1129 368.15 85.1129 367.408V359.502C85.1129 357.772 83.6305 356.537 82.148 356.537H70.7823C70.041 356.537 69.5469 356.043 69.5469 355.301C69.5469 354.56 70.041 354.066 70.7823 354.066H82.148C85.1129 354.066 87.5837 356.537 87.5837 359.502V367.408C87.5837 368.15 87.0896 368.644 86.3483 368.644Z" fill="black"/>
<path d="M88.5728 354.065C88.3257 354.065 88.0786 354.065 87.8316 353.818C87.3374 353.324 87.3374 352.582 87.8316 352.088L92.0319 347.394C92.5261 346.9 93.2673 346.9 93.7615 347.394C94.2557 347.888 94.2557 348.629 93.7615 349.123L89.5611 353.818C89.314 354.065 89.067 354.065 88.5728 354.065Z" fill="black"/>
<path d="M72.2618 363.21C71.2735 363.21 70.2852 362.469 70.2852 361.233V360.492C70.2852 359.504 71.0264 358.515 72.2618 358.515C73.4972 358.515 74.2384 359.256 74.2384 360.492V361.233C73.9914 362.221 73.2501 363.21 72.2618 363.21Z" fill="black"/>
<path d="M80.6681 363.208C79.6797 363.208 78.6914 362.467 78.6914 361.232V360.49C78.6914 359.502 79.4327 358.514 80.6681 358.514C81.9035 358.514 82.6447 359.255 82.6447 360.49V361.232C82.3976 362.22 81.6564 363.208 80.6681 363.208Z" fill="black"/>
<path d="M72.2618 370.868C71.2735 370.868 70.2852 370.127 70.2852 368.892V368.15C70.2852 367.162 71.0264 366.174 72.2618 366.174C73.4972 366.174 74.2384 366.915 74.2384 368.15V368.892C73.9914 370.127 73.2501 370.868 72.2618 370.868Z" fill="black"/>
<path d="M80.6681 370.867C79.6797 370.867 78.6914 370.126 78.6914 368.89V368.149C78.6914 367.161 79.4327 366.172 80.6681 366.172C81.9035 366.172 82.6447 366.914 82.6447 368.149V368.89C82.3976 370.126 81.6564 370.867 80.6681 370.867Z" fill="black"/>
<path d="M183.942 571.249C183.201 571.249 182.707 570.755 182.707 570.013C182.707 569.272 183.201 568.778 183.695 568.778C249.666 562.354 290.434 487.736 291.175 436.343C227.676 436.096 224.464 418.306 224.464 367.407C224.464 366.666 224.958 366.172 225.699 366.172C226.44 366.172 226.934 366.666 226.934 367.407C226.934 417.812 229.899 433.872 292.411 433.872C293.152 433.872 293.646 434.366 293.646 435.107C293.646 487.488 251.89 564.577 183.942 571.249Z" fill="black"/>
<path d="M235.832 584.837C235.338 584.837 234.844 584.59 234.597 584.096C234.349 583.355 234.597 582.861 235.338 582.367C308.474 552.47 317.616 478.099 316.38 436.342C316.38 435.848 316.133 435.354 315.639 435.107C307.485 430.906 299.085 430.906 294.884 431.153C294.143 431.153 293.649 431.895 293.649 432.636V434.86C293.649 435.601 293.155 436.095 292.413 436.095C291.672 436.095 291.178 435.601 291.178 434.86V432.636C291.178 430.659 292.66 428.93 294.884 428.683C299.332 428.435 308.227 428.683 316.874 432.883C318.11 433.624 318.851 434.86 318.851 436.342C320.086 478.593 310.944 554.199 236.326 584.59C236.326 584.837 236.079 584.837 235.832 584.837Z" fill="black"/>
<path d="M347.762 446.228H347.515C347.268 446.228 333.184 442.028 317.371 437.827C316.63 437.58 316.383 437.086 316.383 436.345C316.383 435.604 317.124 435.357 317.865 435.357C333.678 439.557 348.009 443.757 348.009 443.757C348.75 444.005 348.997 444.746 348.75 445.24C348.75 445.734 348.503 446.228 347.762 446.228Z" fill="black"/>
<path d="M215.076 296.992C211.123 296.992 207.664 296.498 204.699 295.756C201.734 295.015 199.016 293.286 196.792 291.309C196.298 290.815 196.298 290.074 196.792 289.579C197.287 289.085 198.028 289.085 198.522 289.579C200.499 291.556 202.722 292.791 205.44 293.533C210.135 294.768 215.818 295.015 222.489 294.274C242.008 292.05 249.421 282.167 249.915 274.26C250.409 267.095 245.22 261.165 237.067 259.188C226.442 256.718 216.312 256.965 208.652 260.177C207.911 260.424 207.417 260.177 206.923 259.436C206.676 258.694 206.923 258.2 207.664 257.706C216.065 254.247 226.195 254 237.561 256.471C246.95 258.694 252.88 265.86 252.386 274.26C251.891 282.908 243.738 294.027 222.983 296.498C220.018 296.992 217.547 296.992 215.076 296.992Z" fill="black"/>
<g opacity="0.61">
<path opacity="0.61" d="M197.533 291.555C197.286 291.555 196.792 291.555 196.545 291.308C194.074 288.837 192.345 285.625 191.603 282.166C191.356 281.425 191.85 280.931 192.592 280.684C193.333 280.437 193.827 280.931 194.074 281.672C194.568 284.637 196.051 287.602 198.274 289.579C198.769 290.073 198.769 290.814 198.274 291.308C198.274 291.555 198.027 291.555 197.533 291.555Z" fill="black"/>
</g>
<path d="M230.396 255.73C233.608 254.741 236.573 252.023 238.055 248.811C238.055 248.564 238.302 248.564 238.549 248.564C238.797 248.564 238.797 248.811 238.797 249.058C237.314 252.765 234.843 255.977 231.137 257.459C230.643 257.706 230.149 257.459 229.902 256.965C229.655 256.471 229.902 255.977 230.396 255.73Z" fill="black"/>
<path d="M246.211 261.412C250.658 262.153 255.6 260.918 259.059 257.706C259.306 257.459 259.553 257.459 259.8 257.706C260.047 257.953 260.047 258.2 259.8 258.2C258.071 259.929 255.847 261.412 253.623 262.153C251.153 262.894 248.682 263.389 246.211 263.142C245.717 263.142 245.223 262.647 245.223 262.153C245.223 261.906 245.717 261.412 246.211 261.412Z" fill="black"/>
<path d="M242.253 287.6C245.712 288.095 248.677 290.565 249.666 294.025C249.666 294.272 249.666 294.519 249.419 294.519C249.171 294.519 248.924 294.519 248.924 294.272C248.43 292.789 247.442 291.554 246.207 290.812C244.971 290.071 243.489 289.577 242.006 289.33C241.512 289.33 241.018 288.836 241.265 288.342C241.265 287.848 241.759 287.6 242.253 287.6Z" fill="black"/>
<path d="M207.907 290.568C203.706 290.568 200.741 286.862 200 280.438C200 279.696 200.494 279.202 200.988 278.955C201.73 278.955 202.224 279.449 202.471 279.943C202.718 282.414 203.953 288.097 207.907 288.097C212.107 288.097 213.589 282.167 213.589 276.484C213.589 270.801 212.107 264.871 207.907 264.871C207.165 264.871 206.671 264.377 206.671 263.636C206.671 262.895 207.165 262.401 207.907 262.401C213.095 262.401 216.06 267.589 216.06 276.484C216.06 285.379 213.095 290.568 207.907 290.568Z" fill="black"/>
<path d="M240.28 243.374C240.033 243.374 239.786 243.374 239.539 243.374C212.854 237.691 203.218 242.633 203.218 242.633C202.724 242.88 202.23 242.88 201.982 242.386C201.488 242.139 201.488 241.645 201.488 241.15C204.7 228.055 207.912 222.125 222.737 223.855C222.737 223.855 222.737 223.855 222.984 223.855C239.292 228.055 243.492 234.726 243.986 239.421C244.233 240.409 243.739 241.645 242.998 242.386C242.009 242.88 241.021 243.374 240.28 243.374ZM216.807 238.185C222.49 238.185 230.15 238.927 240.033 240.903C240.28 240.903 240.774 240.903 241.021 240.656C241.268 240.656 241.268 240.162 241.268 239.915C240.774 236.703 237.809 230.526 222.243 226.573C210.63 225.337 207.665 228.549 204.453 239.668C206.677 238.927 210.63 238.185 216.807 238.185Z" fill="black"/>
<path d="M198.035 241.152C198.035 235.222 200.012 229.539 202.977 224.597C203.224 224.35 203.471 224.35 203.718 224.35C203.965 224.597 203.965 224.844 203.965 225.092C202.73 227.562 201.742 230.28 201.247 232.751C200.506 235.469 200.506 238.187 200.506 240.905C200.506 242.634 197.788 242.634 198.035 241.152Z" fill="black"/>
<path d="M271.409 318.485C268.939 318.485 266.715 316.509 266.715 313.791C266.715 311.073 268.691 309.096 271.409 309.096C273.88 309.096 276.104 311.073 276.104 313.791C276.104 316.509 274.127 318.485 271.409 318.485ZM271.409 311.814C270.174 311.814 269.186 312.802 269.186 314.038C269.186 315.273 270.174 316.262 271.409 316.262C272.645 316.262 273.633 315.273 273.633 314.038C273.633 312.802 272.645 311.814 271.409 311.814Z" fill="black"/>
<path d="M271.411 351.347C270.67 351.347 270.176 350.853 270.176 350.112V317.497C270.176 316.756 270.67 316.262 271.411 316.262C272.152 316.262 272.647 316.756 272.647 317.497V350.112C272.647 350.606 272.152 351.347 271.411 351.347Z" fill="black"/>
<path d="M280.555 375.317H266.224C264.247 375.317 262.518 374.575 261.282 373.093L257.082 368.645C255.847 367.163 255.105 365.186 255.105 363.21V350.609C255.105 347.891 257.329 345.667 260.047 345.667H274.131C275.613 345.667 277.096 346.408 278.331 347.397L283.026 352.832C284.014 354.068 284.755 355.55 284.755 357.28V371.116C284.755 373.587 283.026 375.317 280.555 375.317ZM260.294 348.138C258.812 348.138 257.823 349.373 257.823 350.609V363.21C257.823 364.692 258.318 365.928 259.306 366.916L263.506 371.363C264.247 372.352 265.483 372.846 266.718 372.846H281.049C282.037 372.846 282.778 372.105 282.778 371.116V357.28C282.778 356.291 282.284 355.303 281.79 354.562L277.096 349.126C276.601 348.385 275.613 348.138 274.872 348.138H260.294V348.138Z" fill="black"/>
<path d="M263.997 368.644C263.256 368.644 262.762 368.15 262.762 367.408V359.502C262.762 356.537 265.233 354.066 268.197 354.066H279.563C280.304 354.066 280.799 354.56 280.799 355.301C280.799 356.043 280.304 356.537 279.563 356.537H268.197C266.468 356.537 265.233 358.019 265.233 359.502V367.408C265.233 368.15 264.738 368.644 263.997 368.644Z" fill="black"/>
<path d="M261.524 354.067C261.277 354.067 260.783 353.82 260.536 353.573L256.335 348.878C255.841 348.384 255.841 347.643 256.335 347.149C256.83 346.654 257.571 346.654 258.065 347.149L262.265 351.843C262.76 352.337 262.76 353.079 262.265 353.573C262.265 354.067 262.018 354.067 261.524 354.067Z" fill="black"/>
<path d="M278.082 363.208C277.094 363.208 276.105 362.467 276.105 361.231V360.49C276.105 359.502 276.847 358.513 278.082 358.513C279.318 358.513 280.059 359.255 280.059 360.49V361.231C280.059 362.22 279.07 363.208 278.082 363.208Z" fill="black"/>
<path d="M269.684 363.209C268.695 363.209 267.707 362.468 267.707 361.232V360.491C267.707 359.503 268.448 358.514 269.684 358.514C270.919 358.514 271.66 359.256 271.66 360.491V361.232C271.66 362.221 270.672 363.209 269.684 363.209Z" fill="black"/>
<path d="M278.082 370.867C277.094 370.867 276.105 370.125 276.105 368.89V368.149C276.105 367.16 276.847 366.172 278.082 366.172C279.318 366.172 280.059 366.913 280.059 368.149V368.89C280.059 370.125 279.07 370.867 278.082 370.867Z" fill="black"/>
<path d="M269.684 370.867C268.695 370.867 267.707 370.126 267.707 368.891V368.149C267.707 367.161 268.448 366.173 269.684 366.173C270.919 366.173 271.66 366.914 271.66 368.149V368.891C271.66 370.126 270.672 370.867 269.684 370.867Z" fill="black"/>
<path d="M115.752 550.742C115.505 550.742 115.258 550.742 115.011 550.494C105.869 543.576 97.4679 535.175 89.8084 525.292C89.3143 524.798 89.5613 524.057 90.0555 523.563C90.5497 523.069 91.2909 523.316 91.7851 523.81C99.1975 533.446 107.598 541.847 116.493 548.518C116.987 549.012 117.234 549.753 116.74 550.247C116.493 550.494 115.999 550.742 115.752 550.742Z" fill="black"/>
<path d="M62.3821 468.463C61.8879 468.463 61.3937 468.216 61.1467 467.475C58.1817 456.109 56.6992 445.237 56.6992 434.86C56.6992 434.119 57.1934 433.625 57.9346 433.625C70.5357 433.625 80.4189 432.883 88.5726 431.648C89.3138 431.401 89.808 431.895 90.0551 432.636C90.0551 433.377 89.808 433.872 89.0667 434.119C81.1602 435.354 71.524 436.095 59.4171 436.095C59.4171 445.731 60.8996 456.109 63.8645 466.733C64.1116 467.475 63.6175 467.969 62.8762 468.216C62.6291 468.463 62.6291 468.463 62.3821 468.463Z" fill="black"/>
<path d="M106.851 428.685C106.357 428.685 106.11 428.437 105.863 427.943C105.615 427.449 105.863 426.708 106.357 426.214C121.923 417.566 123.652 401.012 123.652 367.903C123.652 367.162 124.147 366.667 124.888 366.667C125.629 366.667 126.123 367.162 126.123 367.903C126.123 399.035 125.135 418.554 107.592 428.437C107.098 428.437 106.851 428.685 106.851 428.685Z" fill="black"/>
<path d="M98.4581 577.18C98.211 577.18 97.964 577.18 97.964 576.933C53.2424 551.237 29.7698 501.327 31.4993 436.592C31.4993 435.109 32.2406 433.874 33.476 433.133C42.1238 428.685 51.0187 428.685 55.4661 428.932C57.4428 428.932 59.1723 430.662 59.1723 432.885V435.109C59.1723 435.85 58.6782 436.345 57.9369 436.345C57.1957 436.345 56.7015 435.85 56.7015 435.109V432.885C56.7015 432.144 56.2074 431.65 55.4661 431.403C51.2658 431.156 42.865 431.403 34.7114 435.356C34.2172 435.603 33.9701 436.098 33.9701 436.592C32.2406 500.585 55.2191 549.754 99.1994 574.71C99.6935 574.957 99.9406 575.698 99.6935 576.439C99.1993 576.933 98.9523 577.18 98.4581 577.18Z" fill="black"/>
<path d="M2.59018 446.227C2.09602 446.227 1.60186 445.979 1.35478 445.238C1.1077 444.497 1.60186 444.003 2.09602 443.756C2.3431 443.756 16.4267 439.555 32.2398 435.355C32.9811 435.108 33.4752 435.602 33.7223 436.343C33.9694 437.085 33.4752 437.579 32.734 437.826C16.9208 442.026 2.59018 446.227 2.59018 446.227C2.59018 446.227 2.59018 446.227 2.59018 446.227Z" fill="black"/>
<path d="M66.8319 436.098C66.5848 436.098 66.3377 436.098 66.0906 435.85C58.6782 428.932 55.2191 420.779 55.9603 412.131C56.9487 400.765 64.6082 390.635 71.2793 384.952C63.1257 385.199 57.937 380.999 54.972 377.045C53.9837 375.81 53.7366 374.08 54.4779 372.598C55.2191 371.115 56.7016 370.374 58.4312 370.374C63.3728 370.621 66.0906 368.15 66.0906 368.15C66.5848 367.656 67.326 367.903 67.8202 368.398C68.3144 368.892 68.0673 369.633 67.5731 370.127C67.326 370.127 63.8669 372.845 58.1841 372.845C57.4428 372.845 56.9487 373.092 56.7016 373.833C56.4545 374.575 56.4545 375.069 56.9487 375.81C59.9136 379.763 65.5965 384.211 75.2326 382.234C75.7268 382.234 76.468 382.481 76.7151 382.975C76.9622 383.469 76.7151 384.211 76.2209 384.458C69.7968 388.658 59.4195 400.024 58.1841 412.625C57.4428 420.531 60.6549 427.944 67.5731 434.368C68.0673 434.862 68.0673 435.603 67.5731 436.098C67.326 436.098 67.079 436.098 66.8319 436.098Z" fill="black"/>
<path d="M93.7616 354.066C93.2674 354.066 93.0203 353.819 92.7733 353.572C92.2791 353.078 92.5262 352.336 93.0203 351.842C99.4444 347.148 99.4444 340.23 99.4444 340.23C99.4444 339.488 99.9386 338.994 100.68 338.994C101.421 338.994 101.915 339.488 101.915 340.23C101.915 340.477 101.915 348.63 94.5028 353.819C94.2557 354.066 94.0087 354.066 93.7616 354.066Z" fill="black"/>
<path d="M242.503 414.353C241.267 414.353 240.032 413.612 239.538 412.624C238.797 411.388 239.044 409.659 240.032 408.67C245.962 402.246 247.197 393.104 246.703 385.939C243.738 404.47 233.114 409.412 229.408 410.4C228.666 410.647 228.172 410.153 227.925 409.659C227.678 408.917 228.172 408.423 228.666 408.176C236.326 405.952 244.479 396.316 244.974 376.797C244.974 376.303 245.468 375.809 245.962 375.562C246.456 375.562 247.197 375.809 247.444 376.303C249.668 382.974 251.398 400.27 241.762 410.647C241.267 411.141 241.515 411.635 241.515 411.882C241.515 412.129 241.762 412.376 242.503 412.376C249.174 411.388 254.857 407.682 259.057 401.752C263.999 394.34 265.728 384.456 263.258 374.82C263.011 374.079 263.505 373.585 264.246 373.338C264.987 373.091 265.481 373.585 265.728 374.326C268.199 384.704 266.47 395.328 261.034 403.235C256.586 409.659 250.162 413.859 242.997 414.847C242.997 414.353 242.75 414.353 242.503 414.353Z" fill="black"/>
<path d="M256.585 362.467C256.091 362.467 255.844 362.22 255.597 361.726C254.609 359.996 253.373 358.513 251.891 357.031C248.926 353.819 245.961 350.36 245.961 342.947C245.961 342.206 246.455 341.712 247.196 341.712C247.938 341.712 248.432 342.206 248.432 342.947C248.432 349.619 250.903 352.336 253.62 355.301C255.103 356.784 256.338 358.266 257.574 360.49C257.821 360.984 257.821 361.726 257.08 362.22C256.832 362.467 256.585 362.467 256.585 362.467Z" fill="black"/>
<path d="M248.433 103.034C247.938 103.034 247.197 102.54 247.197 102.046C243.244 76.8433 231.137 57.0769 214.088 48.182C197.781 39.5342 174.555 39.7813 156.272 48.4291C139.717 56.5828 130.575 76.5963 129.093 91.6682C129.093 92.4094 128.351 92.9036 127.857 92.6565C127.116 92.6565 126.622 91.9152 126.869 91.4211C128.599 74.8667 137.988 54.6061 155.53 46.2054C174.803 37.0634 198.275 36.8163 215.571 45.9583C233.361 55.1003 245.962 75.6079 249.915 101.551C249.915 102.293 249.421 103.034 248.433 103.034C248.68 103.034 248.68 103.034 248.433 103.034Z" fill="black"/>
<path d="M145.649 64.7343C141.695 69.1818 138.978 74.8646 137.742 80.5475C137.495 81.2887 137.001 81.5358 136.26 81.5358C135.518 81.2887 135.024 80.7946 135.271 80.0533C137.001 73.8763 140.213 68.4406 144.66 63.9931C145.155 63.4989 146.143 64.2402 145.649 64.7343Z" fill="black"/>
<path d="M85.1102 154.18C88.0752 147.508 91.7814 141.331 96.723 136.143C96.9701 135.896 97.2172 135.896 97.4642 136.143C97.7113 136.39 97.7113 136.637 97.4642 136.884C95.2405 139.602 93.2639 142.567 91.5343 145.532C89.8048 148.497 88.3223 151.709 87.3339 155.168C86.8398 156.65 84.6161 155.662 85.1102 154.18Z" fill="black"/>
<path d="M83.8739 162.827H83.6269C82.8856 162.58 82.6385 161.838 82.8856 161.344C83.6269 158.873 84.3681 156.65 85.3564 154.179C85.6035 153.438 86.3448 153.191 86.8389 153.438C87.5802 153.685 87.8272 154.426 87.5802 154.92C86.5918 157.144 85.8506 159.368 85.3564 161.838C85.1093 162.333 84.6152 162.827 83.8739 162.827Z" fill="black"/>
<path d="M80.6674 182.099C80.4203 175.18 81.1616 168.015 82.8911 161.097C83.1382 160.356 83.6324 160.109 84.3736 160.109C85.1149 160.356 85.3619 160.85 85.3619 161.591C83.1382 168.262 81.9028 174.933 81.6557 182.099C81.4087 182.84 80.6674 182.84 80.6674 182.099Z" fill="black"/>
<path d="M174.807 432.884C174.066 432.884 173.571 432.39 173.571 431.648C173.571 427.448 172.336 419.047 167.889 413.859C166.159 411.882 163.194 411.141 160.97 412.129C156.77 413.859 150.346 418.059 143.922 427.695C143.428 428.189 142.686 428.436 142.192 427.942C141.698 427.448 141.451 426.707 141.945 426.213C148.863 416.082 155.535 411.635 159.982 409.658C163.441 408.176 167.394 409.164 169.865 412.129C174.56 417.812 176.289 426.707 176.042 431.401C176.042 432.39 175.548 432.884 174.807 432.884Z" fill="black"/>
<path d="M95.4974 501.327C95.2504 501.327 94.7562 501.08 94.5091 500.833C76.7193 478.349 78.4489 445.24 87.5909 432.145C91.05 427.45 95.0033 424.732 99.4507 424.238C103.651 423.744 107.851 425.473 111.311 428.933C111.805 429.427 111.805 430.168 111.311 430.662C110.816 431.156 110.075 431.156 109.581 430.662C106.616 427.697 102.91 426.215 99.6978 426.462C95.9916 426.709 92.5325 429.18 89.8146 433.38C81.4139 445.24 79.6843 477.607 96.7328 499.103C97.227 499.597 96.9799 500.339 96.4858 500.833C95.9916 501.327 95.7445 501.327 95.4974 501.327Z" fill="black"/>
<path d="M180.481 587.062C180.234 587.062 179.987 587.062 179.987 586.815C179.74 586.567 146.384 569.272 113.275 571.496C112.781 571.496 112.534 571.249 112.287 571.001C112.04 570.754 112.04 570.26 112.04 570.013C112.287 569.025 112.534 568.036 112.781 567.048C115.746 555.93 117.97 548.764 105.615 536.41C102.898 533.692 99.1914 531.221 94.7439 528.504C90.7907 526.033 86.5903 523.068 81.8958 519.609C66.0826 507.008 57.1877 491.194 58.1761 476.864C58.6702 469.698 61.6352 464.263 66.3297 461.545C69.0476 460.062 72.0126 460.062 74.7304 461.298C77.6954 462.78 79.6721 465.498 80.1662 468.71C80.9075 473.899 82.8841 480.57 87.5786 484.029C88.0728 484.523 88.3199 485.265 87.8257 485.759C87.3315 486.253 86.5903 486.5 86.0961 486.006C80.6604 482.3 78.4367 474.64 77.6954 469.204C77.4483 466.733 75.7188 464.757 73.495 463.521C71.5184 462.533 69.2947 462.533 67.318 463.769C63.3647 465.992 60.8939 470.934 60.3998 477.111C59.4115 490.7 67.8122 505.772 83.1312 517.879C87.5786 521.338 92.0261 524.303 95.7323 526.774C100.18 529.739 104.133 532.21 106.851 534.928C120.193 548.27 117.722 556.424 114.51 567.789C114.51 568.284 114.263 568.778 114.263 569.025C143.419 567.789 172.327 580.638 178.998 584.097L181.963 570.013C183.446 562.601 186.411 555.435 190.611 548.764C196.294 539.128 203.706 522.821 206.177 498.607C206.671 492.677 206.177 486.747 204.695 480.57C202.718 472.416 200.988 460.804 204.448 450.426C205.189 448.202 204.942 446.226 203.706 444.249C202.471 442.273 200 441.037 197.282 440.79C191.847 440.296 184.681 443.508 181.222 453.391C181.222 453.638 181.222 453.638 180.975 453.638C178.504 456.85 177.516 461.298 178.257 466.733C178.998 472.416 177.269 478.346 173.315 482.547C169.856 486.5 165.162 488.477 159.973 488.477C153.302 488.477 146.631 485.017 141.195 479.088C133.536 470.687 129.088 457.592 129.829 446.226C130.324 441.284 130.324 436.59 129.582 432.636C129.088 430.166 127.606 427.942 125.382 426.706C123.158 425.471 120.687 424.977 118.464 425.718C112.781 427.448 107.839 432.389 104.874 439.308C99.1914 452.156 100.674 469.451 109.075 486.747C109.322 487.241 109.075 487.982 108.58 488.477C107.839 488.724 107.345 488.477 106.851 487.982C98.2031 470.193 96.7206 452.156 102.651 438.566C106.11 430.907 111.545 425.471 117.722 423.494C120.687 422.506 123.899 423 126.617 424.73C129.335 426.459 131.312 429.177 131.806 432.389C132.547 436.59 132.547 441.531 132.053 446.72C131.065 457.592 135.265 469.698 142.678 477.605C147.619 483.041 153.549 486.006 159.726 486.006C159.726 486.006 159.726 486.006 159.973 486.006C164.421 486.006 168.374 484.276 171.339 480.817C174.551 477.111 176.28 471.922 175.539 466.981C174.798 461.051 175.786 455.862 178.751 452.156C182.705 441.037 190.858 437.578 197.282 438.072C200.741 438.319 203.706 440.049 205.436 442.52C206.918 444.99 207.413 447.955 206.424 450.673C203.212 460.556 204.942 471.675 206.671 479.582C208.401 486.006 208.895 492.43 208.154 498.607C205.683 523.068 198.024 539.869 192.094 549.753C188.14 556.177 185.422 563.095 183.94 570.26L180.481 586.073C180.481 586.567 180.234 586.815 179.74 586.815C180.728 587.062 180.728 587.062 180.481 587.062Z" fill="black"/>
<path d="M191.607 593.488C191.36 593.488 191.113 593.488 190.866 593.241L179.747 586.817C179.253 586.57 179.006 585.828 179.253 585.087C179.5 584.593 180.241 584.346 180.983 584.593L192.101 591.017C192.596 591.264 192.843 592.005 192.596 592.747C192.348 593.488 191.854 593.488 191.607 593.488Z" fill="black"/>
<path d="M96.4759 593.488C96.2288 593.488 96.2288 593.488 95.9817 593.488C95.2405 593.241 94.9934 592.5 95.4876 591.759C95.4876 591.759 98.6996 584.593 102.406 571.251C102.406 570.757 102.9 570.51 103.147 570.51C107.1 569.274 113.03 569.274 113.277 569.274C114.019 569.274 114.513 569.769 114.513 570.51C114.513 571.251 113.771 571.745 113.277 571.745C113.277 571.745 108.089 571.745 104.63 572.734C100.923 585.829 97.9584 592.747 97.7113 592.994C97.2171 593.241 96.723 593.488 96.4759 593.488Z" fill="black"/>
<path d="M208.161 493.171C207.42 493.171 206.926 492.677 206.926 491.936C206.926 491.194 207.42 490.7 208.161 490.7C208.408 490.7 241.517 490.453 280.309 487.488C281.05 487.488 281.544 487.982 281.544 488.724C281.544 489.465 281.05 489.959 280.309 489.959C241.764 492.924 208.655 493.171 208.161 493.171Z" fill="black"/>
<path d="M204.457 460.558C203.963 460.558 203.469 460.311 203.222 459.569C202.975 458.828 203.469 458.334 203.963 458.087C203.963 458.087 216.564 454.381 232.872 450.674C233.613 450.427 234.107 450.921 234.354 451.663C234.601 452.404 234.107 452.898 233.366 453.145C217.058 456.851 204.704 460.558 204.704 460.558H204.457Z" fill="black"/>
<path d="M259.549 447.462L233.358 453.145C231.876 453.392 231.134 451.168 232.864 450.674L259.301 446.226C260.29 445.979 260.537 447.215 259.549 447.462Z" fill="black"/>
<path d="M258.561 510.715C258.067 510.715 257.573 510.221 257.326 509.727C257.079 508.986 257.573 508.492 258.314 508.245C266.468 506.515 271.657 505.28 271.657 505.28C272.398 505.033 272.892 505.527 273.139 506.268C273.386 507.009 272.892 507.503 272.151 507.75C272.151 507.75 266.962 508.986 258.808 510.715C258.561 510.715 258.561 510.715 258.561 510.715Z" fill="black"/>
<path d="M221.254 516.891L258.316 508.243C259.799 507.749 260.54 510.219 258.81 510.714L221.501 518.373C220.513 518.373 220.266 516.891 221.254 516.891Z" fill="black"/>
</g>
<defs>
<clipPath id="clip0_1105_6549">
<rect width="348.383" height="595.464" fill="white" transform="translate(0.613281)"/>
</clipPath>
</defs>
</svg>
