<svg width="77" height="68" viewBox="0 0 77 68" fill="none" xmlns="http://www.w3.org/2000/svg">
<path d="M15.2777 37.3121C19.956 35.4324 22.2248 30.1161 20.3451 25.4378C18.4655 20.7595 13.1492 18.4907 8.4709 20.3703C3.79256 22.2499 1.52374 27.5662 3.40338 32.2446C5.28301 36.9229 10.5993 39.1917 15.2777 37.3121Z" fill="#D31A2B"/>
<path d="M9.75696 29.6921C10.9953 29.1946 11.5959 27.7873 11.0983 26.5489C10.6008 25.3105 9.19355 24.71 7.95517 25.2075C6.71678 25.7051 6.11624 27.1123 6.61379 28.3507C7.11133 29.5891 8.51857 30.1897 9.75696 29.6921Z" fill="white"/>
<path d="M20.3457 25.4378C18.544 20.9532 13.7291 18.692 9.21891 20.07C12.2353 20.0156 15.2539 21.407 16.7054 25.0196C19.7584 32.6184 11.2408 38.0661 5.55281 35.4323C8.12429 37.8715 11.9648 38.788 15.4528 37.3866C19.8874 35.4602 22.1976 30.047 20.3457 25.4378Z" fill="#A5B8C2"/>
<path d="M15.2777 37.3121C19.956 35.4324 22.2248 30.1161 20.3451 25.4378C18.4655 20.7595 13.1492 18.4907 8.4709 20.3703C3.79256 22.2499 1.52374 27.5662 3.40338 32.2446C5.28301 36.9229 10.5993 39.1917 15.2777 37.3121Z" stroke="#010202" stroke-width="1.611" stroke-miterlimit="10" stroke-linecap="round" stroke-linejoin="round"/>
<path d="M9.75696 29.6921C10.9953 29.1946 11.5959 27.7873 11.0983 26.5489C10.6008 25.3105 9.19355 24.71 7.95517 25.2075C6.71678 25.7051 6.11624 27.1123 6.61379 28.3507C7.11133 29.5891 8.51857 30.1897 9.75696 29.6921Z" stroke="#010202" stroke-width="1.611" stroke-miterlimit="10" stroke-linecap="round" stroke-linejoin="round"/>
<path d="M25.8126 29.3184C31.2493 30.6065 36.2888 33.0668 40.3084 36.9497C40.3585 37.0743 40.4085 37.1988 40.334 37.3735C40.2595 37.5481 40.0848 37.4735 39.9102 37.399C35.7916 33.9899 30.7276 31.8288 25.4912 31.0391C24.4935 30.7165 24.7404 29.1705 25.8126 29.3184Z" fill="#010202"/>
<path d="M52.9933 51.2398C54.8318 47.1735 60.214 45.4451 64.2058 47.4583L63.5585 48.0078C61.4798 41.7536 66.6306 35.4884 70.8872 31.3186L71.3866 31.8414C70.092 32.9403 68.6227 33.9646 67.1034 34.8644C59.4822 39.6626 57.2545 33.7576 58.5903 26.9997L59.3633 27.1231C58.251 33.3573 55.4426 38.9707 48.6045 34.1947C47.0574 33.2248 45.834 31.9802 44.2868 31.0103L45.507 30.086C45.8573 30.958 46.3323 31.78 46.7327 32.7765C48.0584 35.7162 49.0872 40.0773 44.5003 40.184L45.3211 38.9862C46.8204 41.2774 45.7271 43.5975 43.3602 44.5485C37.9035 46.4515 31.9942 45.7874 26.334 45.0232L26.7055 43.4272C31.5192 44.9655 36.6567 46.229 40.5506 49.439C41.9732 50.4589 43.0987 52.9003 41.4804 54.2739C41.3558 54.324 41.1067 54.4241 41.0566 54.2995C40.882 54.225 40.9065 53.9258 41.1556 53.8257C41.6784 53.3263 41.8018 52.5533 41.5516 51.9304C40.5261 49.7382 38.0069 48.8695 35.8614 47.8507C32.7683 46.6338 29.5261 45.7662 26.4585 44.9732C25.5109 44.7752 25.7579 43.2292 26.8301 43.3771C32.0665 44.1669 37.9013 45.0056 43.0588 43.0781C44.6782 42.4275 45.3745 41.2796 44.1755 39.7358C43.9753 39.2375 43.8997 38.6892 44.5226 38.4389C44.6471 38.3889 44.8217 38.4634 44.9463 38.4134C46.9917 39.1831 47.5123 37.2377 46.9862 35.5683C46.5591 33.425 45.1611 32.1058 44.3358 30.4119C44.0355 29.6644 45.2311 29.0394 45.656 29.7368C47.6792 32.2516 50.6255 35.2635 54.0656 35.1835C57.5548 34.5051 58.171 29.9171 58.8395 26.8996C58.864 26.6004 59.1131 26.5003 59.2877 26.5748C59.4623 26.6493 59.6369 26.7239 59.737 26.973C60.0151 29.4655 59.3499 34.6519 62.3674 35.3204C65.4839 35.5151 68.6461 32.9425 71.311 31.2931C71.4356 31.243 71.6847 31.1429 71.7848 31.3921C71.8349 31.5166 71.8849 31.6412 71.8104 31.8158C68.3023 36.4082 64.3216 41.6246 64.9043 47.7564C65.0044 48.0056 64.8554 48.3548 64.5562 48.3303C60.6155 47.1646 56.7037 48.5916 53.8163 51.4879C53.1935 51.7381 52.8442 51.5891 52.9933 51.2398Z" fill="#010202"/>
</svg>
