<svg width="371" height="331" viewBox="0 0 371 331" fill="none" xmlns="http://www.w3.org/2000/svg">
<g clip-path="url(#clip0_365_8698)">
<path d="M363.215 179.13L275.098 319.353C272.208 323.953 265.997 325.37 261.397 322.48L9.89194 164.433C5.2926 161.543 3.87529 155.332 6.76552 150.733L94.9528 10.3971C97.843 5.79777 104.054 4.38046 108.653 7.27069L360.271 165.387C364.8 168.39 366.175 174.418 363.215 179.13Z" fill="#ED6D3A"/>
<path d="M271.48 219.282C296.124 180.065 275.872 122.993 226.247 91.8079C176.621 60.623 116.413 67.1346 91.7688 106.352C67.1246 145.569 87.3761 202.642 137.002 233.827C186.628 265.011 246.835 258.5 271.48 219.282Z" fill="#FFD979"/>
<path d="M173.464 139.696C168.424 150.455 176.809 161.514 185.564 159.036C194.249 156.669 196.425 151.464 195.607 147.039C194.606 142.654 177.107 131.658 173.464 139.696Z" fill="white"/>
<path d="M162.202 76.4412C170.909 76.2799 177.22 79.9327 189.98 93.7409C186.958 94.8149 184.596 95.8344 182.754 97.0236C179.463 99.0238 177.671 102.123 177.621 105.69C176.861 106.152 176.102 106.613 175.342 107.075C162.198 100.85 151.366 102.649 143.774 106.015C133.678 128.306 124.115 128.086 115.162 142.333C113.388 150.137 111.351 167.322 128.675 181.337C131.044 183.295 133.454 185.436 135.358 187.884C140.497 194.399 151.401 203.442 166.048 209.517C165.907 209.741 165.948 209.924 165.807 210.148C155.407 207.524 144.126 203.565 131.777 199.56C131.325 200.528 130.985 201.566 130.758 202.675C102.83 194.827 97.6438 190.629 93.6714 178.275C75.0087 171.867 71.6677 159.753 76.4484 151.648C63.2547 131.308 75.3115 105.398 85.3222 94.9459C94.0095 85.8526 108.203 81.941 121.047 72.9562C127.828 68.1416 136.456 66.3651 144.567 68.6459C149.381 69.9497 153.743 72.2215 157.077 75.881C157.077 75.881 156.41 72.9583 154.801 70.5388C154.073 69.4556 154.807 68.039 156.057 68.042C158.992 67.8526 162.678 70.9512 162.202 76.4412Z" fill="#A05E1E"/>
<path d="M194.276 128.988C197.081 130.75 198.956 133.494 199.553 136.528C199.803 137.625 199.982 138.833 199.867 140.012C199.736 141.964 199.198 143.816 198.07 145.611C196.026 148.864 192.734 150.865 189.139 151.109C186.61 151.397 183.873 150.773 181.517 149.292C178.937 147.671 177.145 145.293 176.408 142.483C178.141 139.973 179.246 135.973 179.076 131.015C179.752 130.188 180.582 129.615 181.412 129.041C181.483 128.929 181.595 128.999 181.665 128.887C185.392 126.691 190.35 126.521 194.276 128.988Z" fill="#00A5BA"/>
<path d="M251.834 97.4035L324.862 143.295C316.539 146.827 298.637 145.436 284.16 144.319C276.424 143.682 269.572 143.132 265.793 143.417C254.893 144.079 249.59 147.788 247.987 142.868C252.06 137.134 261.992 118.34 243.354 101.933C243.011 98.7442 246.158 98.2182 251.834 97.4035Z" fill="#7DA649"/>
<path d="M324.863 143.294L360.2 165.499C364.799 168.39 366.287 174.488 363.326 179.2L275.209 319.424C272.319 324.023 266.108 325.44 261.509 322.55L207.775 288.784C204.943 269.635 211.28 256.561 220.146 237.722C219.194 236.498 218.678 235.078 218.71 233.534C218.716 231.034 218.376 226.595 216.378 222.054L216.939 222.406C219.295 223.887 221.439 225.704 223.26 227.787C229.52 235.006 248.933 244.702 266.838 216.209C284.744 187.715 267.586 174.43 258.366 171.922C255.699 171.185 253.132 170.041 250.776 168.561L250.215 168.208C255.173 168.038 259.32 166.419 261.57 165.329C262.948 164.63 264.451 164.479 265.967 164.806C272.545 156.578 278.095 149.738 284.302 144.094C298.638 145.435 316.611 146.715 324.863 143.294Z" fill="#7DA649"/>
<path d="M243.354 101.934C261.992 118.34 252.06 137.135 247.987 142.869L229.149 144.957L222.111 145.699C207.646 157.264 195.384 157.852 190.942 153.965C190.002 153.218 189.387 152.205 189.137 151.109C192.691 150.683 196.024 148.865 198.068 145.612C199.126 143.929 199.734 141.964 199.865 140.013C202.006 137.602 202.195 135.061 201.512 132.91C200.55 129.959 197.761 127.424 195.672 126.267C201.319 125.748 202.712 118.799 201.818 116.985C198.504 116.781 195.125 114.188 193.01 112.077C189.648 108.712 183.5 101.563 190.399 94.3188C190.793 93.9406 191.187 93.5624 191.694 93.2546C194.142 91.3506 197.36 90.7125 201.529 91.2985C209.532 92.2589 219.785 97.6066 227.84 105.954L243.354 101.934Z" fill="#F8B682"/>
<path d="M191.763 93.1432C191.257 93.451 190.863 93.8292 190.469 94.2074C183.387 101.493 189.717 108.601 193.08 111.965C195.195 114.077 198.644 116.557 201.887 116.874C202.711 118.8 201.388 125.636 195.741 126.156C194.899 126.252 194.014 126.166 193.088 125.897C191.165 125.471 189.299 124.455 187.463 123.145C186.902 122.792 186.524 122.398 186.033 121.933C185.809 121.792 181.614 120.251 178.009 124.245C178.663 126.69 178.98 128.924 179.073 131.017C179.356 136.045 178.209 139.862 176.405 142.484C176.264 142.708 176.053 143.045 175.8 143.199C173.63 145.904 170.82 146.641 168.281 145.203C166.711 144.216 165.816 142.402 165.765 140.492C165.44 135.281 162.459 131.06 161.545 125.792C160.894 122.097 161.971 118.392 164.505 115.603C166.646 113.193 170.052 110.013 175.186 106.824C175.946 106.362 176.705 105.9 177.465 105.439C177.516 101.872 179.419 98.843 182.598 96.7723C184.44 95.583 186.802 94.5636 189.824 93.4896C190.526 93.6177 191.145 93.3805 191.763 93.1432Z" fill="#F8B682"/>
<path d="M266.769 216.321C248.863 244.815 229.45 235.119 223.19 227.899C221.37 225.816 219.225 223.999 216.87 222.519L200.716 212.368C213.291 209.786 222.928 203.167 229.413 192.847C235.828 182.638 237.682 170.972 234.553 158.522L250.706 168.673C253.062 170.153 255.629 171.297 258.296 172.034C267.517 174.542 284.674 187.828 266.769 216.321Z" fill="#F8B682"/>
<path d="M190.941 153.965C190.435 154.273 190.111 154.539 190.041 154.651C188.563 155.757 186.737 156.174 184.336 155.761C179.353 154.976 176.442 150.643 175.893 145.291C175.852 145.109 175.868 144.336 175.842 143.381C173.672 146.086 170.862 146.824 168.323 145.385C166.753 144.398 165.859 142.585 165.807 140.674C165.483 135.463 162.502 131.243 161.588 125.974C160.937 122.279 162.013 118.574 164.548 115.786C166.688 113.375 170.095 110.196 175.228 107.006C162.085 100.781 151.252 102.58 143.66 105.946C133.565 128.237 124.001 128.017 115.049 142.264C113.386 150.138 111.35 167.323 128.674 181.339C131.043 183.297 133.453 185.438 135.357 187.886C140.495 194.401 151.399 203.444 166.046 209.518C167.646 210.21 169.315 210.79 171.097 211.44C176.052 212.52 180.741 213.276 185.193 213.413C190.824 213.665 196.035 213.341 200.896 212.328C213.472 209.746 223.108 203.127 229.594 192.807C236.008 182.598 237.863 170.932 234.733 158.482C233.621 154.027 231.806 149.444 229.514 144.875L222.476 145.616C207.758 157.335 195.496 157.923 190.941 153.965ZM137.131 174.605C136.929 171.191 138.242 168.105 141.286 163.759C142.033 162.82 142.92 161.656 143.808 160.493C143.808 160.493 146.679 157.916 154.134 159.001C154.134 159.001 153.205 159.982 151.74 161.565C151.599 161.79 151.346 161.944 151.205 162.168C151.064 162.392 150.994 162.505 150.74 162.658C150.599 162.883 150.276 163.149 150.135 163.373C149.065 164.578 147.965 166.078 146.796 167.691C143.851 171.63 140.862 176.636 139.375 181.492C138.202 178.877 137.407 176.656 137.131 174.605ZM176.441 168.325C178.316 171.068 178.493 173.526 177.096 176.247C175.247 179.936 170.664 181.751 165.826 190.446C163.09 195.299 158.93 196.44 154.174 194.546C148.674 192.342 148.096 187.285 149.189 182.808C152.081 171.481 160.689 166.25 163.458 165.33C168.335 163.544 173.572 164.175 176.441 168.325Z" fill="#F8B682"/>
<path d="M195.786 126.337C197.875 127.494 200.552 129.958 201.626 132.98C201.414 133.317 201.273 133.541 201.315 133.724C200.934 134.579 200.552 135.435 199.918 136.445L199.777 136.669C198.998 133.676 197.305 130.891 194.501 129.129C190.462 126.591 185.505 126.761 181.707 129.069C181.919 128.733 182.059 128.508 182.13 128.396C183.2 127.191 184.271 125.986 185.636 124.81C186.03 124.431 186.536 124.124 187.042 123.816C187.113 123.704 187.366 123.55 187.69 123.284C189.456 124.707 191.392 125.61 193.315 126.036C194.058 126.347 194.943 126.433 195.786 126.337Z" fill="white"/>
<path d="M201.511 132.911C202.306 135.132 202.005 137.603 199.865 140.013C199.98 138.834 199.913 137.696 199.55 136.529L199.691 136.305C200.255 135.408 200.819 134.51 201.088 133.584C201.271 133.542 201.3 133.247 201.511 132.911Z" fill="#F8B682"/>
<path d="M185.964 122.044C186.455 122.509 186.945 122.973 187.394 123.255C187.141 123.409 186.929 123.746 186.747 123.787C186.24 124.095 185.846 124.473 185.34 124.781C183.975 125.957 182.792 127.092 181.834 128.368C181.764 128.48 181.623 128.704 181.411 129.041C181.341 129.153 181.229 129.083 181.158 129.195C180.328 129.769 179.61 130.413 178.822 131.169C178.729 129.076 178.411 126.843 177.757 124.397C181.545 120.362 185.67 122.015 185.964 122.044Z" fill="#F8B682"/>
<path d="M176.441 168.323C178.317 171.067 178.493 173.525 177.096 176.246C175.247 179.935 170.665 181.749 165.826 190.445C163.09 195.297 158.93 196.439 154.174 194.545C148.674 192.341 148.097 187.284 149.189 182.806C152.082 171.48 160.689 166.249 163.458 165.328C168.336 163.543 173.573 164.173 176.441 168.323Z" fill="white"/>
<path d="M165.694 210.078C156.521 233.888 127.359 219.787 130.715 202.493C130.872 201.496 131.212 200.458 131.734 199.378C144.124 203.565 155.406 207.525 165.694 210.078Z" fill="#F8B682"/>
<path d="M154.318 158.958C154.318 158.958 153.389 159.939 151.924 161.523C151.783 161.747 151.53 161.901 151.389 162.125C151.248 162.349 151.178 162.462 150.924 162.616C150.783 162.84 150.46 163.106 150.319 163.33C149.248 164.535 148.149 166.035 146.98 167.648C144.035 171.587 141.045 176.593 139.559 181.449C138.203 178.875 137.408 176.655 137.315 174.562C137.112 171.149 138.426 168.062 141.47 163.716C142.217 162.777 143.104 161.613 143.992 160.45C143.809 160.492 146.793 157.985 154.318 158.958Z" fill="#8E4020"/>
<path d="M168.733 179.596C169.512 178.357 167.23 175.522 163.637 173.264C160.043 171.005 156.499 170.179 155.72 171.419C154.942 172.658 157.224 175.493 160.817 177.751C164.41 180.009 167.955 180.835 168.733 179.596Z" fill="#414047"/>
<path d="M202.014 117.42C204.235 116.625 206.107 115.141 207.6 113.263C200.334 109.636 191.517 102.999 189.977 94.9907C183.809 102.068 189.803 108.964 193.123 112.146C195.239 114.258 198.688 116.738 201.931 117.055C201.931 117.055 201.973 117.237 202.014 117.42Z" fill="#C46E4A"/>
<path d="M250.085 134.799C243.977 134.559 237.644 134.179 231.561 134.894C228.485 135.308 225.674 136.045 222.723 137.007C220.572 137.69 218.435 138.851 216.201 139.168C211.044 140.153 207.57 136.717 205.868 132.205C204.919 129.731 204.405 127.062 202.838 124.825C202.264 123.995 201.62 123.277 200.905 122.671C199.96 124.425 198.201 125.979 195.672 126.268C197.762 127.425 200.438 129.889 201.512 132.911C202.307 135.132 202.006 137.603 199.866 140.013C199.735 141.965 199.196 143.817 198.069 145.612C196.024 148.865 192.733 150.866 189.137 151.11C189.387 152.206 190.003 153.218 190.942 153.965C195.497 157.922 207.758 157.334 222.111 145.699L229.149 144.958L247.987 142.869C249.157 141.257 250.807 138.382 252.22 134.888C251.518 134.76 250.858 134.815 250.085 134.799Z" fill="#C46E4A"/>
<path d="M164.963 124.339C164.28 122.188 163.667 119.926 163.308 117.509C161.687 120.089 161.033 123.121 161.518 126.086C162.432 131.354 165.413 135.575 165.737 140.786C165.789 142.696 166.683 144.51 168.253 145.497C170.68 146.865 173.561 146.015 175.772 143.493C175.913 143.268 176.124 142.932 176.377 142.778C176.518 142.554 176.589 142.441 176.73 142.217C171.236 137.513 167.236 130.931 164.963 124.339Z" fill="#C46E4A"/>
<path d="M237.319 203.92C235.608 203.157 233.422 201.158 233.918 199.122C234.075 198.126 234.822 197.187 235.161 196.148C235.812 194.366 236.645 192.542 237.295 190.76C238.807 186.86 239.8 182.79 240.204 178.662C240.78 172.765 240.064 166.682 238.295 161.032L234.48 158.635C237.61 171.086 235.826 182.64 229.341 192.96C222.926 203.168 213.219 209.9 200.644 212.481L216.797 222.632C219.153 224.113 221.297 225.929 223.118 228.012C229.378 235.232 248.791 244.928 266.696 216.434C269.375 212.172 271.182 208.3 272.483 204.736C270.079 205.573 258.616 212.609 237.319 203.92Z" fill="#C46E4A"/>
<path d="M207.022 199.591C197.01 199.089 187.117 196.158 178.152 192.246C174.546 190.762 171.082 189.054 167.688 187.235C167.053 188.244 166.419 189.254 165.714 190.376C162.977 195.228 158.818 196.369 154.061 194.476C148.562 192.272 147.984 187.214 149.076 182.737C149.602 180.407 150.576 178.359 151.409 176.535C150.96 176.253 150.47 175.789 150.021 175.507C148.143 174.014 146.447 172.479 144.639 170.873C142.525 174.239 140.564 177.857 139.446 181.379C138.09 178.806 137.295 176.585 137.201 174.492C137.054 171.74 137.832 169.256 139.806 166.115C131.219 157.12 124.237 146.317 121.303 134.302C119.121 136.53 117.093 139.011 114.978 142.376C113.386 150.138 111.35 167.323 128.674 181.339C131.043 183.297 133.453 185.438 135.357 187.886C140.495 194.401 151.399 203.444 166.046 209.518C167.646 210.21 169.315 210.79 171.097 211.44C176.052 212.52 180.741 213.276 185.193 213.413C190.824 213.665 196.035 213.341 200.896 212.328C211.716 210.051 220.506 204.778 226.761 196.816C220.422 198.935 213.721 199.888 207.022 199.591Z" fill="#C46E4A"/>
<path d="M191.485 127.702L192.036 126.327C192.106 126.215 192.247 125.991 192.318 125.879C190.578 125.411 188.937 124.536 187.395 123.255C187.142 123.408 186.93 123.745 186.748 123.787C186.241 124.094 185.847 124.473 185.341 124.78C183.976 125.957 182.793 127.091 181.835 128.367C181.765 128.479 181.624 128.704 181.412 129.04C184.45 127.194 188.187 126.725 191.485 127.702Z" fill="#AECCDE"/>
<path d="M201.511 132.911C202.306 135.132 202.005 137.603 199.865 140.013C199.98 138.834 199.913 137.696 199.55 136.529L199.691 136.305C200.255 135.408 200.819 134.51 201.088 133.584C201.271 133.542 201.3 133.247 201.511 132.911Z" fill="#F8B682"/>
<path d="M185.964 122.044C186.455 122.509 186.945 122.973 187.394 123.255C187.141 123.409 186.929 123.746 186.747 123.787C186.24 124.095 185.846 124.473 185.34 124.781C183.975 125.957 182.792 127.092 181.834 128.368C181.764 128.48 181.623 128.704 181.411 129.041C181.341 129.153 181.229 129.083 181.158 129.195C180.328 129.769 179.61 130.413 178.822 131.169C178.729 129.076 178.411 126.843 177.757 124.397C181.545 120.362 185.67 122.015 185.964 122.044Z" fill="#C46E4A"/>
<path d="M159.342 177.608C163.933 172.044 170.131 170.149 176.666 168.466C176.666 168.466 176.554 168.395 176.624 168.283C173.755 164.133 168.519 163.502 163.529 165.217C160.689 166.25 152.082 171.481 149.26 182.695C148.196 186.878 148.844 191.823 153.796 194.152C153.6 188.239 155.214 182.682 159.342 177.608Z" fill="#AECCDE"/>
<path d="M137.249 172.173C137.051 172.987 137.147 173.83 137.131 174.603C137.336 176.766 138.09 178.804 139.375 181.49C140.862 176.634 143.851 171.628 146.796 167.689C147.966 166.076 149.177 164.647 150.135 163.371C144.978 164.356 140.338 166.76 137.249 172.173Z" fill="#7E2A0A"/>
<path d="M165.694 210.078C156.521 233.888 127.359 219.787 130.715 202.493C130.872 201.496 131.212 200.458 131.734 199.378C144.124 203.565 155.406 207.525 165.694 210.078Z" fill="#C46E4A"/>
<path d="M164.758 173.969C164.758 173.969 164.646 173.898 164.758 173.969C160.496 171.29 156.637 169.96 155.72 171.419C154.874 172.765 157.073 175.242 160.48 177.539C161.608 175.744 163.086 174.639 164.758 173.969Z" fill="black"/>
<path d="M115.98 129.077C110.468 126.395 105.853 129.754 101.114 132.566C91.3106 138.454 79.7825 137.625 76.105 125.3C74.7681 120.704 74.3444 115.9 74.8758 111.071C69.7624 123.192 67.8573 138.425 76.4063 151.465C71.6256 159.57 75.0371 171.572 93.6293 178.092C97.6017 190.446 102.788 194.644 130.716 202.492C130.873 201.496 131.212 200.457 131.735 199.377C144.196 203.452 155.477 207.412 165.765 209.965C165.906 209.741 165.864 209.558 166.005 209.334C151.358 203.259 140.454 194.216 135.316 187.701C133.412 185.253 131.114 183.183 128.633 181.154C111.351 167.321 113.387 150.136 114.979 142.374C116.953 139.233 118.981 136.752 121.093 134.637C119.779 132.246 118.253 130.192 115.98 129.077Z" fill="#884113"/>
<path d="M161.854 97.6609C153.473 96.3063 145.016 97.5636 143.956 105.973C151.548 102.607 162.309 100.92 175.341 107.075C176.101 106.614 176.86 106.152 177.62 105.69C177.636 104.918 177.693 104.328 177.934 103.697C172.857 100.82 167.54 98.5736 161.854 97.6609Z" fill="#884113"/>
<path d="M196.131 140.48C191.196 148.333 181.19 145.331 178.074 138.835C177.635 140.28 177.043 141.473 176.338 142.594C177.146 145.293 178.867 147.783 181.447 149.404C183.803 150.885 186.54 151.509 189.068 151.22C192.623 150.794 195.955 148.976 198 145.723C199.057 144.04 199.666 142.076 199.797 140.124C199.912 138.944 199.845 137.807 199.482 136.64C199.024 134.631 198.13 132.817 196.729 131.311C198.197 133.955 198.245 137.115 196.131 140.48Z" fill="#00849F"/>
<path d="M272.79 130.29C271.611 130.174 270.361 130.171 269.182 130.056C268.887 130.027 268.409 130.04 268.409 130.04C266.4 130.499 264.557 131.688 262.59 132.329C259.568 133.403 256.055 134.013 252.658 133.443C251.3 137.596 249.367 140.92 248.057 142.756C249.66 147.676 254.963 143.967 265.863 143.306C269.754 143.09 276.423 143.682 284.23 144.207C298.707 145.324 316.568 146.533 324.932 143.183L305.301 130.847C294.401 131.508 283.588 131.285 272.79 130.29Z" fill="#277342"/>
<path d="M278.593 314.039C276.862 309.822 275.313 305.563 273.694 301.416C271.251 295.343 268.696 289.199 266.689 282.931C262.48 269.958 260.856 256.107 259.316 242.621C254.249 241.471 251.534 237.574 250.015 233.02C238.077 238.819 227.545 232.67 223.26 227.787C221.439 225.704 219.295 223.887 216.939 222.406L216.378 222.054C218.376 226.595 218.716 231.034 218.71 233.534C218.678 235.078 219.194 236.498 220.146 237.722C211.098 256.603 204.831 269.564 207.775 288.784L261.509 322.55C266.108 325.44 272.248 324.135 275.209 319.424L278.593 314.039Z" fill="#277342"/>
<path d="M290.136 153.236C296.258 153.953 302.254 154.122 308.321 154.179C315.272 154.323 322.281 153.876 329.165 152.882C332.059 152.51 334.911 151.955 337.834 151.288L324.933 143.181C316.611 146.714 298.708 145.322 284.232 144.205C282.078 146.138 279.967 148.254 277.896 150.552C281.797 152.064 286.191 152.791 290.136 153.236Z" fill="#277342"/>
<path d="M177.62 105.691C177.709 103.557 178.36 101.775 179.529 100.162C181.607 106.319 184.992 111.888 190.501 115.82C193.95 118.3 197.78 119.925 201.71 121.142C201.002 123.514 199.085 126.065 195.784 126.338C194.941 126.434 194.057 126.348 193.131 126.079C191.208 125.652 189.342 124.637 187.506 123.326C186.945 122.974 186.567 122.58 186.076 122.115C179.602 116.482 177.553 110.03 177.62 105.691Z" fill="#C46E4A"/>
<path d="M182.597 155.291C181.314 151.356 182.638 149.997 182.638 149.997C182.638 149.997 177.324 146.501 176.362 143.55C174.763 148.335 178.052 153.061 182.597 155.291Z" fill="#AECCDE"/>
<path d="M229.972 193.2C220.737 207.895 205.272 215.076 185.065 214.114C179.139 213.832 172.822 212.679 166.085 210.95C163.259 217.937 158.376 222.222 152.081 223.274C145.31 224.339 137.874 221.231 133.31 215.546C129.502 210.65 128.533 204.721 130.92 199.179C131.131 198.843 131.385 198.689 131.792 198.788C133.868 199.467 135.945 200.146 138.022 200.826C147.817 204.164 156.938 207.079 165.232 209.318C165.232 209.318 165.232 209.318 165.303 209.206C165.402 208.799 165.768 208.716 166.175 208.815C166.582 208.914 166.665 209.28 166.566 209.687C173.19 211.346 179.325 212.541 185.138 212.752C204.868 213.727 219.898 206.741 228.85 192.495C229.062 192.158 229.427 192.075 229.764 192.286C230.1 192.498 230.184 192.863 229.972 193.2ZM131.942 200.291C130.161 205.118 130.963 210.316 134.463 214.706C138.649 219.997 145.678 223.006 151.972 221.954C155.962 221.331 161.445 218.831 164.864 210.652C156.499 208.525 147.448 205.497 137.654 202.159C135.76 201.438 133.907 200.9 131.942 200.291Z" fill="black"/>
<path d="M215.501 184.106L214.232 186.125C214.021 186.462 213.655 186.545 213.319 186.334C212.982 186.122 212.899 185.757 213.11 185.421L214.379 183.401C214.591 183.065 214.956 182.981 215.293 183.193C215.629 183.404 215.712 183.77 215.501 184.106Z" fill="black"/>
<path d="M206.303 178.326C203.271 183.15 199.202 187.634 195.529 190.49C193.152 192.282 191.296 192.993 189.162 192.904C188.867 192.875 188.601 192.551 188.517 192.186C188.546 191.891 188.87 191.625 189.235 191.542C190.415 191.657 191.988 191.394 194.69 189.336C198.221 186.705 202.22 182.333 205.181 177.621C205.392 177.285 205.758 177.201 206.094 177.413C206.431 177.624 206.514 177.989 206.303 178.326Z" fill="black"/>
<path d="M196.993 172.475C193.327 178.308 188.962 177.286 186.815 176.719C186.408 176.62 186.142 176.296 186.241 175.889C186.34 175.482 186.593 175.328 187 175.427C189.148 175.994 192.699 176.818 195.871 171.77C196.083 171.433 196.448 171.35 196.784 171.561C197.121 171.773 197.204 172.138 196.993 172.475Z" fill="black"/>
<path d="M171.546 211.722C171.406 211.946 171.04 212.03 170.745 212.001C153.233 206.004 140.451 195.468 134.851 188.193C133.213 186.069 131.098 183.957 128.28 181.717C119.562 174.674 110.183 162.208 114.459 142.206C114.53 142.094 114.53 142.094 114.6 141.982C118.336 136.036 121.996 132.703 125.979 129.103C131.539 123.991 137.282 118.836 143.212 105.664C143.283 105.551 143.353 105.439 143.536 105.398C153.855 100.929 164.598 101.264 175.694 106.515C176.03 106.727 176.113 107.092 176.085 107.387C175.873 107.724 175.508 107.807 175.213 107.778C164.636 102.697 154.259 102.278 144.376 106.551C138.374 119.836 132.562 125.102 126.89 130.144C122.977 133.632 119.5 136.924 115.793 142.574C112.426 158.141 116.889 170.96 129.027 180.778C131.956 183.088 134.072 185.2 135.822 187.395C141.38 194.487 153.938 204.882 171.226 210.738C171.633 210.838 171.716 211.203 171.617 211.61C171.617 211.61 171.546 211.722 171.546 211.722Z" fill="black"/>
<path d="M156.565 216.391C156.424 216.616 156.241 216.657 156.058 216.699C155.763 216.67 155.427 216.459 155.414 215.981C155.414 215.981 155.449 213.186 153.654 212.059C151.655 214.245 148.296 215.107 145.546 214.005C142.796 212.903 141.187 210.483 141.251 207.394C139.51 206.926 137.937 207.189 136.46 208.295C136.136 208.561 135.729 208.462 135.575 208.209C135.309 207.885 135.408 207.478 135.661 207.324C136.956 206.26 139.206 205.17 142.25 206.301C142.475 206.442 142.629 206.695 142.67 206.878C142.453 209.714 143.796 211.81 146.209 212.7C148.735 213.662 151.616 212.812 153.25 210.709C153.391 210.485 153.756 210.402 153.981 210.543C156.997 211.968 156.917 215.83 156.959 216.013C156.635 216.279 156.565 216.391 156.565 216.391Z" fill="black"/>
<path d="M154.879 159.311L154.808 159.423C154.738 159.536 143.574 170.828 140.191 181.689C140.162 181.984 139.909 182.138 139.614 182.109C139.319 182.08 139.095 181.939 138.941 181.686C134.523 173.277 136.205 168.858 143.39 159.915C143.643 159.761 146.697 157.142 154.334 158.186C154.629 158.215 154.853 158.356 154.824 158.651C154.908 159.016 154.949 159.199 154.879 159.311ZM143.586 171.305C146.97 165.921 151.04 161.436 152.786 159.404C146.706 158.87 144.3 160.957 144.3 160.957C137.51 169.521 136.321 173.155 139.367 179.763C140.427 176.831 141.895 173.997 143.586 171.305Z" fill="black"/>
<path d="M154.994 158.132C152.651 157.129 150.055 156.28 147.485 156.386C147.007 156.399 146.84 155.669 147.389 155.543C150.212 155.284 152.949 155.908 155.475 156.869C155.882 156.969 155.965 157.334 155.866 157.741C155.725 157.965 155.289 158.161 154.994 158.132Z" fill="black"/>
<path d="M152.414 161.988C152.273 162.212 152.09 162.254 151.907 162.296C145.152 162.588 141.819 164.406 141.707 164.335C141.453 164.489 141.046 164.39 140.78 164.066C140.627 163.813 140.726 163.406 141.049 163.14C141.232 163.098 144.748 161.239 151.798 160.975C152.164 160.892 152.43 161.215 152.513 161.581C152.443 161.693 152.484 161.876 152.414 161.988Z" fill="black"/>
<path d="M147.541 168C147.47 168.112 147.4 168.224 147.217 168.266C140.202 171.212 137.764 174.843 137.693 174.956C137.482 175.292 137.116 175.375 136.78 175.164C136.443 174.953 136.36 174.587 136.571 174.251C136.642 174.138 139.179 170.1 146.672 167.141C147.037 167.058 147.444 167.157 147.528 167.522C147.64 167.593 147.611 167.888 147.541 168Z" fill="black"/>
<path d="M279.893 224.569C278.836 226.252 277.596 227.976 276.426 229.589C276.214 229.925 275.737 229.938 275.583 229.685C275.429 229.432 275.234 228.996 275.487 228.842C276.769 227.3 277.826 225.618 278.883 223.935C279.095 223.598 279.46 223.515 279.797 223.726C280.133 223.938 280.104 224.233 279.893 224.569Z" fill="black"/>
<path d="M269.529 235.582C271.641 233.467 273.711 231.168 275.445 228.659C275.938 227.874 276.989 228.691 276.496 229.476C276.031 229.966 268.751 238.066 269.529 235.582Z" fill="black"/>
<path d="M231.249 245.951C231.108 246.175 230.672 246.371 230.447 246.23C226.169 244.323 222.23 241.378 219.681 238.212C218.729 236.988 218.172 235.386 218.162 233.658C218.139 231.453 217.799 227.015 215.802 222.474C215.718 222.108 215.817 221.701 216.183 221.618C216.548 221.535 216.955 221.634 217.039 221.999C219.077 226.723 219.459 231.344 219.524 233.732C219.562 235.164 220.037 236.401 220.765 237.485C223.159 240.398 226.874 243.201 230.97 245.149C231.335 245.066 231.418 245.431 231.249 245.951C231.249 245.951 231.319 245.838 231.249 245.951Z" fill="black"/>
<path d="M208.336 289.137C208.265 289.249 208.012 289.403 207.829 289.445C207.464 289.528 207.128 289.317 207.115 288.839C204.282 269.691 210.578 256.435 219.345 238.002L219.585 237.371C219.796 237.034 220.162 236.951 220.457 236.98C220.793 237.191 220.877 237.557 220.848 237.851L220.607 238.483C211.982 256.691 205.757 269.835 208.506 288.618C208.365 288.842 208.406 289.025 208.336 289.137Z" fill="black"/>
<path d="M177.234 177.271C176.459 178.505 175.347 179.528 174.023 180.887C171.912 183.002 169.153 185.65 166.275 190.727C163.468 195.691 159.097 197.169 153.822 195.106C148.953 193.142 146.914 188.418 148.375 182.608C151.226 171.099 159.904 165.755 163.109 164.64C168.788 162.575 174.079 163.866 177.018 167.904C179.006 170.717 179.154 173.47 177.728 176.486C177.516 176.823 177.375 177.047 177.234 177.271ZM166.352 188.115C168.819 184.189 171.184 181.919 173.155 180.028C174.661 178.627 175.843 177.493 176.465 176.006C177.791 173.397 177.657 171.121 175.865 168.743C173.416 165.17 168.644 164.049 163.513 165.989C160.673 167.021 152.431 172.169 149.638 183.088C149.042 185.531 148.213 191.582 154.232 193.956C158.988 195.849 162.629 194.538 165.083 190.134C165.576 189.349 165.929 188.788 166.352 188.115Z" fill="black"/>
<path d="M169.293 179.948C167.742 182.416 163.044 179.933 160.351 178.241C157.659 176.549 153.383 173.393 154.934 170.925C156.062 169.13 159.389 169.812 163.876 172.632C166.12 174.042 170.844 177.48 169.293 179.948ZM156.168 171.7C155.675 172.486 157.018 174.582 161.168 177.19C165.319 179.798 167.79 180.099 168.284 179.314C168.847 178.416 167.322 176.362 163.283 173.824C159.357 171.357 156.662 170.915 156.168 171.7Z" fill="black"/>
<path d="M229.974 193.198C229.762 193.534 229.397 193.618 229.06 193.406C228.724 193.195 228.64 192.829 228.852 192.493C237.593 178.583 237.52 162.264 228.644 145.263C228.49 145.01 228.589 144.603 228.913 144.337C229.166 144.183 229.573 144.282 229.839 144.606C238.911 162.042 238.997 178.839 229.974 193.198Z" fill="black"/>
<path d="M216.841 181.974L215.572 183.994C215.36 184.33 214.995 184.414 214.659 184.202C214.322 183.991 214.239 183.625 214.45 183.289L215.719 181.269C215.93 180.933 216.296 180.85 216.632 181.061C216.969 181.273 216.982 181.75 216.841 181.974Z" fill="black"/>
<path d="M206.303 178.324C206.092 178.66 205.726 178.744 205.39 178.532C205.053 178.321 204.97 177.956 205.181 177.619C208.142 172.907 210.459 167.478 211.186 163.084C211.868 159.757 211.352 158.338 210.807 157.213C210.653 156.96 210.752 156.553 211.076 156.287C211.329 156.133 211.736 156.232 212.002 156.556C212.967 158.257 213.131 160.238 212.589 163.34C211.609 167.888 209.334 173.5 206.303 178.324Z" fill="black"/>
<path d="M196.994 172.473C196.782 172.809 196.417 172.893 196.08 172.681C195.744 172.47 195.66 172.104 195.872 171.768C199.044 166.72 196.762 163.877 195.431 162.259L195.896 161.769L196.473 161.349C197.845 163.15 200.659 166.639 196.994 172.473Z" fill="black"/>
<path d="M131.277 202.845C131.136 203.07 130.883 203.224 130.476 203.124C102.324 195.135 96.9838 190.684 93.1654 178.583C83.5535 175.203 77.0502 169.864 74.7483 163.567C73.2416 159.491 73.6032 155.18 75.6346 151.449C61.8542 129.802 75.8499 103.546 84.8609 94.1868C89.9015 88.9046 96.862 85.2983 104.188 81.6086C109.7 78.8133 115.282 75.9058 120.657 72.0849C127.761 67.0043 136.613 65.3688 144.725 67.6496C149.019 68.7836 152.638 70.7446 155.609 73.2376C155.218 72.3659 154.715 71.4238 154.141 70.5938C153.609 69.9464 153.583 68.9914 153.964 68.1357C154.387 67.4626 155.147 67.001 155.919 67.0169C157.759 67.0776 159.512 68.0228 160.8 69.4584C162.243 71.1472 162.926 73.2976 162.99 75.6852C171.739 75.7066 178.287 79.9779 190.557 93.3214C190.823 93.6451 190.795 93.94 190.583 94.2765C190.259 94.5425 189.965 94.5137 189.628 94.3022C177.358 80.9587 170.964 76.9406 162.369 77.1724C162.186 77.214 161.961 77.0731 161.849 77.0026C161.737 76.9321 161.583 76.6789 161.724 76.4545C162.012 73.506 160.894 71.5512 159.983 70.5097C158.849 69.3273 157.432 68.5935 155.958 68.4495C155.48 68.4624 155.339 68.6867 155.198 68.9111C155.057 69.1354 154.958 69.5425 155.224 69.8661C156.945 72.3561 157.724 75.3493 157.654 75.4615C157.737 75.8269 157.596 76.0512 157.343 76.2051C157.09 76.359 156.795 76.3302 156.529 76.0065C153.391 72.7828 149.282 70.3572 144.356 68.9829C136.581 66.9135 128.277 68.424 121.496 73.2386C116.052 77.1716 110.287 80.1208 104.775 82.9161C97.5608 86.6763 90.7413 90.0583 85.7712 95.2283C74.9016 106.549 64.6011 132.154 76.9133 151.158C77.0672 151.411 77.0384 151.706 76.9679 151.818C74.9653 155.254 74.6324 159.269 75.9854 163.093C78.1334 169.137 84.4828 174.222 93.8703 177.461C94.0947 177.602 94.2068 177.673 94.2485 177.855C98.0253 189.774 102.804 193.872 130.845 201.791C131.252 201.89 131.335 202.256 131.306 202.551C131.277 202.845 131.277 202.845 131.277 202.845Z" fill="black"/>
<path d="M165.939 138.721C165.869 138.833 165.798 138.945 165.686 138.874C165.433 139.028 165.026 138.929 164.76 138.605C162.83 135.202 162.429 132.603 162.349 130.988C162.377 130.693 162.589 130.356 162.954 130.273C163.249 130.302 163.586 130.513 163.669 130.879C163.708 132.311 164.137 134.615 165.913 137.766C166.109 138.201 166.08 138.496 165.939 138.721Z" fill="black"/>
<path d="M164.919 141.837C162.958 139.979 161.096 137.713 160.217 135.127C160.175 134.944 160.204 134.649 160.57 134.566C160.752 134.524 160.977 134.665 161.018 134.848C161.493 136.085 162.22 137.168 163.019 138.139C163.817 139.11 164.797 140.039 165.778 140.969C166.115 141.18 166.128 141.658 165.804 141.924C165.551 142.078 165.185 142.161 164.919 141.837Z" fill="black"/>
<path d="M267.44 216.745C259.897 228.748 250.963 235.496 241.79 236.147C233.278 236.745 226.323 232.374 222.906 228.349C221.086 226.266 219.054 224.52 216.698 223.039L200.544 212.888C200.208 212.677 200.124 212.311 200.336 211.975C200.547 211.638 200.913 211.555 201.249 211.767L217.403 221.918C219.871 223.468 222.015 225.285 223.877 227.551C227.14 231.323 233.759 235.482 241.681 234.827C250.559 234.147 259.057 227.595 266.318 216.04C273.649 204.374 275.866 193.874 272.557 185.693C269.598 178.2 263.092 174.111 258.278 172.808C255.499 172 252.862 170.969 250.394 169.418L234.24 159.267C233.903 159.055 233.82 158.69 234.032 158.353C234.243 158.017 234.608 157.933 234.945 158.145L251.099 168.296C253.454 169.776 255.91 170.85 258.576 171.587C263.685 172.919 270.64 177.29 273.794 185.218C277.186 193.765 274.983 204.742 267.44 216.745Z" fill="black"/>
<path d="M279.894 224.568C279.682 224.905 279.317 224.988 278.981 224.777C278.644 224.565 278.561 224.2 278.772 223.863C279.9 222.068 280.845 220.315 281.79 218.562C282.002 218.226 282.367 218.142 282.662 218.171C282.999 218.382 283.082 218.748 283.053 219.043C282.038 220.908 281.022 222.773 279.894 224.568Z" fill="black"/>
<path d="M286.021 210.583C285.256 213.544 284.266 216.364 282.981 219.156C282.769 219.493 282.404 219.576 282.109 219.547C281.773 219.336 281.689 218.97 281.718 218.675C283.044 216.067 284.329 213.275 285.207 210.384C285.377 209.865 286.191 210.063 286.021 210.583Z" fill="black"/>
<path d="M278.056 171.465C277.845 171.801 277.367 171.814 277.031 171.603C273.499 168.757 269.432 166.514 265.698 165.733C264.477 165.435 263.086 165.656 261.778 166.243C259.599 167.221 255.382 168.952 250.129 169.094C249.764 169.177 249.498 168.853 249.414 168.488C249.331 168.123 249.654 167.857 250.02 167.773C254.978 167.603 259.125 165.984 261.121 165.048C262.682 164.307 264.368 164.115 265.884 164.441C269.842 165.364 274.092 167.565 277.778 170.664C278.185 170.763 278.197 171.241 278.056 171.465Z" fill="black"/>
<path d="M284.65 144.784L284.58 144.896C278.514 150.317 273.146 157.115 266.779 165.006L266.315 165.496C266.103 165.833 265.626 165.846 265.36 165.522C265.023 165.311 265.01 164.833 265.334 164.567L265.798 164.077C272.166 156.185 277.645 149.458 283.782 143.925C284.105 143.659 284.512 143.759 284.666 144.012C284.891 144.153 284.862 144.448 284.65 144.784Z" fill="black"/>
<path d="M188.066 123.679C187.996 123.792 187.925 123.904 187.813 123.833C187.124 124.183 186.477 124.715 185.9 125.135C184.352 126.353 182.958 127.824 181.789 129.436C181.577 129.773 181.1 129.785 180.875 129.644C180.539 129.433 180.526 128.955 180.667 128.731C181.837 127.119 183.413 125.606 185.031 124.276C185.679 123.744 186.438 123.282 187.086 122.75C187.339 122.596 187.746 122.695 188.012 123.019C188.166 123.272 188.207 123.455 188.066 123.679Z" fill="black"/>
<path d="M200.225 136.951C200.013 137.288 199.648 137.371 199.311 137.16C198.975 136.948 198.892 136.583 199.103 136.247L199.244 136.022C200.019 134.788 200.542 133.708 200.769 132.599C200.868 132.192 201.122 132.038 201.529 132.138C201.936 132.237 202.089 132.49 201.99 132.897C201.692 134.118 201.141 135.493 200.183 136.769L200.225 136.951Z" fill="black"/>
<path d="M191.391 154.246L191.32 154.358C189.35 156.249 187.087 156.862 184.279 156.349C179.296 155.565 175.908 151.245 175.304 145.233C175.179 144.685 175.307 143.983 175.323 143.21C175.352 142.916 175.676 142.65 176.041 142.566C176.336 142.595 176.602 142.919 176.685 143.284C176.599 144.169 176.724 144.717 176.695 145.011C177.244 150.363 180.324 154.177 184.536 154.946C187.048 155.429 188.833 154.83 190.41 153.317C190.734 153.051 191.028 153.079 191.365 153.291C191.561 153.727 191.532 154.022 191.391 154.246Z" fill="black"/>
<path d="M198.63 145.962C194.894 151.908 187.039 153.7 181.094 149.964C178.513 148.343 176.497 145.824 175.718 142.831C175.635 142.465 175.846 142.129 176.212 142.045C176.577 141.962 176.913 142.174 176.997 142.539C177.805 145.237 179.555 147.432 181.798 148.842C187.071 152.155 194.125 150.642 197.508 145.257C200.892 139.873 199.308 132.931 193.923 129.547C189.212 126.587 183.171 127.485 179.495 131.591C179.284 131.927 178.806 131.94 178.54 131.616C178.204 131.405 178.191 130.927 178.514 130.661C182.655 126.065 189.468 125.183 194.628 128.426C200.574 132.162 202.366 140.017 198.63 145.962Z" fill="black"/>
<path d="M225.545 143.473L225.474 143.585L222.603 146.162C222.279 146.429 221.984 146.4 221.648 146.188C221.382 145.865 221.411 145.57 221.622 145.233L224.493 142.656C224.817 142.39 225.112 142.419 225.448 142.63C225.715 142.954 225.686 143.249 225.545 143.473Z" fill="black"/>
<path d="M236.366 116.79C236.295 116.902 236.225 117.014 236.113 116.944C235.859 117.097 235.452 116.998 235.186 116.674C227.259 102.148 212.24 93.1791 201.542 91.7767C196.895 91.2036 193.536 92.0661 190.96 94.672C186.201 99.5055 187.086 105.069 193.545 111.475C195.926 113.91 199.67 116.419 202.788 116.188C204.291 116.037 205.557 115.268 206.586 113.88C207.755 112.268 208.153 110.64 207.624 108.743C206.832 105.272 203.498 101.612 198.799 99.129C198.463 98.9175 198.379 98.5522 198.591 98.2156C198.802 97.8791 199.168 97.7957 199.504 98.0072C204.539 100.702 208.251 104.756 209.014 108.521C209.515 110.713 209.06 112.931 207.637 114.697C206.397 116.422 204.766 117.274 202.785 117.438C199.189 117.682 195.109 114.961 192.503 112.385C185.625 105.403 184.756 99.0666 189.979 93.7427C192.767 90.8003 196.561 89.7422 201.615 90.4146C212.608 91.8458 228.076 101.096 236.27 115.947C236.536 116.27 236.507 116.565 236.366 116.79Z" fill="black"/>
<path d="M205.532 103.356C205.32 103.693 204.955 103.776 204.618 103.565C204.282 103.353 204.198 102.988 204.339 102.764C205.525 100.379 205.179 98.4402 205.179 98.4402C205.095 98.0749 205.307 97.7383 205.672 97.6549C206.037 97.5716 206.374 97.7831 206.457 98.1484C206.457 98.1484 206.887 100.453 205.532 103.356Z" fill="black"/>
<path d="M201.296 123.542C201.085 123.879 200.944 124.103 200.732 124.44C199.45 125.981 197.073 127.773 192.932 126.892C187.458 125.643 181.489 119.702 178.194 111.998C175.415 105.713 177.058 99.8611 182.445 96.5178C184.977 94.9791 188.027 93.6103 191.639 92.5939C192.005 92.5105 192.341 92.722 192.424 93.0874C192.508 93.4527 192.296 93.7892 191.931 93.8726C188.431 94.9595 185.451 96.2162 183.102 97.7131C178.292 100.637 176.889 105.857 179.319 111.453C182.419 118.721 188.05 124.451 193.188 125.488C195.925 126.113 198.075 125.43 199.569 123.552C201.273 121.337 201.632 118.277 201.129 117.334C201.045 116.969 201.145 116.562 201.51 116.479C201.875 116.395 202.282 116.495 202.366 116.86C203.093 117.943 202.847 121.074 201.296 123.542Z" fill="black"/>
<path d="M201.385 139.089C201.103 139.538 200.821 139.987 200.427 140.365C200.215 140.701 199.738 140.714 199.472 140.39C199.135 140.179 199.122 139.701 199.446 139.435C200.981 137.74 201.448 136 201.214 134.131C200.688 130.984 197.928 128.155 195.502 126.786C195.166 126.575 195.082 126.209 195.294 125.873C195.505 125.536 195.871 125.453 196.207 125.665C198.297 126.821 201.983 129.92 202.605 133.91C202.769 135.89 202.372 137.519 201.385 139.089Z" fill="black"/>
<path d="M177.22 142.683C176.585 143.692 175.909 144.519 175.079 145.093C172.813 146.955 170.285 147.244 168.083 146.017C166.33 145.072 165.282 143.005 165.147 140.729C164.999 137.976 164.05 135.502 163.059 132.846C162.194 130.737 161.511 128.586 160.969 126.212C160.276 122.334 161.423 118.517 164.099 115.504C166.38 112.869 170.504 109.045 177.199 105.115C177.452 104.961 177.859 105.061 178.125 105.384C178.279 105.638 178.18 106.045 177.856 106.311C171.303 110.016 167.361 113.798 165.08 116.433C162.728 119.18 161.609 122.702 162.289 126.103C162.719 128.407 163.472 130.445 164.226 132.483C165.216 135.14 166.319 137.867 166.509 140.803C166.631 142.601 167.483 144.232 168.788 144.895C170.541 145.84 172.522 145.677 174.281 144.122C178.235 140.817 180.321 132.27 176.108 120.547C176.025 120.182 176.124 119.775 176.489 119.691C176.855 119.608 177.262 119.707 177.345 120.072C181 130.193 180.039 138.196 177.22 142.683Z" fill="black"/>
<path d="M186.525 122.397C186.384 122.621 185.948 122.817 185.724 122.676C185.612 122.605 181.711 121.093 178.43 124.821C178.218 125.157 177.741 125.17 177.475 124.847C177.138 124.635 177.238 124.228 177.449 123.891C181.448 119.52 186.205 121.413 186.317 121.484C186.541 121.625 186.737 122.06 186.525 122.397Z" fill="black"/>
<path d="M222.37 132.089C221.976 132.467 221.681 132.438 221.344 132.227C212.376 124.088 215.237 114.306 215.237 114.306C215.336 113.899 215.702 113.816 216.109 113.915C216.516 114.014 216.599 114.38 216.5 114.787C216.4 115.194 213.879 123.937 222.203 131.358C222.61 131.458 222.581 131.752 222.37 132.089Z" fill="black"/>
<path d="M249.324 141.986C248.971 142.547 248.76 142.884 248.548 143.22C248.478 143.332 248.225 143.486 248.042 143.528L222.391 146.499C209.544 156.733 198.923 158.196 193.282 156.216C190.686 155.367 189.019 153.538 188.519 151.345C188.436 150.98 188.647 150.644 189.012 150.56C189.378 150.477 189.714 150.688 189.798 151.054C190.102 152.81 191.574 154.204 193.763 154.953C198.884 156.764 209.322 155.343 221.734 145.303C221.804 145.191 221.987 145.15 222.099 145.22L247.638 142.179C250.5 137.874 261.57 119.012 243.227 102.634L228.148 106.46C227.783 106.543 227.446 106.332 227.363 105.966C227.28 105.601 227.491 105.264 227.856 105.181L243.3 101.272C243.483 101.231 243.778 101.259 243.819 101.442C262.233 117.708 253.06 136.041 249.324 141.986Z" fill="black"/>
<path d="M325.422 143.648C325.352 143.76 325.281 143.872 325.099 143.914C316.228 147.572 297.553 146.164 282.487 144.989C275.452 144.481 269.372 143.946 265.847 144.078C262.139 144.251 259.104 144.848 256.617 145.319C251.826 146.221 248.679 146.747 247.55 143.064C247.467 142.699 247.678 142.362 247.932 142.209C248.297 142.125 248.633 142.337 248.787 142.59C249.554 145.106 251.422 144.871 256.396 143.929C258.883 143.457 262.1 142.819 265.808 142.645C269.404 142.401 275.484 142.936 282.631 143.515C297.514 144.731 316.189 146.139 324.624 142.677C324.989 142.593 325.396 142.693 325.48 143.058C325.522 143.241 325.563 143.423 325.422 143.648Z" fill="black"/>
<path d="M252.395 97.7573C252.324 97.8695 252.071 98.0234 251.889 98.0651C245.847 98.9632 243.655 99.4634 244.015 101.88C244.098 102.245 243.774 102.511 243.409 102.595C243.044 102.678 242.778 102.354 242.694 101.989C242.184 98.0695 245.992 97.4889 251.667 96.6742C252.033 96.5908 252.369 96.8023 252.382 97.2798C252.606 97.4208 252.465 97.6452 252.395 97.7573Z" fill="black"/>
<path d="M270.333 119.512C270.262 119.624 270.009 119.778 269.826 119.82C269.461 119.903 269.195 119.579 269.111 119.214C267.966 110.827 263.78 105.536 263.78 105.536C263.514 105.212 263.613 104.805 263.866 104.652C264.19 104.386 264.597 104.485 264.751 104.738C264.905 104.991 269.203 110.352 270.32 119.034C270.361 119.217 270.403 119.4 270.333 119.512Z" fill="black"/>
<path d="M268.363 132.356C269.497 128.062 269.817 123.569 269.111 119.213C269.015 118.37 270.293 118.079 270.502 118.992C271.066 123.572 270.493 128.219 269.177 132.555C269.007 133.074 268.193 132.876 268.363 132.356Z" fill="black"/>
<path d="M144.223 106.297C144.082 106.521 143.646 106.717 143.422 106.576C143.085 106.364 142.931 106.111 143.031 105.704C145.616 99.3484 144.984 93.631 144.984 93.631C144.901 93.2657 145.224 92.9996 145.59 92.9162C145.955 92.8329 146.221 93.1565 146.304 93.5219C146.346 93.7046 147.09 99.4925 144.223 106.297Z" fill="black"/>
<path d="M110.032 160.705C109.891 160.929 109.708 160.971 109.525 161.013C109.16 161.096 108.894 160.773 108.811 160.407C108.727 160.042 108.636 151.222 114.417 142.023C114.628 141.687 114.994 141.603 115.33 141.815C115.667 142.026 115.75 142.392 115.539 142.728C110.04 151.478 110.131 160.298 110.131 160.298C110.173 160.481 110.102 160.593 110.032 160.705Z" fill="black"/>
<path d="M97.0678 178.846C96.9268 179.07 96.7441 179.112 96.5614 179.154C95.6064 179.179 94.427 179.064 93.3886 178.725C92.9815 178.625 92.8982 178.26 92.9975 177.853C93.0968 177.446 93.4621 177.363 93.8691 177.462C94.7954 177.731 95.6799 177.817 96.5645 177.904C96.9298 177.82 97.1959 178.144 97.2792 178.509C97.2088 178.622 97.1383 178.734 97.0678 178.846Z" fill="black"/>
<path d="M79.1497 155.067C79.0792 155.179 79.0792 155.179 79.0087 155.291C78.6851 155.557 78.278 155.458 78.012 155.134L75.8291 151.885C75.563 151.561 75.6623 151.154 75.986 150.888C76.3097 150.622 76.7167 150.721 76.9827 151.045L79.1656 154.295C79.3195 154.548 79.2907 154.843 79.1497 155.067Z" fill="black"/>
<path d="M188.979 135.673C189.874 134.248 189.445 132.367 188.02 131.472C186.595 130.576 184.714 131.006 183.819 132.431C182.923 133.856 183.352 135.737 184.777 136.632C186.202 137.528 188.083 137.098 188.979 135.673Z" fill="white" stroke="black" stroke-width="1.32489" stroke-miterlimit="10" stroke-linecap="round" stroke-linejoin="round"/>
<path d="M363.775 179.482L275.658 319.705C272.556 324.641 265.98 326.142 261.044 323.04L9.53877 164.994C4.6029 161.892 3.10222 155.316 6.20393 150.38L94.3912 10.0442C97.4929 5.10836 104.069 3.60768 109.005 6.70939L360.623 164.826C365.488 168.04 366.876 174.546 363.775 179.482ZM7.32572 151.085C4.57647 155.46 5.86873 161.123 10.2437 163.872L261.861 321.989C266.236 324.738 271.899 323.446 274.648 319.071L362.836 178.735C365.585 174.36 364.293 168.697 359.918 165.948L108.3 7.83118C103.925 5.08194 98.2622 6.37419 95.513 10.7492L7.32572 151.085Z" fill="black"/>
</g>
<defs>
<clipPath id="clip0_365_8698">
<rect width="188.135" height="319.3" fill="white" transform="translate(0 160.253) rotate(-57.8547)"/>
</clipPath>
</defs>
</svg>
