<svg width="282" height="365" viewBox="0 0 282 365" fill="none" xmlns="http://www.w3.org/2000/svg">
<g clip-path="url(#clip0_365_8050)">
<path d="M168.458 358.994L11.8358 305.173C6.69857 303.408 3.90236 297.684 5.66768 292.547L102.2 11.6288C103.966 6.49158 109.69 3.69537 114.827 5.46069L271.45 59.2814C276.587 61.0467 279.383 66.7707 277.618 71.908L181.042 352.951C179.276 358.089 173.721 360.803 168.458 358.994Z" fill="#FFD979"/>
<path d="M115.299 258.071C157.649 272.624 205.784 244.256 222.81 194.709C239.836 145.161 219.306 93.1976 176.956 78.6445C134.605 64.0915 86.4711 92.46 69.445 142.007C52.4189 191.555 72.9483 243.518 115.299 258.071Z" fill="#ED6D3A"/>
<path d="M202.183 291.43L181.042 352.952C179.277 358.089 173.678 360.928 168.416 359.12L86.4706 330.961C92.9537 323.102 89.6636 311.884 101.366 305.959C104.44 304.354 106.518 301.566 106.424 298.171C106.381 293.813 102.715 291.433 99.9942 291.198C100.123 290.822 100.253 290.446 100.382 290.071C102.707 283.304 99.0882 275.897 92.3221 273.572C91.3197 273.227 90.3996 273.051 89.4794 272.875C89.2482 270.694 87.8423 268.67 85.7984 267.688C81.6674 265.848 78.9617 263.937 76.0406 262.653C70.9934 260.219 64.8659 261.335 61.0566 265.49C58.4336 268.231 55.5875 272.436 52.8904 278.654C52.455 271.36 55.99 265.15 57.5125 259.088C58.9058 253.403 53.5451 248.619 48.1224 250.538C39.3796 253.558 33.88 268.339 35.4241 282.599C32.1659 276.996 30.6696 271.158 28.3475 268.539C25.8178 265.709 19.565 266.782 17.6628 273.133C12.0422 291.936 32.6578 300.841 29.0841 311.241L11.793 305.299C6.65579 303.534 3.85958 297.81 5.6249 292.672L26.9379 230.65C26.9379 230.65 32.4075 228.187 39.7174 226.075C47.1525 224.007 55.0773 223.368 62.8612 224.362L81.8199 226.674L78.4567 227.9L81.8199 226.674L92.9589 222.797L91.3228 227.558C84.4424 255.734 142.683 278.269 154.312 248.503C154.481 248.42 154.649 248.338 154.943 248.299C155.111 248.217 155.279 248.135 155.448 248.052C155.953 247.806 156.501 247.434 157.006 247.187L156.795 247.394L159.892 252.241C157.404 267.637 146.11 288.272 138.883 295.035C138.46 295.45 138.413 295.994 138.828 296.417C140.567 298.696 143.441 300.524 144.733 301.248C145.066 301.503 145.528 301.381 145.908 301.092C155.754 292.007 165.427 274.457 167.716 258.012L177.591 263.927C184.342 267.928 190.074 273.26 194.793 279.505C199.261 285.663 202.061 290.968 202.061 290.968L202.183 291.43Z" fill="#225B9B"/>
<path d="M83.8822 298.129C83.8822 298.129 83.4985 298.838 82.6529 299.668C79.1411 303.365 74.4151 302.441 71.0161 298.471C65.4164 292.344 67.1774 283.143 75.5013 280.119C75.8772 280.248 76.1278 280.335 76.5467 280.338C76.4175 280.714 76.2453 281.216 76.1161 281.591C73.6658 288.314 77.1591 295.679 83.8822 298.129Z" fill="#225B9B"/>
<path d="M101.409 305.833C89.7061 311.758 92.9532 323.101 86.5131 330.835L29.1266 311.115C32.7003 300.715 12.0847 291.81 17.7053 273.007C19.5645 266.782 25.8603 265.583 28.39 268.413C30.7121 271.033 32.2084 276.87 35.4666 282.473C33.8794 268.338 39.4221 253.432 48.1649 250.412C53.5876 248.493 58.9052 253.402 57.555 258.962C56.1578 265.067 52.4975 271.234 52.9329 278.528C55.63 272.31 58.6014 268.148 61.0991 265.364C64.9084 261.209 71.0359 260.093 76.0831 262.527C78.8358 263.894 81.7099 265.722 85.8409 267.562C87.8848 268.544 89.2907 270.568 89.5219 272.749C89.6003 273.336 89.5534 273.881 89.3811 274.382C88.2854 279.609 82.7374 281.485 76.3395 280.127C76.0889 280.041 75.713 279.912 75.294 279.908C67.0132 282.806 65.2522 292.008 70.8089 298.26C74.3762 302.148 78.9339 303.154 82.4456 299.457C83.2913 298.627 83.6749 297.918 83.6749 297.918L83.8002 297.961C90.1904 300.157 97.1321 297.079 99.9114 291.029C102.633 291.264 106.172 293.601 106.341 298.002C106.686 301.483 104.482 304.228 101.409 305.833Z" fill="#F8B682"/>
<path d="M154.23 248.334C142.601 278.1 84.3603 255.565 91.2407 227.389L96.752 211.351L104.877 216.244L146.916 241.897L153.623 246.024L154.23 248.334Z" fill="#F8B682"/>
<path d="M194.274 177.058C191.929 176.952 189.544 176.553 186.952 175.943C179.137 173.817 172.962 170.995 167.797 167.679C161.673 163.894 155.518 158.977 149.906 154.106C145.583 150.379 141.264 146.233 137.493 141.715L136.001 139.942C128.831 131.454 122.843 121.971 118.622 111.835C118.622 111.835 113 117.188 112.014 124.134C111.65 127.231 110.366 130.152 109 132.905C105.586 139.577 99.5848 149.703 96.9356 164.343C96.7556 165.682 96.7009 167.064 96.6893 168.321C96.6385 169.284 96.5446 170.373 96.6191 171.379C116.542 182.708 157.71 198.256 191.938 185.081C192.803 182.156 193.581 179.482 194.274 177.058Z" fill="#F8B682"/>
<path d="M137.367 141.672L135.875 139.898C130.06 134.398 115.843 131.333 116.462 132.387C115.914 132.759 128.275 141.63 140.008 155.188C143.95 154.721 140.837 147.067 137.367 141.672Z" fill="#F8B682"/>
<path d="M96.8098 164.3C97.0522 160.741 97.5883 157.142 98.1243 153.544C99.3686 145.846 100.813 139.197 101.908 133.97C100.366 133.16 98.8621 132.643 97.3977 132.42C80.6629 129.752 67.5143 160.677 96.5636 168.278C96.5752 167.021 96.6299 165.639 96.8098 164.3Z" fill="#F8B682"/>
<path d="M215.437 181.108L184.98 198.801C204.429 207.025 216.334 192.764 215.437 181.108Z" fill="#F8B682"/>
<path d="M213.685 171.119C207.515 176.844 200.855 181.14 193.788 184.175C195.068 181.673 196.305 179.296 197.499 177.045C203.744 176.809 208.96 174.679 213.685 171.119Z" fill="#F8B682"/>
<path d="M126.873 107.386L131.74 115.643C132.637 113.85 133.866 112.311 135.467 111.32C135.342 111.277 131.786 106.132 126.873 107.386Z" fill="#F8B682"/>
<path d="M186.691 181.596C184.895 185.602 181.402 187.204 176.179 185.689C166.903 182.922 162.616 184.39 158.857 183.099C155.975 182.108 154.315 180.417 153.711 177.688C152.662 173.405 155.504 169.618 159.666 168.107C160.128 167.985 162.943 167.131 167.003 167.546L167.798 167.679C168.006 167.89 168.381 168.019 168.714 168.274C166.952 168.509 165.426 170.506 164.478 173.263C163.359 176.52 163.414 179.621 165.795 180.439C168.05 181.214 170.082 178.971 171.244 175.588C172.019 173.332 172.164 171.281 171.549 169.808C172.841 170.533 174.177 171.132 175.386 171.687C179.643 173.57 183.609 175.073 187.247 175.903C187.607 177.708 187.631 179.678 186.691 181.596Z" fill="white"/>
<path d="M137.331 159.311C135.549 157.158 129.198 150.772 118.367 148.452C114.06 147.532 109.268 149.247 108.223 153.511C107.178 157.775 108.948 161.186 113.999 163.201C123.017 166.72 125.496 170.514 129.255 171.806C132.137 172.796 134.486 172.483 136.639 170.701C140.018 167.799 140.15 162.521 137.331 159.311ZM125.421 165.025C123.04 164.207 122.942 161.231 124.105 157.848C125.267 154.465 127.174 152.178 129.554 152.996C131.81 153.771 132.033 156.79 130.871 160.173C129.708 163.556 127.676 165.8 125.421 165.025Z" fill="white"/>
<path d="M197.082 163.173C197.74 160.037 198.73 157.155 200.096 154.402C206.536 142.185 202.244 135.107 202.244 135.107C198.513 135.365 194.288 134.614 191.049 131.4C188.41 131.334 185.525 130.762 182.353 129.392C184.284 133.558 181.583 140.195 176.74 142.874C175.687 143.492 174.398 142.349 174.954 141.139C178.755 133.339 172.999 130.521 171.621 130.047C171.66 130.341 171.699 130.634 171.782 130.803C172.929 133.579 171.931 137.298 168.936 139.491C168.176 140.071 167.053 139.265 167.397 138.262C168.861 134.002 167.847 130.431 165.313 128.02C165.188 127.977 165.023 127.64 164.565 127.342C163.978 127.421 163.39 127.499 162.846 127.452C159.119 127.292 157.713 125.268 153.766 121.67C145.789 114.306 139.576 120.156 136.805 125.368C136.805 125.368 136.805 125.368 136.761 125.493L137.423 126.421C145.486 138.018 155.452 147.747 165.86 154.965C167.375 154.225 169.936 153.704 171.529 153.551C181.467 152.763 193.601 159.035 193.601 159.035C193.601 159.035 185.884 159.885 175.027 160.497C180.822 163.609 186.914 166.263 192.142 167.359C193.563 167.707 194.902 167.887 196.159 167.899C196.511 166.059 196.777 164.469 197.082 163.173Z" fill="#F8B682"/>
<path d="M186.679 196.303C186.127 197.094 185.576 197.885 185.024 198.676C178.145 208.5 170.448 216.222 162.105 221.341C151.064 228.194 138.727 230.259 126.197 225.953C113.542 221.604 105.205 212.435 100.709 200.243C98.5431 194.315 97.1799 187.683 96.7015 180.514C128.712 198.658 160.38 203.937 186.679 196.303Z" fill="#F8B682"/>
<path d="M162.103 221.34L155.989 239.132C144.4 246.357 124.27 239.3 111.411 225.355C105.521 218.848 101.53 210.892 99.9751 202.372L100.707 200.242C105.329 212.477 113.665 221.646 126.195 225.952C138.85 230.301 151.062 228.193 162.103 221.34Z" fill="#F8B682"/>
<path d="M100.506 290.114C100.377 290.49 100.248 290.865 100.119 291.241C97.3394 297.291 90.3976 300.369 84.0074 298.173L83.8821 298.13C77.1591 295.68 73.6227 288.441 75.9478 281.675C76.077 281.299 76.2492 280.798 76.3783 280.422C82.7763 281.78 88.3242 279.904 89.42 274.676C89.5922 274.175 89.5139 273.588 89.5608 273.044C90.524 273.094 91.5264 273.439 92.4035 273.74C99.2126 275.94 102.874 283.222 100.506 290.114Z" fill="#FEC82F"/>
<path d="M170.993 175.502C169.873 178.76 167.798 181.129 165.543 180.354C163.287 179.579 163.064 176.56 164.226 173.177C165.174 170.42 166.7 168.423 168.462 168.188C169.379 168.783 170.213 169.21 171.129 169.805C171.912 171.195 171.768 173.246 170.993 175.502Z" fill="#414047"/>
<path d="M130.744 160.13C129.625 163.388 127.55 165.757 125.295 164.982C122.914 164.164 122.816 161.188 123.978 157.805C125.141 154.422 127.047 152.135 129.428 152.954C131.683 153.729 131.864 156.873 130.744 160.13Z" fill="#414047"/>
<path d="M139.882 155.145C128.193 141.461 115.788 132.716 116.336 132.344C115.843 131.334 129.892 134.48 135.75 139.855C136.29 140.321 136.787 140.912 137.159 141.461C137.159 141.461 137.159 141.461 137.285 141.504C140.837 147.067 143.95 154.721 139.882 155.145Z" fill="#8E4020"/>
<path d="M193.645 158.909C193.645 158.909 185.927 159.759 175.07 160.371C174.361 159.988 173.527 159.561 172.819 159.177C170.485 157.815 168.151 156.453 165.903 154.84C167.419 154.1 169.979 153.579 171.573 153.426C181.385 152.595 193.645 158.909 193.645 158.909Z" fill="#8E4020"/>
<path d="M111.888 124.09C111.524 127.188 110.24 130.109 108.874 132.861C105.46 139.534 99.4589 149.659 96.8097 164.3C97.0521 160.74 97.5881 157.142 98.1242 153.544C99.3685 145.846 100.813 139.197 101.908 133.97C100.366 133.16 98.862 132.643 97.3976 132.42C99.072 118.986 104.285 94.4398 112.24 85.966C112.703 94.8108 115.053 103.464 118.37 111.748C118.37 111.748 112.748 117.101 111.888 124.09Z" fill="#8E4020"/>
<path d="M225.269 119.063C226.222 129.337 215.653 153.163 208.751 165.502C205.423 167.44 201.101 168.196 196.203 167.774C196.512 166.059 196.735 164.595 197.083 163.173C197.74 160.037 198.731 157.155 200.097 154.402C206.537 142.186 202.245 135.107 202.245 135.107C198.513 135.366 194.288 134.614 191.05 131.4C188.411 131.334 185.525 130.763 182.354 129.392C184.284 133.558 181.583 140.195 176.74 142.874C175.687 143.493 174.399 142.349 174.955 141.14C178.756 133.34 173 130.521 171.621 130.047C171.661 130.341 171.7 130.635 171.782 130.803C172.93 133.579 171.932 137.299 168.936 139.492C168.177 140.071 167.053 139.265 167.398 138.262C168.862 134.002 167.847 130.432 165.314 128.02C165.188 127.977 165.024 127.64 164.566 127.343C163.978 127.421 163.391 127.499 162.847 127.452C159.119 127.292 157.713 125.268 153.766 121.67C145.79 114.306 139.577 120.157 136.805 125.368C136.805 125.368 136.805 125.368 136.762 125.494C135.568 127.745 132.216 127.714 131.233 125.275C129.224 120.522 131.166 114.464 135.257 111.527C135.3 111.402 135.425 111.445 135.594 111.363C134.392 109.969 130.946 106.544 126.623 107.3C122.562 97.9187 119.93 88.0482 119.228 77.8604C119.357 77.4845 121.322 73.3966 125.132 73.7251C127.487 59.1242 136.417 44.9612 150.994 45.3473C153.633 45.4136 156.053 46.5253 156.821 49.591C157.306 51.4391 158.035 54.2111 162.131 55.3383C161.75 51.1449 163.68 46.3444 168.633 45.3846C172.368 44.7069 175.951 46.9187 177.721 50.3289C179.656 54.0757 183.709 59.8114 191.842 63.8669C198.354 71.008 198.884 86.1802 194.872 98.6708C199.966 100.561 203.157 99.8367 203.157 99.8367C204.621 95.5766 208.856 81.6216 202.402 68.1963L203.15 68.8735C207.567 71.5121 220.817 79.4277 224.175 101.455C224.175 101.455 224.488 99.3216 224.927 97.2307C225.365 95.1398 228.051 94.6618 229.249 96.4745C231.109 99.2151 230.468 105.159 226.142 110.817C227.363 110.116 228.499 109.666 229.419 109.842C232.853 110.041 231.902 117.7 225.269 119.063Z" fill="#8E4020"/>
<path d="M197.501 177.046C196.307 179.297 195.07 181.674 193.79 184.176C193.116 184.505 192.486 184.709 191.813 185.038C192.76 182.281 193.539 179.607 194.275 177.058C195.363 177.152 196.495 177.12 197.501 177.046Z" fill="#8E4020"/>
<path d="M215.859 180.692C215.648 180.9 215.479 180.982 215.268 181.19C208.342 187.075 200.633 191.571 192.309 194.594C190.375 195.331 188.484 195.942 186.636 196.427C160.38 203.936 128.712 198.657 96.5758 180.47C96.1999 180.341 95.8671 180.086 95.5342 179.832C95.2014 179.577 94.9939 179.366 94.9977 178.947C94.841 177.772 94.4883 175.129 94.8168 171.32C94.8638 170.775 95.3688 170.529 95.827 170.826C96.0776 170.912 96.2851 171.124 96.5357 171.21C116.459 182.539 157.627 198.087 191.854 184.912C192.485 184.708 193.158 184.379 193.831 184.05C200.898 181.015 207.64 176.887 213.728 170.994C216.798 174.29 216.282 180.277 215.859 180.692Z" fill="#F1F0EE"/>
<path d="M210.731 164.221C210.14 164.718 209.466 165.047 208.75 165.501C205.422 167.44 201.099 168.196 196.201 167.774C194.862 167.594 193.523 167.414 192.184 167.234C186.957 166.138 180.864 163.484 175.069 160.372C174.36 159.988 173.526 159.561 172.817 159.178C170.484 157.815 168.15 156.453 165.902 154.84C155.494 147.621 145.529 137.892 137.466 126.296L136.722 125.2C135.528 127.451 132.176 127.42 131.193 124.981C129.838 121.994 130.206 118.477 131.615 115.599L126.747 107.342C126.665 107.174 126.708 107.049 126.583 107.006C122.521 97.6247 119.889 87.7542 119.187 77.5664C119.109 76.9791 119.113 76.5601 119.034 75.9728C119.034 75.9728 115.209 77.3201 112.457 80.4371C112.034 80.8521 111.944 81.5217 111.897 82.0659C111.886 83.3228 111.999 84.6227 112.113 85.9226C112.576 94.7675 114.926 103.42 118.243 111.705C122.465 121.842 128.453 131.324 135.623 139.812C136.163 140.278 136.66 140.869 137.033 141.417C137.033 141.417 137.033 141.417 137.158 141.46C141.097 145.896 145.248 150.124 149.571 153.851C155.182 158.721 161.463 163.682 167.462 167.424C167.67 167.636 168.045 167.765 168.378 168.019C169.295 168.614 170.129 169.041 171.045 169.636C172.337 170.36 173.672 170.959 174.882 171.515C179.138 173.398 183.105 174.901 186.742 175.731C189.334 176.341 191.719 176.74 194.064 176.846C195.153 176.94 196.284 176.908 197.416 176.877C203.661 176.641 208.876 174.511 213.602 170.951C212.211 167.251 211.236 163.974 210.731 164.221Z" fill="#F1F0EE"/>
<path d="M203.288 99.461C203.288 99.461 200.097 100.186 195.003 98.2951C199.015 85.8045 198.485 70.6323 191.972 63.4912C191.683 63.1115 191.268 62.6886 190.935 62.4342C196.256 62.4414 199.549 64.2735 200.798 65.123C201.131 65.3775 201.464 65.632 201.628 65.9687C201.957 66.6421 202.286 67.3155 202.658 67.8636C209.112 81.2889 204.752 95.2009 203.288 99.461Z" fill="#F1F0EE"/>
<path d="M157.091 246.936C156.586 247.183 156.038 247.555 155.533 247.801C155.196 247.966 154.691 248.213 154.355 248.377C138.2 255.434 113.152 245.566 100.848 225.928C98.6591 222.514 96.8928 218.685 95.7569 214.652C95.5963 213.896 95.2673 213.223 95.1067 212.467C95.1067 212.467 96.1241 206.653 99.1932 200.983C99.2793 200.732 99.8236 200.779 99.8628 201.073C99.902 201.366 99.8981 201.785 100.063 202.122C101.022 207.075 102.613 211.824 105.044 216.162C106.858 219.447 108.925 222.399 111.498 225.104C115.48 229.415 120.222 233.146 125.14 235.956C128.766 238.043 132.439 239.585 136.159 240.583C140.004 241.624 143.645 242.035 147.083 241.816C150.396 241.553 153.504 240.66 156.159 239.05C156.327 238.968 156.539 238.76 156.832 238.721C157.001 238.639 157.083 238.807 157.083 238.807C156.676 242.03 157.189 245.428 157.432 246.352C157.303 246.728 157.26 246.854 157.091 246.936Z" fill="#F1F0EE"/>
<path d="M145.869 300.798C145.489 301.088 145.07 301.084 144.694 300.955C143.402 300.231 140.528 298.402 138.789 296.124C138.499 295.744 138.421 295.157 138.844 294.742C146.196 288.022 157.365 267.343 159.853 251.948L160.288 250.276C160.288 250.276 162.692 253.063 166.486 255.068C167.195 255.451 167.649 256.168 167.642 257.006L167.677 257.718C165.263 274.12 155.715 291.713 145.869 300.798Z" fill="#F1F0EE"/>
<path d="M100.705 282.196C100.604 288.606 94.9707 295.216 87.0769 292.503C81.3132 290.523 79.5585 285.437 80.4821 280.711C79.2252 280.699 77.8431 280.644 76.4217 280.296C76.2926 280.672 76.1203 281.173 75.9912 281.549C73.6661 288.315 77.2025 295.554 83.9255 298.005L84.0508 298.048C90.441 300.244 97.3828 297.165 100.162 291.116C100.291 290.74 100.42 290.364 100.55 289.988C101.411 287.482 101.52 284.718 100.705 282.196Z" fill="#BB870F"/>
<path d="M29.7904 293.692C25.8273 287.286 19.5499 277.424 22.826 267.483C20.6413 268.133 18.6133 269.957 17.6622 273.133C12.0416 291.935 32.6572 300.841 29.0835 311.241L38.4809 314.47C37.3131 304.822 33.8788 300.14 29.7904 293.692Z" fill="#C46E4A"/>
<path d="M57.8995 285.278C61.8921 274.883 70.6776 267.254 81.5035 265.511C79.5026 264.403 77.8776 263.424 76.1665 262.696C71.1193 260.261 64.9917 261.378 61.1825 265.533C58.5594 268.274 55.7134 272.479 53.0163 278.697C52.8358 275.553 53.4072 272.667 54.1038 269.825C52.6868 273.541 52.1078 277.264 52.95 281.336C53.3143 282.722 53.7216 283.983 54.1289 285.244C54.9514 286.927 57.3398 286.907 57.8995 285.278Z" fill="#C46E4A"/>
<path d="M106.592 298.088C106.521 296.662 106.196 295.57 105.534 294.642C104.998 298.241 102.595 299.936 99.7717 301.628C94.2944 304.929 89.3415 305.889 86.9772 312.361C84.8713 318.082 82.7262 323.509 80.3736 328.725L86.5132 330.834C92.9963 322.976 89.7062 311.758 101.409 305.833C104.482 304.227 106.686 301.482 106.592 298.088Z" fill="#C46E4A"/>
<path d="M53.8586 250.968C52.1906 250.115 50.1819 249.845 48.1225 250.538C39.548 253.476 34.0953 267.713 35.3497 281.593C36.9437 285.923 40.1429 288.844 43.1346 291.553C40.7956 277.16 43.3819 260.257 53.8586 250.968Z" fill="#C46E4A"/>
<path d="M114.971 148.545C115.746 146.29 116.521 144.035 117.421 141.822C119.57 135.976 122.013 130.091 124.831 124.335C122.438 120.291 120.257 116.039 118.495 111.791C118.495 111.791 112.873 117.144 111.887 124.09C111.523 127.187 110.239 130.108 108.873 132.861C105.459 139.533 99.4578 149.659 96.8086 164.299C96.6286 165.638 96.574 167.02 96.5624 168.277C96.5116 169.24 96.4177 170.329 96.4922 171.335C99.7852 173.167 103.705 175.214 108.086 177.14C108.763 171.909 109.859 166.682 111.205 161.541C104.995 158.006 108.146 148.021 114.971 148.545Z" fill="#C46E4A"/>
<path d="M120.942 132.805C118.099 132.108 116.216 131.882 116.381 132.218C116.212 132.3 117.5 133.444 119.87 135.519C120.171 134.641 120.598 133.807 120.942 132.805Z" fill="#C46E4A"/>
<path d="M96.8098 164.3C97.0522 160.741 97.5883 157.142 98.1243 153.544C99.3686 145.846 100.813 139.197 101.908 133.97C100.366 133.16 98.8621 132.643 97.3977 132.42C80.6629 129.752 67.5143 160.677 96.5636 168.278C96.5752 167.021 96.6299 165.639 96.8098 164.3Z" fill="#C46E4A"/>
<path d="M170.863 175.877C170.906 175.752 170.949 175.626 170.992 175.501C171.767 173.246 171.912 171.194 171.297 169.722C170.338 169.252 169.547 168.7 168.63 168.105C166.868 168.34 165.342 170.337 164.394 173.094C164.179 173.72 163.964 174.347 163.874 175.016C166.176 175.247 168.604 175.521 170.863 175.877Z" fill="black"/>
<path d="M127.831 135.173C121.946 132.73 115.881 131.626 116.335 132.343C115.787 132.715 125.568 139.719 136.024 150.876C133.686 145.45 131.179 140.106 127.831 135.173Z" fill="#7E2A0A"/>
<path d="M130.27 161.508C130.443 161.007 130.74 160.549 130.912 160.047C132.032 156.79 131.851 153.646 129.596 152.871C127.466 152.139 125.688 154.049 124.405 156.971C126.488 158.247 128.485 159.774 130.27 161.508Z" fill="black"/>
<path d="M111.888 124.09C111.524 127.188 110.24 130.109 108.874 132.861C105.46 139.534 99.4589 149.659 96.8097 164.3C97.0521 160.74 97.5881 157.142 98.1242 153.544C99.3685 145.846 100.813 139.197 101.908 133.97C100.366 133.16 98.862 132.643 97.3976 132.42C99.072 118.986 104.285 94.4398 112.24 85.966C112.703 94.8108 115.053 103.464 118.37 111.748C118.37 111.748 112.748 117.101 111.888 124.09Z" fill="#7E2A0A"/>
<path d="M161.634 54.7474C161.591 54.8727 161.673 55.041 161.63 55.1663C161.983 57.8092 162.754 60.4559 163.906 62.8129C164.81 64.6648 166.008 66.4775 167.59 67.5815C168.84 68.431 170.179 68.611 171.482 68.0783C171.482 68.0783 171.819 67.9139 171.862 67.7886C172.031 67.7063 172.074 67.581 172.199 67.6241C172.367 67.5418 172.367 67.5418 172.367 67.5418C172.367 67.5418 172.41 67.4165 172.453 67.2912C172.496 67.1659 172.708 66.9584 172.751 66.8331C172.88 66.4572 173.009 66.0813 173.138 65.7054C173.181 65.5801 173.225 65.4548 173.225 65.4548C173.311 65.2042 173.228 65.0359 173.314 64.7853C173.318 64.3663 173.322 63.9474 173.326 63.5284C173.377 62.5652 173.385 61.7273 173.224 60.9717C172.805 56.4846 171.673 52.0329 171.253 47.5459C171.218 46.8333 171.1 45.9523 171.108 45.1144C170.188 44.9383 169.35 44.9306 168.426 45.1734C163.516 46.0079 161.461 50.7654 161.924 55.1271C162.01 54.8765 161.884 54.8335 161.634 54.7474Z" fill="#7E2A0A"/>
<path d="M202.983 159.456C204.838 153.649 206.862 147.76 208.592 141.91C209.284 139.487 209.977 137.063 210.126 134.592C210.227 132.666 209.988 131.323 208.868 130.098C209.076 130.309 208.285 129.757 208.16 129.714C208.034 129.671 207.533 129.499 207.533 129.499C207.114 129.495 206.738 129.366 206.319 129.362C205.775 129.315 206.026 129.401 205.313 129.436C203.089 129.793 201.155 130.529 199.053 131.348C197.412 132.045 195.897 132.785 194.213 133.607C196.715 134.887 199.562 135.165 202.119 135.063C202.119 135.063 206.411 142.142 199.971 154.358C198.437 157.193 197.572 160.118 196.957 163.129C196.652 164.425 196.386 166.015 196.077 167.73C197.459 167.785 198.841 167.839 200.098 167.851C201.088 164.969 202.035 162.213 202.983 159.456Z" fill="#7E2A0A"/>
<path d="M135.188 123.551C137.799 117.584 142.321 113.394 147.958 110.848C146.11 106.851 143.925 103.018 142.076 99.0206C140.063 94.6864 138.305 90.0194 137.552 85.2779C136.722 79.9491 137.148 74.6319 138.62 69.5339C141.348 59.9643 147.533 52.5635 154.467 45.84C153.508 45.3703 152.38 44.9828 151.248 45.0142C136.796 44.6712 127.699 58.9164 125.386 73.392C121.619 72.9382 119.736 77.1945 119.482 77.5273C120.184 87.7151 122.773 97.7109 126.877 106.967C131.157 106.336 134.646 109.636 135.848 111.03C135.68 111.112 135.68 111.112 135.511 111.194C131.295 114.088 129.353 120.146 131.488 124.942C132.063 126.12 133.105 126.758 134.237 126.727C134.287 125.764 134.675 124.636 135.188 123.551Z" fill="#7E2A0A"/>
<path d="M203.288 99.461C203.288 99.461 200.097 100.186 195.003 98.2951C199.015 85.8045 198.485 70.6323 191.972 63.4912C191.683 63.1115 191.268 62.6886 190.935 62.4342C196.256 62.4414 199.549 64.2735 200.798 65.123C201.131 65.3775 201.464 65.632 201.628 65.9687C201.957 66.6421 202.286 67.3155 202.658 67.8636C209.112 81.2889 204.752 95.2009 203.288 99.461Z" fill="#F1F0EE"/>
<path d="M161.074 174.195C162.037 174.245 163 174.296 163.963 174.347C164.092 173.971 164.222 173.595 164.308 173.345C165.255 170.588 166.782 168.591 168.544 168.356C168.293 168.27 167.96 168.015 167.627 167.761L166.833 167.628C162.772 167.213 159.957 168.067 159.495 168.189C156.469 169.25 154.143 171.533 153.572 174.419C156.215 174.066 158.728 174.089 161.074 174.195Z" fill="#AECCDE"/>
<path d="M175.475 175.501C179.493 176.041 183.549 176.875 187.394 177.916C187.359 177.203 187.155 176.573 186.951 175.942C183.314 175.113 179.473 173.653 175.091 171.727C173.881 171.171 172.546 170.572 171.254 169.848C171.83 171.026 171.728 172.953 171.164 175C172.672 175.098 174.011 175.278 175.475 175.501Z" fill="#AECCDE"/>
<path d="M117.355 153.427C119.818 154.414 122.112 155.482 124.446 156.845C125.562 154.006 127.421 152.263 129.426 152.952C131.681 153.727 131.905 156.746 130.742 160.129C130.656 160.38 130.613 160.505 130.527 160.756C133.44 162.877 136.142 165.207 138.676 167.618C139.748 164.905 139.235 161.506 137.246 159.142C135.464 156.988 129.113 150.603 118.282 148.282C114.895 147.539 111.074 148.467 109.207 151.048C112.006 151.87 114.767 152.398 117.355 153.427Z" fill="#AECCDE"/>
<path d="M15.9649 284.597C16.3055 284.014 16.603 283.556 16.9436 282.972C16.4264 279.993 16.5827 276.684 17.663 273.133C19.5222 266.907 25.818 265.708 28.3477 268.539C28.473 268.582 28.5552 268.75 28.5122 268.875C31.8948 265.555 35.4849 262.446 39.0711 259.755C41.3338 255.209 44.4227 251.928 48.0796 250.663C49.8023 250.134 51.4781 250.149 52.9817 250.666C58.6235 247.702 64.7196 245.454 70.8863 244.631C76.5909 243.929 82.1626 244.023 87.875 242.483C89.5547 242.08 91.1522 241.508 92.7926 240.811C90.8619 236.645 90.1919 232.072 91.2407 227.389L92.8769 222.628L81.7379 226.505L78.3747 227.731L81.7379 226.505L62.7792 224.193C54.9952 223.199 47.1958 223.881 39.6353 225.906C32.3254 228.018 26.8559 230.481 26.8559 230.481L5.54287 292.503C4.25117 296.262 5.30483 300.127 7.9206 302.707C10.0304 296.567 12.6021 290.306 15.9649 284.597Z" fill="#184270"/>
<path d="M35.4245 282.599C35.1149 279.831 35.0989 277.023 35.3766 274.177C34.531 275.007 33.6423 275.962 32.7536 276.918C33.4076 278.684 34.3945 280.704 35.4245 282.599Z" fill="#184270"/>
<path d="M162.224 276.438C163.14 277.033 163.888 277.71 164.679 278.262C174.997 286.151 182.034 295.433 186.655 307.668C188.535 312.797 189.992 318.342 191.156 323.925L202.307 291.473L201.978 290.799C201.978 290.799 199.178 285.494 194.71 279.336C190.117 273.134 184.259 267.759 177.508 263.758L167.633 257.843C166.78 263.994 164.752 270.302 162.224 276.438Z" fill="#184270"/>
<path d="M154.026 270.538C156.723 264.32 158.962 257.805 159.854 251.947L156.757 247.1L156.968 246.893C156.463 247.14 155.915 247.512 155.41 247.758C155.242 247.841 155.073 247.923 154.905 248.005C154.736 248.087 154.568 248.17 154.274 248.209C151.957 254.137 147.815 258.037 142.6 260.168C145.874 264.094 149.782 267.399 154.026 270.538Z" fill="#184270"/>
<path d="M197.501 177.046C196.307 179.297 195.07 181.674 193.79 184.176C193.116 184.505 192.486 184.709 191.813 185.038C192.76 182.281 193.539 179.607 194.275 177.058C195.363 177.152 196.495 177.12 197.501 177.046Z" fill="#8E4020"/>
<path d="M108.642 203.249C107.522 197.541 107.114 191.797 107.25 186.1C103.62 184.432 100.202 182.557 96.5762 180.471C97.0546 187.64 98.3748 194.398 100.584 200.2C103.529 207.937 107.993 214.514 114.023 219.388C111.599 214.212 109.68 208.79 108.642 203.249Z" fill="#C46E4A"/>
<path d="M114.396 219.936C114.313 219.767 114.106 219.556 114.067 219.262C108.036 214.388 103.529 207.936 100.627 200.074L99.938 202.079C101.493 210.599 105.441 218.68 111.373 225.061C111.663 225.441 111.996 225.696 112.286 226.075C112.975 224.071 113.664 222.066 114.396 219.936Z" fill="#C46E4A"/>
<path d="M109.349 235.434C106.936 233.484 104.822 231.076 103.001 228.629C99.6881 224.409 97.1778 219.484 95.7168 214.358L91.2389 227.389C88.6676 238.134 95.4893 248.043 105.694 254.631C106.507 248.187 107.822 241.914 109.556 235.645C109.474 235.477 109.474 235.477 109.349 235.434Z" fill="#C46E4A"/>
<path d="M120.474 124.378C126.262 132.812 129.167 135.771 129.167 135.771L133.878 138.371L122.811 120.839L120.474 124.378Z" fill="#C46E4A"/>
<path d="M140.312 144.926L142.298 152.193C142.298 152.193 148.76 160.297 161.764 167.707L167.797 167.679C167.797 167.679 151.688 156.26 140.312 144.926Z" fill="#C46E4A"/>
<path d="M187.395 177.916C192.493 179.387 193.542 179.188 193.542 179.188L194.274 177.058L186.952 175.942L187.395 177.916Z" fill="#C46E4A"/>
<path d="M196.22 179.548L204.947 178.204L210.017 173.642C210.017 173.642 204.579 177.237 197.457 177.171L196.22 179.548Z" fill="#C46E4A"/>
<path d="M186.736 199.404C206.07 197.362 215.312 181.065 215.312 181.065C215.312 181.065 198.035 196.282 170.522 199.296L183.326 201.174L185.15 198.719L186.736 199.404Z" fill="#C46E4A"/>
<path d="M104.29 184.522C121.093 193.518 148.153 198.754 148.153 198.754C148.153 198.754 128.282 199.911 104.671 188.716L104.29 184.522Z" fill="#C46E4A"/>
<path d="M104.437 236.687C117.813 249.129 136.615 250.266 136.615 250.266C136.615 250.266 120.879 248.361 106.645 233.523L104.437 236.687Z" fill="#C46E4A"/>
<path d="M109.576 220.1C121.57 232.487 140.516 231.573 147.258 227.445C147.258 227.445 127.392 232.667 110.534 216.087L109.576 220.1Z" fill="#C46E4A"/>
<path d="M123.607 193.542C114.21 190.313 104.781 185.952 95.1954 180.417C94.7372 180.119 94.3221 179.696 94.2438 179.109C94.0048 177.766 93.6952 174.998 93.9806 171.313C93.9845 170.894 94.282 170.436 94.6187 170.272C94.9554 170.107 95.5427 170.029 95.8756 170.283C123.007 185.911 178.193 203.474 213.021 170.612C213.233 170.404 213.651 170.408 213.984 170.663C216.142 172.945 216.781 176.387 216.714 179.026C216.573 180.658 216.319 180.991 216.151 181.073C192.414 201.636 159.066 205.727 123.607 193.542ZM95.445 171.536C95.1596 175.221 95.4692 177.989 95.712 178.913C95.7943 179.081 95.8765 179.25 96.0018 179.293C141.138 205.31 185.715 205.638 215.489 180.146C215.747 179.394 215.915 174.828 213.761 172.127C178.264 204.899 122.702 187.207 95.445 171.536Z" fill="black"/>
<path d="M181.557 174.929C179.427 174.197 177.089 173.254 174.795 172.185C165.824 168.122 156.509 160.578 149.358 154.478C125.789 134.191 111.542 107.16 111.481 82.0624C111.445 81.3498 111.704 80.598 112.17 80.0576C114.965 76.8154 118.959 75.3858 119.127 75.3036C119.295 75.2213 119.546 75.3074 119.671 75.3505C119.922 75.4366 119.961 75.7303 119.918 75.8556C120.589 89.395 124.654 102.84 131.907 115.98C132.072 116.316 131.943 116.692 131.606 116.857C131.269 117.021 130.893 116.892 130.729 116.555C123.433 103.541 119.367 90.096 118.653 76.6819C117.35 77.2145 114.949 78.4912 113.211 80.6957C112.957 81.0286 112.828 81.4045 112.824 81.8234C112.928 106.796 126.886 133.447 150.247 153.523C156.732 159.113 166.462 167.08 175.308 171.1C191.205 178.244 202.81 178.31 212.892 170.987C212.524 170.02 212.198 168.927 211.787 168.085C211.337 166.95 210.886 165.815 210.683 165.184C206.043 168.493 199.54 169.481 191.971 167.86C185.154 166.499 177.523 162.615 172.354 159.718C159.143 152.096 146.514 140.332 136.838 126.5L136.176 125.572C136.012 125.235 136.015 124.816 136.352 124.652C136.689 124.487 137.108 124.491 137.272 124.828L137.934 125.756C147.403 139.376 159.949 150.973 173.078 158.426C178.247 161.323 185.753 165.163 192.32 166.439C199.763 168.016 205.973 167.068 210.362 163.673C210.53 163.591 210.824 163.552 210.992 163.469C211.618 163.685 211.947 164.358 212.966 167.51C213.334 168.477 213.784 169.612 214.192 170.873C214.231 171.167 214.27 171.46 213.933 171.625C205.156 178.415 194.713 179.45 181.557 174.929Z" fill="black"/>
<path d="M133.265 186.634C133.014 186.548 132.932 186.379 132.85 186.211C132.568 184.993 132.575 184.155 132.619 184.03C132.622 183.611 132.959 183.447 133.378 183.45C133.797 183.454 133.961 183.791 133.958 184.21C133.958 184.21 133.993 184.923 134.193 185.972C134.357 186.309 134.103 186.641 133.766 186.806C133.515 186.72 133.39 186.677 133.265 186.634Z" fill="black"/>
<path d="M155.983 203.686C158.164 203.454 160.513 203.141 162.615 202.322C163.876 201.915 164.487 203.806 163.226 204.213C162.596 204.417 162.009 204.495 161.296 204.531C159.534 204.766 157.815 204.876 155.971 204.942C155.552 204.939 155.345 204.727 155.349 204.308C155.478 203.932 155.689 203.725 155.983 203.686Z" fill="black"/>
<path d="M134.926 201.774C134.55 201.645 134.174 201.515 133.798 201.386C133.422 201.257 133.258 200.92 133.387 200.544C133.516 200.169 133.853 200.004 134.229 200.133C143.458 203.445 151.289 203.894 156.026 203.561C156.445 203.565 156.653 203.776 156.774 204.238C156.896 204.7 156.559 204.865 156.097 204.986C151.402 205.194 143.822 204.831 134.926 201.774Z" fill="black"/>
<path d="M124.045 195.934C127.256 197.597 130.678 199.053 134.229 200.134C134.605 200.263 134.77 200.6 134.641 200.976C134.511 201.351 134.175 201.516 133.799 201.387C133.172 201.171 121.488 196.036 124.045 195.934Z" fill="black"/>
<path d="M133.939 213.203C133.689 213.117 130.603 211.496 128.191 209.547C127.858 209.292 127.862 208.873 128.074 208.666C128.328 208.333 128.747 208.337 128.955 208.548C131.284 210.329 134.495 211.993 134.495 211.993C134.871 212.122 134.993 212.584 134.738 212.917C134.652 213.168 134.315 213.332 133.939 213.203Z" fill="black"/>
<path d="M128.953 172.263C127.324 171.703 125.993 170.686 124.285 169.538C121.912 167.882 118.874 165.718 113.697 163.659C108.521 161.6 106.293 157.892 107.467 153.252C108.684 148.487 113.938 146.65 118.496 147.656C129.577 150.063 136.093 156.785 137.792 158.77C139.41 160.586 140.099 163.065 139.994 165.41C139.763 167.712 138.78 169.756 137.05 171.123C134.728 172.987 132.085 173.34 128.953 172.263ZM122.161 150.036C120.908 149.605 119.612 149.3 118.191 148.952C114.303 148.036 109.722 149.544 108.763 153.557C107.761 157.696 109.535 160.687 114.128 162.406C119.555 164.551 122.594 166.716 125.092 168.415C126.674 169.519 128.005 170.537 129.383 171.01C132.14 171.957 134.195 171.683 136.18 169.984C137.574 168.781 138.428 167.113 138.654 165.23C138.799 163.178 138.106 161.119 136.821 159.557C135.369 158.077 130.431 152.878 122.161 150.036Z" fill="black"/>
<path d="M106.113 164.134C105.988 164.091 105.988 164.091 105.862 164.048C105.737 164.005 105.78 163.88 105.655 163.837C105.573 163.668 105.616 163.543 105.659 163.418C105.702 163.292 105.702 163.292 105.745 163.167C105.788 163.042 105.913 163.085 105.956 162.96C105.956 162.96 106.125 162.877 106.25 162.92C106.418 162.838 106.669 162.924 106.751 163.093C106.876 163.136 106.833 163.261 106.959 163.304C106.916 163.429 107.041 163.472 106.998 163.598C106.955 163.723 106.955 163.723 106.912 163.848C106.869 163.974 106.657 164.181 106.657 164.181C106.489 164.263 106.489 164.263 106.364 164.22C106.281 164.052 106.113 164.134 106.113 164.134Z" fill="black"/>
<path d="M139.666 155.771C139.541 155.728 139.416 155.685 139.334 155.517C131.541 146.395 123.392 139.532 119.069 135.805C115.952 133.052 115.619 132.798 115.666 132.254C115.627 131.96 115.839 131.752 116.05 131.545C117.44 130.762 133.783 134.977 137.915 141.3C140.64 145.599 143.476 151.616 142.11 154.369C141.769 154.953 141.26 155.618 139.96 155.732C139.792 155.814 139.792 155.814 139.666 155.771ZM117.714 132.817C118.255 133.283 119.128 134.004 120.001 134.724C124.324 138.451 132.347 145.271 140.14 154.393C140.602 154.271 140.857 153.939 140.9 153.813C141.753 152.145 139.955 147.185 136.693 142.001C133.431 136.817 121.563 133.439 117.714 132.817Z" fill="black"/>
<path d="M141.373 156.917L141.248 156.874C140.915 156.62 140.876 156.326 141.005 155.95C142.919 152.826 142.919 148.343 142.962 148.217C142.966 147.798 143.177 147.591 143.596 147.595C144.015 147.599 144.223 147.81 144.219 148.229C144.176 148.354 144.215 153.131 142.172 156.632C141.917 156.964 141.624 157.004 141.373 156.917Z" fill="black"/>
<path d="M142.752 157.392C142.627 157.349 142.502 157.306 142.419 157.137C142.212 156.926 142.259 156.382 142.47 156.174C144.412 154.6 145.414 150.461 145.414 150.461C145.543 150.085 145.88 149.921 146.131 150.007C146.506 150.136 146.671 150.473 146.585 150.724C146.542 150.849 145.579 155.281 143.257 157.145C143.297 157.439 143.003 157.478 142.752 157.392Z" fill="black"/>
<path d="M145.31 157.29C145.185 157.247 145.185 157.247 145.059 157.204C144.727 156.949 144.731 156.531 144.942 156.323C146.469 154.326 147.326 152.239 147.326 152.239C147.455 151.863 147.792 151.699 148.168 151.828C148.544 151.957 148.665 152.419 148.579 152.67C148.536 152.795 147.679 154.882 145.94 157.086C145.854 157.337 145.561 157.376 145.31 157.29Z" fill="black"/>
<path d="M158.638 183.724C155.505 182.648 153.763 180.788 153.077 177.891C152.028 173.607 154.623 169.316 159.415 167.6C159.415 167.6 162.442 166.539 167.046 167.001L167.841 167.134C168.217 167.263 168.425 167.474 168.421 167.893C168.292 168.269 168.08 168.477 167.661 168.473L166.866 168.34C162.512 167.964 159.948 168.904 159.948 168.904C155.786 170.416 153.574 173.999 154.42 177.652C154.984 180.087 156.394 181.692 159.151 182.64C160.654 183.156 162.162 183.254 164.131 183.23C167.189 183.3 170.917 183.461 176.473 185.23C181.195 186.572 184.39 185.429 186.143 181.548C186.872 179.837 186.93 178.036 186.276 176.27C186.112 175.934 186.366 175.601 186.703 175.436C187.039 175.272 187.372 175.526 187.537 175.863C188.355 177.965 188.211 180.017 187.353 182.104C185.427 186.486 181.391 188.041 176.042 186.483C170.694 184.925 166.966 184.765 164.076 184.612C161.943 184.299 160.267 184.284 158.638 183.724Z" fill="black"/>
<path d="M174.771 160.829C174.521 160.743 174.313 160.532 174.274 160.238C174.278 159.819 174.489 159.612 174.951 159.49C182.077 159.137 187.864 158.604 191.051 158.298C187.171 156.545 178.612 153.323 171.568 153.845C169.974 153.998 167.457 154.393 166.067 155.177C165.73 155.341 165.354 155.212 165.19 154.875C165.025 154.538 165.154 154.163 165.491 153.998C167.006 153.258 169.692 152.78 171.454 152.545C181.391 151.757 193.318 157.817 193.902 158.157C194.152 158.243 194.317 158.58 194.231 158.831C194.145 159.081 193.933 159.289 193.64 159.328C191.627 159.477 184.497 160.249 175.065 160.79C175.022 160.916 174.897 160.873 174.771 160.829Z" fill="black"/>
<path d="M125.205 165.652C122.699 164.79 122.057 161.768 123.478 157.633C124.899 153.498 127.263 151.509 129.769 152.37C132.15 153.188 132.875 156.379 131.497 160.389C129.951 164.48 127.586 166.47 125.205 165.652ZM129.339 153.623C127.334 152.934 125.635 155.432 124.731 158.064C123.827 160.695 123.631 163.71 125.636 164.399C127.641 165.088 129.34 162.589 130.244 159.958C131.023 157.284 131.218 154.269 129.339 153.623Z" fill="black"/>
<path d="M165.453 181.023C162.947 180.162 162.305 177.139 163.725 173.005C164.845 169.747 166.665 167.711 168.553 167.519C168.846 167.479 169.179 167.734 169.301 168.196C169.297 168.615 169.085 168.822 168.623 168.944C167.198 169.014 165.883 170.804 164.935 173.56C164.031 176.192 163.836 179.207 165.841 179.895C167.845 180.584 169.544 178.086 170.449 175.455C171.18 173.325 171.282 171.398 170.706 170.22C170.542 169.883 170.671 169.507 171.008 169.343C171.344 169.178 171.72 169.308 171.885 169.644C172.625 171.159 172.563 173.38 171.701 175.885C170.198 179.852 167.834 181.841 165.453 181.023Z" fill="black"/>
<path d="M96.1539 171.919C95.9034 171.833 95.6958 171.622 95.6566 171.328C95.6644 170.49 95.6721 169.652 95.8052 168.858C86.3609 166.173 80.5028 160.797 79.1043 153.452C77.8271 146.569 80.9156 138.804 86.6943 134.626C91.4198 131.066 97.1637 130.659 102.25 133.387C102.501 133.473 102.665 133.81 102.579 134.06C101.182 140.165 100.032 146.774 98.838 153.509C97.9536 158.528 97.4882 163.552 97.152 168.2C97.1012 169.163 97.0504 170.126 96.9996 171.089C96.9957 171.508 96.659 171.673 96.3654 171.712C96.2792 171.962 96.2792 171.962 96.1539 171.919ZM99.525 133.571C95.3902 132.15 91.1107 132.781 87.4814 135.597C82.0824 139.485 79.2915 146.792 80.4903 153.088C81.8105 159.846 87.2535 164.798 96.0282 167.393C96.3214 162.871 96.826 158.141 97.6673 153.247C98.8177 146.637 100.007 140.321 101.279 134.174C100.61 134.084 100.152 133.787 99.525 133.571Z" fill="black"/>
<path d="M125.982 226.579C107.939 220.379 97.5696 204.487 95.9892 180.549C95.9931 180.13 96.2045 179.922 96.6665 179.801C97.0855 179.805 97.293 180.016 97.4144 180.478C99.0418 203.872 109.122 219.384 126.538 225.369C126.914 225.498 127.078 225.835 126.949 226.211C126.82 226.587 126.358 226.708 125.982 226.579Z" fill="black"/>
<path d="M96.5956 164.926C96.345 164.84 96.0552 164.46 96.1413 164.209C98.4814 151.284 103.343 142.028 106.968 135.148C107.438 134.189 107.865 133.355 108.291 132.521C109.998 129.185 110.902 126.553 111.262 123.875C112.248 116.929 117.788 111.408 117.999 111.2C118.211 110.993 118.63 110.997 118.963 111.251C119.17 111.462 119.166 111.881 118.912 112.214C118.869 112.34 113.458 117.485 112.601 124.055C112.198 126.859 111.251 129.615 109.501 133.077C109.075 133.911 108.648 134.745 108.178 135.704C104.596 142.458 99.9027 151.633 97.4804 164.389C97.3512 164.765 96.9715 165.055 96.5956 164.926Z" fill="black"/>
<path d="M88.8127 159.03C88.5621 158.944 88.4799 158.775 88.3976 158.607C88.2332 158.27 88.4876 157.937 88.8243 157.773C88.9496 157.816 90.8407 157.205 91.6119 155.368C89.8654 153.928 88.8002 151.32 89.2424 148.81C89.7276 146.175 91.548 144.139 94.4884 143.328C95.2359 139.522 92.5224 138.45 92.3971 138.407C92.1465 138.321 91.8567 137.941 91.9859 137.565C92.1151 137.189 92.4518 137.025 92.8277 137.154C92.8277 137.154 97.0878 138.618 95.7806 144.052C95.6945 144.303 95.4831 144.511 95.3147 144.593C92.7541 145.114 91.0628 146.774 90.7067 149.033C90.3937 151.167 91.2515 153.563 92.8765 154.542C93.084 154.754 93.2915 154.965 93.1624 155.341C92.2974 158.266 89.357 159.077 89.2317 159.034C89.1064 158.99 88.938 159.073 88.8127 159.03Z" fill="black"/>
<path d="M97.1817 133.046C96.9311 132.96 96.7667 132.623 96.7275 132.329C98.308 119.984 103.446 94.4313 111.699 85.4994C111.954 85.1665 112.372 85.1704 112.705 85.4249C113.038 85.6793 113.034 86.0983 112.78 86.4311C104.782 95.0302 99.7293 120.332 98.1919 132.552C98.188 132.971 97.8513 133.136 97.4323 133.132C97.307 133.089 97.307 133.089 97.1817 133.046Z" fill="black"/>
<path d="M135.13 111.904C135.005 111.861 134.879 111.818 134.797 111.65C134.797 111.65 131.363 106.967 126.954 107.974C126.66 108.013 126.284 107.884 126.12 107.547C126.081 107.253 126.21 106.878 126.547 106.713C131.754 105.42 135.56 110.651 135.768 110.862C135.932 111.199 135.929 111.618 135.592 111.783C135.549 111.908 135.38 111.99 135.13 111.904Z" fill="black"/>
<path d="M140.419 101.393C139.275 98.1982 139.056 94.7604 139.506 91.4127C139.549 91.2874 139.592 91.1621 139.717 91.2052C139.842 91.2482 139.968 91.2913 139.925 91.4166C139.937 94.6429 140.368 97.8731 141.598 100.817C142.009 101.659 140.705 102.192 140.419 101.393Z" fill="black"/>
<path d="M150.191 114.137C150.066 114.094 150.066 114.094 149.941 114.051C146.452 110.751 142.465 106.859 140.421 101.394C140.257 101.057 140.511 100.724 140.848 100.56C141.184 100.395 141.517 100.65 141.682 100.986C143.644 106.284 147.423 109.964 150.912 113.264C151.245 113.519 151.241 113.938 150.986 114.27C150.736 114.184 150.442 114.223 150.191 114.137Z" fill="black"/>
<path d="M132.808 127.217C131.931 126.915 131.058 126.195 130.689 125.228C128.555 120.432 130.457 114.081 134.803 110.811C137.039 109.197 142.849 106.15 150.872 112.97C151.205 113.225 151.201 113.644 150.99 113.851C150.735 114.184 150.316 114.18 150.109 113.969C145.038 109.565 139.807 108.888 135.715 111.825C131.792 114.679 130.149 120.279 131.993 124.695C132.404 125.537 133.07 126.046 134.033 126.097C134.996 126.147 135.881 125.611 136.308 124.777C137.247 122.858 140.223 118.277 144.882 117.356C147.987 116.882 151.119 117.959 154.318 120.879C154.651 121.134 154.647 121.553 154.393 121.885C154.139 122.218 153.72 122.214 153.387 121.96C150.603 119.462 147.764 118.347 145.078 118.824C142.224 119.385 139.268 121.871 137.475 125.458C136.751 126.75 135.486 127.576 133.979 127.479C133.434 127.432 133.184 127.346 132.808 127.217Z" fill="black"/>
<path d="M167.884 140.11C167.759 140.067 167.508 139.981 167.426 139.813C166.885 139.347 166.599 138.548 166.815 137.922C168.193 133.912 167.346 130.259 164.351 127.969C163.889 128.09 163.345 128.043 162.926 128.04C159.617 127.883 158.039 126.36 155.38 123.906C154.883 123.315 154.092 122.763 153.469 122.128L149.616 117.442C149.409 117.231 149.455 116.686 149.667 116.479C149.878 116.271 150.423 116.318 150.63 116.53L154.358 121.173C154.981 121.807 155.646 122.316 156.269 122.95C158.928 125.405 160.173 126.673 162.937 126.783C163.775 126.791 164.656 126.673 165.412 126.512C167.091 126.109 169.139 126.672 170.76 128.07C172.256 129.425 173.118 131.402 173.055 133.622C172.907 136.093 171.67 138.469 169.434 140.083C168.847 140.161 168.26 140.24 167.884 140.11ZM166.031 127.566C168.772 130.189 169.614 134.261 168.068 138.352C167.982 138.603 168.107 138.646 168.189 138.814C168.314 138.857 168.44 138.9 168.608 138.818C170.464 137.495 171.572 135.494 171.591 133.399C171.65 131.598 171.078 130 169.746 128.983C168.458 127.839 167.037 127.491 166.031 127.566Z" fill="black"/>
<path d="M180.991 122.76C182.671 122.356 184.311 121.659 185.787 120.625C185.955 120.543 186.081 120.586 186.206 120.629C186.288 120.798 186.245 120.923 186.202 121.048C185.443 121.628 184.683 122.207 183.967 122.662C183.125 123.073 182.408 123.527 181.441 123.895C181.105 124.06 180.729 123.931 180.564 123.594C180.4 123.257 180.529 122.881 180.991 122.76Z" fill="black"/>
<path d="M175.438 143.407C175.187 143.321 174.936 143.234 174.729 143.023C174.106 142.389 173.989 141.508 174.372 140.799C175.695 138.172 175.926 135.869 175.147 134.061C174.082 131.453 171.2 130.463 171.2 130.463C170.824 130.334 170.659 129.997 170.789 129.621C170.918 129.245 171.254 129.081 171.63 129.21C171.756 129.253 175.013 130.372 176.451 133.528C177.351 135.799 177.16 138.395 175.708 141.398C175.578 141.774 175.786 141.985 175.868 142.154C176.076 142.365 176.326 142.451 176.663 142.287C181.169 139.773 183.866 133.555 181.975 129.682C180.824 127.325 178.032 125.666 174.931 125.721C174.512 125.717 174.304 125.505 174.308 125.087C174.269 124.793 174.523 124.46 174.942 124.464C177.248 124.276 179.347 123.876 181.281 123.14C181.618 122.975 181.951 123.23 182.115 123.567C182.28 123.903 182.025 124.236 181.689 124.401C180.721 124.769 179.797 125.012 178.873 125.254C180.835 126.069 182.456 127.466 183.361 129.318C185.456 133.821 182.626 140.833 177.446 143.677C176.526 143.501 176.064 143.622 175.438 143.407Z" fill="black"/>
<path d="M199.326 128.92C200.293 128.552 201.303 128.059 202.231 127.397C203.116 126.86 204.044 126.199 204.764 125.325C205.018 124.993 205.559 125.458 205.304 125.791C203.864 127.538 201.965 128.987 199.901 130.099C199.565 130.263 199.189 130.134 199.024 129.797C198.86 129.461 199.032 128.96 199.326 128.92Z" fill="black"/>
<path d="M184.185 130.582C183.559 130.366 182.807 130.108 182.224 129.767C181.848 129.638 181.726 129.176 181.812 128.926C181.942 128.55 182.404 128.428 182.654 128.514C190.207 131.81 195.877 130.396 199.369 128.795C199.706 128.63 200.082 128.759 200.246 129.096C200.411 129.433 200.282 129.809 199.945 129.973C196.535 131.743 191.202 132.993 184.185 130.582Z" fill="black"/>
<path d="M206.195 133.802C208.125 133.485 210.141 132.917 211.95 132.138C212.119 132.056 212.369 132.142 212.451 132.31C212.534 132.478 212.448 132.729 212.279 132.811C210.384 133.841 208.575 134.621 206.559 135.189C205.678 135.306 205.314 133.92 206.195 133.802Z" fill="black"/>
<path d="M195.753 134.837C193.999 134.234 192.248 133.212 190.67 131.689C190.463 131.478 190.341 131.016 190.721 130.726C190.932 130.518 191.395 130.397 191.684 130.777C196.086 135.091 202.08 134.769 206.364 133.72C206.657 133.681 207.033 133.81 207.154 134.272C207.194 134.565 207.065 134.941 206.602 135.063C203.412 135.787 199.512 136.128 195.753 134.837Z" fill="black"/>
<path d="M187.144 200.245C186.393 199.986 185.515 199.685 184.807 199.301C184.431 199.172 184.309 198.71 184.396 198.46C184.525 198.084 184.987 197.962 185.237 198.048C193.417 201.56 201.256 201.171 206.991 197.118C212.179 193.437 215.17 187.18 214.723 181.142C214.726 180.724 214.938 180.516 215.4 180.395C215.819 180.398 216.026 180.61 216.148 181.072C216.591 187.528 213.428 194.287 207.861 198.258C202.168 202.185 194.913 202.914 187.144 200.245Z" fill="black"/>
<path d="M193.572 184.802C193.114 184.504 193.075 184.211 193.204 183.835C194.484 181.333 195.721 178.956 196.915 176.705C197.044 176.329 197.506 176.207 197.839 176.462C198.215 176.591 198.336 177.053 198.082 177.386C196.888 179.637 195.651 182.014 194.371 184.516C194.285 184.767 193.948 184.931 193.572 184.802Z" fill="black"/>
<path d="M125.981 226.578C125.605 226.449 125.44 226.113 125.57 225.737C125.699 225.361 126.035 225.196 126.411 225.326C147.461 232.559 168.674 222.197 186.095 195.961C186.349 195.629 186.643 195.589 187.019 195.719C187.352 195.973 187.391 196.267 187.262 196.643C169.375 223.418 147.657 234.027 125.981 226.578Z" fill="black"/>
<path d="M195.989 168.4C195.738 168.314 195.449 167.934 195.535 167.684L195.801 166.094C196.02 165.048 196.239 164.003 196.415 163.083C197.116 159.821 198.106 156.939 199.515 154.061C205.657 142.303 201.698 135.479 201.741 135.353C201.577 135.017 201.706 134.641 201.917 134.433C202.254 134.269 202.63 134.398 202.837 134.609C203.002 134.946 207.251 142.15 200.725 154.617C199.402 157.245 198.412 160.127 197.754 163.263C197.578 164.183 197.359 165.228 197.14 166.274L196.874 167.864C196.745 168.239 196.408 168.404 195.989 168.4C195.989 168.4 196.114 168.443 195.989 168.4Z" fill="black"/>
<path d="M191.597 185.664C191.221 185.535 191.057 185.198 191.186 184.822C192.047 182.316 192.951 179.685 193.605 176.967C193.734 176.591 194.071 176.427 194.447 176.556C194.823 176.685 194.987 177.022 194.858 177.398C194.161 180.241 193.257 182.872 192.396 185.378C192.353 185.503 191.848 185.75 191.597 185.664Z" fill="black"/>
<path d="M208.663 166.171C208.538 166.128 208.538 166.128 208.663 166.171C208.205 165.874 208.166 165.58 208.295 165.204C215.666 151.907 225.515 128.954 224.684 119.142C224.645 118.848 224.899 118.515 225.193 118.476C229.265 117.634 230.846 114.254 230.823 112.285C230.827 111.866 230.756 110.441 229.542 110.304C228.873 110.214 227.906 110.582 226.727 111.158C226.39 111.322 226.14 111.236 225.932 111.025C225.725 110.813 225.729 110.394 225.94 110.187C230.18 104.779 230.735 99.0861 229.083 96.5569C228.628 95.8405 227.834 95.7074 227.246 95.7858C226.491 95.9464 226.068 96.3615 225.935 97.1563C225.496 99.2472 225.183 101.381 225.183 101.381C225.097 101.632 224.843 101.965 224.549 102.004C224.256 102.043 223.923 101.788 223.884 101.495C220.604 80.0543 208.105 72.3971 203.356 69.5041L203.105 69.418L202.98 69.3749L202.067 68.3609C201.86 68.1495 201.864 67.7305 202.118 67.3977C202.329 67.1902 202.748 67.194 203.081 67.4485L203.954 68.1688C208.579 71.0188 220.244 78.2494 224.38 97.6029C224.466 97.3523 224.553 97.1017 224.513 96.808C224.776 95.6373 225.664 94.6818 226.882 94.3998C228.1 94.1177 229.31 94.6736 230.054 95.7698C231.788 98.4674 231.574 103.577 228.172 108.992C228.759 108.914 229.221 108.793 229.722 108.965C231.187 109.188 232.013 110.452 232.08 112.297C232.096 115.104 230.052 118.605 226.062 119.615C226.596 129.885 216.79 152.713 209.462 165.885C209.25 166.093 208.914 166.257 208.663 166.171Z" fill="black"/>
<path d="M195.161 99.0501C195.035 99.0071 194.91 98.964 194.785 98.921C194.409 98.7918 194.244 98.4551 194.374 98.0792C198.213 86.0898 198.114 69.6646 190.384 62.8056C190.176 62.5942 190.137 62.3005 190.223 62.0499C190.31 61.7993 190.521 61.5918 190.815 61.5526C196.261 61.6029 199.805 63.5211 201.054 64.3706C201.512 64.6682 201.802 65.0479 202.091 65.4277C209.513 78.4848 206.409 92.4084 203.955 99.5504C203.869 99.801 203.7 99.8832 203.532 99.9655C203.321 100.173 200.298 100.815 195.161 99.0501ZM192.518 63.1186C199.277 70.7647 199.388 85.933 195.842 97.8833C199.476 99.1319 201.907 98.9868 202.788 98.8692C205.199 91.8525 207.919 78.6377 200.87 66.1287C200.662 65.9173 200.498 65.5806 200.247 65.4944C199.331 64.8994 196.578 63.5332 192.518 63.1186Z" fill="black"/>
<path d="M124.555 77.4488C124.305 77.3627 124.14 77.026 124.101 76.7324C125.509 60.4049 135.213 43.9865 151.09 44.259C154.442 44.2899 156.772 46.0712 157.583 49.0116C157.986 50.6913 158.511 52.833 161.475 53.9916C161.432 49.6337 163.776 45.2561 168.561 44.3785C172.422 43.7438 176.466 45.8342 178.358 49.7064C180.375 53.6216 184.346 59.1889 192.189 62.8647C192.565 62.9938 192.686 63.4558 192.431 63.7887C192.302 64.1646 191.84 64.286 191.507 64.0315C183.332 60.1013 179.153 54.3226 177.054 50.239C175.366 46.9972 171.948 45.1221 168.675 45.6784C164.059 46.4737 162.215 51.0236 162.724 54.8411C162.806 55.0095 162.72 55.2601 162.509 55.4676C162.298 55.6752 162.172 55.6321 161.922 55.546C157.407 54.4149 156.639 51.3492 156.197 49.3759C155.347 46.1418 152.586 45.6135 150.91 45.598C135.871 45.3334 126.676 61.0861 125.315 76.8693C125.311 77.2882 124.974 77.4527 124.555 77.4488C124.68 77.4919 124.555 77.4488 124.555 77.4488Z" fill="black"/>
<path d="M119.142 78.1103C118.766 77.9812 118.645 77.5192 118.731 77.2686C118.817 77.018 120.872 72.2605 125.183 72.7613C125.602 72.7651 125.766 73.1018 125.762 73.5208C125.759 73.9397 125.422 74.1042 125.003 74.1003C121.612 73.7757 119.815 77.7814 119.815 77.7814C119.854 78.075 119.518 78.2395 119.142 78.1103Z" fill="black"/>
<path d="M175.278 96.9812C175.34 94.7612 175.027 92.412 174.165 90.4348C174.083 90.2664 174.126 90.1411 174.294 90.0589C174.462 89.9766 174.588 90.0197 174.67 90.1881C175.907 92.2944 176.389 94.5614 176.534 96.9929C176.531 97.4118 176.319 97.6194 175.857 97.7408C175.607 97.6547 175.274 97.4002 175.278 96.9812Z" fill="black"/>
<path d="M175.22 103.266C174.97 103.18 174.68 102.8 174.766 102.549C175.118 100.709 175.345 98.8258 175.235 97.1069C175.239 96.688 175.451 96.4804 175.87 96.4843C176.289 96.4882 176.496 96.6996 176.492 97.1185C176.559 98.9627 176.332 100.846 175.894 102.937C175.976 103.105 175.596 103.395 175.22 103.266Z" fill="black"/>
<path d="M171.291 111.441C173.202 108.735 174.153 105.56 174.685 102.381C174.861 101.46 176.239 101.934 175.981 102.686C175.507 104.064 174.944 106.112 174.345 107.447C174.298 107.991 171.233 113.242 171.291 111.441Z" fill="black"/>
<path d="M214.233 107.146C214.108 107.103 213.983 107.06 214.026 106.934C213.818 106.723 213.822 106.304 214.077 105.971C214.077 105.971 214.711 105.348 215.517 104.225C215.772 103.892 216.066 103.853 216.441 103.982C216.774 104.236 216.813 104.53 216.684 104.906C215.792 106.28 215.032 106.86 215.032 106.86C214.778 107.193 214.484 107.232 214.233 107.146Z" fill="black"/>
<path d="M218.49 100.062C218.055 101.734 217.495 103.363 216.685 104.905C216.431 105.238 216.094 105.403 215.761 105.148C215.428 104.894 215.264 104.557 215.518 104.224C216.536 102.893 217.303 101.475 217.863 99.8466C217.949 99.596 218.493 99.643 218.49 100.062Z" fill="black"/>
<path d="M212.524 101.934L212.399 101.891C212.066 101.637 212.027 101.343 212.156 100.967C212.156 100.967 212.794 99.9255 213.354 98.2966C213.483 97.9207 213.82 97.7562 214.195 97.8854C214.571 98.0145 214.736 98.3513 214.607 98.7272C214.004 100.481 213.323 101.648 213.323 101.648C213.111 101.856 212.775 102.02 212.524 101.934Z" fill="black"/>
<path d="M214.628 91.7299C215.152 93.8716 215.129 96.3853 214.523 98.5584C214.393 98.9343 214.057 99.0988 213.681 98.9696C213.305 98.8404 213.14 98.5037 213.27 98.1278C214.084 96.1661 214.44 93.9069 214.209 91.726C214.252 91.6007 214.545 91.5615 214.628 91.7299Z" fill="black"/>
<path d="M128.665 248.935C127.663 248.59 126.786 248.289 125.827 247.819C110.341 241.517 98.3148 227.998 94.4331 212.795C94.4761 212.67 94.3508 212.627 94.3939 212.502C94.48 212.251 95.4974 206.436 98.5234 200.892C98.7779 200.559 99.1577 200.269 99.5336 200.398C99.9525 200.402 100.242 200.782 100.364 201.244C101.79 210.14 105.82 218.389 111.834 224.939C125.317 239.519 145.623 245.656 156.292 238.255C156.503 238.047 156.922 238.051 157.129 238.262C157.38 238.348 157.545 238.685 157.541 239.104C157.177 242.201 157.69 245.6 157.933 246.524C158.054 246.986 157.757 247.444 157.377 247.734C149.711 252.104 139.316 252.595 128.665 248.935ZM95.6507 212.513C99.5364 227.297 111.272 240.436 126.257 246.566C137.526 251.279 148.63 251.172 156.551 246.469C156.351 245.42 155.873 242.734 156.151 239.887C144.648 246.862 124.636 240.685 110.989 225.769C104.974 219.219 100.901 211.095 99.3067 202.282C96.8326 207.035 95.9521 211.636 95.6507 212.513Z" fill="black"/>
<path d="M155.775 239.759C155.399 239.629 155.235 239.293 155.364 238.917L161.478 221.125C161.607 220.749 161.944 220.584 162.32 220.713C162.696 220.842 162.86 221.179 162.731 221.555L156.617 239.347C156.488 239.723 156.151 239.888 155.775 239.759Z" fill="black"/>
<path d="M116.283 260.511C100.996 255.258 87.0405 242.057 90.5707 227.299L94.9625 214.519C95.0916 214.143 95.4283 213.979 95.8042 214.108C96.1801 214.237 96.3446 214.574 96.2154 214.95L91.8237 227.73C88.2974 242.069 102.508 254.937 117.841 259.646C130.751 263.662 147.724 263.19 153.603 248.119C153.732 247.743 154.069 247.579 154.445 247.708C154.821 247.837 154.985 248.174 154.856 248.55C148.719 264.372 130.821 265.087 117.454 260.774C117.035 260.77 116.659 260.64 116.283 260.511Z" fill="black"/>
<path d="M98.0119 210.944C97.636 210.815 97.4716 210.478 97.6007 210.102L99.7105 203.962C99.8397 203.587 100.176 203.422 100.552 203.551C100.928 203.68 101.093 204.017 100.963 204.393L98.8537 210.533C98.7676 210.783 98.3878 211.073 98.0119 210.944Z" fill="black"/>
<path d="M103.789 220.634C103.413 220.505 103.249 220.168 103.378 219.792L104.498 216.535C104.627 216.159 104.963 215.994 105.339 216.123C105.715 216.253 105.88 216.589 105.751 216.965L104.631 220.223C104.502 220.599 104.165 220.763 103.789 220.634Z" fill="black"/>
<path d="M114.331 236.024C113.955 235.895 113.79 235.558 113.92 235.182L115.771 229.794C115.9 229.419 116.237 229.254 116.613 229.383C116.989 229.512 117.153 229.849 117.024 230.225L115.173 235.613C115.043 235.989 114.707 236.153 114.331 236.024Z" fill="black"/>
<path d="M131.272 243.387C130.896 243.258 130.731 242.921 130.861 242.545L131.937 239.413C132.066 239.037 132.403 238.872 132.779 239.001C133.155 239.131 133.319 239.467 133.19 239.843L132.114 242.976C131.984 243.352 131.648 243.516 131.272 243.387Z" fill="black"/>
<path d="M149.761 246.658C149.385 246.529 149.22 246.192 149.35 245.816L151.072 240.804C151.201 240.428 151.538 240.264 151.914 240.393C152.289 240.522 152.454 240.859 152.325 241.235L150.603 246.247C150.473 246.623 150.137 246.787 149.761 246.658Z" fill="black"/>
<path d="M100.562 179.878C100.186 179.749 100.021 179.412 100.151 179.036L101.787 174.275C101.916 173.899 102.253 173.735 102.628 173.864C103.004 173.993 103.169 174.33 103.04 174.705L101.404 179.467C101.274 179.843 100.938 180.007 100.562 179.878Z" fill="black"/>
<path d="M119.481 186.379C119.105 186.25 118.94 185.913 119.069 185.537L120.275 182.029C120.404 181.653 120.741 181.488 121.117 181.618C121.493 181.747 121.657 182.084 121.528 182.459L120.322 185.968C120.193 186.344 119.856 186.508 119.481 186.379Z" fill="black"/>
<path d="M143.209 193.973C142.959 193.887 142.669 193.507 142.755 193.257L143.89 188.323C144.019 187.947 144.356 187.783 144.65 187.744C145.026 187.873 145.19 188.209 145.229 188.503L144.094 193.437C144.09 193.856 143.711 194.145 143.209 193.973C143.335 194.016 143.335 194.016 143.209 193.973Z" fill="black"/>
<path d="M165.496 194.347C165.245 194.261 165.081 193.924 165.042 193.631L165.495 189.864C165.499 189.445 165.836 189.281 166.255 189.284C166.674 189.288 166.838 189.625 166.835 190.044L166.381 193.811C166.377 194.23 166.04 194.394 165.621 194.39C165.496 194.347 165.496 194.347 165.496 194.347Z" fill="black"/>
<path d="M184.776 193.687C184.526 193.601 184.318 193.39 184.322 192.971L184.67 187.066C184.674 186.647 185.01 186.483 185.304 186.443C185.723 186.447 185.887 186.784 185.927 187.078L185.579 192.982C185.575 193.401 185.238 193.566 184.945 193.605C184.776 193.687 184.776 193.687 184.776 193.687Z" fill="black"/>
<path d="M201.117 184.452C200.867 184.366 200.702 184.03 200.663 183.736L200.949 180.051C200.952 179.632 201.289 179.468 201.708 179.472C202.127 179.476 202.292 179.812 202.288 180.231L202.002 183.916C201.998 184.335 201.662 184.499 201.243 184.495C201.243 184.495 201.243 184.495 201.117 184.452Z" fill="black"/>
<path d="M203.965 171.282C203.589 171.153 203.424 170.816 203.554 170.44L204.845 166.681C204.974 166.305 205.311 166.141 205.687 166.27C206.063 166.399 206.227 166.736 206.098 167.112L204.807 170.871C204.677 171.247 204.341 171.411 203.965 171.282Z" fill="black"/>
<path d="M182.895 170.626C182.52 170.497 182.355 170.16 182.484 169.784L184.25 164.647C184.379 164.271 184.715 164.107 185.091 164.236C185.467 164.365 185.632 164.702 185.503 165.078L183.737 170.215C183.608 170.591 183.271 170.755 182.895 170.626Z" fill="black"/>
<path d="M160.738 156.007C160.362 155.878 160.198 155.541 160.327 155.165L161.533 151.657C161.662 151.281 161.999 151.116 162.375 151.246C162.75 151.375 162.915 151.711 162.786 152.087L161.58 155.596C161.451 155.972 160.989 156.093 160.738 156.007Z" fill="black"/>
<path d="M139.61 139.22C139.152 138.923 139.113 138.629 139.242 138.253L142.182 132.959C142.311 132.583 142.773 132.462 143.106 132.716C143.482 132.846 143.604 133.308 143.349 133.64L140.409 138.934C140.323 139.185 139.986 139.349 139.61 139.22Z" fill="black"/>
<path d="M126.58 116.39C126.122 116.093 126.083 115.799 126.212 115.423L128.342 111.672C128.471 111.296 128.933 111.175 129.266 111.429C129.599 111.684 129.763 112.02 129.509 112.353L127.379 116.104C127.293 116.355 126.956 116.519 126.58 116.39Z" fill="black"/>
<path d="M117.825 98.2518L117.699 98.2087C117.366 97.9543 117.327 97.6606 117.456 97.2847L121.109 91.9555C121.363 91.6226 121.657 91.5834 122.033 91.7126C122.366 91.9671 122.405 92.2607 122.276 92.6366L118.623 97.9659C118.369 98.2987 118.075 98.3379 117.825 98.2518Z" fill="black"/>
<path d="M78.2849 228.401C78.1596 228.358 77.9521 228.147 77.8698 227.979C77.7054 227.642 77.9598 227.309 78.2965 227.145L92.6734 221.998C93.0101 221.834 93.343 222.088 93.5074 222.425C93.6719 222.762 93.4175 223.094 93.0808 223.259L78.7039 228.405C78.5355 228.487 78.4102 228.444 78.2849 228.401Z" fill="black"/>
<path d="M26.7213 231.275C26.596 231.232 26.3884 231.021 26.3062 230.853C26.1417 230.516 26.2709 230.14 26.6076 229.975C26.6076 229.975 32.2455 227.43 39.5123 225.444C47.1159 223.294 54.8722 222.737 62.8246 223.648L81.8263 225.835C82.2453 225.839 82.4098 226.176 82.4059 226.595C82.402 227.013 82.0653 227.178 81.6464 227.174L62.7699 225.03C54.9859 224.037 47.3548 224.637 39.9197 226.705C32.7781 228.734 27.3086 231.197 27.1833 231.154C27.0149 231.236 26.8466 231.318 26.7213 231.275Z" fill="black"/>
<path d="M144.604 301.624C144.478 301.581 144.353 301.538 144.353 301.538C143.061 300.814 140.061 298.943 138.197 296.621C137.618 295.861 137.794 294.941 138.428 294.319C145.824 287.474 156.695 267.253 159.223 252.151L156.332 247.516C156.168 247.179 156.172 246.76 156.509 246.596C156.845 246.431 157.221 246.56 157.429 246.772L160.526 251.619C160.609 251.787 160.691 251.955 160.648 252.081C158.159 267.476 146.948 288.28 139.384 295.207C139.215 295.29 139.255 295.583 139.38 295.626C141.036 297.737 144.036 299.608 145.203 300.289C145.328 300.332 145.453 300.375 145.622 300.293C156.016 290.836 164.98 272.902 167.258 257.714C167.261 257.295 167.598 257.131 168.017 257.135C168.393 257.264 168.601 257.475 168.597 257.894C166.359 273.376 157.14 291.642 146.534 301.307C145.86 301.636 145.23 301.839 144.604 301.624Z" fill="black"/>
<path d="M201.967 292.056C201.842 292.013 201.717 291.97 201.635 291.802L201.18 291.085C201.18 291.085 198.38 285.78 193.869 279.747C189.276 273.545 183.625 268.381 176.874 264.381L167.124 258.508C166.874 258.422 166.835 258.129 166.752 257.96L166.717 257.248C166.639 256.66 166.392 256.155 165.934 255.858C163.475 254.452 161.521 252.8 160.483 251.743L160.311 252.244C160.182 252.62 159.845 252.785 159.595 252.699C159.219 252.57 159.054 252.233 159.14 251.982L159.575 250.31C159.661 250.06 159.872 249.852 160.041 249.77C160.334 249.731 160.585 249.817 160.667 249.985C160.667 249.985 163.114 252.647 166.615 254.691C167.574 255.161 168.068 256.171 168.142 257.177L168.182 257.471L177.681 263.257C184.514 267.426 190.415 272.676 194.965 279.003C199.433 285.161 202.233 290.466 202.359 290.509L202.688 291.183C202.852 291.52 202.723 291.895 202.386 292.06C202.386 292.06 202.218 292.142 201.967 292.056Z" fill="black"/>
<path d="M141.31 277.376C144.336 276.314 147.198 274.916 149.77 273.138C149.939 273.056 150.064 273.099 150.146 273.268C150.229 273.436 150.185 273.561 150.142 273.686C147.609 275.758 144.787 277.45 141.717 278.636C140.875 279.048 140.343 277.744 141.31 277.376Z" fill="black"/>
<path d="M129.124 281.034C128.873 280.948 128.666 280.736 128.626 280.443C128.63 280.024 128.842 279.816 129.261 279.82C133.493 279.733 137.44 278.848 141.265 277.501C141.602 277.336 141.935 277.591 142.099 277.928C142.264 278.264 142.009 278.597 141.672 278.762C137.804 280.234 133.607 281.033 129.331 281.245C129.249 281.077 129.124 281.034 129.124 281.034Z" fill="black"/>
<path d="M112.187 277.316C117.744 279.086 123.558 280.103 129.302 279.695C129.721 279.699 129.928 279.91 130.05 280.372C130.046 280.791 129.792 281.124 129.373 281.12C123.464 281.191 117.442 279.963 111.972 277.943C111.596 277.814 111.812 277.187 112.187 277.316Z" fill="black"/>
<path d="M79.2308 243.996C79.6695 246.388 80.402 248.741 81.3027 251.012C81.385 251.18 81.3419 251.306 81.1736 251.388C81.0052 251.47 80.8799 251.427 80.7977 251.259C79.6032 249.027 78.7025 246.756 78.0131 244.278C77.7702 243.354 79.1132 243.115 79.2308 243.996Z" fill="black"/>
<path d="M78.427 244.7C78.1764 244.614 78.0942 244.446 78.0119 244.278C77.7299 243.06 77.5731 241.885 77.4164 240.711C77.3772 240.417 77.6317 240.084 77.9684 239.92C78.2621 239.881 78.5949 240.135 78.7594 240.472C78.9161 241.646 79.1159 242.696 79.2727 243.87C79.3118 244.164 79.1827 244.54 78.7207 244.661C78.6776 244.787 78.5523 244.743 78.427 244.7Z" fill="black"/>
<path d="M78.3977 234.184C78.21 236.361 78.316 238.498 78.5903 240.554C78.7078 241.435 77.3648 241.674 77.2473 240.793C77.2512 240.374 77.4108 232.163 78.3977 234.184Z" fill="black"/>
<path d="M40.7308 288.765C42.3481 290.581 44.2198 292.065 46.3029 293.341C46.4282 293.385 46.4674 293.678 46.4244 293.803C46.3813 293.929 46.213 294.011 45.9624 293.925C43.6678 292.856 41.6277 291.455 39.8421 289.72C39.0942 289.043 40.1082 288.131 40.7308 288.765Z" fill="black"/>
<path d="M28.9109 311.742C28.535 311.612 28.3706 311.276 28.4997 310.9C29.9206 306.765 26.9836 302.674 23.7176 297.909C19.2495 291.75 13.7083 283.822 16.91 272.874C17.9042 269.574 20.2297 267.291 23.1271 266.605C25.2687 266.08 27.4419 266.687 28.7693 268.124C30.179 269.729 31.2874 272.211 32.5171 275.155C34.2795 279.404 36.6606 284.705 40.6039 288.722C40.8114 288.933 40.8076 289.352 40.5531 289.685C40.2986 290.018 39.9227 289.888 39.5899 289.634C35.3138 285.363 33.101 279.979 31.2564 275.563C29.9836 272.744 29.0006 270.305 27.7984 268.911C26.7607 267.854 25.0888 267.419 23.4091 267.823C20.9738 268.387 19.028 270.38 18.206 273.18C15.0513 283.583 20.1382 290.795 24.6886 297.122C28.2874 302.141 31.3066 306.401 29.6274 311.287C29.6235 311.706 29.2868 311.871 28.9109 311.742Z" fill="black"/>
<path d="M61.7381 323.022C61.4875 322.936 61.3231 322.599 61.2839 322.306C61.2839 322.306 61.9099 318.038 59.6071 313.324C59.4426 312.987 59.5718 312.611 59.9085 312.447C60.2452 312.282 60.6211 312.412 60.7856 312.748C63.3781 317.842 62.666 322.36 62.623 322.486C62.4938 322.862 62.2393 323.194 61.7381 323.022Z" fill="black"/>
<path d="M55.2307 306.496C57.4353 308.234 59.3854 310.305 60.6621 312.705C60.8266 313.042 60.6974 313.418 60.3607 313.582C60.024 313.747 59.6481 313.618 59.4836 313.281C58.3753 310.799 56.8441 308.732 54.8079 306.911C54.5573 306.825 54.8979 306.242 55.2307 306.496Z" fill="black"/>
<path d="M54.1982 282.186C54.5195 283.697 54.8837 285.083 55.4986 286.555C55.5809 286.724 55.5378 286.849 55.3694 286.931C55.2011 287.013 55.0758 286.97 54.9936 286.802C54.2103 285.412 53.4271 284.022 52.9806 282.468C52.6947 281.669 54.0807 281.305 54.1982 282.186Z" fill="black"/>
<path d="M35.21 283.226C34.9594 283.14 34.7518 282.928 34.7126 282.635C33.0471 267.913 39.0517 252.885 47.9199 249.908C50.778 248.929 53.6637 249.5 55.7822 251.489C57.9006 253.478 58.8798 256.336 58.1831 259.179C57.6626 261.101 56.9737 263.106 56.2848 265.111C54.4764 270.373 52.625 275.761 54.1174 282.018C54.2819 282.355 54.0274 282.687 53.6907 282.852C53.354 283.016 53.0212 282.762 52.8567 282.425C51.0745 275.789 53.1373 270.193 54.9888 264.806C55.6777 262.801 56.3235 260.921 56.8441 258.999C57.4115 256.532 56.6791 254.179 54.8504 252.57C53.0218 250.961 50.555 250.393 48.2841 251.294C40.0464 254.067 34.4253 268.386 35.9695 282.646C36.0087 282.94 35.7542 283.273 35.4175 283.437C35.3353 283.269 35.3353 283.269 35.21 283.226Z" fill="black"/>
<path d="M52.8011 279.324C52.4252 279.195 52.3038 278.733 52.3899 278.482C54.6603 273.098 57.4672 268.599 60.5991 265.193C64.6198 260.83 71.084 259.549 76.3388 262.196C77.5487 262.752 78.7156 263.433 79.8825 264.114C81.6328 265.136 83.6337 266.243 85.9713 267.187C88.8923 268.471 90.5802 271.713 89.9658 274.724C89.4414 277.065 88.126 278.855 86.188 280.01C83.1968 281.784 78.7959 281.953 73.9915 280.442C73.6156 280.313 73.4511 279.976 73.5803 279.6C73.7094 279.224 74.0461 279.06 74.422 279.189C78.7252 280.527 82.7894 280.523 85.4439 278.914C87.1705 277.966 88.2314 276.509 88.6267 274.544C89.1942 272.077 87.8353 269.508 85.4154 268.397C82.9956 267.285 80.9947 266.177 79.2444 265.155C77.9522 264.431 76.9106 263.793 75.7007 263.237C70.9041 260.888 65.1955 262.009 61.4293 266.038C58.3404 269.32 55.7018 273.737 53.3492 278.952C53.5137 279.289 53.177 279.453 52.8011 279.324Z" fill="black"/>
<path d="M75.2155 302.156C73.5866 301.596 72.0047 300.492 70.4697 298.844C67.6502 295.634 66.4321 291.433 67.4732 287.588C68.4712 283.868 71.1804 280.876 75.174 279.447C75.5107 279.282 75.8435 279.537 76.008 279.873C76.1725 280.21 75.918 280.543 75.5813 280.707C72.0497 282.016 69.4697 284.631 68.6009 287.975C67.732 291.319 68.7857 295.184 71.3153 298.014C73.1401 300.042 75.3916 301.236 77.3611 301.212C79.0369 301.228 80.6773 300.531 81.9889 299.16C82.6662 298.412 83.0067 297.829 83.0067 297.829C83.2612 297.496 83.5979 297.332 83.9308 297.586C84.2636 297.84 84.4281 298.177 84.1736 298.51C84.1736 298.51 83.79 299.219 82.9013 300.174C81.3353 301.878 79.3581 302.739 77.2633 302.72C76.7621 302.548 75.9673 302.415 75.2155 302.156Z" fill="black"/>
<path d="M83.7918 298.799C76.6498 296.345 72.8667 288.601 75.321 281.459C75.4932 280.958 75.6223 280.582 75.9199 280.124C76.006 279.873 76.3427 279.708 76.5933 279.795L77.1375 279.841C77.5134 279.971 77.6779 280.307 77.7171 280.601C77.5879 280.977 77.2512 281.141 76.9576 281.181C76.8714 281.431 76.7853 281.682 76.6992 281.932C74.5033 288.323 77.9575 295.393 84.3477 297.589C90.7379 299.785 97.8088 296.331 100.005 289.941C102.201 283.551 98.7464 276.48 92.3562 274.284C91.4791 273.982 90.559 273.806 89.6388 273.63C89.2199 273.626 89.0554 273.29 89.0593 272.871C89.0631 272.452 89.3998 272.287 89.8188 272.291C90.9073 272.385 91.8274 272.561 92.8298 272.906C99.9718 275.36 103.755 283.104 101.301 290.246C98.8465 297.388 90.9338 301.253 83.7918 298.799Z" fill="black"/>
<path d="M86.2988 331.462C86.1735 331.419 86.1735 331.419 86.0482 331.376C85.7154 331.121 85.7192 330.702 85.9307 330.495C88.3462 327.542 89.3834 324.116 90.3814 320.396C92.0253 314.797 93.63 308.904 101.038 305.286C104.111 303.68 105.853 301.056 105.712 298.206C105.665 294.267 102.207 292.098 99.8616 291.993C99.4427 291.989 99.2782 291.652 99.2821 291.233C99.2859 290.814 99.6226 290.65 100.042 290.654C102.888 290.931 106.929 293.441 107.094 298.261C107.188 301.655 105.106 304.862 101.57 306.589C94.75 310.13 93.2353 315.353 91.5914 320.952C90.5111 324.504 89.47 328.349 86.8431 331.509C86.8431 331.509 86.5494 331.548 86.2988 331.462Z" fill="black"/>
<path d="M72.594 304.477C73.5964 304.822 74.724 305.209 75.9378 305.346C76.1884 305.432 76.2707 305.601 76.2276 305.726C76.1846 305.851 76.1415 305.977 75.9731 306.059C74.6732 306.173 73.4595 306.036 72.2065 305.605C71.2863 305.429 71.8422 304.219 72.594 304.477Z" fill="black"/>
<path d="M72.1651 305.731C71.4133 305.473 70.8298 305.132 70.2464 304.791C69.9136 304.537 69.8744 304.243 70.0036 303.867C70.258 303.535 70.5517 303.495 70.9276 303.625C71.3857 303.922 71.9691 304.263 72.5956 304.478C72.9715 304.607 73.136 304.944 73.0068 305.32C72.8777 305.696 72.541 305.86 72.1651 305.731Z" fill="black"/>
<path d="M68.1388 301.546C68.969 302.391 69.8422 303.112 70.9268 303.625C71.6356 304.008 71.0797 305.218 70.2457 304.791C69.1219 303.985 68.2095 302.971 67.6338 301.792C67.5515 301.624 67.9313 301.334 68.1388 301.546Z" fill="black"/>
<path d="M196.395 92.6087C196.144 92.5226 195.854 92.1428 195.94 91.8922C196.07 91.5164 196.281 91.3088 196.7 91.3127L201.97 92.2832C202.346 92.4123 202.554 92.6237 202.55 93.0427C202.546 93.4616 202.209 93.6261 201.79 93.6223L196.395 92.6087Z" fill="black"/>
<path d="M195.057 69.5951C194.681 69.466 194.517 69.1293 194.646 68.7534C194.775 68.3775 195.112 68.213 195.488 68.3422L199.752 69.3871C200.127 69.5163 200.292 69.853 200.163 70.2289C200.034 70.6048 199.697 70.7693 199.321 70.6401L195.057 69.5951Z" fill="black"/>
<path d="M99.6789 202.83C99.303 202.701 99.1385 202.365 99.2677 201.989L99.9566 199.984C100.086 199.608 100.422 199.444 100.798 199.573C101.174 199.702 101.339 200.039 101.21 200.414L100.521 202.419C100.391 202.795 100.055 202.96 99.6789 202.83Z" fill="black"/>
<path d="M92.3505 284.088C93.9421 284.635 95.6757 283.788 96.2226 282.196C96.7696 280.605 95.9227 278.871 94.3311 278.324C92.7395 277.777 91.0058 278.624 90.4589 280.216C89.912 281.807 90.7589 283.541 92.3505 284.088Z" fill="white" stroke="black" stroke-width="1.32489" stroke-miterlimit="10" stroke-linecap="round" stroke-linejoin="round"/>
<path d="M148.337 291.98L143.075 290.171C142.699 290.042 142.534 289.706 142.664 289.33C142.793 288.954 143.13 288.789 143.505 288.918L148.768 290.727C149.144 290.856 149.308 291.193 149.179 291.569C149.05 291.944 148.713 292.109 148.337 291.98Z" fill="black"/>
<path d="M156.342 273.576L153.21 272.5C152.834 272.37 152.669 272.034 152.798 271.658C152.928 271.282 153.264 271.117 153.64 271.247L156.773 272.323C157.149 272.452 157.313 272.789 157.184 273.165C157.055 273.541 156.718 273.705 156.342 273.576Z" fill="black"/>
<path d="M164.069 258.02L158.932 256.254C158.556 256.125 158.392 255.789 158.521 255.413C158.65 255.037 158.987 254.872 159.363 255.001L164.5 256.767C164.876 256.896 165.04 257.233 164.911 257.609C164.782 257.984 164.32 258.106 164.069 258.02Z" fill="black"/>
<path d="M168.244 359.621L11.6216 305.8C6.10844 303.905 3.14775 297.845 5.04224 292.332L101.575 11.4135C103.469 5.90038 109.53 2.93968 115.043 4.83417L271.666 58.6548C277.179 60.5493 280.14 66.6101 278.245 72.1232L181.669 353.167C179.775 358.68 173.757 361.515 168.244 359.621ZM114.613 6.08715C109.726 4.40795 104.507 6.95743 102.828 11.8441L6.25216 292.887C4.57295 297.774 7.12244 302.993 12.0091 304.672L168.632 358.493C173.518 360.172 178.737 357.623 180.416 352.736L276.992 71.6926C278.671 66.806 276.122 61.587 271.235 59.9078L114.613 6.08715Z" fill="black"/>
</g>
<defs>
<clipPath id="clip0_365_8050">
<rect width="188.135" height="319.3" fill="white" transform="translate(103.766 0.958984) rotate(18.9644)"/>
</clipPath>
</defs>
</svg>
