<svg width="267" height="359" viewBox="0 0 267 359" fill="none" xmlns="http://www.w3.org/2000/svg">
<g clip-path="url(#clip0_365_7495)">
<path d="M255.119 48.2612L95.1933 4.72991C89.952 3.30322 84.4572 6.33878 82.9957 11.708L4.94549 298.449C3.51881 303.69 6.6822 309.22 11.9236 310.647L171.849 354.178C177.091 355.605 182.62 352.441 184.047 347.2L262.097 60.4589C263.431 55.0549 260.36 49.6879 255.119 48.2612Z" fill="#ED6D3A"/>
<path d="M107.168 274.508C151.86 286.673 201.737 246.397 218.572 184.548C235.407 122.7 212.824 62.7004 168.133 50.5354C123.441 38.3705 73.5635 78.6468 56.7286 140.495C39.8936 202.343 62.476 262.343 107.168 274.508Z" fill="#FFD979"/>
<path d="M174.181 183.176C172.613 185.907 170.371 187.082 167.257 186.921C164.526 186.864 161.923 185.332 157.704 184.183L154.252 183.244C149.906 182.061 147.047 181.969 144.664 180.634C141.933 179.067 140.596 176.918 140.501 173.734C140.475 168.784 144.274 165.423 149.537 164.247C151.28 163.898 155.335 163.629 160.158 165.079C158.113 164.522 156.29 167.184 155.28 170.891C154.271 174.598 154.366 177.782 156.539 178.374C158.585 178.931 160.408 176.269 161.417 172.561C162.426 168.854 162.203 165.635 160.158 165.079L161.436 165.427C166.294 166.749 169.781 169.071 171.072 170.384C175.048 173.937 176.712 178.922 174.181 183.176Z" fill="white"/>
<path d="M128.927 170.858C127.359 173.589 125.117 174.764 122.003 174.603C119.272 174.546 116.669 173.014 112.322 171.83L108.87 170.891C104.524 169.708 101.665 169.616 99.1547 168.246C96.4232 166.679 95.0859 164.53 94.9913 161.346C94.9656 156.396 98.7637 153.036 104.027 151.86C105.77 151.51 109.825 151.241 114.648 152.691L115.927 153.039C113.974 152.645 112.279 155.342 111.305 158.921C110.296 162.628 110.39 165.812 112.563 166.404C114.609 166.96 116.432 164.299 117.441 160.591C118.415 157.012 118.158 153.921 116.438 153.178C121.133 154.593 124.365 156.846 125.562 157.996C129.666 161.585 131.33 166.569 128.927 170.858Z" fill="white"/>
<path d="M190.377 271.48L177.163 267.059L177.615 263.887L177.661 263.213L177.846 262.027L178.714 255.81L179.435 256.693C175.168 251.687 174.619 245.633 175.954 241.74C176.093 241.228 176.36 240.752 176.755 240.31C178.171 238.636 180.716 238.367 182.518 239.819C184.982 241.863 186.321 245.523 189.159 251.238C190.764 254.421 191.428 258.035 191 261.626C190.838 263.229 190.734 265.124 190.561 267.273C190.526 267.401 190.515 267.947 190.503 268.494C190.481 269.586 190.447 271.224 190.377 271.48Z" fill="#F8B682"/>
<path d="M195.219 196.18C195.324 195.796 195.428 195.413 195.532 195.029L195.567 194.901C197.876 187.428 196.326 178.493 191.212 177.101C189.773 179.868 188.009 184.331 187.942 190.629C187.841 197.055 185.589 201.797 182.813 205.435C180.7 208.155 178.307 210.388 176.147 212.271C171.826 216.038 166.902 221.014 168.102 228.206C168.358 229.787 166.569 230.81 165.337 229.788C162.303 227.314 159.373 222.947 160.172 216.985C160.206 216.857 160.241 216.73 160.241 216.73C163.025 206.502 169.204 199.946 174.999 193.285C185.207 181.508 187.511 164.972 181.346 150.798C177.972 143.015 174.169 135.8 176.823 122.517C167.716 127.728 145.664 135.594 112.426 125.036C112.426 125.036 107.316 131.197 95.2439 133.678C78.4424 159.587 96.4494 174.65 90.1859 197.661L90.1511 197.789C87.7834 203.46 83.0435 205.74 79.1743 206.335C77.5941 206.591 76.5706 204.802 77.5926 203.57C82.2727 197.978 80.5496 191.193 78.7342 185.756C77.8265 183.037 76.8606 180.028 76.4173 176.612C75.8689 172.069 76.3311 166.839 79.5355 161.121C82.705 155.53 83.5394 150.951 83.5727 147.802C78.0756 146.306 71.9673 154.118 70.4491 162.217C58.5216 151.556 61.5815 135.775 72.4517 123.08C77.6545 117.081 82.5435 110.723 86.5723 103.993C93.8637 91.8347 104.558 76.7581 122.276 70.184C122.438 70.091 122.729 70.0327 122.892 69.9397C123.96 69.5441 125.157 69.1833 126.354 68.8225C127.55 68.4616 128.875 68.1356 130.037 67.9027C138.914 66.0623 149.418 66.3128 161.691 69.6533L163.353 70.1057C179.077 74.3857 189.631 81.5153 196.654 90.0177C208.979 104.769 210.615 123.477 210.703 137.781C210.73 145.752 211.757 153.584 213.202 161.392C216.266 177.879 211.033 193.069 195.219 196.18Z" fill="#8E4020"/>
<path d="M195.663 195.065L195.628 195.192C195.048 196.819 194.409 198.156 194.34 198.412C192.529 202.038 189.741 204.712 185.802 205.562C185.512 205.621 184.257 205.691 182.909 205.599C185.684 201.96 187.936 197.218 188.038 190.792C188.104 184.494 189.741 179.996 191.308 177.265C196.421 178.657 197.971 187.592 195.663 195.065Z" fill="#F8B682"/>
<path d="M178.714 255.81L177.845 262.028L169.909 261.927C168.817 261.904 167.956 261.533 167.201 260.778L166.48 259.895L163.399 256.585C162.55 255.667 162.062 254.436 162.119 253.216L162.499 245.767L162.683 243.071C162.845 241.467 164.123 240.305 165.634 240.304L176.719 240.438C176.324 240.88 176.057 241.356 175.918 241.868C174.584 245.761 175.098 251.943 179.4 256.821L178.714 255.81Z" fill="#F1F0EE"/>
<path d="M191.803 290.955C188.204 298.626 182.758 305.52 174.324 310.776L169.696 327.779C158.415 332.397 138.24 325.807 135.91 314.188L138.868 303.322C139.946 299.359 140.258 295.187 139.768 290.935C137.843 275.306 146.543 268.063 150.387 264.029C151.177 263.145 152.001 262.134 152.826 261.123C155.567 257.612 157.738 253.672 159.222 248.721C159.466 247.826 159.965 247.001 160.685 246.373C161.766 245.431 162.567 245.512 162.567 245.512L162.188 252.961C162.13 254.181 162.619 255.412 163.468 256.33L166.549 259.64C165.319 264.66 159.883 269.497 163.44 271.564C163.51 271.308 163.742 270.959 163.812 270.704C165.39 267.426 168.364 265.077 171.85 264.378C173.43 264.122 175.463 263.714 177.555 263.597C179.228 263.503 181.029 263.444 182.888 263.676C185.968 263.965 188.699 265.532 190.513 267.948C191.141 268.668 191.606 269.481 191.909 270.388C192.211 271.294 192.642 272.235 192.875 273.397C194.874 274.628 196.014 276.997 195.353 279.426C194.588 283.749 193.451 287.422 191.803 290.955Z" fill="#F8B682"/>
<path d="M169.709 353.458L124.838 341.245C132.041 314.782 132.469 311.191 136.038 314.222C138.368 325.841 158.416 332.397 169.825 327.813C174.937 327.694 175.173 333.388 169.709 353.458Z" fill="#FEC82F"/>
<path d="M197.386 297.693L183.954 347.038C182.527 352.279 176.998 355.443 171.756 354.016L169.711 353.459C175.209 333.261 174.974 327.567 169.698 327.779L174.361 310.649C182.667 305.357 188.206 298.627 191.84 290.828C193.479 292.372 195.048 294.173 196.421 296.194L197.386 297.693Z" fill="#FEC82F"/>
<path d="M150.354 264.156C146.603 268.353 137.81 275.434 139.735 291.062C140.26 295.187 139.948 299.358 138.835 303.449L135.877 314.315C132.308 311.284 131.915 314.747 124.677 341.338L11.9236 310.647C6.68228 309.22 3.51889 303.69 4.94557 298.449L18.6905 247.953C31.0629 241.846 43.1386 246.918 60.5315 242.041C62.9249 241.319 65.2601 240.307 67.63 239.167C69.2215 238.365 72.5098 237.886 75.0439 239.675C81.7776 251.257 96.6091 259.825 109.904 263.444C123.199 267.063 140.327 267.194 152.13 260.657L152.921 261.285C151.968 262.261 151.179 263.145 150.354 264.156Z" fill="#FEC82F"/>
<path d="M152.002 260.623C140.327 267.194 123.071 267.028 109.904 263.444C96.6087 259.825 81.7772 251.257 74.9156 239.64C74.9156 239.64 76.3914 239.767 78.2735 238.906C80.1555 238.045 81.7002 236.406 82.6404 234.465C84.0104 231.955 86.31 229.56 90.658 233.764C90.658 233.764 100.063 242.091 114.508 246.023C128.954 249.955 141.282 247.544 141.282 247.544C147.126 246.251 147.895 249.481 147.838 252.212C147.793 254.396 148.2 256.43 149.352 258.253C150.793 260.019 152.002 260.623 152.002 260.623Z" fill="#FEC82F"/>
<path d="M147.499 225.206L141.409 247.578C141.409 247.578 129.082 249.99 114.636 246.057C100.19 242.125 90.7855 233.798 90.7855 233.798L96.875 211.427C103.131 219.72 112.256 226.049 119.542 228.032C126.864 229.888 137.903 229.185 147.499 225.206Z" fill="#F8B682"/>
<path d="M181.346 150.799C177.973 143.015 174.169 135.801 176.824 122.518C167.716 127.728 145.665 135.594 112.426 125.036C112.426 125.036 107.317 131.197 95.2445 133.678C78.443 159.588 96.4499 174.65 90.1864 197.661L90.1516 197.789C90.5125 198.986 90.9663 200.345 91.0246 200.635C92.3279 204.423 94.3748 208.001 96.7817 211.265C103.037 219.559 112.162 225.887 119.449 227.87C126.736 229.854 137.809 229.023 147.406 225.045C151.298 223.358 155.003 221.346 158.081 218.613C158.279 218.393 159.127 217.799 160.044 216.951C160.079 216.823 160.114 216.695 160.114 216.695C162.898 206.468 169.076 199.911 174.872 193.25C185.045 181.602 187.512 164.972 181.346 150.799ZM123.575 136.035C127.434 137.497 129.237 141.97 127.519 145.759L127.485 145.887C127.485 145.887 116.86 137.502 105.358 141.924C110.677 134.995 115.893 132.982 123.575 136.035ZM128.926 170.858C127.359 173.589 125.117 174.764 122.003 174.603C119.272 174.546 116.668 173.013 112.322 171.83L108.87 170.891C104.523 169.708 101.665 169.616 99.1543 168.246C96.4228 166.679 95.0854 164.53 94.9909 161.346C94.9652 156.396 98.7633 153.036 104.027 151.859C105.769 151.51 109.825 151.241 114.648 152.691L115.926 153.039L116.054 153.074C116.182 153.108 116.182 153.108 116.31 153.143C121.005 154.558 124.236 156.811 125.434 157.961C129.665 161.584 131.329 166.569 128.926 170.858ZM162.055 146.509C170.224 147.771 173.736 152.023 174.902 160.853C167.228 151.212 153.691 153.02 153.691 153.02C153.691 153.02 153.691 153.02 153.726 152.892C154.131 148.883 157.953 145.941 162.055 146.509ZM174.181 183.176C172.614 185.907 170.372 187.082 167.257 186.921C164.526 186.864 161.923 185.332 157.704 184.183L154.253 183.244C149.906 182.061 147.047 181.969 144.665 180.634C141.933 179.067 140.596 176.917 140.501 173.734C140.476 168.783 144.274 165.423 149.537 164.247C151.28 163.898 155.335 163.628 160.158 165.079L161.437 165.427C166.294 166.749 169.782 169.071 171.072 170.384C175.048 173.937 176.712 178.922 174.181 183.176Z" fill="#F8B682"/>
<path d="M174.776 160.819C167.23 151.213 153.693 153.02 153.693 153.02C153.693 153.02 153.693 153.02 153.728 152.893C154.133 148.883 157.954 145.942 162.056 146.509C170.226 147.772 173.702 152.151 174.776 160.819Z" fill="#8E4020"/>
<path d="M127.52 145.759C127.52 145.759 127.485 145.886 127.52 145.759C127.485 145.886 116.732 137.467 105.359 141.923C110.712 134.867 115.894 132.982 123.576 136.035C127.4 137.625 129.331 142.132 127.52 145.759Z" fill="#8E4020"/>
<path d="M117.604 160.499C116.595 164.206 114.772 166.868 112.727 166.311C110.681 165.754 110.459 162.536 111.468 158.828C112.442 155.249 114.103 152.68 116.09 152.946C116.218 152.981 116.345 153.016 116.473 153.051C118.449 153.863 118.544 157.047 117.604 160.499Z" fill="#414047"/>
<path d="M161.452 172.433C160.443 176.14 158.62 178.802 156.574 178.246C154.529 177.689 154.306 174.47 155.316 170.763C156.325 167.056 158.02 164.359 160.193 164.95C162.239 165.507 162.426 168.854 161.452 172.433Z" fill="#414047"/>
<path d="M76.2567 176.706C70.7241 173.827 69.3036 167.947 70.2885 162.311C71.8067 154.211 77.9151 146.4 83.4121 147.896C83.251 151.01 82.5096 155.751 79.3749 161.214C76.2053 166.805 75.6153 172 76.2567 176.706Z" fill="#F8B682"/>
<path d="M126.355 68.8225C125.158 69.1833 123.961 69.5441 122.892 69.9397C122.73 70.0327 122.439 70.091 122.277 70.184C121.126 69.8709 120.231 69.6273 119.848 69.5229C108.366 66.8094 111.196 55.9084 117.724 51.0945C118.572 50.5014 119.583 51.3259 119.305 52.3486C117.936 56.3699 118.403 61.7149 122.553 64.6295C122.774 64.8269 123.762 65.2331 124.843 65.802C125.308 66.6152 125.831 67.7188 126.355 68.8225Z" fill="#8E4020"/>
<path d="M196.656 90.0177C189.634 81.5153 179.079 74.3858 163.355 70.1057L161.693 69.6533C149.421 66.3128 139.044 66.0971 130.039 67.9027C128.749 68.1009 127.553 68.4617 126.356 68.8225C125.833 67.7189 125.309 66.6152 124.913 65.5464C118.782 49.7344 132.396 39.5717 136.905 40.6618C136.905 40.6618 136.94 40.534 137.137 40.3131C141.632 35.9069 147.568 33.2662 153.75 32.7518C174.735 31.3238 188.231 40.7643 191.848 47.6533C203.143 48.5308 211.463 71.9412 196.656 90.0177Z" fill="#8E4020"/>
<path d="M156.373 167.893C157.348 165.824 158.661 164.533 160.195 164.951C155.337 163.629 151.189 163.735 149.574 164.12C146.506 164.795 143.904 166.284 142.383 168.341C146.937 167.247 151.667 167.024 156.373 167.893Z" fill="#AECCDE"/>
<path d="M161.962 169.551C164.797 170.735 167.529 172.302 169.9 174.184C171.354 175.403 172.807 176.622 174.062 178.063C174.469 178.585 174.911 178.98 175.318 179.503C175.514 176.261 173.944 172.95 171.072 170.383C169.747 169.199 166.388 166.911 161.437 165.426L160.158 165.078C161.599 165.333 162.17 167.273 161.962 169.551Z" fill="#AECCDE"/>
<path d="M118.101 158.162C120.855 158.637 123.505 159.496 125.923 160.703C127.131 161.307 128.271 162.166 129.282 162.991C128.549 161.143 127.363 159.447 125.724 157.903C124.526 156.753 121.167 154.465 116.6 153.085C117.936 153.723 118.379 155.629 118.101 158.162Z" fill="#AECCDE"/>
<path d="M111.977 157.456C112.998 154.713 114.485 152.783 116.181 153.108L114.903 152.76C110.045 151.438 105.897 151.544 104.282 151.929C99.8899 152.93 96.4633 155.43 95.582 159.172C100.543 157.09 106.585 157.087 111.977 157.456Z" fill="#AECCDE"/>
<path d="M179.435 256.693L178.714 255.81L177.845 262.027L177.66 263.213L177.614 263.887L177.498 264.816C179.113 264.432 180.856 264.083 182.657 264.024C182.947 263.965 183.203 264.035 183.494 263.977C184.456 260.943 185.036 257.806 185.197 254.691C185.335 251.159 184.462 248.312 182.822 245.257C181.647 243.015 180.403 241.029 179.065 238.88C178.194 239.054 177.381 239.519 176.789 240.182C176.394 240.624 176.127 241.1 175.988 241.612C174.618 245.633 175.167 251.687 179.435 256.693Z" fill="#C46E4A"/>
<path d="M84.9716 204.206C85.2152 203.311 85.424 202.544 85.5398 201.614C86.4785 196.652 86.7433 191.644 85.9506 186.485C85.3092 181.779 84.0868 177.189 82.8992 172.472C81.7465 167.627 80.8842 162.724 80.8237 157.902C80.4175 158.89 79.8486 159.971 79.2798 161.052C76.0754 166.77 75.648 171.872 76.1616 176.543C76.6048 179.959 77.536 183.096 78.4785 185.687C80.2939 191.124 82.017 197.909 77.3369 203.501C76.3149 204.733 77.3384 206.522 78.9186 206.265C81.0102 206.148 83.1131 205.485 84.9716 204.206Z" fill="#7E2A0A"/>
<path d="M168.641 211.601C170.94 207.695 174.25 204.615 177.119 201.139C180.22 197.314 183.099 193.292 185.41 188.841C189.926 180.321 192.57 170.605 191.229 160.903C189.97 151.91 184.574 143.987 182.443 135.169C180.778 128.674 180.624 122.178 181.434 115.671C180.564 117.356 179.658 119.169 178.915 120.889C177.871 123.214 176.919 125.701 176.095 128.223C175.38 137.915 178.497 144.118 181.382 150.671C187.547 164.844 185.208 181.508 175.035 193.157C169.205 199.946 163.061 206.375 160.277 216.602C160.243 216.73 160.208 216.857 160.208 216.857C159.699 221.25 161.072 224.782 163.106 227.395C163.894 221.98 165.646 216.553 168.641 211.601Z" fill="#7E2A0A"/>
<path d="M168.193 223.837C167.637 225.882 167.336 227.997 167.034 230.112C167.778 229.903 168.242 229.205 168.103 228.206C167.846 226.626 167.973 225.15 168.193 223.837Z" fill="#7E2A0A"/>
<path d="M180.304 204.066C177.47 207.414 174.288 210.529 172.024 214.307C170.758 216.434 169.679 218.886 168.89 221.281C170.41 217.712 173.395 214.818 176.113 212.399C178.273 210.516 180.794 208.318 182.78 205.563C185.288 202.401 187.203 198.392 187.793 193.197C185.657 197.01 183.044 200.555 180.304 204.066Z" fill="#7E2A0A"/>
<path d="M76.4171 150.385C78.7357 139.345 84.3198 128.919 90.4622 119.469C101.447 102.824 116.302 88.605 135.192 81.2518C145.335 77.2843 156.268 75.4546 167.157 75.8094C171.909 76.0046 176.592 76.4555 181.299 77.3247C176.312 74.457 170.385 72.0197 163.482 70.1406L161.82 69.6883C149.547 66.3477 139.171 66.1321 130.166 67.9376C128.876 68.1358 127.679 68.4966 126.483 68.8574C125.286 69.2183 124.089 69.5791 123.021 69.9747C122.858 70.0677 122.567 70.126 122.405 70.219C104.687 76.7931 93.9579 91.9975 86.7013 104.028C82.6376 110.886 77.7835 117.116 72.5807 123.115C61.7453 135.682 58.5227 151.556 70.5781 162.252C71.1568 157.604 73.467 153.153 76.4171 150.385Z" fill="#7E2A0A"/>
<path d="M151.17 316.144C152.167 312.983 153.072 309.659 153.465 306.196C153.72 303.244 153.683 300.351 153.357 297.516C152.924 292.043 151.945 286.559 152.349 281.039C152.869 274.59 155.55 269.278 158.72 263.687C160.09 261.177 161.623 258.573 162.992 256.062C162.399 255.214 162.132 254.18 162.154 253.088L162.534 245.639C162.534 245.639 161.732 245.558 160.652 246.5C159.932 247.128 159.433 247.953 159.189 248.848C157.704 253.799 155.533 257.739 152.793 261.25C151.968 262.261 151.178 263.145 150.354 264.156C146.603 268.353 137.81 275.434 139.735 291.062C140.26 295.187 139.948 299.358 138.834 303.449L135.877 314.316C136.925 319.544 141.784 323.888 147.677 326.453C149 323.105 150.102 319.561 151.17 316.144Z" fill="#C46E4A"/>
<path d="M161.394 288.17C162.369 286.101 163.345 284.032 164.157 282.057C165.41 278.965 166.536 275.839 168.138 272.979C169.74 270.12 171.982 267.435 175.188 266.248C175.641 266.097 182.427 264.373 182.88 264.222C181.601 263.874 173.991 265.098 172.712 264.75C172.422 264.808 172.132 264.867 171.841 264.925C170.679 265.158 169.448 265.646 168.472 266.205C164.336 268.786 162.979 273.772 162.341 275.109C161.609 276.283 159.102 280.955 158.789 282.106C157.884 285.43 159.221 287.579 161.394 288.17Z" fill="#C46E4A"/>
<path d="M147.677 326.452C141.784 323.887 137.052 319.579 135.876 314.315C132.307 311.284 131.914 314.747 124.676 341.337L141.934 346.035C143.36 339.283 145.135 332.763 147.677 326.452Z" fill="#BB870F"/>
<path d="M181.073 330.875C181.152 325.542 180.65 320.324 179.892 315.038C179.495 312.458 179.227 309.914 178.958 307.369C177.518 308.625 175.985 309.718 174.196 310.741L169.568 327.744C174.843 327.532 175.078 333.225 169.58 353.424L171.626 353.981C175.077 354.92 178.505 353.931 180.898 351.699C181.138 344.761 181.088 337.882 181.073 330.875Z" fill="#BB870F"/>
<path d="M14.3088 268.593C20.8256 264.325 27.9127 261.998 35.6163 260.936C43.192 259.84 50.9077 259.744 58.4018 257.939C62.3754 256.961 65.942 255.46 69.5434 253.831C72.5291 252.447 75.7357 251.26 79.0587 250.654C80.8016 250.305 82.347 250.176 83.9854 250.21C80.2887 247.145 77.1495 243.544 74.8817 239.768C72.3477 237.98 69.0594 238.458 67.4679 239.261C65.2258 240.436 62.8906 241.448 60.3694 242.135C42.9765 247.012 30.9008 241.94 18.5284 248.047L12.6476 269.651C13.2982 269.279 13.8209 268.872 14.3088 268.593Z" fill="#BB870F"/>
<path d="M87.7091 242.573C89.8695 240.69 92.6698 240.491 95.2962 240.931C96.4815 241.116 97.7947 241.337 98.9452 241.65C99.5844 241.824 100.258 241.87 100.898 242.044C101.025 242.079 101.153 242.114 101.153 242.114L101.281 242.148C101.537 242.218 101.955 242.194 102.211 242.264C102.629 242.241 103.013 242.345 103.303 242.287C103.431 242.322 103.594 242.229 103.721 242.263C95.446 238.363 90.4588 233.985 90.4588 233.985C86.076 229.908 83.7764 232.303 82.4413 234.686C81.3731 236.592 79.9911 238.138 78.0743 239.127C76.1923 239.988 74.7164 239.861 74.7164 239.861C77.4494 244.449 81.2861 248.514 85.9707 251.986C84.9465 248.687 85.0259 244.864 87.7091 242.573Z" fill="#BB870F"/>
<path d="M106.393 237.498C107.577 234.662 109.191 232.767 112.352 232.254C114.513 231.881 116.732 231.799 118.859 231.554C121.566 231.192 124.378 230.447 126.968 229.504C127.421 229.353 127.747 229.167 128.2 229.016C125.051 228.982 122.099 228.728 119.542 228.032C112.256 226.049 103.131 219.72 96.875 211.427L90.7855 233.798C90.7855 233.798 95.9587 238.502 104.78 242.414C105.233 240.752 105.685 239.09 106.393 237.498Z" fill="#C46E4A"/>
<path d="M103.615 216.421C100.624 207.23 99.8642 197.412 100.452 187.686C100.867 181.62 101.573 175.496 102.407 169.406C101.256 169.093 100.234 168.815 99.2805 168.281C96.549 166.713 95.2116 164.564 95.1171 161.38C95.0914 156.43 98.8895 153.07 104.153 151.894C104.443 151.836 105.024 151.719 105.443 151.696C106.289 148.081 107.101 144.595 108.203 141.05C107.169 141.318 106.17 141.458 105.229 141.888C106.68 140.087 108.027 138.668 109.433 137.54C109.607 136.901 109.874 136.425 110.048 135.785C111.278 132.276 112.729 128.963 114.47 125.592C113.831 125.419 113.064 125.21 112.425 125.036C112.425 125.036 107.315 131.197 95.2429 133.678C78.4414 159.587 96.4483 174.65 90.1848 197.661L90.15 197.789C90.5108 198.985 90.9647 200.345 91.0229 200.635C92.3262 204.423 94.3731 208.001 96.7801 211.265C99.094 214.366 101.896 217.188 104.93 219.662C104.5 218.721 104.011 217.489 103.615 216.421Z" fill="#C46E4A"/>
<path d="M117.997 158.546C118.437 155.919 118.064 153.758 116.565 153.213C116.437 153.178 116.309 153.143 116.182 153.108C114.357 152.749 112.836 154.806 111.908 157.712C113.999 157.595 116.114 157.896 117.997 158.546Z" fill="black"/>
<path d="M161.857 169.935C162.135 167.402 161.727 165.369 160.193 164.951C158.659 164.534 157.312 165.952 156.267 168.276C158.22 168.67 160.009 169.158 161.857 169.935Z" fill="black"/>
<path d="M76.2567 176.706C70.7241 173.827 69.3036 167.947 70.2885 162.311C71.8067 154.211 77.9151 146.4 83.4121 147.896C83.251 151.01 82.5096 155.751 79.3749 161.214C76.2053 166.805 75.6153 172 76.2567 176.706Z" fill="#C46E4A"/>
<path d="M116.636 64.6676C115.519 61.2054 114.703 57.1387 115.329 53.327C110.916 58.4421 110.176 66.2047 118.346 68.9778C117.637 67.5489 117.055 66.1548 116.636 64.6676Z" fill="#7E2A0A"/>
<path d="M150.142 47.0113C152.114 41.7813 155.017 36.6671 159.117 32.7026C157.478 32.6685 155.677 32.7275 153.876 32.7865C147.567 33.266 141.63 35.9067 137.263 40.3478C137.066 40.5686 137.031 40.6965 137.031 40.6965C132.522 39.6064 118.908 49.7691 125.04 65.581C125.435 66.6499 125.959 67.7535 126.482 68.8572C127.679 68.4964 129.003 68.1703 130.165 67.9374C135.556 66.7959 141.413 66.4677 147.955 67.1501C146.906 60.4109 147.89 53.2641 150.142 47.0113Z" fill="#7E2A0A"/>
<path d="M172.497 278.147C172.126 279.007 170.977 281.715 169.943 283.494C168.144 286.574 166.774 289.085 170.029 291.756C177.623 282.014 177.328 273.009 186.148 272.389C175.84 270.407 173.542 275.823 172.497 278.147Z" fill="#C46E4A"/>
<path d="M119.458 174.871C118.564 174.627 117.576 174.221 116.425 173.908C115.182 173.432 113.81 172.922 112.276 172.504L108.824 171.564C107.163 171.112 105.722 170.857 104.571 170.544C102.363 170.08 100.666 169.756 99.1087 168.92C96.0285 167.12 94.5981 164.809 94.701 161.404C94.6753 156.454 98.3221 152.641 104.166 151.348C105.909 150.998 110.092 150.764 115.206 152.156L116.484 152.504C121.598 153.896 125.05 156.346 126.375 157.53C130.851 161.769 132.028 167.033 129.659 171.194C128.022 174.181 125.617 175.449 122.085 175.311C121.155 175.195 120.353 175.115 119.458 174.871ZM108.952 170.089C109.079 170.123 109.079 170.123 109.207 170.158L112.659 171.098C114.321 171.55 115.692 172.061 116.936 172.537C118.946 173.221 120.446 173.767 122.049 173.928C125.036 174.055 126.987 172.938 128.357 170.428C130.459 166.743 129.236 162.154 125.33 158.344C124.133 157.194 120.773 154.907 116.043 153.619L114.765 153.272C109.907 151.949 106.014 152.125 104.399 152.51C99.1361 153.686 95.8841 157.057 95.9559 161.334C95.9922 164.227 97.1087 166.179 99.7124 167.711C101.142 168.512 102.711 168.802 104.791 169.231C105.976 169.416 107.417 169.671 108.952 170.089Z" fill="black"/>
<path d="M164.714 187.19C163.819 186.946 162.831 186.54 161.681 186.227C160.437 185.751 159.066 185.24 157.532 184.823L154.08 183.883C152.418 183.431 150.977 183.176 149.827 182.863C147.619 182.399 145.922 182.074 144.364 181.239C141.284 179.439 139.854 177.127 139.957 173.723C139.931 168.772 143.578 164.959 149.422 163.667C151.165 163.317 155.383 162.955 160.461 164.474L161.74 164.822C166.853 166.214 170.306 168.664 171.631 169.849C176.107 174.088 177.283 179.352 174.915 183.513C173.278 186.5 170.873 187.768 167.34 187.63C166.411 187.514 165.609 187.433 164.714 187.19ZM154.207 182.407C154.335 182.442 154.335 182.442 154.463 182.477L157.914 183.416C159.576 183.869 160.948 184.379 162.191 184.855C164.202 185.54 165.701 186.085 167.305 186.247C170.291 186.374 172.243 185.257 173.613 182.746C175.714 179.062 174.492 174.472 170.586 170.663C169.388 169.513 166.029 167.226 161.299 165.938L160.02 165.59C155.197 164.14 151.27 164.444 149.655 164.828C144.392 166.005 141.14 169.376 141.212 173.652C141.248 176.546 142.364 178.497 144.968 180.03C146.398 180.831 147.966 181.121 150.047 181.55C151.232 181.735 152.673 181.99 154.207 182.407Z" fill="black"/>
<path d="M112.553 166.95C110.252 166.324 109.576 163.256 110.829 158.654C112.082 154.052 114.219 151.75 116.52 152.376C118.821 153.003 119.462 156.198 118.244 160.672C116.991 165.274 114.854 167.576 112.553 166.95ZM116.172 153.655C114.766 153.272 113.117 155.295 112.107 159.002C111.098 162.709 111.367 165.254 112.901 165.671C114.307 166.054 115.991 163.904 116.965 160.324C117.905 156.873 117.578 154.037 116.172 153.655Z" fill="black"/>
<path d="M156.399 178.884C154.098 178.258 153.422 175.191 154.675 170.589C155.927 165.986 158.064 163.685 160.366 164.311C162.667 164.937 163.307 168.132 162.089 172.607C160.837 177.209 158.7 179.511 156.399 178.884ZM160.018 165.589C158.611 165.206 156.962 167.229 155.953 170.937C154.944 174.644 155.213 177.188 156.747 177.606C158.153 177.989 159.837 175.838 160.811 172.259C161.751 168.807 161.424 165.972 160.018 165.589Z" fill="black"/>
<path d="M102.923 152.382C101.528 151.453 100.563 149.955 100.341 148.247C100.376 148.119 100.445 147.863 100.573 147.898C100.701 147.933 100.829 147.968 100.922 148.13C101.166 148.746 101.504 149.524 101.911 150.047C102.317 150.57 102.887 151 103.491 151.301C103.875 151.406 104.026 151.859 103.794 152.208C103.724 152.463 103.271 152.615 102.923 152.382Z" fill="black"/>
<path d="M98.6003 154.639C96.5201 154.21 94.6835 152.886 93.8575 150.876C93.7644 150.713 93.834 150.458 94.1245 150.399C94.2871 150.306 94.5428 150.376 94.6011 150.666C95.4036 152.258 97.182 153.291 98.9483 153.36C99.7501 153.441 99.4952 154.882 98.6003 154.639Z" fill="black"/>
<path d="M105.185 142.563C105.057 142.528 104.929 142.493 104.836 142.33C104.615 142.133 104.72 141.749 104.789 141.494C110.503 134.124 115.94 132.308 123.878 135.43C125.854 136.243 127.459 137.915 128.285 139.925C129.111 141.935 129.065 144.12 128.125 146.061C128.09 146.188 127.893 146.409 127.602 146.468C127.44 146.561 127.184 146.491 127.056 146.456C126.928 146.421 116.489 138.362 105.569 142.667C105.441 142.632 105.313 142.597 105.185 142.563ZM120.881 135.85C115.511 134.389 111.433 135.75 107.218 140.644C116.524 138.234 124.649 143.192 127.09 144.818C127.601 143.446 127.472 141.901 126.925 140.379C126.285 138.694 124.867 137.347 123.147 136.604C122.508 136.43 121.648 136.059 120.881 135.85Z" fill="black"/>
<path d="M128.833 193.9C125.254 192.926 123.672 190.161 123.544 190.126C123.358 189.801 123.463 189.417 123.788 189.231C124.113 189.045 124.497 189.15 124.683 189.475C124.683 189.475 126.078 191.914 129.147 192.75C129.53 192.854 129.716 193.179 129.612 193.563C129.507 193.946 129.089 193.97 128.833 193.9Z" fill="black"/>
<path d="M113.114 200.195C111.324 199.708 109.767 198.872 108.569 197.722C107.279 196.41 106.848 195.469 106.883 195.341C106.697 195.015 106.929 194.667 107.255 194.481C107.58 194.295 107.929 194.527 108.115 194.852C108.115 194.852 108.452 195.63 109.522 196.745C110.719 197.895 112.277 198.731 114.229 199.125C117.076 199.763 122.55 200.841 126.641 201.954C127.024 202.059 127.21 202.384 127.106 202.768C127.001 203.151 126.514 203.43 126.258 203.361C122.167 202.247 116.728 201.041 113.846 200.531C113.625 200.334 113.37 200.264 113.114 200.195Z" fill="black"/>
<path d="M123.44 213.715C121.267 213.124 118.221 211.196 118.094 211.162C117.745 210.929 117.721 210.511 117.919 210.29C118.151 209.941 118.569 209.918 118.79 210.115C118.79 210.115 121.743 211.88 123.788 212.437C124.171 212.541 124.358 212.867 124.253 213.25C124.149 213.634 123.696 213.785 123.44 213.715Z" fill="black"/>
<path d="M119.402 228.545C107.641 225.343 92.9354 212.278 89.5701 197.906C89.6049 197.778 89.5119 197.615 89.5119 197.615C92.0521 188.283 90.5839 180.057 89.0113 172.214C86.9024 160.792 84.6423 148.918 94.6395 133.377C94.8717 133.028 95.29 133.004 95.5109 133.202C95.8596 133.434 95.8831 133.852 95.6857 134.073C85.9555 149.138 88.0409 160.141 90.208 171.853C91.7458 179.824 93.1792 188.178 90.732 197.673C94.0156 211.336 108.501 224.204 119.623 227.231C120.006 227.336 120.192 227.661 120.088 228.045C119.983 228.428 119.658 228.614 119.402 228.545Z" fill="black"/>
<path d="M78.1659 207.021C77.5268 206.847 76.9572 206.418 76.7128 205.802C76.2476 204.989 76.2703 203.896 77.0253 203.141C81.2757 198.119 80.0874 191.891 77.9929 185.966C76.0262 180.075 73.0005 171.013 78.8055 160.785C84.1112 151.381 82.4925 144.212 82.5273 144.085C82.4691 143.794 82.7013 143.445 83.0266 143.259C83.317 143.201 83.6657 143.433 83.8518 143.759C83.9101 144.049 85.6218 151.381 80.0143 161.388C74.4763 171.14 77.3507 179.749 79.3522 185.512C81.4119 191.565 82.8446 198.408 78.0366 203.965C77.6418 204.407 77.8861 205.023 77.9791 205.185C78.1652 205.511 78.4791 205.871 79.0601 205.754C81.3491 205.416 86.9377 204.054 89.6768 197.522C89.7812 197.138 90.2343 196.987 90.583 197.219C90.9665 197.324 91.1178 197.777 90.8856 198.126C87.9725 205.297 81.8029 206.775 79.2234 207.172C78.8399 207.067 78.5495 207.126 78.1659 207.021Z" fill="black"/>
<path d="M76.0823 177.344L75.9544 177.309C68.2251 173.42 68.3833 164.264 70.9598 157.825C73.3736 151.479 78.4721 145.864 83.5856 147.256C83.9691 147.36 84.1552 147.686 84.0508 148.069C83.9464 148.453 83.6212 148.639 83.2376 148.534C78.8911 147.351 74.2806 152.687 72.2034 158.301C69.8591 164.391 69.6541 172.711 76.5581 176.1C76.9068 176.333 76.965 176.623 76.8606 177.007C76.6632 177.228 76.3379 177.414 76.0823 177.344Z" fill="black"/>
<path d="M80.9745 158.355C80.7189 158.285 80.6258 158.123 80.5328 157.96L79.0668 154.266C78.8808 153.94 79.113 153.592 79.4383 153.405C79.7635 153.219 80.1122 153.452 80.2983 153.777L81.7643 157.471C81.9504 157.797 81.7181 158.145 81.3929 158.331C81.2302 158.424 81.1024 158.39 80.9745 158.355Z" fill="black"/>
<path d="M70.1473 162.822C70.0195 162.787 69.8916 162.752 69.9264 162.625C58.7546 152.718 59.4673 136.984 71.8821 122.651C77.9095 115.641 82.4384 109.596 85.968 103.691C99.2505 81.6297 119.934 57.6008 161.865 69.0143L163.527 69.4666C205.458 80.8801 211.144 111.949 211.377 137.827C211.392 144.834 212.233 152.34 213.91 161.31C217.348 179.959 209.987 193.883 195.336 196.761C195.045 196.819 194.697 196.587 194.51 196.261C194.452 195.971 194.684 195.622 195.01 195.436C208.952 192.64 215.755 179.251 212.493 161.474C210.85 152.376 210.044 144.742 209.901 137.7C209.657 112.369 204.087 81.8801 163.051 70.7102L161.389 70.2579C120.353 59.0879 100.099 82.5473 87.0489 104.26C83.3567 110.258 78.9209 116.465 72.7657 123.44C60.9083 137.239 60.1488 152.137 70.6231 161.578C70.844 161.776 70.8675 162.194 70.6352 162.543C70.6935 162.833 70.403 162.892 70.1473 162.822Z" fill="black"/>
<path d="M114.46 246.696C100.015 242.764 90.4821 234.403 90.389 234.24C90.1681 234.042 90.1099 233.752 90.1447 233.624L96.2342 211.252C96.3386 210.869 96.6639 210.683 97.0474 210.787C97.4309 210.892 97.617 211.217 97.5126 211.6L91.5275 233.589C93.2015 235.005 102.152 241.973 114.808 245.418C115.192 245.522 115.378 245.848 115.274 246.231C115.169 246.615 114.716 246.766 114.46 246.696Z" fill="black"/>
<path d="M109.729 264.083C98.0962 260.916 81.9402 252.674 74.3925 240.047C74.2995 239.884 74.2413 239.594 74.4387 239.373C74.6361 239.152 74.7988 239.059 75.0892 239.001C75.0892 239.001 76.4372 239.093 78.1566 238.325C80.2013 237.371 81.5251 235.535 82.2913 234.233C83.3595 232.327 84.6371 231.164 86.0547 231.001C87.6349 230.744 89.4828 231.522 91.436 233.427C91.6568 233.624 91.6803 234.042 91.4481 234.391C91.2506 234.612 90.8323 234.635 90.4836 234.403C88.8444 232.858 87.3799 232.185 86.218 232.418C85.2188 232.558 84.3012 233.407 83.4653 234.964C82.3276 237.126 80.6551 238.731 78.7731 239.591C77.8321 240.022 76.9607 240.197 76.2519 240.278C83.7527 252.069 99.0834 259.812 110.205 262.839C110.589 262.944 110.775 263.269 110.671 263.653C110.566 264.036 109.985 264.153 109.729 264.083Z" fill="black"/>
<path d="M18.515 248.592C18.3871 248.557 18.1662 248.36 18.0732 248.197C17.8871 247.872 17.9915 247.488 18.3168 247.302C25.0083 243.906 31.7595 243.821 38.9291 243.713C45.1341 243.617 52.1759 243.474 60.1926 241.262C62.2607 240.727 64.4332 239.808 67.1285 238.482C68.8478 237.714 72.3335 237.015 75.2163 239.036C75.565 239.268 75.5885 239.686 75.391 239.907C75.1588 240.256 74.7405 240.279 74.5196 240.082C72.2064 238.491 69.2087 238.911 67.7797 239.62C64.9219 241.039 62.7494 241.958 60.5534 242.459C52.374 244.764 45.2045 244.872 38.8716 244.933C31.5742 245.007 25.2413 245.068 18.8402 248.406C18.7706 248.662 18.6428 248.627 18.515 248.592Z" fill="black"/>
<path d="M128.834 193.901C128.451 193.796 128.265 193.471 128.369 193.087C128.473 192.704 128.799 192.518 129.182 192.622C132.25 193.457 134.655 192.19 134.69 192.062C135.015 191.876 135.399 191.98 135.585 192.305C135.771 192.631 135.666 193.014 135.341 193.2C135.179 193.293 132.414 194.875 128.834 193.901Z" fill="black"/>
<path d="M139.066 207.258C138.81 207.189 138.554 207.119 138.299 207.05C135.521 206.156 130.256 204.311 126.165 203.198C125.782 203.093 125.596 202.768 125.7 202.385C125.804 202.001 126.13 201.815 126.513 201.919C130.604 203.033 135.904 204.75 138.647 205.771C140.401 206.386 142.168 206.455 143.911 206.106C145.363 205.814 146.083 205.187 146.083 205.187C146.408 205 146.827 204.977 147.013 205.302C147.199 205.628 147.222 206.046 146.897 206.232C146.862 206.36 146.014 206.953 144.237 207.43C142.622 207.814 140.855 207.746 139.066 207.258Z" fill="black"/>
<path d="M123.441 213.715C123.057 213.611 122.871 213.286 122.976 212.902C123.08 212.519 123.405 212.332 123.789 212.437C125.834 212.994 129.274 212.969 129.274 212.969C129.692 212.945 129.878 213.27 129.936 213.561C129.96 213.979 129.634 214.165 129.344 214.224C129.181 214.317 125.614 214.307 123.441 213.715Z" fill="black"/>
<path d="M119.404 228.544C119.02 228.44 118.834 228.115 118.939 227.731C119.043 227.348 119.368 227.162 119.752 227.266C130.874 230.293 149.883 226.542 159.638 216.428C162.248 206.84 167.811 200.528 173.177 194.436L174.559 192.89C184.407 181.428 186.967 164.961 180.859 151.078L180.278 149.684C177.207 142.806 174.077 135.638 176.093 123.692C167.415 128.332 146.073 136.117 112.765 125.814C111.452 127.105 106.237 132.139 95.455 134.422C95.1646 134.48 94.8158 134.248 94.6298 133.923C94.5715 133.632 94.8037 133.283 95.129 133.097C106.911 130.674 111.951 124.769 111.986 124.641C112.183 124.42 112.474 124.362 112.729 124.432C147.374 135.372 168.936 126.275 176.58 121.902C176.743 121.809 177.033 121.751 177.254 121.948C177.475 122.145 177.568 122.308 177.499 122.564C174.995 134.789 178.031 141.795 181.253 149.125L181.835 150.52C188.187 165.018 185.65 181.904 175.407 193.808L174.025 195.354C168.788 201.48 163.26 207.665 160.719 216.997C160.685 217.125 160.65 217.253 160.522 217.218C150.464 227.936 131.037 231.711 119.404 228.544Z" fill="black"/>
<path d="M165.734 230.857C165.478 230.788 165.095 230.683 164.874 230.486C162.851 228.837 158.41 224.47 159.405 216.777C159.51 216.393 159.835 216.207 160.126 216.149C160.509 216.253 160.695 216.579 160.753 216.869C159.804 223.888 163.931 227.895 165.733 229.347C166.175 229.741 166.628 229.59 166.953 229.404C167.116 229.311 167.604 229.032 167.522 228.323C166.322 221.131 171.025 215.958 175.741 211.749C180.259 207.761 187.228 201.831 187.397 190.618C187.508 179.114 192.827 173.696 193.024 173.475C193.222 173.254 193.64 173.231 193.989 173.463C194.21 173.661 194.233 174.079 194.001 174.428C194.001 174.428 188.972 179.787 188.745 190.71C188.53 202.597 181.363 208.748 176.683 212.829C172.002 216.91 167.693 221.641 168.812 228.125C168.952 229.124 168.58 229.984 167.732 230.577C167.082 230.949 166.373 231.031 165.734 230.857Z" fill="black"/>
<path d="M114.463 246.697C114.079 246.593 113.893 246.267 113.998 245.884C114.102 245.5 114.427 245.314 114.811 245.419C127.467 248.864 138.714 247.394 140.876 247.021L146.861 225.033C146.965 224.649 147.29 224.463 147.674 224.568C148.057 224.672 148.243 224.997 148.139 225.381L142.05 247.753C141.98 248.008 141.782 248.229 141.527 248.16C141.364 248.253 128.909 250.629 114.463 246.697Z" fill="black"/>
<path d="M109.73 264.084C109.347 263.979 109.161 263.654 109.265 263.271C109.37 262.887 109.695 262.701 110.078 262.805C121.2 265.833 138.341 266.928 150.783 260.566C150.213 260.136 149.55 259.544 148.957 258.696C147.771 257 147.143 254.769 147.258 252.329C147.326 250.563 146.966 249.366 146.175 248.739C145.292 247.949 143.688 247.787 141.492 248.288C141.202 248.346 140.853 248.114 140.667 247.789C140.608 247.498 140.841 247.15 141.166 246.964C143.815 246.312 145.674 246.543 147.034 247.6C148.139 248.587 148.686 250.109 148.64 252.294C148.641 253.804 148.724 256.024 150.13 257.917C151.224 259.45 152.432 260.054 152.432 260.054C152.688 260.123 152.746 260.414 152.804 260.704C152.863 260.995 152.665 261.216 152.503 261.309C139.468 268.334 121.364 267.25 109.73 264.084Z" fill="black"/>
<path d="M197.21 298.331C197.082 298.296 196.954 298.262 196.861 298.099L195.768 296.566C194.524 294.579 193.047 292.941 191.315 291.234C191.094 291.037 191.071 290.618 191.303 290.27C191.5 290.049 191.919 290.025 192.267 290.258C194.127 292 195.569 293.765 196.941 295.786L198.069 297.192C198.255 297.517 198.279 297.936 197.953 298.122C197.593 298.436 197.465 298.401 197.21 298.331Z" fill="black"/>
<path d="M151.828 261.262C151.572 261.193 151.351 260.995 151.293 260.705C151.27 260.286 151.467 260.066 151.885 260.042C152.304 260.019 152.722 259.995 153.105 260.1C153.489 260.204 153.71 260.401 153.733 260.82C153.629 261.203 153.431 261.424 153.013 261.448C152.63 261.343 152.339 261.401 152.049 261.46C151.956 261.297 151.956 261.297 151.828 261.262Z" fill="black"/>
<path d="M171.666 169.721C173.014 169.814 174.502 169.395 175.454 168.418C175.651 168.197 176.093 168.592 175.896 168.813C174.839 170.173 173.247 170.976 171.574 171.069C171.156 171.093 170.935 170.895 170.911 170.477C170.888 170.059 171.248 169.745 171.666 169.721Z" fill="black"/>
<path d="M174.631 173.961C176.223 174.669 178.152 174.645 179.743 173.843C179.906 173.749 180.162 173.819 180.255 173.982C180.348 174.144 180.313 174.272 180.15 174.365C179.268 175.086 178.361 175.389 177.362 175.529C176.526 175.575 173.47 175.705 173.818 174.426C173.922 174.043 174.247 173.857 174.631 173.961Z" fill="black"/>
<path d="M174.599 161.457C174.472 161.422 174.344 161.387 174.251 161.225C167.018 151.979 153.935 153.635 153.807 153.6C153.645 153.693 153.389 153.624 153.296 153.461C153.203 153.299 153.11 153.136 153.017 152.973C153.225 150.696 154.258 148.917 155.989 147.603C157.72 146.289 159.95 145.661 162.065 145.962C170.363 147.259 174.258 151.615 175.447 160.864C175.506 161.154 175.308 161.375 174.983 161.561C174.983 161.561 174.855 161.526 174.599 161.457ZM164.068 153.235C167.391 154.14 170.925 155.788 173.82 158.773C172.457 151.674 168.957 148.387 161.973 147.31C160.114 147.078 158.336 147.556 156.803 148.649C155.595 149.556 154.828 150.858 154.411 152.392C156.119 152.17 159.849 152.087 164.068 153.235Z" fill="black"/>
<path d="M182.698 206.365C182.442 206.295 182.256 205.97 182.198 205.679C182.174 205.261 182.5 205.075 182.918 205.052C190.75 205.536 194.663 198.225 195.694 191.915C196.62 185.988 195.35 179.051 191.132 177.903C190.748 177.799 190.562 177.473 190.666 177.09C190.771 176.706 191.096 176.52 191.48 176.625C196.593 178.016 198.142 185.441 197.007 192.135C195.802 199.084 191.46 206.965 182.826 206.4C182.698 206.365 182.698 206.365 182.698 206.365Z" fill="black"/>
<path d="M188.3 187.294C188.173 187.259 188.045 187.224 187.952 187.062C187.766 186.736 187.742 186.318 188.067 186.132L191.204 183.69C191.529 183.504 191.947 183.481 192.133 183.806C192.319 184.131 192.343 184.55 192.018 184.736L188.881 187.177C188.719 187.27 188.556 187.364 188.3 187.294Z" fill="black"/>
<path d="M14.5952 311.923C14.2117 311.819 14.0256 311.494 14.13 311.11C18.2255 298.082 22.5781 288.145 25.5616 282.229C25.7938 281.88 26.0843 281.822 26.4678 281.926C26.8165 282.158 26.8747 282.449 26.7703 282.832C23.7869 288.748 19.3064 298.651 15.3736 311.586C15.304 311.842 14.8509 311.993 14.5952 311.923Z" fill="black"/>
<path d="M196.482 90.657C196.354 90.6223 196.354 90.6222 196.226 90.5875C195.877 90.3552 195.854 89.9369 196.086 89.5882C205.678 78.0563 205.114 64.9956 201.834 57.3745C199.565 52.0884 195.81 48.7321 191.894 48.49C191.638 48.4204 191.511 48.3856 191.324 48.0603C187.986 41.6593 174.944 32.0675 153.831 33.4607C147.684 33.8472 141.875 36.5227 137.543 40.8359L137.439 41.2194C137.241 41.4403 137.079 41.5333 136.823 41.4638C135.161 41.0114 130.979 42.7565 127.774 46.9645C125.033 50.4751 121.342 57.9835 126.971 68.5783C127.157 68.9036 127.053 69.2871 126.727 69.4732C126.402 69.6592 126.019 69.5549 125.832 69.2296C119.831 57.9843 123.789 49.9993 126.762 46.14C129.967 41.9319 134.254 39.8033 136.787 40.081C141.317 35.5469 147.416 32.8132 153.854 32.3684C175.129 30.8822 188.683 40.6131 192.37 47.2464C196.635 47.7207 200.611 51.2745 203.065 56.8858C206.532 64.8322 207.085 78.4391 197.225 90.4475C197.028 90.6684 196.737 90.7266 196.482 90.657Z" fill="black"/>
<path d="M149.677 46.1985C152.722 48.126 155.663 50.4369 158.407 52.9687C158.535 53.0035 158.5 53.1314 158.465 53.2592C158.431 53.3871 158.303 53.3523 158.175 53.3175C155.362 51.0413 152.316 49.1139 149.073 47.4073C148.213 47.0359 148.98 45.7341 149.677 46.1985Z" fill="black"/>
<path d="M149.202 47.4426L149.074 47.4078C145.517 45.3411 141.414 43.2632 136.731 41.3017C136.347 41.1973 136.196 40.7442 136.428 40.3955C136.532 40.0119 136.985 39.8607 137.334 40.0929C142.018 42.0544 146.249 44.1671 149.806 46.2338C150.154 46.466 150.213 46.7565 150.108 47.14C149.748 47.4539 149.458 47.5121 149.202 47.4426Z" fill="black"/>
<path d="M159.219 49.4819C157.474 45.2995 154.985 41.3267 151.649 37.9469C151.428 37.7494 151.788 37.4355 152.009 37.6329C155.543 40.7919 158.357 44.5786 160.485 48.8654C160.788 49.7716 159.557 50.2603 159.219 49.4819Z" fill="black"/>
<path d="M163.179 70.7448C162.924 70.6752 162.61 70.3151 162.679 70.0594C163.293 65.2833 162.813 57.4632 159.09 49.4472C158.904 49.1219 159.136 48.7732 159.462 48.5871C159.787 48.401 160.136 48.6332 160.322 48.9585C163.393 55.8361 164.861 64.0624 163.993 70.2796C164.051 70.5701 163.691 70.884 163.179 70.7448C163.179 70.7448 163.307 70.7796 163.179 70.7448Z" fill="black"/>
<path d="M173.837 74.47C173.709 74.4352 173.488 74.2378 173.395 74.0751C173.209 73.7499 173.441 73.4011 173.766 73.2151C179.796 70.737 191.631 58.0304 191.358 47.9327C191.335 47.5144 191.66 47.3283 191.951 47.27C192.369 47.2466 192.555 47.5719 192.613 47.8623C192.874 58.5062 180.61 71.7824 174.255 74.4465C174.127 74.4117 173.965 74.5048 173.837 74.47Z" fill="black"/>
<path d="M119.163 70.0233C113.921 68.5966 112.153 65.5066 111.711 63.6011C110.547 59.3022 113.007 53.7931 117.48 50.4791C118.13 50.107 118.839 50.0253 119.536 50.4898C120.106 50.9194 120.443 51.6978 120.107 52.43C118.772 56.3234 119.054 62.8538 125.214 64.9424C125.598 65.0467 125.749 65.4999 125.679 65.7555C125.575 66.139 125.122 66.2903 124.866 66.2207C118.613 63.9695 117.146 57.2538 118.991 51.989C119.061 51.7333 118.967 51.5707 118.84 51.5359C118.712 51.5011 118.619 51.3385 118.421 51.5594C114.344 54.4315 112.15 59.4641 113.198 63.182C114.187 66.6095 117.582 68.7691 123.194 69.3357C123.613 69.3123 123.799 69.6376 123.822 70.0559C123.846 70.4742 123.52 70.6603 123.102 70.6837C121.498 70.5218 120.185 70.3017 119.163 70.0233Z" fill="black"/>
<path d="M123.713 62.8853C123.457 62.8157 123.364 62.6531 123.306 62.3626C123.248 62.0721 123.352 61.6886 123.805 61.5373C136.958 58.1145 156.403 67.3894 157.1 67.8538C157.449 68.0861 157.635 68.4113 157.403 68.7601C157.17 69.1088 156.845 69.2949 156.496 69.0626C156.241 68.993 136.703 59.5555 124.004 62.827C123.969 62.9549 123.841 62.9201 123.713 62.8853Z" fill="black"/>
<path d="M152.256 328.798C149.827 328.137 147.468 327.22 145.178 326.048C139.68 323.041 136.1 319.045 135.261 314.56C135.295 314.433 135.168 314.398 135.202 314.27L138.195 303.276C139.274 299.313 139.551 295.269 139.026 291.144C137.171 276.771 144.267 269.365 148.472 265.017C148.866 264.576 149.389 264.169 149.784 263.727C154.127 258.868 156.891 254.265 158.55 248.675C158.863 247.524 159.525 246.606 160.245 245.978C161.488 244.943 162.58 244.966 162.58 244.966C162.998 244.942 163.184 245.268 163.208 245.686C163.231 246.104 162.906 246.29 162.488 246.314C162.488 246.314 161.942 246.302 161.059 247.023C160.536 247.43 160.072 248.128 159.828 249.023C158.1 254.868 155.301 259.599 150.795 264.551C150.4 264.993 150.006 265.435 149.483 265.842C145.441 270.097 138.577 277.154 140.315 290.946C140.806 295.199 140.622 299.405 139.508 303.496L136.585 314.234C137.401 318.301 140.795 321.971 145.817 324.711C153.256 328.658 162.715 329.723 169.163 327.221L173.304 312.008C165.276 316.277 157.652 313.515 157.269 313.411C156.885 313.306 156.734 312.853 156.931 312.632C157.036 312.249 157.489 312.098 157.71 312.295C157.837 312.33 166.066 315.393 174.046 310.288C174.244 310.067 174.627 310.172 174.848 310.369C175.069 310.567 175.127 310.857 175.058 311.113L170.395 328.243C170.325 328.499 170.163 328.592 170 328.685C165.144 330.384 158.52 330.503 152.256 328.798Z" fill="black"/>
<path d="M174.187 311.287C174.059 311.252 173.931 311.217 173.838 311.055C173.652 310.729 173.756 310.346 174.081 310.16C184.861 303.345 191.689 293.395 194.866 279.705C195.434 277.113 193.853 274.349 191.133 273.746C187.263 272.83 183.638 272.529 180.291 272.717C177.2 272.974 174.657 274.753 173.345 277.554C173.113 277.903 172.973 278.414 172.869 278.798C172.022 280.901 171.012 283.098 169.456 285.283C168.597 286.423 168.342 287.864 168.958 289.13C169.319 290.327 170.33 291.151 171.516 291.337C175.548 292.16 181.136 289.287 184.722 280.651C184.827 280.268 185.28 280.116 185.629 280.349C186.012 280.453 186.163 280.906 185.931 281.255C182.043 290.495 175.839 293.612 171.296 292.65C169.727 292.36 168.401 291.175 167.727 289.619C167.087 287.934 167.353 285.947 168.445 284.459C169.966 282.401 170.941 280.333 171.788 278.229C171.927 277.718 172.16 277.369 172.299 276.858C173.715 273.673 176.781 271.487 180.291 271.206C183.8 270.926 187.553 271.261 191.551 272.212C195.037 273.023 196.991 276.439 196.249 279.669C193.002 293.615 185.977 303.786 174.837 310.915C174.57 311.391 174.442 311.357 174.187 311.287Z" fill="black"/>
<path d="M180.172 289.299C179.789 289.195 179.603 288.87 179.707 288.486C179.811 288.103 180.137 287.917 180.52 288.021C184.646 289.007 188.246 285.867 188.246 285.867C188.444 285.647 188.99 285.658 189.211 285.855C189.432 286.053 189.42 286.599 189.223 286.82C188.933 286.878 185.1 290.366 180.172 289.299Z" fill="black"/>
<path d="M150 299.76C149.617 299.656 149.431 299.331 149.535 298.947C149.57 298.819 152.018 290.835 162.208 290.725C162.627 290.702 162.813 291.027 162.871 291.318C162.894 291.736 162.569 291.922 162.279 291.98C153.215 291.985 151.046 298.946 150.976 299.202C150.709 299.679 150.384 299.865 150 299.76Z" fill="black"/>
<path d="M165.038 255.109C164.782 255.039 164.562 254.842 164.538 254.424C164.515 254.005 164.84 253.819 165.258 253.796L176.507 253.837C176.925 253.813 177.111 254.138 177.134 254.557C177.158 254.975 176.833 255.161 176.414 255.185L165.166 255.144C165.166 255.144 165.166 255.144 165.038 255.109Z" fill="black"/>
<path d="M168.806 262.45C168.039 262.242 167.341 261.777 166.678 261.185L162.877 256.992C161.935 255.912 161.353 254.518 161.48 253.042L162.045 242.897C162.148 241.003 163.786 239.526 165.715 239.502L176.801 239.636C177.219 239.613 177.405 239.938 177.428 240.356C177.452 240.775 177.127 240.961 176.708 240.984L165.623 240.85C164.403 240.793 163.45 241.769 163.393 242.989L162.828 253.134C162.806 254.226 163.201 255.295 163.957 256.05L167.759 260.243C168.293 260.801 169.154 261.172 169.955 261.253L177.892 261.354C178.31 261.33 178.496 261.655 178.52 262.074C178.543 262.492 178.218 262.678 177.8 262.702L169.863 262.601C169.573 262.659 169.189 262.555 168.806 262.45Z" fill="black"/>
<path d="M170.123 248.529C169.612 248.39 169.17 247.995 169.216 247.321C169.134 246.612 169.727 245.95 170.435 245.868L171.144 245.786C171.853 245.705 172.516 246.297 172.597 247.006C172.679 247.715 172.087 248.377 171.378 248.459L170.669 248.541C170.541 248.506 170.379 248.599 170.123 248.529Z" fill="black"/>
<path d="M167.549 257.989C167.293 257.919 167.073 257.722 167.014 257.431C166.991 257.013 167.188 256.792 167.607 256.769L168.315 256.687C168.734 256.664 168.955 256.861 168.978 257.279C169.001 257.698 168.804 257.919 168.386 257.942L167.677 258.024C167.805 258.058 167.677 258.024 167.549 257.989Z" fill="black"/>
<path d="M170.547 260.59C170.291 260.521 170.071 260.323 170.012 260.033C169.989 259.615 170.186 259.394 170.605 259.37L171.313 259.289C171.732 259.265 171.953 259.463 171.976 259.881C172 260.299 171.802 260.52 171.384 260.544L170.675 260.625C170.71 260.497 170.547 260.59 170.547 260.59Z" fill="black"/>
<path d="M165.871 252.04C165.36 251.901 164.918 251.506 164.964 250.832C164.882 250.123 165.475 249.461 166.183 249.379L166.892 249.297C167.601 249.215 168.264 249.808 168.345 250.517C168.427 251.225 167.835 251.888 167.126 251.97L166.417 252.051C166.255 252.144 165.999 252.075 165.871 252.04Z" fill="black"/>
<path d="M166.379 244.627C165.867 244.488 165.426 244.093 165.472 243.419C165.39 242.71 165.982 242.047 166.691 241.966L167.4 241.884C168.109 241.802 168.771 242.395 168.853 243.103C168.935 243.812 168.343 244.475 167.634 244.557L166.925 244.638C166.635 244.697 166.507 244.662 166.379 244.627Z" fill="black"/>
<path d="M161.893 288.854C160.487 288.472 159.348 287.612 158.476 286.276C157.359 284.325 157.474 281.884 158.705 279.885C159.97 277.758 160.98 275.561 161.99 273.365C162.362 272.505 162.768 271.517 163.232 270.819C164.846 267.414 168.145 264.879 171.793 264.087C174.57 263.47 178.695 262.945 182.959 263.419C187.224 263.894 190.991 266.704 192.515 270.689C192.945 271.63 193.213 272.664 193.609 273.733C193.667 274.023 193.562 274.407 193.109 274.558C192.819 274.616 192.435 274.512 192.284 274.059C192.016 273.025 191.621 271.956 191.318 271.049C189.945 267.518 186.655 264.974 182.902 264.639C178.765 264.2 174.768 264.76 172.026 265.249C168.668 265.983 165.892 268.11 164.348 271.26C163.977 272.12 163.605 272.98 163.106 273.806C162.096 276.002 161.051 278.327 159.786 280.454C158.787 282.105 158.684 283.999 159.521 285.462C160.451 287.089 161.858 287.472 162.915 287.622C164.647 287.819 166.494 287.086 167.516 285.854C167.748 285.505 168.166 285.481 168.48 285.841C168.829 286.074 168.852 286.492 168.492 286.806C167.238 288.387 164.938 289.271 162.788 289.098C162.532 289.028 162.149 288.924 161.893 288.854Z" fill="black"/>
<path d="M190.363 269.005C190.108 268.936 189.887 268.738 189.863 268.32C189.944 266.007 190.024 263.695 190.267 261.29C190.66 257.827 190.089 254.376 188.449 251.32C187.832 250.054 187.309 248.95 186.751 247.975C184.901 244.176 183.796 241.678 181.867 240.192C180.983 239.402 179.798 239.217 178.729 239.612C177.532 239.973 176.615 240.822 176.336 241.844C175.037 245.61 175.62 251.536 179.574 256.182C179.76 256.507 179.783 256.926 179.458 257.112C179.133 257.298 178.714 257.321 178.528 256.996C174.168 251.827 173.561 245.483 174.965 241.334C175.51 239.835 176.66 238.637 178.275 238.253C179.762 237.834 181.459 238.158 182.563 239.145C184.586 240.794 185.912 243.49 187.727 247.416C188.25 248.52 188.773 249.624 189.297 250.727C190.867 254.038 191.531 257.652 191.196 261.405C190.988 263.683 190.78 265.961 190.7 268.273C190.723 268.691 190.398 268.877 189.98 268.901C190.491 269.04 190.491 269.04 190.363 269.005Z" fill="black"/>
<path d="M177.404 264.654C177.149 264.584 176.835 264.224 176.904 263.969L178.004 255.892C178.108 255.509 178.434 255.322 178.724 255.264C179.108 255.369 179.294 255.694 179.352 255.984L178.252 264.061C178.148 264.444 177.95 264.665 177.404 264.654C177.404 264.654 177.532 264.689 177.404 264.654Z" fill="black"/>
<path d="M163.326 272.493L163.198 272.458C160.339 270.856 161.976 267.869 163.578 265.01C164.414 263.452 165.482 261.546 165.934 259.884C166.039 259.5 166.364 259.314 166.747 259.419C167.131 259.523 167.317 259.848 167.213 260.232C166.819 262.184 165.75 264.091 164.752 265.741C162.918 268.949 162.337 270.576 163.895 271.412C164.244 271.644 164.302 271.935 164.197 272.318C163.872 272.504 163.582 272.563 163.326 272.493Z" fill="black"/>
<path d="M169.537 354.098C169.154 353.993 168.968 353.668 169.072 353.284C173.074 338.583 173.988 331.692 172.174 329.276C171.674 328.59 170.907 328.382 169.687 328.324C169.269 328.348 169.083 328.022 169.025 327.732C169.001 327.314 169.326 327.128 169.617 327.069C171.29 326.975 172.371 327.544 173.22 328.462C175.348 331.238 174.596 338.036 170.35 353.632C170.246 354.016 169.921 354.202 169.537 354.098Z" fill="black"/>
<path d="M124.666 341.885C124.283 341.78 124.097 341.455 124.201 341.072C124.967 338.259 125.663 335.702 126.289 333.401C130.569 317.677 131.717 313.459 133.82 312.795C134.854 312.527 135.773 313.189 136.435 313.782C136.656 313.979 136.807 314.432 136.447 314.746C136.087 315.06 135.797 315.118 135.483 314.758C134.82 314.166 134.344 313.899 134.018 314.085C132.659 314.539 131.024 320.547 127.44 333.714C126.813 336.016 126.117 338.572 125.352 341.385C125.375 341.803 124.922 341.954 124.666 341.885Z" fill="black"/>
<path d="M171.582 354.655L11.7847 311.159C6.15986 309.628 2.81039 303.773 4.34146 298.148L82.3568 11.5347C83.8879 5.90979 89.7428 2.56032 95.3677 4.0914L255.165 47.5879C260.79 49.119 264.14 54.9739 262.609 60.5988L184.559 347.34C183.027 352.965 177.335 356.221 171.582 354.655ZM95.0197 5.36978C90.034 4.01269 84.9923 6.89696 83.6352 11.8826L5.58505 298.624C4.22795 303.609 7.11222 308.651 12.0979 310.008L171.896 353.505C176.881 354.862 181.923 351.978 183.28 346.992L261.33 60.2508C262.687 55.2651 259.803 50.2234 254.817 48.8663L95.0197 5.36978Z" fill="black"/>
</g>
<defs>
<clipPath id="clip0_365_7495">
<rect width="189.46" height="319.3" fill="white" transform="translate(83.8613 0.958984) rotate(15.2269)"/>
</clipPath>
</defs>
</svg>
