<svg width="370" height="343" viewBox="0 0 370 343" fill="none" xmlns="http://www.w3.org/2000/svg">
<g clip-path="url(#clip0_365_7320)">
<path d="M360.927 198.615L262.529 331.826C259.302 336.195 253.002 337.142 248.632 333.915L9.70554 157.428C5.33622 154.201 4.38931 147.901 7.61677 143.532L106.015 10.3209C109.242 5.95163 115.542 5.00472 119.911 8.23218L358.945 184.797C363.314 188.025 364.233 194.139 360.927 198.615Z" fill="#FFD979"/>
<path d="M292.901 150.672C269.92 120.685 241.173 124.816 221.648 143.667L221.176 144.306C224.42 149.502 226.821 155.394 228.032 161.56L240.821 171.006C244.94 205.344 258.973 225.593 258.973 225.593C258.973 225.593 253.103 223.728 242.999 222.689C232.896 221.649 218.531 221.251 201.568 224.369L189.526 215.474C182.827 216.291 176.013 215.705 169.801 214.081C157.337 238.312 161.84 267.003 197.443 280.125L194.789 293.977L248.925 333.966C253.295 337.193 259.516 336.353 262.822 331.877L319.499 255.148C310.249 258.528 303.768 256.375 300.895 254.912C299.886 254.496 299.112 253.76 298.495 252.81L266.916 206.588L257.255 197.146C254.494 196.424 252.525 195.299 251.662 193.344C248.246 186.374 260.685 173.325 279.221 164.286C297.836 155.141 315.684 153.5 319.1 160.471C320.041 162.319 319.819 164.626 318.514 167.286L319.02 171.283C322.522 171.894 325.895 172.902 329.115 174.787C331.954 171.613 341.015 171.388 341.015 171.388L304.675 144.545L292.901 150.672ZM277.811 279.698C278.983 280.564 279.127 282.153 278.34 283.219L276.923 285.137C276.057 286.309 274.468 286.453 273.402 285.666L237.808 259.374C240.796 258.451 243.705 257.635 246.906 256.87L277.811 279.698V279.698Z" fill="#7DA649"/>
<path d="M162.392 161.005C162.625 167.601 161.831 174.92 161.248 178.608C165.732 179.45 173.566 181.777 178.987 183.805C179.997 184.221 180.113 185.625 179.242 186.135C174.546 188.925 165.967 189.835 161.205 190.93C161.559 195.803 162.724 202.923 161.92 208.917C161.795 209.978 160.526 210.359 159.752 209.622C156.119 205.621 151.776 198.79 149.468 194.779C148.676 195.182 147.699 195.613 146.643 196.151C142.84 197.954 137.796 200.322 133.321 200.806C132.288 200.866 131.565 199.838 131.982 198.828C134.857 193.375 139.4 187.671 142.266 184.682C139.379 181.232 134.069 176.156 131.723 170.635C131.292 169.658 132.186 168.671 133.062 168.824C138.394 169.633 145.519 172.92 149.587 174.771C151.416 171.181 156.241 164.203 160.372 160.171C161.108 159.398 162.41 159.865 162.392 161.005Z" fill="#00A5BA"/>
<path d="M198.208 112.516C198.442 119.113 197.647 126.432 197.064 130.12C201.549 130.961 209.383 133.289 214.803 135.317C215.813 135.733 215.93 137.137 215.059 137.647C210.362 140.437 201.784 141.347 197.022 142.442C197.375 147.315 198.619 154.328 197.736 160.429C197.611 161.49 196.342 161.87 195.568 161.134C191.935 157.133 187.593 150.301 185.284 146.29C181.561 147.987 174.724 151.667 169.138 152.317C168.105 152.378 167.382 151.35 167.798 150.34C170.674 144.886 175.216 139.183 178.083 136.194C175.196 132.744 169.885 127.668 167.54 122.147C167.109 121.17 168.002 120.183 168.878 120.335C174.21 121.144 181.336 124.431 185.404 126.283C187.232 122.692 192.136 115.608 196.188 111.683C196.924 110.909 198.147 111.483 198.208 112.516Z" fill="#00A5BA"/>
<path d="M276.949 285.323L282.491 289.417C283.024 289.81 283.765 289.699 284.158 289.166L284.395 288.846C284.788 288.313 284.677 287.572 284.144 287.179L278.602 283.085L276.949 285.323Z" fill="#277342"/>
<path d="M318.913 160.499C319.854 162.347 319.632 164.654 318.327 167.314L318.833 171.311L319.855 180.631L321.645 186.236C317.599 194.613 310.897 198.557 306.881 200.202C302.865 201.848 301.472 207.079 304.489 210.13C305.504 211.209 307.047 212.02 308.826 212.51C312.064 213.255 316.247 212.721 320.471 210.57C315.599 214.713 308.827 216.299 304.088 216.917C297.39 217.734 294.803 226.365 300.187 230.672C301.04 231.301 301.786 231.852 302.796 232.269C304.922 233.181 307.47 233.745 310.305 233.698C305.634 243.59 317.865 249.33 327.027 244.732L319.312 255.176C310.063 258.556 303.581 256.403 300.709 254.941C299.699 254.524 298.925 253.788 298.308 252.838L266.729 206.617L257.068 197.174C254.307 196.452 252.338 195.327 251.476 193.372C248.059 186.402 260.498 173.353 279.034 164.314C297.649 155.169 315.576 153.422 318.913 160.499Z" fill="#D31A2B"/>
<path d="M143.5 70.6243C155.911 71.8852 165.487 76.9825 191.293 101.809C191.293 101.809 189.617 104.524 191.072 107.905C189.706 109.532 188.525 111.13 187.345 112.729C177.244 104.773 169.71 100.032 163.835 97.5045C155.542 94.0142 146.122 99.4091 145.101 108.373C144.181 116.753 142.832 127.946 133.593 136.44C131.002 148.197 123.108 159.331 112.856 159.83C111.453 159.946 110.646 158.362 111.327 157.218C113.16 154.29 114.887 151.283 114.887 151.283C110.177 155.875 103.827 157.114 103.827 157.114C100.192 163.818 103.387 173.095 129.301 191.084C128.121 192.683 126.94 194.282 125.787 196.065C122.127 195.668 119.918 197.99 119.918 197.99C84.266 178.243 79.2053 171.046 74.0914 156.562C56.1575 150.068 50.357 132.277 58.6019 114.648C61.9675 107.416 70.0863 101.554 74.9401 98.5505C77.7098 96.8079 80.345 94.8013 82.6605 92.5585C85.6336 89.6484 88.4493 86.9515 90.7091 84.3382C108.686 64.0151 120.034 61.362 135.281 66.365C135.693 64.6926 134.224 63.1133 132.76 62.1966C131.694 61.4094 132.027 59.8435 133.296 59.4633C141.546 56.9918 147.2 65.6156 143.5 70.6243Z" fill="#A05E1E"/>
<path d="M340.828 171.415L358.945 184.797C363.314 188.025 364.34 194.218 361.034 198.694L348.045 216.278C345.194 192.264 338.005 180.366 328.929 174.814C331.661 171.562 340.828 171.415 340.828 171.415Z" fill="#7DA649"/>
<path d="M246.906 256.869L277.811 279.697C278.983 280.563 279.127 282.152 278.34 283.218L276.923 285.136C276.057 286.308 274.468 286.452 273.403 285.665L237.809 259.373C240.717 258.557 243.705 257.634 246.906 256.869Z" fill="#277342"/>
<path d="M163.407 155.169L163.513 155.248C163.939 155.563 164.259 155.799 164.5 156.142C162.767 154.697 160.011 154.637 158.33 156.69C154.125 161.49 150.666 166.842 148.68 170.646C146.128 169.419 143.204 168.248 140.095 167.104C138.182 166.35 136.296 165.781 134.226 165.239C133.827 165.11 133.429 164.98 132.845 164.878C128.917 163.953 126.004 167.896 128.043 171.379C131.13 176.789 134.87 180.869 138.104 184.741C134.923 188.156 131.139 192.608 127.709 198.145C126.19 200.647 127.27 203.422 129.503 204.412C127.27 203.422 125.695 201.764 125.342 200.68C124.883 199.517 124.952 198.086 125.79 196.728C125.948 196.515 126.026 196.409 126.184 196.195C127.337 194.412 128.49 192.628 129.698 191.215C131.981 188.124 134.162 185.617 136.293 183.402C135.143 182.059 133.86 180.452 132.604 179.031C131.802 178.109 131.079 177.081 130.25 175.974C128.832 174.103 127.492 172.125 126.204 169.856C124.164 166.373 127.049 162.244 131.006 163.355C132.28 163.637 133.475 164.026 134.67 164.415C136.662 165.063 138.654 165.711 140.461 166.386C142.773 167.27 144.9 168.182 146.734 169.043C148.72 165.24 152.364 159.86 156.384 155.088C157.671 153.568 159.603 153.183 161.197 153.701C161.224 153.887 162.341 154.382 163.407 155.169Z" fill="#BB870F"/>
<path d="M200.424 107.729C198.691 106.285 195.935 106.225 194.254 108.278C190.049 113.078 186.591 118.43 184.605 122.233C180.138 120.252 174.583 117.961 168.876 116.545C164.947 115.62 162.035 119.563 164.074 123.046C167.161 128.455 170.9 132.535 174.135 136.407C170.875 139.929 166.985 144.303 163.554 149.84C162.035 152.342 163.116 155.116 165.349 156.107C164.737 155.82 164.126 155.533 163.593 155.139L163.486 155.06C162.314 154.194 161.484 153.087 161.188 152.374C160.729 151.212 160.798 149.78 161.636 148.423C165.067 142.886 168.957 138.512 172.031 135.018C170.641 133.332 169.144 131.568 167.726 129.697C166.549 128.168 165.266 126.561 164.061 124.848C163.338 123.82 162.694 122.685 162.049 121.55C160.01 118.067 162.895 113.939 166.851 115.049C169.214 115.642 171.604 116.419 173.81 117.224C175.005 117.613 176.121 118.109 177.423 118.576C179.337 119.331 181.065 120.113 182.686 120.817C183.862 118.556 185.538 115.84 187.664 112.963C188.845 111.365 190.025 109.766 191.391 108.14C191.706 107.713 192.021 107.287 192.443 106.94C193.73 105.42 195.661 105.035 197.255 105.553C196.963 105.502 199.275 106.386 200.424 107.729Z" fill="#BB870F"/>
<path d="M179.666 117.103C178.874 117.506 178.003 118.016 177.239 118.605C176.122 118.109 174.927 117.72 173.625 117.253C175.95 116.335 177.567 116.376 179.666 117.103Z" fill="#884113"/>
<path d="M163.955 124.77C165.16 126.484 166.365 128.198 167.621 129.619C165.866 132.441 164.139 135.448 162.81 138.584C160.401 135.157 160.191 131.873 161.992 128.097C162.409 127.087 163.089 125.943 163.955 124.77Z" fill="#884113"/>
<path d="M130.173 176.079C130.896 177.107 131.804 178.107 132.527 179.135C132.189 180.039 131.958 181.021 131.805 181.896C130.572 179.997 130.058 178.464 130.173 176.079Z" fill="#884113"/>
<path d="M147.695 159.046C145.116 161.423 142.643 163.879 140.462 166.386L140.383 166.492C138.576 165.816 136.663 165.062 134.592 164.521C135.458 163.348 136.324 162.176 137.245 161.374C140.431 158.622 143.711 157.75 147.695 159.046Z" fill="#884113"/>
<path d="M134.425 148.913C133.818 149.289 133.258 148.71 133.545 148.098C136.809 141.45 134.046 136.939 133.805 136.596C140.533 139.753 139.172 145.831 134.425 148.913Z" fill="#A05E1E"/>
<path d="M186.135 153.837C186.992 155.129 187.877 156.606 188.841 157.977C188.285 158.061 187.808 158.038 187.544 158.172C179.892 158.944 176.567 164.559 176.567 164.559C176.567 164.559 172.02 169.6 173.745 177.299C173.773 177.484 173.857 178.04 174.019 178.489C172.425 177.971 170.859 177.638 169.372 177.198C169.182 176.564 168.992 175.929 168.964 175.744C166.965 166.855 172.17 161.146 172.17 161.146C172.17 161.146 175.939 154.706 184.624 153.874C184.624 153.874 185.472 153.842 186.135 153.837Z" fill="#FEC82F"/>
<path d="M218.153 133.012C218.046 132.933 217.833 132.776 217.648 132.803C214.937 131.79 212.255 130.961 209.758 130.105C204.42 124.844 201.779 122.399 201.779 122.399C201.94 119.059 202.017 115.163 201.854 110.925C201.844 109.6 201.2 108.465 200.347 107.835C199.198 106.492 196.886 105.608 196.886 105.608C195.293 105.09 193.361 105.475 192.074 106.995C191.759 107.421 191.337 107.769 191.023 108.195C189.567 104.814 191.243 102.099 191.243 102.099C205.021 91.0277 230.21 114.905 218.153 133.012Z" fill="#F8B682"/>
<path d="M148.547 199.37C150.21 202.246 152.194 205.359 154.363 208.443C146.329 204.156 142.576 201.878 142.576 201.878C144.716 200.988 146.856 200.098 148.547 199.37Z" fill="#F8B682"/>
<path d="M154.363 208.443C155.461 210.078 156.745 211.685 158.029 213.292C158.242 213.449 158.376 213.713 158.589 213.871C145.128 232.094 113.813 214.727 120.423 198.197C120.423 198.197 122.553 195.982 126.292 196.273C126.134 196.486 126.055 196.593 125.898 196.806C125.06 198.163 124.991 199.595 125.45 200.757C125.909 201.92 127.406 203.684 129.611 204.49C129.717 204.568 129.717 204.568 129.824 204.647C130.621 204.906 131.496 205.059 132.502 204.813C132.872 204.757 133.057 204.73 133.321 204.595C136.522 203.83 139.695 202.879 142.548 201.693C142.576 201.878 146.408 204.049 154.363 208.443Z" fill="#F8B682"/>
<path d="M187.373 112.914C185.248 115.791 183.571 118.506 182.395 120.767C180.774 120.063 179.046 119.281 177.132 118.526C177.897 117.938 178.767 117.428 179.559 117.025C177.461 116.298 175.844 116.257 173.704 117.147C171.499 116.342 169.108 115.564 166.746 114.972C162.817 114.047 159.904 117.99 161.944 121.473C162.588 122.607 163.232 123.742 163.955 124.77C163.168 125.836 162.302 127.008 161.807 128.125C160.006 131.901 160.215 135.185 162.625 138.612C164.139 135.448 165.759 132.362 167.436 129.647C168.96 131.597 170.35 133.283 171.741 134.968C168.559 138.383 164.776 142.836 161.345 148.373C160.507 149.731 160.438 151.162 160.897 152.325C161.194 153.038 162.023 154.145 163.195 155.011C162.13 154.223 160.934 153.835 160.934 153.835C159.341 153.316 157.409 153.701 156.122 155.221C152.024 160.1 148.458 165.373 146.472 169.177C144.531 168.237 142.404 167.325 140.199 166.52L140.278 166.413C142.459 163.907 144.825 161.372 147.511 159.073C143.527 157.778 140.326 158.543 137.247 161.374C136.325 162.176 135.353 163.269 134.593 164.52C133.398 164.132 132.203 163.743 130.929 163.461C127 162.535 124.088 166.478 126.127 169.961C127.415 172.231 128.755 174.208 130.173 176.079C129.951 178.386 130.494 180.105 131.699 181.819C131.851 180.943 132.082 179.961 132.42 179.057C133.597 180.586 134.853 182.008 136.109 183.429C134.164 185.616 131.798 188.151 129.515 191.241C103.601 173.253 100.299 163.896 104.04 157.271C104.04 157.271 110.284 155.953 115.101 151.44C115.101 151.44 113.295 154.553 111.54 157.375C110.86 158.519 111.666 160.103 113.07 159.987C123.321 159.488 131.216 148.354 133.807 136.597C133.941 136.861 136.888 141.344 133.546 148.099C133.259 148.71 133.898 149.183 134.426 148.914C139.095 145.938 140.64 139.833 133.807 136.597C143.046 128.103 144.395 116.91 145.314 108.53C146.335 99.5661 155.649 94.0925 164.049 97.6615C169.738 100.217 177.378 105.037 187.373 112.914Z" fill="#F8B682"/>
<path d="M347.94 216.198L326.844 244.759C317.576 249.278 305.53 243.51 310.122 233.725C307.287 233.772 304.739 233.207 302.612 232.295C301.602 231.879 300.857 231.328 300.004 230.698C294.726 226.47 297.207 217.761 303.905 216.943C308.75 216.405 315.601 214.712 320.288 210.597C316.064 212.747 311.881 213.281 308.642 212.537C306.864 212.046 305.427 211.315 304.306 210.157C301.289 207.105 302.682 201.875 306.698 200.229C310.714 198.583 317.522 194.718 321.462 186.262L319.672 180.658L318.65 171.338C322.152 171.948 325.525 172.957 328.745 174.841C337.979 180.18 345.195 192.263 347.94 216.198Z" fill="#F8B682"/>
<path d="M151.077 175.874L143.178 171.851L146.613 195.966L149.332 194.515L159.406 206.074L158.842 194.128L155.407 170.012L151.077 175.874Z" fill="white"/>
<path d="M187.735 129.815L178.519 123.337L181.954 147.453L185.072 146.131L195.377 156.709L195.023 148.046L191.694 124.01L187.735 129.815Z" fill="white"/>
<path d="M227.953 161.665L240.741 171.111C244.86 205.45 258.893 225.698 258.893 225.698C258.893 225.698 253.024 223.833 242.92 222.794C232.817 221.755 218.451 221.356 201.489 224.474L189.446 215.579C201.467 214.246 213.06 208.809 220.932 198.152C228.933 187.096 230.639 173.861 227.953 161.665Z" fill="#F8B682"/>
<path d="M201.777 122.4C201.777 122.4 204.418 124.845 209.757 130.106C206.782 129.226 203.915 128.426 201.288 127.968C201.514 126.324 201.713 124.494 201.777 122.4Z" fill="#F8B682"/>
<path d="M218.153 140.592C218.074 140.699 217.889 140.726 217.625 140.861C212.183 143.1 206.231 144.468 201.177 145.512C201.586 150.756 201.945 156.291 201.617 162.309C201.382 166.418 196.412 168.018 193.845 164.804C192.079 162.511 190.42 160.297 188.947 158.056C188.947 158.056 188.947 158.056 188.84 157.977C188.284 158.06 187.807 158.037 187.543 158.172C179.891 158.943 176.566 164.559 176.566 164.559C176.566 164.559 172.019 169.6 173.744 177.299C173.772 177.484 173.856 178.04 174.018 178.489L174.125 178.568C176.7 179.317 179.304 180.252 182.014 181.266C185.813 182.59 185.639 187.732 181.994 189.322C176.551 191.561 170.599 192.929 165.545 193.973C165.955 199.217 166.313 204.752 165.907 210.876C165.833 211.645 165.732 212.229 165.338 212.762C165.95 213.049 166.64 213.229 166.746 213.308C167.65 213.646 168.739 213.956 169.721 214.187C175.933 215.812 182.826 216.291 189.446 215.58C201.466 214.247 213.06 208.81 220.931 198.153C229.039 187.177 230.638 173.863 228.059 161.745C226.742 155.501 224.34 149.609 221.202 144.492C220.586 143.542 219.863 142.514 219.247 141.564C219.14 141.486 218.871 140.958 218.524 140.536C218.311 140.379 218.232 140.485 218.153 140.592ZM212.936 166.387C215.731 171.746 212.12 181.762 207.555 187.943C202.989 194.124 194.477 200.519 188.533 199.423C185.8 198.886 182.76 196.312 185.168 192.16C188.098 187.078 192.286 187.206 197.324 180.386C202.362 173.565 201.115 169.679 205.005 165.305C208.265 161.784 211.698 163.825 212.936 166.387Z" fill="#F8B682"/>
<path d="M212.935 166.387C215.73 171.746 212.12 181.762 207.554 187.943C202.989 194.124 194.476 200.519 188.532 199.423C185.799 198.886 182.76 196.312 185.167 192.16C188.098 187.078 192.286 187.206 197.324 180.386C202.362 173.565 201.114 169.679 205.004 165.305C208.264 161.784 211.697 163.825 212.935 166.387Z" fill="white"/>
<path d="M184.364 150.881C184.98 151.831 185.49 152.701 186.028 153.757C186.028 153.757 186.028 153.757 186.134 153.836C185.472 153.841 184.703 153.767 184.439 153.901C175.753 154.733 171.985 161.173 171.985 161.173C171.985 161.173 166.78 166.882 168.779 175.771C168.807 175.956 168.997 176.591 169.187 177.225C167.992 176.837 166.824 176.633 165.55 176.351C166.184 172.372 166.298 166.197 166.115 159.308C166.105 157.983 165.461 156.849 164.608 156.219C164.367 155.876 163.941 155.561 163.621 155.325C164.154 155.719 164.766 156.006 165.377 156.293C166.202 156.737 167.263 156.862 168.347 156.51C174.378 155.035 180.112 152.846 184.364 150.881Z" fill="#F8B682"/>
<path d="M158.438 156.768C154.233 161.568 150.775 166.92 148.788 170.724C146.236 169.497 143.312 168.326 140.204 167.182C138.29 166.428 136.405 165.859 134.334 165.317C133.935 165.188 133.537 165.058 132.953 164.956C129.025 164.031 126.112 167.974 128.151 171.457C131.238 176.867 134.978 180.947 138.212 184.819C135.031 188.234 131.248 192.686 127.817 198.223C126.298 200.725 127.378 203.5 129.611 204.49C129.718 204.569 129.718 204.569 129.824 204.648C130.621 204.907 131.497 205.059 132.502 204.814C132.873 204.758 133.058 204.73 133.322 204.596C136.523 203.83 139.695 202.88 142.549 201.693C144.795 200.882 146.75 200.019 148.519 199.185C150.183 202.061 152.167 205.174 154.335 208.258C155.434 209.893 156.717 211.5 158.001 213.107C158.214 213.265 158.349 213.529 158.562 213.686C160.749 215.631 163.95 214.866 165.204 212.498C165.491 211.887 165.7 211.382 165.773 210.613C166.179 204.488 165.928 199.032 165.412 193.709C170.544 192.559 176.418 191.297 181.86 189.058C185.612 187.547 185.68 182.326 181.881 181.002C179.17 179.988 176.488 179.16 173.991 178.304L173.884 178.225C172.291 177.707 170.725 177.374 169.238 176.934C168.042 176.545 166.875 176.342 165.601 176.06C166.234 172.08 166.348 165.905 166.166 159.017C166.156 157.692 165.512 156.557 164.659 155.928C162.875 154.775 160.119 154.715 158.438 156.768ZM162.391 161.005C162.624 167.602 161.83 174.921 161.247 178.609C165.732 179.451 173.566 181.778 178.986 183.806C179.996 184.222 180.112 185.626 179.242 186.136C174.545 188.926 165.966 189.836 161.205 190.931C161.558 195.804 162.723 202.924 161.919 208.918C161.794 209.979 160.525 210.359 159.751 209.623C156.118 205.622 151.775 198.79 149.467 194.779C148.675 195.183 147.698 195.614 146.642 196.151C142.839 197.955 137.795 200.323 133.321 200.806C132.288 200.867 131.565 199.839 131.981 198.829C134.856 193.376 139.399 187.672 142.266 184.683C139.379 181.233 134.068 176.157 131.723 170.636C131.292 169.659 132.185 168.672 133.061 168.824C138.393 169.633 145.519 172.92 149.586 174.772C151.415 171.181 156.24 164.204 160.371 160.172C161.107 159.398 162.409 159.866 162.391 161.005Z" fill="#FEC82F"/>
<path d="M194.175 108.386C189.97 113.186 186.512 118.537 184.526 122.341C180.059 120.36 174.504 118.069 168.797 116.653C164.868 115.727 161.956 119.67 163.995 123.153C167.082 128.563 170.821 132.643 174.056 136.515C170.875 139.93 166.985 144.304 163.554 149.841C162.035 152.343 163.115 155.117 165.348 156.108C166.173 156.552 167.234 156.677 168.318 156.325C174.455 154.928 180.268 152.634 184.335 150.696C184.951 151.646 185.461 152.516 185.999 153.572C185.999 153.572 185.999 153.572 186.105 153.651C186.963 154.943 187.848 156.421 188.812 157.792L188.919 157.87C190.392 160.112 192.158 162.404 193.817 164.618C196.278 167.754 201.248 166.154 201.589 162.124C201.916 156.106 201.743 150.543 201.149 145.327C206.281 144.176 212.155 142.914 217.597 140.675C217.782 140.648 217.861 140.541 218.125 140.407C218.204 140.3 218.389 140.272 218.468 140.166C218.732 140.031 218.811 139.925 218.968 139.711C219.468 139.257 219.783 138.831 219.991 138.326C220.149 138.113 220.2 137.821 220.172 137.636C220.301 137.237 220.324 136.76 220.269 136.39C220.236 135.542 220.018 134.722 219.536 134.037C219.508 133.851 219.295 133.694 219.188 133.615L219.082 133.536C218.975 133.458 218.762 133.3 218.656 133.222C218.442 133.064 218.229 132.907 218.016 132.749C217.91 132.671 217.697 132.513 217.511 132.541C214.801 131.527 212.119 130.699 209.621 129.843C206.647 128.963 203.78 128.163 201.153 127.705C201.379 126.061 201.578 124.231 201.642 122.137C201.803 118.797 201.881 114.901 201.717 110.662C201.708 109.337 201.064 108.203 200.211 107.573C198.691 106.286 195.856 106.333 194.175 108.386ZM198.207 112.516C198.44 119.113 197.646 126.432 197.063 130.12C201.548 130.962 209.382 133.289 214.802 135.317C215.812 135.733 215.928 137.137 215.058 137.647C210.361 140.437 201.782 141.347 197.021 142.442C197.374 147.315 198.618 154.328 197.735 160.429C197.61 161.49 196.341 161.87 195.567 161.134C191.934 157.133 187.591 150.301 185.283 146.29C181.559 147.987 174.723 151.667 169.137 152.317C168.104 152.378 167.381 151.35 167.797 150.34C170.672 144.887 175.215 139.183 178.081 136.194C175.194 132.744 169.884 127.668 167.539 122.147C167.107 121.17 168.001 120.183 168.877 120.335C174.209 121.144 181.334 124.431 185.402 126.283C187.231 122.692 192.135 115.608 196.187 111.683C196.923 110.909 198.146 111.483 198.207 112.516Z" fill="#FEC82F"/>
<path d="M267.606 225.054C267.86 223.594 267.077 221.533 266.534 219.815C264.638 214.131 261.922 208.666 259.469 203.066C258.714 201.19 257.958 199.314 257.281 197.332L256.962 197.096C254.2 196.374 252.231 195.249 251.369 193.294C250.025 190.654 251.112 187.175 253.84 183.26C253.042 179.211 252.244 175.163 250.839 171.49C250.028 169.243 248.846 167.052 247.242 165.209C245.398 163.023 242.947 161.213 240.524 159.588C235.117 155.758 229.024 152.411 223.432 148.609C225.476 152.755 227.071 157.062 227.952 161.667L240.74 171.113C243.759 196.238 252.075 213.746 256.344 221.346C260.751 229.873 267.051 228.926 267.606 225.054Z" fill="#277342"/>
<path d="M211.228 306.284C212.496 302.115 213.579 297.973 214.633 293.646C215.665 289.796 216.697 285.947 217.836 282.176C218.664 279.493 219.784 276.862 220.534 274.286C221.052 272.692 221.908 270.195 220.917 268.639C219.925 267.083 216.849 266.787 215.283 266.454C212.763 266.075 210.349 265.774 207.852 264.918C204.743 263.775 201.792 262.419 198.892 260.77C192.985 257.395 187.573 252.903 183.453 247.554C176.738 238.806 176.877 225.237 176.449 217.344C176.472 216.867 176.36 216.126 176.328 215.278C174.021 215.056 171.765 214.543 169.508 214.029C157.045 238.26 161.547 266.952 197.151 280.074L194.496 293.926L211.228 306.284V306.284Z" fill="#277342"/>
<path opacity="0.64" d="M323.805 245.974C315.208 248.024 306.052 242.58 310.228 233.805C307.393 233.852 304.845 233.287 302.719 232.375C301.709 231.959 300.963 231.408 300.11 230.778C294.832 226.55 297.313 217.841 304.011 217.023C305.415 216.907 306.976 216.578 308.537 216.248C307.837 214.743 307.137 213.238 306.33 211.654C305.612 211.288 304.973 210.816 304.518 210.315C303.156 208.815 302.586 206.911 303.076 205.132C303.048 204.947 302.942 204.868 302.807 204.604C301.194 201.436 299.317 198.403 297.176 195.503C295.624 193.368 293.779 191.182 291.597 189.9C290.666 189.377 289.976 189.196 288.836 189.178C287.034 189.165 285.316 189.707 283.569 190.064C279.577 191.233 275.64 192.772 271.647 193.941C265.857 195.758 259.214 196.946 253.215 195.48C254.174 196.188 255.476 196.655 256.857 197.016L266.518 206.459L298.31 252.838C298.926 253.787 299.779 254.417 300.71 254.94C303.583 256.403 310.064 258.555 319.314 255.176L324.746 247.822C324.37 247.216 324.073 246.502 323.805 245.974Z" fill="#790E17"/>
<path opacity="0.68" d="M119.031 141.659C115.485 135.087 111.624 128.941 108.871 121.965C106.089 114.804 104.206 107.319 103.171 99.801C102.001 92.019 101.971 84.2551 102.205 76.3568C102.223 75.2172 102.32 73.9711 102.445 72.9102C98.9157 75.9038 95.0997 79.509 90.9737 84.2028C88.7139 86.8162 85.8982 89.5131 82.9251 92.4231C80.6096 94.6659 77.9743 96.6725 75.2047 98.4151C70.3509 101.418 62.2321 107.281 58.8665 114.513C50.7281 132.22 56.5286 150.012 74.356 156.427C79.3912 171.017 84.5306 178.108 120.183 197.854C120.183 197.854 122.313 195.639 126.051 195.93C127.204 194.146 128.357 192.362 129.566 190.949C103.652 172.96 100.35 163.604 104.091 156.978C104.091 156.978 110.335 155.661 115.152 151.147C115.152 151.147 113.346 154.261 111.591 157.083C110.911 158.227 111.717 159.811 113.121 159.695C117.915 159.448 122.269 156.899 125.659 152.979C123.063 149.579 121.019 145.434 119.031 141.659Z" fill="#7E2A0A"/>
<path d="M344.496 198.338C346.017 203.415 347.172 209.21 348.017 216.093L360.927 198.616C363.289 195.419 363.496 191.125 361.591 187.906C356.775 192.419 350.786 196.066 344.496 198.338Z" fill="#277342"/>
<path d="M163.407 155.169L163.513 155.248C163.939 155.563 164.259 155.799 164.5 156.142C162.767 154.697 160.011 154.637 158.33 156.69C154.125 161.49 150.666 166.842 148.68 170.646C146.128 169.419 143.204 168.248 140.095 167.104C138.182 166.35 136.296 165.781 134.226 165.239C133.827 165.11 133.429 164.98 132.845 164.878C128.917 163.953 126.004 167.896 128.043 171.379C131.13 176.789 134.87 180.869 138.104 184.741C134.923 188.156 131.139 192.608 127.709 198.145C126.19 200.647 127.27 203.422 129.503 204.412C127.27 203.422 125.695 201.764 125.342 200.68C124.883 199.517 124.952 198.086 125.79 196.728C125.948 196.515 126.026 196.409 126.184 196.195C127.337 194.412 128.49 192.628 129.698 191.215C131.981 188.124 134.162 185.617 136.293 183.402C135.143 182.059 133.86 180.452 132.604 179.031C131.802 178.109 131.079 177.081 130.25 175.974C128.832 174.103 127.492 172.125 126.204 169.856C124.164 166.373 127.049 162.244 131.006 163.355C132.28 163.637 133.475 164.026 134.67 164.415C136.662 165.063 138.654 165.711 140.461 166.386C142.773 167.27 144.9 168.182 146.734 169.043C148.72 165.24 152.364 159.86 156.384 155.088C157.671 153.568 159.603 153.183 161.197 153.701C161.224 153.887 162.341 154.382 163.407 155.169Z" fill="#BB870F"/>
<path d="M200.424 107.729C198.691 106.285 195.935 106.225 194.254 108.278C190.049 113.078 186.591 118.43 184.605 122.233C180.138 120.252 174.583 117.961 168.876 116.545C164.947 115.62 162.035 119.563 164.074 123.046C167.161 128.455 170.9 132.535 174.135 136.407C170.875 139.929 166.985 144.303 163.554 149.84C162.035 152.342 163.116 155.116 165.349 156.107C164.737 155.82 164.126 155.533 163.593 155.139L163.486 155.06C162.314 154.194 161.484 153.087 161.188 152.374C160.729 151.212 160.798 149.78 161.636 148.423C165.067 142.886 168.957 138.512 172.031 135.018C170.641 133.332 169.144 131.568 167.726 129.697C166.549 128.168 165.266 126.561 164.061 124.848C163.338 123.82 162.694 122.685 162.049 121.55C160.01 118.067 162.895 113.939 166.851 115.049C169.214 115.642 171.604 116.419 173.81 117.224C175.005 117.613 176.121 118.109 177.423 118.576C179.337 119.331 181.065 120.113 182.686 120.817C183.862 118.556 185.538 115.84 187.664 112.963C188.845 111.365 190.025 109.766 191.391 108.14C191.706 107.713 192.021 107.287 192.443 106.94C193.73 105.42 195.661 105.035 197.255 105.553C196.963 105.502 199.275 106.386 200.424 107.729Z" fill="#BB870F"/>
<path d="M168.309 169.494C168.11 171.324 168.125 173.311 168.565 175.613C168.593 175.798 168.783 176.433 168.973 177.067C170.539 177.401 172.026 177.84 173.62 178.359C173.537 177.803 173.481 177.432 173.346 177.168C172.855 175.158 172.947 173.249 173.095 171.711C171.658 170.98 170.037 170.276 168.309 169.494Z" fill="#BB870F"/>
<path d="M148.547 199.37C150.21 202.246 152.194 205.359 154.363 208.443C146.329 204.156 142.576 201.878 142.576 201.878C144.716 200.988 146.856 200.098 148.547 199.37Z" fill="#C46E4A"/>
<path d="M154.363 208.443C155.461 210.078 156.745 211.685 158.029 213.292C158.242 213.449 158.376 213.713 158.589 213.871C145.128 232.094 113.813 214.727 120.423 198.197C120.423 198.197 122.553 195.982 126.292 196.273C126.134 196.486 126.055 196.593 125.898 196.806C125.06 198.163 124.991 199.595 125.45 200.757C125.909 201.92 127.406 203.684 129.611 204.49C129.717 204.568 129.717 204.568 129.824 204.647C130.621 204.906 131.496 205.059 132.502 204.813C132.872 204.757 133.057 204.73 133.321 204.595C136.522 203.83 139.695 202.879 142.548 201.693C142.576 201.878 146.408 204.049 154.363 208.443Z" fill="#C46E4A"/>
<path d="M134.593 164.52C134.672 164.414 134.751 164.307 134.829 164.201C131.623 160.514 128.68 156.693 126.265 152.604C122.746 156.922 118.156 159.791 113.07 159.987C111.666 160.103 110.86 158.519 111.54 157.375C113.374 154.447 115.101 151.44 115.101 151.44C110.391 156.032 104.04 157.271 104.04 157.271C100.406 163.975 103.601 173.253 129.515 191.241C131.798 188.151 133.979 185.644 136.109 183.429C134.96 182.086 133.676 180.479 132.42 179.057C132.082 179.961 131.851 180.943 131.699 181.819C130.387 180.026 129.951 178.386 130.173 176.079C128.755 174.208 127.415 172.231 126.127 169.961C124.088 166.478 126.972 162.35 130.929 163.461C132.203 163.743 133.398 164.132 134.593 164.52Z" fill="#C46E4A"/>
<path d="M323.779 209.884C327.864 206.807 332.787 202.372 333.012 196.938C333.063 196.646 333.007 196.276 332.951 195.905C332.873 196.012 332.766 195.933 332.687 196.039C330.997 196.767 329.496 198.13 328.075 199.385C326.653 200.641 325.152 202.004 323.624 203.181C321.146 204.974 318.242 206.453 315.255 207.376C311.262 208.544 307.209 208.68 303.229 208.046C303.447 208.866 303.929 209.552 304.518 210.316C305.532 211.395 307.075 212.205 308.854 212.695C312.093 213.44 316.275 212.906 320.5 210.756C319.078 212.011 317.522 213.003 315.831 213.731C318.74 212.915 321.565 211.543 323.779 209.884Z" fill="#C46E4A"/>
<path d="M341.799 206.227C339.068 213.269 334.104 219.321 327.694 223.316C322.048 226.722 315.591 227.882 309.097 227.532C305.094 227.376 300.688 226.428 297.227 224.2C297.006 226.507 297.951 229.018 300.004 230.699C300.857 231.329 301.603 231.88 302.613 232.296C304.739 233.208 307.287 233.773 310.122 233.725C305.451 243.617 317.682 249.357 326.844 244.759L347.94 216.199C347.035 208.282 345.583 201.774 343.793 196.17C343.632 199.51 343.021 203.012 341.799 206.227Z" fill="#C46E4A"/>
<path d="M219.691 213.212C218.968 212.184 219.172 211.017 220.093 210.215C226.725 203.913 231.568 195.796 232.853 186.697C233.99 179.137 233.034 171.512 231.151 164.027L228.06 161.744C230.64 173.862 229.041 187.175 220.933 198.152C213.061 208.809 201.468 214.246 189.447 215.579L201.489 224.475C211.36 222.707 220.366 222.111 228.13 222.081C224.877 219.349 221.995 216.561 219.691 213.212Z" fill="#C46E4A"/>
<path d="M206.405 201.095C201.847 201.022 197.441 200.074 193.008 198.94C191.368 199.376 189.886 199.599 188.505 199.238C186.939 198.905 185.29 198.016 184.59 196.511C182.093 195.654 179.596 194.798 177.071 193.757C175.663 193.21 174.439 192.636 173.11 191.984C170.386 192.772 167.713 193.268 165.254 193.922C165.663 199.166 166.021 204.702 165.616 210.826C165.542 211.595 165.44 212.179 165.046 212.711C165.658 212.998 166.348 213.179 166.455 213.258C167.358 213.595 168.447 213.905 169.429 214.137C175.642 215.761 182.535 216.241 189.154 215.53C200.512 214.202 211.605 209.218 219.431 199.516C215.332 200.606 210.964 201.167 206.405 201.095Z" fill="#C46E4A"/>
<path d="M162.018 200.755C162.144 203.484 162.27 206.212 161.812 208.839C161.688 209.9 160.418 210.28 159.645 209.544C157.133 206.7 154.348 202.666 152.017 199.132C149.39 198.675 146.763 198.217 144.058 197.866C143.659 197.736 143.289 197.792 142.89 197.662C139.773 198.983 136.285 200.36 133.214 200.727C132.181 200.788 131.458 199.759 131.875 198.749C132.241 198.031 132.685 197.207 133.236 196.461C131.99 196.364 130.929 196.239 129.789 196.221C129.604 196.249 129.498 196.17 129.312 196.198C128.84 196.837 128.396 197.662 127.845 198.408C126.326 200.91 127.406 203.684 129.639 204.675C129.746 204.754 129.746 204.754 129.852 204.832C130.649 205.092 131.525 205.244 132.53 204.998C132.9 204.943 133.086 204.915 133.35 204.78C136.55 204.015 139.723 203.064 142.577 201.878C144.823 201.066 146.778 200.204 148.547 199.37C150.211 202.246 152.194 205.358 154.363 208.443C155.462 210.078 156.745 211.685 158.029 213.292C158.242 213.449 158.377 213.713 158.59 213.871C160.777 215.816 163.978 215.05 165.232 212.683C165.519 212.071 165.728 211.566 165.801 210.797C166.069 207.536 166.073 204.409 165.919 201.495C164.538 201.135 163.292 201.038 162.018 200.755Z" fill="#BB870F"/>
<path d="M197.519 148.904C197.891 152.638 198.105 156.585 197.629 160.351C197.504 161.412 196.235 161.792 195.461 161.056C192.495 157.712 189.066 152.543 186.573 148.56C184.849 148.44 183.019 148.242 181.268 147.936C177.651 149.712 173.028 151.733 168.924 152.16C167.891 152.221 167.168 151.193 167.585 150.183C168.159 148.96 168.918 147.709 169.705 146.643C168.459 146.546 167.107 146.37 165.86 146.273C165.073 147.339 164.314 148.59 163.555 149.841C162.036 152.343 163.116 155.117 165.349 156.108C166.174 156.553 167.235 156.677 168.319 156.325C174.456 154.929 180.269 152.634 184.336 150.696C184.952 151.646 185.462 152.517 186 153.573C186 153.573 186 153.573 186.106 153.651C186.964 154.944 187.849 156.421 188.813 157.792L188.919 157.871C190.393 160.112 192.159 162.405 193.818 164.618C196.279 167.754 201.249 166.154 201.59 162.124C201.82 157.352 201.814 152.901 201.466 148.69C200.09 148.992 198.844 148.895 197.519 148.904Z" fill="#BB870F"/>
<path d="M184.371 188.111C183.82 188.857 183.056 189.445 182.079 189.876C176.715 192.009 171.055 193.428 166.108 194.55C166.489 199.609 166.819 204.959 166.386 210.898C166.243 213.099 164.983 214.804 162.894 215.402C160.912 216.079 158.813 215.352 157.53 213.745C153.651 208.739 150.434 203.727 148.395 200.244C145.199 201.672 139.414 204.152 132.721 205.632C130.604 206.045 128.612 205.397 127.407 203.683C126.202 201.97 126.159 199.797 127.312 198.013C130.743 192.477 134.448 188.13 137.472 184.928C137.124 184.507 136.67 184.007 136.216 183.507C133.436 180.135 130.229 176.449 127.652 171.91C126.604 169.983 126.562 167.81 127.928 166.184C129.109 164.586 131.091 163.909 133.162 164.45C139.083 166.023 144.638 168.315 148.492 170.009C150.715 165.885 154.387 160.691 158.013 156.452C159.379 154.825 161.653 154.199 163.645 154.847C165.558 155.602 166.763 157.315 166.884 159.381C166.993 167.038 166.925 172.259 166.422 175.84C170.934 176.867 176.085 178.367 182.303 180.653C184.216 181.408 185.5 183.015 185.514 185.002C185.311 186.169 185.001 187.258 184.371 188.111ZM164.829 193.606C164.907 193.499 164.986 193.393 165.171 193.365C170.225 192.321 176.071 190.874 181.513 188.635C183.018 187.935 184.042 186.55 184.004 185.039C183.967 183.529 183.031 182.344 181.622 181.797C175.22 179.539 169.855 177.882 165.264 176.962C164.972 176.911 164.731 176.568 164.675 176.197C165.179 172.616 165.326 167.289 165.268 159.34C165.23 157.83 164.373 156.538 162.886 156.098C161.477 155.552 159.838 155.988 158.708 157.294C155.003 161.641 151.252 166.941 149.137 171.144C148.901 171.463 148.637 171.598 148.238 171.468C144.383 169.774 138.694 167.218 132.588 165.673C131.022 165.34 129.568 165.748 128.702 166.92C127.757 168.199 127.716 169.816 128.495 171.215C131.072 175.754 134.065 179.283 136.952 182.733C137.513 183.312 137.995 183.997 138.556 184.576C138.69 184.84 138.746 185.211 138.588 185.424C135.564 188.626 131.781 193.079 128.271 198.722C127.433 200.079 127.392 201.696 128.328 202.882C129.186 204.174 130.673 204.613 132.234 204.284C139.112 202.777 145.162 200.162 148.172 198.762C148.436 198.628 148.835 198.757 148.969 199.021C151.008 202.504 154.359 207.78 158.345 212.865C159.522 214.393 161.138 214.434 162.329 214.161C163.413 213.808 164.756 212.659 164.954 210.829C165.36 204.705 165.002 199.169 164.62 194.111C164.671 193.819 164.75 193.712 164.829 193.606Z" fill="black"/>
<path d="M180.09 186.103C179.933 186.316 179.775 186.529 179.511 186.663C175.764 188.837 169.784 190.02 165.073 190.823C163.962 190.99 162.771 191.264 161.845 191.403C161.984 192.329 162.045 193.362 162.105 194.395C162.56 198.685 163.104 204.193 162.475 208.835C162.402 209.604 161.823 210.164 161.109 210.461C160.396 210.758 159.599 210.498 159.145 209.998C155.512 205.997 151.41 199.508 149.102 195.497C148.653 195.66 148.31 195.901 147.861 196.063C143.98 197.973 138.144 200.744 133.298 201.283C132.557 201.395 131.839 201.029 131.464 200.422C131.088 199.815 130.977 199.074 131.343 198.356C133.903 193.329 138.131 188.052 141.284 184.451C140.696 183.687 139.922 182.951 139.227 182.108C136.289 178.95 132.841 174.921 130.954 170.562C130.658 169.849 130.838 169.158 131.232 168.626C131.625 168.093 132.339 167.796 133.108 167.87C138.254 168.707 145.06 171.758 149.022 173.531L149.128 173.609C151.221 169.884 155.81 163.226 159.783 159.408C160.362 158.847 161.103 158.736 161.821 159.101C162.539 159.467 162.915 160.074 163.026 160.815C163.227 166.564 162.562 173.485 161.984 177.835C166.575 178.755 173.904 180.875 179.246 183.009C179.964 183.374 180.418 183.874 180.451 184.722C180.535 185.278 180.405 185.676 180.09 186.103ZM160.566 190.458C160.645 190.352 160.723 190.245 160.909 190.217C162.02 190.05 163.396 189.749 164.772 189.447C169.483 188.644 175.277 187.489 178.867 185.529C179.131 185.394 179.182 185.102 179.154 184.917C179.233 184.811 179.098 184.547 178.779 184.31C173.437 182.176 165.631 180.034 161.04 179.114C160.748 179.063 160.507 178.72 160.451 178.349C161.135 174.078 161.851 166.865 161.622 160.931C161.567 160.561 161.354 160.403 161.247 160.325C161.14 160.246 160.849 160.195 160.691 160.408C156.639 164.333 151.893 171.204 150.064 174.795C149.828 175.115 149.564 175.249 149.166 175.119L148.447 174.754C144.486 172.981 137.866 169.902 132.825 169.144C132.534 169.093 132.27 169.227 132.191 169.334C132.112 169.441 131.955 169.654 132.089 169.918C133.976 174.276 137.502 178.199 140.334 181.279C141.242 182.279 142.043 183.2 142.739 184.043C142.873 184.307 142.929 184.678 142.771 184.891C139.59 188.306 135.205 193.797 132.566 198.93C132.408 199.143 132.543 199.407 132.571 199.593C132.677 199.671 132.812 199.935 133.182 199.88C137.842 199.369 143.572 196.518 147.374 194.715C148.087 194.418 148.615 194.149 149.144 193.881C149.408 193.746 149.806 193.876 149.94 194.14C152.114 197.887 156.485 204.903 160.118 208.905C160.359 209.247 160.623 209.113 160.701 209.006C160.78 208.9 161.151 208.844 161.095 208.474C161.751 204.017 161.129 198.616 160.674 194.326C160.479 193.029 160.39 191.811 160.302 190.593C160.515 190.75 160.487 190.565 160.566 190.458Z" fill="black"/>
<path d="M130.065 204.991C129.907 205.204 129.537 205.26 129.245 205.209C126.826 204.246 125.223 202.403 124.736 201.055C124.143 199.628 124.263 197.905 125.18 196.441C128.61 190.904 132.315 186.558 135.339 183.356C134.992 182.934 134.537 182.434 134.083 181.934C131.303 178.563 128.096 174.876 125.519 170.337C124.472 168.411 124.429 166.238 125.795 164.612C126.976 163.013 128.959 162.336 131.029 162.877C136.95 164.451 142.505 166.742 146.36 168.436C148.582 164.313 152.254 159.119 155.88 154.879C157.246 153.253 159.335 152.654 161.327 153.302C161.434 153.381 163.852 154.344 165.108 155.766C165.349 156.108 165.298 156.4 165.062 156.72C164.719 156.961 164.427 156.91 164.107 156.674C163.065 155.41 160.859 154.604 160.859 154.604C159.771 154.294 158.075 154.36 156.867 155.773C153.162 160.119 149.411 165.42 147.296 169.622C147.06 169.942 146.796 170.076 146.397 169.946C142.543 168.252 136.853 165.697 130.747 164.151C129.181 163.818 127.727 164.226 126.861 165.399C125.995 166.571 125.875 168.294 126.733 169.586C129.31 174.125 132.303 177.654 135.19 181.105C135.751 181.684 136.233 182.369 136.794 182.948C136.928 183.212 136.984 183.582 136.826 183.796C133.802 186.997 130.019 191.45 126.509 197.094C125.829 198.238 125.625 199.405 126.163 200.461C126.515 201.545 127.878 203.046 130.004 203.958C130.403 204.087 130.458 204.458 130.329 204.856C130.143 204.884 130.065 204.991 130.065 204.991Z" fill="black"/>
<path d="M220.109 139.728C219.558 140.474 218.794 141.062 217.817 141.493C212.453 143.626 206.793 145.045 201.846 146.168C202.227 151.226 202.558 156.576 202.124 162.515C201.981 164.716 200.722 166.421 198.633 167.019C196.65 167.696 194.551 166.969 193.268 165.362C189.389 160.356 186.173 155.345 184.133 151.862C180.937 153.289 175.152 155.769 168.459 157.249C166.342 157.662 164.35 157.014 163.145 155.301C161.94 153.587 161.898 151.414 163.051 149.631C166.482 144.094 170.186 139.747 173.21 136.546C172.863 136.124 172.408 135.624 171.954 135.124C169.174 131.752 165.967 128.066 163.39 123.527C162.343 121.6 162.379 119.321 163.666 117.801C164.847 116.203 166.83 115.526 168.9 116.067C174.821 117.64 180.376 119.932 184.231 121.626C186.453 117.503 190.125 112.308 193.751 108.069C195.117 106.442 197.391 105.816 199.383 106.464C201.297 107.219 202.502 108.932 202.623 110.998C202.81 118.549 202.664 123.876 202.16 127.457C206.672 128.484 211.824 129.984 218.041 132.27C219.954 133.025 221.238 134.632 221.253 136.619C221.128 137.68 220.818 138.769 220.109 139.728ZM200.567 145.223C200.646 145.116 200.724 145.01 200.91 144.982C205.963 143.938 211.809 142.491 217.251 140.252C218.757 139.552 219.78 138.167 219.742 136.657C219.705 135.146 218.769 133.961 217.36 133.415C211.037 131.049 205.593 129.499 201.002 128.579C200.71 128.528 200.469 128.185 200.414 127.815C200.917 124.234 201.064 118.906 201.006 110.957C200.968 109.447 200.111 108.155 198.624 107.715C197.216 107.169 195.497 107.712 194.446 108.912C190.741 113.258 186.991 118.559 184.875 122.761C184.639 123.08 184.375 123.215 183.976 123.085C180.122 121.391 174.432 118.836 168.326 117.29C166.761 116.957 165.306 117.365 164.44 118.538C163.496 119.816 163.454 121.433 164.233 122.832C166.81 127.371 169.804 130.9 172.691 134.35C173.251 134.929 173.733 135.614 174.294 136.193C174.428 136.457 174.484 136.828 174.327 137.041C171.303 140.243 167.519 144.696 164.01 150.339C163.172 151.697 163.131 153.313 164.067 154.499C164.924 155.791 166.411 156.231 167.972 155.901C174.851 154.394 180.9 151.779 183.911 150.379C184.175 150.245 184.573 150.374 184.707 150.638C186.747 154.121 190.097 159.397 194.083 164.482C195.26 166.01 196.877 166.051 198.067 165.778C199.151 165.425 200.494 164.276 200.693 162.446C201.098 156.322 200.74 150.787 200.359 145.728C200.41 145.436 200.488 145.33 200.567 145.223Z" fill="black"/>
<path d="M215.907 137.613C215.749 137.827 215.592 138.04 215.328 138.174C211.581 140.348 205.601 141.531 200.89 142.334C199.778 142.501 198.588 142.775 197.661 142.914C197.8 143.84 197.861 144.873 197.921 145.906C198.377 150.196 198.92 155.703 198.292 160.345C198.218 161.114 197.639 161.675 196.926 161.972C196.212 162.268 195.416 162.009 194.961 161.509C191.328 157.508 187.227 151.019 184.919 147.008C184.576 147.249 184.127 147.411 183.677 147.574C179.796 149.483 173.96 152.255 169.115 152.794C168.374 152.905 167.655 152.54 167.28 151.933C166.905 151.326 166.793 150.585 167.159 149.867C169.719 144.84 173.947 139.562 177.101 135.962C176.512 135.198 175.738 134.462 175.043 133.619C172.105 130.46 168.657 126.431 166.771 122.073C166.474 121.359 166.655 120.669 167.048 120.136C167.442 119.604 168.155 119.307 168.924 119.381C174.071 120.218 180.877 123.268 184.838 125.041L184.945 125.12C187.037 121.395 191.626 114.737 195.599 110.919C196.178 110.358 196.919 110.246 197.637 110.612C198.356 110.978 198.731 111.585 198.842 112.326C199.043 118.075 198.378 124.996 197.801 129.346C202.392 130.266 209.721 132.385 215.062 134.519C215.781 134.885 216.235 135.385 216.267 136.233C216.272 136.895 216.143 137.294 215.907 137.613ZM196.382 141.969C196.461 141.863 196.54 141.756 196.725 141.728C197.837 141.561 199.213 141.26 200.588 140.958C205.299 140.155 211.094 139 214.683 137.039C214.947 136.905 214.998 136.613 214.97 136.428C215.049 136.321 214.915 136.057 214.595 135.821C209.253 133.687 201.447 131.545 196.856 130.624C196.564 130.573 196.323 130.231 196.268 129.86C196.952 125.589 197.668 118.376 197.439 112.442C197.383 112.071 197.17 111.914 197.063 111.835C196.957 111.757 196.665 111.706 196.508 111.919C192.455 115.844 187.709 122.715 185.881 126.306C185.644 126.625 185.38 126.76 184.982 126.63L184.264 126.264C180.303 124.491 173.682 121.413 168.642 120.655C168.35 120.604 168.086 120.738 168.007 120.845C167.928 120.951 167.771 121.165 167.905 121.429C169.713 125.894 173.24 129.816 176.071 132.896C176.979 133.896 177.781 134.818 178.476 135.661C178.611 135.925 178.666 136.295 178.509 136.508C175.328 139.923 170.942 145.414 168.303 150.548C168.146 150.761 168.28 151.025 168.308 151.21C168.415 151.289 168.549 151.553 168.92 151.497C173.58 150.986 179.309 148.135 183.112 146.332C183.825 146.036 184.353 145.767 184.881 145.498C185.145 145.363 185.544 145.493 185.678 145.757C187.852 149.504 192.222 156.521 195.855 160.522C196.096 160.865 196.36 160.73 196.439 160.624C196.518 160.517 196.888 160.462 196.833 160.091C197.489 155.634 196.867 150.233 196.411 145.944C196.216 144.647 196.128 143.428 196.04 142.21C196.253 142.368 196.225 142.182 196.382 141.969Z" fill="black"/>
<path d="M165.803 156.607C165.646 156.821 165.275 156.876 164.984 156.825C162.565 155.863 160.962 154.019 160.475 152.672C159.882 151.245 160.002 149.522 160.918 148.058C164.349 142.521 168.054 138.174 171.078 134.973C170.73 134.551 170.276 134.051 169.822 133.551C167.042 130.179 163.835 126.493 161.258 121.954C160.21 120.027 160.353 117.827 161.534 116.228C162.715 114.63 164.697 113.953 166.768 114.494C172.689 116.067 178.244 118.359 182.098 120.053C184.321 115.929 187.993 110.735 191.618 106.496C192.985 104.869 195.074 104.271 197.066 104.919C197.172 104.998 199.591 105.961 200.846 107.382C201.087 107.725 201.037 108.017 200.8 108.337C200.458 108.578 200.166 108.527 199.846 108.291C198.803 107.026 196.598 106.221 196.598 106.221C195.51 105.911 193.814 105.976 192.605 107.389C188.901 111.736 185.15 117.036 183.035 121.239C182.798 121.558 182.534 121.693 182.136 121.563C178.281 119.869 172.592 117.313 166.486 115.768C164.92 115.435 163.466 115.843 162.6 117.015C161.734 118.188 161.614 119.911 162.471 121.203C165.048 125.742 168.042 129.271 170.929 132.721C171.49 133.3 171.972 133.986 172.532 134.564C172.667 134.828 172.722 135.199 172.565 135.412C169.541 138.614 165.758 143.067 162.248 148.71C161.567 149.855 161.364 151.022 161.902 152.078C162.254 153.162 163.616 154.662 165.743 155.574C166.141 155.704 166.197 156.075 166.067 156.473C165.882 156.501 165.882 156.501 165.803 156.607Z" fill="black"/>
<path d="M174.551 178.882C174.472 178.988 174.394 179.095 174.208 179.123C173.838 179.178 173.439 179.049 173.384 178.678C170.884 170.243 175.455 164.725 175.927 164.085C176.293 163.367 180.252 157.562 188.835 157.314C189.206 157.258 189.447 157.601 189.503 157.971C189.558 158.342 189.216 158.583 188.845 158.638C180.711 158.724 177.071 164.766 177.071 164.766C176.835 165.086 172.209 170.234 174.732 178.191C174.681 178.483 174.63 178.775 174.551 178.882Z" fill="black"/>
<path d="M169.507 177.462C169.428 177.569 169.349 177.675 169.164 177.703C168.793 177.759 168.395 177.629 168.339 177.259C165.488 167.74 170.688 161.369 171.267 160.808C171.711 159.984 176.115 153.353 185.944 153.202C186.315 153.146 186.556 153.489 186.612 153.86C186.667 154.23 186.325 154.471 185.954 154.527C176.601 154.701 172.411 161.489 172.332 161.595L172.254 161.702C172.175 161.809 166.84 167.916 169.53 176.985C169.743 177.143 169.664 177.249 169.507 177.462Z" fill="black"/>
<path d="M190.88 175.953C188.282 179.47 184.493 179.471 184.307 179.499C183.937 179.555 183.696 179.212 183.64 178.842C183.584 178.471 183.927 178.23 184.298 178.174C184.483 178.146 187.61 178.15 189.814 175.166C192.018 172.182 191.095 169.195 191.067 169.009C191.012 168.639 191.141 168.24 191.512 168.185C191.882 168.129 192.281 168.259 192.337 168.629C192.443 168.708 193.556 172.33 190.88 175.953Z" fill="black"/>
<path d="M132.416 182.183C132.337 182.29 132.259 182.396 132.073 182.424C131.809 182.559 131.596 182.401 131.462 182.137C130.016 180.081 129.58 178.441 129.774 175.949C129.825 175.657 130.061 175.337 130.538 175.36C130.83 175.411 131.15 175.647 131.127 176.125C130.979 177.663 131.174 178.96 131.818 180.094C131.948 179.696 132.077 179.297 132.285 178.792C132.415 178.394 132.786 178.338 133.078 178.389C133.476 178.519 133.532 178.889 133.481 179.181C133.143 180.085 132.912 181.067 132.759 181.942C132.495 182.077 132.416 182.183 132.416 182.183Z" fill="black"/>
<path d="M148.229 159.439L148.15 159.545C145.57 161.922 143.097 164.378 140.916 166.885C140.68 167.205 140.203 167.182 139.99 167.024C139.67 166.788 139.693 166.311 139.851 166.098C141.796 163.911 144.005 161.589 146.241 159.453C143.003 158.708 140.386 159.575 137.7 161.874C136.778 162.676 135.885 163.663 135.125 164.914C134.889 165.233 134.519 165.289 134.199 165.053C133.879 164.817 133.823 164.446 134.06 164.126C135.004 162.848 135.87 161.675 136.792 160.874C140.214 157.801 143.521 157.115 147.798 158.461C148.089 158.512 148.224 158.776 148.252 158.962C148.28 159.147 148.307 159.332 148.229 159.439Z" fill="black"/>
<path d="M149.966 157.755C149.73 158.075 149.359 158.13 149.039 157.894C147.469 156.899 145.954 156.274 144.494 156.02C144.203 155.969 143.962 155.626 143.906 155.255C143.957 154.964 144.299 154.723 144.67 154.667C146.236 155 147.936 155.597 149.613 156.671C150.04 156.986 150.095 157.357 149.966 157.755Z" fill="black"/>
<path d="M180.199 117.497C180.12 117.603 180.12 117.603 179.935 117.631C179.143 118.034 178.457 118.516 177.508 119.133C177.165 119.374 176.767 119.244 176.632 118.98C176.391 118.638 176.521 118.239 176.785 118.105C177.128 117.864 177.549 117.516 177.892 117.275C176.539 117.1 175.321 117.188 173.894 117.781C173.63 117.916 173.125 117.707 172.991 117.443C172.856 117.179 173.065 116.674 173.329 116.54C175.654 115.622 177.349 115.557 179.74 116.334C180.032 116.385 180.166 116.649 180.194 116.834C180.25 117.205 180.278 117.39 180.199 117.497Z" fill="black"/>
<path d="M163.265 139.084C163.186 139.191 162.922 139.325 162.737 139.353C162.551 139.381 162.338 139.224 162.125 139.066C159.502 135.482 159.265 132.012 161.195 127.838C161.769 126.615 162.529 125.364 163.501 124.27C163.737 123.95 164.108 123.895 164.428 124.131C164.747 124.367 164.803 124.737 164.567 125.057C163.701 126.229 162.914 127.295 162.418 128.412C160.826 131.683 160.952 134.411 162.616 137.287C163.893 134.443 165.463 131.649 167.088 129.226C167.324 128.906 167.695 128.85 168.015 129.086C168.334 129.322 168.39 129.693 168.154 130.013C166.399 132.834 164.672 135.841 163.265 139.084C163.343 138.978 163.265 139.084 163.265 139.084Z" fill="black"/>
<path d="M162.167 141.238C161.931 141.558 161.454 141.535 161.241 141.378C159.721 140.09 158.572 138.747 157.872 137.242C157.737 136.978 157.76 136.501 158.21 136.339C158.659 136.176 158.951 136.227 159.113 136.676C159.785 137.996 160.828 139.261 162.241 140.469C162.348 140.548 162.325 141.025 162.167 141.238Z" fill="black"/>
<path d="M207.98 188.258C203.1 194.866 194.374 201.104 188.324 199.929C186.758 199.596 184.817 198.656 183.876 196.808C183.338 195.752 183.166 193.978 184.527 191.689C186.125 189.08 187.917 187.769 189.867 186.244C191.923 184.798 194.137 183.139 196.656 179.729C196.892 179.409 197.263 179.354 197.582 179.59C197.902 179.826 197.958 180.197 197.722 180.516C195.124 184.033 192.725 185.72 190.59 187.272C188.719 188.69 187.005 189.895 185.644 192.184C184.727 193.648 184.63 194.894 185.089 196.057C185.683 197.484 187.304 198.187 188.472 198.391C194.017 199.357 202.214 193.388 206.78 187.207C207.016 186.888 207.387 186.832 207.706 187.068C208.026 187.304 208.216 187.939 207.98 188.258Z" fill="black"/>
<path d="M207.98 188.258C207.744 188.578 207.373 188.634 207.054 188.398C206.734 188.161 206.678 187.791 206.914 187.471C211.48 181.29 214.854 171.594 212.222 166.684C211.684 165.628 210.535 164.285 208.997 164.137C207.75 164.04 206.588 164.499 205.458 165.806C203.592 167.887 203.023 169.772 202.217 171.977C201.361 174.474 200.454 177.263 197.856 180.78C197.62 181.1 197.249 181.156 196.93 180.919C196.61 180.683 196.554 180.313 196.79 179.993C199.309 176.583 200.244 173.979 201.022 171.589C201.721 169.305 202.526 167.099 204.656 164.884C206.444 162.91 208.218 162.739 209.358 162.757C211.479 163.006 212.948 164.585 213.648 166.091C216.364 171.556 212.939 181.545 207.98 188.258Z" fill="black"/>
<path d="M186.324 197.954C189.418 197.11 192.16 195.182 194.717 193.282C194.795 193.176 194.981 193.148 195.008 193.333C195.115 193.412 195.036 193.518 194.957 193.625C193.8 194.746 192.535 195.789 191.165 196.753C189.794 197.717 188.316 198.602 186.704 199.223C186.334 199.279 185.935 199.149 185.88 198.779C185.824 198.408 186.06 198.089 186.324 197.954Z" fill="black"/>
<path d="M212.052 164.908C211.812 168.355 210.562 171.385 209.127 174.442C209.049 174.549 208.97 174.656 208.863 174.577C208.757 174.498 208.65 174.419 208.729 174.313C209.354 172.798 209.872 171.204 210.205 169.638C210.538 168.072 210.765 166.428 210.727 164.918C210.695 164.07 212.205 164.033 212.052 164.908Z" fill="black"/>
<path d="M212.408 191.855C210.676 194.199 208.564 195.275 208.379 195.302C208.115 195.437 207.717 195.307 207.476 194.964C207.235 194.622 207.471 194.302 207.814 194.061C207.814 194.061 212.223 191.882 213.166 186.814C213.217 186.523 213.56 186.282 213.931 186.226C214.222 186.277 214.463 186.619 214.519 186.99C214.163 189.033 213.353 190.576 212.408 191.855Z" fill="black"/>
<path d="M221.358 198.466C207.268 217.542 182.268 219.5 164.866 213.399C164.468 213.27 164.412 212.899 164.463 212.607C164.593 212.209 164.963 212.153 165.255 212.204C182.179 218.281 206.517 216.328 220.214 197.785C220.45 197.466 220.821 197.41 221.141 197.646C221.46 197.882 221.595 198.146 221.358 198.466Z" fill="black"/>
<path d="M154.895 208.836C154.738 209.05 154.289 209.212 154.075 209.054C146.148 204.846 142.289 202.489 142.289 202.489C141.969 202.253 141.913 201.883 142.071 201.669C142.307 201.35 142.677 201.294 142.891 201.451C142.891 201.451 146.75 203.808 154.677 208.017C155.048 207.961 155.104 208.331 154.895 208.836C154.974 208.73 154.974 208.73 154.895 208.836Z" fill="black"/>
<path d="M159.015 214.187C151.537 224.311 139.132 223.712 130.139 218.717C122.503 214.559 116.349 206.39 119.705 197.832C119.834 197.434 120.205 197.378 120.603 197.508C121.002 197.638 121.057 198.008 120.928 198.407C117.752 206.273 123.61 213.73 130.74 217.679C139.307 222.36 150.944 222.884 157.871 213.506C158.107 213.187 158.478 213.131 158.798 213.367C159.196 213.497 159.173 213.974 159.015 214.187Z" fill="black"/>
<path d="M130.279 205.147C130.2 205.253 130.122 205.36 129.936 205.388C129.302 205.578 128.695 205.953 128.009 206.435C127.667 206.676 127.375 206.625 127.055 206.389C126.814 206.046 126.944 205.648 127.101 205.435C127.865 204.846 128.657 204.443 129.371 204.146C129.741 204.091 130.14 204.22 130.195 204.591C130.594 204.72 130.436 204.933 130.279 205.147Z" fill="black"/>
<path d="M150.924 216.444C150.767 216.657 150.582 216.685 150.396 216.713C150.026 216.769 149.785 216.426 149.729 216.055C149.729 216.055 149.812 212.822 147.787 211.326C145.499 213.754 142.034 214.654 139.111 213.483C136.002 212.34 134.047 209.413 133.832 205.466C133.726 205.387 133.434 205.336 133.327 205.258C132.929 205.128 132.794 204.864 132.924 204.466C133.054 204.067 133.318 203.933 133.716 204.062C134.114 204.192 134.406 204.243 134.805 204.372C135.018 204.53 135.231 204.687 135.18 204.979C135.153 208.583 136.868 211.168 139.578 212.181C142.182 213.116 145.276 212.272 147.193 209.9C147.351 209.687 147.721 209.631 148.013 209.682C151.391 211.353 151.184 215.647 151.133 215.939C150.975 216.152 151.003 216.338 150.924 216.444Z" fill="black"/>
<path d="M221.357 198.469C221.121 198.788 220.75 198.844 220.431 198.608C220.111 198.372 220.055 198.001 220.291 197.682C233.988 179.139 228.7 155.302 217.916 140.912C217.675 140.57 217.805 140.171 218.069 140.037C218.412 139.796 218.81 139.925 218.944 140.189C230.048 154.815 235.448 179.393 221.357 198.469Z" fill="black"/>
<path d="M210.291 130.499C210.055 130.819 209.578 130.796 209.258 130.559C204.027 125.377 201.279 122.854 201.279 122.854C200.959 122.617 200.982 122.14 201.246 122.006C201.482 121.686 201.959 121.709 202.094 121.973C202.094 121.973 204.842 124.497 210.073 129.679C210.472 129.809 210.527 130.179 210.291 130.499Z" fill="black"/>
<path d="M187.907 113.306C187.67 113.626 187.3 113.682 186.98 113.445C177.412 105.884 169.85 100.957 163.684 98.3787C159.936 96.7632 155.619 97.0332 152.136 99.0725C148.653 101.112 146.347 104.679 145.899 108.631C145.03 116.719 143.76 127.805 134.919 136.429C137.5 137.841 138.946 139.897 139.095 142.148C139.299 144.77 137.651 147.671 134.803 149.52C134.275 149.789 133.612 149.793 133.265 149.372C132.838 149.057 132.727 148.316 132.935 147.811C136.148 141.454 133.335 137.235 133.201 136.971C133.094 136.892 133.173 136.786 133.066 136.707C133.038 136.522 133.089 136.23 133.353 136.096C142.514 127.708 143.784 116.622 144.653 108.534C145.124 104.105 147.666 100.218 151.491 97.9377C155.424 95.7362 160.005 95.3317 164.258 97.1556C170.531 99.8127 178.199 104.818 187.874 112.459C188.087 112.616 188.143 112.987 187.907 113.306ZM135.276 138.175C135.874 140.264 136.404 143.784 134.158 148.385C136.479 146.805 137.919 144.409 137.876 142.237C137.732 140.648 136.768 139.277 135.276 138.175Z" fill="black"/>
<path d="M191.633 108.483C191.554 108.59 191.475 108.697 191.29 108.724C191.026 108.859 190.628 108.729 190.387 108.387C189.2 105.533 189.977 103.143 190.394 102.133C161.493 74.3612 153.418 71.6907 138.071 71.0607C137.7 71.1164 137.459 70.7737 137.404 70.4031C137.348 70.0325 137.691 69.7915 138.061 69.7358C153.594 70.338 162.174 73.2167 191.635 101.567C191.848 101.725 191.904 102.095 191.747 102.308C191.668 102.415 190.335 104.889 191.628 107.821C191.841 107.978 191.79 108.27 191.633 108.483Z" fill="black"/>
<path d="M218.133 134.153C217.897 134.473 217.527 134.529 217.207 134.293C216.887 134.056 216.831 133.686 217.068 133.366C224.073 123.881 220.151 112.913 213.08 106.208C207.209 100.553 198.36 97.1465 191.775 102.494C191.432 102.735 191.14 102.684 190.82 102.448C190.579 102.105 190.63 101.814 190.866 101.494C198.138 95.6642 207.677 99.2514 213.895 105.327C221.392 112.348 225.533 124.136 218.133 134.153Z" fill="black"/>
<path d="M218.261 126.176C218.182 126.282 218.104 126.389 217.918 126.417C217.733 126.444 213.69 127.905 211.021 125.274C210.807 125.117 210.752 124.746 210.988 124.427C212.613 122.003 212.589 118.691 210.93 116.478C209.164 114.185 206.19 113.306 202.753 114.391C202.489 114.525 202.276 114.368 202.063 114.21C201.822 113.868 201.581 113.525 201.446 113.261C201.205 112.918 201.335 112.52 201.599 112.385C201.942 112.144 202.34 112.274 202.475 112.538C202.502 112.723 202.716 112.881 202.822 112.959C206.657 112.004 210.03 113.013 212.037 115.648C213.937 118.205 214.095 121.781 212.526 124.574C214.472 126.177 217.538 125.147 217.617 125.041C217.988 124.985 218.386 125.115 218.442 125.485C218.391 125.777 218.419 125.962 218.261 126.176Z" fill="black"/>
<path d="M130.232 191.608C129.996 191.928 129.626 191.983 129.306 191.747C106.88 176.17 98.826 165.444 103.613 156.956C103.692 156.85 103.849 156.637 104.035 156.609C104.035 156.609 110.2 155.398 114.752 151.019C114.91 150.806 115.387 150.829 115.6 150.986C115.813 151.144 115.976 151.593 115.818 151.806C115.818 151.806 114.012 154.92 112.179 157.848C111.943 158.168 111.92 158.645 112.161 158.987C112.189 159.173 112.536 159.594 113.092 159.511C123.529 158.984 130.863 147.271 133.222 136.495C133.352 136.097 133.616 135.963 134.093 135.986C134.491 136.115 134.626 136.379 134.603 136.856C132.114 148.03 124.386 160.276 113.287 160.808C112.439 160.84 111.615 160.396 111.133 159.71C110.729 158.918 110.669 157.885 111.141 157.246C111.664 156.315 112.373 155.356 112.817 154.531C109.283 156.862 105.74 157.868 104.735 158.114C102.017 163.354 102.742 171.961 130.227 190.945C130.306 190.839 130.468 191.288 130.232 191.608Z" fill="black"/>
<path d="M126.719 196.587C126.561 196.801 126.376 196.828 126.191 196.856C123.008 196.482 120.929 198.405 120.85 198.512C120.693 198.725 120.322 198.78 120.109 198.623C84.3504 178.798 79.0765 171.443 73.9348 156.774C73.8003 156.51 73.9578 156.297 74.1152 156.084C74.2727 155.871 74.5645 155.922 74.7498 155.894C74.8564 155.972 90.2326 160.577 103.929 156.529C104.3 156.473 104.698 156.603 104.754 156.973C104.81 157.344 104.68 157.742 104.31 157.798C92.4379 161.382 79.5127 158.588 75.5842 157.663C80.5867 171.406 86.0967 178.441 120.206 197.377C121.049 196.682 123.212 195.315 126.209 195.717C126.501 195.768 126.821 196.004 126.798 196.481C126.798 196.481 126.719 196.587 126.719 196.587Z" fill="black"/>
<path d="M144.062 71.2018C143.826 71.5215 143.455 71.5772 143.136 71.341C142.816 71.1049 142.76 70.7343 142.996 70.4146C144.492 68.3898 144.445 65.5548 142.758 63.1557C141.177 60.8354 138.036 58.8444 133.752 59.9621C133.381 60.0178 133.145 60.3375 133.094 60.6294C133.043 60.9212 133.099 61.2918 133.497 61.4214C136.347 63.3615 136.519 65.1356 136.315 66.3031C136.343 66.4884 136.186 66.7015 136 66.7293C135.815 66.7572 135.63 66.785 135.444 66.8129C121.208 62.2265 110.063 63.7122 91.6135 84.6747C89.4324 87.1815 86.8808 89.744 84.0651 92.4409L83.4862 93.0016C81.1707 95.2443 78.642 97.3297 75.6871 99.1001C71.0973 101.969 62.9785 107.831 59.6916 114.957C55.465 124.024 54.949 133.196 58.106 140.964C61.045 147.911 66.7537 153.116 74.7779 156.079C75.1763 156.208 75.232 156.579 75.1811 156.871C75.0515 157.269 74.6809 157.325 74.3891 157.274C66.073 154.261 60.0447 148.82 56.9434 141.423C53.5454 133.312 54.191 123.742 58.4685 114.383C61.8849 106.859 70.2678 100.862 75.0429 97.9654C77.8125 96.2228 80.4477 94.2162 82.578 92.0012L83.1568 91.4406C85.9725 88.7437 88.4455 86.2877 90.6266 83.781C109.154 62.7119 120.721 60.8786 135.036 65.3584C134.869 64.2467 133.776 63.2743 132.738 62.6724C132.098 62.2001 131.695 61.408 131.848 60.5325C132 59.6569 132.658 58.9896 133.478 58.7717C137.471 57.6031 141.668 59.0564 143.971 62.4049C145.714 65.1746 145.951 68.6441 144.062 71.2018Z" fill="black"/>
<path d="M201.994 224.684C201.915 224.79 201.837 224.897 201.651 224.925C196.783 225.941 190.599 228.291 190.599 228.291C190.335 228.425 189.83 228.217 189.696 227.953C189.562 227.689 189.77 227.184 190.034 227.05C190.034 227.05 196.296 224.593 201.271 223.655C201.642 223.6 201.961 223.836 202.017 224.206C202.151 224.47 202.073 224.577 201.994 224.684Z" fill="black"/>
<path d="M272.075 252.897C271.996 253.004 271.732 253.138 271.547 253.166C232.52 257.611 203.22 273.194 197.71 280.654C197.553 280.867 197.289 281.002 196.89 280.872C181.027 274.92 170.198 265.274 165.447 253.198C160.829 241.387 162.131 227.36 169.002 213.822C169.238 213.502 169.502 213.368 169.9 213.497C170.22 213.734 170.354 213.998 170.225 214.396C163.484 227.536 162.126 241.192 166.688 252.633C171.199 264.365 181.68 273.59 197.038 279.334C204.234 270.484 235.396 255.947 271.509 251.656C271.88 251.6 272.199 251.837 272.255 252.207C272.204 252.499 272.232 252.684 272.075 252.897Z" fill="black"/>
<path d="M195.135 294.399C194.978 294.612 194.714 294.746 194.422 294.695C194.13 294.644 193.889 294.302 193.833 293.931L196.488 280.08C196.539 279.788 196.882 279.547 197.252 279.491C197.623 279.435 197.785 279.885 197.841 280.255L195.186 294.107C195.214 294.292 195.214 294.292 195.135 294.399Z" fill="black"/>
<path d="M278.901 283.796L277.484 285.714C276.46 287.1 274.422 287.406 273.037 286.383L237.443 260.091C237.123 259.855 237.068 259.484 237.304 259.164C237.54 258.845 237.91 258.789 238.23 259.025L273.824 285.317C274.677 285.947 275.788 285.78 276.418 284.927L277.835 283.009C278.465 282.156 278.298 281.045 277.445 280.415L246.54 257.587C246.221 257.35 246.165 256.98 246.401 256.66C246.637 256.34 247.008 256.285 247.327 256.521L278.232 279.349C279.696 280.266 280.003 282.304 278.901 283.796Z" fill="black"/>
<path d="M284.821 289.16L284.584 289.48C283.955 290.332 282.843 290.5 281.99 289.87L276.449 285.776C276.129 285.54 276.073 285.17 276.31 284.85C276.546 284.53 276.916 284.475 277.236 284.711L282.778 288.804C282.991 288.962 283.361 288.906 283.519 288.693L283.755 288.373C283.912 288.16 283.857 287.789 283.644 287.632L278.102 283.538C277.782 283.302 277.727 282.932 277.963 282.612C278.199 282.292 278.569 282.237 278.889 282.473L284.431 286.566C285.283 287.196 285.45 288.308 284.821 289.16Z" fill="black"/>
<path d="M259.428 226.092C259.27 226.305 259.085 226.333 258.9 226.36L258.715 226.388C258.423 226.337 235.05 218.956 201.574 225.03C201.388 225.058 201.203 225.085 200.99 224.928L188.948 216.033C188.628 215.797 188.572 215.426 188.808 215.106C189.045 214.787 189.415 214.731 189.735 214.967L201.564 223.705C230.065 218.568 251.589 223.102 257.403 224.596C253.705 218.899 243.415 199.604 240.136 171.486L227.667 162.276C227.348 162.04 227.292 161.67 227.528 161.35C227.764 161.03 228.135 160.974 228.455 161.211L241.243 170.657C241.349 170.735 241.484 170.999 241.512 171.185C245.464 204.412 259.02 224.637 259.608 225.401C259.715 225.48 259.771 225.851 259.692 225.957C259.507 225.985 259.507 225.985 259.428 226.092Z" fill="black"/>
<path d="M241.274 171.507C241.195 171.613 240.931 171.748 240.746 171.775C240.375 171.831 240.056 171.595 240 171.224C239.433 166.194 239.941 159.486 239.941 159.486C239.992 159.194 240.228 158.874 240.705 158.897C240.997 158.948 241.316 159.184 241.293 159.662C241.293 159.662 240.865 166.263 241.325 171.215C241.431 171.293 241.353 171.4 241.274 171.507Z" fill="black"/>
<path d="M289.655 159.971C289.497 160.184 289.233 160.318 288.941 160.268C288.543 160.138 288.408 159.874 288.538 159.476C289.57 155.626 290.926 152.674 292.158 150.784C282.074 137.9 270.176 130.594 257.714 129.625C245.36 128.734 232.784 133.94 222.207 144.246L221.735 144.885C221.499 145.205 221.128 145.261 220.808 145.024C220.489 144.788 220.433 144.418 220.669 144.098L221.141 143.459C232.14 132.805 245.165 127.437 257.811 128.378C270.935 129.343 283.26 136.964 293.534 150.483C293.668 150.747 293.724 151.117 293.566 151.33C292.307 153.035 291.057 156.065 289.868 160.128C289.733 159.864 289.655 159.971 289.655 159.971Z" fill="black"/>
<path d="M305.022 144.966C304.943 145.073 304.943 145.073 304.864 145.179L293.276 151.279C293.012 151.413 292.535 151.39 292.372 150.941C292.238 150.677 292.261 150.2 292.71 150.038L304.299 143.938C304.563 143.803 305.04 143.826 305.202 144.276C305.23 144.461 305.179 144.753 305.022 144.966Z" fill="black"/>
<path d="M311.084 169.539C307.149 174.867 299.322 180.78 289.526 185.569C274.079 193.101 259.571 194.903 255.664 189.711C255.423 189.368 255.553 188.97 255.817 188.835C256.159 188.594 256.558 188.724 256.692 188.988C260.01 193.416 274.491 191.429 288.881 184.434C303.272 177.439 313.641 167.639 312.328 162.057C312.273 161.687 312.509 161.367 312.773 161.232C313.143 161.177 313.463 161.413 313.597 161.677C314.038 163.979 313.21 166.661 311.084 169.539Z" fill="black"/>
<path d="M314.001 188.334C314.001 188.334 313.923 188.44 314.001 188.334C309.449 192.713 303.095 197.078 295.939 200.522C288.176 204.342 280.297 206.758 273.756 207.362C273.386 207.417 273.066 207.181 273.01 206.811C272.955 206.44 273.191 206.12 273.561 206.065C279.81 205.41 287.504 203.022 295.188 199.309C302.237 195.786 308.541 191.712 312.908 187.361C313.144 187.042 313.621 187.065 313.862 187.407C314.288 187.722 314.159 188.121 314.001 188.334Z" fill="black"/>
<path d="M316.741 171.246C312.096 177.533 303.084 184.383 291.625 190.084C282.542 194.576 273.394 197.372 265.742 198.143C257.904 198.942 252.539 197.285 250.842 193.561C249.146 189.837 251.044 184.815 256.434 179.079C261.667 173.555 269.55 168.013 278.739 163.6C297.988 154.264 315.943 152.703 319.521 160.123C320.921 163.133 319.811 167.09 316.741 171.246ZM254.689 183.225C251.776 187.168 250.874 190.62 252.084 192.996C253.59 196.085 258.529 197.427 265.625 196.739C273.093 195.996 282.162 193.306 291.059 188.843C309.067 180.073 321.534 167.21 318.359 160.582C315.105 154.06 297.285 155.886 279.277 164.656C270.273 169.041 262.547 174.37 257.393 179.787C256.37 181.173 255.476 182.16 254.689 183.225Z" fill="black"/>
<path d="M313.639 163.85C313.403 164.17 313.033 164.226 312.713 163.989C307.76 160.66 294.739 162.902 281.59 169.331C268.968 175.491 258.78 184.601 258.054 190.489C258.003 190.781 257.661 191.022 257.29 191.078C256.998 191.027 256.757 190.684 256.702 190.314C257.529 183.842 267.768 174.44 281.024 168.089C294.887 161.364 308.2 159.173 313.579 162.817C313.713 163.081 313.769 163.452 313.639 163.85Z" fill="black"/>
<path d="M311.084 169.539C307.149 174.867 299.322 180.78 289.526 185.569C274.079 193.101 259.571 194.903 255.664 189.711C255.423 189.368 255.553 188.97 255.817 188.835C256.159 188.594 256.558 188.724 256.692 188.988C260.01 193.416 274.491 191.429 288.881 184.434C303.272 177.439 313.641 167.639 312.328 162.057C312.273 161.687 312.509 161.367 312.773 161.232C313.143 161.177 313.463 161.413 313.597 161.677C314.038 163.979 313.21 166.661 311.084 169.539Z" fill="black"/>
<path d="M314.001 188.334C314.001 188.334 313.923 188.44 314.001 188.334C309.449 192.713 303.095 197.078 295.939 200.522C288.176 204.342 280.297 206.758 273.756 207.362C273.386 207.417 273.066 207.181 273.01 206.811C272.955 206.44 273.191 206.12 273.561 206.065C279.81 205.41 287.504 203.022 295.188 199.309C302.237 195.786 308.541 191.712 312.908 187.361C313.144 187.042 313.621 187.065 313.862 187.407C314.288 187.722 314.159 188.121 314.001 188.334Z" fill="black"/>
<path d="M316.741 171.246C312.096 177.533 303.084 184.383 291.625 190.084C282.542 194.576 273.394 197.372 265.742 198.143C257.904 198.942 252.539 197.285 250.842 193.561C249.146 189.837 251.044 184.815 256.434 179.079C261.667 173.555 269.55 168.013 278.739 163.6C297.988 154.264 315.943 152.703 319.521 160.123C320.921 163.133 319.811 167.09 316.741 171.246ZM254.689 183.225C251.776 187.168 250.874 190.62 252.084 192.996C253.59 196.085 258.529 197.427 265.625 196.739C273.093 195.996 282.162 193.306 291.059 188.843C309.067 180.073 321.534 167.21 318.359 160.582C315.105 154.06 297.285 155.886 279.277 164.656C270.273 169.041 262.547 174.37 257.393 179.787C256.37 181.173 255.476 182.16 254.689 183.225Z" fill="black"/>
<path d="M313.639 163.85C313.403 164.17 313.033 164.226 312.713 163.989C307.76 160.66 294.739 162.902 281.59 169.331C268.968 175.491 258.78 184.601 258.054 190.489C258.003 190.781 257.661 191.022 257.29 191.078C256.998 191.027 256.757 190.684 256.702 190.314C257.529 183.842 267.768 174.44 281.024 168.089C294.887 161.364 308.2 159.173 313.579 162.817C313.713 163.081 313.769 163.452 313.639 163.85Z" fill="black"/>
<path d="M319.739 255.491C319.66 255.597 319.581 255.704 319.396 255.732C310.067 259.218 303.401 257.094 300.236 255.58C299.12 255.085 298.239 254.27 297.623 253.32L266.044 207.098L256.489 197.735C256.169 197.498 256.193 197.021 256.535 196.78C256.771 196.461 257.249 196.484 257.49 196.826L267.151 206.269L298.758 252.676C299.346 253.44 300.014 254.098 300.838 254.542C303.817 256.084 310.164 257.972 318.965 254.754C319.335 254.699 319.734 254.828 319.79 255.199C319.975 255.171 319.896 255.278 319.739 255.491Z" fill="black"/>
<path d="M322.284 186.709C322.205 186.815 322.126 186.922 321.941 186.95C321.57 187.005 321.172 186.876 321.116 186.505L319.326 180.901L317.849 167.291C317.793 166.921 318.03 166.601 318.4 166.545C318.771 166.489 319.09 166.726 319.146 167.096L320.596 180.52L322.279 186.046C322.413 186.31 322.362 186.602 322.284 186.709Z" fill="black"/>
<path d="M330.221 202.946C323.924 211.472 315.017 214.611 308.726 213.093C306.868 212.709 305.219 211.82 304.069 210.477C302.6 208.898 302.002 206.809 302.437 204.66C302.95 202.403 304.553 200.457 306.693 199.567C310.444 198.056 317.174 194.297 321.141 186.027C322.424 183.845 322.41 181.858 322.41 181.858C322.354 181.487 322.697 181.246 323.067 181.19C323.438 181.135 323.679 181.477 323.734 181.848C323.656 181.954 323.698 184.127 322.179 186.629C318.082 195.297 310.903 199.219 307.073 200.836C305.276 201.485 304.016 203.191 303.632 205.048C303.327 206.799 303.763 208.439 304.991 209.676C306.006 210.755 307.442 211.486 309.008 211.819C315.484 213.309 325.049 209.503 330.989 199.231C331.225 198.911 331.596 198.856 331.888 198.906C332.208 199.143 332.263 199.513 332.212 199.805C331.532 200.949 330.851 202.094 330.221 202.946Z" fill="black"/>
<path d="M336.369 221.16C327.946 232.563 311.178 236.978 302.325 232.909C301.315 232.492 300.462 231.862 299.61 231.233C296.918 229.08 295.939 225.721 296.869 222.455C297.878 219.083 300.564 216.784 303.899 216.283C308.638 215.665 315.225 214.107 320.018 210.07C320.361 209.829 320.653 209.88 320.972 210.117C321.213 210.459 321.163 210.751 320.926 211.071C315.976 215.32 309.018 216.934 304.094 217.58C301.208 217.919 298.865 219.976 298.143 222.737C297.421 225.499 298.238 228.407 300.397 230.167C301.143 230.718 301.889 231.269 302.899 231.686C311.646 235.676 328.465 230.969 336.142 219.015C336.378 218.696 336.748 218.64 337.068 218.876C337.388 219.112 337.443 219.483 337.207 219.803C336.999 220.308 336.684 220.734 336.369 221.16Z" fill="black"/>
<path d="M327.375 245.153C327.297 245.259 327.218 245.366 327.111 245.287C321.646 248.003 314.618 247.26 310.856 243.657C308.187 241.026 307.63 237.321 309.403 233.359C309.532 232.961 309.903 232.905 310.301 233.035C310.7 233.164 310.755 233.535 310.626 233.933C309.061 237.39 309.428 240.461 311.75 242.67C315.086 245.958 321.423 246.521 326.467 244.152C326.731 244.018 327.129 244.147 327.37 244.49C327.505 244.754 327.533 244.939 327.375 245.153Z" fill="black"/>
<path d="M348.472 216.594C348.393 216.7 348.129 216.835 347.944 216.863C347.573 216.918 347.254 216.682 347.198 216.312C343.924 188.857 334.543 174.351 318.654 172.002C318.362 171.951 318.121 171.609 318.065 171.238C318.116 170.946 318.459 170.705 318.829 170.65C335.409 173.179 345.137 188.106 348.495 216.117C348.629 216.381 348.551 216.487 348.472 216.594Z" fill="black"/>
<path d="M341.361 171.809C341.283 171.916 341.019 172.05 340.833 172.078C340.727 171.999 331.958 172.275 329.383 175.315C329.147 175.635 328.67 175.612 328.457 175.454C328.137 175.218 328.16 174.741 328.317 174.528C331.314 171.141 340.374 170.915 340.745 170.86C341.116 170.804 341.357 171.147 341.412 171.517C341.412 171.517 341.44 171.703 341.361 171.809Z" fill="black"/>
<path d="M147.146 196.36C147.067 196.467 146.91 196.68 146.724 196.708C146.354 196.764 146.034 196.527 145.978 196.157L142.543 172.042C142.487 171.671 142.724 171.351 143.094 171.296C143.465 171.24 143.784 171.476 143.84 171.847L147.275 195.962C147.275 195.962 147.303 196.147 147.146 196.36Z" fill="black"/>
<path d="M159.376 194.519C159.298 194.626 159.14 194.839 158.955 194.867C158.584 194.923 158.265 194.687 158.209 194.316L154.774 170.201C154.718 169.83 154.954 169.511 155.325 169.455C155.695 169.399 156.015 169.635 156.071 170.006L159.506 194.121C159.534 194.306 159.455 194.413 159.376 194.519Z" fill="black"/>
<path d="M182.486 147.848C182.407 147.954 182.25 148.167 182.064 148.195C181.694 148.251 181.374 148.015 181.318 147.644L177.883 123.529C177.827 123.158 178.063 122.839 178.434 122.783C178.805 122.727 179.124 122.963 179.18 123.334L182.615 147.449C182.722 147.528 182.643 147.634 182.486 147.848Z" fill="black"/>
<path d="M195.554 148.441C195.475 148.548 195.318 148.761 195.133 148.789C194.762 148.845 194.442 148.608 194.387 148.238L190.951 124.123C190.896 123.752 191.132 123.432 191.502 123.377C191.873 123.321 192.193 123.557 192.248 123.928L195.684 148.043C195.79 148.122 195.711 148.228 195.554 148.441Z" fill="black"/>
<path d="M361.46 199.008L263.062 332.219C259.599 336.908 252.929 337.911 248.24 334.447L9.3126 157.961C4.62358 154.497 3.62097 147.827 7.08458 143.138L105.483 9.92679C108.946 5.23777 115.616 4.23516 120.305 7.69877L359.339 184.264C364.028 187.728 364.924 194.319 361.46 199.008ZM8.15026 143.925C5.08025 148.081 5.94361 153.825 10.0998 156.895L249.133 333.46C253.289 336.53 259.033 335.667 262.103 331.511L360.501 198.3C363.571 194.144 362.708 188.4 358.552 185.33L119.518 8.76445C115.362 5.69444 109.618 6.5578 106.548 10.714L8.15026 143.925Z" fill="black"/>
</g>
<defs>
<clipPath id="clip0_365_7320">
<rect width="189.46" height="319.3" fill="white" transform="translate(0 152.729) rotate(-53.5481)"/>
</clipPath>
</defs>
</svg>
