<svg width="344" height="234" viewBox="0 0 344 234" fill="none" xmlns="http://www.w3.org/2000/svg">
<g clip-path="url(#clip0_365_7089)">
<path d="M340.319 58.8367L315.602 222.594C314.791 227.965 309.665 231.747 304.294 230.936L10.5793 186.603C5.20809 185.792 1.42622 180.666 2.23694 175.295L26.9542 11.5378C27.7649 6.16654 32.8914 2.38466 38.2626 3.19538L332.108 47.548C337.479 48.3587 341.15 53.3344 340.319 58.8367Z" fill="#ED6D3A"/>
<path d="M311.509 171.596C311.509 171.596 311.034 174.74 311.373 176.935C318.282 179.987 321.824 182.264 321.824 182.264L315.733 222.614C314.923 227.985 309.796 231.767 304.425 230.956L236.171 220.654C235.956 219.416 235.852 218.328 235.8 217.784C235.449 214.783 234.779 209.457 234.038 203.717C233.514 203.638 233.029 203.297 232.977 202.753C231.423 197.963 232.004 193.227 232.471 191.019C232.589 190.233 233.323 189.808 234.109 189.927L235.289 190.105C240.791 190.935 246.674 191.019 252.806 190.337C257.794 194.574 269.802 194.912 281.677 183.708C283.073 182.445 284.208 181.142 285.323 179.97C290.894 176.792 296.001 173.141 300.551 168.736C304.266 168.091 307.344 169.895 311.509 171.596Z" fill="#BC5B86"/>
<path d="M172.276 163.712C163.452 170.687 152.601 173.337 142.761 173.728C142.845 174.946 143.06 176.185 143.576 177.2C148.676 188.689 177.692 187.307 177.19 163.113C175.539 163.4 173.908 163.556 172.276 163.712ZM174.479 169.538C174.321 170.586 173.416 171.253 172.368 171.095C171.32 170.937 170.652 170.032 170.811 168.984C170.969 167.936 171.873 167.269 172.922 167.427C173.95 167.716 174.617 168.621 174.479 169.538Z" fill="#F8B682"/>
<path d="M166.642 49.2372C164.821 49.7661 163.313 50.8785 162.008 52.4233C171.529 56.8083 180.917 63.8529 185.868 72.7736C187.754 73.5942 189.509 74.395 191.133 75.1761C198.348 58.4445 178.104 45.2056 166.642 49.2372ZM189.882 67.4839C189.724 68.5319 188.82 69.1993 187.771 69.0411C186.723 68.8829 186.056 67.9783 186.214 66.9302C186.372 65.8822 187.277 65.2148 188.325 65.373C189.373 65.5312 190.041 66.4358 189.882 67.4839Z" fill="#F8B682"/>
<path d="M183.886 77.03C173.107 65.8897 162.32 62.7876 147.469 61.752C144.765 67.2394 131.726 76.3926 107.953 75.8859C129.148 87.2586 133.351 105.58 129.2 116.208C128.59 117.59 126.566 117.686 125.826 116.369C122.91 110.837 115.502 102.216 106.823 100.236C123.048 117.022 128.407 138.331 129.829 159.984C144.694 166.247 161.675 165.595 173.71 157.764C174.766 156.985 176.049 158.251 175.478 159.371C174.605 160.713 173.562 162.297 172.277 163.711C173.908 163.555 175.54 163.4 177.191 163.113C181.188 162.376 184.982 161.207 188.534 159.867C194.963 157.22 200.482 153.498 205.124 149.375C208.842 146.05 211.924 142.496 214.352 138.842L209.865 137.495L188.835 131.239L158.832 122.289L158.682 122.4C158.039 123.107 157.063 123.362 156.034 123.072L151.044 121.515C147.405 124.316 142.41 121.016 146.241 108.061L146.281 107.799C148.495 100.228 151.518 97.0666 153.884 96.4857C152.813 92.0365 153.362 86.6257 155.693 80.948C159.974 70.339 175.092 73.1568 174.439 91.6829C174.239 95.6724 173.653 98.6658 172.642 100.925C172.012 102.438 171.028 103.629 169.822 104.519L194.572 111.872L215.471 118.109L220.593 119.686C220.291 112.807 217.738 103.98 212.688 95.7142C209.784 90.9882 206.054 86.4055 201.57 82.3789C198.5 79.6377 194.977 77.2302 191.134 75.1761C189.53 74.2641 187.644 73.4434 185.869 72.7736C186.274 73.6387 186.509 74.7461 186.613 75.8337C186.932 78.1596 185.654 78.6367 183.886 77.03ZM135.657 148.001C133.731 147.442 130.582 145.225 129.529 136.223C129.831 128.899 132.688 127.722 139.758 127.047C139.758 127.047 136.235 131.741 137.054 146.738C137.197 147.563 136.423 148.25 135.657 148.001ZM167.877 132.497C168.176 134.954 167.852 137.987 166.866 141.858C162.021 159.751 146.746 157.982 145.786 146.582C144.951 136.138 148.634 127.717 155.718 125.168C161.242 123.189 167.135 126.758 167.877 132.497ZM147.395 78.2216C142.187 92.3084 144.167 97.8329 144.167 97.8329C137.481 95.0818 135.229 93.134 137.103 86.0474C140.635 77.7372 144.298 76.5482 146.434 76.6026C147.239 76.5902 147.776 77.4751 147.395 78.2216Z" fill="#F8B682"/>
<path d="M169.692 104.501L194.573 111.874C200.715 114.677 197.05 118.546 203.251 120.956C210.064 121.984 209.112 116.749 215.472 118.11L220.594 119.687C220.618 121.299 220.512 122.891 220.295 124.332C219.662 128.524 217.561 133.567 214.11 138.673L209.624 137.326C203.35 134.504 207.147 130.655 200.945 128.245C194.133 127.217 195.085 132.452 188.594 131.07L158.591 122.12C160.991 119.534 164.555 111.899 164.751 106.167C166.644 106.051 168.335 105.502 169.692 104.501Z" fill="white"/>
<path d="M292.503 172.345C290.241 174.013 288.083 176.769 285.211 179.819C290.782 176.641 295.889 172.99 300.44 168.585C298.245 168.924 295.669 170.009 292.503 172.345Z" fill="#BCCF00"/>
<path d="M204.994 149.356C221.894 151.906 231.49 154.025 235.012 163.534C232.854 166.29 232.825 170.037 236.582 173.552C236.611 176.906 236.411 180.896 235.87 185.37C223.066 195.63 211.797 182.406 209.182 176.652C209.399 182.312 206.436 185.08 203.951 186.447C202.785 187.075 201.331 186.052 201.529 184.742C201.964 181.86 200.911 179.959 200.911 179.959L202.09 180.137C203.007 180.275 203.761 179.719 203.9 178.802L205.046 171.204C205.165 170.418 204.891 169.572 204.446 168.969L202.424 166.386C201.868 165.632 200.99 165.232 200.073 165.094L194.571 164.263C192.504 160.199 188.705 159.626 188.443 159.586C194.833 157.201 200.352 153.479 204.994 149.356Z" fill="#A05E1E"/>
<path d="M263.724 37.2256L332.109 47.5475C337.48 48.3582 341.282 53.3537 340.451 58.856L329.437 131.826L325.141 137.207L317.034 134.108C317.034 134.108 317.034 134.108 316.903 134.088C318.143 109.889 301.392 88.6018 281.533 76.3591C272.583 70.8544 262.963 67.1245 254.054 65.7799L252.875 65.6019C252.089 65.4833 251.644 64.8802 251.632 64.0744C251.837 61.8275 252.66 57.2621 255.56 53.144C255.881 52.7906 256.333 52.4569 256.857 52.536C260.37 44.3568 263.724 37.2256 263.724 37.2256Z" fill="#BC5B86"/>
<path d="M281.532 76.3608C301.522 88.6233 318.142 109.891 316.902 134.09C313.11 132.579 309.659 130.585 306.569 127.974C302.288 124.38 294.013 118.844 280.979 115.536C279.82 115.227 278.509 115.03 277.33 114.852C277.442 115.002 279.96 97.428 281.532 76.3608Z" fill="#BCCF00"/>
<path d="M264.085 178.641C261.705 181.096 257.747 181.57 254.937 181.548C251.864 181.486 249.536 184.485 250.562 187.453C250.928 188.581 251.726 189.505 252.675 190.318C246.543 191 240.66 190.916 235.157 190.086C235.395 188.514 235.632 186.942 235.85 185.501C236.411 180.896 236.722 177.057 236.561 173.683C241.156 177.86 252.841 181.232 264.085 178.641Z" fill="#F8B682"/>
<path d="M329.306 131.806L321.693 182.243C321.693 182.243 318.151 179.967 311.242 176.914C310.884 174.85 311.378 171.575 311.378 171.575C312.908 153.449 325.01 137.187 325.01 137.187L329.306 131.806Z" fill="#BC5B86"/>
<path d="M281.111 115.555C294.014 118.843 302.289 124.38 306.701 127.993C309.791 130.603 313.242 132.598 317.034 134.108C317.034 134.108 317.033 134.108 317.165 134.128L325.272 137.228C325.272 137.228 313.281 153.641 311.64 171.616C307.495 169.784 304.398 168.111 300.702 168.625C298.377 168.944 295.932 170.049 292.766 172.384C290.504 174.053 288.346 176.809 285.474 179.859C284.359 181.031 283.224 182.333 281.828 183.597C269.953 194.801 257.945 194.463 252.957 190.226C252.008 189.413 251.21 188.488 250.844 187.361C249.798 184.524 252.127 181.525 255.219 181.456C258.029 181.478 261.987 181.004 264.367 178.549C253.123 181.14 241.439 177.768 236.994 173.48C233.237 169.965 233.267 166.218 235.425 163.461C235.917 162.866 236.539 162.29 237.162 161.714C235.919 160.186 235.239 158.476 234.953 156.825C234.49 153.673 236.93 150.826 240.153 150.776C241.503 150.712 243.226 150.838 245.302 151.285C245.917 151.646 246.684 151.896 247.509 151.753C257.609 154.081 270.094 148.596 271.439 139.688C272.289 134.054 267.662 129.202 261.93 129.007C259.794 128.953 257.325 128.446 255.407 126.95C255.184 126.649 254.942 126.478 254.7 126.308C254.457 126.137 254.346 125.986 254.084 125.947C249.16 123.06 248.332 118.781 249.009 116.07C249.766 112.834 252.702 111.133 255.557 112.636C260.783 115.301 267.229 115.202 271.298 114.878C273.473 114.67 275.478 114.705 277.724 114.91C278.641 115.049 279.801 115.358 281.111 115.555Z" fill="#F8B682"/>
<path d="M261.759 129.249C267.491 129.445 272.119 134.297 271.268 139.93C269.793 148.819 257.308 154.304 247.339 151.995C249.927 151.716 253.212 148.594 255.577 140.911L255.617 140.649C257.753 133.602 257.055 129.343 255.347 127.344C257.154 128.688 259.624 129.195 261.759 129.249Z" fill="#F8B682"/>
<path d="M254.053 65.7821C262.962 67.1267 272.582 70.8566 281.532 76.3612C279.96 97.4284 277.442 115.003 277.442 115.003C275.326 114.818 273.19 114.763 271.015 114.971C266.926 115.426 260.5 115.394 255.274 112.729C252.419 111.226 249.463 113.058 248.727 116.162C248.049 118.874 248.877 123.153 253.801 126.04C252.662 125.6 251.292 125.795 250.086 126.685L245.096 125.128C244.198 124.858 243.222 125.113 242.448 125.8L242.298 125.911L242.258 126.173L220.593 119.687C220.291 112.808 217.738 103.981 212.688 95.7158C222.12 97.1395 229.345 98.096 234.993 97.0727C245.666 95.6019 250.731 87.791 254.053 65.7821Z" fill="#F8B682"/>
<path d="M253.933 126.059C254.175 126.23 254.306 126.25 254.549 126.42C254.771 126.722 255.013 126.892 255.255 127.063C256.963 129.063 257.661 133.322 255.525 140.369L255.485 140.631C253.12 148.313 249.835 151.435 247.247 151.714C246.481 151.465 245.695 151.346 245.04 151.247C244.313 150.735 243.737 150.113 243.482 149.136L238.492 147.579C237.595 147.31 236.907 146.536 236.653 145.559L236.673 145.428C237.125 145.095 237.577 144.761 238.049 144.296C241.525 140.801 244.08 132.746 242.958 127.753C242.906 127.209 242.723 126.645 242.521 126.213L242.56 125.951L242.711 125.839C243.354 125.132 244.461 124.898 245.358 125.167L250.349 126.724C251.424 125.815 252.794 125.619 253.933 126.059Z" fill="#414047"/>
<path d="M242.808 127.863C243.93 132.856 241.374 140.911 237.899 144.406C233.061 140.059 231.368 136.185 230.787 133.82C230.37 132.149 231.039 130.374 232.508 129.524C235.746 127.601 240.338 127.356 242.808 127.863Z" fill="white"/>
<path d="M214.221 138.822L236.522 145.538L236.502 145.669C236.626 146.626 237.444 147.419 238.341 147.689L243.332 149.246C243.737 150.111 244.162 150.845 244.889 151.357C242.813 150.909 241.07 150.914 239.74 150.848C236.517 150.897 234.077 153.744 234.54 156.896C234.826 158.547 235.506 160.258 236.749 161.785C235.995 162.341 235.504 162.937 235.012 163.533C231.509 153.893 221.894 151.906 204.994 149.355C208.712 146.03 211.794 142.476 214.221 138.822Z" fill="#F8B682"/>
<path d="M238.439 90.2225C238.392 91.4213 236.983 91.8786 236.316 90.9739C231.807 85.3357 223.042 84.8167 219.196 85.4421C229.657 87.155 234.507 92.3087 235.125 97.0916C229.496 97.984 222.251 97.1584 212.819 95.7347C209.915 91.0086 206.185 86.4259 201.701 82.3994C207.203 83.2299 208.595 80.2242 212.147 78.8844L213.195 79.0426C214.112 79.1811 215.088 78.9264 215.822 78.5013L218.497 76.7611C218.949 76.4274 219.27 76.074 219.48 75.5697C229.793 74.7144 238.434 81.3784 238.439 90.2225Z" fill="#A05E1E"/>
<path d="M212.076 64.2683L219.412 65.3756C220.329 65.514 220.885 66.2679 220.747 67.185L219.6 74.7833C219.56 75.0453 219.501 75.4383 219.33 75.6805C219.12 76.1848 218.799 76.5383 218.347 76.872L215.672 78.6121C214.918 79.1683 213.962 79.2919 213.045 79.1535L206.494 78.1648C205.446 78.0066 204.668 76.9511 204.826 75.9031L205.953 68.4358C206.052 67.7807 206.413 67.1653 206.996 66.8513L210.254 64.7973C210.595 64.3128 211.421 64.1694 212.076 64.2683Z" fill="#F1F0EE"/>
<path d="M193.351 164.347L199.902 165.336C200.819 165.475 201.676 166.006 202.252 166.629L204.274 169.212C204.85 169.835 204.994 170.66 204.875 171.446L203.728 179.045C203.59 179.962 202.836 180.518 201.919 180.379L194.582 179.272C193.927 179.173 193.181 178.793 192.736 178.19L190.23 175.265C189.765 174.793 189.602 174.099 189.701 173.444L190.828 165.976C191.248 164.968 192.303 164.189 193.351 164.347Z" fill="#F1F0EE"/>
<path d="M172.901 167.559C173.949 167.717 174.617 168.622 174.459 169.67C174.3 170.718 173.396 171.385 172.348 171.227C171.3 171.069 170.632 170.164 170.791 169.116C171.08 168.088 171.984 167.42 172.901 167.559Z" fill="#00A5BA"/>
<path d="M188.325 65.3743C189.373 65.5325 190.041 66.4372 189.882 67.4852C189.724 68.5333 188.82 69.2006 187.772 69.0425C186.724 68.8843 186.056 67.9796 186.214 66.9315C186.504 65.9033 187.408 65.2359 188.325 65.3743Z" fill="#00A5BA"/>
<path d="M73.8072 62.4248C66.3251 70.2728 60.6549 81.208 58.3809 96.2737C56.6606 107.671 56.9399 117.361 58.7666 125.676C50.6319 123.644 40.5099 117.025 37.5511 107.333C34.6121 97.5097 35.5735 84.9257 42.146 76.0025C47.9053 68.0285 59.0605 62.4767 73.8072 62.4248Z" fill="#A05E1E"/>
<path d="M166.644 49.2369C164.803 49.8969 163.315 50.8782 162.01 52.4231C171.531 56.808 180.919 63.8526 185.87 72.7733C186.275 73.6384 186.51 74.7458 186.614 75.8334C186.782 78.2706 185.504 78.7476 183.888 77.0297C173.108 65.8894 162.321 62.7873 147.47 61.7517C144.766 67.2391 131.728 76.3923 107.954 75.8857C129.15 87.2583 133.352 105.579 129.202 116.208C128.591 117.59 126.567 117.686 125.828 116.369C122.911 110.837 115.503 102.215 106.824 100.235C123.049 117.021 128.408 138.331 129.83 159.984C144.695 166.247 161.676 165.594 173.712 157.764C174.767 156.985 176.05 158.251 175.479 159.37C174.606 160.713 173.563 162.297 172.278 163.711C163.454 170.686 152.602 173.336 142.762 173.727C142.846 174.945 143.061 176.184 143.578 177.2C139.712 177.956 137.403 173.722 116.9 171.967C100.366 170.543 66.433 161 58.9185 125.564C57.2228 117.269 56.8125 107.56 58.5328 96.1621C60.8068 81.0964 66.477 70.1612 73.9591 62.3132C95.2907 39.9408 131.077 42.5286 143.051 44.8718C159.046 48.09 165.126 46.864 166.644 49.2369Z" fill="#A05E1E"/>
<path d="M157.669 98.9339L162.659 100.491C163.425 100.741 163.89 101.213 164.204 101.796C164.315 101.947 164.407 102.229 164.387 102.36L164.367 102.491L164.328 102.753C164.582 103.729 164.686 104.817 164.639 106.016C164.424 111.879 161.011 119.403 158.479 121.969L158.329 122.08C157.686 122.787 156.71 123.041 155.681 122.752L150.691 121.195C150.691 121.195 154.73 117.517 156.806 110.863L156.845 110.601C159.144 104.248 157.669 98.9339 157.669 98.9339Z" fill="#414047"/>
<path d="M164.439 102.903L169.692 104.5C168.204 105.481 166.493 106.161 164.751 106.166C164.798 104.967 164.694 103.879 164.439 102.903Z" fill="white"/>
<path d="M174.308 91.664C174.108 95.6535 173.522 98.6469 172.511 100.906C171.881 102.419 170.897 103.61 169.691 104.5L164.438 102.903L164.478 102.641L164.498 102.51C164.406 102.229 164.426 102.098 164.315 101.947L164.596 101.855C167.407 101.878 169.661 101.146 169.978 99.0498C170.353 96.5607 167.518 94.9268 163.719 94.3534C160.313 93.8393 157.423 94.3411 156.603 96.227C156.603 96.227 156.412 96.6003 156.222 96.9735C155.495 96.4619 154.709 96.3432 153.884 96.4866C152.813 92.0374 153.362 86.6266 155.693 80.9489C159.863 70.1891 175.092 73.1576 174.308 91.664Z" fill="white"/>
<path d="M163.74 94.2222C167.539 94.7956 170.374 96.4295 169.999 98.9186C169.702 100.884 167.428 101.746 164.617 101.724L164.336 101.816C164.042 101.101 163.446 100.609 162.791 100.51L157.8 98.9533C157.526 98.1079 156.97 97.354 156.354 96.9931C156.545 96.6199 156.715 96.3776 156.735 96.2466C157.444 94.2099 160.334 93.7081 163.74 94.2222Z" fill="#414047"/>
<path d="M156.243 96.8411C156.858 97.202 157.414 97.9559 157.689 98.8012C157.689 98.8012 159.164 104.116 157.088 110.77L157.049 111.032C155.103 117.706 150.933 121.364 150.933 121.364C147.295 124.164 142.299 120.865 146.131 107.91L146.17 107.648C148.385 100.077 151.408 96.9153 153.773 96.3344C154.73 96.2108 155.627 96.4802 156.243 96.8411Z" fill="#414047"/>
<path d="M201.056 128.395C207.258 130.805 203.592 134.673 209.735 137.476L188.705 131.22C195.196 132.602 194.244 127.367 201.056 128.395Z" fill="#F8B682"/>
<path d="M215.583 118.26C209.092 116.878 210.044 122.114 203.363 121.105C197.161 118.695 200.826 114.827 194.684 112.024L215.583 118.26Z" fill="#F8B682"/>
<path d="M155.719 125.168C148.635 127.716 144.952 136.138 145.787 146.581C146.746 157.981 162.022 159.751 166.867 141.857C167.853 137.987 168.197 134.823 167.878 132.497C167.136 126.757 161.243 123.188 155.719 125.168ZM164.758 133.634C164.383 136.123 161.191 136.847 157.392 136.274C153.593 135.7 150.758 134.066 151.134 131.577C151.49 129.219 154.7 128.364 158.5 128.937C162.299 129.511 165.134 131.145 164.758 133.634Z" fill="white"/>
<path d="M158.5 128.939C162.299 129.512 165.134 131.146 164.758 133.635C164.383 136.124 161.192 136.849 157.392 136.275C153.593 135.702 150.758 134.068 151.134 131.579C151.49 129.221 154.701 128.366 158.5 128.939Z" fill="#414047"/>
<path d="M139.758 127.048C139.758 127.048 136.235 131.742 137.054 146.738C137.066 147.544 136.292 148.231 135.526 147.981C133.601 147.423 130.451 145.206 129.398 136.203C129.831 128.899 132.688 127.723 139.758 127.048Z" fill="#A05E1E"/>
<path d="M146.433 76.6014C147.239 76.5891 147.775 77.474 147.526 78.2402C142.318 92.3271 144.298 97.8515 144.298 97.8515C137.611 95.1004 135.36 93.1527 137.233 86.066C140.634 77.736 144.297 76.5471 146.433 76.6014Z" fill="#A05E1E"/>
<path d="M220.704 119.838L242.37 126.323C242.572 126.756 242.755 127.32 242.807 127.863C240.318 127.488 235.745 127.601 232.507 129.524C231.039 130.375 230.369 132.15 230.787 133.82C231.368 136.186 233.192 140.079 237.898 144.407C237.426 144.872 236.974 145.206 236.522 145.539L214.221 138.823C217.672 133.717 219.773 128.674 220.405 124.482C220.623 123.041 220.729 121.449 220.704 119.838Z" fill="white"/>
<path opacity="0.53" d="M169.692 104.501L194.573 111.874C200.715 114.677 197.05 118.546 203.251 120.956C210.064 121.984 209.112 116.749 215.472 118.11L220.594 119.687C220.618 121.299 220.512 122.891 220.295 124.332C219.662 128.524 217.561 133.567 214.11 138.673L209.624 137.326C203.35 134.504 207.147 130.655 200.945 128.245C194.133 127.217 195.085 132.452 188.594 131.07L158.591 122.12C160.991 119.534 164.555 111.899 164.751 106.167C166.644 106.051 168.335 105.502 169.692 104.501Z" fill="#F8B682"/>
<path opacity="0.77" d="M220.704 119.838L242.37 126.323C242.572 126.756 242.755 127.32 242.807 127.863C240.318 127.488 235.745 127.601 232.507 129.524C231.039 130.375 230.369 132.15 230.787 133.82C231.368 136.186 233.192 140.079 237.898 144.407C237.426 144.872 236.974 145.206 236.522 145.539L214.221 138.823C217.672 133.717 219.773 128.674 220.405 124.482C220.623 123.041 220.729 121.449 220.704 119.838Z" fill="#F8B682"/>
<path d="M253.324 146.065C251.401 149.929 249.139 151.597 247.226 151.844C251.621 152.91 256.515 152.442 260.781 150.808C258.51 148.992 255.937 147.397 253.324 146.065Z" fill="#C46E4A"/>
<path d="M305.86 215.229C298.346 215.3 290.97 214.455 283.503 213.328C275.531 211.991 267.73 210.411 259.877 208.288C253.315 206.493 246.661 204.417 240.367 201.725C237.473 200.485 234.598 199.113 232.045 197.387C232.181 199.15 232.448 200.932 232.977 202.754C233.179 203.186 233.513 203.639 234.037 203.718C234.648 209.437 235.318 214.764 235.8 217.785C235.852 218.328 236.086 219.436 236.17 220.654L304.424 230.957C309.796 231.767 314.902 228.116 315.733 222.614L316.959 214.492C313.152 214.855 309.496 215.107 305.86 215.229Z" fill="#83517B"/>
<path d="M172.276 163.712C163.452 170.687 152.601 173.337 142.761 173.728C142.845 174.946 143.06 176.185 143.576 177.2C148.676 188.689 177.692 187.307 177.19 163.113C175.539 163.4 173.908 163.556 172.276 163.712ZM174.479 169.538C174.321 170.586 173.416 171.253 172.368 171.095C171.32 170.937 170.652 170.032 170.811 168.984C170.969 167.936 171.873 167.269 172.922 167.427C173.95 167.716 174.617 168.621 174.479 169.538Z" fill="#F8B682"/>
<path d="M192.793 144.968C184.226 150.24 174.887 153.52 164.817 154.546C156.791 155.345 148.654 155.992 140.524 155.703C136.797 155.542 133.089 155.251 129.461 154.435C129.597 156.197 129.844 158.111 129.849 159.853C144.714 166.117 161.695 165.464 173.731 157.633C174.786 156.855 176.069 158.12 175.498 159.24C174.625 160.582 173.582 162.167 172.297 163.58C173.928 163.425 175.56 163.269 177.211 162.982C181.208 162.246 185.002 161.077 188.554 159.737C194.983 157.089 200.503 153.367 205.145 149.244C208.862 145.919 211.945 142.365 214.372 138.712L209.886 137.364L204.895 135.807C201.027 139.243 197.087 142.266 192.793 144.968Z" fill="#C46E4A"/>
<path d="M231.164 181.041C227.155 180.972 223.192 179.704 219.761 177.578C215.715 175.092 212.744 171.695 209.491 168.391C206.723 165.427 203.803 162.575 200.392 160.318C198.323 158.934 196.064 157.923 193.765 157.174C192.015 158.116 190.265 159.057 188.424 159.717C188.686 159.757 192.485 160.33 194.551 164.394L200.054 165.224C200.971 165.363 201.828 165.894 202.404 166.517L204.426 169.1C205.002 169.723 205.146 170.549 205.027 171.335L203.88 178.933C203.742 179.85 202.988 180.406 202.071 180.268L200.892 180.09C200.892 180.09 201.945 181.991 201.51 184.873C201.312 186.183 202.765 187.206 203.932 186.578C206.416 185.211 209.4 182.312 209.162 176.782C211.777 182.537 223.046 195.761 235.85 185.5C236.107 183.797 236.214 182.205 236.3 180.745C234.669 180.9 232.906 181.036 231.164 181.041Z" fill="#8E4020"/>
<path d="M330.196 125.913C329.081 119.983 327.534 114.256 325.292 108.692C322.227 100.592 317.733 93.0799 311.712 86.8114C305.933 80.7135 298.908 75.7675 291.272 72.2032C284.534 68.9083 277.245 66.6021 269.797 65.344C264.053 64.343 257.483 63.4853 251.736 65.1637C251.958 65.4652 252.312 65.7866 252.705 65.8459L253.884 66.0238C262.792 67.3685 272.412 71.0984 281.363 76.603C301.352 88.8655 317.973 110.133 316.732 134.332C316.732 134.332 316.732 134.332 316.863 134.352L324.971 137.451L329.267 132.07L330.196 125.913Z" fill="#83517B"/>
<path d="M299.854 93.4631C302.556 97.7566 304.694 102.233 306.249 107.023C308.758 114.37 309.969 122.324 309.458 130.152C311.769 131.707 314.231 133.15 317.034 134.109C317.948 115.623 308.543 98.9282 295.131 86.5865C296.668 88.8284 298.337 91.0901 299.854 93.4631Z" fill="#7D9E18"/>
<path d="M264.085 178.641C261.705 181.096 257.747 181.57 254.937 181.548C251.864 181.486 249.536 184.485 250.562 187.453C250.928 188.581 251.726 189.505 252.675 190.318C246.543 191 240.66 190.916 235.157 190.086C235.395 188.514 235.632 186.942 235.85 185.501C236.411 180.896 236.722 177.057 236.561 173.683C241.156 177.86 252.841 181.232 264.085 178.641Z" fill="#C46E4A"/>
<path d="M314.272 158.615C312.985 162.708 311.919 167.103 311.489 171.728C311.489 171.728 311.015 174.872 311.353 177.067C318.262 180.12 321.804 182.396 321.804 182.396L324.572 164.056C320.931 162.434 317.441 160.701 314.272 158.615Z" fill="#83517B"/>
<path d="M290.858 150.391C287.143 151.037 284.056 152.848 280.949 154.791C278.104 156.774 275.259 158.756 272.08 160.286C268.62 161.908 264.734 162.795 260.836 162.877C254.501 163.126 248.01 161.745 242.201 159.394C239.549 158.324 236.825 156.841 234.704 154.913C234.605 155.568 234.506 156.223 234.538 156.898C234.825 158.549 235.505 160.259 236.748 161.787C236.447 162.009 236.145 162.232 235.824 162.585C239.803 166.402 245.14 169.217 250.551 169.766C252.798 169.971 252.867 173.063 251.006 173.854C247.132 175.547 242.273 174.01 238.671 172.126C237.067 171.214 235.221 170.132 233.545 168.807C233.851 170.327 234.813 171.946 236.469 173.402C240.913 177.69 252.598 181.062 263.842 178.471L263.691 178.583C264.798 178.348 266.037 178.133 267.144 177.898C269.077 177.52 270.182 179.964 269.028 181.398C266.509 184.769 262.949 187.046 258.822 187.763C256.063 188.284 253.272 188.131 250.561 187.454C250.946 188.45 251.634 189.224 252.583 190.037C257.571 194.274 269.579 194.612 281.453 183.407C282.85 182.144 283.984 180.842 285.099 179.67C287.991 176.489 290.149 173.733 292.391 172.195C295.557 169.859 298.133 168.774 300.328 168.436C304.154 167.941 307.12 169.595 311.266 171.426C311.716 166.671 312.84 161.883 314.299 157.547C310.193 155.454 306.428 152.876 302.283 151.044C298.714 149.835 294.724 149.635 290.858 150.391Z" fill="#C46E4A"/>
<path d="M271.342 137.663C272.476 136.36 273.126 134.716 273.161 132.712C273.171 129.095 271.863 126.218 268.445 124.898C265.157 123.598 261.541 123.588 258.004 123.054C255.253 122.639 251.795 121.581 248.96 119.947C249.449 122.031 250.967 124.404 253.933 126.058C254.195 126.097 254.306 126.248 254.548 126.418C254.791 126.589 255.033 126.76 255.255 127.061C257.154 128.688 259.512 129.043 261.778 129.118C266.705 129.325 270.966 133.05 271.342 137.663Z" fill="#C46E4A"/>
<path d="M225.219 120.116C224.62 115.202 223.8 109.987 221.963 105.288C220.695 102.149 218.982 98.4064 216.095 96.2288C215.047 96.0706 213.868 95.8926 212.689 95.7147C217.739 103.98 220.292 112.807 220.594 119.686L225.211 121.053C225.382 120.811 225.31 120.398 225.219 120.116Z" fill="#C46E4A"/>
<path d="M242.808 127.863C243.93 132.856 241.374 140.911 237.899 144.406C233.061 140.059 231.368 136.185 230.787 133.82C230.37 132.149 231.039 130.374 232.508 129.524C235.746 127.601 240.338 127.356 242.808 127.863Z" fill="white"/>
<path d="M214.221 138.822L236.522 145.538L236.502 145.669C236.626 146.626 237.444 147.419 238.341 147.689L243.332 149.246C243.737 150.111 244.162 150.845 244.889 151.357C242.813 150.909 241.07 150.914 239.74 150.848C236.517 150.897 234.077 153.744 234.54 156.896C234.826 158.547 235.506 160.258 236.749 161.785C235.995 162.341 235.504 162.937 235.012 163.533C231.509 153.893 221.894 151.906 204.994 149.355C208.712 146.03 211.794 142.476 214.221 138.822Z" fill="#C46E4A"/>
<path d="M232.894 92.3335C230.897 91.3621 228.88 90.5217 226.673 90.0546C223.044 89.2389 219.126 89.4515 215.411 90.0966C213.609 90.4946 211.787 91.0236 209.966 91.5525C210.967 92.9096 211.948 94.3976 212.818 95.7348C222.251 97.1585 229.476 98.1151 235.124 97.0917C234.817 95.5716 234.138 93.8611 232.894 92.3335Z" fill="#8E4020"/>
<path d="M49.088 108.137C43.5091 105.151 38.9733 100.581 36.0763 94.9177C35.9676 99.189 36.5337 103.428 37.5916 107.072C40.5504 116.763 50.6725 123.383 58.8072 125.415C57.8481 121.116 57.3611 116.353 57.3463 111.125C54.4839 110.559 51.6809 109.6 49.088 108.137Z" fill="#8E4020"/>
<path d="M129.828 159.984C129.732 157.96 129.504 155.916 129.277 153.871C121.456 152.423 113.944 149.815 106.761 145.917C90.0641 136.697 73.8416 124.334 66.3964 106.193C62.9581 97.9027 61.9051 88.9004 62.6144 79.7621C60.684 84.5624 59.1985 89.9658 58.2691 96.123C56.5488 107.52 56.8281 117.21 58.6548 125.525C66.1693 160.961 100.102 170.504 116.636 171.928C137.009 173.663 139.448 177.917 143.314 177.161C142.798 176.145 142.583 174.906 142.499 173.688C152.339 173.297 163.19 170.647 172.014 163.672C173.3 162.258 174.454 160.824 175.215 159.331C175.917 158.231 174.634 156.966 173.448 157.725C161.675 165.595 144.693 166.248 129.828 159.984Z" fill="#8E4020"/>
<path d="M130.553 106.363C126.272 102.769 121.269 100.406 115.576 99.9487C113.198 99.7238 110.984 100.193 108.769 100.663C116.543 103.31 123.264 111.158 125.978 116.258C126.717 117.575 128.741 117.479 129.352 116.097C130.291 113.425 130.805 110.019 130.553 106.363Z" fill="#8E4020"/>
<path d="M164.439 102.903L169.692 104.5C168.204 105.481 166.493 106.161 164.751 106.166C164.798 104.967 164.694 103.879 164.439 102.903Z" fill="white"/>
<path d="M156.603 96.227C156.852 95.4608 157.455 95.0159 158.17 94.7217C158.034 92.9593 158.029 91.2167 157.984 89.7361C158.021 85.052 158.602 80.316 159.799 75.9409C158.049 76.8827 156.573 78.6698 155.673 81.0798C153.342 86.7576 152.794 92.1684 153.864 96.6176C154.69 96.4742 155.607 96.6126 156.202 97.1045C156.432 96.4693 156.603 96.227 156.603 96.227Z" fill="#AECCDE"/>
<path d="M159.935 99.0067C159.811 98.0501 159.668 97.2245 159.544 96.2679C159.381 95.5734 159.349 94.8986 159.317 94.2238C158.059 94.5698 157.043 95.0864 156.623 96.0949C156.623 96.0949 156.432 96.4682 156.242 96.8414C156.858 97.2023 157.414 97.9562 157.688 98.8015L159.856 99.5307C160.007 99.4195 159.895 99.2687 159.935 99.0067Z" fill="black"/>
<path d="M204.986 136.089L209.734 137.476C207.979 136.675 206.919 135.711 206.382 134.826C205.91 135.291 205.458 135.624 204.986 136.089Z" fill="#C46E4A"/>
<path d="M151.699 135.817C151.778 135.292 151.877 134.637 151.956 134.113C151.249 133.471 150.974 132.625 151.113 131.708C151.271 130.66 152.045 129.973 153.061 129.457C153.389 128.166 153.829 127.027 154.4 125.907C148.174 128.987 144.963 136.944 145.766 146.712C146.103 151.587 149.113 154.721 152.781 155.275C151.484 148.781 150.861 142.256 151.699 135.817Z" fill="#AECCDE"/>
<path d="M153.075 134.687C153.134 134.294 153.194 133.901 153.384 133.527C153.503 132.741 153.752 131.975 153.851 131.32C153.97 130.534 154.219 129.768 154.338 128.982C152.667 129.399 151.481 130.158 151.263 131.599C151.065 132.909 151.824 134.096 153.186 134.837C153.055 134.818 153.075 134.687 153.075 134.687Z" fill="black"/>
<path opacity="0.45" d="M211.682 128.122C210.107 130.565 208.421 132.856 206.382 134.826C207.049 135.731 207.979 136.675 209.734 137.476L214.22 138.823C217.671 133.716 219.772 128.674 220.405 124.481C220.622 123.04 220.728 121.449 220.704 119.837L216.61 118.549C215.179 121.817 213.617 125.065 211.682 128.122Z" fill="#C46E4A"/>
<path opacity="0.45" d="M233.219 139.011C230.003 138.124 225.89 136.967 224.904 133.736C224.284 131.633 225.235 129.767 225.532 127.802C225.848 125.706 225.529 123.38 225.322 121.204L220.704 119.838C220.729 121.449 220.623 123.041 220.405 124.482C219.773 128.674 217.672 133.717 214.221 138.823L236.522 145.539C236.974 145.206 237.426 144.872 237.898 144.407C235.908 142.499 234.312 140.65 233.219 139.011Z" fill="#C46E4A"/>
<path d="M216.611 118.549L220.704 119.837C220.514 113.109 217.926 106.286 217.926 106.286C217.926 106.286 219.37 110.926 216.611 118.549Z" fill="#C46E4A"/>
<path d="M235.818 142.217C236.505 142.99 237.212 143.633 238.03 144.426C241.505 140.931 244.061 132.876 242.939 127.883C242.415 127.804 241.629 127.685 240.954 127.717C241.382 132.873 239.13 138.027 235.818 142.217Z" fill="#AECCDE"/>
<path d="M176.324 159.096C176.284 159.358 176.244 159.62 176.094 159.731C175.201 161.205 174.178 162.658 172.742 164.183C172.44 164.406 172.028 164.477 171.805 164.176C171.583 163.874 171.511 163.461 171.813 163.239C173.098 161.825 174.121 160.372 174.994 159.029C175.164 158.787 175.073 158.505 174.831 158.335C174.7 158.315 174.477 158.013 174.176 158.236C162.14 166.067 145.12 166.981 129.75 160.508C129.488 160.468 129.396 160.186 129.305 159.905C127.599 133.921 120.273 114.994 106.483 100.72C106.24 100.549 106.3 100.156 106.339 99.8943C106.51 99.6521 106.792 99.5606 107.054 99.6001C115.994 101.62 123.494 110.523 126.41 116.055C126.744 116.507 127.117 116.698 127.53 116.626C127.943 116.554 128.375 116.351 128.585 115.847C132.276 106.489 129.666 88.2742 107.763 76.2589C107.521 76.0884 107.429 75.8066 107.469 75.5446C107.508 75.2826 107.81 75.0601 108.072 75.0997C132.239 75.6656 144.682 66.0206 146.985 61.4106C147.156 61.1684 147.307 61.0572 147.588 60.9657C162.026 62.073 173.246 64.9724 184.51 76.4538C185.328 77.2473 185.721 77.3066 185.872 77.1954C186.003 77.2151 186.193 76.8419 186.089 75.7543C186.005 74.5357 185.751 73.5594 185.456 72.845C185.234 72.5434 185.424 72.1702 185.726 71.9477C186.027 71.7253 186.401 71.9156 186.623 72.2172C187.029 73.0823 187.263 74.1897 187.459 75.559C187.575 77.4524 186.932 78.1594 186.369 78.3423C185.936 78.545 184.979 78.6686 183.585 77.2522C172.806 66.1119 161.979 63.2718 147.954 62.0928C144.818 67.7829 132.31 76.0784 110.593 76.1502C131.178 88.9046 133.415 106.929 129.836 116.438C129.436 117.315 128.662 118.003 127.725 117.995C126.769 118.119 125.78 117.568 125.375 116.702C122.883 111.905 116.647 104.398 109.155 101.659C122.139 115.946 129.001 134.401 130.563 159.559C145.448 165.691 161.794 164.808 173.397 157.18C174.131 156.755 175.068 156.763 175.775 157.405C176.109 157.858 176.422 158.441 176.324 159.096Z" fill="black"/>
<path d="M221.061 124.58C218.984 138.335 202.594 159.042 177.636 163.716C177.616 178.05 167.22 184.788 157.288 184.897C149.754 185.1 142.027 181.254 141.805 173.851C141.864 173.458 142.035 173.215 142.448 173.144C154.181 172.637 163.933 169.285 171.682 163.219C171.832 163.108 171.963 163.128 171.963 163.128C173.595 162.972 175.095 162.796 176.746 162.51L176.877 162.53C201.383 158.189 217.583 137.856 219.6 124.493C221.617 111.131 212.323 87.4855 190.754 75.9225L190.623 75.9027C189.018 74.9906 187.263 74.1898 185.489 73.5199C185.358 73.5001 185.246 73.3494 185.135 73.1986C179.354 62.6786 167.882 56.1235 161.628 53.1697C161.497 53.1499 161.275 52.8484 161.295 52.7174C161.183 52.5666 161.354 52.3243 161.374 52.1933C166.031 46.1967 175.502 47.3584 182.404 51.3479C189.547 55.5079 196.13 64.2729 191.829 75.0129C213.902 86.7859 223.117 110.955 221.061 124.58ZM190.88 74.1996C194.649 64.3174 188.492 56.2865 181.853 52.3366C175.698 48.7278 167.556 47.6328 163.116 52.1884C169.612 55.3127 180.54 61.9198 186.361 72.1777C188.005 72.8278 189.518 73.4581 190.88 74.1996ZM143.338 174.35C143.869 180.594 150.778 183.646 157.355 183.567C166.763 183.379 176.274 177.177 176.398 163.931C175.159 164.146 173.79 164.341 172.44 164.406C164.822 170.491 154.94 173.823 143.338 174.35Z" fill="black"/>
<path d="M167.299 49.335C167.28 49.466 167.109 49.7083 166.958 49.8195C166.657 50.042 166.264 49.9827 166.041 49.6811C165.263 48.6256 163.016 48.4205 158.935 47.9385C155.116 47.4961 149.967 46.9869 142.67 45.6176C129.387 43.0766 101.493 42.35 81.8393 56.2664C69.5149 65.1254 61.7264 78.5547 59.0569 96.2404C55.8535 117.463 59.5193 134.899 69.7403 147.965C81.8917 163.332 102.037 170.125 116.868 171.291C129.563 172.404 135.431 174.361 138.849 175.681C140.886 176.391 142.026 176.831 143.415 176.504C143.828 176.433 144.07 176.603 144.142 177.016C144.213 177.429 144.043 177.671 143.63 177.743C141.979 178.029 140.708 177.57 138.41 176.821C134.971 175.632 129.254 173.563 116.821 172.49C101.708 171.415 81.1897 164.432 68.6848 148.744C58.2414 135.376 54.4842 117.659 57.7468 96.0427C60.4756 77.9639 68.3038 64.2726 81.2115 55.0997C101.297 40.9807 129.473 41.6158 143.019 44.1963C150.316 45.5656 155.464 46.0748 159.152 46.4974C163.777 46.9275 166.135 47.2834 167.116 48.7715C167.359 48.942 167.319 49.204 167.299 49.335Z" fill="black"/>
<path d="M170.965 173.296C170.945 173.427 170.774 173.67 170.624 173.781C170.322 174.003 169.929 173.944 169.706 173.642C169.706 173.642 168.28 171.551 166.387 171.667C165.972 174.419 164.004 176.801 161.226 177.454C158.578 178.126 156.037 177.207 154.389 174.814C152.829 175.383 151.865 176.443 151.366 177.976C151.306 178.369 150.874 178.571 150.632 178.401C150.239 178.341 150.036 177.909 150.206 177.667C150.575 176.114 151.677 174.137 154.606 173.373C154.888 173.282 155.13 173.452 155.372 173.623C156.779 175.845 158.796 176.685 161.03 176.085C163.396 175.504 165.062 173.343 165.156 170.946C165.195 170.684 165.366 170.441 165.648 170.35C168.688 169.737 170.782 172.733 170.893 172.884C170.873 173.015 170.984 173.165 170.965 173.296Z" fill="black"/>
<path d="M187.575 63.2501C187.555 63.3811 187.535 63.5121 187.384 63.6233C187.234 63.7346 184.349 65.979 181.625 64.4959C181.383 64.3253 181.16 64.0238 181.331 63.7815C181.949 61.463 180.864 58.8874 178.906 57.654C176.948 56.4206 174.754 56.7592 172.774 58.3362C172.603 58.5784 172.21 58.5191 171.968 58.3486C169.395 56.7543 168.925 54.5395 169.031 52.9477C169.091 52.5547 169.392 52.3322 169.654 52.3718C170.047 52.4311 170.27 52.7327 170.23 52.9947C170.124 54.5865 170.843 56.035 172.185 56.9075C174.467 55.108 177.166 54.9795 179.497 56.4032C181.828 57.827 183.116 60.8352 182.72 63.4553C184.515 63.9941 186.475 62.5481 186.475 62.5481C186.776 62.3256 187.169 62.385 187.392 62.6865C187.483 62.9683 187.595 63.1191 187.575 63.2501Z" fill="black"/>
<path d="M237.176 145.639C237.117 146.032 236.685 146.234 236.292 146.175L158.36 122.755C157.967 122.696 157.765 122.263 157.955 121.89C158.014 121.497 158.447 121.294 158.82 121.485L236.751 144.905C237.144 144.964 237.216 145.377 237.176 145.639Z" fill="black"/>
<path d="M165.219 108.382C164.369 114.015 161.284 120.249 159.185 122.612C158.884 122.834 158.471 122.906 158.249 122.605C158.026 122.303 157.954 121.89 158.256 121.668C160.977 118.729 165.461 108.552 163.894 102.956C163.803 102.674 163.993 102.301 164.425 102.098C164.838 102.027 165.08 102.197 165.283 102.63C165.55 104.412 165.535 106.286 165.219 108.382Z" fill="black"/>
<path d="M243.024 126.423C242.965 126.816 242.532 127.019 242.139 126.959L164.208 103.539C163.815 103.48 163.612 103.047 163.803 102.674C163.862 102.281 164.295 102.078 164.668 102.269L242.599 125.689C242.861 125.728 243.083 126.03 243.024 126.423Z" fill="black"/>
<path d="M203.905 121.056L203.885 121.187C203.694 121.56 203.413 121.651 203.02 121.592C199.601 120.272 198.921 118.562 198.242 116.851C197.673 115.291 197.085 113.863 194.21 112.491C193.837 112.301 193.765 111.888 193.936 111.646C194.126 111.272 194.539 111.201 194.781 111.371C198.16 112.953 198.82 114.795 199.52 116.374C200.088 117.934 200.676 119.362 203.46 120.453C203.853 120.512 203.944 120.794 203.905 121.056Z" fill="black"/>
<path d="M201.711 128.492C201.652 128.885 201.35 129.108 200.957 129.048C197.813 128.574 196.607 129.464 195.25 130.465C193.742 131.577 192.234 132.689 188.605 131.874C188.212 131.814 188.01 131.382 188.049 131.12C188.109 130.727 188.541 130.524 188.803 130.564C191.797 131.149 192.983 130.391 194.34 129.39C195.828 128.408 197.487 127.185 201.024 127.719C201.548 127.798 201.77 128.099 201.711 128.492Z" fill="black"/>
<path d="M210.39 137.575L210.37 137.706C210.18 138.08 209.767 138.151 209.525 137.981C206.146 136.399 205.486 134.557 204.786 132.978C204.218 131.418 203.63 129.989 200.846 128.899C200.473 128.709 200.382 128.427 200.441 128.034C200.631 127.661 200.913 127.57 201.306 127.629C204.725 128.949 205.404 130.659 206.084 132.37C206.653 133.93 207.241 135.358 210.116 136.73C210.338 137.032 210.429 137.313 210.39 137.575Z" fill="black"/>
<path d="M216.237 118.361C216.178 118.754 215.745 118.956 215.483 118.917C212.49 118.331 211.303 119.09 209.946 120.091C208.458 121.072 206.8 122.296 203.262 121.762C202.869 121.703 202.647 121.401 202.706 121.008C202.766 120.615 203.067 120.393 203.46 120.452C206.604 120.926 207.811 120.037 209.168 119.036C210.675 117.923 212.183 116.811 215.812 117.627C216.074 117.666 216.296 117.968 216.237 118.361Z" fill="black"/>
<path d="M165.282 102.631C165.243 102.893 165.072 103.135 164.791 103.227C164.378 103.298 164.136 103.128 164.064 102.715L164.084 102.584C163.92 101.89 163.476 101.286 162.709 101.037L158.727 99.8998C159.105 101.833 159.409 106.032 157.983 111.043L157.944 111.305C156.386 116.295 153.737 119.647 152.451 121.061L156.433 122.198C157.069 122.428 157.894 122.284 158.386 121.689L158.537 121.577C158.839 121.355 159.251 121.283 159.474 121.585C159.696 121.886 159.768 122.299 159.466 122.522L159.316 122.633C158.522 123.451 157.264 123.797 155.974 123.468L150.983 121.911C150.721 121.872 150.61 121.721 150.518 121.439C150.427 121.157 150.598 120.915 150.748 120.804C150.748 120.804 154.767 117.257 156.673 110.845L156.713 110.583C158.618 104.171 157.254 99.0075 157.254 99.0075C157.163 98.7257 157.333 98.4835 157.484 98.3722C157.635 98.261 157.916 98.1695 158.178 98.2091L163.169 99.7663C164.328 100.075 165.258 101.019 165.473 102.258L165.453 102.389C165.302 102.5 165.282 102.631 165.282 102.631Z" fill="black"/>
<path d="M158.323 99.0335C158.283 99.2955 158.132 99.4068 157.85 99.4982C157.569 99.5897 157.195 99.3993 156.973 99.0978C156.516 97.6889 155.547 97.0067 154.479 96.9795C152.323 97.0561 149.209 99.9358 146.804 107.88L146.764 108.142C144.379 115.956 145.378 119.992 147.204 121.206C148.173 121.888 149.412 121.673 150.618 120.783C150.92 120.56 151.313 120.62 151.535 120.921C151.758 121.223 151.698 121.616 151.397 121.838C149.738 123.062 147.845 123.178 146.391 122.155C145.049 121.282 142.34 117.926 145.494 107.682L145.533 107.42C147.709 100.111 151.06 95.6595 154.415 95.6299C156.157 95.6249 157.611 96.6482 158.251 98.6207C158.362 98.7715 158.342 98.9025 158.323 99.0335Z" fill="black"/>
<path d="M250.872 126.801C250.812 127.194 250.38 127.397 249.987 127.338L244.996 125.78C244.361 125.55 243.535 125.694 243.044 126.29C245.174 131.703 241.941 142.47 237.267 145.918C237.45 146.482 237.915 146.954 238.55 147.184L243.541 148.741C243.934 148.8 244.136 149.233 243.946 149.606C243.887 149.999 243.454 150.202 243.081 150.011L238.09 148.454C236.931 148.145 236.002 147.201 235.786 145.963L235.806 145.832C235.715 145.55 235.885 145.308 236.187 145.085C240.179 142.606 243.956 131.787 241.654 126.616C241.543 126.465 241.563 126.334 241.583 126.203L241.622 125.941C241.642 125.81 241.662 125.679 241.793 125.699L241.944 125.588C242.737 124.769 243.995 124.423 245.286 124.752L250.276 126.309C250.709 126.107 250.931 126.408 250.872 126.801Z" fill="black"/>
<path d="M257.265 135.942C257.047 137.383 256.679 138.935 256.16 140.599L256.12 140.861C253.965 148.039 250.502 152.34 246.997 152.481C245.123 152.466 243.539 151.423 242.899 149.45C242.807 149.169 242.847 148.907 243.148 148.684C243.902 148.128 244.696 147.31 245.378 146.341C245.548 146.099 245.961 146.027 246.334 146.217C246.577 146.388 246.648 146.801 246.458 147.174C245.776 148.143 245.002 148.83 244.359 149.537C244.856 150.684 245.825 151.366 247.044 151.282C249.33 151.225 252.576 148.365 254.941 140.683L254.981 140.421C257.366 132.608 256.105 128.532 254.298 127.187C253.33 126.505 252.242 126.609 251.075 127.236C252.479 132.138 250.796 138.851 250.737 139.244C250.677 139.637 250.245 139.84 249.872 139.65C249.479 139.59 249.276 139.158 249.466 138.785C249.486 138.654 251.34 131.698 249.745 127.17C249.654 126.888 249.693 126.626 249.995 126.403C251.654 125.18 253.678 125.083 255.131 126.107C257.2 127.491 257.996 131.095 257.265 135.942Z" fill="black"/>
<path d="M195.61 129.851L195.59 129.982C193.889 134.147 191.724 137.84 189.324 140.425C189.022 140.648 188.61 140.72 188.387 140.418C188.165 140.116 188.093 139.704 188.395 139.481C190.775 137.027 192.92 133.465 194.45 129.542C194.641 129.169 194.923 129.077 195.316 129.137C195.558 129.307 195.649 129.589 195.61 129.851Z" fill="black"/>
<g opacity="0.61">
<path opacity="0.61" d="M198.173 120.859C197.699 124.003 196.831 127.088 195.721 130.002C195.531 130.375 195.249 130.467 194.856 130.407C194.483 130.217 194.391 129.935 194.451 129.542C196.381 124.742 197.303 119.521 197.249 114.556C197.308 114.163 197.479 113.92 197.891 113.849C198.304 113.777 198.527 114.078 198.598 114.491C198.544 116.627 198.49 118.763 198.173 120.859Z" fill="black"/>
</g>
<path d="M198.579 114.62C198.539 114.882 198.218 115.236 197.956 115.196C197.563 115.137 197.321 114.966 197.249 114.554C197.175 109.719 196.104 105.27 194.149 101.357C193.927 101.055 194.117 100.682 194.419 100.459C194.72 100.237 195.093 100.427 195.316 100.729C197.363 104.923 198.413 109.504 198.579 114.62Z" fill="black"/>
<g opacity="0.61">
<path opacity="0.61" d="M184.478 118.388C183.944 121.925 181.321 124.209 181.302 124.34C181 124.562 180.607 124.503 180.365 124.332C180.142 124.031 180.202 123.638 180.372 123.396C180.543 123.153 185.054 119.011 182.248 113.63C182.026 113.328 182.216 112.955 182.518 112.732C182.819 112.51 183.192 112.7 183.415 113.002C184.599 114.922 184.715 116.816 184.478 118.388Z" fill="black"/>
</g>
<path d="M168.245 138.047C168.048 139.357 167.719 140.648 167.39 141.938C164.399 152.876 157.871 156.178 153.247 155.748C148.753 155.338 145.428 151.62 145.001 146.464C144.113 135.477 148.078 126.964 155.444 124.324C158.281 123.278 161.445 123.622 164.019 125.216C166.461 126.791 168.09 129.315 168.329 132.165C168.708 134.097 168.542 136.082 168.245 138.047ZM146.632 139.207C146.296 141.434 146.182 143.963 146.461 146.551C146.857 151.032 149.586 154.258 153.425 154.569C157.656 154.94 163.49 151.801 166.231 141.629C167.158 138.151 167.482 135.118 167.202 132.53C166.903 130.073 165.628 127.871 163.408 126.598C161.208 125.194 158.437 124.91 156.012 125.884C150.92 127.661 147.64 132.525 146.632 139.207Z" fill="black"/>
<path d="M146.13 143.417C145.047 145.264 143.127 146.448 141.063 146.806C140.932 146.786 140.801 146.767 140.821 146.636C140.84 146.505 140.86 146.374 140.991 146.393C142.833 145.733 144.491 144.51 145.272 142.886C145.502 142.251 146.491 142.802 146.13 143.417Z" fill="black"/>
<path d="M147.956 151.733C147.823 154.393 146.49 157.006 144.229 158.674C144.078 158.785 143.947 158.766 143.836 158.615C143.725 158.464 143.744 158.333 143.895 158.222C145.875 156.645 146.925 154.124 146.888 151.706C146.987 151.051 148.055 151.078 147.956 151.733Z" fill="black"/>
<path d="M162.009 151.846C161.902 153.438 162.602 155.017 163.944 155.89C164.186 156.06 163.996 156.434 163.754 156.263C161.999 155.462 160.926 153.692 160.941 151.819C160.98 151.557 161.151 151.315 161.413 151.354C161.826 151.282 162.068 151.453 162.009 151.846Z" fill="black"/>
<path d="M165.413 133.734C164.998 136.485 162.01 137.642 157.293 136.93C152.577 136.218 150.063 134.231 150.479 131.48C150.874 128.859 154.013 127.591 158.599 128.283C163.184 128.976 165.809 131.114 165.413 133.734ZM151.789 131.677C151.453 133.904 154.478 135.165 157.491 135.62C160.504 136.075 163.767 135.763 164.103 133.536C164.439 131.309 161.283 130.029 158.401 129.594C155.388 129.139 152.105 129.581 151.789 131.677Z" fill="black"/>
<path d="M137.8 147.12C137.721 147.644 137.531 148.017 137.079 148.351C136.626 148.685 136.063 148.868 135.427 148.638C132.978 148 129.777 145.239 128.855 136.256C128.855 136.256 128.855 136.256 128.875 136.125C129.255 128.278 132.656 127.049 139.746 126.243C140.008 126.283 140.27 126.322 140.361 126.604C140.453 126.886 140.413 127.148 140.262 127.259C140.262 127.259 136.851 132.104 137.617 146.556C137.709 146.838 137.82 146.989 137.8 147.12ZM130.204 136.192C131.186 144.782 134.073 146.959 135.756 147.347C136.018 147.387 136.169 147.276 136.169 147.276C136.32 147.165 136.34 147.034 136.379 146.771C135.793 135.562 137.561 130.067 138.571 127.808C132.439 128.49 130.479 129.936 130.204 136.192Z" fill="black"/>
<path d="M139.673 125.829C136.811 125.263 133.699 125.464 131.012 126.398C130.861 126.509 130.619 126.339 130.639 126.208C130.528 126.057 130.678 125.946 130.829 125.834C132.258 125.246 133.798 124.809 135.298 124.633C136.818 124.327 138.41 124.433 140.002 124.539C140.395 124.598 140.618 124.9 140.558 125.293C140.519 125.555 140.066 125.889 139.673 125.829Z" fill="black"/>
<path d="M175.114 169.768C174.916 171.078 173.69 172.099 172.249 171.882C170.808 171.664 169.918 170.458 170.135 169.017C170.333 167.707 171.559 166.686 173 166.903C174.441 167.121 175.331 168.327 175.114 169.768ZM171.577 169.234C171.478 169.889 171.923 170.492 172.578 170.591C173.233 170.69 173.836 170.245 173.935 169.59C174.033 168.935 173.589 168.332 172.934 168.233C172.279 168.134 171.675 168.579 171.577 169.234Z" fill="black"/>
<path d="M192.538 172.397C192.478 172.79 192.177 173.012 191.784 172.953L174.491 170.343C174.098 170.284 173.875 169.982 173.935 169.589C173.994 169.196 174.296 168.974 174.689 169.033L191.981 171.643C192.243 171.683 192.597 172.004 192.538 172.397Z" fill="black"/>
<path d="M205.661 171.565L204.514 179.163C204.336 180.342 203.13 181.232 201.951 181.054L194.614 179.947C193.697 179.809 192.951 179.428 192.395 178.674L189.888 175.75C189.312 175.127 189.169 174.301 189.307 173.384L190.434 165.917C190.652 164.476 192.009 163.475 193.45 163.692L200.131 164.701C201.179 164.859 202.168 165.41 202.855 166.184L204.877 168.767C205.564 169.541 205.819 170.517 205.661 171.565ZM190.617 173.582C190.538 174.106 190.61 174.519 190.963 174.84L193.47 177.764C193.804 178.217 194.308 178.427 194.832 178.506L202.168 179.613C202.692 179.692 203.144 179.359 203.224 178.835L204.37 171.236C204.469 170.581 204.286 170.018 203.841 169.415L201.82 166.832C201.375 166.228 200.628 165.848 199.973 165.749L193.292 164.74C192.506 164.622 191.883 165.198 191.784 165.853L190.617 173.582V173.582Z" fill="black"/>
<path d="M202.322 169.72C202.263 170.113 201.961 170.336 201.568 170.276L197.376 169.644C196.459 169.505 195.685 170.192 195.567 170.978L194.657 177.005C194.598 177.398 194.296 177.62 193.903 177.561C193.51 177.501 193.288 177.2 193.347 176.807L194.257 170.781C194.494 169.209 196.002 168.096 197.574 168.334L201.766 168.966C202.159 169.026 202.381 169.327 202.322 169.72Z" fill="black"/>
<path d="M194.77 167.373C194.75 167.504 194.73 167.635 194.58 167.747C194.278 167.969 193.885 167.91 193.663 167.608L191.51 165.005C191.287 164.704 191.346 164.311 191.648 164.088C191.95 163.866 192.343 163.925 192.565 164.227L194.718 166.83C194.829 166.98 194.809 167.111 194.77 167.373Z" fill="black"/>
<path d="M198.313 176.754C198.234 177.278 197.762 177.743 197.107 177.644L196.714 177.585C196.19 177.506 195.725 177.034 195.824 176.379C195.923 175.724 196.375 175.39 197.03 175.489L197.423 175.548C197.928 175.758 198.392 176.23 198.313 176.754Z" fill="black"/>
<path d="M198.985 172.298C198.906 172.822 198.434 173.287 197.779 173.188L197.386 173.129C196.862 173.05 196.397 172.578 196.496 171.923C196.595 171.268 197.047 170.934 197.702 171.033L198.095 171.092C198.6 171.302 199.064 171.774 198.985 172.298Z" fill="black"/>
<path d="M202.374 177.367C202.295 177.891 201.823 178.355 201.168 178.257L200.775 178.197C200.251 178.118 199.786 177.646 199.885 176.991C199.984 176.336 200.436 176.002 201.091 176.101L201.484 176.16C202.119 176.39 202.453 176.843 202.374 177.367Z" fill="black"/>
<path d="M203.046 172.911C202.967 173.435 202.495 173.899 201.84 173.801L201.446 173.741C200.922 173.662 200.458 173.19 200.557 172.535C200.655 171.88 201.108 171.546 201.763 171.645L202.156 171.704C202.791 171.934 203.125 172.387 203.046 172.911Z" fill="black"/>
<path d="M317.556 134.19C317.497 134.583 317.195 134.805 316.802 134.746C316.409 134.687 316.187 134.385 316.226 134.123C318.1 98.6305 281.799 71.0429 254.609 66.5369C249.396 100.186 239.707 100.465 212.719 96.3915C212.326 96.3322 212.104 96.0307 212.163 95.6376C212.223 95.2446 212.524 95.0222 212.917 95.0815C239.642 99.1153 248.395 98.8286 253.398 65.6842C253.457 65.2912 253.759 65.0687 254.152 65.128C281.925 69.3201 319.457 97.6294 317.556 134.19Z" fill="black"/>
<path d="M328.914 107.765C328.874 108.027 328.703 108.269 328.422 108.361C328.009 108.432 327.767 108.262 327.564 107.829C317.565 66.659 278.864 55.8599 256.626 53.1731C256.364 53.1336 256.082 53.2251 255.911 53.4673C253.032 57.4543 252.359 61.9085 252.154 64.1554C252.095 64.5484 252.448 64.8697 252.841 64.929L254.02 65.107C254.413 65.1663 254.636 65.4679 254.576 65.8609C254.517 66.2539 254.216 66.4764 253.823 66.4171L252.644 66.2391C251.595 66.0809 250.797 65.1565 250.844 63.9576C251.069 61.5798 251.912 56.8833 254.831 52.6343C255.323 52.0386 256.037 51.7444 256.823 51.8631C279.324 54.5894 318.68 65.4874 328.822 107.483C328.953 107.503 328.933 107.634 328.914 107.765Z" fill="black"/>
<path d="M264.379 37.3241L264.359 37.4552C264.339 37.5862 260.985 44.7173 257.493 52.7655C257.302 53.1388 257.021 53.2302 256.628 53.1709C256.235 53.1116 256.163 52.6988 256.222 52.3058C259.715 44.2576 263.089 36.9954 263.089 36.9954C263.279 36.6222 263.692 36.5505 263.934 36.721C264.196 36.7606 264.438 36.9311 264.379 37.3241Z" fill="black"/>
<path d="M174.633 95.7323C174.317 97.8284 173.778 99.6229 173.147 101.136C172.517 102.648 171.383 103.951 170.157 104.972C169.855 105.194 169.462 105.135 169.24 104.834C169.017 104.532 169.076 104.139 169.378 103.916C170.584 103.027 171.417 101.946 172.028 100.565C173.058 98.1745 173.644 95.1811 173.785 91.5846C174.168 81.0572 169.521 76.3361 165.369 75.4414C161.609 74.6059 158.05 76.8825 156.349 81.0474C154.189 86.4829 153.509 91.874 154.599 96.1922C154.671 96.605 154.5 96.8472 154.068 97.0499C153.655 97.1216 153.413 96.951 153.21 96.5185C152.048 91.7874 152.728 86.3964 154.948 80.5679C156.878 75.7677 161.152 73.197 165.566 74.1313C170.112 75.0854 175.355 80.2984 175.004 91.5006C175.028 93.1122 174.831 94.4223 174.633 95.7323Z" fill="black"/>
<g opacity="0.61">
<path opacity="0.61" d="M170.346 104.599C170.327 104.73 170.287 104.992 170.136 105.104C168.629 106.216 166.787 106.876 164.894 106.992C164.481 107.064 164.258 106.762 164.187 106.349C164.115 105.937 164.417 105.714 164.829 105.642C166.441 105.618 168.132 105.069 169.358 104.048C169.659 103.826 170.052 103.885 170.275 104.187C170.406 104.206 170.386 104.337 170.346 104.599Z" fill="black"/>
</g>
<path d="M153.981 84.3069C153.714 82.5247 152.51 80.7352 150.926 79.6921C150.795 79.6723 150.815 79.5413 150.835 79.4103C150.854 79.2793 150.985 79.2991 151.116 79.3188C152.963 80.4015 154.468 81.9686 154.958 84.0523C155.049 84.3341 154.878 84.5763 154.597 84.6678C154.315 84.7592 154.073 84.5887 153.981 84.3069Z" fill="black"/>
<path d="M158.26 76.3773C159.009 74.0785 158.749 71.3595 157.323 69.2684C157.212 69.1176 157.231 68.9866 157.382 68.8753C157.533 68.7641 157.664 68.7839 157.644 68.9149C158.423 69.9703 159.031 71.268 159.246 72.5064C159.441 73.8758 159.505 75.2254 159.177 76.5157C159.137 76.7777 158.836 77.0001 158.574 76.9606C158.443 76.9408 158.22 76.6393 158.26 76.3773Z" fill="black"/>
<path d="M171.828 80.571C172.367 78.7765 173.915 77.4022 175.828 77.155C175.959 77.1747 176.09 77.1945 176.07 77.3255C176.05 77.4565 176.031 77.5875 175.9 77.5678C175.074 77.7111 174.34 78.1363 173.848 78.732C173.356 79.3277 172.975 80.0742 172.726 80.8404C172.686 81.1025 172.385 81.3249 172.142 81.1544C171.88 81.1148 171.789 80.833 171.828 80.571Z" fill="black"/>
<path d="M170.653 99.0181C170.317 101.245 168.115 102.521 164.649 102.4C164.256 102.34 164.034 102.039 163.942 101.757C164.002 101.364 164.303 101.141 164.585 101.05C165.915 101.117 169.027 100.916 169.343 98.8203C169.679 96.5933 166.654 95.3327 163.641 94.8779C160.628 94.4231 157.365 94.7345 157.029 96.9616C156.969 97.3546 156.668 97.5771 156.275 97.5178C155.882 97.4584 155.659 97.1569 155.719 96.7639C156.134 94.0128 159.122 92.8559 163.839 93.5678C168.555 94.2797 171.069 96.267 170.653 99.0181Z" fill="black"/>
<path d="M148.221 78.0773C148.201 78.2083 148.181 78.3393 148.162 78.4704C143.013 92.1642 144.862 97.6688 144.862 97.6688C144.953 97.9506 144.914 98.2126 144.632 98.3041C144.461 98.5463 144.199 98.5068 143.937 98.4672C137.251 95.7162 134.364 93.5385 136.468 85.8166C136.468 85.8166 136.468 85.8166 136.487 85.6856C140.019 77.3754 143.893 75.6822 146.421 75.7959C146.965 75.744 147.581 76.1048 147.914 76.5572C148.097 77.1207 148.28 77.6843 148.221 78.0773ZM143.591 90.1076C144.046 87.0945 145.052 83.0926 146.891 78.0106C146.911 77.8796 146.95 77.6176 146.839 77.4668C146.859 77.3358 146.597 77.2962 146.466 77.2765C144.723 77.2814 141.211 78.3592 137.869 86.2961C136.285 92.3545 137.75 94.1836 143.389 96.7765C143.174 95.5382 143.097 93.3827 143.591 90.1076Z" fill="black"/>
<path d="M143.662 100.301C140.517 99.8265 137.663 98.3236 135.28 96.3561C135.168 96.2053 135.188 96.0743 135.208 95.9433C135.359 95.8321 135.49 95.8518 135.621 95.8716C136.832 96.7244 138.194 97.4659 139.464 97.9257C140.846 98.5362 142.287 98.7537 143.728 98.9712C144.645 99.1096 144.428 100.551 143.662 100.301Z" fill="black"/>
<path d="M190.538 67.5836C190.34 68.8936 189.114 69.9145 187.673 69.697C186.232 69.4795 185.342 68.2732 185.559 66.8322C185.757 65.5221 186.983 64.5013 188.424 64.7188C189.865 64.9363 190.755 66.1425 190.538 67.5836ZM187 67.0497C186.901 67.7047 187.346 68.3078 188.001 68.4067C188.656 68.5056 189.26 68.0606 189.358 67.4056C189.457 66.7506 189.012 66.1475 188.357 66.0486C187.702 65.9497 187.099 66.3947 187 67.0497Z" fill="black"/>
<path d="M207.961 70.2134C207.902 70.6064 207.601 70.8289 207.208 70.7696L189.915 68.1594C189.522 68.1001 189.299 67.7985 189.359 67.4055C189.418 67.0125 189.72 66.79 190.113 66.8494L207.405 69.4595C207.667 69.499 208.021 69.8204 207.961 70.2134Z" fill="black"/>
<path d="M221.402 67.2846L220.255 74.8829C220.097 75.9309 219.565 76.7886 218.68 77.325L215.986 79.1962C215.101 79.7326 213.994 79.9674 212.946 79.8092L206.265 78.8007C204.824 78.5832 203.822 77.2262 204.04 75.7852L205.167 68.3179C205.286 67.5318 205.797 66.8051 206.42 66.2292L209.678 64.1751C210.412 63.7499 211.258 63.4756 212.175 63.614L219.511 64.7213C220.821 64.919 221.6 65.9745 221.402 67.2846ZM205.37 75.8519C205.251 76.6379 205.827 77.2608 206.482 77.3597L213.163 78.3682C213.949 78.4868 214.644 78.3237 215.247 77.8787L217.941 76.0076C218.525 75.6936 218.886 75.0782 218.985 74.4231L220.131 66.8248C220.21 66.3008 219.877 65.8485 219.353 65.7694L212.016 64.662C211.492 64.5829 210.929 64.7658 210.496 64.9685L207.238 67.0226C206.806 67.2253 206.596 67.7296 206.536 68.1226L205.37 75.8519V75.8519Z" fill="black"/>
<path d="M216.539 75.5272C216.48 75.9203 216.178 76.1427 215.785 76.0834L211.593 75.4506C210.021 75.2134 208.909 73.7056 209.146 72.1335L210.056 66.1072C210.115 65.7142 210.416 65.4918 210.809 65.5511C211.202 65.6104 211.425 65.912 211.366 66.305L210.456 72.3312C210.318 73.2483 211.005 74.0219 211.791 74.1406L215.983 74.7734C216.376 74.8327 216.598 75.1342 216.539 75.5272Z" fill="black"/>
<path d="M208.612 75.6718C208.593 75.8028 208.422 76.0451 208.271 76.1563L205.446 78.0077C205.144 78.2302 204.751 78.1708 204.529 77.8693C204.306 77.5677 204.366 77.1747 204.667 76.9523L207.493 75.1009C207.794 74.8784 208.187 74.9377 208.41 75.2393C208.672 75.2788 208.652 75.4098 208.612 75.6718Z" fill="black"/>
<path d="M214.784 67.6255C214.705 68.1495 214.233 68.6142 213.578 68.5154L213.185 68.456C212.661 68.3769 212.196 67.9048 212.295 67.2498C212.394 66.5948 212.846 66.2611 213.501 66.36L213.894 66.4193C214.418 66.4984 214.863 67.1015 214.784 67.6255Z" fill="black"/>
<path d="M214.112 72.0796C214.033 72.6036 213.561 73.0683 212.906 72.9695L212.513 72.9101C211.989 72.831 211.524 72.3589 211.623 71.7039C211.722 71.0489 212.174 70.7152 212.829 70.8141L213.222 70.8734C213.746 70.9525 214.191 71.5556 214.112 72.0796Z" fill="black"/>
<path d="M218.845 68.2388C218.765 68.7628 218.293 69.2275 217.638 69.1286L217.245 69.0693C216.721 68.9902 216.257 68.5181 216.355 67.8631C216.454 67.2081 216.907 66.8744 217.562 66.9732L217.955 67.0326C218.61 67.1314 218.924 67.7148 218.845 68.2388Z" fill="black"/>
<path d="M218.173 72.6929C218.094 73.2169 217.621 73.6816 216.966 73.5827L216.573 73.5234C216.049 73.4443 215.585 72.9722 215.684 72.3172C215.782 71.6622 216.235 71.3285 216.89 71.4273L217.283 71.4867C217.938 71.5855 218.252 72.1689 218.173 72.6929Z" fill="black"/>
<path d="M301.225 168.706C301.206 168.837 301.186 168.968 301.035 169.079C296.635 173.372 291.509 177.154 285.656 180.424C285.354 180.647 284.981 180.457 284.758 180.155C284.536 179.853 284.726 179.48 285.028 179.258C290.73 176.099 295.857 172.317 300.106 168.135C300.407 167.912 300.82 167.84 301.043 168.142C301.154 168.293 301.245 168.574 301.225 168.706Z" fill="black"/>
<path d="M253.329 190.418C253.289 190.68 253.119 190.922 252.706 190.994C246.443 191.656 240.56 191.572 235.057 190.742C234.664 190.682 234.442 190.381 234.501 189.988C235.51 183.307 235.908 178.007 235.905 173.585C235.834 173.172 236.135 172.95 236.548 172.878C236.941 172.937 237.183 173.108 237.255 173.521C237.277 177.812 236.899 182.98 235.93 189.4C241.039 190.171 246.66 190.215 252.531 189.493C252.943 189.422 253.166 189.723 253.238 190.136C253.349 190.287 253.349 190.287 253.329 190.418Z" fill="black"/>
<path d="M235.797 163.652C235.758 163.914 235.607 164.026 235.325 164.117C235.043 164.209 234.67 164.018 234.448 163.717C231.108 154.771 222.469 152.529 204.915 149.88C204.522 149.82 204.299 149.519 204.358 149.126C204.418 148.733 204.719 148.51 205.112 148.57C221.619 151.061 231.889 153.147 235.726 163.24C235.686 163.502 235.797 163.652 235.797 163.652Z" fill="black"/>
<path d="M313.86 179.988C313.84 180.119 313.821 180.25 313.69 180.231C296.486 201.886 268.144 210.337 233.959 204.24C233.173 204.121 232.577 203.629 232.283 202.915C230.617 197.974 231.329 193.257 231.816 190.919C231.974 189.871 233.03 189.092 234.209 189.27L235.388 189.448C235.781 189.508 236.003 189.809 235.944 190.202C235.885 190.595 235.583 190.818 235.19 190.758L234.011 190.58C233.618 190.521 233.316 190.743 233.126 191.117C232.659 193.324 232.118 197.798 233.561 202.438C233.653 202.719 233.895 202.89 234.157 202.929C267.949 208.968 295.858 200.719 312.609 179.398C312.78 179.155 313.193 179.084 313.566 179.274C313.788 179.576 313.9 179.726 313.86 179.988Z" fill="black"/>
<path d="M236.754 220.34C236.714 220.602 236.544 220.844 236.131 220.916C235.718 220.987 235.496 220.686 235.404 220.404C235.424 220.273 234.324 212.469 233.363 203.749C233.291 203.336 233.593 203.114 234.005 203.042C234.418 202.97 234.641 203.272 234.712 203.685C235.674 212.405 236.754 220.34 236.754 220.34C236.754 220.34 236.754 220.34 236.754 220.34Z" fill="black"/>
<path d="M236.525 185.469C236.505 185.6 236.485 185.731 236.334 185.842C232.073 189.218 227.473 190.4 222.947 189.315C217 187.881 212.242 183.009 209.762 179.017C209.241 183.36 206.598 185.775 204.265 187.031C203.531 187.456 202.594 187.449 201.867 186.937C201.141 186.425 200.866 185.58 201.005 184.663C201.531 182.063 200.439 180.424 200.439 180.424C200.216 180.122 200.407 179.749 200.708 179.527C201.01 179.304 201.383 179.494 201.605 179.796C201.586 179.927 202.75 181.979 202.295 184.992C202.236 185.385 202.327 185.667 202.7 185.857C203.074 186.047 203.336 186.087 203.768 185.884C206.102 184.628 208.915 181.971 208.638 176.704C208.677 176.442 208.868 176.069 209.149 175.977C209.431 175.886 209.804 176.076 209.896 176.358C211.609 180.1 216.805 186.512 223.387 188.175C227.52 189.201 231.707 188.091 235.667 184.937C235.968 184.715 236.361 184.774 236.584 185.076C236.564 185.207 236.544 185.338 236.525 185.469Z" fill="black"/>
<path d="M195.186 164.623C195.146 164.885 194.995 164.997 194.845 165.108C194.543 165.33 194.17 165.14 193.947 164.838C191.972 161.057 188.304 160.503 188.304 160.503C187.911 160.444 187.689 160.142 187.748 159.749C187.807 159.356 188.109 159.134 188.502 159.193C188.633 159.213 192.956 159.865 195.114 164.211C195.225 164.361 195.206 164.492 195.186 164.623Z" fill="black"/>
<path d="M239.054 90.583C238.956 91.238 238.464 91.8337 237.9 92.0166C237.186 92.3108 236.289 92.0414 235.844 91.4382C232.912 87.78 228.164 86.3933 224.325 86.0819C233.913 89.137 235.683 95.1657 235.91 97.2099C235.982 97.6227 235.68 97.8452 235.399 97.9366C234.986 98.0083 234.763 97.7067 234.672 97.425C234.106 93.1858 229.649 88.0915 219.339 86.2673C219.077 86.2278 218.855 85.9262 218.763 85.6444C218.803 85.3824 218.993 85.0092 219.275 84.9177C222.99 84.2726 232.299 84.7397 237.03 90.6794C237.253 90.981 237.534 90.8895 237.665 90.9093C237.796 90.929 237.947 90.8178 238.006 90.4248C238.016 86.8086 236.506 83.4988 233.698 80.7972C230.163 77.5838 225.062 75.8758 219.755 76.4147C219.342 76.4864 219.119 76.1848 219.048 75.7721C218.976 75.3593 219.278 75.1368 219.69 75.0651C225.39 74.5856 230.885 76.3529 234.642 79.8678C237.692 82.74 239.405 86.4823 239.356 90.3605C239.094 90.321 239.074 90.452 239.054 90.583Z" fill="black"/>
<path d="M212.671 78.9614C212.632 79.2234 212.481 79.3346 212.199 79.4261C211.203 79.8117 210.318 80.3481 209.413 81.0154C207.473 82.3305 205.402 83.6257 201.471 83.0325C201.078 82.9731 200.856 82.6716 200.915 82.2786C200.975 81.8855 201.276 81.6631 201.669 81.7224C205.206 82.2563 206.845 81.1638 208.635 79.96C209.539 79.2926 210.424 78.7562 211.702 78.2791C211.984 78.1877 212.377 78.247 212.58 78.6796C212.691 78.8303 212.671 78.9614 212.671 78.9614Z" fill="black"/>
<path d="M74.4632 62.5231C74.4236 62.7852 74.1023 63.1386 73.8403 63.0991C60.1613 63.1782 48.712 68.0156 42.6314 76.3431C36.7411 84.2974 35.0134 96.6317 38.1353 107.018C41.1337 116.448 51.0135 122.897 58.8862 124.889C59.2792 124.949 59.4819 125.381 59.3113 125.623C59.252 126.016 58.8194 126.219 58.5772 126.049C49.9383 123.807 39.9472 117.207 36.897 107.233C33.5921 96.2832 35.3396 83.8179 41.571 75.3791C47.8419 66.6784 59.7238 61.6383 73.7958 61.6185C74.1888 61.6778 74.5423 61.9991 74.4632 62.5231C74.483 62.3921 74.483 62.3921 74.4632 62.5231Z" fill="black"/>
<path d="M45.9303 113.957C47.972 116.409 50.7676 118.305 53.6819 119.415C54.0551 119.605 54.1466 119.887 54.0873 120.28C53.8969 120.653 53.5954 120.875 53.2221 120.685C50.0854 119.274 47.4604 117.136 45.4582 114.422C45.2357 114.12 45.7078 113.655 45.9303 113.957Z" fill="black"/>
<path d="M88.5111 153.211C85.2112 151.105 82.2327 148.645 79.8771 145.61C79.7658 145.459 79.7856 145.328 79.9364 145.217C80.0872 145.106 80.2182 145.125 80.3294 145.276C81.5925 146.673 83.0064 147.958 84.44 149.112C85.8737 150.267 87.4581 151.31 89.2131 152.111C89.9596 152.491 89.2576 153.591 88.5111 153.211Z" fill="black"/>
<path d="M92.9967 154.56L92.9769 154.691C92.7866 155.064 92.3738 155.136 92.1315 154.965C90.8808 154.374 89.7611 153.803 88.5301 153.082C88.1569 152.891 88.0852 152.478 88.2557 152.236C88.4461 151.863 88.8589 151.791 89.1011 151.962C90.201 152.664 91.3208 153.235 92.5913 153.695C92.8335 153.865 93.056 154.167 92.9967 154.56Z" fill="black"/>
<path d="M102.958 157.804C99.2702 157.381 95.5303 156.415 92.0006 154.944C91.6274 154.754 91.5359 154.472 91.5952 154.079C91.7856 153.705 92.0673 153.614 92.4604 153.673C95.8195 155.386 99.2578 156.575 103.037 157.28C103.41 157.47 103.351 157.863 102.958 157.804Z" fill="black"/>
<path d="M243.462 127.961C243.403 128.354 243.101 128.576 242.708 128.517C240.481 128.181 235.928 128.164 232.821 130.107C231.634 130.865 231.004 132.378 231.35 133.636C231.931 136.002 233.644 139.744 238.239 143.921C238.462 144.223 238.533 144.636 238.232 144.858C237.93 145.081 237.517 145.152 237.295 144.851C232.477 140.372 230.653 136.479 229.961 133.963C229.452 132.01 230.292 129.993 232.062 128.92C235.451 126.886 240.305 126.681 242.775 127.187C243.299 127.266 243.521 127.568 243.462 127.961Z" fill="black"/>
<path d="M273.404 175.491C273.384 175.622 273.214 175.864 273.063 175.975C259.718 183.608 242.301 180.042 236.09 174.146C233.877 171.937 232.753 169.623 232.847 167.225C232.921 164.959 234.174 162.87 236.285 161.313C236.586 161.09 236.979 161.15 237.202 161.451C237.424 161.753 237.365 162.146 237.064 162.368C235.254 163.703 234.172 165.549 234.045 167.272C233.88 169.257 234.913 171.289 236.923 173.066C242.539 178.469 259.562 181.977 272.324 174.658C272.625 174.435 272.999 174.626 273.221 174.927C273.444 175.229 273.424 175.36 273.404 175.491Z" fill="black"/>
<path d="M325.664 137.288C325.644 137.419 325.624 137.55 325.493 137.53C325.342 137.642 313.503 153.943 312.032 171.676C311.992 171.938 311.842 172.049 311.691 172.16C311.54 172.272 311.278 172.232 311.147 172.212C310.643 172.002 310.138 171.792 309.634 171.582C303.976 169.12 300.355 167.368 292.816 172.929C291.158 174.153 289.551 175.92 287.754 178.061C286.127 179.959 284.219 181.949 282.009 184.161C274.063 191.537 264.966 194.988 257.447 193.317C253.688 192.481 251.043 190.474 249.977 187.768C249.409 186.208 249.646 184.636 250.519 183.294C251.542 181.84 253.141 181.01 254.884 181.005C257.694 181.027 261.39 180.513 263.599 178.301C263.901 178.078 264.314 178.007 264.536 178.308C264.759 178.61 264.83 179.022 264.529 179.245C262.129 181.83 257.89 182.396 254.948 182.354C253.618 182.288 252.432 183.047 251.599 184.127C250.917 185.096 250.739 186.275 251.236 187.422C252.098 189.696 254.521 191.401 257.756 192.158C264.882 193.769 273.546 190.521 281.191 183.368C283.381 181.286 285.309 179.166 286.916 177.398C288.844 175.278 290.47 173.379 292.129 172.156C300.271 166.149 304.396 168.112 310.166 170.724C310.428 170.764 310.67 170.934 310.801 170.954C312.479 155.397 321.605 141.097 323.973 137.837L316.743 135.138C312.931 133.759 309.37 131.613 306.169 128.852C301.514 125.068 293.461 119.833 280.82 116.585C277.716 115.848 274.532 115.636 271.138 115.927C266.657 116.323 260.361 116.31 255.136 113.646C254.016 113.075 252.948 113.048 251.801 113.544C250.654 114.041 249.802 115.252 249.453 116.674C248.756 119.516 249.886 123.573 254.849 126.198C254.98 126.217 254.98 126.217 254.96 126.348C256.466 127.915 258.745 128.795 261.686 128.837C264.758 128.899 267.764 130.291 269.675 132.723C271.494 134.874 272.167 137.521 271.751 140.272C271.217 143.809 268.849 147.069 265.27 149.477C260.203 152.866 252.904 154.176 246.937 152.873C244.356 152.216 241.867 151.84 239.712 151.917C238.362 151.981 237.065 152.589 236.232 153.669C235.399 154.749 234.939 156.02 235.154 157.258C235.616 160.41 237.841 163.425 241.272 165.551C247.629 169.593 256.918 170.191 266.761 167.121C267.043 167.029 267.416 167.22 267.638 167.521C267.71 167.934 267.539 168.176 267.238 168.399C257.113 171.56 247.431 170.903 240.701 166.671C236.916 164.224 234.469 160.907 233.915 157.473C233.629 155.822 234.148 154.159 235.282 152.856C236.417 151.553 238.016 150.723 239.759 150.718C242.045 150.661 244.665 151.057 247.377 151.734C253.062 153.128 259.817 151.87 264.603 148.572C267.88 146.387 269.927 143.48 270.421 140.205C270.421 140.205 270.421 140.205 270.441 140.074C270.797 137.716 270.196 135.482 268.6 133.633C266.892 131.633 264.279 130.301 261.6 130.298C258.396 130.217 255.724 129.277 253.996 127.409C248.417 124.423 247.236 119.823 248.012 116.456C248.42 114.642 249.574 113.208 251.023 112.489C252.451 111.901 254.063 111.876 255.425 112.618C260.408 115.112 266.442 115.084 270.772 114.8C274.317 114.397 277.763 114.649 280.978 115.537C293.75 118.804 302.046 124.21 306.811 128.145C309.901 130.755 313.352 132.75 317.032 134.11L325.14 137.209C325.402 137.249 325.513 137.399 325.473 137.661C325.683 137.157 325.683 137.157 325.664 137.288Z" fill="black"/>
<path d="M329.961 131.904C329.942 132.035 329.922 132.166 329.771 132.277L325.475 137.658C325.304 137.901 324.892 137.972 324.518 137.782C324.276 137.611 324.205 137.199 324.395 136.825L328.691 131.444C328.861 131.202 329.274 131.13 329.647 131.321C330.021 131.511 329.981 131.773 329.961 131.904Z" fill="black"/>
<path d="M322.348 182.343C322.329 182.474 322.329 182.474 322.309 182.605C322.118 182.978 321.706 183.05 321.352 182.729C321.352 182.729 317.81 180.452 311.032 177.419C310.77 177.38 310.679 177.098 310.699 176.967C310.36 174.772 310.835 171.628 310.854 171.497C310.914 171.104 311.215 170.881 311.608 170.941C312.001 171 312.204 171.432 312.164 171.694C312.164 171.694 311.749 174.446 311.996 176.359C318.643 179.372 322.074 181.498 322.185 181.648C322.277 181.93 322.368 182.212 322.348 182.343Z" fill="black"/>
<path d="M278.096 115.101C278.037 115.494 277.735 115.716 277.342 115.657C276.949 115.597 276.727 115.296 276.786 114.903C276.806 114.772 279.325 97.1973 280.857 76.3921C280.917 75.9991 281.218 75.7767 281.611 75.836C282.004 75.8953 282.227 76.1969 282.167 76.5899C280.655 97.264 278.136 114.839 278.096 115.101Z" fill="black"/>
<path d="M260.507 114.457C260.468 114.719 260.297 114.961 259.884 115.033C259.472 115.104 259.249 114.803 259.158 114.521C259.158 114.521 258.201 107.543 257.541 98.6002C257.469 98.1874 257.771 97.965 258.184 97.8933C258.597 97.8216 258.819 98.1232 258.891 98.536C259.551 107.479 260.527 114.326 260.527 114.326L260.507 114.457Z" fill="black"/>
<path d="M257.974 84.1919L258.891 98.5333C258.903 99.3391 257.665 99.5541 257.541 98.5975L257.299 84.224C257.247 83.6802 257.922 83.6481 257.974 84.1919Z" fill="black"/>
<path d="M291.432 89.7813C291.393 90.0433 291.091 90.2658 290.809 90.3573C290.397 90.429 290.174 90.1274 290.102 89.7146C289.838 85.253 289.598 82.403 289.598 82.403C289.527 81.9902 289.828 81.7678 290.241 81.6961C290.654 81.6244 290.876 81.926 290.948 82.3387C290.948 82.3387 291.188 85.1887 291.452 89.6503C291.432 89.7813 291.432 89.7813 291.432 89.7813Z" fill="black"/>
<path d="M291.721 110.056L290.102 89.7132C289.958 88.8876 291.328 88.6923 291.451 89.6489L292.527 110.044C292.447 110.568 291.642 110.58 291.721 110.056Z" fill="black"/>
<path d="M340.974 58.936L316.257 222.693C315.387 228.457 309.959 232.462 304.195 231.592L10.4804 187.259C4.7162 186.389 0.711856 180.961 1.5819 175.196L26.2991 11.4394C27.1692 5.67515 32.5972 1.67081 38.3615 2.54086L332.207 46.8935C337.971 47.7635 341.845 53.1718 340.974 58.936ZM2.89196 175.394C2.12078 180.503 5.56897 185.177 10.6782 185.949L304.524 230.301C309.633 231.072 314.307 227.624 315.078 222.515L339.795 58.7581C340.567 53.6489 337.118 48.9747 332.009 48.2035L38.1638 3.85091C33.0545 3.07973 28.3804 6.52792 27.6092 11.6371L2.89196 175.394Z" fill="black"/>
</g>
<defs>
<clipPath id="clip0_365_7089">
<rect width="186.81" height="319.3" fill="white" transform="translate(0 185.677) rotate(-81.4166)"/>
</clipPath>
</defs>
</svg>
