<svg width="32" height="32" viewBox="0 0 32 32" fill="none" xmlns="http://www.w3.org/2000/svg">
<g clip-path="url(#clip0_1018_5641)">
<rect width="32" height="32" fill="#411D0E"/>
<g clip-path="url(#clip1_1018_5641)">
<path d="M26.2035 20.5762L16.2589 27.1577C14.7119 28.1814 12.6309 27.7579 11.6071 26.211L5.02565 16.2664C4.00185 14.7195 4.42535 12.6384 5.97228 11.6146L15.9169 5.03317C17.4638 4.00938 19.5449 4.43288 20.5687 5.97983L27.1501 15.9244C28.2108 17.447 27.7872 19.5281 26.2035 20.5762Z" fill="#F1F0EE"/>
<path d="M17.011 4.84174C17.2553 5.05082 17.4872 5.32109 17.6822 5.61573L24.2636 15.5604C25.2874 17.1073 24.8639 19.1883 23.317 20.2121L13.3723 26.7936C13.0777 26.9886 12.7587 27.1468 12.4521 27.2437C13.5761 28.1418 15.1804 28.2452 16.4327 27.4164L26.3773 20.8349C27.9243 19.8112 28.3478 17.7301 27.324 16.1832L20.7425 6.23854C19.9262 4.92506 18.3722 4.41757 17.011 4.84174Z" fill="#53B4BA"/>
<path d="M17.3438 17.9119C18.3609 17.2387 18.6397 15.8686 17.9666 14.8515C17.2935 13.8344 15.9233 13.5555 14.9062 14.2287C13.8891 14.9018 13.6103 16.2719 14.2834 17.289C14.9565 18.3061 16.3267 18.585 17.3438 17.9119Z" fill="#414047"/>
<path d="M23.4629 19.1572C24.48 18.4841 24.7588 17.1139 24.0857 16.0968C23.4126 15.0798 22.0424 14.8009 21.0253 15.474C20.0083 16.1471 19.7294 17.5173 20.4025 18.5344C21.0757 19.5515 22.4459 19.8303 23.4629 19.1572Z" fill="#414047"/>
<path d="M11.2207 16.665C12.2378 15.9919 12.5167 14.6217 11.8436 13.6046C11.1704 12.5876 9.80026 12.3087 8.78315 12.9819C7.76607 13.655 7.48723 15.0252 8.16036 16.0422C8.83349 17.0593 10.2036 17.3382 11.2207 16.665Z" fill="#414047"/>
<path d="M26.2035 20.5762L16.2589 27.1577C14.7119 28.1814 12.6309 27.7579 11.6071 26.211L5.02565 16.2664C4.00185 14.7195 4.42535 12.6384 5.97228 11.6146L15.9169 5.03317C17.4638 4.00938 19.5449 4.43288 20.5687 5.97983L27.1501 15.9244C28.2108 17.447 27.7872 19.5281 26.2035 20.5762Z" stroke="#010202" stroke-width="0.574176" stroke-miterlimit="10"/>
<path d="M17.3438 17.9119C18.3609 17.2387 18.6397 15.8686 17.9666 14.8515C17.2935 13.8344 15.9233 13.5555 14.9062 14.2287C13.8891 14.9018 13.6103 16.2719 14.2834 17.289C14.9565 18.3061 16.3267 18.585 17.3438 17.9119Z" stroke="#010202" stroke-width="0.574176" stroke-miterlimit="10"/>
<path d="M23.4629 19.1572C24.48 18.4841 24.7588 17.1139 24.0857 16.0968C23.4126 15.0798 22.0424 14.8009 21.0253 15.474C20.0083 16.1471 19.7294 17.5173 20.4025 18.5344C21.0757 19.5515 22.4459 19.8303 23.4629 19.1572Z" stroke="#010202" stroke-width="0.574176" stroke-miterlimit="10"/>
<path d="M11.2207 16.665C12.2378 15.9919 12.5167 14.6217 11.8436 13.6046C11.1704 12.5876 9.80026 12.3087 8.78315 12.9819C7.76607 13.655 7.48723 15.0252 8.16036 16.0422C8.83349 17.0593 10.2036 17.3382 11.2207 16.665Z" stroke="#010202" stroke-width="0.574176" stroke-miterlimit="10"/>
</g>
</g>
<defs>
<clipPath id="clip0_1018_5641">
<rect width="32" height="32" fill="white"/>
</clipPath>
<clipPath id="clip1_1018_5641">
<rect width="22" height="22" fill="white" transform="translate(16 0.443604) rotate(45)"/>
</clipPath>
</defs>
</svg>
