<svg width="262" height="267" viewBox="0 0 262 267" fill="none" xmlns="http://www.w3.org/2000/svg">
<path opacity="0.78" d="M26.217 141.66C40.3873 184.425 86.5425 207.606 129.308 193.436C172.073 179.266 195.254 133.11 181.083 90.3452C166.913 47.5801 120.758 24.3994 77.9926 38.5696C35.2275 52.7398 12.0468 98.8951 26.217 141.66Z" fill="black" fill-opacity="0.36"/>
<path d="M80.9904 176.446C95.1607 219.211 141.316 242.392 184.081 228.222C226.846 214.052 250.027 167.897 235.857 125.131C221.686 82.3662 175.531 59.1855 132.766 73.3557C90.0009 87.526 66.8202 133.681 80.9904 176.446Z" fill="#D31A2B"/>
<path opacity="0.64" d="M92.2551 172.715C104.364 209.26 143.806 229.069 180.351 216.96C216.895 204.851 236.705 165.409 224.595 128.864C212.486 92.3197 173.044 72.5108 136.5 84.6199C99.9549 96.729 80.146 136.171 92.2551 172.715Z" fill="#790E17"/>
<path d="M80.9904 176.446C95.1607 219.211 141.316 242.392 184.081 228.222C226.846 214.052 250.027 167.897 235.857 125.131C221.686 82.3662 175.531 59.1855 132.766 73.3557C90.0009 87.526 66.8202 133.681 80.9904 176.446Z" stroke="#010202" stroke-width="6.42698" stroke-miterlimit="10"/>
<path d="M97.416 171.003C108.58 204.697 144.945 222.961 178.639 211.796C212.333 200.632 230.596 164.267 219.432 130.573C208.267 96.8796 171.903 78.616 138.209 89.7804C104.515 100.945 86.2515 137.31 97.416 171.003Z" stroke="#010202" stroke-width="6.42698" stroke-miterlimit="10"/>
<path d="M126.981 161.208C132.735 178.573 151.476 187.986 168.842 182.232C186.207 176.478 195.62 157.736 189.866 140.371C184.112 123.006 165.37 113.593 148.005 119.347C130.639 125.101 121.227 143.843 126.981 161.208Z" stroke="#010202" stroke-width="6.42698" stroke-miterlimit="10"/>
</svg>
