<svg width="316" height="346" viewBox="0 0 316 346" fill="none" xmlns="http://www.w3.org/2000/svg">
<path opacity="0.78" d="M204.579 56.5702C242.316 87.2799 255.345 158.228 238.615 178.539C233.596 184.428 226.171 187.687 218.141 189.268L192.767 205.407L123.685 285.099C121.771 286.663 88.474 299.826 85.7185 300.673C77.0908 302.616 55.6342 304.954 33.7589 286.311C11.1665 268.508 12.0691 248.361 12.1648 239.728C12.2776 237.21 12.9889 234.33 14.5416 232.167L85.3214 116.738L95.913 88.291C95.5287 79.539 97.7871 72.4581 102.925 66.0887C118.215 45.4218 166.48 25.2619 204.579 56.5702Z" fill="black" fill-opacity="0.36"/>
<path d="M248.959 62.2142C286.696 92.9239 303.242 135.204 286.874 156.114C281.854 162.003 274.429 165.262 266.4 166.843L241.025 182.982L141.041 274.391C139.127 275.956 136.732 277.401 133.977 278.248C125.349 280.191 103.893 282.529 82.0173 263.886C59.4249 246.083 60.3275 225.936 60.4231 217.303C60.536 214.785 61.2473 211.905 62.8 209.742L133.58 94.3134L144.171 65.8661C143.787 57.114 146.045 50.0331 151.183 43.6637C166.112 22.3983 210.861 30.9059 248.959 62.2142Z" fill="#D31A2B"/>
<path opacity="0.64" d="M261.962 166.256C237.625 167.883 221.047 156.658 201.114 146.642C194.548 156.733 186.299 165.389 178.648 173.685C168.248 184.865 124.15 237.628 104.495 240.92C80.2831 244.106 68.9611 226.032 65.0584 202.661L61.4788 208.906C60.4061 211.188 58.7347 213.83 59.1019 216.467C59.0062 225.101 58.5836 245.366 80.696 263.05C103.288 280.852 124.508 279.474 132.656 277.413C135.411 276.565 137.805 275.12 139.719 273.556L239.704 182.146L265.079 166.007C267.834 165.16 270.951 164.912 273.706 164.065C270.234 165.753 266.157 165.765 261.962 166.256Z" fill="#790E17"/>
<path opacity="0.64" d="M235.407 145.947C248.289 79.3627 204.313 47.1118 169.412 44.0924C165.934 43.7424 162.343 45.9108 161.631 48.7905C152.124 79.0336 182.933 119.235 200.59 130.217C223.899 147.178 235.051 147.387 235.407 145.947Z" fill="#790E17"/>
<path d="M256.636 148.645C264.309 148.503 271.378 146.685 276.404 142.834C278.318 141.27 280.243 143.782 278.329 145.346C272.231 151.479 264.563 153.658 256.291 154.161C254.733 154.286 252.932 153.332 253.406 151.412C254.241 150.09 255.077 148.769 256.636 148.645Z" fill="#010202"/>
<path d="M259.402 151.874C259.046 153.313 258.448 153.675 256.889 153.799C237.827 154.692 214.298 144.806 194.466 128.195C172.834 110.629 158.502 88.2473 156.886 67.9877C156.762 66.4293 157.716 64.628 159.636 65.1022C161.195 64.9779 162.996 65.9322 162.522 67.852C164.132 86.0732 177.622 107.738 198.532 124.107C217.64 139.521 240.209 149.17 258.075 149C259.633 148.875 260.356 150.072 260.96 151.749C259.521 151.394 259.402 151.874 259.402 151.874Z" fill="#010202"/>
<path d="M165.109 49.1405C161.648 54.9057 161.665 61.0206 162.642 67.3729C163.252 71.0883 157.617 71.2241 156.889 67.9887C156.629 60.7951 157.927 53.477 162.105 46.8705C162.704 46.5091 163.901 45.7863 164.381 45.9049C164.386 47.9433 165.228 48.6605 165.109 49.1405Z" fill="#010202"/>
<path d="M202.748 173.017C208.389 174.92 213.431 177.184 219.428 177.646C221.828 178.239 220.998 181.599 218.959 181.604C212.844 181.622 207.085 180.199 201.325 178.776C199.886 178.421 199.281 176.744 199.518 175.784C199.033 173.627 201.308 172.661 202.748 173.017Z" fill="#010202"/>
<path d="M204.916 176.608C204.798 177.088 204.798 177.088 204.916 176.608C204.442 178.528 202.884 178.652 200.964 178.178C189.801 173.893 177.553 167.812 168.298 159.924C158.202 151.319 148.941 141.393 143.396 130.857C142.312 129.062 142.549 128.102 144.344 127.018C146.14 125.933 147.1 126.17 148.184 127.966C154.328 138.141 162.149 147.711 171.884 155.718C180.659 163.487 192.189 170.409 202.63 173.497C204.188 173.373 205.272 175.168 204.916 176.608Z" fill="#010202"/>
<path d="M139.017 109.406C141.434 116.114 144.687 121.501 148.301 127.486C150.108 130.479 145.32 133.37 143.513 130.377C140.616 123.551 137.6 117.204 136.86 109.892C136.138 108.695 138.893 107.848 139.017 109.406Z" fill="#010202"/>
<path d="M294.521 145.781C293.454 150.1 291.907 154.301 287.96 157.91C278.757 168.367 263.421 172.727 243.506 168.826C223.952 165.524 203.658 154.909 184.549 139.495C165.802 124.68 151.6 105.894 144.355 87.8087C137.229 69.2433 138.143 53.1732 146.623 41.5185C155.827 31.0608 171.162 26.7011 191.078 30.602C210.632 33.9044 230.926 44.5192 250.034 59.9333C283.084 86.9392 300.33 122.263 294.521 145.781ZM284.594 155.042C300.246 134.973 284.665 94.9684 247.409 64.3772C229.621 49.7987 209.808 39.3024 190.734 36.1186C173.099 33.2904 158.599 36.3289 151.31 45.2224C143.541 53.9974 142.864 69.1075 149.985 85.6345C156.389 103.003 170.709 121.308 188.733 134.927C206.52 149.505 226.334 160.002 245.408 163.185C262.325 166.855 276.345 163.698 284.594 155.042Z" fill="#010202"/>
<path d="M274.297 118.378C261.128 83.0431 219.907 49.945 182.132 48.2526C180.093 48.2584 180.325 45.2601 182.244 45.7343C214.497 45.0441 244.526 63.665 262.946 90.1124C269.446 98.8473 274.387 107.706 276.815 118.491C276.696 118.971 274.901 120.055 274.297 118.378Z" fill="#010202"/>
<path d="M212.101 87.7374C205.251 82.4808 198.165 78.184 190.243 75.2086C189.763 75.09 188.921 74.3731 189.277 72.9333C189.396 72.4533 190.113 71.6117 191.553 71.9674C200.553 74.6999 207.758 78.5168 215.686 83.5306C217.008 84.3662 217.132 85.9247 216.776 87.3646C214.981 88.4488 212.942 88.4545 212.101 87.7374Z" fill="#010202"/>
<path d="M233.963 102.305C233.127 103.626 229.525 101.718 228.204 100.882C226.16 98.8496 223.754 96.2183 221.591 94.6656C218.587 92.3959 215.945 90.7247 212.941 88.4549C211.619 87.6193 211.495 86.0608 212.331 84.7395C213.166 83.4181 214.725 83.2939 216.046 84.1296C219.05 86.3993 221.693 88.0707 224.578 90.8204C226.622 92.8531 229.745 94.6427 231.67 97.1553C235.154 99.5437 234.68 101.464 233.963 102.305Z" fill="#010202"/>
<path d="M246.607 121.214C241.429 113.315 235.895 106.856 228.685 101.001C225.799 98.2509 229.746 94.6425 232.151 97.2736C239.007 104.569 244.54 111.028 249.481 119.887C249.843 120.486 249.487 121.926 248.889 122.287C248.889 122.287 247.449 121.931 246.607 121.214Z" fill="#010202"/>
<path d="M268.201 167.797C268.083 168.277 267.845 169.237 267.247 169.598L241.511 185.139L141.645 276.068C139.132 277.994 136.738 279.439 133.983 280.287C126.913 282.105 103.78 285.048 80.1032 265.45C55.9467 245.733 57.2049 224.147 57.5434 216.592C57.8933 213.113 58.4861 210.714 60.1574 208.071L130.457 92.5235L140.93 64.556C141.286 63.1161 142.963 62.5119 144.883 62.9861C146.323 63.3418 146.927 65.0188 146.453 66.9386L135.861 95.3863L135.742 95.8662L64.9628 211.295C64.0086 213.096 63.4157 215.496 62.9415 217.416C62.8401 224.011 61.9376 244.158 84.05 261.841C106.642 279.644 127.738 276.707 133.61 275.611C135.648 275.606 137.562 274.041 138.997 272.359L238.862 181.429C238.862 181.429 238.862 181.429 239.461 181.068L264.836 164.929C266.631 163.845 267.591 164.082 268.675 165.877C268.557 166.357 268.32 167.317 268.201 167.797Z" fill="#010202"/>
</svg>
