<svg width="278" height="281" viewBox="0 0 278 281" fill="none" xmlns="http://www.w3.org/2000/svg">
<path opacity="0.78" d="M241.967 118.925C222.495 78.2982 173.776 61.1487 133.15 80.6202C92.5233 100.092 75.3738 148.811 94.8453 189.437C114.317 230.064 163.036 247.213 203.662 227.742C244.289 208.27 261.438 159.551 241.967 118.925Z" fill="black" fill-opacity="0.36"/>
<path d="M183.229 91.3554C163.757 50.7289 115.038 33.5794 74.4116 53.0509C33.7851 72.5224 16.6355 121.241 36.107 161.868C55.5785 202.494 104.298 219.644 144.924 200.172C185.551 180.701 202.7 131.982 183.229 91.3554Z" fill="#D31A2B"/>
<path opacity="0.64" d="M172.528 96.4814C155.888 61.7642 114.256 47.1091 79.5387 63.7484C44.8215 80.3877 30.1662 122.02 46.8055 156.738C63.4448 191.455 105.078 206.11 139.795 189.47C174.512 172.831 189.167 131.199 172.528 96.4814Z" fill="#790E17"/>
<path d="M183.229 91.3554C163.757 50.7289 115.038 33.5794 74.4116 53.0509C33.7851 72.5224 16.6355 121.241 36.107 161.868C55.5785 202.494 104.298 219.644 144.924 200.172C185.551 180.701 202.7 131.982 183.229 91.3554Z" stroke="#010202" stroke-width="6.42698" stroke-miterlimit="10"/>
<path d="M167.625 98.8334C152.283 66.8246 113.899 53.313 81.89 68.6541C49.8812 83.9953 36.3695 122.38 51.7106 154.389C67.0518 186.397 105.437 199.909 137.445 184.568C169.454 169.227 182.966 130.842 167.625 98.8334Z" stroke="#010202" stroke-width="6.42698" stroke-miterlimit="10"/>
<path d="M139.537 112.294C131.631 95.7976 111.848 88.8338 95.3511 96.7404C78.8543 104.647 71.8905 124.43 79.7971 140.927C87.7037 157.424 107.487 164.387 123.983 156.481C140.48 148.574 147.444 128.791 139.537 112.294Z" stroke="#010202" stroke-width="6.42698" stroke-miterlimit="10"/>
</svg>
