<svg width="318" height="280" viewBox="0 0 318 280" fill="none" xmlns="http://www.w3.org/2000/svg">
<path opacity="0.78" d="M33.7261 135.119C50.0918 89.3005 112.632 53.355 137.36 62.3529C144.586 65.1208 150.134 71.034 154.303 78.0761L177.981 96.6156L276.149 135.164C278.262 136.446 301.777 163.447 303.495 165.762C308.204 173.248 317.564 192.696 307.284 219.537C298.035 246.773 278.741 252.641 270.57 255.431C268.158 256.164 265.206 256.454 262.649 255.711L130.223 227.481L99.8723 226.984C91.7495 230.265 84.3209 230.497 76.6025 227.778C52.0195 220.256 16.9166 181.478 33.7261 135.119Z" fill="black" fill-opacity="0.36"/>
<path d="M24.2444 91.3974C40.6101 45.5791 74.9512 15.8794 100.123 24.3369C107.349 27.1048 112.897 33.018 117.066 40.0601L140.744 58.5995L260.266 122.373C262.379 123.656 264.54 125.431 266.258 127.746C270.967 135.232 280.327 154.68 270.047 181.521C260.798 208.757 241.504 214.625 233.333 217.414C230.921 218.148 227.969 218.438 225.412 217.695L92.9864 189.465L62.6353 188.967C54.5125 192.249 47.0839 192.481 39.3655 189.762C14.3388 182.78 7.43492 137.756 24.2444 91.3974Z" fill="#D31A2B"/>
<path opacity="0.64" d="M117.993 44.4396C127.644 66.8398 122.591 86.2128 119.796 108.345C131.499 111.17 142.411 116.06 152.783 120.506C166.792 126.582 231.24 150.557 240.9 167.989C251.978 189.752 238.715 206.454 217.984 217.928L225.065 219.219C227.574 219.47 230.623 220.164 232.986 218.938C241.157 216.149 260.403 209.789 269.7 183.045C278.948 155.809 270.571 136.264 265.911 129.27C264.193 126.955 262.032 125.18 259.919 123.897L140.397 60.1235L116.719 41.5841C115.001 39.2689 113.728 36.4134 112.01 34.0982C114.76 36.8088 116.13 40.6483 117.993 44.4396Z" fill="#790E17"/>
<path opacity="0.64" d="M107.702 76.2483C40.6339 86.31 24.8962 138.525 33.6897 172.434C34.5198 175.83 37.7617 178.493 40.7138 178.203C72.3962 177.079 100.021 134.627 104.485 114.318C112.701 86.6862 109.178 76.1034 107.702 76.2483Z" fill="#790E17"/>
<path d="M103.166 55.3342C100.473 48.1471 96.4012 42.089 91.0946 38.6359C88.9816 37.353 90.7079 34.6997 92.8209 35.9826C100.636 39.6862 105.248 46.1881 108.481 53.8188C109.118 55.2466 108.82 57.2629 106.851 57.4561C105.327 57.109 103.803 56.7619 103.166 55.3342Z" fill="#010202"/>
<path d="M105.288 51.6484C106.764 51.5035 107.304 51.9472 107.941 53.375C115.141 71.0483 113.668 96.5276 104.622 120.763C95.2768 147.016 78.956 167.992 60.3952 176.272C58.9675 176.909 56.951 176.61 56.7578 174.642C56.1209 173.214 56.4198 171.198 58.3879 171.004C75.0289 163.41 90.9542 143.466 99.4117 118.294C107.57 95.1392 109.14 70.6439 103.021 53.858C102.384 52.4303 103.272 51.3496 104.651 50.2207C104.796 51.6967 105.288 51.6484 105.288 51.6484Z" fill="#010202"/>
<path d="M39.8842 174.807C46.4737 176.148 52.2327 174.092 57.8954 171.052C61.1947 169.238 63.2022 174.505 60.395 176.271C53.6999 178.915 46.3678 180.132 38.7461 178.396C38.2057 177.953 37.1252 177.065 37.0768 176.573C38.9966 175.888 39.3922 174.856 39.8842 174.807Z" fill="#010202"/>
<path d="M144.115 98.0084C144.028 92.0559 144.48 86.5471 142.917 80.7395C142.675 78.2794 146.119 77.9414 146.804 79.8611C148.86 85.6204 149.44 91.5246 150.019 97.4288C150.164 98.9049 148.785 100.034 147.801 100.13C145.929 101.308 144.26 99.4845 144.115 98.0084Z" fill="#010202"/>
<path d="M146.779 94.7661C147.271 94.7178 147.271 94.7178 146.779 94.7661C148.747 94.5729 149.384 96.0006 149.577 97.9687C149.26 109.922 147.612 123.496 143.263 134.852C138.518 147.24 132.248 159.281 124.165 168.023C122.834 169.644 121.85 169.74 120.229 168.409C118.608 167.078 118.511 166.094 119.842 164.473C127.386 155.288 133.8 144.723 138.101 132.875C142.499 122.011 145.179 108.832 144.608 97.9597C143.971 96.532 145.303 94.911 146.779 94.7661Z" fill="#010202"/>
<path d="M105.401 179.305C110.919 174.789 114.912 169.926 119.349 164.523C121.568 161.822 125.89 165.371 123.672 168.073C118.202 173.081 113.225 178.04 106.578 181.176C105.691 182.257 103.973 179.942 105.401 179.305Z" fill="#010202"/>
<path d="M87.8319 20.5743C92.2601 20.1396 96.7366 20.1968 101.455 22.7142C114.383 27.9029 123.608 40.9065 126.572 60.9826C129.98 80.5184 126.742 103.191 118.583 126.346C110.868 148.961 97.895 168.614 83.2614 181.477C68.1358 194.387 52.6809 198.885 38.8651 194.777C25.9367 189.588 16.712 176.584 13.7475 156.508C10.3393 136.973 13.578 114.3 21.7367 91.1452C36.1736 50.9806 63.723 22.9412 87.8319 20.5743ZM99.8731 26.8436C75.7339 18.7815 43.2158 46.8119 26.8018 92.1382C18.9902 113.769 15.7031 135.949 19.063 154.993C22.278 172.561 29.9784 185.217 40.7939 189.123C51.6576 193.521 66.1283 189.12 79.3341 176.894C93.5723 165.065 106.054 145.459 112.881 123.925C120.693 102.294 123.98 80.114 120.62 61.0703C118.437 43.8979 110.785 31.7334 99.8731 26.8436Z" fill="#010202"/>
<path d="M68.743 48.7777C39.823 72.9776 22.3677 122.877 33.3707 159.054C34.056 160.974 31.1521 161.755 30.9589 159.787C19.5515 129.611 27.0912 95.0914 45.8811 68.9054C51.9482 59.8649 58.652 52.2521 68.0093 46.3659C68.5013 46.3176 70.1225 47.6487 68.743 48.7777Z" fill="#010202"/>
<path d="M60.6001 117.633C57.9288 125.844 56.2414 133.957 56.0786 142.418C56.1269 142.91 55.7316 143.943 54.2556 144.087C53.7636 144.136 52.731 143.74 52.5861 142.264C52.1603 132.868 53.3557 124.802 55.4384 115.656C55.7855 114.132 57.2133 113.495 58.6893 113.35C60.3103 114.681 60.9955 116.601 60.6001 117.633Z" fill="#010202"/>
<path d="M67.0402 92.1649C68.5646 92.512 67.9669 96.5447 67.6198 98.0691C66.3853 100.674 64.7069 103.819 63.9644 106.376C62.8265 109.965 62.1323 113.014 60.9944 116.603C60.6473 118.127 59.2195 118.764 57.6951 118.417C56.1708 118.07 55.5339 116.642 55.881 115.118C57.0189 111.529 57.7133 108.48 59.3432 104.843C60.5778 102.238 61.2235 98.697 62.95 96.0437C64.0397 91.9627 66.0079 91.7695 67.0402 92.1649Z" fill="#010202"/>
<path d="M80.6506 73.937C74.9306 81.4532 70.6868 88.8245 67.5718 97.5752C65.9418 101.213 61.2237 98.6952 62.902 95.5498C67.493 86.6542 71.7371 79.2829 78.4411 71.6701C78.8849 71.1298 80.3609 70.9849 80.9012 71.4286C80.9012 71.4286 81.046 72.9046 80.6506 73.937Z" fill="#010202"/>
<path d="M117.365 38.0441C117.857 37.9958 118.841 37.8992 119.381 38.3429L142.615 57.4226L261.645 121.244C264.299 122.971 266.46 124.746 268.178 127.061C272.25 133.119 282.739 153.947 272.16 182.804C261.629 212.153 240.858 218.166 233.623 220.367C230.227 221.197 227.767 221.439 224.718 220.744L92.3406 193.006L62.4814 192.46C61.0054 192.605 59.8764 191.226 59.6832 189.258C59.5383 187.782 60.9178 186.653 62.8859 186.459L93.2373 186.957L93.7292 186.909L226.155 215.139C228.171 215.438 230.632 215.196 232.6 215.003C238.851 212.899 258.145 207.031 267.442 180.287C276.69 153.05 266.886 134.142 263.894 128.972C263.209 127.052 261.096 125.769 259.031 124.978L140.001 61.1565C140.001 61.1565 140.001 61.1566 139.461 60.7129L115.783 42.1734C114.162 40.8423 114.066 39.8583 115.397 38.2373C115.889 38.189 116.873 38.0924 117.365 38.0441Z" fill="#010202"/>
</svg>
