<svg width="72" height="74" viewBox="0 0 72 74" fill="none" xmlns="http://www.w3.org/2000/svg">
<path d="M66.7983 32.5179L59.6498 64.1879C58.5378 69.1144 53.6496 72.2023 48.7232 71.0903L17.0532 63.9418C12.1267 62.8299 9.03885 57.9416 10.1508 53.0152L17.2993 21.3451C18.4113 16.4187 23.2995 13.3308 28.226 14.4428L59.896 21.5912C64.8224 22.7032 67.9103 27.5914 66.7983 32.5179Z" fill="black" fill-opacity="0.36"/>
<path d="M61.7827 20.1234L54.6342 51.7934C53.5222 56.7199 48.634 59.8078 43.7075 58.6958L12.0375 51.5473C7.11109 50.4353 4.02322 45.5471 5.1352 40.6207L12.2837 8.95066C13.3956 4.02421 18.2839 0.936264 23.2103 2.04825L54.8803 9.19671C59.8333 10.1914 62.9211 15.0797 61.7827 20.1234Z" fill="#F1F0EE"/>
<path d="M13.362 6.35759C14.2361 6.30833 15.2009 6.40285 16.1393 6.61465L47.8093 13.7631C52.7357 14.8751 55.8236 19.7634 54.7117 24.6899L47.5632 56.3598C47.3514 57.2982 47.0223 58.2101 46.6024 58.9782C50.5033 58.626 53.8516 55.8069 54.7518 51.8188L61.9003 20.1488C63.0122 15.2224 59.9243 10.3341 54.9979 9.22209L23.3279 2.07363C19.249 1.02968 15.2384 2.95968 13.362 6.35759Z" fill="#53B4BA"/>
<path d="M39.3503 31.5796C40.0814 28.3406 38.0483 25.1221 34.8093 24.391C31.5702 23.6599 28.3518 25.693 27.6207 28.9321C26.8896 32.1711 28.9226 35.3896 32.1617 36.1207C35.4007 36.8518 38.6192 34.8187 39.3503 31.5796Z" fill="#414047"/>
<path d="M53.7273 22.4976C54.4584 19.2586 52.4253 16.0401 49.1862 15.309C45.9472 14.5779 42.7287 16.611 41.9976 19.85C41.2665 23.0891 43.2996 26.3075 46.5386 27.0386C49.7777 27.7697 52.9961 25.7367 53.7273 22.4976Z" fill="#414047"/>
<path d="M48.4323 45.9566C49.1634 42.7175 47.1304 39.4991 43.8913 38.768C40.6523 38.0369 37.4338 40.07 36.7027 43.309C35.9716 46.5481 38.0047 49.7665 41.2437 50.4976C44.4828 51.2287 47.7012 49.1956 48.4323 45.9566Z" fill="#414047"/>
<path d="M30.2683 17.2027C30.9994 13.9636 28.9663 10.7452 25.7272 10.0141C22.4882 9.28297 19.2697 11.3161 18.5386 14.5551C17.8075 17.7942 19.8406 21.0126 23.0797 21.7437C26.3187 22.4748 29.5372 20.4417 30.2683 17.2027Z" fill="#414047"/>
<path d="M24.9733 40.6617C25.7045 37.4226 23.6714 34.2042 20.4323 33.4731C17.1933 32.742 13.9748 34.775 13.2437 38.0141C12.5126 41.2531 14.5457 44.4716 17.7847 45.2027C21.0238 45.9338 24.2422 43.9007 24.9733 40.6617Z" fill="#414047"/>
<path d="M61.7827 20.1234L54.6342 51.7934C53.5222 56.7199 48.634 59.8078 43.7075 58.6958L12.0375 51.5473C7.11109 50.4353 4.02322 45.5471 5.1352 40.6207L12.2837 8.95066C13.3956 4.02421 18.2839 0.936264 23.2103 2.04825L54.8803 9.19671C59.8333 10.1914 62.9211 15.0797 61.7827 20.1234Z" stroke="#010202" stroke-width="1.56321" stroke-miterlimit="10"/>
<path d="M39.3503 31.5796C40.0814 28.3406 38.0483 25.1221 34.8093 24.391C31.5702 23.6599 28.3518 25.693 27.6207 28.9321C26.8896 32.1711 28.9226 35.3896 32.1617 36.1207C35.4007 36.8518 38.6192 34.8187 39.3503 31.5796Z" stroke="#010202" stroke-width="1.56321" stroke-miterlimit="10"/>
<path d="M53.7273 22.4976C54.4584 19.2586 52.4253 16.0401 49.1862 15.309C45.9472 14.5779 42.7287 16.611 41.9976 19.85C41.2665 23.0891 43.2996 26.3075 46.5386 27.0386C49.7777 27.7697 52.9961 25.7367 53.7273 22.4976Z" stroke="#010202" stroke-width="1.56321" stroke-miterlimit="10"/>
<path d="M48.4323 45.9566C49.1634 42.7175 47.1304 39.4991 43.8913 38.768C40.6523 38.0369 37.4338 40.07 36.7027 43.309C35.9716 46.5481 38.0047 49.7665 41.2437 50.4976C44.4828 51.2287 47.7012 49.1956 48.4323 45.9566Z" stroke="#010202" stroke-width="1.56321" stroke-miterlimit="10"/>
<path d="M30.2683 17.2027C30.9994 13.9636 28.9663 10.7452 25.7272 10.0141C22.4882 9.28297 19.2697 11.3161 18.5386 14.5551C17.8075 17.7942 19.8406 21.0126 23.0797 21.7437C26.3187 22.4748 29.5372 20.4417 30.2683 17.2027Z" stroke="#010202" stroke-width="1.56321" stroke-miterlimit="10"/>
<path d="M24.9733 40.6617C25.7045 37.4226 23.6714 34.2042 20.4323 33.4731C17.1933 32.742 13.9748 34.775 13.2437 38.0141C12.5126 41.2531 14.5457 44.4716 17.7847 45.2027C21.0238 45.9338 24.2422 43.9007 24.9733 40.6617Z" stroke="#010202" stroke-width="1.56321" stroke-miterlimit="10"/>
</svg>
