<svg width="84" height="85" viewBox="0 0 84 85" fill="none" xmlns="http://www.w3.org/2000/svg">
<path d="M25.2696 68.9355L5.65802 43.0613C2.60733 39.0364 3.39593 33.3085 7.42081 30.2578L33.295 10.6463C37.3199 7.59557 43.0477 8.38422 46.0984 12.4091L65.71 38.2834C68.7607 42.3082 67.9721 48.036 63.9472 51.0867L38.073 70.6983C34.0481 73.749 28.3203 72.9604 25.2696 68.9355Z" fill="black" fill-opacity="0.36"/>
<path d="M37.9805 73.0868L18.3689 47.2126C15.3182 43.1877 16.1069 37.4599 20.1317 34.4092L46.006 14.7976C50.0309 11.7469 55.7587 12.5356 58.8093 16.5604L78.4209 42.4347C81.4716 46.4595 80.683 52.1874 76.6582 55.2381L50.7839 74.8497C46.8317 77.9962 41.1039 77.2075 37.9805 73.0868Z" fill="#F1F0EE"/>
<path d="M79.7096 44.9304C79.1841 45.6305 78.4901 46.3074 77.7234 46.8885L51.8492 66.5001C47.8243 69.5508 42.0964 68.7622 39.0457 64.7373L19.4342 38.8631C18.8531 38.0964 18.3678 37.2572 18.051 36.4411C15.8066 39.6511 15.8048 44.0281 18.2744 47.2864L37.886 73.1606C40.9367 77.1855 46.6646 77.9741 50.6895 74.9234L76.5637 55.3118C79.9904 52.8654 81.0989 48.5549 79.7096 44.9304Z" fill="#53B4BA"/>
<path d="M43.6757 48.5512C45.6815 51.1975 49.4527 51.7167 52.099 49.7109C54.7453 47.7051 55.2645 43.9339 53.2587 41.2876C51.253 38.6413 47.4817 38.1221 44.8354 40.1279C42.1891 42.1336 41.6699 45.9049 43.6757 48.5512Z" fill="#414047"/>
<path d="M41.3554 65.3969C43.3611 68.0432 47.1324 68.5624 49.7787 66.5566C52.425 64.5508 52.9442 60.7796 50.9384 58.1333C48.9326 55.487 45.1614 54.9678 42.5151 56.9736C39.8688 58.9793 39.3496 62.7506 41.3554 65.3969Z" fill="#414047"/>
<path d="M26.828 46.2309C28.8338 48.8771 32.605 49.3964 35.2513 47.3906C37.8976 45.3848 38.4168 41.6136 36.4111 38.9673C34.4053 36.321 30.6341 35.8018 27.9878 37.8076C25.3415 39.8133 24.8223 43.5846 26.828 46.2309Z" fill="#414047"/>
<path d="M60.5214 50.8705C62.5272 53.5168 66.2984 54.036 68.9447 52.0303C71.591 50.0245 72.1102 46.2532 70.1044 43.607C68.0987 40.9607 64.3274 40.4414 61.6811 42.4472C59.0348 44.453 58.5156 48.2242 60.5214 50.8705Z" fill="#414047"/>
<path d="M45.994 31.7045C47.9998 34.3508 51.7711 34.87 54.4173 32.8642C57.0636 30.8585 57.5829 27.0872 55.5771 24.4409C53.5713 21.7947 49.8001 21.2754 47.1538 23.2812C44.5075 25.287 43.9883 29.0582 45.994 31.7045Z" fill="#414047"/>
<path d="M37.9805 73.0868L18.3689 47.2126C15.3182 43.1877 16.1069 37.4599 20.1317 34.4092L46.006 14.7976C50.0309 11.7469 55.7587 12.5356 58.8093 16.5604L78.4209 42.4347C81.4716 46.4595 80.683 52.1874 76.6582 55.2381L50.7839 74.8497C46.8317 77.9962 41.1039 77.2075 37.9805 73.0868Z" stroke="#010202" stroke-width="1.56321" stroke-miterlimit="10"/>
<path d="M43.6757 48.5512C45.6815 51.1975 49.4527 51.7167 52.099 49.7109C54.7453 47.7051 55.2645 43.9339 53.2587 41.2876C51.253 38.6413 47.4817 38.1221 44.8354 40.1279C42.1891 42.1336 41.6699 45.9049 43.6757 48.5512Z" stroke="#010202" stroke-width="1.56321" stroke-miterlimit="10"/>
<path d="M41.3554 65.3969C43.3611 68.0432 47.1324 68.5624 49.7787 66.5566C52.425 64.5508 52.9442 60.7796 50.9384 58.1333C48.9326 55.487 45.1614 54.9678 42.5151 56.9736C39.8688 58.9793 39.3496 62.7506 41.3554 65.3969Z" stroke="#010202" stroke-width="1.56321" stroke-miterlimit="10"/>
<path d="M26.828 46.2309C28.8338 48.8771 32.605 49.3964 35.2513 47.3906C37.8976 45.3848 38.4168 41.6136 36.4111 38.9673C34.4053 36.321 30.6341 35.8018 27.9878 37.8076C25.3415 39.8133 24.8223 43.5846 26.828 46.2309Z" stroke="#010202" stroke-width="1.56321" stroke-miterlimit="10"/>
<path d="M60.5214 50.8705C62.5272 53.5168 66.2984 54.036 68.9447 52.0303C71.591 50.0245 72.1102 46.2532 70.1044 43.607C68.0987 40.9607 64.3274 40.4414 61.6811 42.4472C59.0348 44.453 58.5156 48.2242 60.5214 50.8705Z" stroke="#010202" stroke-width="1.56321" stroke-miterlimit="10"/>
<path d="M45.994 31.7045C47.9998 34.3508 51.7711 34.87 54.4173 32.8642C57.0636 30.8585 57.5829 27.0872 55.5771 24.4409C53.5713 21.7947 49.8001 21.2754 47.1538 23.2812C44.5075 25.287 43.9883 29.0582 45.994 31.7045Z" stroke="#010202" stroke-width="1.56321" stroke-miterlimit="10"/>
</svg>
