<svg width="90" height="89" viewBox="0 0 90 89" fill="none" xmlns="http://www.w3.org/2000/svg">
<path d="M30.6849 74.6563L7.21389 52.224C3.56285 48.7346 3.43203 42.9542 6.92148 39.3032L29.3537 15.8322C32.8432 12.1812 38.6236 12.0504 42.2746 15.5398L65.7456 37.9721C69.3966 41.4616 69.5274 47.2419 66.0379 50.893L43.6057 74.3639C40.1162 78.0149 34.3359 78.1457 30.6849 74.6563Z" fill="black" fill-opacity="0.36"/>
<path d="M47.509 73.3389L24.0381 50.9067C20.387 47.4172 20.2562 41.6368 23.7457 37.9858L46.1779 14.5148C49.6674 10.8638 55.4478 10.733 59.0988 14.2224L82.5697 36.6547C86.2208 40.1441 86.3516 45.9246 82.8621 49.5756L60.4299 73.0465C57.0274 76.7806 51.247 76.9114 47.509 73.3389Z" fill="#F1F0EE"/>
<path d="M84.3221 38.8271C83.9143 39.6018 83.3366 40.3803 82.6719 41.0757L60.2397 64.5466C56.7503 68.1977 50.9698 68.3285 47.3188 64.839L23.8479 42.4068C23.1524 41.7421 22.5401 40.9905 22.0977 40.2351C20.3915 43.7607 21.0015 48.1695 23.9571 50.9943L47.4281 73.4265C51.0791 76.916 56.8595 76.7852 60.349 73.1342L82.7812 49.6632C85.776 46.7038 86.186 42.2719 84.3221 38.8271Z" fill="#53B4BA"/>
<path d="M49.2355 48.2103C51.636 50.5046 55.4418 50.4185 57.7361 48.018C60.0303 45.6175 59.9442 41.8117 57.5437 39.5174C55.1432 37.2231 51.3374 37.3093 49.0431 39.7098C46.7489 42.1102 46.835 45.9161 49.2355 48.2103Z" fill="#414047"/>
<path d="M47.509 73.3389L24.0381 50.9067C20.387 47.4172 20.2562 41.6368 23.7457 37.9858L46.1779 14.5148C49.6674 10.8638 55.4478 10.733 59.0988 14.2224L82.5697 36.6547C86.2208 40.1441 86.3516 45.9246 82.8621 49.5756L60.4299 73.0465C57.0274 76.7806 51.247 76.9114 47.509 73.3389Z" stroke="#010202" stroke-width="1.56321" stroke-miterlimit="10"/>
<path d="M49.2355 48.2103C51.636 50.5046 55.4418 50.4185 57.7361 48.018C60.0303 45.6175 59.9442 41.8117 57.5437 39.5174C55.1432 37.2231 51.3374 37.3093 49.0431 39.7098C46.7489 42.1102 46.835 45.9161 49.2355 48.2103Z" stroke="#010202" stroke-width="1.56321" stroke-miterlimit="10"/>
</svg>
