<svg width="97" height="96" viewBox="0 0 97 96" fill="none" xmlns="http://www.w3.org/2000/svg">
<path d="M29.0938 78.2564L6.8772 54.5812C3.42128 50.8984 3.60492 45.1195 7.28771 41.6636L30.9628 19.4469C34.6456 15.991 40.4246 16.1747 43.8805 19.8575L66.0972 43.5326C69.5531 47.2154 69.3694 52.9944 65.6866 56.4503L42.0115 78.6669C38.3287 82.1228 32.5498 81.9392 29.0938 78.2564Z" fill="black" fill-opacity="0.36"/>
<path d="M52.832 75.7466L30.6154 52.0714C27.1595 48.3887 27.3432 42.6097 31.026 39.1538L54.7011 16.9372C58.3839 13.4812 64.1629 13.6649 67.6188 17.3477L89.8354 41.0228C93.2913 44.7056 93.1077 50.4846 89.4249 53.9405L65.7498 76.1571C62.1492 79.7007 56.3703 79.5171 52.832 75.7466Z" fill="#F1F0EE"/>
<path d="M90.8522 43.8625C90.403 44.6139 89.7838 45.3598 89.0823 46.0181L65.4072 68.2347C61.7244 71.6906 55.9454 71.5069 52.4895 67.8241L30.2729 44.149C29.6146 43.4475 29.044 42.6638 28.6434 41.8854C26.748 45.3131 27.2051 49.6662 30.0028 52.6475L52.2194 76.3226C55.6753 80.0054 61.4543 80.1891 65.1371 76.7332L88.8122 54.5165C91.9635 51.7243 92.6138 47.3213 90.8522 43.8625Z" fill="#53B4BA"/>
<path d="M55.9237 50.7484C58.196 53.1698 62.0008 53.2907 64.4222 51.0185C66.8436 48.7463 66.9645 44.9414 64.6923 42.52C62.4201 40.0987 58.6152 39.9777 56.1938 42.2499C53.7725 44.5221 53.6515 48.327 55.9237 50.7484Z" fill="#414047"/>
<path d="M55.3827 67.7455C57.6549 70.1668 61.4598 70.2878 63.8812 68.0156C66.3026 65.7434 66.4235 61.9385 64.1513 59.5171C61.8791 57.0957 58.0742 56.9748 55.6528 59.247C53.2315 61.5192 53.1105 65.3241 55.3827 67.7455Z" fill="#414047"/>
<path d="M56.4628 33.7513C58.735 36.1727 62.5399 36.2936 64.9613 34.0214C67.3827 31.7492 67.5036 27.9443 65.2314 25.523C62.9592 23.1016 59.1543 22.9807 56.7329 25.2529C54.3115 27.5251 54.1906 31.33 56.4628 33.7513Z" fill="#414047"/>
<path d="M52.832 75.7466L30.6154 52.0714C27.1595 48.3887 27.3432 42.6097 31.026 39.1538L54.7011 16.9372C58.3839 13.4812 64.1629 13.6649 67.6188 17.3477L89.8354 41.0228C93.2913 44.7056 93.1077 50.4846 89.4249 53.9405L65.7498 76.1571C62.1492 79.7007 56.3703 79.5171 52.832 75.7466Z" stroke="#010202" stroke-width="1.56321" stroke-miterlimit="10"/>
<path d="M55.9237 50.7484C58.196 53.1698 62.0008 53.2907 64.4222 51.0185C66.8436 48.7463 66.9645 44.9414 64.6923 42.52C62.4201 40.0987 58.6152 39.9777 56.1938 42.2499C53.7725 44.5221 53.6515 48.327 55.9237 50.7484Z" stroke="#010202" stroke-width="1.56321" stroke-miterlimit="10"/>
<path d="M55.3827 67.7455C57.6549 70.1668 61.4598 70.2878 63.8812 68.0156C66.3026 65.7434 66.4235 61.9385 64.1513 59.5171C61.8791 57.0957 58.0742 56.9748 55.6528 59.247C53.2315 61.5192 53.1105 65.3241 55.3827 67.7455Z" stroke="#010202" stroke-width="1.56321" stroke-miterlimit="10"/>
<path d="M56.4628 33.7513C58.735 36.1727 62.5399 36.2936 64.9613 34.0214C67.3827 31.7492 67.5036 27.9443 65.2314 25.523C62.9592 23.1016 59.1543 22.9807 56.7329 25.2529C54.3115 27.5251 54.1906 31.33 56.4628 33.7513Z" stroke="#010202" stroke-width="1.56321" stroke-miterlimit="10"/>
</svg>
