<svg width="68" height="67" viewBox="0 0 68 67" fill="none" xmlns="http://www.w3.org/2000/svg">
<path d="M65.8465 25.2436L63.9264 57.6535C63.6277 62.6951 59.3047 66.5346 54.2632 66.2359L21.8533 64.3158C16.8117 64.0172 12.9723 59.6941 13.2709 54.6526L15.191 22.2426C15.4896 17.2011 19.8127 13.3616 24.8542 13.6603L57.2641 15.5804C62.3057 15.879 66.1451 20.202 65.8465 25.2436Z" fill="black" fill-opacity="0.36"/>
<path d="M53.9578 13.2671L52.0378 45.677C51.7391 50.7186 47.4161 54.558 42.3745 54.2593L9.9646 52.3393C4.92305 52.0406 1.08358 47.7176 1.38225 42.6761L3.30229 10.2661C3.60096 5.2246 7.92401 1.38509 12.9656 1.68376L45.3755 3.6038C50.4241 3.78244 54.2636 8.10551 53.9578 13.2671Z" fill="#F1F0EE"/>
<path d="M3.82538 7.52549C4.67986 7.33519 5.64725 7.27206 6.60754 7.32895L39.0175 9.24899C44.059 9.54766 47.8985 13.8707 47.5998 18.9123L45.6798 51.3222C45.6229 52.2825 45.446 53.2357 45.1561 54.0617C48.9484 53.0818 51.9154 49.7643 52.1572 45.683L54.0773 13.2731C54.3759 8.23158 50.5365 3.9085 45.4949 3.60983L13.085 1.68979C8.89081 1.32086 5.2462 3.87546 3.82538 7.52549Z" fill="#53B4BA"/>
<path d="M33.6796 28.2083C33.8759 24.8936 31.348 22.0473 28.0333 21.8509C24.7186 21.6545 21.8722 24.1825 21.6759 27.4972C21.4795 30.8119 24.0074 33.6582 27.3222 33.8546C30.6369 34.051 33.4832 31.523 33.6796 28.2083Z" fill="#414047"/>
<path d="M53.9578 13.2671L52.0378 45.677C51.7391 50.7186 47.4161 54.558 42.3745 54.2593L9.9646 52.3393C4.92305 52.0406 1.08358 47.7176 1.38225 42.6761L3.30229 10.2661C3.60096 5.2246 7.92401 1.38509 12.9656 1.68376L45.3755 3.6038C50.4241 3.78244 54.2636 8.10551 53.9578 13.2671Z" stroke="#010202" stroke-width="1.56321" stroke-miterlimit="10"/>
<path d="M33.6796 28.2083C33.8759 24.8936 31.348 22.0473 28.0333 21.8509C24.7186 21.6545 21.8722 24.1825 21.6759 27.4972C21.4795 30.8119 24.0074 33.6582 27.3222 33.8546C30.6369 34.051 33.4832 31.523 33.6796 28.2083Z" stroke="#010202" stroke-width="1.56321" stroke-miterlimit="10"/>
</svg>
