<svg width="64" height="66" viewBox="0 0 64 66" fill="none" xmlns="http://www.w3.org/2000/svg">
<path d="M42.9326 65.0851L10.4664 65.2886C5.41614 65.3203 1.30218 61.2576 1.27053 56.2073L1.06704 23.7412C1.03539 18.6909 5.0981 14.5769 10.1484 14.5453L42.6145 14.3418C47.6648 14.3101 51.7787 18.3729 51.8104 23.4232L52.0139 55.8893C52.0455 60.9396 47.9829 65.0535 42.9326 65.0851Z" fill="black" fill-opacity="0.36"/>
<path d="M54.1044 52.1994L21.6383 52.4029C16.588 52.4345 12.4741 48.3718 12.4424 43.3216L12.2389 10.8555C12.2073 5.80517 16.2699 1.69117 21.3202 1.65952L53.7863 1.45604C58.8366 1.42438 62.9506 5.48713 62.9823 10.5374L63.1857 43.0035C63.3376 48.0531 59.2749 52.167 54.1044 52.1994Z" fill="#F1F0EE"/>
<path d="M56.5565 1.91948C56.8023 2.75969 56.9286 3.72088 56.9346 4.68284L57.1381 37.1489C57.1697 42.1992 53.107 46.3132 48.0567 46.3449L15.5906 46.5484C14.6287 46.5544 13.6659 46.4401 12.8227 46.2049C14.0485 49.925 17.5522 52.5485 21.6405 52.5229L54.1066 52.3194C59.1569 52.2878 63.2197 48.1738 63.188 43.1235L62.9845 10.6574C63.0791 6.56832 60.2917 3.09857 56.5565 1.91948Z" fill="#53B4BA"/>
<path d="M49.9704 44.8901C53.2909 44.8693 55.9658 42.1607 55.945 38.8402C55.9242 35.5197 53.2155 32.8448 49.8951 32.8656C46.5746 32.8864 43.8997 35.5951 43.9205 38.9156C43.9413 42.236 46.6499 44.9109 49.9704 44.8901Z" fill="#414047"/>
<path d="M25.7712 20.9917C29.0917 20.9709 31.7666 18.2622 31.7458 14.9418C31.725 11.6213 29.0163 8.94639 25.6958 8.9672C22.3754 8.98801 19.7005 11.6967 19.7213 15.0171C19.7421 18.3376 22.4507 21.0125 25.7712 20.9917Z" fill="#414047"/>
<path d="M54.1044 52.1994L21.6383 52.4029C16.588 52.4345 12.4741 48.3718 12.4424 43.3216L12.2389 10.8555C12.2073 5.80517 16.2699 1.69117 21.3202 1.65952L53.7863 1.45604C58.8366 1.42438 62.9506 5.48713 62.9823 10.5374L63.1857 43.0035C63.3376 48.0531 59.2749 52.167 54.1044 52.1994Z" stroke="#010202" stroke-width="1.56321" stroke-miterlimit="10"/>
<path d="M49.9704 44.8901C53.2909 44.8693 55.9658 42.1607 55.945 38.8402C55.9242 35.5197 53.2155 32.8448 49.8951 32.8656C46.5746 32.8864 43.8997 35.5951 43.9205 38.9156C43.9413 42.236 46.6499 44.9109 49.9704 44.8901Z" stroke="#010202" stroke-width="1.56321" stroke-miterlimit="10"/>
<path d="M25.7712 20.9917C29.0917 20.9709 31.7666 18.2622 31.7458 14.9418C31.725 11.6213 29.0163 8.94639 25.6958 8.9672C22.3754 8.98801 19.7005 11.6967 19.7213 15.0171C19.7421 18.3376 22.4507 21.0125 25.7712 20.9917Z" stroke="#010202" stroke-width="1.56321" stroke-miterlimit="10"/>
</svg>
