<svg width="82" height="78" viewBox="0 0 82 78" fill="none" xmlns="http://www.w3.org/2000/svg">
<path d="M77.022 37.033L70.5475 68.8477C69.5404 73.7966 64.7188 76.9876 59.7699 75.9805L27.9552 69.506C23.0063 68.4989 19.8153 63.6773 20.8224 58.7284L27.2969 26.9137C28.304 21.9647 33.1256 18.7738 38.0746 19.7809L69.8892 26.2553C74.8381 27.2625 78.0291 32.084 77.022 37.033Z" fill="black" fill-opacity="0.36"/>
<path d="M61.2505 19.1131L54.7761 50.9278C53.7689 55.8767 48.9473 59.0677 43.9984 58.0605L12.1838 51.5861C7.23481 50.579 4.04381 45.7574 5.05094 40.8085L11.5254 8.99383C12.5325 4.04488 17.3541 0.853851 22.3031 1.86099L54.1177 8.33543C59.0906 9.22473 62.2816 14.0464 61.2505 19.1131Z" fill="#F1F0EE"/>
<path d="M13.255 6.52188C14.1278 6.45407 15.0944 6.52809 16.037 6.71992L47.8517 13.1944C52.8006 14.2015 55.9916 19.0231 54.9845 23.9721L48.51 55.7867C48.3182 56.7293 48.0086 57.648 47.605 58.4249C51.4976 57.9899 54.7853 55.1004 55.6006 51.0941L62.075 19.2794C63.0822 14.3305 59.8912 9.50887 54.9423 8.50173L23.1276 2.02729C19.0275 1.07018 15.0588 3.0849 13.255 6.52188Z" fill="#53B4BA"/>
<path d="M39.0662 31.0425C39.7283 27.7886 37.6274 24.6141 34.3735 23.9519C31.1197 23.2897 27.9451 25.3907 27.283 28.6445C26.6208 31.8984 28.7217 35.0729 31.9756 35.7351C35.2294 36.3973 38.404 34.2963 39.0662 31.0425Z" fill="#414047"/>
<path d="M53.2478 21.6577C53.91 18.4039 51.809 15.2293 48.5552 14.5671C45.3013 13.905 42.1268 16.0059 41.4646 19.2598C40.8024 22.5136 42.9034 25.6882 46.1572 26.3503C49.4111 27.0125 52.5856 24.9115 53.2478 21.6577Z" fill="#414047"/>
<path d="M24.8845 40.4282C25.5467 37.1744 23.4457 33.9998 20.1919 33.3376C16.938 32.6755 13.7635 34.7764 13.1013 38.0303C12.4391 41.2841 14.5401 44.4587 17.7939 45.1208C21.0478 45.783 24.2223 43.6821 24.8845 40.4282Z" fill="#414047"/>
<path d="M61.2505 19.1131L54.7761 50.9278C53.7689 55.8767 48.9473 59.0677 43.9984 58.0605L12.1838 51.5861C7.23481 50.579 4.04381 45.7574 5.05094 40.8085L11.5254 8.99383C12.5325 4.04488 17.3541 0.853851 22.3031 1.86099L54.1177 8.33543C59.0906 9.22473 62.2816 14.0464 61.2505 19.1131Z" stroke="#010202" stroke-width="1.56321" stroke-miterlimit="10"/>
<path d="M39.0662 31.0425C39.7283 27.7886 37.6274 24.6141 34.3735 23.9519C31.1197 23.2897 27.9451 25.3907 27.283 28.6445C26.6208 31.8984 28.7217 35.0729 31.9756 35.7351C35.2294 36.3973 38.404 34.2963 39.0662 31.0425Z" stroke="#010202" stroke-width="1.56321" stroke-miterlimit="10"/>
<path d="M53.2478 21.6577C53.91 18.4039 51.809 15.2293 48.5552 14.5671C45.3013 13.905 42.1268 16.0059 41.4646 19.2598C40.8024 22.5136 42.9034 25.6882 46.1572 26.3503C49.4111 27.0125 52.5856 24.9115 53.2478 21.6577Z" stroke="#010202" stroke-width="1.56321" stroke-miterlimit="10"/>
<path d="M24.8845 40.4282C25.5467 37.1744 23.4457 33.9998 20.1919 33.3376C16.938 32.6755 13.7635 34.7764 13.1013 38.0303C12.4391 41.2841 14.5401 44.4587 17.7939 45.1208C21.0478 45.783 24.2223 43.6821 24.8845 40.4282Z" stroke="#010202" stroke-width="1.56321" stroke-miterlimit="10"/>
</svg>
