<svg width="32" height="32" viewBox="0 0 32 32" fill="none" xmlns="http://www.w3.org/2000/svg">
<path fill-rule="evenodd" clip-rule="evenodd" d="M16.3793 2.51504C17.1994 2.63225 17.7692 3.39209 17.652 4.21218C16.9152 9.36711 16.9219 12.8794 17.0993 15.0662C17.1879 16.1594 17.3192 16.9214 17.4216 17.3921C17.4728 17.6275 17.5168 17.7903 17.5447 17.8853C17.5586 17.9329 17.5686 17.9636 17.5734 17.978C17.5746 17.9817 17.5755 17.9843 17.576 17.9859C17.8579 18.7582 17.4651 19.615 16.6937 19.9044C15.9181 20.1954 15.0534 19.8025 14.7624 19.0268L16.1669 18.4999C14.7624 19.0268 14.7621 19.026 14.7618 19.0251L14.7612 19.0234L14.7597 19.0195L14.7565 19.0108L14.7486 18.9888C14.7428 18.9722 14.7356 18.9516 14.7274 18.927C14.711 18.8777 14.6901 18.8121 14.666 18.7298C14.6177 18.5651 14.5562 18.3333 14.4901 18.0296C14.358 17.4222 14.208 16.528 14.1091 15.3087C13.9113 12.8705 13.9182 9.13278 14.6821 3.78771C14.7994 2.96762 15.5592 2.39782 16.3793 2.51504Z" fill="#D45456"/>
<path d="M18 26C18 27.1046 17.1046 28 16 28C14.8954 28 14 27.1046 14 26C14 24.8954 14.8954 24 16 24C17.1046 24 18 24.8954 18 26Z" fill="#D45456"/>
</svg>
