<svg width="28" height="28" viewBox="0 0 28 28" fill="none" xmlns="http://www.w3.org/2000/svg">
<path fill-rule="evenodd" clip-rule="evenodd" d="M23.1219 14.4887C23.0577 14.6303 22.9538 14.8066 22.7773 14.9242C21.9821 15.4544 19.4371 16.689 17.0609 17.6729C15.8665 18.1676 14.6896 18.6095 13.7727 18.8731C13.3181 19.0038 12.9029 19.098 12.5718 19.1265C12.4086 19.1405 12.2349 19.1415 12.0754 19.1069C11.9225 19.0737 11.694 18.9869 11.5629 18.751C10.3182 16.5106 8.9548 14.2768 7.78173 12.6083C7.19394 11.7722 6.66282 11.0909 6.22481 10.6236C6.00497 10.3891 5.8206 10.2215 5.67432 10.1162C5.5458 10.0237 5.48783 10.0082 5.48783 10.0082H3.50056L3.5 9.50822L3.50001 9.00822H5.5C5.79004 9.00822 6.0558 9.15873 6.2584 9.30452C6.47854 9.46293 6.7129 9.68206 6.9544 9.93971C7.43908 10.4568 8.00117 11.1817 8.59978 12.0331C9.77657 13.7069 11.1289 15.9192 12.3648 18.1356C12.3956 18.1358 12.4357 18.1345 12.4863 18.1301C12.7197 18.1101 13.061 18.0372 13.4964 17.9121C14.3594 17.6639 15.4959 17.2387 16.6783 16.749C19.0236 15.7778 21.4513 14.5945 22.1931 14.1116C22.1975 14.1039 22.2036 14.0924 22.211 14.0761C22.2397 14.0127 22.2725 13.9121 22.3041 13.7671C22.3671 13.4782 22.4119 13.0781 22.437 12.5923C22.4871 11.6251 22.4562 10.3867 22.3731 9.16878C22.2901 7.95116 22.1561 6.77262 22.0044 5.92624C21.9471 5.60601 21.8894 5.34647 21.8349 5.15504C21.7968 5.17479 21.7568 5.19554 21.715 5.21726C19.9587 6.12869 14.9037 8.75211 8.66817 10.9791C8.40811 11.072 8.12201 10.9364 8.02913 10.6764C7.93625 10.4163 8.07178 10.1302 8.33183 10.0374C14.4949 7.83623 19.4855 5.24725 21.2543 4.32965C21.4843 4.21033 21.6599 4.11928 21.7764 4.06101C21.9285 3.98497 22.1007 3.9808 22.2535 4.0441C22.3839 4.09807 22.4684 4.18742 22.5162 4.24741C22.6112 4.36661 22.6756 4.51759 22.7221 4.64695C22.8208 4.92152 22.9096 5.30798 22.9888 5.74988C23.1489 6.64347 23.2862 7.86051 23.3708 9.10072C23.4554 10.3407 23.4886 11.6223 23.4357 12.644C23.4094 13.1527 23.3609 13.6144 23.2812 13.9802C23.2414 14.1626 23.1903 14.3376 23.1219 14.4887ZM12.2835 18.1287L12.2857 18.1293L12.2835 18.1287ZM3.5 9.50822L3.50001 9.00822C3.22387 9.00822 3 9.23208 3 9.50822C3 9.78436 3.22442 10.0082 3.50056 10.0082L3.5 9.50822Z" fill="#FEC82F"/>
<path fill-rule="evenodd" clip-rule="evenodd" d="M24.4897 16.4101C24.5438 16.6808 24.3682 16.9443 24.0975 16.9984C23.5363 17.1107 22.8013 17.4004 21.957 17.8032C21.1201 18.2024 20.2097 18.696 19.3034 19.196C19.1353 19.2887 18.9672 19.3817 18.7998 19.4744C18.0701 19.8783 17.3533 20.275 16.7046 20.6089C15.917 21.0144 15.183 21.3526 14.6206 21.4932C14.1971 21.5991 13.8109 21.532 13.515 21.2823C13.2475 21.0565 13.1248 20.7392 13.0638 20.4888C13.0006 20.2292 12.9866 19.97 12.9863 19.7854C12.9862 19.6909 12.9897 19.611 12.9933 19.5536C12.9951 19.5248 12.9969 19.5015 12.9984 19.4845L13.0003 19.464L13.001 19.4575L13.0012 19.4553L13.0014 19.454C13.0014 19.454 13.0014 19.4537 13.4984 19.5082L13.0014 19.454C13.0314 19.1795 13.2784 18.9811 13.5529 19.0111C13.827 19.0412 14.025 19.2874 13.9956 19.5615L13.9955 19.5626L13.9946 19.5721C13.9938 19.5813 13.9926 19.5964 13.9913 19.6162C13.9888 19.6561 13.9862 19.7144 13.9863 19.7839C13.9865 19.9273 13.9982 20.0993 14.0354 20.2522C14.0749 20.4142 14.1275 20.4906 14.16 20.5181C14.1668 20.5245 14.2099 20.5651 14.378 20.5231C14.8154 20.4137 15.4563 20.1269 16.2469 19.7199C16.8808 19.3935 17.5808 19.0061 18.3097 18.6027C18.4786 18.5092 18.6489 18.4149 18.8204 18.3204C19.7268 17.8203 20.6602 17.3139 21.5265 16.9006C22.3853 16.4909 23.2128 16.1556 23.9013 16.0179C24.1721 15.9637 24.4355 16.1393 24.4897 16.4101Z" fill="#FEC82F"/>
<path fill-rule="evenodd" clip-rule="evenodd" d="M16.0083 21.2441C15.6552 21.3758 15.4315 21.868 15.613 22.2887C15.7885 22.6954 16.2603 22.8828 16.667 22.7073C16.9766 22.5738 17.1003 22.4062 17.1486 22.2638C17.2007 22.1104 17.1931 21.9026 17.0856 21.6534C16.9827 21.4148 16.8402 21.2774 16.6902 21.2125C16.5424 21.1486 16.3225 21.1269 16.0083 21.2441ZM14.6948 22.6848C14.3067 21.7852 14.7237 20.656 15.6589 20.3072C16.1617 20.1196 16.6549 20.1077 17.0873 20.2947C17.5173 20.4808 17.8219 20.8356 18.0038 21.2572C18.1811 21.6682 18.2476 22.1374 18.0955 22.5853C17.9397 23.0442 17.5812 23.402 17.0631 23.6255C16.1494 24.0198 15.0891 23.5986 14.6948 22.6848Z" fill="#FEC82F"/>
<path fill-rule="evenodd" clip-rule="evenodd" d="M22.3585 18.7669C22.2609 18.9916 22.2525 19.2187 22.3274 19.3924C22.4444 19.6635 22.6101 19.7968 22.7701 19.8546C22.9367 19.9146 23.1494 19.9111 23.3814 19.8111C23.6737 19.6849 23.8019 19.5181 23.8543 19.3679C23.9099 19.2087 23.9042 18.9985 23.8 18.7571C23.6246 18.3505 23.1527 18.163 22.7461 18.3385L22.7333 18.344C22.618 18.3899 22.4592 18.5352 22.3585 18.7669ZM22.3561 17.4176C21.9375 17.5872 21.6165 17.9653 21.4414 18.3684C21.2622 18.7807 21.1994 19.3021 21.4092 19.7886C21.6234 20.2849 21.9832 20.6338 22.4309 20.7953C22.872 20.9544 23.3493 20.914 23.7775 20.7292C24.286 20.5099 24.6401 20.1512 24.7985 19.6974C24.9537 19.2524 24.8989 18.7797 24.7182 18.361C24.3249 17.4493 23.2684 17.028 22.3561 17.4176Z" fill="#FEC82F"/>
<path d="M7 10.5L22.5 4.5V14.5L17.5 17L12 18.5L7 10.5Z" fill="#FEC82F"/>
</svg>
