<svg width="28" height="28" viewBox="0 0 28 28" fill="none" xmlns="http://www.w3.org/2000/svg">
<path fill-rule="evenodd" clip-rule="evenodd" d="M17.8358 4.14123C19.3476 4.29606 20.7447 4.59314 21.7802 5.11085C22.0121 5.22676 22.1863 5.41804 22.3187 5.62054C22.4527 5.82547 22.5628 6.07097 22.6555 6.33792C22.8407 6.8714 22.9769 7.55227 23.0755 8.31463C23.2734 9.84365 23.3302 11.7832 23.2845 13.7168C23.2388 15.6524 23.09 17.6012 22.8708 19.1528C22.7613 19.9274 22.6328 20.6137 22.4875 21.154C22.415 21.4238 22.3356 21.667 22.2482 21.8708C22.1647 22.0654 22.057 22.2648 21.9102 22.4116C21.6236 22.6983 21.1432 22.8893 20.6358 23.0325C20.1022 23.183 19.4398 23.306 18.7014 23.4052C17.2225 23.604 15.3893 23.7141 13.5653 23.7455C11.7405 23.777 9.91125 23.7299 8.43839 23.6112C7.70279 23.5518 7.04753 23.474 6.52245 23.3769C6.02515 23.285 5.56226 23.1627 5.27929 22.9741C5.07515 22.838 4.9496 22.616 4.8674 22.4334C4.77716 22.2329 4.69998 21.9883 4.63232 21.7176C4.49654 21.1743 4.38434 20.4652 4.29389 19.6579C4.11257 18.0394 4.01265 15.9701 4.00113 13.9196C3.9896 11.8697 4.0663 9.82147 4.2423 8.24644C4.32998 7.46182 4.44433 6.77523 4.59144 6.2591C4.66454 6.00259 4.7518 5.76609 4.86035 5.5749C4.96003 5.39933 5.12642 5.1745 5.39843 5.08376C6.67455 4.65806 9.77461 4.17808 13.0095 4.03951C14.6353 3.96986 16.3145 3.98545 17.8358 4.14123ZM5.76294 6.01663C5.75496 6.02753 5.74382 6.04422 5.72997 6.06862C5.67715 6.16166 5.61592 6.31294 5.55314 6.53319C5.42848 6.97058 5.3215 7.59344 5.23612 8.35749C5.06601 9.87982 4.98971 11.8859 5.00111 13.9139C5.01251 15.9412 5.11143 17.9734 5.28767 19.5465C5.37601 20.335 5.48227 20.9942 5.60248 21.4751C5.66282 21.7165 5.72302 21.8979 5.77927 22.0229C5.81626 22.1051 5.84192 22.1409 5.84948 22.1514C5.95466 22.213 6.22399 22.3048 6.70419 22.3936C7.18304 22.4821 7.80125 22.5565 8.51878 22.6144C9.9522 22.73 11.748 22.7767 13.5481 22.7457C15.3491 22.7146 17.1408 22.606 18.5682 22.4141C19.2829 22.318 19.894 22.2027 20.3643 22.07C20.8607 21.93 21.1147 21.7929 21.2031 21.7045C21.2156 21.692 21.263 21.6309 21.3292 21.4766C21.3914 21.3315 21.4565 21.1374 21.5218 20.8943C21.6524 20.4087 21.7741 19.7667 21.8806 19.0128C22.0933 17.5073 22.2398 15.5983 22.2848 13.6932C22.3298 11.7862 22.2726 9.90225 22.0838 8.44295C21.9891 7.71115 21.8638 7.10666 21.7108 6.66581C21.6344 6.44561 21.5562 6.2817 21.4817 6.16778C21.4057 6.05141 21.3512 6.01438 21.333 6.00529C20.458 5.56779 19.2022 5.2864 17.7339 5.13603C16.2749 4.98662 14.6465 4.9703 13.0523 5.03859C9.89119 5.174 6.93986 5.63813 5.76294 6.01663Z" fill="#FFFEF9"/>
<path d="M9.31055 8.53937C10.2099 8.53937 11.1046 8.48911 12.0036 8.48911C12.5935 8.48911 13.1898 8.52378 13.7724 8.41931C14.1274 8.35564 14.4439 8.31321 14.8027 8.31321C14.919 8.31321 15.0354 8.31162 15.1517 8.31321C15.3559 8.31601 15.5511 8.37921 15.7548 8.3872C16.1494 8.40267 16.5456 8.37246 16.9401 8.38999C17.5085 8.41526 18.0954 8.41402 18.6586 8.48911" stroke="white" stroke-width="1.3125" stroke-linecap="round"/>
<path d="M9.33594 12.1798C10.1161 11.9926 10.9546 11.8567 11.7581 11.8797C12.4157 11.8985 13.0549 11.8746 13.7112 11.8336C14.0634 11.8116 14.4667 11.7919 14.8141 11.8559C15.6355 12.0072 16.4732 11.9935 17.2963 12.1547C17.6337 12.2208 17.9543 12.2934 18.282 12.1296" stroke="white" stroke-width="1.3125" stroke-linecap="round"/>
<path d="M9.25977 15.394C9.92631 15.7347 10.7121 15.6819 11.4167 15.5057C11.7616 15.4195 12.1178 15.322 12.4763 15.3187C12.8773 15.3149 13.2818 15.3062 13.6825 15.3201C14.0837 15.3339 14.4711 15.4563 14.8692 15.489C15.3802 15.5309 15.9192 15.5094 16.4314 15.4932C16.7633 15.4826 17.074 15.4076 17.4016 15.3745C17.811 15.3331 18.2218 15.3438 18.633 15.3438" stroke="white" stroke-width="1.3125" stroke-linecap="round"/>
<path d="M18.6328 18.894C17.9663 19.2347 17.1805 19.1819 16.4759 19.0057C16.131 18.9195 15.7748 18.822 15.4163 18.8187C15.0153 18.8149 14.6108 18.8062 14.2101 18.8201C13.8088 18.8339 13.4215 18.9563 13.0234 18.989C12.5124 19.0309 11.9734 19.0094 11.4612 18.9932C11.1293 18.9826 10.8186 18.9076 10.4909 18.8745C10.0816 18.8331 9.67079 18.8438 9.2596 18.8438" stroke="white" stroke-width="1.3125" stroke-linecap="round"/>
</svg>
