<svg width="24" height="24" viewBox="0 0 24 24" fill="none" xmlns="http://www.w3.org/2000/svg">
<path d="M2.89357 4.58962C2.48394 4.6511 2.20171 5.03301 2.26319 5.44263C2.32467 5.85226 2.70657 6.13449 3.1162 6.07301L2.89357 4.58962ZM21.3162 6.07301C21.7258 6.01153 22.0081 5.62962 21.9466 5.22C21.8851 4.81037 21.5032 4.52814 21.0936 4.58962L21.3162 6.07301ZM3.00488 5.33132C3.1162 6.07301 3.11612 6.07302 3.11606 6.07303C3.11607 6.07303 3.11603 6.07303 3.11604 6.07303C3.11606 6.07303 3.11615 6.07302 3.11632 6.07299C3.11667 6.07294 3.11731 6.07284 3.11824 6.07271C3.12012 6.07243 3.12318 6.07198 3.1274 6.07136C3.13584 6.07013 3.14894 6.06824 3.16651 6.06576C3.20165 6.0608 3.25468 6.05348 3.32419 6.04433C3.46323 6.02604 3.66807 6.00049 3.92743 5.972C4.44644 5.91499 5.18214 5.84643 6.04466 5.80072C7.77846 5.70884 9.98763 5.71154 11.9718 6.06941L12.238 4.59322C10.089 4.20563 7.7482 4.20833 5.96528 4.30282C5.06943 4.35029 4.30509 4.4215 3.76365 4.48097C3.49278 4.51072 3.27729 4.53758 3.12856 4.55715C3.05418 4.56693 2.99647 4.57489 2.95684 4.58049C2.93702 4.58329 2.92172 4.58549 2.91112 4.58704C2.90582 4.58781 2.90169 4.58842 2.89875 4.58885C2.89729 4.58907 2.89612 4.58924 2.89526 4.58937C2.89482 4.58943 2.89446 4.58949 2.89418 4.58953C2.89404 4.58955 2.89389 4.58957 2.89382 4.58958C2.89368 4.5896 2.89357 4.58962 3.00488 5.33132ZM11.9718 6.06941C14.1207 6.457 16.4616 6.4543 18.2445 6.35981C19.1403 6.31234 19.9047 6.24113 20.4461 6.18166C20.717 6.15191 20.9325 6.12505 21.0812 6.10548C21.1556 6.0957 21.2133 6.08774 21.2529 6.08214C21.2727 6.07934 21.288 6.07714 21.2986 6.07559C21.304 6.07482 21.3081 6.07421 21.311 6.07378C21.3125 6.07356 21.3136 6.07339 21.3145 6.07326C21.3149 6.0732 21.3153 6.07314 21.3156 6.0731C21.3157 6.07308 21.3159 6.07306 21.316 6.07305C21.3161 6.07303 21.3162 6.07301 21.2049 5.33132C21.0936 4.58962 21.0936 4.58961 21.0937 4.5896C21.0937 4.5896 21.0937 4.5896 21.0937 4.5896C21.0937 4.5896 21.0936 4.58962 21.0934 4.58964C21.0931 4.58969 21.0925 4.58979 21.0915 4.58993C21.0897 4.5902 21.0866 4.59065 21.0824 4.59127C21.0739 4.5925 21.0608 4.59439 21.0433 4.59687C21.0081 4.60183 20.9551 4.60915 20.8856 4.6183C20.7465 4.63659 20.5417 4.66214 20.2823 4.69063C19.7633 4.74764 19.0276 4.81621 18.1651 4.86191C16.4313 4.95379 14.2221 4.95109 12.238 4.59322L11.9718 6.06941Z" fill="#FFFEF9"/>
<path d="M2.8669 11.7282C2.46115 11.6449 2.19974 11.2484 2.28303 10.8427C2.36632 10.4369 2.76276 10.1755 3.16852 10.2588L2.8669 11.7282ZM21.3425 11.2317C21.7482 11.315 22.0097 11.7114 21.9264 12.1172C21.8431 12.5229 21.4466 12.7844 21.0409 12.7011L21.3425 11.2317ZM3.01771 10.9935C3.16852 10.2588 3.16844 10.2588 3.16838 10.2588C3.16839 10.2588 3.16835 10.2588 3.16836 10.2588C3.16838 10.2588 3.16847 10.2588 3.16864 10.2588C3.16898 10.2589 3.16961 10.259 3.17054 10.2592C3.1724 10.2596 3.17543 10.2602 3.17961 10.261C3.18798 10.2627 3.20095 10.2653 3.21837 10.2687C3.2532 10.2755 3.30576 10.2857 3.37468 10.2985C3.51255 10.3242 3.71572 10.3607 3.97318 10.403C4.48841 10.4877 5.2194 10.5955 6.07823 10.6872C7.80464 10.8717 10.0108 10.9871 12.0112 10.7358L12.1982 12.2241C10.0316 12.4962 7.69422 12.3684 5.9189 12.1787C5.02687 12.0835 4.26743 11.9715 3.72994 11.8832C3.46105 11.839 3.2473 11.8006 3.09983 11.7731C3.02608 11.7594 2.96887 11.7484 2.9296 11.7407C2.90996 11.7368 2.8948 11.7338 2.88429 11.7317C2.87904 11.7306 2.87495 11.7298 2.87204 11.7292C2.87059 11.7289 2.86944 11.7287 2.86858 11.7285C2.86815 11.7284 2.8678 11.7283 2.86752 11.7283C2.86738 11.7282 2.86722 11.7282 2.86715 11.7282C2.86702 11.7282 2.8669 11.7282 3.01771 10.9935ZM12.0112 10.7358C14.1778 10.4636 16.5152 10.5914 18.2905 10.7811C19.1825 10.8764 19.942 10.9884 20.4795 11.0767C20.7484 11.1209 20.9621 11.1592 21.1096 11.1867C21.1833 11.2005 21.2405 11.2115 21.2798 11.2192C21.2994 11.2231 21.3146 11.2261 21.3251 11.2282C21.3304 11.2292 21.3344 11.2301 21.3374 11.2307C21.3388 11.2309 21.34 11.2312 21.3408 11.2314C21.3413 11.2314 21.3416 11.2315 21.3419 11.2316C21.342 11.2316 21.3422 11.2316 21.3422 11.2317C21.3424 11.2317 21.3425 11.2317 21.1917 11.9664C21.0409 12.7011 21.041 12.7011 21.041 12.7011C21.041 12.7011 21.0411 12.7011 21.041 12.7011C21.041 12.7011 21.0409 12.7011 21.0408 12.701C21.0404 12.701 21.0398 12.7008 21.0389 12.7007C21.037 12.7003 21.034 12.6997 21.0298 12.6988C21.0214 12.6971 21.0084 12.6946 20.991 12.6911C20.9562 12.6843 20.9036 12.6742 20.8347 12.6613C20.6969 12.6356 20.4937 12.5991 20.2362 12.5568C19.721 12.4722 18.99 12.3644 18.1312 12.2726C16.4048 12.0882 14.1986 11.9728 12.1982 12.2241L12.0112 10.7358Z" fill="#FFFEF9"/>
<path d="M21.3135 16.8863C21.7235 16.946 22.0074 17.3266 21.9478 17.7365C21.8882 18.1464 21.5076 18.4303 21.0977 18.3707L21.3135 16.8863ZM2.89786 18.4536C2.48796 18.394 2.20399 18.0134 2.26361 17.6035C2.32322 17.1936 2.70383 16.9096 3.11374 16.9692L2.89786 18.4536ZM21.2056 17.6285C21.0977 18.3707 21.0978 18.3707 21.0978 18.3708C21.0978 18.3707 21.0978 18.3708 21.0978 18.3708C21.0978 18.3708 21.0977 18.3707 21.0975 18.3707C21.0972 18.3707 21.0966 18.3706 21.0956 18.3704C21.0938 18.3702 21.0907 18.3697 21.0865 18.3691C21.078 18.3679 21.0649 18.3661 21.0473 18.3637C21.0122 18.3589 20.9591 18.3518 20.8895 18.343C20.7504 18.3253 20.5455 18.3007 20.286 18.2734C19.7667 18.2188 19.0307 18.1536 18.168 18.1118C16.4338 18.0278 14.2247 18.0406 12.2422 18.4075L11.9692 16.9325C14.1164 16.5351 16.4572 16.5272 18.2406 16.6135C19.1366 16.6569 19.9013 16.7247 20.443 16.7817C20.714 16.8102 20.9296 16.8361 21.0784 16.8549C21.1528 16.8644 21.2106 16.8721 21.2502 16.8775C21.2701 16.8802 21.2854 16.8823 21.296 16.8838C21.3013 16.8846 21.3054 16.8852 21.3084 16.8856C21.3098 16.8858 21.311 16.886 21.3119 16.8861C21.3123 16.8862 21.3126 16.8862 21.3129 16.8863C21.3131 16.8863 21.3132 16.8863 21.3133 16.8863C21.3134 16.8863 21.3135 16.8863 21.2056 17.6285ZM12.2422 18.4075C10.095 18.8048 7.75418 18.8128 5.97085 18.7264C5.07479 18.683 4.31014 18.6153 3.76843 18.5583C3.49743 18.5298 3.28182 18.5039 3.133 18.485C3.05858 18.4756 3.00083 18.4679 2.96117 18.4625C2.94134 18.4597 2.92603 18.4576 2.91542 18.4561C2.91012 18.4554 2.90599 18.4548 2.90305 18.4544C2.90158 18.4541 2.90042 18.454 2.89955 18.4539C2.89912 18.4538 2.89876 18.4537 2.89848 18.4537C2.89834 18.4537 2.89818 18.4537 2.89811 18.4536C2.89797 18.4536 2.89786 18.4536 3.0058 17.7114C3.11374 16.9692 3.11366 16.9692 3.1136 16.9692C3.1136 16.9692 3.11356 16.9692 3.11357 16.9692C3.11359 16.9692 3.11369 16.9692 3.11386 16.9692C3.1142 16.9693 3.11484 16.9694 3.11578 16.9695C3.11765 16.9698 3.12072 16.9702 3.12494 16.9708C3.13339 16.972 3.1465 16.9738 3.16408 16.9762C3.19924 16.981 3.25231 16.9881 3.32186 16.997C3.46098 17.0146 3.66593 17.0392 3.92541 17.0665C4.44468 17.1212 5.18069 17.1864 6.04341 17.2282C7.77761 17.3122 9.98674 17.2994 11.9692 16.9325L12.2422 18.4075Z" fill="#FFFEF9"/>
</svg>
