<svg width="28" height="28" viewBox="0 0 28 28" fill="none" xmlns="http://www.w3.org/2000/svg">
<path fill-rule="evenodd" clip-rule="evenodd" d="M19.0082 3.50031C19.2842 3.50998 19.5001 3.74153 19.4904 4.0175C19.4723 4.53595 19.4501 5.05484 19.4229 5.57384C19.7126 5.57592 19.9949 5.57995 20.2684 5.58609C21.1468 5.60578 21.941 5.64728 22.5995 5.71665C23.2449 5.78464 23.8039 5.88338 24.1848 6.0358C24.4265 6.13251 24.6015 6.31417 24.7274 6.50433C24.854 6.69538 24.9513 6.92482 25.0287 7.17033C25.1836 7.66109 25.283 8.29369 25.3434 9.00563C25.4647 10.4351 25.4364 12.2834 25.3197 14.1843C25.2028 16.089 24.996 18.0639 24.7553 19.7532C24.5163 21.4309 24.239 22.8614 23.9735 23.6581C23.8874 23.9165 23.6625 24.0611 23.53 24.1344C23.3697 24.2231 23.1707 24.2988 22.9538 24.3655C22.5164 24.5 21.9254 24.6222 21.232 24.7306C19.8402 24.948 17.9726 25.1193 15.9517 25.2098C11.9279 25.3899 7.19886 25.2544 4.36759 24.4824C4.08491 24.4053 3.9071 24.1819 3.80086 24.0092C3.68462 23.8202 3.58872 23.5839 3.50682 23.3267C3.34194 22.8089 3.20601 22.1157 3.09741 21.3213C2.87942 19.7267 2.76151 17.6475 2.76782 15.5699C2.77413 13.4941 2.90448 11.3957 3.19105 9.76693C3.33381 8.95558 3.51961 8.23509 3.76121 7.68611C3.98703 7.173 4.32984 6.65197 4.87785 6.51496C5.42365 6.3785 6.74745 6.21973 8.41611 6.07227C8.73022 6.04451 9.05812 6.01703 9.39736 5.99008C9.42844 5.38743 9.45569 4.78509 9.47734 4.18321C9.48726 3.90724 9.71902 3.69158 9.99499 3.7015C10.2709 3.71143 10.4866 3.94318 10.4767 4.21915C10.4564 4.78441 10.4312 5.34957 10.4025 5.91422C11.6266 5.8265 12.9549 5.74777 14.2894 5.68802C15.6956 5.62506 17.1116 5.58303 18.4215 5.57398C18.4496 5.04399 18.4725 4.51341 18.491 3.98251C18.5007 3.70653 18.7323 3.49065 19.0082 3.50031ZM18.2423 8.10629C18.2883 7.59654 18.3278 7.08584 18.3618 6.57444C17.0875 6.58432 15.7089 6.62546 14.3342 6.68701C12.9624 6.74844 11.5975 6.83005 10.3482 6.92073C10.3224 7.37359 10.2949 7.82597 10.2666 8.27765C10.2493 8.55325 10.0119 8.76266 9.73631 8.74538C9.46071 8.7281 9.2513 8.49068 9.26857 8.21508C9.29402 7.80921 9.31872 7.4034 9.34214 6.99769C9.05351 7.02095 8.77364 7.04457 8.50414 7.06839C6.81334 7.2178 5.57458 7.37155 5.1204 7.4851C5.06217 7.49966 4.88701 7.61057 4.67649 8.08892C4.48176 8.53139 4.31287 9.16189 4.17592 9.94022C4.11807 10.269 4.06669 10.6196 4.02157 10.9874L24.4159 10.5019C24.406 9.99506 24.3835 9.52083 24.347 9.09018C24.2891 8.40791 24.1976 7.85946 24.0751 7.47128C24.0139 7.27733 23.9509 7.14282 23.8937 7.05657C23.8454 6.98357 23.815 6.96542 23.812 6.96369C23.5678 6.86633 23.1274 6.77779 22.4947 6.71114C21.874 6.64574 21.1097 6.6052 20.2459 6.58583C19.9615 6.57946 19.667 6.57539 19.3641 6.57346C19.3286 7.11461 19.287 7.65564 19.2382 8.19619C19.2134 8.47122 18.9703 8.67404 18.6953 8.64922C18.4203 8.62439 18.2175 8.38131 18.2423 8.10629ZM24.42 11.502L3.91734 11.9902C3.81988 13.1114 3.77156 14.3403 3.76781 15.573C3.7616 17.6176 3.87805 19.6487 4.08819 21.1859C4.19366 21.9573 4.32025 22.5854 4.45969 23.0233C4.52995 23.244 4.59666 23.3943 4.65265 23.4853C4.6658 23.5067 4.6765 23.5218 4.68446 23.5322C7.36167 24.2475 11.9213 24.3892 15.907 24.2108C17.9043 24.1213 19.7332 23.9526 21.0776 23.7426C21.7523 23.6371 22.2892 23.5236 22.6598 23.4097C22.847 23.3521 22.972 23.3003 23.0458 23.2595L23.0527 23.2556C23.2803 22.5314 23.5361 21.2209 23.7653 19.6121C24.0023 17.9487 24.2063 16.0005 24.3216 14.1231C24.3773 13.2159 24.412 12.3293 24.42 11.502Z" fill="#FFFEF9"/>
</svg>
