<svg width="28" height="28" viewBox="0 0 28 28" fill="none" xmlns="http://www.w3.org/2000/svg">
<path fill-rule="evenodd" clip-rule="evenodd" d="M15.4299 3.91361C15.4776 3.64162 15.7367 3.45981 16.0087 3.50752C17.2334 3.72236 18.4297 4.19937 19.4848 4.81777C24.1923 7.57589 25.0175 12.6116 23.4495 16.8481C21.8876 21.0678 17.9072 24.6323 12.8521 24.4962L12.852 24.4962C11.5904 24.4621 10.3095 24.1102 9.18767 23.6293L9.18763 23.6293C4.25596 21.5147 2.79683 16.6904 3.79896 12.3902C4.79774 8.10429 8.26799 4.20508 13.318 3.89548C13.5936 3.87858 13.8308 4.08832 13.8477 4.36395C13.8646 4.63957 13.6548 4.87671 13.3792 4.8936C8.86581 5.17031 5.69482 8.66093 4.77286 12.6172C3.85424 16.5591 5.19486 20.8292 9.58171 22.7102C10.6215 23.156 11.7762 23.4667 12.8791 23.4966C17.411 23.6186 21.0626 20.416 22.5117 16.5009C23.9545 12.6026 23.1694 8.13561 18.9793 5.68059L18.9792 5.68055C18.0106 5.11281 16.9261 4.6837 15.8359 4.49248C15.564 4.44477 15.3821 4.1856 15.4299 3.91361ZM13.4469 6.55813C13.723 6.55468 13.9496 6.77572 13.9531 7.05184C13.9834 9.47163 13.9923 11.4912 13.9985 13.8614C14.1327 13.8707 14.2711 13.8935 14.4113 13.9275C14.4626 13.9399 14.5116 13.9604 14.5565 13.9881C14.8363 14.1611 15.1243 14.3327 15.4156 14.5063C16.2249 14.9886 17.0598 15.4861 17.8156 16.0696L17.8157 16.0696C18.0888 16.2806 18.4311 16.5238 18.7494 16.75C18.8447 16.8178 18.9379 16.884 19.0264 16.9474C19.2126 17.0806 19.3842 17.2056 19.5008 17.2996C19.5519 17.3408 19.6223 17.3995 19.6751 17.4607C19.6901 17.4781 19.713 17.5062 19.7351 17.5426C19.7522 17.5707 19.7975 17.6488 19.8097 17.7592C19.8254 17.9008 19.7814 18.0897 19.6146 18.2178C19.4885 18.3146 19.3578 18.3224 19.3156 18.3237C19.2677 18.3252 19.2199 18.3199 19.1736 18.3078C18.539 18.1424 17.6716 17.8674 17.2043 17.7042C16.0939 17.3166 15.0984 16.8982 14.0741 16.3341C13.6827 16.1656 13.3669 15.9446 13.1417 15.6949C12.918 15.447 12.7539 15.1349 12.7561 14.8007C12.7576 14.5621 12.845 14.3475 12.9994 14.1839C12.9931 11.6742 12.9847 9.58718 12.9532 7.06435C12.9497 6.78823 13.1707 6.56159 13.4469 6.55813ZM13.8842 15.0251C13.9994 15.1529 14.1947 15.2999 14.4875 15.4232C14.5038 15.4301 14.5197 15.4378 14.5352 15.4464C15.2071 15.8176 15.8677 16.1235 16.5685 16.4016C16.0507 16.0495 15.5093 15.7268 14.9508 15.394C14.6721 15.2279 14.3891 15.0592 14.1027 14.8832C13.9381 14.8501 13.8327 14.8538 13.7733 14.8636C13.7737 14.8645 13.7741 14.8654 13.7745 14.8663C13.7929 14.9068 13.8268 14.9615 13.8842 15.0251Z" fill="#FFFEF9"/>
</svg>
