<svg width="28" height="28" viewBox="0 0 28 28" fill="none" xmlns="http://www.w3.org/2000/svg">
<path d="M7.35865 24.0471C7.23873 24.0793 7.11879 24.1114 7.08532 23.9865C6.93192 23.8937 6.77852 23.8009 6.74504 23.6759L1.60693 13.1346C1.53997 12.8847 1.47303 12.6348 1.6794 12.4456C1.76584 12.2886 2.00569 12.2243 2.24553 12.16L8.24461 12.963L10.8599 4.49537C10.9464 4.33829 11.0328 4.18122 11.2726 4.11695C11.3926 4.08482 11.6659 4.14549 11.8193 4.2383L19.0376 10.071L23.3043 5.84779C23.5106 5.65858 23.7505 5.59432 23.9039 5.68712C24.1772 5.7478 24.2442 5.99768 24.3111 6.24756L25.4388 18.1313C25.4723 18.2562 25.4193 18.5382 25.2994 18.5704C25.213 18.7274 24.9731 18.7917 24.8532 18.8238C24.7333 18.856 15.1561 18.6101 7.68492 23.8258C7.47856 24.015 7.35865 24.0471 7.35865 24.0471ZM3.1939 13.7807L7.47008 22.5443C14.0293 18.2424 21.7462 17.7816 24.0387 17.703L23.0534 7.78976L19.4058 11.4454C19.1994 11.6346 18.8397 11.731 18.6528 11.5132L11.6214 5.89825L9.17899 14.0517C9.12603 14.3337 8.79973 14.5551 8.52641 14.4944L3.1939 13.7807Z" fill="#FFFEF9"/>
</svg>
