<svg width="28" height="28" viewBox="0 0 28 28" fill="none" xmlns="http://www.w3.org/2000/svg">
<path fill-rule="evenodd" clip-rule="evenodd" d="M20.6768 8.98506C20.1071 8.94396 19.5412 9.08228 19.0978 9.43807C18.6481 9.79897 18.373 10.3451 18.3242 11.021C18.2787 11.6511 18.5375 12.221 18.9124 12.6321C19.2839 13.0396 19.8076 13.3337 20.3602 13.3736C21.3894 13.4478 22.6119 12.7353 22.7127 11.3376C22.7542 10.7629 22.6069 10.197 22.2493 9.75605C21.8873 9.30971 21.3434 9.03316 20.6768 8.98506ZM19.3216 11.093C19.3531 10.6568 19.5187 10.3826 19.7237 10.218C19.9352 10.0483 20.2381 9.95601 20.6048 9.98247C21.0267 10.0129 21.3032 10.1771 21.4726 10.3859C21.6464 10.6002 21.7414 10.904 21.7153 11.2657C21.6614 12.0133 21.0153 12.4183 20.4321 12.3762C20.1784 12.3579 19.8818 12.2112 19.6514 11.9584C19.4243 11.7093 19.2995 11.3993 19.3216 11.093Z" fill="#FFFEF9"/>
<path fill-rule="evenodd" clip-rule="evenodd" d="M19.1708 5.72437C19.1828 5.72437 19.1948 5.7248 19.2068 5.72566C21.1256 5.86411 22.7734 6.9044 23.9054 8.28619C25.034 9.66396 25.6881 11.4276 25.5691 13.0774C25.4304 14.9986 24.3755 16.6454 22.9887 17.7755C21.6063 18.902 19.8431 19.5571 18.2173 19.4397C14.4302 19.1665 11.5817 15.875 11.855 12.088C11.8555 12.0805 11.8562 12.0732 11.8571 12.0658C12.1453 9.60551 13.1024 7.99015 14.4736 7.00465C15.8274 6.03171 17.514 5.72437 19.1708 5.72437ZM19.1525 6.72438C17.6072 6.72666 16.1677 7.01864 15.0572 7.81669C13.9617 8.604 13.1158 9.93531 12.8516 12.1709C12.6244 15.4025 15.0567 18.2091 18.2892 18.4423C19.6128 18.5378 21.1315 17.9989 22.357 17.0003C23.578 16.0053 24.4569 14.5959 24.5717 13.0055C24.669 11.6556 24.1292 10.1374 23.1318 8.91989C22.1414 7.7109 20.7381 6.84444 19.1525 6.72438Z" fill="#FFFEF9"/>
<path d="M4.98101 9.33033L10.9335 8.22678C11.2507 8.11045 11.3846 7.82145 11.4128 7.57122C11.4022 7.21526 11.0744 6.97562 10.7573 7.09195L4.80471 8.19551C4.44875 8.20611 4.20911 8.53389 4.32544 8.85107C4.33604 9.20703 4.66383 9.44666 4.98101 9.33033Z" fill="#FFFEF9"/>
<path d="M8.21424 14.2905L2.41845 16.0396C2.11593 16.19 1.76385 15.9877 1.71432 15.635C1.56394 15.3325 1.76623 14.9805 2.11888 14.9309L7.91469 13.1819C8.21721 13.0315 8.56927 13.2338 8.6188 13.5864C8.61821 13.8382 8.51677 14.1402 8.21424 14.2905Z" fill="#FFFEF9"/>
<path d="M8.25635 19.3398L2.88729 23.0594C2.60958 23.2518 2.29618 23.1949 2.10379 22.9172C1.9114 22.6395 1.96828 22.3261 2.24599 22.1337L7.61505 18.4141C7.89276 18.2217 8.20616 18.2786 8.39855 18.5563C8.59094 18.834 8.44149 19.2116 8.25635 19.3398Z" fill="#FFFEF9"/>
</svg>
