<svg width="32" height="32" viewBox="0 0 32 32" fill="none" xmlns="http://www.w3.org/2000/svg">
<path fill-rule="evenodd" clip-rule="evenodd" d="M8.18819 14.0419C8.72264 13.4089 9.66902 13.329 10.302 13.8635C10.8362 14.3145 11.4996 15.1529 12.1225 15.9894C12.7811 16.8742 13.5145 17.9247 14.2047 18.9182C14.2764 19.0214 14.3476 19.1239 14.4181 19.2255C14.9141 19.9398 15.38 20.6108 15.7839 21.1738C15.8649 21.025 15.9503 20.8668 16.0399 20.6997C16.4599 19.9164 16.9463 18.986 17.4845 17.9564C17.9293 17.1055 18.4096 16.1868 18.9169 15.2276C20.0258 13.1313 21.2418 10.8845 22.4134 8.9013C23.5692 6.94488 24.7371 5.14867 25.7528 4.01606C26.3059 3.39932 27.2542 3.34773 27.871 3.90083C28.4877 4.45393 28.5393 5.40227 27.9862 6.01902C27.1864 6.91082 26.147 8.47946 24.9963 10.4272C23.8614 12.3482 22.6719 14.5449 21.5688 16.6303C21.0795 17.5554 20.6026 18.4676 20.1563 19.3211C19.6078 20.3702 19.1056 21.3306 18.6839 22.1172C18.3 22.8333 17.9609 23.4467 17.6943 23.8837C17.5653 24.0952 17.4266 24.31 17.2907 24.4831C17.2286 24.5622 17.1196 24.6947 16.9734 24.8176C16.9014 24.8781 16.7661 24.983 16.576 25.067C16.3924 25.1481 16.018 25.2702 15.5604 25.1504C15.2958 25.0812 15.1052 24.9581 15.0173 24.8972C14.9125 24.8247 14.8253 24.7493 14.7608 24.6896C14.6318 24.5701 14.508 24.4334 14.3992 24.306C14.1776 24.0467 13.92 23.7094 13.6492 23.3405C13.1619 22.6764 12.5673 21.82 11.9565 20.9403C11.8848 20.8371 11.8129 20.7335 11.7409 20.6299C11.0474 19.6316 10.341 18.6203 9.71611 17.7809C9.05537 16.8935 8.5914 16.3455 8.3666 16.1557C7.73362 15.6212 7.65374 14.6748 8.18819 14.0419ZM15.94 23.7L15.9402 23.6993L15.94 23.7C14.925 22.6382 14.9255 22.6369 14.932 22.6293C14.9316 22.6298 14.9312 22.6303 14.9308 22.6308" fill="#7DA649"/>
</svg>
