<svg width="28" height="28" viewBox="0 0 28 28" fill="none" xmlns="http://www.w3.org/2000/svg">
<path fill-rule="evenodd" clip-rule="evenodd" d="M17.8358 4.14125C19.3476 4.29607 20.7447 4.59315 21.7802 5.11087C22.0121 5.22677 22.1863 5.41806 22.3187 5.62055C22.4527 5.82549 22.5628 6.07098 22.6555 6.33793C22.8407 6.87141 22.9769 7.55229 23.0755 8.31464C23.2734 9.84367 23.3302 11.7832 23.2845 13.7168C23.2388 15.6525 23.09 17.6012 22.8708 19.1528C22.7613 19.9274 22.6328 20.6137 22.4875 21.154C22.415 21.4238 22.3356 21.667 22.2482 21.8709C22.1647 22.0655 22.057 22.2648 21.9102 22.4117C21.6236 22.6983 21.1432 22.8893 20.6358 23.0325C20.1022 23.183 19.4398 23.306 18.7014 23.4052C17.2225 23.604 15.3893 23.7141 13.5653 23.7455C11.7405 23.777 9.91125 23.73 8.43839 23.6112C7.70279 23.5518 7.04753 23.474 6.52245 23.3769C6.02515 23.285 5.56226 23.1628 5.27929 22.9741C5.07515 22.8381 4.9496 22.616 4.8674 22.4334C4.77716 22.2329 4.69998 21.9883 4.63232 21.7176C4.49654 21.1744 4.38434 20.4652 4.29389 19.6579C4.11257 18.0394 4.01265 15.9702 4.00113 13.9196C3.9896 11.8697 4.0663 9.82149 4.2423 8.24646C4.32998 7.46183 4.44433 6.77525 4.59144 6.25911C4.66454 6.00261 4.7518 5.7661 4.86035 5.57492C4.96003 5.39935 5.12642 5.17452 5.39843 5.08378C6.67455 4.65808 9.7746 4.17809 13.0095 4.03952C14.6353 3.96988 16.3145 3.98546 17.8358 4.14125ZM5.76294 6.01665C5.75496 6.02755 5.74382 6.04424 5.72997 6.06864C5.67715 6.16167 5.61592 6.31295 5.55314 6.53321C5.42848 6.9706 5.3215 7.59345 5.23612 8.35751C5.06601 9.87984 4.98971 11.8859 5.00111 13.9139C5.01251 15.9412 5.11143 17.9734 5.28767 19.5465C5.37601 20.335 5.48227 20.9942 5.60248 21.4751C5.66282 21.7165 5.72302 21.898 5.77927 22.0229C5.81626 22.1051 5.84192 22.1409 5.84948 22.1515C5.95466 22.213 6.22399 22.3048 6.70419 22.3936C7.18304 22.4821 7.80125 22.5565 8.51878 22.6144C9.9522 22.73 11.748 22.7767 13.5481 22.7457C13.8132 22.7411 14.0781 22.7349 14.3416 22.7269C14.2797 21.7134 14.1701 20.6834 14.058 19.6304C13.9796 18.8929 13.8999 18.1438 13.8345 17.3815C13.7586 16.4958 13.7035 15.6026 13.6978 14.7136C13.0892 14.7326 12.4804 14.7497 11.8714 14.7643C11.5953 14.7709 11.3661 14.5525 11.3595 14.2764C11.3529 14.0004 11.5713 13.7712 11.8474 13.7646C12.4696 13.7497 13.0916 13.7321 13.7137 13.7127C13.7439 12.9604 13.8175 12.2145 13.9523 11.4824C14.2064 10.1016 14.9966 9.09935 16.0874 8.66329C17.1722 8.22967 18.4657 8.39076 19.6694 9.14865C19.9031 9.29579 19.9732 9.60451 19.8261 9.83818C19.6789 10.0719 19.3702 10.142 19.1365 9.99487C18.1503 9.37389 17.1921 9.29864 16.4586 9.59185C15.7312 9.88263 15.1369 10.5704 14.9357 11.6634C14.8148 12.3203 14.7461 12.9937 14.7159 13.6798C15.6451 13.648 16.5745 13.6129 17.5047 13.5768C17.7807 13.5661 18.013 13.7811 18.0237 14.057C18.0344 14.333 17.8194 14.5653 17.5435 14.576C16.5954 14.6128 15.6468 14.6487 14.6976 14.681C14.7023 15.5386 14.7552 16.4127 14.8309 17.2961C14.8923 18.0125 14.9698 18.7429 15.0474 19.4745C15.1623 20.5572 15.2774 21.6426 15.341 22.6882C16.5083 22.6325 17.6188 22.5417 18.5682 22.4141C19.2829 22.3181 19.894 22.2027 20.3643 22.0701C20.8607 21.93 21.1147 21.7929 21.2031 21.7046C21.2156 21.692 21.263 21.6309 21.3292 21.4766C21.3914 21.3315 21.4565 21.1374 21.5218 20.8943C21.6524 20.4088 21.7741 19.7667 21.8806 19.0128C22.0933 17.5074 22.2398 15.5983 22.2848 13.6932C22.3298 11.7862 22.2726 9.90226 22.0838 8.44297C21.9891 7.71116 21.8638 7.10667 21.7108 6.66583C21.6344 6.44562 21.5562 6.28172 21.4817 6.16779C21.4057 6.05143 21.3512 6.0144 21.333 6.00531C20.458 5.56781 19.2022 5.28641 17.7339 5.13604C16.2749 4.98664 14.6465 4.97032 13.0523 5.03861C9.89119 5.17401 6.93986 5.63815 5.76294 6.01665Z" fill="#FFFEF9"/>
</svg>
