<svg width="28" height="28" viewBox="0 0 28 28" fill="none" xmlns="http://www.w3.org/2000/svg">
<path fill-rule="evenodd" clip-rule="evenodd" d="M17.0586 12.537C17.3286 11.3909 16.951 10.3837 16.3256 9.67575C15.7132 8.98243 14.8288 8.53699 14.0055 8.52988C13.1807 8.52278 12.3577 8.89049 11.7575 9.45834C11.1544 10.0289 10.7331 10.8446 10.7982 11.7618C10.8344 12.2719 11.0118 12.8137 11.2817 13.2876C11.5509 13.7601 11.9333 14.202 12.4099 14.4762C14.1386 15.4709 16.3829 14.4121 17.0421 12.5927C17.0487 12.5744 17.0542 12.5559 17.0586 12.537ZM12.4447 10.1848C12.8836 9.76957 13.465 9.52527 13.9969 9.52984C14.4906 9.53411 15.1189 9.82011 15.5762 10.3378C16.0152 10.8348 16.2638 11.5077 16.0918 12.2793C15.596 13.5968 14.0017 14.2384 12.9087 13.6095C12.6265 13.4471 12.3579 13.1564 12.1507 12.7926C11.9442 12.4302 11.8199 12.0321 11.7957 11.691C11.7562 11.1357 12.0087 10.5973 12.4447 10.1848Z" fill="#FFFEF9"/>
<path fill-rule="evenodd" clip-rule="evenodd" d="M22.6519 10.4797C22.3852 7.86498 21.2238 5.99527 19.456 4.8523C17.7063 3.72099 15.4208 3.33847 12.9522 3.56012C10.9328 3.74146 9.06488 4.20768 7.67503 5.34299C6.26252 6.49682 5.42049 8.27641 5.3238 10.9087C5.21996 13.7355 6.61933 17.1162 8.09488 19.7357C8.83898 21.0566 9.61777 22.2108 10.2681 23.0379C10.5922 23.45 10.8921 23.7908 11.1461 24.0323C11.2721 24.152 11.3983 24.2585 11.5195 24.3375C11.6163 24.4007 11.8027 24.5103 12.0241 24.4992C12.3885 24.4808 12.8243 24.3019 13.2613 24.0658C13.7169 23.8196 14.2402 23.4738 14.7982 23.0524C15.915 22.2089 17.2011 21.0394 18.4042 19.6948C19.6065 18.3511 20.7384 16.8187 21.5349 15.2472C22.3285 13.6815 22.8105 12.0348 22.6519 10.4797ZM13.0417 4.55612C15.3694 4.34711 17.4096 4.71994 18.9131 5.69206C20.3985 6.6525 21.4177 8.23428 21.6571 10.5811C21.7886 11.8707 21.3919 13.3175 20.643 14.7951C19.8969 16.267 18.8223 17.7278 17.659 19.028C16.4965 20.3272 15.2577 21.4521 14.1955 22.2544C13.6639 22.6559 13.184 22.9709 12.7859 23.186C12.4404 23.3727 12.1968 23.4616 12.0512 23.4901C12.0013 23.4557 11.9293 23.3971 11.8351 23.3075C11.6295 23.1121 11.3628 22.8123 11.0542 22.4198C10.4392 21.6376 9.68828 20.5268 8.96615 19.2449C7.50924 16.6585 6.22993 13.4823 6.32313 10.9454C6.41216 8.52161 7.17219 7.04497 8.30765 6.11745C9.46577 5.17143 11.0918 4.7312 13.0417 4.55612Z" fill="#FFFEF9"/>
</svg>
