<svg width="28" height="28" viewBox="0 0 28 28" fill="none" xmlns="http://www.w3.org/2000/svg">
<path d="M18.3404 10.6514C18.6165 10.6442 18.8344 10.4146 18.8272 10.1385C18.8199 9.86247 18.5903 9.64455 18.3142 9.65179C16.51 9.69908 14.6498 9.78886 12.8454 9.96724C12.5706 9.9944 12.3698 10.2392 12.397 10.514C12.4242 10.7888 12.669 10.9896 12.9438 10.9624C14.7156 10.7872 16.5499 10.6984 18.3404 10.6514Z" fill="#FFFEF9"/>
<path d="M18.928 13.3478C18.939 13.6237 18.7242 13.8563 18.4483 13.8673C15.46 13.9863 12.471 14.0757 9.48396 14.155C9.20792 14.1623 8.9782 13.9445 8.97088 13.6684C8.96356 13.3924 9.1814 13.1627 9.45745 13.1553C12.4425 13.0762 15.4265 12.9869 18.4085 12.8681C18.6844 12.8571 18.917 13.0719 18.928 13.3478Z" fill="#FFFEF9"/>
<path fill-rule="evenodd" clip-rule="evenodd" d="M22.6892 10.1756C22.7748 10.2614 22.8582 10.3465 22.939 10.4309C23.3794 10.8902 23.7578 11.3381 24.0292 11.7511C24.2891 12.1467 24.5 12.582 24.5 13C24.5 13.2152 24.5255 13.7198 24.5606 14.4118L24.5697 14.592C24.6087 15.3656 24.6558 16.3227 24.6872 17.2964C24.7186 18.2689 24.7346 19.2649 24.7107 20.1156C24.6875 20.9427 24.6262 21.7026 24.4743 22.1581C24.3791 22.4437 24.129 22.6117 23.9503 22.7081C23.7471 22.8177 23.4917 22.9098 23.2095 22.99C22.6415 23.1514 21.8788 23.2878 21.0018 23.4018C19.2424 23.6303 16.9528 23.7767 14.6787 23.8323C12.4045 23.888 10.1291 23.8533 8.39775 23.7162C7.53523 23.6479 6.78911 23.5528 6.24064 23.4251C5.96929 23.362 5.72023 23.2851 5.52337 23.1861C5.36032 23.1041 5.07618 22.9306 5.0097 22.598C4.50737 20.0848 4 17.0479 4 13.5C4 13.3072 4.08402 13.1239 4.14648 13.0037C4.21999 12.8622 4.32074 12.7044 4.43802 12.5381C4.61462 12.2876 4.84464 11.9951 5.11368 11.6744C5.05143 10.4 4.99017 9.11751 4.96992 7.83953L4.96966 7.82365C4.96846 7.75209 4.96686 7.65678 4.97655 7.57252C4.98871 7.4669 5.02394 7.31619 5.14476 7.18084C5.26595 7.04509 5.41229 6.99323 5.51557 6.96935C5.59828 6.95023 5.69335 6.94103 5.76504 6.93409L5.7809 6.93255C7.29367 6.78474 8.73792 6.66617 10.1568 6.57269C10.6501 6.13399 11.1286 5.72725 11.5712 5.37457C12.0593 4.98569 12.5133 4.65488 12.901 4.41869C13.0947 4.30072 13.2811 4.20063 13.4536 4.12866C13.6176 4.06021 13.8087 4 14 4C14.1633 4 14.3324 4.05693 14.4591 4.10646C14.6033 4.16282 14.7689 4.24133 14.9483 4.33506C15.3083 4.52311 15.7556 4.78917 16.2542 5.1089C16.7787 5.44516 17.3673 5.84548 17.9815 6.28574C19.1772 6.27322 20.4085 6.27222 21.6986 6.28052L21.7146 6.28061C21.7874 6.28101 21.8838 6.28154 21.9685 6.29322C22.0743 6.3078 22.2261 6.34669 22.3596 6.47276C22.4923 6.59816 22.5402 6.74644 22.561 6.85173C22.5776 6.93551 22.5836 7.0313 22.5881 7.10312L22.5891 7.11911C22.653 8.12231 22.6791 9.15231 22.6892 10.1756ZM5.96806 22.2904C5.48043 19.8357 5.00352 16.9221 5.00002 13.5375C5.00489 13.525 5.01486 13.5013 5.03394 13.4646C5.06791 13.3992 5.11837 13.3155 5.18694 13.2135C5.19886 13.4803 5.2101 13.7465 5.22029 14.0121L5.22066 14.0219C5.22228 14.0648 5.22456 14.1255 5.23183 14.1809C5.241 14.2506 5.26143 14.3454 5.31886 14.4441C5.37616 14.5425 5.4482 14.607 5.50442 14.6496C5.5489 14.6832 5.60052 14.7152 5.63687 14.7377L5.64515 14.7428C8.38343 16.4411 11.1627 18.0449 13.9831 19.6029L13.9934 19.6086C14.0386 19.6336 14.1016 19.6685 14.1622 19.694C14.2387 19.7261 14.3489 19.7605 14.4844 19.7508C14.6196 19.7411 14.7237 19.6916 14.795 19.6489C14.8513 19.6152 14.9087 19.5717 14.9498 19.5406L14.9591 19.5335C17.0788 17.9311 18.9953 16.2699 21.0361 14.5011C21.4774 14.1187 21.9247 13.731 22.3809 13.338L22.3925 13.3282C22.4396 13.289 22.5622 13.1869 22.6298 13.0397C22.6974 12.8926 22.695 12.7332 22.694 12.6721L22.6938 12.6569L22.6942 12.4013C22.6946 12.1522 22.695 11.9011 22.6951 11.6487C22.895 11.8827 23.0626 12.1011 23.1935 12.3003C23.4296 12.6596 23.5 12.8876 23.5 13C23.5 13.2423 23.5268 13.7713 23.5606 14.4382L23.5709 14.6424C23.61 15.4157 23.6567 16.3648 23.6878 17.3286C23.7189 18.2936 23.7342 19.2664 23.7111 20.0875C23.6888 20.8833 23.6311 21.4753 23.5424 21.7875C23.5286 21.7972 23.5071 21.8109 23.4755 21.828C23.364 21.8882 23.1871 21.9568 22.9363 22.0281C22.4383 22.1695 21.7321 22.2985 20.873 22.4101C19.1601 22.6326 16.9079 22.7775 14.6542 22.8326C12.4005 22.8878 10.162 22.8528 8.47671 22.7193C7.63093 22.6523 6.94308 22.5619 6.46734 22.4512C6.22657 22.3951 6.06596 22.3396 5.97252 22.2926L5.96806 22.2904ZM19.3166 7.27649C20.0585 7.27385 20.817 7.27515 21.5972 7.2799C21.6362 7.91738 21.6599 8.56622 21.6743 9.21918C21.0519 8.66272 20.3709 8.09933 19.6833 7.56084C19.5613 7.46532 19.439 7.37048 19.3166 7.27649ZM17.6634 7.28943C18.1247 7.62474 18.598 7.98114 19.0667 8.34817C20.0139 9.08986 20.9336 9.86849 21.6925 10.5985C21.6961 11.2051 21.6952 11.8109 21.6942 12.41L21.6939 12.6099C21.2444 12.9972 20.8052 13.3779 20.3728 13.7526C18.3506 15.5053 16.4785 17.1277 14.409 18.6957C11.6347 17.1623 8.90482 15.5864 6.21752 13.9211C6.19273 13.2834 6.16263 12.6511 6.13193 12.0216C6.13825 12.0144 6.14459 12.007 6.15095 11.9997C6.91279 11.1225 7.94935 10.0391 9.03589 8.98364C9.54482 8.48926 10.0627 8.00293 10.5664 7.54833C12.9239 7.39937 15.2214 7.31954 17.6634 7.28943ZM16.2658 6.31231C16.0753 6.18475 15.891 6.06389 15.7145 5.95073C15.2288 5.63931 14.8089 5.39047 14.4853 5.2214C14.3229 5.13656 14.1926 5.07597 14.0951 5.03784C14.0363 5.01488 14.0028 5.0055 13.9892 5.00182C13.9692 5.00559 13.9213 5.01705 13.8387 5.05152C13.7292 5.09722 13.5899 5.16999 13.4213 5.27271C13.0844 5.47793 12.6672 5.77994 12.1944 6.15668C12.0672 6.25804 11.9366 6.36426 11.8032 6.47477C13.2835 6.39621 14.7542 6.34368 16.2658 6.31231ZM8.97323 7.65889C7.99489 7.73279 6.99891 7.81896 5.97138 7.91873C5.98699 8.8155 6.02217 9.70609 6.06333 10.5982C6.73671 9.86509 7.52597 9.05627 8.33911 8.26636C8.54909 8.06238 8.76099 7.85934 8.97323 7.65889ZM5.91349 22.257C5.91385 22.2569 5.91707 22.2592 5.92206 22.2639C5.91562 22.2595 5.91313 22.2571 5.91349 22.257Z" fill="#FFFEF9"/>
</svg>
