<svg width="31" height="30" viewBox="0 0 31 30" fill="none" xmlns="http://www.w3.org/2000/svg">
<path fill-rule="evenodd" clip-rule="evenodd" d="M14.1294 22.3968C18.6802 23.0924 19.282 21.2403 19.7865 18.3658C20.4244 14.7308 18.0547 8.36074 13.8484 7.97494C11.1736 7.72956 10.4635 10.7171 8.85717 12.3632C6.56749 14.7094 4.93138 15.772 2.197 17.5026C0.263315 18.7264 1.39025 22.3535 3.44818 23.3245C4.56641 23.8521 5.92895 23.2405 7.04314 23.0303C9.38165 22.5892 11.7399 22.0315 14.1294 22.3968V22.3968Z" stroke="#FEC82F" stroke-width="1.5" stroke-miterlimit="1.5" stroke-linecap="round" stroke-linejoin="round"/>
<path d="M18.8902 17.3293C18.7497 14.2554 17.3863 9.70196 13.8415 9.09101C11.8455 8.88475 11.182 11.7829 11.0942 13.2772C10.9117 16.3857 12.7817 20.9073 16.3184 21.3084C18.4163 21.5464 18.9615 18.8906 18.8902 17.3293Z" stroke="#FEC82F" stroke-width="1.5" stroke-miterlimit="1.5" stroke-linecap="round" stroke-linejoin="round"/>
<path d="M14.9193 13.7321L14.6958 13.0162C14.6661 13.0255 14.6371 13.0366 14.6088 13.0494L14.9193 13.7321ZM14.8753 16.2L15.5753 15.9308L14.8753 16.2ZM15.8165 17.0972L15.5188 16.4088L15.5188 16.4088L15.8165 17.0972ZM14.6088 13.0494C13.7561 13.4373 13.7052 14.3409 13.7539 14.8634C13.8082 15.4452 14.0166 16.0566 14.1752 16.4691L15.5753 15.9308C15.4261 15.5428 15.2817 15.0909 15.2475 14.7241C15.2077 14.2981 15.3328 14.368 15.2299 14.4148L14.6088 13.0494ZM14.1752 16.4691C14.2795 16.7403 14.489 17.0766 14.7233 17.3348C14.841 17.4644 15.0013 17.6153 15.1969 17.722C15.3857 17.8249 15.7333 17.9503 16.1142 17.7856L15.5188 16.4088C15.7428 16.3119 15.9111 16.4029 15.915 16.405C15.9259 16.4109 15.8957 16.3946 15.8341 16.3267C15.7784 16.2654 15.7202 16.1875 15.6695 16.1071C15.6172 16.0241 15.5866 15.9602 15.5753 15.9308L14.1752 16.4691ZM16.1142 17.7856C16.7582 17.5071 16.9237 16.8446 16.9586 16.4155C16.9973 15.9401 16.9142 15.4121 16.7781 14.945C16.642 14.4783 16.4317 13.9998 16.1613 13.6369C16.0272 13.457 15.8495 13.2663 15.6218 13.1339C15.3812 12.994 15.0528 12.9047 14.6958 13.0162L15.1429 14.448C15.0007 14.4924 14.892 14.4447 14.8678 14.4306C14.8564 14.424 14.8916 14.4434 14.9586 14.5332C15.0902 14.7099 15.2345 15.0098 15.338 15.3648C15.4414 15.7195 15.4829 16.0565 15.4636 16.2938C15.4405 16.5773 15.3655 16.4751 15.5188 16.4088L16.1142 17.7856Z" fill="#FEC82F"/>
<path d="M8.01769 22.8438C6.46354 22.007 5.35359 19.7275 4.89534 18.1342C4.68673 17.4088 4.56962 16.6036 4.73352 15.8565" stroke="#FEC82F" stroke-width="1.5" stroke-miterlimit="1.5" stroke-linecap="round" stroke-linejoin="round"/>
<path d="M20.4012 21.6362C21.6701 21.989 22.9499 22.3083 24.2066 22.7061C23.8206 22.0028 23.6492 21.0614 23.41 20.304C24.9439 20.1346 26.5111 19.9805 28.0293 19.7182C27.0773 18.8426 26.2171 17.6743 25.443 16.6552C26.9043 16.2492 28.3412 15.7417 29.7714 15.2395C28.3144 14.2426 26.8619 13.1919 25.3396 12.3011C26.3426 10.9334 27.2767 9.50985 28.3338 8.18387C26.5675 8.16829 24.8005 8.06121 23.0342 8.05757C23.5307 6.5973 24.1709 5.17191 24.7169 3.72965C22.7551 4.3406 20.867 5.15408 18.8834 5.70602C18.8501 4.52465 18.8489 3.34309 18.7492 2.16483C17.7516 3.1433 16.7667 4.12793 15.7102 5.04368C15.438 4.38876 15.1604 3.73907 14.8591 3.09669C14.4823 4.10256 14.204 5.14153 13.9316 6.17963" stroke="#FEC82F" stroke-width="1.5" stroke-miterlimit="1.5" stroke-linecap="round" stroke-linejoin="round"/>
<path d="M7.58605 22.9251C7.80915 23.3664 8.11642 23.9129 8.45392 24.279C8.59873 24.436 8.75238 24.5995 8.96586 24.6573C9.05071 24.6803 9.14372 24.6819 9.23093 24.6745C9.41832 24.6588 9.81059 24.6139 10.0223 24.4559C10.1277 24.5664 10.2442 24.682 10.3648 24.8017C10.909 25.3417 11.5372 25.965 11.6007 26.5846C11.6475 27.0419 11.2323 27.4291 10.8493 27.6058C10.0192 27.9889 9.17515 27.8919 8.4067 27.4131C7.05388 26.5703 6.29798 24.9584 5.73337 23.5368C5.73166 23.5325 5.72978 23.5278 5.72777 23.5227C5.71026 23.4789 5.68274 23.41 5.66992 23.3641C6.23655 23.2005 6.95617 23.0486 7.58605 22.9251Z" stroke="#FEC82F" stroke-width="1.5" stroke-miterlimit="1.5" stroke-linecap="round" stroke-linejoin="round"/>
<path d="M14.9026 13.7396C14.175 14.0924 14.5694 15.4051 14.8749 16.1997C15.0005 16.5266 15.4382 17.1431 15.7511 17.1135C15.7522 17.1163 15.7533 17.119 15.7543 17.1217C15.0995 17.4616 14.5754 17.7873 14.0729 18.0996C13.6212 18.3803 13.187 18.6502 12.6909 18.9099C12.2203 18.2633 11.7229 17.1282 11.6195 16.7768C11.5978 16.7032 11.5766 16.6318 11.5558 16.562C11.3912 16.009 11.2544 15.5495 11.1495 14.7812C11.628 14.6407 12.1369 14.5095 12.6511 14.3769C13.4175 14.1793 14.1956 13.9787 14.9026 13.7396Z" stroke="#FEC82F" stroke-width="1.5" stroke-miterlimit="1.5" stroke-linecap="round" stroke-linejoin="round"/>
</svg>
