<svg width="28" height="28" viewBox="0 0 28 28" fill="none" xmlns="http://www.w3.org/2000/svg">
<path fill-rule="evenodd" clip-rule="evenodd" d="M0.670937 22.9606C0.653893 22.685 0.863484 22.4474 1.13907 22.4299L9.84659 21.8773C10.1222 21.8598 10.3594 22.0691 10.3764 22.3447C10.3935 22.6203 10.1839 22.8579 9.90831 22.8754L1.20079 23.428C0.925206 23.4455 0.687981 23.2362 0.670937 22.9606Z" fill="#FFFEF9"/>
<path fill-rule="evenodd" clip-rule="evenodd" d="M8.78378 4.70994C8.44249 4.08872 7.54386 4.15252 7.293 4.82391L7.29197 4.82669L7.7612 4.99777C7.29197 4.82669 7.292 4.82663 7.29197 4.82669L7.2867 4.84112L7.27195 4.88176C7.25905 4.91739 7.24014 4.9699 7.21585 5.03805C7.16726 5.17434 7.0971 5.37324 7.0104 5.62491C6.83702 6.12816 6.59731 6.84289 6.3314 7.69036C5.80034 9.38286 5.16156 11.615 4.73953 13.7529C4.32758 15.8396 3.70074 18.0327 3.17467 19.7094C2.91201 20.5465 2.67528 21.2523 2.50436 21.7484C2.41891 21.9964 2.34995 22.1919 2.30246 22.3251C2.27872 22.3917 2.26035 22.4427 2.24798 22.4769L2.23399 22.5154L2.22969 22.5272C2.17407 22.6788 2.19467 22.8483 2.28538 22.9814C2.37608 23.1145 2.52554 23.1955 2.68676 23.1989C4.58234 23.2385 6.70249 23.2552 8.35591 22.8275C8.53893 22.7802 8.67996 22.6338 8.72044 22.4491L9.97445 16.7274C10.024 16.8029 10.0785 16.886 10.1373 16.9757C10.419 17.4055 10.7978 17.9847 11.1862 18.5829C11.9752 19.7979 12.7702 21.0399 12.9105 21.3144C12.9924 21.4747 13.0868 21.6428 13.1927 21.782C13.2834 21.9012 13.4526 22.0957 13.7101 22.1572C14.0501 22.2385 14.3112 22.0523 14.4593 21.8606C14.5951 21.6847 14.6943 21.4423 14.7765 21.1673C14.8416 20.9496 15.0278 20.5113 15.2907 19.9437C15.5479 19.3882 15.8634 18.7409 16.1707 18.1229C16.4778 17.5055 16.7753 16.9199 16.9963 16.4884C17.0393 16.4044 17.0794 16.3262 17.1161 16.2548L19.0629 21.7846C19.1371 21.9953 19.342 22.1307 19.565 22.1163L25.0985 21.7608C25.2541 21.7508 25.3963 21.6688 25.4831 21.539C25.57 21.4092 25.5914 21.2465 25.5411 21.099L25.0679 21.2618C25.5411 21.099 25.5411 21.0991 25.5411 21.099L25.5397 21.0948L25.5356 21.0831L25.5201 21.038C25.5065 20.9986 25.4863 20.9406 25.4601 20.8659C25.4076 20.7163 25.3306 20.4995 25.2325 20.2293C25.0362 19.6891 24.7548 18.9346 24.4141 18.0771C23.7349 16.3674 22.8119 14.2271 21.8517 12.5579C20.9888 11.0579 20.0871 8.97218 19.3964 7.24534C19.0524 6.38519 18.763 5.62004 18.5598 5.07006C18.4582 4.79514 18.3781 4.57415 18.3236 4.42215C18.2963 4.34615 18.2754 4.2874 18.2613 4.2478L18.2455 4.20298L18.2416 4.19178L18.2406 4.18906C18.2156 4.11762 18.1744 4.05207 18.1207 3.99886C17.9448 3.8248 17.6915 3.65981 17.3726 3.68029C17.0537 3.70078 16.8225 3.8969 16.6693 4.09211C16.6443 4.12387 16.6233 4.15852 16.6067 4.1953L13.1451 11.8529L8.78378 4.70994ZM24.3764 20.8052C24.3506 20.7333 24.3226 20.6559 24.2927 20.5735C24.099 20.0403 23.8211 19.2954 23.4848 18.4489C22.8101 16.7505 21.9083 14.6641 20.9847 13.0587C20.0846 11.494 19.1614 9.353 18.468 7.61928C18.12 6.74916 17.8274 5.97557 17.6219 5.41939C17.5354 5.18531 17.4642 4.98961 17.4107 4.84129L13.8797 12.6525C13.7885 12.8821 13.5804 13.1497 13.2259 13.1725C12.8714 13.1952 12.6323 12.9564 12.5138 12.7403L8.10497 5.51952C8.06376 5.6363 8.01344 5.78024 7.95555 5.94827C7.78462 6.4444 7.5479 7.1502 7.28524 7.9873C6.75916 9.66394 6.13233 11.857 5.72038 13.9438C5.29835 16.0816 4.65956 18.3138 4.12851 20.0063C3.8626 20.8538 3.62288 21.5685 3.44951 22.0718C3.4328 22.1202 3.41671 22.1668 3.40127 22.2113C4.97487 22.2335 6.54175 22.2049 7.81136 21.9296L9.12968 15.9146C9.13475 15.8914 9.14147 15.8686 9.14977 15.8464C9.237 15.6129 9.44665 15.3313 9.81075 15.3079C10.1604 15.2854 10.3978 15.5176 10.518 15.7313L10.6345 15.9083C10.716 16.0324 10.8328 16.2102 10.9739 16.4255C11.2561 16.856 11.6357 17.4365 12.0251 18.0362C12.7918 19.2168 13.6302 20.5227 13.801 20.8571C13.8065 20.8677 13.8118 20.8781 13.8172 20.8884C13.8177 20.8867 13.8182 20.8849 13.8187 20.8832C13.908 20.5848 14.1264 20.081 14.3837 19.5255C14.6466 18.9578 14.9667 18.3011 15.2758 17.6796C15.5851 17.0576 15.8846 16.4682 16.1067 16.0345C16.2177 15.8177 16.3095 15.6396 16.3735 15.5156L16.4478 15.3722L16.4737 15.3223C16.488 15.2947 16.5054 15.2677 16.5246 15.2432C16.6824 15.0422 16.9114 14.9512 17.1162 14.938C17.3211 14.9249 17.5594 14.9858 17.7405 15.1651C17.794 15.2181 17.8349 15.2826 17.8599 15.3537L19.8808 21.094L24.3764 20.8052ZM9.68433 16.2574C9.68434 16.2574 9.68431 16.2574 9.68433 16.2574Z" fill="#FFFEF9"/>
<path fill-rule="evenodd" clip-rule="evenodd" d="M17.6421 21.8842L17.5878 21.3872C17.3133 21.4177 17.1151 21.665 17.1451 21.9395C17.1751 22.2139 17.422 22.4117 17.6964 22.3812M17.6964 22.3812L17.725 22.3781L17.8095 22.369C17.8834 22.3612 17.9911 22.35 18.1257 22.3366C18.395 22.3098 18.7715 22.2743 19.1999 22.2393C20.061 22.169 21.1157 22.1024 21.9308 22.1111C22.7943 22.1203 23.887 22.0503 24.7538 21.9796C25.1893 21.944 25.5718 21.9079 25.8456 21.8807C25.9825 21.8671 26.0923 21.8557 26.1681 21.8476L26.2553 21.8383L26.2858 21.835C26.5602 21.8044 26.759 21.5571 26.729 21.2826C26.699 21.0081 26.4522 20.8104 26.1777 20.8409C26.1777 20.8409 26.1777 20.8409 26.1777 20.8409L26.1491 20.844L26.0646 20.8531C25.9907 20.8609 25.883 20.8721 25.7484 20.8855C25.4791 20.9123 25.1027 20.9478 24.6743 20.9828C23.8131 21.0531 22.7584 21.1197 21.9433 21.111C21.0798 21.1018 19.9871 21.1718 19.1204 21.2425C18.6848 21.2781 18.3023 21.3142 18.0286 21.3414C17.8917 21.355 17.7818 21.3664 17.7061 21.3744L17.6188 21.3838L17.5878 21.3872L17.6421 21.8842" fill="#FFFEF9"/>
</svg>
