<svg width="33" height="33" viewBox="0 0 33 33" fill="none" xmlns="http://www.w3.org/2000/svg">
<g filter="url(#filter0_d_851_12122)">
<path d="M14.0407 16.5171C14.1832 16.6662 14.3583 16.7546 14.5659 16.7824C14.7096 16.8017 15.0391 16.8295 15.5543 16.866C16.9063 16.9658 17.8676 16.9482 18.4383 16.8134C18.8407 16.721 19.0548 16.579 19.0805 16.3874C19.1061 16.1957 19.0477 16.0254 18.9051 15.8763C18.7647 15.7112 18.5907 15.6147 18.3831 15.5869C18.2394 15.5677 17.9099 15.5398 17.3947 15.5033C16.0427 15.4036 15.0814 15.4211 14.5107 15.556C14.1082 15.6484 13.8942 15.7904 13.8685 15.982C13.8428 16.1736 13.9002 16.352 14.0407 16.5171Z" fill="#FFFEF9"/>
<path fill-rule="evenodd" clip-rule="evenodd" d="M16.9545 26.7606C20.1288 26.6588 23.4137 25.2721 25.5719 22.0056C25.5778 21.9967 25.5835 21.9875 25.5888 21.9782C29.0335 15.9529 25.8345 8.22586 19.6428 6.35775C17.9589 5.84964 16.0222 5.91378 14.2021 6.35498C12.3804 6.79655 10.6339 7.62568 9.32485 8.69454C7.03364 10.5654 6.00586 13.3909 6.00003 16.1965C5.9942 18.9981 7.00569 21.8404 8.87299 23.7885C10.7014 25.6959 13.7996 26.8619 16.9545 26.7606ZM9.5949 23.0965C7.93031 21.3599 6.99466 18.778 7.00002 16.1986C7.00538 13.623 7.94711 11.1105 9.95733 9.46913C11.1351 8.50747 12.7407 7.73818 14.4377 7.32683C16.1362 6.91511 17.8848 6.87181 19.354 7.31512C24.9136 8.99254 27.8474 15.992 24.7286 21.4678C22.7756 24.4139 19.8191 25.6682 16.9224 25.7612C14.0018 25.8549 11.1952 24.766 9.5949 23.0965Z" fill="#FFFEF9"/>
</g>
<defs>
<filter id="filter0_d_851_12122" x="0" y="0" width="33" height="33" filterUnits="userSpaceOnUse" color-interpolation-filters="sRGB">
<feFlood flood-opacity="0" result="BackgroundImageFix"/>
<feColorMatrix in="SourceAlpha" type="matrix" values="0 0 0 0 0 0 0 0 0 0 0 0 0 0 0 0 0 0 127 0" result="hardAlpha"/>
<feOffset/>
<feGaussianBlur stdDeviation="3"/>
<feColorMatrix type="matrix" values="0 0 0 0 1 0 0 0 0 1 0 0 0 0 1 0 0 0 1 0"/>
<feBlend mode="normal" in2="BackgroundImageFix" result="effect1_dropShadow_851_12122"/>
<feBlend mode="normal" in="SourceGraphic" in2="effect1_dropShadow_851_12122" result="shape"/>
</filter>
</defs>
</svg>
