<svg width="28" height="28" viewBox="0 0 28 28" fill="none" xmlns="http://www.w3.org/2000/svg">
<path fill-rule="evenodd" clip-rule="evenodd" d="M15.3126 3.74879C15.465 3.74199 15.6122 3.80519 15.7123 3.9204C18.9948 7.69925 21.4785 9.60905 23.1177 10.572C23.9367 11.0532 24.5442 11.2975 24.9349 11.421C25.1303 11.4828 25.2718 11.5144 25.3588 11.5303C25.4023 11.5383 25.4323 11.5423 25.4486 11.5442L25.4627 11.5457C25.637 11.5567 25.7931 11.6578 25.8742 11.8128C25.9562 11.9694 25.9494 12.1578 25.8563 12.3081L25.4312 12.0447C25.8563 12.3081 25.8563 12.3081 25.8563 12.3081L25.8547 12.3105L25.8507 12.317L25.8353 12.3417L25.7758 12.4364C25.7236 12.519 25.6469 12.6396 25.5478 12.793C25.3499 13.0998 25.0628 13.5376 24.7051 14.0637C24.2806 14.6883 23.7558 15.4385 23.1622 16.2424C23.1996 16.3463 23.203 16.4632 23.164 16.5756C23.0888 16.7922 22.8796 16.9241 22.6615 16.9108C22.4032 17.2507 22.1348 17.5963 21.8583 17.9427C20.7269 19.36 19.4509 20.8029 18.1808 21.9169C17.6069 22.4203 17.016 22.8731 16.4253 23.2248C16.2404 23.4096 16.0311 23.569 15.7976 23.696C15.0989 24.0762 14.2468 24.1325 13.3141 23.8085C12.5598 23.5466 11.9 23.0823 11.5237 22.3938C11.1418 21.6953 11.0918 20.8393 11.4233 19.8847C11.686 19.1282 12.1495 18.4655 12.8359 18.0858C13.533 17.7002 14.3873 17.6469 15.3392 17.9775C16.2474 18.2929 16.8768 18.8664 17.1952 19.5936C17.4268 20.1226 17.4815 20.7038 17.3879 21.2809C17.4322 21.2429 17.4768 21.2043 17.5214 21.1651C18.7281 20.1067 19.9621 18.7152 21.0767 17.3189C21.2904 17.0512 21.4993 16.7838 21.7024 16.5191C21.6998 16.5179 21.6972 16.5166 21.6946 16.5153C21.1741 16.2565 20.4264 15.8421 19.4978 15.2131C17.7124 14.0037 15.2608 12.0024 12.4707 8.79064C11.2108 10.3629 9.6529 12.2404 7.91852 14.1883C7.64935 14.9147 7.20107 15.4363 6.54232 15.7337C5.88854 16.0289 5.08452 16.0765 4.16503 15.9846C4.13026 15.9811 4.09595 15.974 4.06266 15.9634C3.14827 15.6714 2.51418 15.1035 2.1904 14.3822C1.87035 13.6692 1.87515 12.8554 2.13847 12.0972C2.4005 11.3427 2.86865 10.7339 3.55425 10.3902C4.23626 10.0483 5.06657 10.0022 5.99307 10.2396L6.00713 10.2434C6.93322 10.5097 7.57044 11.0832 7.89398 11.8117C7.98864 12.0249 8.05484 12.2475 8.09424 12.4751C9.82364 10.4878 11.3385 8.62202 12.5003 7.14526C13.2598 6.17989 13.8679 5.38139 14.2858 4.82466C14.4947 4.54632 14.6561 4.32845 14.765 4.18043C14.8195 4.10642 14.8608 4.04987 14.8885 4.01196L14.9196 3.96922L14.9292 3.95605C15.0186 3.83238 15.1601 3.75559 15.3126 3.74879ZM13.1042 7.9945C15.8891 11.2246 18.3211 13.2082 20.0586 14.3852C20.9495 14.9887 21.6585 15.3806 22.1398 15.6199C22.2023 15.6509 22.2609 15.6794 22.3155 15.7054C22.9169 14.8931 23.4488 14.133 23.8781 13.5015C24.1854 13.0494 24.4397 12.6638 24.6285 12.3729C24.1602 12.2245 23.486 11.9482 22.6111 11.4342C20.9293 10.4462 18.5037 8.5786 15.3691 5.04528C15.2873 5.15543 15.1926 5.2824 15.0855 5.42498C14.6637 5.98697 14.051 6.79153 13.2863 7.76357C13.2265 7.83953 13.1658 7.91652 13.1042 7.9945ZM14.2956 22.9666C14.7419 22.9316 15.2478 22.7468 15.7979 22.4331C15.9999 22.2062 16.1661 21.9168 16.2854 21.5733C16.4861 20.9952 16.4758 20.4437 16.2792 19.9948C16.0859 19.5534 15.6896 19.1578 15.0111 18.9221C14.2744 18.6663 13.7232 18.7378 13.3199 18.9609C12.9058 19.1899 12.5738 19.6199 12.3679 20.2128C12.1101 20.9552 12.18 21.5098 12.4011 21.9141C12.6277 22.3286 13.0538 22.6595 13.6422 22.8639C13.8265 22.9279 14.0001 22.9707 14.1636 22.9951C14.2051 22.98 14.2494 22.9702 14.2956 22.9666ZM6.44052 14.3368C6.6412 14.1156 6.83986 13.8949 7.03631 13.6751C7.19126 13.1557 7.16761 12.64 6.98005 12.2176C6.78463 11.7776 6.39352 11.3969 5.73766 11.2065C4.98015 11.0137 4.41207 11.0788 4.0024 11.2842C3.59502 11.4884 3.2779 11.8644 3.08313 12.4253C2.88966 12.9823 2.9032 13.5282 3.1027 13.9727C3.2937 14.3982 3.67555 14.7772 4.31814 14.9947C5.14093 15.0719 5.72128 15.0072 6.13084 14.8223C6.19447 14.7936 6.25536 14.7613 6.31353 14.7251C6.2992 14.5885 6.34093 14.4465 6.44052 14.3368Z" fill="#FFFEF9"/>
</svg>
