<svg width="28" height="28" viewBox="0 0 28 28" fill="none" xmlns="http://www.w3.org/2000/svg">
<path fill-rule="evenodd" clip-rule="evenodd" d="M9.73385 3.85469C10.8777 3.5265 12.3618 3.23989 13.6041 3.89269C14.4069 4.31461 14.7451 4.99363 14.866 5.71879C14.9648 6.31123 14.9241 6.97844 14.8872 7.58452C14.8814 7.67898 14.8758 7.77195 14.8707 7.86293C14.8651 7.96509 14.8599 8.07073 14.8547 8.17887C14.8238 8.81626 14.7887 9.54065 14.6151 10.1531C14.5104 10.5223 14.3474 10.8862 14.0796 11.188C13.8058 11.4965 13.4434 11.7165 12.9839 11.8225C12.678 11.8931 12.258 11.9194 11.8695 11.9181C11.4787 11.9168 11.0655 11.8873 10.7679 11.8245C10.5757 11.784 10.4581 11.7821 10.3942 11.7893C10.3949 11.815 10.3984 11.8523 10.4084 11.9035C10.4341 12.0341 10.4937 12.2087 10.5954 12.4276C11.0081 13.3166 11.9551 14.6082 13.0495 15.9012C14.1354 17.184 15.3272 18.4228 16.1934 19.2005C16.2746 19.2734 16.3516 19.341 16.4241 19.4033C16.3681 19.0725 16.3345 18.7203 16.337 18.3763C16.3419 17.7124 16.4832 16.909 17.0572 16.446C17.6462 15.9711 18.4876 16.0315 19.1852 16.2484C19.9149 16.4754 20.6668 16.9238 21.2246 17.4817C21.7746 18.0317 22.2883 18.81 22.6132 19.6029C22.9296 20.3753 23.112 21.2729 22.8401 22.0086C22.5766 22.7217 22.2498 23.2404 21.7553 23.6145C21.2735 23.9789 20.6819 24.1669 19.9803 24.3233C18.6145 24.6277 17.3484 24.8547 15.713 24.3096C14.2954 23.8371 13.5903 23.3291 12.487 22.5342C12.3576 22.4409 12.2227 22.3437 12.0805 22.2422C11.3133 21.6941 10.5351 20.6797 9.77576 19.5178C9.04962 18.4066 8.3032 17.0998 7.56695 15.8108C7.52359 15.7349 7.48026 15.6591 7.43697 15.5833C6.61593 14.1465 6.1607 12.5005 5.87994 10.9229C5.85392 10.7766 5.82575 10.6256 5.79692 10.4711C5.65773 9.72497 5.50319 8.89653 5.50005 8.12211C5.49618 7.16761 5.71888 6.19397 6.53895 5.46218C7.40546 4.68896 8.69385 4.15307 9.73385 3.85469ZM13.1389 4.7779C12.2783 4.32567 11.1491 4.48899 10.0096 4.81591C9.02814 5.09751 7.90738 5.58133 7.20475 6.20831C6.68162 6.67513 6.49679 7.31529 6.50004 8.11805C6.50278 8.79311 6.63624 9.51178 6.77452 10.2564C6.80471 10.419 6.83513 10.5828 6.86448 10.7476C7.13538 12.2698 7.56416 13.7903 8.30521 15.0872C8.34681 15.16 8.38839 15.2328 8.42993 15.3055C9.17126 16.6033 9.90375 17.8857 10.6129 18.9708C11.3713 20.1314 12.0621 21.0001 12.6617 21.4284C12.8054 21.5311 12.9403 21.6281 13.0683 21.7203C14.1695 22.5127 14.7606 22.9381 16.0292 23.361C17.3937 23.8158 18.4331 23.6436 19.7627 23.3473C20.4354 23.1973 20.8495 23.0457 21.152 22.8169C21.4417 22.5978 21.6775 22.2697 21.9021 21.662C22.0419 21.2836 21.9743 20.6812 21.6878 19.9821C21.4098 19.3035 20.9676 18.6388 20.5175 18.1888C20.0754 17.7467 19.4648 17.3826 18.8882 17.2033C18.2796 17.014 17.8711 17.0744 17.685 17.2245C17.484 17.3865 17.3415 17.7758 17.337 18.3837C17.3328 18.9576 17.4543 19.5771 17.5993 20.0003C17.6298 20.0892 17.6599 20.2008 17.6617 20.3184C17.6633 20.4312 17.6375 20.6481 17.4427 20.8029C17.2564 20.9508 17.049 20.9341 16.9518 20.9164C16.8442 20.8969 16.7461 20.8547 16.6697 20.8161C16.3742 20.6667 15.9663 20.3406 15.5253 19.9446C14.6176 19.1295 13.3941 17.856 12.2863 16.5472C11.1871 15.2487 10.1623 13.8694 9.68835 12.8487C9.56833 12.5902 9.47409 12.335 9.4272 12.0964C9.38182 11.8655 9.36937 11.5932 9.48026 11.3419C9.60448 11.0604 9.84446 10.8906 10.1249 10.823C10.3817 10.7611 10.6731 10.7826 10.9742 10.8461C11.1767 10.8887 11.5135 10.9169 11.8728 10.9181C12.2343 10.9193 12.5645 10.893 12.7591 10.8481C13.0241 10.7869 13.2011 10.6714 13.3316 10.5243C13.468 10.3705 13.5741 10.1587 13.653 9.88032C13.7926 9.38791 13.8221 8.79822 13.8544 8.15262C13.86 8.03928 13.8658 7.92422 13.8722 7.80767C13.8778 7.70668 13.8837 7.60771 13.8895 7.51072C13.9262 6.89251 13.9582 6.35439 13.8796 5.88325C13.7955 5.37857 13.5944 5.01727 13.1389 4.7779Z" fill="#FFFEF9"/>
</svg>
