<svg width="33" height="33" viewBox="0 0 33 33" fill="none" xmlns="http://www.w3.org/2000/svg">
<g filter="url(#filter0_d_851_12107)">
<path d="M15.8602 20.6022C16.0275 20.7192 16.2198 20.7778 16.4373 20.7778C16.6547 20.7778 16.8471 20.7192 17.0143 20.6022C17.1816 20.4683 17.2652 20.3011 17.2652 20.1004C17.2652 19.9331 17.2234 19.5986 17.1398 19.0968C17.0562 18.595 17.0143 18.2605 17.0143 18.0932C17.0143 17.6918 17.282 17.491 17.8172 17.491L18.5699 17.5412C18.9044 17.5914 19.147 17.6165 19.2975 17.6165C19.4982 17.6165 19.6655 17.5579 19.7993 17.4409C19.9331 17.307 20 17.1398 20 16.9391C20 16.4373 19.5735 16.1864 18.7204 16.1864C18.3859 16.1864 18.1099 16.2031 17.8925 16.2366L17.2652 16.2867C17.2151 16.2867 17.1732 16.2533 17.1398 16.1864C17.1063 16.1362 17.0729 16.0442 17.0394 15.9104C16.9892 15.6595 16.9642 15.3751 16.9642 15.0573C16.9474 14.957 16.9391 14.8232 16.9391 14.6559L16.914 14.0287V13.7276C16.914 13.5269 16.8554 13.3596 16.7384 13.2258C16.6213 13.0753 16.4707 13 16.2867 13C15.7515 13 15.4839 13.4683 15.4839 14.405C15.4839 14.6057 15.509 14.9235 15.5591 15.3584L15.6344 16.2366C15.4002 16.27 15.2079 16.2867 15.0573 16.2867L14.3047 16.2366L13.5771 16.1864C13.4098 16.1864 13.2676 16.2533 13.1505 16.3871C13.0502 16.5209 13 16.6714 13 16.8387C13 17.374 13.3596 17.6416 14.0789 17.6416C14.2294 17.6416 14.4719 17.6165 14.8065 17.5663L15.4588 17.5412V17.7168C15.4588 18.0514 15.4922 18.4528 15.5591 18.9211C15.6093 19.4731 15.6344 19.8829 15.6344 20.1505C15.6344 20.3345 15.7097 20.4851 15.8602 20.6022Z" fill="#FFFEF9"/>
<path fill-rule="evenodd" clip-rule="evenodd" d="M16.9545 26.7606C20.1288 26.6588 23.4137 25.2721 25.5719 22.0056C25.5778 21.9967 25.5835 21.9875 25.5888 21.9782C29.0335 15.9529 25.8345 8.22586 19.6428 6.35775C17.9589 5.84964 16.0222 5.91378 14.2021 6.35498C12.3804 6.79655 10.6339 7.62568 9.32485 8.69454C7.03364 10.5654 6.00586 13.3909 6.00003 16.1965C5.9942 18.9981 7.00569 21.8404 8.87299 23.7885C10.7014 25.6959 13.7996 26.8619 16.9545 26.7606ZM9.5949 23.0965C7.93031 21.3599 6.99466 18.778 7.00002 16.1986C7.00538 13.623 7.94711 11.1105 9.95733 9.46913C11.1351 8.50747 12.7407 7.73818 14.4377 7.32683C16.1362 6.91511 17.8848 6.87181 19.354 7.31512C24.9136 8.99254 27.8474 15.992 24.7286 21.4678C22.7756 24.4139 19.8191 25.6682 16.9224 25.7612C14.0018 25.8549 11.1952 24.766 9.5949 23.0965Z" fill="#FFFEF9"/>
</g>
<defs>
<filter id="filter0_d_851_12107" x="0" y="0" width="33" height="33" filterUnits="userSpaceOnUse" color-interpolation-filters="sRGB">
<feFlood flood-opacity="0" result="BackgroundImageFix"/>
<feColorMatrix in="SourceAlpha" type="matrix" values="0 0 0 0 0 0 0 0 0 0 0 0 0 0 0 0 0 0 127 0" result="hardAlpha"/>
<feOffset/>
<feGaussianBlur stdDeviation="3"/>
<feColorMatrix type="matrix" values="0 0 0 0 1 0 0 0 0 1 0 0 0 0 1 0 0 0 1 0"/>
<feBlend mode="normal" in2="BackgroundImageFix" result="effect1_dropShadow_851_12107"/>
<feBlend mode="normal" in="SourceGraphic" in2="effect1_dropShadow_851_12107" result="shape"/>
</filter>
</defs>
</svg>
