<svg width="28" height="28" viewBox="0 0 28 28" fill="none" xmlns="http://www.w3.org/2000/svg">
<path d="M2.91423 21.6852C2.59706 21.575 2.31561 21.1509 2.50992 20.8922C2.80139 20.5041 3.31288 20.3556 3.72721 20.3365L11.9222 22.206C12.398 22.3713 12.5208 22.7403 12.4851 23.0541C12.1937 23.4422 11.6822 23.5907 11.2679 23.6098L2.91423 21.6852C3.07281 21.7403 3.07281 21.7403 2.91423 21.6852Z" fill="#FFFEF9"/>
<path d="M13.2334 14.7389L6.00073 9.19562C5.62662 8.9089 5.64123 8.54735 6.03724 8.29174C6.43326 8.03613 6.94667 8.05687 7.32077 8.34359L14.5535 13.8868C14.9276 14.1736 14.913 14.5351 14.5169 14.7907C14.1209 15.0463 13.4828 14.93 13.2334 14.7389Z" fill="#FFFEF9"/>
<path d="M24.0492 11.3699L20.9989 4.49988C20.7486 4.13866 20.9837 3.50749 21.4996 3.49993C22 3.49994 22.4271 4.01485 22.5333 4.41872L25.4996 10.9999C25.4996 11.3877 25.6424 11.9142 25.1265 11.9218C24.7547 11.8867 24.2995 11.7312 24.0492 11.3699Z" fill="#FFFEF9"/>
</svg>
