<svg width="33" height="33" viewBox="0 0 33 33" fill="none" xmlns="http://www.w3.org/2000/svg">
<g>
<path d="M11.7291 16.8435C11.453 16.8451 11.2279 16.6226 11.2263 16.3464C11.2247 16.0703 11.4472 15.8451 11.7234 15.8435C12.2611 15.8404 12.8231 15.7911 13.489 15.7326C14.8189 15.6159 16.5635 15.4628 19.3583 15.5685L19.1402 15.4331C18.7061 15.1633 18.25 14.8786 17.865 14.6241C17.4945 14.3793 17.1449 14.1337 16.9565 13.9467C16.7605 13.7522 16.7593 13.4356 16.9538 13.2396C17.1484 13.0436 17.4649 13.0424 17.6609 13.237C17.7668 13.3421 18.0301 13.5346 18.4164 13.7899C18.788 14.0355 19.2325 14.3131 19.6681 14.5837L19.8034 14.6678C20.1881 14.9068 20.5595 15.1374 20.8482 15.3258C21.0088 15.4306 21.1521 15.5276 21.261 15.609C21.3148 15.6491 21.3687 15.6917 21.4149 15.734C21.4379 15.7551 21.4656 15.7821 21.4924 15.8136C21.5141 15.8392 21.5606 15.8967 21.5933 15.9782C21.7116 16.2736 21.5237 16.4991 21.4964 16.5318C21.4403 16.5992 21.3743 16.6506 21.3292 16.6833C21.2322 16.7538 21.1026 16.8296 20.9669 16.9047C20.8049 16.9943 20.5974 17.1027 20.3683 17.2223C20.2132 17.3033 20.0482 17.3895 19.8809 17.4784C19.021 17.9355 18.0194 18.5077 17.3355 19.1262C17.1307 19.3115 16.8145 19.2956 16.6293 19.0908C16.444 18.886 16.4599 18.5698 16.6647 18.3846C17.4509 17.6736 18.5543 17.0511 19.4116 16.5954L19.4552 16.5722C16.6712 16.4573 15.0233 16.604 13.6939 16.7224C12.9902 16.7851 12.3757 16.8398 11.7291 16.8435Z" fill="#FFFEF9"/>
<path fill-rule="evenodd" clip-rule="evenodd" d="M7.42811 10.7612C9.58631 7.49477 12.8712 6.10805 16.0455 6.00621C19.2004 5.90499 22.2986 7.07097 24.127 8.97836C25.9943 10.9264 27.0058 13.7688 27 16.5704C26.9941 19.3759 25.9664 22.2014 23.6751 24.0723C22.3661 25.1412 20.6196 25.9703 18.7979 26.4119C16.9778 26.8531 15.0411 26.9172 13.3572 26.4091C7.16552 24.541 3.96647 16.814 7.41121 10.7887C7.41654 10.7794 7.42218 10.7702 7.42811 10.7612ZM26 16.5683C26.0053 13.9888 25.0697 11.407 23.4051 9.67034C21.8048 8.00088 18.9982 6.91199 16.0776 7.00569C13.1809 7.09863 10.2244 8.35291 8.27135 11.299C5.15256 16.7748 8.08639 23.7743 13.646 25.4517C15.1152 25.895 16.8638 25.8517 18.5623 25.44C20.2593 25.0287 21.8649 24.2594 23.0427 23.2977C25.0529 21.6563 25.9946 19.1438 26 16.5683Z" fill="#FFFEF9"/>
</g>
<defs>
<filter id="filter0_d_286_1614" x="0" y="0" width="33" height="33" filterUnits="userSpaceOnUse" color-interpolation-filters="sRGB">
<feFlood flood-opacity="0" result="BackgroundImageFix"/>
<feColorMatrix in="SourceAlpha" type="matrix" values="0 0 0 0 0 0 0 0 0 0 0 0 0 0 0 0 0 0 127 0" result="hardAlpha"/>
<feOffset/>
<feGaussianBlur stdDeviation="3"/>
<feColorMatrix type="matrix" values="0 0 0 0 1 0 0 0 0 1 0 0 0 0 1 0 0 0 1 0"/>
<feBlend mode="normal" in2="BackgroundImageFix" result="effect1_dropShadow_286_1614"/>
<feBlend mode="normal" in="SourceGraphic" in2="effect1_dropShadow_286_1614" result="shape"/>
</filter>
</defs>
</svg>
