<svg width="28" height="28" viewBox="0 0 28 28" fill="none" xmlns="http://www.w3.org/2000/svg">
<path fill-rule="evenodd" clip-rule="evenodd" d="M17.8358 4.14125C19.3476 4.29607 20.7447 4.59315 21.7802 5.11087C22.0121 5.22677 22.1863 5.41806 22.3187 5.62055C22.4527 5.82549 22.5628 6.07098 22.6555 6.33793C22.8407 6.87141 22.9769 7.55229 23.0755 8.31464C23.2734 9.84367 23.3302 11.7832 23.2845 13.7168C23.2388 15.6525 23.09 17.6012 22.8708 19.1528C22.7613 19.9274 22.6328 20.6137 22.4875 21.154C22.415 21.4238 22.3356 21.667 22.2482 21.8709C22.1647 22.0655 22.057 22.2648 21.9102 22.4117C21.6236 22.6983 21.1432 22.8893 20.6358 23.0325C20.1022 23.183 19.4398 23.306 18.7014 23.4052C17.2225 23.604 15.3893 23.7141 13.5653 23.7455C11.7405 23.777 9.91125 23.73 8.43839 23.6112C7.70279 23.5518 7.04753 23.474 6.52245 23.3769C6.02515 23.285 5.56226 23.1628 5.27929 22.9741C5.07515 22.8381 4.9496 22.616 4.8674 22.4334C4.77716 22.2329 4.69998 21.9883 4.63232 21.7176C4.49654 21.1744 4.38434 20.4652 4.29389 19.6579C4.11257 18.0394 4.01265 15.9702 4.00113 13.9196C3.9896 11.8697 4.0663 9.82149 4.2423 8.24646C4.32998 7.46183 4.44433 6.77525 4.59144 6.25911C4.66454 6.00261 4.7518 5.7661 4.86035 5.57492C4.96003 5.39935 5.12642 5.17452 5.39843 5.08378C6.67455 4.65808 9.7746 4.17809 13.0095 4.03952C14.6353 3.96988 16.3145 3.98546 17.8358 4.14125ZM5.76294 6.01665C5.75496 6.02755 5.74382 6.04424 5.72997 6.06864C5.67715 6.16167 5.61592 6.31295 5.55314 6.53321C5.42848 6.9706 5.3215 7.59345 5.23612 8.35751C5.06601 9.87984 4.98971 11.8859 5.00111 13.9139C5.01251 15.9412 5.11143 17.9734 5.28767 19.5465C5.37601 20.335 5.48227 20.9942 5.60248 21.4751C5.66282 21.7165 5.72302 21.898 5.77927 22.0229C5.81626 22.1051 5.84192 22.1409 5.84948 22.1515C5.95466 22.213 6.22399 22.3048 6.70419 22.3936C7.18304 22.4821 7.80125 22.5565 8.51878 22.6144C9.9522 22.73 11.748 22.7767 13.5481 22.7457C15.3491 22.7146 17.1408 22.606 18.5682 22.4141C19.2829 22.3181 19.894 22.2027 20.3643 22.0701C20.8607 21.93 21.1147 21.7929 21.2031 21.7046C21.2156 21.692 21.263 21.6309 21.3292 21.4766C21.3914 21.3315 21.4565 21.1374 21.5218 20.8943C21.6524 20.4088 21.7741 19.7667 21.8806 19.0128C22.0933 17.5074 22.2398 15.5983 22.2848 13.6932C22.3298 11.7862 22.2726 9.90226 22.0838 8.44297C21.9891 7.71116 21.8638 7.10667 21.7108 6.66583C21.6344 6.44562 21.5562 6.28172 21.4817 6.16779C21.4057 6.05143 21.3512 6.0144 21.333 6.00531C20.458 5.56781 19.2022 5.28641 17.7339 5.13604C16.2749 4.98664 14.6465 4.97032 13.0523 5.03861C9.89119 5.17401 6.93986 5.63815 5.76294 6.01665Z" fill="#FFFEF9"/>
<path fill-rule="evenodd" clip-rule="evenodd" d="M18.4614 9.66812C18.6087 9.65211 18.7699 9.64727 18.9081 9.68598C19.1207 9.74549 19.2133 9.92931 19.2526 10.0349C19.2972 10.1549 19.3198 10.2974 19.3317 10.4413C19.3558 10.7336 19.3421 11.1206 19.3048 11.5571C19.2298 12.4353 19.0534 13.5767 18.844 14.7031C18.6344 15.831 18.39 16.9534 18.1767 17.7964C18.0703 18.2168 17.9702 18.5738 17.8847 18.8288C17.8425 18.9546 17.8003 19.0665 17.759 19.1516C17.7392 19.1923 17.7123 19.2424 17.6772 19.2873C17.6597 19.3096 17.6312 19.3425 17.5903 19.3723C17.5506 19.4012 17.475 19.4447 17.3713 19.4447C17.2839 19.4447 17.1981 19.4186 17.1418 19.3994C17.0755 19.3768 17.0011 19.3458 16.9227 19.31C16.7652 19.2381 16.5715 19.1373 16.3571 19.0174C15.9272 18.7771 15.3968 18.4502 14.8754 18.0992C14.3549 17.7489 13.8359 17.3694 13.4319 17.0234C13.2304 16.8508 13.0509 16.6809 12.9128 16.5228C12.7846 16.3758 12.655 16.1982 12.6112 16.012C12.5925 15.9327 12.6057 15.8673 12.6136 15.8368C12.6225 15.802 12.6349 15.7741 12.6437 15.756C12.6614 15.72 12.6827 15.688 12.6995 15.6644C12.7345 15.6152 12.7811 15.5594 12.8315 15.5022C12.9342 15.3858 13.0792 15.2345 13.2479 15.0634C13.5391 14.7683 13.9148 14.4008 14.2966 14.0273C14.3586 13.9667 14.4208 13.9058 14.4828 13.8451C14.8838 13.4526 15.2773 13.0656 15.5803 12.7538C15.5195 12.7939 15.4547 12.8371 15.3863 12.8831C15.1324 13.0539 14.8385 13.2562 14.5224 13.4739C14.2733 13.6453 14.0105 13.8263 13.7426 14.0088C13.1406 14.4188 12.5197 14.8316 12.0101 15.1335C11.7562 15.2838 11.5214 15.4118 11.3258 15.4984C11.2285 15.5415 11.1319 15.5784 11.042 15.6017C10.9629 15.6222 10.8421 15.6452 10.7195 15.6145C9.5744 15.3283 8.6051 14.9328 7.87241 14.6187C7.83437 14.6024 7.78036 14.5716 7.73419 14.5141C7.68444 14.4523 7.65888 14.3781 7.65644 14.3045C7.6523 14.1793 7.71474 14.094 7.73101 14.0721C7.77406 14.0142 7.83066 13.9718 7.86025 13.9502C7.93387 13.8966 8.04056 13.833 8.16421 13.7645C8.41697 13.6244 8.79154 13.436 9.24684 13.2182C10.1595 12.7816 11.4165 12.2175 12.7191 11.6684C14.021 11.1196 15.3742 10.5835 16.4779 10.2043C17.029 10.015 17.5246 9.86248 17.9236 9.76741C18.1229 9.71994 18.3048 9.68513 18.4614 9.66812ZM8.74015 14.2361C8.95507 14.1244 9.22671 13.9899 9.5435 13.8384C10.4447 13.4073 11.6916 12.8476 12.9861 12.302C14.2813 11.756 15.6184 11.2265 16.7013 10.8545C17.2434 10.6683 17.7152 10.5238 18.083 10.4362C18.2672 10.3923 18.4185 10.3643 18.5357 10.3516C18.5704 10.3478 18.6006 10.3456 18.6266 10.3445C18.634 10.3824 18.6411 10.4328 18.6465 10.4979C18.6658 10.732 18.6562 11.0733 18.6198 11.4986C18.5476 12.3439 18.3758 13.46 18.1681 14.5775C17.9607 15.6935 17.7193 16.8014 17.5102 17.6278C17.4054 18.0421 17.3102 18.3796 17.2328 18.6103C17.2239 18.6369 17.2154 18.6615 17.2073 18.6842C17.0736 18.6231 16.8982 18.5323 16.6926 18.4174C16.2815 18.1875 15.7673 17.8709 15.2593 17.5289C14.7505 17.1864 14.2553 16.8234 13.8791 16.5012C13.6906 16.3397 13.5385 16.194 13.4308 16.0707C13.3952 16.0299 13.3662 15.9935 13.3431 15.9616C13.3444 15.9601 13.3457 15.9586 13.3471 15.9571C13.4365 15.8557 13.5703 15.7155 13.7373 15.5463C14.0238 15.2559 14.3943 14.8934 14.7767 14.5194C14.8388 14.4586 14.9013 14.3976 14.9637 14.3364C15.4082 13.9014 15.853 13.4638 16.1753 13.1273C16.3352 12.9603 16.4719 12.8111 16.5643 12.6965C16.6082 12.642 16.6544 12.5804 16.6866 12.5211C16.7006 12.4954 16.7285 12.441 16.7391 12.372C16.7501 12.3013 16.7506 12.1145 16.5713 12.0057C16.5472 11.9911 16.5321 11.9805 16.5164 11.9692C16.5148 11.968 16.5129 11.9667 16.5109 11.9652C16.4949 11.9536 16.4677 11.9338 16.4356 11.9147C16.3603 11.8697 16.2712 11.8346 16.1291 11.7872C16.0627 11.7651 16.0051 11.7673 15.9749 11.7701C15.9414 11.7732 15.913 11.7801 15.8931 11.7858C15.8535 11.7972 15.8164 11.8129 15.7868 11.8267C15.7261 11.8549 15.6552 11.8946 15.5806 11.9392C15.4293 12.0295 15.2302 12.1597 15.0027 12.3126C14.7479 12.4839 14.447 12.6911 14.1265 12.9117C13.8772 13.0833 13.6161 13.2631 13.3556 13.4405C12.7543 13.85 12.149 14.2521 11.6597 14.5419C11.4142 14.6874 11.2064 14.7994 11.0476 14.8698C10.9677 14.9051 10.9091 14.9259 10.8697 14.9361C10.8638 14.9376 10.8589 14.9388 10.8548 14.9397C10.0567 14.7381 9.34606 14.4807 8.74015 14.2361ZM10.8397 14.9422C10.8397 14.9422 10.8402 14.9421 10.8412 14.9421L10.8397 14.9422Z" fill="#FFFEF9"/>
</svg>
