<svg width="28" height="28" viewBox="0 0 28 28" fill="none" xmlns="http://www.w3.org/2000/svg">
<path fill-rule="evenodd" clip-rule="evenodd" d="M17.8358 4.14125C19.3476 4.29607 20.7447 4.59315 21.7802 5.11087C22.0121 5.22677 22.1863 5.41806 22.3187 5.62055C22.4527 5.82549 22.5628 6.07098 22.6555 6.33793C22.8407 6.87141 22.9769 7.55229 23.0755 8.31464C23.2734 9.84367 23.3302 11.7832 23.2845 13.7168C23.2388 15.6525 23.09 17.6012 22.8708 19.1528C22.7613 19.9274 22.6328 20.6137 22.4875 21.154C22.415 21.4238 22.3356 21.667 22.2482 21.8709C22.1647 22.0655 22.057 22.2648 21.9102 22.4117C21.6236 22.6983 21.1432 22.8893 20.6358 23.0325C20.1022 23.183 19.4398 23.306 18.7014 23.4052C17.2225 23.604 15.3893 23.7141 13.5653 23.7455C11.7405 23.777 9.91125 23.73 8.43839 23.6112C7.70279 23.5518 7.04753 23.474 6.52245 23.3769C6.02515 23.285 5.56226 23.1628 5.27929 22.9741C5.07515 22.8381 4.9496 22.616 4.8674 22.4334C4.77716 22.2329 4.69998 21.9883 4.63232 21.7176C4.49654 21.1744 4.38434 20.4652 4.29389 19.6579C4.11257 18.0394 4.01265 15.9702 4.00113 13.9196C3.9896 11.8697 4.0663 9.82149 4.2423 8.24646C4.32998 7.46183 4.44433 6.77525 4.59144 6.25911C4.66454 6.00261 4.7518 5.7661 4.86035 5.57492C4.96003 5.39935 5.12642 5.17452 5.39843 5.08378C6.67455 4.65808 9.7746 4.17809 13.0095 4.03952C14.6353 3.96988 16.3145 3.98546 17.8358 4.14125ZM5.76294 6.01665C5.75496 6.02755 5.74382 6.04424 5.72997 6.06864C5.67715 6.16167 5.61592 6.31295 5.55314 6.53321C5.42848 6.9706 5.3215 7.59345 5.23612 8.35751C5.06601 9.87984 4.98971 11.8859 5.00111 13.9139C5.01251 15.9412 5.11143 17.9734 5.28767 19.5465C5.37601 20.335 5.48227 20.9942 5.60248 21.4751C5.66282 21.7165 5.72302 21.898 5.77927 22.0229C5.81626 22.1051 5.84192 22.1409 5.84948 22.1515C5.95466 22.213 6.22399 22.3048 6.70419 22.3936C7.18304 22.4821 7.80125 22.5565 8.51878 22.6144C9.9522 22.73 11.748 22.7767 13.5481 22.7457C15.3491 22.7146 17.1408 22.606 18.5682 22.4141C19.2829 22.3181 19.894 22.2027 20.3643 22.0701C20.8607 21.93 21.1147 21.7929 21.2031 21.7046C21.2156 21.692 21.263 21.6309 21.3292 21.4766C21.3914 21.3315 21.4565 21.1374 21.5218 20.8943C21.6524 20.4088 21.7741 19.7667 21.8806 19.0128C22.0933 17.5074 22.2398 15.5983 22.2848 13.6932C22.3298 11.7862 22.2726 9.90226 22.0838 8.44297C21.9891 7.71116 21.8638 7.10667 21.7108 6.66583C21.6344 6.44562 21.5562 6.28172 21.4817 6.16779C21.4057 6.05143 21.3512 6.0144 21.333 6.00531C20.458 5.56781 19.2022 5.28641 17.7339 5.13604C16.2749 4.98664 14.6465 4.97032 13.0523 5.03861C9.89119 5.17401 6.93986 5.63815 5.76294 6.01665Z" fill="#FFFEF9"/>
<path fill-rule="evenodd" clip-rule="evenodd" d="M7.93623 8.54303C8.18864 8.50745 8.4221 8.68322 8.45768 8.93562C8.77765 11.2053 10.1509 13.4333 11.5432 15.1167C12.2348 15.953 12.9194 16.6407 13.4569 17.1161C13.6444 17.2818 13.8114 17.4195 13.9524 17.5275C13.9693 17.3243 13.9817 17.0711 13.9896 16.7761C14.0126 15.9236 13.9973 14.7799 13.9663 13.6279C13.9353 12.4778 13.8888 11.3269 13.85 10.4631C13.8306 10.0313 13.8132 9.67149 13.8006 9.41975C13.7943 9.29388 13.7892 9.19504 13.7857 9.12772L13.7803 9.02525C13.7666 8.77072 13.9618 8.55289 14.2163 8.53918C14.4709 8.52546 14.6883 8.72069 14.702 8.97522L14.2412 9.00005C14.7018 8.97523 14.702 8.97513 14.702 8.97522L14.7075 9.07971C14.7111 9.14761 14.7162 9.24708 14.7225 9.37362C14.7352 9.62669 14.7527 9.98806 14.7722 10.4217C14.8111 11.2886 14.8578 12.4454 14.889 13.603C14.9202 14.7587 14.936 15.9227 14.9123 16.8009C14.9006 17.2374 14.8788 17.6181 14.8414 17.8958C14.8232 18.0305 14.7982 18.167 14.7587 18.2797C14.7398 18.3337 14.7071 18.4136 14.6486 18.4885C14.5903 18.5631 14.4562 18.6924 14.2412 18.6924C14.1498 18.6924 14.0728 18.6691 14.0276 18.6531C13.9764 18.635 13.9273 18.612 13.883 18.5889C13.7943 18.5427 13.6963 18.4806 13.5938 18.4091C13.3873 18.265 13.1316 18.0606 12.8454 17.8076C12.2717 17.3002 11.5538 16.578 10.8319 15.705C9.39695 13.97 7.89863 11.5826 7.54364 9.06448C7.50806 8.81207 7.68383 8.57861 7.93623 8.54303Z" fill="#FFFEF9"/>
<path fill-rule="evenodd" clip-rule="evenodd" d="M19.9527 8.58151C20.1838 8.68904 20.284 8.96356 20.1764 9.19467C19.4719 10.709 18.1836 11.9487 17.0683 12.8959C16.7872 13.1346 16.514 13.3572 16.2614 13.5618C16.2242 13.592 16.1875 13.6217 16.1512 13.651C15.9404 13.8217 15.7475 13.9779 15.5749 14.1228C15.409 14.262 15.2687 14.385 15.1555 14.4939C15.1895 14.5084 15.2256 14.5238 15.264 14.5399C15.3357 14.5702 15.4134 14.6025 15.4962 14.6371C15.8727 14.794 16.3554 14.9952 16.8682 15.2394C18.0983 15.8251 19.6285 16.7138 20.3959 17.9934C20.527 18.212 20.4561 18.4954 20.2375 18.6266C20.0189 18.7577 19.7354 18.6867 19.6043 18.4681C18.9911 17.4458 17.6938 16.6549 16.4714 16.0728C15.9814 15.8395 15.524 15.6488 15.1477 15.4919C15.0627 15.4564 14.9818 15.4227 14.9056 15.3906C14.7058 15.3064 14.5237 15.2274 14.3938 15.1581C14.3334 15.1258 14.2528 15.0795 14.1852 15.0194C14.1527 14.9906 14.0934 14.933 14.0506 14.8453C14.0011 14.7436 13.9692 14.5857 14.046 14.4215C14.1315 14.2386 14.2778 14.0675 14.426 13.917C14.5808 13.7598 14.7721 13.5914 14.9815 13.4156C15.1609 13.2651 15.3612 13.103 15.5715 12.9327C15.6075 12.9036 15.6438 12.8742 15.6803 12.8446C15.9319 12.6407 16.1982 12.4237 16.4708 12.1922C17.5703 11.2585 18.7246 10.127 19.3395 8.80529C19.447 8.57418 19.7215 8.47399 19.9527 8.58151Z" fill="#FFFEF9"/>
</svg>
