<svg width="28" height="28" viewBox="0 0 28 28" fill="none" xmlns="http://www.w3.org/2000/svg">
<path fill-rule="evenodd" clip-rule="evenodd" d="M14.0179 11.8198C14.1526 11.742 14.2209 11.6173 14.2461 11.5026C14.2689 11.3986 14.2585 11.2992 14.2434 11.2234C14.2129 11.0705 14.1404 10.9039 14.057 10.7461C13.8861 10.4228 13.6155 10.0368 13.3184 9.6788C13.0217 9.32121 12.682 8.97162 12.3655 8.73028C12.2088 8.61083 12.0405 8.50445 11.8731 8.44269C11.7144 8.38409 11.4809 8.33907 11.263 8.46492C11.1839 8.51061 11.1051 8.57935 11.039 8.64205C10.9673 8.71006 10.8883 8.79277 10.8064 8.8837C10.6421 9.06591 10.4557 9.2929 10.2767 9.52749C10.0978 9.76197 9.92262 10.009 9.78219 10.2318C9.64975 10.4419 9.52327 10.6685 9.47475 10.8495C9.38983 11.1665 9.40144 11.5875 9.48037 12.0083C9.56081 12.4373 9.71847 12.9055 9.9608 13.3252L9.96137 13.3262C10.1395 13.6347 10.5889 14.4131 11.1623 15.226C11.7282 16.0284 12.4464 16.911 13.17 17.3887C13.2947 17.4711 13.387 17.5369 13.4765 17.6008C13.5371 17.644 13.5965 17.6863 13.6638 17.7323C13.8152 17.8356 13.9723 17.9315 14.1663 18.0023C14.5519 18.1429 15.0233 18.1621 15.8231 18.097C15.954 18.0863 16.0884 18.0839 16.235 18.0813L16.3389 18.0793C16.5181 18.0756 16.7165 18.0688 16.9039 18.0379C17.0912 18.0069 17.2957 17.9477 17.4741 17.8199C17.6614 17.6856 17.795 17.4935 17.8616 17.2448C18.0213 16.6488 17.8772 16.0109 17.6791 15.4821C17.4794 14.9491 17.2014 14.4674 17.0251 14.1622L17.0214 14.1558C16.9188 13.9781 16.7563 13.8769 16.5785 13.8424C16.4172 13.8112 16.2558 13.8362 16.1203 13.8734C15.8491 13.9477 15.5521 14.1081 15.2926 14.2662C15.0788 14.3964 14.8669 14.5401 14.6911 14.6592L14.69 14.6599C14.6486 14.688 14.6092 14.7147 14.5723 14.7395C14.4952 14.7913 14.4312 14.8335 14.3796 14.8655C14.3468 14.8378 14.3072 14.8006 14.2598 14.7525C14.2021 14.6939 14.142 14.6288 14.0756 14.5567L14.0442 14.5227C13.9675 14.4397 13.8833 14.3494 13.7974 14.2656C13.7165 14.1866 13.6377 14.1121 13.561 14.0396C13.2287 13.7255 12.9359 13.4486 12.6766 13.0047C12.6767 12.9933 12.6779 12.9504 12.7101 12.8567C12.7577 12.7181 12.8402 12.5593 12.9345 12.3783C12.974 12.3025 13.0261 12.2571 13.2061 12.183C13.2438 12.1675 13.2875 12.1507 13.3362 12.132C13.5127 12.0644 13.7553 11.9714 14.0179 11.8198ZM11.6164 9.13822C11.6108 9.13614 11.6057 9.13439 11.6012 9.13292C11.5881 9.1441 11.5709 9.15942 11.5493 9.17986C11.4963 9.2302 11.4312 9.29779 11.3571 9.38003C11.2092 9.54418 11.0356 9.75503 10.8662 9.97718C10.6966 10.1994 10.5349 10.428 10.4093 10.6272C10.2758 10.839 10.2072 10.9806 10.1909 11.0414C10.1462 11.2083 10.1404 11.5057 10.2091 11.8717C10.2762 12.2296 10.4078 12.6167 10.6029 12.9545C10.7792 13.26 11.2149 14.0143 11.7681 14.7987C12.3295 15.5946 12.9803 16.3751 13.5785 16.77C13.7057 16.854 13.8293 16.9418 13.9319 17.0146C13.9896 17.0556 14.0406 17.0918 14.0819 17.12C14.2121 17.2089 14.3105 17.2657 14.4204 17.3058C14.6426 17.3868 14.9726 17.4223 15.763 17.358C15.9197 17.3452 16.0831 17.3424 16.2309 17.3398L16.3235 17.3381C16.5024 17.3344 16.6534 17.3278 16.783 17.3064C16.9126 17.285 16.9926 17.2528 17.0422 17.2173C17.0829 17.1881 17.1209 17.1447 17.1455 17.0529C17.2451 16.6814 17.1647 16.2221 16.9849 15.7422C16.8164 15.2926 16.5809 14.876 16.4049 14.5708C16.3831 14.5729 16.3538 14.5781 16.3162 14.5884C16.1516 14.6335 15.9292 14.7466 15.6783 14.8994C15.4815 15.0193 15.2887 15.1499 15.1136 15.2685C15.07 15.298 15.0271 15.3271 14.9859 15.3548C14.8862 15.4218 14.7897 15.4854 14.7091 15.5324C14.6692 15.5556 14.6243 15.5801 14.58 15.5992C14.5512 15.6116 14.4626 15.6499 14.3563 15.6441C14.1948 15.6353 14.0638 15.5547 13.9831 15.4962C13.8939 15.4316 13.808 15.3503 13.7316 15.2728C13.6646 15.2048 13.5953 15.1295 13.5296 15.0583L13.4995 15.0257C13.4228 14.9427 13.3503 14.8651 13.2797 14.7962C13.2133 14.7314 13.1441 14.6663 13.073 14.5994C12.7308 14.2772 12.346 13.9149 12.0255 13.3599C11.8727 13.0952 11.9466 12.7973 12.0089 12.6159C12.0754 12.4222 12.1813 12.2193 12.2661 12.0567L12.277 12.0357C12.4397 11.7237 12.6943 11.592 12.9238 11.4975C12.9841 11.4726 13.0428 11.45 13.1014 11.4275C13.2242 11.3803 13.3466 11.3332 13.4831 11.2656C13.4646 11.2193 13.438 11.1616 13.4015 11.0926C13.2619 10.8285 13.0244 10.4855 12.7479 10.1522C12.4711 9.81864 12.1717 9.51483 11.916 9.31986C11.7865 9.22115 11.6853 9.16365 11.6164 9.13822Z" fill="#FFFEF9"/>
<path fill-rule="evenodd" clip-rule="evenodd" d="M19.1577 5.68186C15.7078 4.04066 12.8017 3.78104 10.4625 4.75637C8.12494 5.73101 6.47922 7.88656 5.43327 10.7989L5.43198 10.8025C5.42694 10.8163 5.41524 10.8486 5.40634 10.8836C5.39743 10.9186 5.39226 10.9527 5.39004 10.9674L5.38946 10.9712C5.06087 13.0931 5.09401 14.7082 5.56031 16.1122C6.02513 17.5118 6.90131 18.6438 8.14749 19.835C7.9865 20.5573 7.87521 21.1431 7.77129 21.6901C7.71832 21.969 7.66726 22.2378 7.61251 22.5094L7.60692 22.5371C7.57448 22.6976 7.53987 22.869 7.53267 23.01C7.52515 23.1573 7.53678 23.446 7.7932 23.6431C8.04603 23.8375 8.32304 23.78 8.46663 23.7345C8.59973 23.6923 8.75378 23.6161 8.8959 23.5458L8.92113 23.5333C9.49872 23.2479 10.0873 22.9267 10.6202 22.6352L10.6453 22.6215C11.0929 22.3768 11.4948 22.157 11.828 21.9904L11.8357 21.993C11.969 22.0373 12.1622 22.0987 12.4048 22.1619C12.8893 22.2881 13.5721 22.422 14.3799 22.4446C16.0028 22.49 18.1254 22.0846 20.1381 20.2906L20.1407 20.2883C20.1511 20.2791 20.1751 20.2578 20.1984 20.233C20.2216 20.2082 20.2411 20.183 20.2496 20.1721L20.2517 20.1693C22.0101 17.9142 23.1266 15.0912 23.1187 12.43C23.1106 9.74492 21.9519 7.22493 19.1848 5.69575C19.1759 5.69085 19.1669 5.68622 19.1577 5.68186ZM6.50934 15.797C6.11402 14.6067 6.06109 13.1724 6.3767 11.1305C7.36871 8.37191 8.86484 6.50595 10.8473 5.67935C12.827 4.85396 15.417 5.01269 18.7143 6.5783C21.1132 7.90985 22.1116 10.0657 22.1187 12.433C22.1259 14.8265 21.1137 17.4351 19.4676 19.5487C17.6835 21.1364 15.8283 21.4847 14.4079 21.445C13.6934 21.425 13.0876 21.3064 12.657 21.1942C12.4421 21.1382 12.2711 21.0839 12.151 21.044L12.0029 20.9942C11.9854 20.9884 11.961 20.9804 11.9376 20.974C11.9273 20.9712 11.904 20.9649 11.8756 20.9602C11.862 20.958 11.8342 20.9538 11.7991 20.9532L11.7979 20.9532C11.7764 20.9528 11.6803 20.9512 11.5734 21.0019C11.184 21.1871 10.6978 21.4531 10.1852 21.7334L10.1405 21.7578C9.65076 22.0256 9.13154 22.3089 8.62105 22.5655C8.66878 22.3247 8.71306 22.0915 8.75804 21.8545C8.86154 21.3093 8.96881 20.7443 9.13052 20.0213L9.13296 20.0104C9.14413 19.9606 9.15906 19.8941 9.16676 19.8328C9.17629 19.757 9.18072 19.6512 9.14462 19.5323C9.10836 19.4128 9.04538 19.3272 8.99548 19.2697C8.9549 19.223 8.90535 19.1758 8.86798 19.1403L8.85986 19.1325C7.65817 17.9873 6.90377 16.9847 6.50934 15.797Z" fill="#FFFEF9"/>
</svg>
